<!-- Generated by readme-aura https://github.com/collectioneur/readme-aura -->
<svg width="160" height="48" viewBox="0 0 160 48" xmlns="http://www.w3.org/2000/svg"><defs><clipPath id="satori_bc-id"><path x="0" y="0" width="160" height="48" d="M24,0 h112 a24,24 0 0 1 24,24 v0 a24,24 0 0 1 -24,24 h-112 a24,24 0 0 1 -24,-24 v0 a24,24 0 0 1 24,-24"/></clipPath></defs><mask id="satori_om-id"><rect x="1" y="1" width="158" height="46" fill="#fff"/><path width="160" height="48" fill="none" stroke="#000" stroke-width="2" d="M7.029,7.029 A24,24 0 0 1 24,0 h112 a24,24 0 0 1 24,24 v0 a24,24 0 0 1 -24,24 h-112 a24,24 0 0 1 -24,-24 v0 A24,24 0 0 1 7.029,7.029"/></mask><path x="0" y="0" width="160" height="48" fill="#09090b" d="M24,0 h112 a24,24 0 0 1 24,24 v0 a24,24 0 0 1 -24,24 h-112 a24,24 0 0 1 -24,-24 v0 a24,24 0 0 1 24,-24"/><path width="160" height="48" clip-path="url(#satori_bc-id)" fill="none" stroke="#27272a" stroke-width="2" d="M7.029,7.029 A24,24 0 0 1 24,0 h112 a24,24 0 0 1 24,24 v0 a24,24 0 0 1 -24,24 h-112 a24,24 0 0 1 -24,-24 v0 A24,24 0 0 1 7.029,7.029"/><mask id="satori_om-id-0"><rect x="57" y="16" width="46" height="17" fill="#fff"/></mask><g  ><path fill="white" d="M62.4 30.1L62.4 30.1Q61.0 30.1 60.0 29.5Q59.0 28.9 58.4 27.7Q57.8 26.5 57.8 24.9L57.8 24.9Q57.8 23.3 58.4 22.1Q59.0 20.9 60.0 20.3Q61.0 19.7 62.3 19.7L62.3 19.7Q63.1 19.7 63.8 19.9Q64.5 20.2 65.1 20.6Q65.6 21.0 66.0 21.7Q66.4 22.3 66.5 23.0L66.5 23.0L65.2 23.0Q65.0 22.5 64.7 22.1Q64.5 21.7 64.1 21.5Q63.8 21.2 63.3 21.0Q62.9 20.9 62.3 20.9L62.3 20.9Q61.4 20.9 60.7 21.3Q60.0 21.8 59.5 22.7Q59.1 23.6 59.1 24.9L59.1 24.9Q59.1 26.2 59.5 27.1Q60.0 28.0 60.7 28.5Q61.5 28.9 62.4 28.9L62.4 28.9Q63.3 28.9 63.9 28.6Q64.6 28.2 64.9 27.5L64.9 27.5Q65.3 26.9 65.3 26.0L65.3 26.0L62.7 26.0L62.7 24.9L66.6 24.9L66.6 26.0Q66.6 27.3 66.0 28.2Q65.5 29.1 64.6 29.6Q63.6 30.1 62.4 30.1ZM69.8 30L68.5 30L68.5 22.4L69.8 22.4L69.8 30ZM69.1 21.1L69.1 21.1Q68.8 21.1 68.5 20.9Q68.3 20.6 68.3 20.3L68.3 20.3Q68.3 20.0 68.5 19.7Q68.8 19.5 69.1 19.5L69.1 19.5Q69.5 19.5 69.8 19.7Q70.0 20.0 70.0 20.3L70.0 20.3Q70.0 20.6 69.8 20.9Q69.5 21.1 69.1 21.1ZM73.4 22.4L74.9 22.4L74.9 23.4L73.4 23.4L73.4 28.0Q73.4 28.5 73.6 28.8Q73.8 29.0 74.3 29.0L74.3 29.0Q74.4 29.0 74.6 29.0Q74.7 28.9 74.9 28.9L74.9 28.9L75.1 30.0Q74.9 30.0 74.7 30.1Q74.5 30.1 74.2 30.1L74.2 30.1Q73.2 30.1 72.7 29.6Q72.1 29.0 72.1 28.1L72.1 28.1L72.1 23.4L71.0 23.4L71.0 22.4L72.1 22.4L72.1 20.5L73.4 20.5L73.4 22.4ZM77.9 30L76.6 30L76.6 19.8L77.9 19.8L77.9 24.2L83.3 24.2L83.3 19.8L84.6 19.8L84.6 30L83.3 30L83.3 25.4L77.9 25.4L77.9 30ZM89.5 30.1L89.5 30.1Q88.7 30.1 88.1 29.8Q87.5 29.5 87.2 28.8Q86.9 28.2 86.9 27.2L86.9 27.2L86.9 22.4L88.1 22.4L88.1 27.1Q88.1 28.0 88.6 28.5Q89.1 29.0 89.9 29.0L89.9 29.0Q90.4 29.0 90.8 28.7Q91.3 28.5 91.5 28.0Q91.8 27.6 91.8 26.9L91.8 26.9L91.8 22.4L93.0 22.4L93.0 30L91.8 30L91.8 28.6Q91.5 29.3 91.0 29.7L91.0 29.7Q90.3 30.1 89.5 30.1ZM98.7 30.2L98.7 30.2Q98.0 30.2 97.6 29.9Q97.1 29.7 96.9 29.3Q96.6 29.0 96.5 28.8L96.5 28.8L96.4 28.8L96.4 30L95.2 30L95.2 19.8L96.4 19.8L96.4 23.6L96.5 23.6Q96.6 23.4 96.9 23.1Q97.1 22.8 97.5 22.5Q98.0 22.3 98.7 22.3L98.7 22.3Q99.7 22.3 100.4 22.7Q101.1 23.2 101.5 24.1Q102.0 25.0 102.0 26.2L102.0 26.2Q102.0 27.4 101.5 28.3Q101.1 29.2 100.4 29.7Q99.7 30.2 98.7 30.2ZM98.5 29.1L98.5 29.1Q99.3 29.1 99.7 28.7Q100.2 28.3 100.5 27.6Q100.7 27.0 100.7 26.2L100.7 26.2Q100.7 25.4 100.5 24.8Q100.2 24.1 99.7 23.7Q99.3 23.4 98.5 23.4L98.5 23.4Q97.8 23.4 97.4 23.7Q96.9 24.1 96.6 24.7Q96.4 25.3 96.4 26.2L96.4 26.2Q96.4 27.0 96.6 27.7Q96.9 28.3 97.4 28.7Q97.9 29.1 98.5 29.1Z "/></g></svg>