<!-- Generated by readme-aura https://github.com/collectioneur/readme-aura -->
<svg width="860" height="140" viewBox="0 0 860 140" xmlns="http://www.w3.org/2000/svg"><defs><clipPath id="satori_bc-id"><path x="0" y="0" width="860" height="140" d="M16,0 h828 a16,16 0 0 1 16,16 v108 a16,16 0 0 1 -16,16 h-828 a16,16 0 0 1 -16,-16 v-108 a16,16 0 0 1 16,-16"/></clipPath></defs><clipPath id="satori_cp-id"><path x="0" y="0" width="860" height="140" d="M16,0 h828 a16,16 0 0 1 16,16 v108 a16,16 0 0 1 -16,16 h-828 a16,16 0 0 1 -16,-16 v-108 a16,16 0 0 1 16,-16"/></clipPath><mask id="satori_om-id"><rect x="1" y="1" width="858" height="138" fill="#fff"/><path width="860" height="140" fill="none" stroke="#000" stroke-width="2" d="M4.686,4.686 A16,16 0 0 1 16,0 h828 a16,16 0 0 1 16,16 v108 a16,16 0 0 1 -16,16 h-828 a16,16 0 0 1 -16,-16 v-108 A16,16 0 0 1 4.686,4.686"/></mask><path x="0" y="0" width="860" height="140" fill="#08080c" d="M16,0 h828 a16,16 0 0 1 16,16 v108 a16,16 0 0 1 -16,16 h-828 a16,16 0 0 1 -16,-16 v-108 a16,16 0 0 1 16,-16"/><path width="860" height="140" clip-path="url(#satori_bc-id)" fill="none" stroke="rgba(110,80,220,0.18)" stroke-width="2" d="M4.686,4.686 A16,16 0 0 1 16,0 h828 a16,16 0 0 1 16,16 v108 a16,16 0 0 1 -16,16 h-828 a16,16 0 0 1 -16,-16 v-108 A16,16 0 0 1 4.686,4.686"/><clipPath id="satori_cp-id-0" clip-path="url(#satori_cp-id)"><rect x="1" y="1" width="860" height="140"/></clipPath><mask id="satori_om-id-0"><rect x="1" y="1" width="860" height="140" fill="#fff" mask="url(#satori_om-id)"/></mask><svg x="1" y="1" width="860" height="140" preserveAspectRatio="none" clip-path="url(#satori_cp-id-0)" mask="url(#satori_om-id-0)"><defs><radialGradient id="g1" cx="50%" cy="50%" r="50%"><stop offset="0%" stop-color="rgba(110,20,210,0.65)"></stop><stop offset="45%" stop-color="rgba(80,15,170,0.28)"></stop><stop offset="70%" stop-color="rgba(80,15,170,0)"></stop></radialGradient><radialGradient id="g2" cx="50%" cy="50%" r="50%"><stop offset="0%" stop-color="rgba(40,70,255,0.55)"></stop><stop offset="45%" stop-color="rgba(20,50,200,0.22)"></stop><stop offset="70%" stop-color="rgba(20,50,200,0)"></stop></radialGradient><radialGradient id="g3" cx="50%" cy="50%" r="50%"><stop offset="0%" stop-color="rgba(0,140,255,0.42)"></stop><stop offset="70%" stop-color="rgba(0,140,255,0)"></stop></radialGradient><radialGradient id="g4" cx="50%" cy="50%" r="50%"><stop offset="0%" stop-color="rgba(0,195,235,0.30)"></stop><stop offset="70%" stop-color="rgba(0,195,235,0)"></stop></radialGradient><radialGradient id="g5" cx="50%" cy="50%" r="50%"><stop offset="0%" stop-color="rgba(100,30,210,0.40)"></stop><stop offset="70%" stop-color="rgba(100,30,210,0)"></stop></radialGradient></defs><ellipse id="glow-1" cx="710" cy="150" rx="210" ry="150" fill="url(#g1)"></ellipse><ellipse id="glow-2" cx="550" cy="140" rx="190" ry="140" fill="url(#g2)"></ellipse><ellipse id="glow-3" cx="400" cy="130" rx="170" ry="130" fill="url(#g3)"></ellipse><ellipse id="glow-4" cx="250" cy="140" rx="150" ry="120" fill="url(#g4)"></ellipse><ellipse id="glow-5" cx="100" cy="150" rx="130" ry="110" fill="url(#g5)"></ellipse><style>

         @keyframes float-slow {
           0%, 100% { transform: translateX(0px); opacity: 0.8; }
           50% { transform: translateX(350px); opacity: 1.2; }
         }
         @keyframes float-medium {
           0%, 100% { transform: translateX(0px); opacity: 0.7; }
           50% { transform: translateX(-250px); opacity: 1.1; }
         }
         @keyframes float-fast {
           0%, 100% { transform: translateX(0px); opacity: 0.9; }
           50% { transform: translateX(200px); opacity: 0.6; }
         }
         @keyframes float-diagonal {
           0%, 100% { transform: translate(0px, 0px); opacity: 0.75; }
           50% { transform: translate(120px, 30px); opacity: 1.0; }
         }
         @keyframes float-wave {
           0%, 100% { transform: translateX(0px); opacity: 0.65; }
           33% { transform: translateX(-160px); opacity: 0.9; }
           66% { transform: translateX(80px); opacity: 1.0; }
         }
         #glow-1 { animation: float-slow 8s ease-in-out infinite; }
         #glow-2 { animation: float-medium 12s ease-in-out infinite; }
         #glow-3 { animation: float-fast 9s ease-in-out infinite; }
         #glow-4 { animation: float-diagonal 10s ease-in-out infinite; }
         #glow-5 { animation: float-wave 14s ease-in-out infinite; }
       
</style>
</svg><mask id="satori_om-id-0-0"><rect x="1" y="1" width="0" height="140" fill="#fff" mask="url(#satori_om-id)"/></mask><mask id="satori_om-id-0-0-0"><rect x="1" y="1" width="0" height="140" fill="#fff" mask="url(#satori_om-id)"/></mask><mask id="satori_om-id-0-0-0-0"><rect x="1" y="1" width="0" height="140" fill="#fff" mask="url(#satori_om-id)"/></mask><mask id="satori_om-id-0-0-0-1"><rect x="1" y="1" width="0" height="140" fill="#fff" mask="url(#satori_om-id)"/></mask><mask id="satori_om-id-0-0-0-2"><rect x="1" y="1" width="0" height="140" fill="#fff" mask="url(#satori_om-id)"/></mask><mask id="satori_om-id-0-0-1"><rect x="1" y="1" width="0" height="140" fill="#fff" mask="url(#satori_om-id)"/></mask><mask id="satori_om-id-0-0-1-0"><rect x="1" y="1" width="0" height="140" fill="#fff" mask="url(#satori_om-id)"/></mask><mask id="satori_om-id-0-0-1-1"><rect x="1" y="1" width="0" height="140" fill="#fff" mask="url(#satori_om-id)"/></mask><mask id="satori_om-id-0-0-1-2"><rect x="1" y="1" width="0" height="140" fill="#fff" mask="url(#satori_om-id)"/></mask><mask id="satori_om-id-0-0-2"><rect x="1" y="1" width="0" height="140" fill="#fff" mask="url(#satori_om-id)"/></mask><mask id="satori_om-id-0-0-2-0"><rect x="1" y="1" width="0" height="140" fill="#fff" mask="url(#satori_om-id)"/></mask><mask id="satori_om-id-0-0-2-1"><rect x="1" y="1" width="0" height="140" fill="#fff" mask="url(#satori_om-id)"/></mask><mask id="satori_om-id-0-0-3"><rect x="1" y="1" width="0" height="140" fill="#fff" mask="url(#satori_om-id)"/></mask><mask id="satori_om-id-0-0-3-0"><rect x="1" y="1" width="0" height="140" fill="#fff" mask="url(#satori_om-id)"/></mask><mask id="satori_om-id-0-0-3-1"><rect x="1" y="1" width="0" height="140" fill="#fff" mask="url(#satori_om-id)"/></mask><mask id="satori_om-id-0-0-4"><rect x="1" y="1" width="0" height="140" fill="#fff" mask="url(#satori_om-id)"/></mask><mask id="satori_om-id-0-0-4-0"><rect x="1" y="1" width="0" height="140" fill="#fff" mask="url(#satori_om-id)"/></mask><mask id="satori_om-id-0-0-4-1"><rect x="1" y="1" width="0" height="140" fill="#fff" mask="url(#satori_om-id)"/></mask><mask id="satori_om-id-0-1"><rect x="1" y="1" width="0" height="140" fill="#fff" mask="url(#satori_om-id)"/></mask><mask id="satori_om-id-0-2"><rect x="1" y="1" width="0" height="140" fill="#fff" mask="url(#satori_om-id)"/></mask><mask id="satori_om-id-0-3"><rect x="1" y="1" width="0" height="140" fill="#fff" mask="url(#satori_om-id)"/></mask><mask id="satori_om-id-0-4"><rect x="1" y="1" width="0" height="140" fill="#fff" mask="url(#satori_om-id)"/></mask><mask id="satori_om-id-0-5"><rect x="1" y="1" width="0" height="140" fill="#fff" mask="url(#satori_om-id)"/></mask><defs><clipPath id="satori_bc-id-1" clip-path="url(#satori_cp-id)"><rect x="1" y="30" width="278" height="80"/></clipPath></defs><mask id="satori_om-id-1"><rect x="1" y="30" width="277" height="80" fill="#fff" mask="url(#satori_om-id)"/><path width="278" height="80" fill="none" stroke="#000" stroke-width="2" d="M279,30 A0,0 0 0 1 279,30 v80 A0,0 0 0 1 279,110"/></mask><path width="278" height="80" clip-path="url(#satori_bc-id-1)" fill="none" stroke="rgba(255,255,255,0.06)" stroke-width="2" d="M279,30 A0,0 0 0 1 279,30 v80 A0,0 0 0 1 279,110"/><mask id="satori_om-id-1-0"><rect x="113" y="46" width="52" height="30" fill="#fff" mask="url(#satori_om-id)"/></mask><g mask="url(#satori_om-id)" clip-path="url(#satori_cp-id)"><path fill="#a78bfa" d="M119.2 50.2L124.0 50.2L124.0 72L119.5 72L119.5 54.1L119.4 54.1L114.4 57.7L114.4 53.6L119.2 50.2ZM143.2 72L127.8 72L127.8 68.8L135.5 61.5Q136.5 60.6 137.2 59.8Q137.8 59.0 138.2 58.2Q138.6 57.5 138.6 56.6L138.6 56.6Q138.6 55.6 138.1 54.9Q137.7 54.2 136.9 53.8Q136.2 53.5 135.2 53.5L135.2 53.5Q134.2 53.5 133.4 53.9Q132.6 54.3 132.2 55.0Q131.8 55.8 131.8 56.9L131.8 56.9L127.5 56.9Q127.5 54.7 128.5 53.2Q129.5 51.6 131.2 50.7Q133.0 49.9 135.2 49.9L135.2 49.9Q137.5 49.9 139.3 50.7Q141.0 51.5 141.9 53.0Q142.9 54.4 142.9 56.3L142.9 56.3Q142.9 57.5 142.4 58.7Q141.9 59.9 140.7 61.4Q139.5 62.9 137.3 64.9L137.3 64.9L134.0 68.2L134.0 68.3L143.2 68.3L143.2 72ZM154.1 72.3L154.1 72.3Q152.0 72.3 150.3 71.5Q148.7 70.6 147.7 69.2Q146.6 67.7 146.4 65.9L146.4 65.9L150.9 65.9Q151.1 67.1 152.0 67.8Q152.8 68.5 154.1 68.5L154.1 68.5Q155.6 68.5 156.6 67.6Q157.6 66.8 158.1 65.2Q158.6 63.6 158.6 61.5L158.6 61.5L158.4 61.5Q157.9 62.4 157.1 63.1Q156.3 63.8 155.2 64.1Q154.1 64.5 152.9 64.5L152.9 64.5Q151.0 64.5 149.5 63.6Q148.0 62.7 147.1 61.1Q146.2 59.5 146.2 57.5L146.2 57.5Q146.2 55.2 147.2 53.5Q148.3 51.8 150.1 50.8Q151.9 49.8 154.3 49.9L154.3 49.9Q156.0 49.9 157.5 50.4Q159.1 51.0 160.3 52.2Q161.5 53.5 162.2 55.5Q163.0 57.6 163.0 60.6L163.0 60.6Q163.0 63.3 162.3 65.5Q161.7 67.7 160.6 69.2Q159.4 70.7 157.8 71.5Q156.2 72.3 154.1 72.3ZM154.3 61.2L154.3 61.2Q155.1 61.2 155.8 60.9Q156.5 60.6 157.0 60.1Q157.5 59.5 157.8 58.8Q158.1 58.1 158.1 57.3L158.1 57.3Q158.1 56.3 157.6 55.4Q157.1 54.5 156.3 54.0Q155.4 53.4 154.3 53.4L154.3 53.4Q153.3 53.4 152.4 53.9Q151.6 54.5 151.1 55.4Q150.6 56.2 150.6 57.3L150.6 57.3Q150.6 58.4 151.0 59.3Q151.5 60.2 152.4 60.7Q153.2 61.2 154.3 61.2Z "/></g><mask id="satori_om-id-1-1"><rect x="117" y="81" width="45" height="13" fill="#fff" mask="url(#satori_om-id)"/></mask><g mask="url(#satori_om-id)" clip-path="url(#satori_cp-id)"><path fill="rgba(200,195,225,0.45)" d="M119.4 92L117.7 92L117.7 84.0L120.8 84.0Q121.8 84.0 122.4 84.3Q123.0 84.6 123.4 85.2Q123.7 85.8 123.7 86.6Q123.7 87.4 123.4 88.0Q123.0 88.5 122.4 88.8L122.4 88.8Q122.3 88.9 122.3 88.9L122.3 88.9L124.0 92L122.2 92L120.6 89.1L119.4 89.1L119.4 92ZM119.4 85.4L119.4 87.8L120.5 87.8Q121.0 87.8 121.4 87.7Q121.7 87.5 121.9 87.3Q122.0 87.0 122.0 86.6L122.0 86.6Q122.0 86.2 121.9 85.9Q121.7 85.6 121.4 85.5Q121.0 85.4 120.5 85.4L120.5 85.4L119.4 85.4ZM131.8 92L126.4 92L126.4 84.0L131.8 84.0L131.8 85.4L128.1 85.4L128.1 87.3L131.5 87.3L131.5 88.6L128.1 88.6L128.1 90.6L131.8 90.6L131.8 92ZM136.3 92L134.6 92L134.6 84.0L137.8 84.0Q138.7 84.0 139.3 84.3Q139.9 84.7 140.3 85.3Q140.6 85.9 140.6 86.7L140.6 86.7Q140.6 87.5 140.3 88.1Q139.9 88.7 139.3 89.0Q138.6 89.4 137.7 89.4L137.7 89.4L136.3 89.4L136.3 92ZM136.3 85.4L136.3 88.1L137.5 88.1Q138.0 88.1 138.3 87.9Q138.6 87.7 138.8 87.4Q138.9 87.1 138.9 86.7Q138.9 86.3 138.8 86.0Q138.6 85.7 138.3 85.5Q138.0 85.4 137.4 85.4L137.4 85.4L136.3 85.4ZM146.8 92.1L146.8 92.1Q145.7 92.1 144.9 91.6Q144.0 91.1 143.5 90.2Q143.0 89.3 143.0 88.0L143.0 88.0Q143.0 86.7 143.5 85.8Q144.0 84.9 144.9 84.4Q145.7 83.9 146.8 83.9L146.8 83.9Q147.8 83.9 148.7 84.4Q149.5 84.9 150.0 85.8Q150.5 86.7 150.5 88.0L150.5 88.0Q150.5 89.3 150.0 90.2Q149.5 91.1 148.7 91.6Q147.8 92.1 146.8 92.1ZM146.8 90.7L146.8 90.7Q147.4 90.7 147.9 90.3Q148.3 90.0 148.6 89.5Q148.8 88.9 148.8 88.0L148.8 88.0Q148.8 87.1 148.6 86.5Q148.3 86.0 147.9 85.6Q147.4 85.3 146.8 85.3L146.8 85.3Q146.2 85.3 145.7 85.7Q145.2 86.0 145.0 86.6Q144.7 87.1 144.7 88.0L144.7 88.0Q144.7 88.9 145.0 89.4Q145.2 90.0 145.7 90.3Q146.2 90.7 146.8 90.7ZM156.2 92.1L156.2 92.1Q155.2 92.1 154.5 91.8Q153.8 91.5 153.4 90.9Q153.0 90.4 153.0 89.5L153.0 89.5L154.6 89.5Q154.6 89.9 154.8 90.2Q155.0 90.5 155.4 90.6Q155.7 90.7 156.2 90.7L156.2 90.7Q156.6 90.7 156.9 90.6Q157.2 90.5 157.4 90.2Q157.6 90.0 157.6 89.7L157.6 89.7Q157.6 89.4 157.4 89.3Q157.3 89.1 157.0 88.9Q156.7 88.8 156.2 88.7L156.2 88.7L155.3 88.5Q154.3 88.2 153.8 87.7Q153.2 87.2 153.2 86.3L153.2 86.3Q153.2 85.6 153.6 85.0Q154.0 84.5 154.6 84.2Q155.3 83.9 156.2 83.9L156.2 83.9Q157.1 83.9 157.7 84.2Q158.4 84.5 158.8 85.0Q159.1 85.6 159.1 86.3L159.1 86.3L157.6 86.3Q157.5 85.8 157.2 85.5Q156.8 85.3 156.2 85.3L156.2 85.3Q155.8 85.3 155.5 85.4Q155.2 85.5 155.0 85.7Q154.9 85.9 154.9 86.2L154.9 86.2Q154.9 86.5 155.0 86.7Q155.2 86.9 155.5 87.0Q155.8 87.1 156.1 87.2L156.1 87.2L156.9 87.4Q157.4 87.5 157.8 87.7Q158.2 87.9 158.6 88.2Q158.9 88.4 159.1 88.8Q159.3 89.2 159.3 89.7L159.3 89.7Q159.3 90.4 158.9 91.0Q158.5 91.5 157.8 91.8Q157.1 92.1 156.2 92.1Z "/></g><defs><clipPath id="satori_bc-id-2" clip-path="url(#satori_cp-id)"><rect x="279" y="30" width="277" height="80"/></clipPath></defs><mask id="satori_om-id-2"><rect x="279" y="30" width="276" height="80" fill="#fff" mask="url(#satori_om-id)"/><path width="277" height="80" fill="none" stroke="#000" stroke-width="2" d="M556,30 A0,0 0 0 1 556,30 v80 A0,0 0 0 1 556,110"/></mask><path width="277" height="80" clip-path="url(#satori_bc-id-2)" fill="none" stroke="rgba(255,255,255,0.06)" stroke-width="2" d="M556,30 A0,0 0 0 1 556,30 v80 A0,0 0 0 1 556,110"/><mask id="satori_om-id-2-0"><rect x="391" y="46" width="52" height="30" fill="#fff" mask="url(#satori_om-id)"/></mask><g mask="url(#satori_om-id)" clip-path="url(#satori_cp-id)"><path fill="#60a5fa" d="M397.2 50.2L402.0 50.2L402.0 72L397.5 72L397.5 54.1L397.4 54.1L392.4 57.7L392.4 53.6L397.2 50.2ZM414.0 72.3L414.0 72.3Q412.3 72.3 410.7 71.7Q409.2 71.2 408.0 69.9Q406.7 68.7 406.0 66.7Q405.3 64.6 405.3 61.6L405.3 61.6Q405.3 58.8 405.9 56.7Q406.5 54.5 407.7 53.0Q408.9 51.5 410.5 50.7Q412.1 49.9 414.1 49.9L414.1 49.9Q416.3 49.9 417.9 50.7Q419.6 51.6 420.6 53.0Q421.6 54.4 421.8 56.2L421.8 56.2L417.4 56.2Q417.1 55.1 416.3 54.4Q415.4 53.7 414.1 53.7L414.1 53.7Q412.7 53.7 411.7 54.6Q410.7 55.4 410.2 57.0Q409.7 58.6 409.7 60.7L409.7 60.7L409.9 60.7Q410.4 59.8 411.2 59.1Q412.0 58.4 413.1 58.0Q414.1 57.7 415.3 57.7L415.3 57.7Q417.3 57.7 418.8 58.6Q420.3 59.5 421.2 61.1Q422.1 62.7 422.1 64.7L422.1 64.7Q422.1 66.9 421.0 68.6Q420.0 70.3 418.2 71.3Q416.4 72.3 414.0 72.3ZM413.9 68.7L413.9 68.7Q415.0 68.7 415.9 68.2Q416.7 67.7 417.2 66.8Q417.7 65.9 417.7 64.8L417.7 64.8Q417.7 63.7 417.2 62.8Q416.7 62.0 415.9 61.4Q415.0 60.9 414.0 60.9L414.0 60.9Q413.1 60.9 412.5 61.2Q411.8 61.5 411.3 62.1Q410.7 62.6 410.4 63.3Q410.2 64.0 410.2 64.8L410.2 64.8Q410.2 65.9 410.6 66.8Q411.1 67.7 412.0 68.2Q412.8 68.7 413.9 68.7ZM432.6 72.3L432.6 72.3Q430.4 72.3 428.6 71.5Q426.9 70.6 425.9 69.2Q424.8 67.7 424.8 65.9L424.8 65.9L429.1 65.9Q429.2 66.7 429.7 67.4Q430.1 68.0 430.9 68.4Q431.7 68.7 432.6 68.7L432.6 68.7Q433.7 68.7 434.6 68.3Q435.4 67.8 435.9 66.9Q436.4 66.0 436.4 64.9L436.4 64.9Q436.4 63.7 435.9 62.8Q435.4 61.9 434.5 61.4Q433.7 60.9 432.5 60.9L432.5 60.9Q431.6 60.9 430.7 61.3Q429.8 61.7 429.3 62.3L429.3 62.3L425.2 61.6L426.3 50.2L439.5 50.2L439.5 53.9L430.0 53.9L429.4 59.4L429.6 59.4Q430.1 58.6 431.3 58.1Q432.4 57.6 433.8 57.6L433.8 57.6Q435.3 57.6 436.6 58.1Q437.8 58.6 438.8 59.6Q439.7 60.5 440.2 61.9Q440.7 63.2 440.7 64.7L440.7 64.7Q440.7 66.9 439.7 68.6Q438.7 70.3 436.8 71.3Q435.0 72.3 432.6 72.3Z "/></g><mask id="satori_om-id-2-1"><rect x="395" y="81" width="45" height="13" fill="#fff" mask="url(#satori_om-id)"/></mask><g mask="url(#satori_om-id)" clip-path="url(#satori_cp-id)"><path fill="rgba(200,195,225,0.45)" d="M398.7 92.1L398.7 92.1Q397.7 92.1 397.0 91.8Q396.3 91.5 395.9 90.9Q395.5 90.4 395.5 89.5L395.5 89.5L397.1 89.5Q397.1 89.9 397.3 90.2Q397.5 90.5 397.9 90.6Q398.2 90.7 398.6 90.7L398.6 90.7Q399.1 90.7 399.4 90.6Q399.7 90.5 399.9 90.2Q400.1 90.0 400.1 89.7L400.1 89.7Q400.1 89.4 399.9 89.3Q399.8 89.1 399.5 88.9Q399.2 88.8 398.7 88.7L398.7 88.7L397.8 88.5Q396.8 88.2 396.2 87.7Q395.7 87.2 395.7 86.3L395.7 86.3Q395.7 85.6 396.1 85.0Q396.5 84.5 397.1 84.2Q397.8 83.9 398.7 83.9L398.7 83.9Q399.6 83.9 400.2 84.2Q400.9 84.5 401.3 85.0Q401.6 85.6 401.6 86.3L401.6 86.3L400.1 86.3Q400.0 85.8 399.6 85.5Q399.3 85.3 398.7 85.3L398.7 85.3Q398.2 85.3 398.0 85.4Q397.7 85.5 397.5 85.7Q397.4 85.9 397.4 86.2L397.4 86.2Q397.4 86.5 397.5 86.7Q397.7 86.9 398.0 87.0Q398.3 87.1 398.6 87.2L398.6 87.2L399.4 87.4Q399.9 87.5 400.3 87.7Q400.7 87.9 401.1 88.2Q401.4 88.4 401.6 88.8Q401.7 89.2 401.7 89.7L401.7 89.7Q401.7 90.4 401.4 91.0Q401.0 91.5 400.3 91.8Q399.6 92.1 398.7 92.1ZM406.6 85.4L404.1 85.4L404.1 84.0L410.6 84.0L410.6 85.4L408.2 85.4L408.2 92L406.6 92L406.6 85.4ZM414.6 92L412.8 92L415.5 84.0L417.7 84.0L420.5 92L418.7 92L418.1 90.1L415.2 90.1L414.6 92ZM415.6 88.9L417.6 88.9L417.4 88.1Q417.2 87.4 416.9 86.5L416.9 86.5Q416.8 85.9 416.6 85.3L416.6 85.3Q416.4 85.9 416.3 86.5L416.3 86.5Q416.1 87.4 415.9 88.1L415.9 88.1L415.6 88.9ZM424.6 92L423.0 92L423.0 84.0L426.1 84.0Q427.0 84.0 427.7 84.3Q428.3 84.6 428.6 85.2Q429.0 85.8 429.0 86.6Q429.0 87.4 428.6 88.0Q428.3 88.5 427.6 88.8L427.6 88.8Q427.6 88.9 427.5 88.9L427.5 88.9L429.3 92L427.4 92L425.9 89.1L424.6 89.1L424.6 92ZM424.6 85.4L424.6 87.8L425.8 87.8Q426.3 87.8 426.6 87.7Q427.0 87.5 427.1 87.3Q427.3 87.0 427.3 86.6L427.3 86.6Q427.3 86.2 427.1 85.9Q427.0 85.6 426.6 85.5Q426.3 85.4 425.8 85.4L425.8 85.4L424.6 85.4ZM434.6 92.1L434.6 92.1Q433.7 92.1 433.0 91.8Q432.3 91.5 431.9 90.9Q431.5 90.4 431.4 89.5L431.4 89.5L433.0 89.5Q433.1 89.9 433.3 90.2Q433.5 90.5 433.8 90.6Q434.2 90.7 434.6 90.7L434.6 90.7Q435.1 90.7 435.4 90.6Q435.7 90.5 435.9 90.2Q436.1 90.0 436.1 89.7L436.1 89.7Q436.1 89.4 435.9 89.3Q435.8 89.1 435.4 88.9Q435.1 88.8 434.7 88.7L434.7 88.7L433.8 88.5Q432.8 88.2 432.2 87.7Q431.7 87.2 431.7 86.3L431.7 86.3Q431.7 85.6 432.0 85.0Q432.4 84.5 433.1 84.2Q433.8 83.9 434.7 83.9L434.7 83.9Q435.5 83.9 436.2 84.2Q436.9 84.5 437.2 85.0Q437.6 85.6 437.6 86.3L437.6 86.3L436.0 86.3Q436.0 85.8 435.6 85.5Q435.3 85.3 434.6 85.3L434.6 85.3Q434.2 85.3 433.9 85.4Q433.6 85.5 433.5 85.7Q433.3 85.9 433.3 86.2L433.3 86.2Q433.3 86.5 433.5 86.7Q433.7 86.9 434.0 87.0Q434.3 87.1 434.6 87.2L434.6 87.2L435.3 87.4Q435.8 87.5 436.3 87.7Q436.7 87.9 437.0 88.2Q437.4 88.4 437.5 88.8Q437.7 89.2 437.7 89.7L437.7 89.7Q437.7 90.4 437.4 91.0Q437.0 91.5 436.3 91.8Q435.6 92.1 434.6 92.1Z "/></g><mask id="satori_om-id-3"><rect x="556" y="30" width="303" height="80" fill="#fff" mask="url(#satori_om-id)"/></mask><mask id="satori_om-id-3-0"><rect x="668" y="46" width="78" height="30" fill="#fff" mask="url(#satori_om-id)"/></mask><g mask="url(#satori_om-id)" clip-path="url(#satori_cp-id)"><path fill="#f59e0b" d="M674.2 50.2L679.0 50.2L679.0 72L674.5 72L674.5 54.1L674.4 54.1L669.4 57.7L669.4 53.6L674.2 50.2ZM687.1 50.2L691.9 50.2L691.9 72L687.4 72L687.4 54.1L687.3 54.1L682.3 57.7L682.3 53.6L687.1 50.2ZM703.9 72.3L703.9 72.3Q702.2 72.3 700.7 71.7Q699.1 71.2 697.9 69.9Q696.7 68.7 696.0 66.7Q695.2 64.6 695.2 61.6L695.2 61.6Q695.2 58.8 695.9 56.7Q696.5 54.5 697.6 53.0Q698.8 51.5 700.4 50.7Q702.0 49.9 704.0 49.9L704.0 49.9Q706.2 49.9 707.9 50.7Q709.5 51.6 710.5 53.0Q711.5 54.4 711.8 56.2L711.8 56.2L707.4 56.2Q707.1 55.1 706.2 54.4Q705.3 53.7 704.0 53.7L704.0 53.7Q702.6 53.7 701.6 54.6Q700.6 55.4 700.1 57.0Q699.6 58.6 699.6 60.7L699.6 60.7L699.8 60.7Q700.3 59.8 701.1 59.1Q701.9 58.4 703.0 58.0Q704.1 57.7 705.3 57.7L705.3 57.7Q707.2 57.7 708.7 58.6Q710.2 59.5 711.1 61.1Q712.0 62.7 712.0 64.7L712.0 64.7Q712.0 66.9 711.0 68.6Q709.9 70.3 708.1 71.3Q706.3 72.3 703.9 72.3ZM703.9 68.7L703.9 68.7Q704.9 68.7 705.8 68.2Q706.6 67.7 707.1 66.8Q707.6 65.9 707.6 64.8L707.6 64.8Q707.6 63.7 707.2 62.8Q706.7 62.0 705.8 61.4Q705.0 60.9 703.9 60.9L703.9 60.9Q703.1 60.9 702.4 61.2Q701.7 61.5 701.2 62.1Q700.7 62.6 700.4 63.3Q700.1 64.0 700.1 64.8L700.1 64.8Q700.1 65.9 700.6 66.8Q701.1 67.7 701.9 68.2Q702.8 68.7 703.9 68.7ZM719.5 50.2L724.3 50.2L724.3 72L719.9 72L719.9 54.1L719.7 54.1L714.7 57.7L714.7 53.6L719.5 50.2ZM736.0 72.3L736.0 72.3Q733.6 72.3 731.7 71.5Q729.8 70.7 728.7 69.3Q727.7 67.9 727.7 66.1L727.7 66.1Q727.7 64.8 728.3 63.6Q728.9 62.5 730.0 61.7Q731.0 60.9 732.4 60.7L732.4 60.7L732.4 60.6Q730.6 60.2 729.5 58.9Q728.5 57.5 728.5 55.7L728.5 55.7Q728.5 54.1 729.4 52.7Q730.4 51.4 732.1 50.6Q733.8 49.9 736.0 49.9L736.0 49.9Q738.2 49.9 739.9 50.6Q741.7 51.4 742.7 52.7Q743.6 54.1 743.6 55.7L743.6 55.7Q743.6 57.5 742.5 58.9Q741.4 60.2 739.7 60.6L739.7 60.6L739.7 60.7Q741.1 60.9 742.1 61.7Q743.2 62.5 743.8 63.6Q744.5 64.8 744.5 66.1L744.5 66.1Q744.5 67.9 743.4 69.3Q742.3 70.7 740.4 71.5Q738.5 72.3 736.0 72.3ZM736.0 69.0L736.0 69.0Q737.2 69.0 738.0 68.6Q738.8 68.2 739.3 67.5Q739.8 66.7 739.8 65.8L739.8 65.8Q739.8 64.8 739.3 64.1Q738.8 63.3 738.0 62.9Q737.1 62.5 736.0 62.5L736.0 62.5Q735.0 62.5 734.1 62.9Q733.3 63.3 732.8 64.1Q732.3 64.8 732.3 65.8L732.3 65.8Q732.3 66.7 732.8 67.4Q733.2 68.2 734.1 68.6Q734.9 69.0 736.0 69.0ZM736.0 59.2L736.0 59.2Q737.0 59.2 737.7 58.8Q738.4 58.4 738.8 57.8Q739.3 57.1 739.3 56.2L739.3 56.2Q739.3 55.3 738.9 54.7Q738.4 54.0 737.7 53.7Q737.0 53.3 736.0 53.3L736.0 53.3Q735.1 53.3 734.4 53.7Q733.6 54.0 733.2 54.7Q732.8 55.3 732.8 56.2L732.8 56.2Q732.8 57.1 733.2 57.8Q733.6 58.4 734.4 58.8Q735.1 59.2 736.0 59.2Z "/></g><mask id="satori_om-id-3-1"><rect x="674" y="81" width="66" height="13" fill="#fff" mask="url(#satori_om-id)"/></mask><g mask="url(#satori_om-id)" clip-path="url(#satori_cp-id)"><path fill="rgba(200,195,225,0.45)" d="M678.2 92.1L678.2 92.1Q677.2 92.1 676.3 91.6Q675.5 91.1 675.0 90.2Q674.5 89.3 674.5 88.0L674.5 88.0Q674.5 86.7 675.0 85.8Q675.5 84.9 676.3 84.4Q677.2 83.9 678.2 83.9L678.2 83.9Q678.9 83.9 679.5 84.1Q680.1 84.3 680.5 84.6Q681.0 85.0 681.3 85.5Q681.6 86.1 681.7 86.7L681.7 86.7L680.0 86.7Q680.0 86.4 679.8 86.1Q679.6 85.9 679.4 85.7Q679.2 85.5 678.9 85.4Q678.6 85.3 678.3 85.3L678.3 85.3Q677.6 85.3 677.2 85.7Q676.7 86.0 676.4 86.6Q676.2 87.2 676.2 88.0L676.2 88.0Q676.2 88.9 676.4 89.5Q676.7 90.1 677.2 90.4Q677.6 90.7 678.2 90.7L678.2 90.7Q678.6 90.7 678.9 90.6Q679.2 90.5 679.4 90.3Q679.6 90.1 679.8 89.8Q680.0 89.6 680.0 89.3L680.0 89.3L681.7 89.3Q681.6 89.8 681.3 90.3Q681.1 90.8 680.6 91.2Q680.2 91.6 679.6 91.9Q679.0 92.1 678.2 92.1ZM687.9 92.1L687.9 92.1Q686.8 92.1 686.0 91.6Q685.1 91.1 684.6 90.2Q684.1 89.3 684.1 88.0L684.1 88.0Q684.1 86.7 684.6 85.8Q685.1 84.9 686.0 84.4Q686.8 83.9 687.9 83.9L687.9 83.9Q688.9 83.9 689.8 84.4Q690.6 84.9 691.1 85.8Q691.6 86.7 691.6 88.0L691.6 88.0Q691.6 89.3 691.1 90.2Q690.6 91.1 689.8 91.6Q688.9 92.1 687.9 92.1ZM687.9 90.7L687.9 90.7Q688.5 90.7 689.0 90.3Q689.4 90.0 689.7 89.5Q689.9 88.9 689.9 88.0L689.9 88.0Q689.9 87.1 689.7 86.5Q689.4 86.0 689.0 85.6Q688.5 85.3 687.9 85.3L687.9 85.3Q687.3 85.3 686.8 85.7Q686.3 86.0 686.1 86.6Q685.8 87.1 685.8 88.0L685.8 88.0Q685.8 88.9 686.1 89.4Q686.3 90.0 686.8 90.3Q687.3 90.7 687.9 90.7ZM696.0 92L694.3 92L694.3 84.0L696.9 84.0L698.2 87.7Q698.2 87.9 698.3 88.3Q698.4 88.7 698.5 89.2L698.5 89.2Q698.7 89.7 698.7 90.1L698.7 90.1Q698.8 89.7 698.9 89.2L698.9 89.2Q699.0 88.8 699.2 88.3Q699.3 87.9 699.3 87.7L699.3 87.7L700.6 84.0L703.1 84.0L703.1 92L701.5 92L701.5 88.2Q701.5 88.0 701.5 87.6Q701.5 87.2 701.5 86.7Q701.5 86.3 701.5 85.8L701.5 85.8Q701.6 85.6 701.6 85.4L701.6 85.4Q701.5 85.6 701.4 85.9L701.4 85.9Q701.3 86.3 701.2 86.8Q701.1 87.2 700.9 87.6Q700.8 88.0 700.8 88.2L700.8 88.2L699.4 92L698.0 92L696.7 88.2Q696.6 88.0 696.5 87.6Q696.4 87.2 696.3 86.8Q696.1 86.4 696.0 85.9L696.0 85.9Q696.0 85.7 695.9 85.5L695.9 85.5Q695.9 85.6 695.9 85.8L695.9 85.8Q695.9 86.2 695.9 86.7Q695.9 87.2 696.0 87.6Q696.0 88.0 696.0 88.2L696.0 88.2L696.0 92ZM707.7 92L706.1 92L706.1 84.0L708.6 84.0L709.9 87.7Q710.0 87.9 710.1 88.3Q710.2 88.7 710.3 89.2L710.3 89.2Q710.4 89.7 710.5 90.1L710.5 90.1Q710.6 89.7 710.7 89.2L710.7 89.2Q710.8 88.8 710.9 88.3Q711.0 87.9 711.1 87.7L711.1 87.7L712.4 84.0L714.9 84.0L714.9 92L713.2 92L713.2 88.2Q713.2 88.0 713.2 87.6Q713.3 87.2 713.3 86.7Q713.3 86.3 713.3 85.8L713.3 85.8Q713.3 85.6 713.3 85.4L713.3 85.4Q713.2 85.6 713.2 85.9L713.2 85.9Q713.1 86.3 712.9 86.8Q712.8 87.2 712.7 87.6Q712.6 88.0 712.5 88.2L712.5 88.2L711.2 92L709.8 92L708.4 88.2Q708.4 88.0 708.3 87.6Q708.1 87.2 708.0 86.8Q707.9 86.4 707.8 85.9L707.8 85.9Q707.7 85.7 707.7 85.5L707.7 85.5Q707.7 85.6 707.7 85.8L707.7 85.8Q707.7 86.2 707.7 86.7Q707.7 87.2 707.7 87.6Q707.7 88.0 707.7 88.2L707.7 88.2L707.7 92ZM717.8 84.0L719.5 84.0L719.5 92L717.8 92L717.8 84.0ZM724.5 85.4L722.1 85.4L722.1 84.0L728.6 84.0L728.6 85.4L726.2 85.4L726.2 92L724.5 92L724.5 85.4ZM734.2 92.1L734.2 92.1Q733.2 92.1 732.5 91.8Q731.8 91.5 731.4 90.9Q731.0 90.4 731.0 89.5L731.0 89.5L732.6 89.5Q732.6 89.9 732.8 90.2Q733.0 90.5 733.4 90.6Q733.7 90.7 734.2 90.7L734.2 90.7Q734.6 90.7 734.9 90.6Q735.3 90.5 735.5 90.2Q735.6 90.0 735.6 89.7L735.6 89.7Q735.6 89.4 735.5 89.3Q735.3 89.1 735.0 88.9Q734.7 88.8 734.3 88.7L734.3 88.7L733.4 88.5Q732.4 88.2 731.8 87.7Q731.2 87.2 731.2 86.3L731.2 86.3Q731.2 85.6 731.6 85.0Q732.0 84.5 732.7 84.2Q733.3 83.9 734.2 83.9L734.2 83.9Q735.1 83.9 735.8 84.2Q736.4 84.5 736.8 85.0Q737.2 85.6 737.2 86.3L737.2 86.3L735.6 86.3Q735.6 85.8 735.2 85.5Q734.8 85.3 734.2 85.3L734.2 85.3Q733.8 85.3 733.5 85.4Q733.2 85.5 733.0 85.7Q732.9 85.9 732.9 86.2L732.9 86.2Q732.9 86.5 733.1 86.7Q733.2 86.9 733.5 87.0Q733.8 87.1 734.2 87.2L734.2 87.2L734.9 87.4Q735.4 87.5 735.8 87.7Q736.3 87.9 736.6 88.2Q736.9 88.4 737.1 88.8Q737.3 89.2 737.3 89.7L737.3 89.7Q737.3 90.4 736.9 91.0Q736.6 91.5 735.9 91.8Q735.2 92.1 734.2 92.1Z "/></g></svg>