<!-- Generated by readme-aura https://github.com/collectioneur/readme-aura -->
<svg width="160" height="48" viewBox="0 0 160 48" xmlns="http://www.w3.org/2000/svg"><defs><clipPath id="satori_bc-id"><path x="0" y="0" width="160" height="48" d="M24,0 h112 a24,24 0 0 1 24,24 v0 a24,24 0 0 1 -24,24 h-112 a24,24 0 0 1 -24,-24 v0 a24,24 0 0 1 24,-24"/></clipPath></defs><mask id="satori_om-id"><rect x="1" y="1" width="158" height="46" fill="#fff"/><path width="160" height="48" fill="none" stroke="#000" stroke-width="2" d="M7.029,7.029 A24,24 0 0 1 24,0 h112 a24,24 0 0 1 24,24 v0 a24,24 0 0 1 -24,24 h-112 a24,24 0 0 1 -24,-24 v0 A24,24 0 0 1 7.029,7.029"/></mask><path x="0" y="0" width="160" height="48" fill="#09090b" d="M24,0 h112 a24,24 0 0 1 24,24 v0 a24,24 0 0 1 -24,24 h-112 a24,24 0 0 1 -24,-24 v0 a24,24 0 0 1 24,-24"/><path width="160" height="48" clip-path="url(#satori_bc-id)" fill="none" stroke="#27272a" stroke-width="2" d="M7.029,7.029 A24,24 0 0 1 24,0 h112 a24,24 0 0 1 24,24 v0 a24,24 0 0 1 -24,24 h-112 a24,24 0 0 1 -24,-24 v0 A24,24 0 0 1 7.029,7.029"/><mask id="satori_om-id-0"><rect x="52" y="16" width="56" height="17" fill="#fff"/></mask><g  ><path fill="white" d="M54.5 30L53.2 30L53.2 19.8L56.7 19.8Q57.9 19.8 58.7 20.2Q59.4 20.7 59.8 21.4Q60.2 22.1 60.2 23.1Q60.2 24.0 59.8 24.7Q59.4 25.4 58.7 25.9Q57.9 26.3 56.7 26.3L56.7 26.3L54.5 26.3L54.5 30ZM54.5 21.0L54.5 25.2L56.7 25.2Q57.5 25.2 58.0 24.9Q58.5 24.6 58.7 24.1Q58.9 23.7 58.9 23.1Q58.9 22.5 58.7 22.0Q58.5 21.5 58.0 21.2Q57.5 21.0 56.6 21.0L56.6 21.0L54.5 21.0ZM65.1 30.2L65.1 30.2Q64.1 30.2 63.3 29.7Q62.5 29.2 62.1 28.3Q61.7 27.4 61.7 26.2L61.7 26.2Q61.7 25.0 62.1 24.1Q62.5 23.2 63.3 22.8Q64.1 22.3 65.1 22.3L65.1 22.3Q66.2 22.3 67.0 22.8Q67.8 23.2 68.2 24.1Q68.6 25.0 68.6 26.2L68.6 26.2Q68.6 27.4 68.2 28.3Q67.8 29.2 67.0 29.7Q66.2 30.2 65.1 30.2ZM65.1 29.1L65.1 29.1Q65.9 29.1 66.4 28.7Q66.9 28.3 67.1 27.6Q67.4 27.0 67.4 26.2L67.4 26.2Q67.4 25.5 67.1 24.8Q66.9 24.2 66.4 23.8Q65.9 23.4 65.1 23.4L65.1 23.4Q64.4 23.4 63.9 23.8Q63.4 24.2 63.1 24.8Q62.9 25.5 62.9 26.2L62.9 26.2Q62.9 27.0 63.1 27.6Q63.4 28.3 63.9 28.7Q64.4 29.1 65.1 29.1ZM71.6 30L70.4 30L70.4 22.4L71.6 22.4L71.6 23.5L71.7 23.5Q71.9 23.0 72.4 22.6Q73.0 22.2 73.7 22.2L73.7 22.2Q73.8 22.2 74.0 22.3Q74.2 22.3 74.3 22.3L74.3 22.3L74.3 23.5Q74.2 23.5 74.0 23.5Q73.8 23.4 73.6 23.4L73.6 23.4Q73.0 23.4 72.6 23.7Q72.1 23.9 71.9 24.3Q71.6 24.7 71.6 25.2L71.6 25.2L71.6 30ZM77.1 22.4L78.7 22.4L78.7 23.4L77.1 23.4L77.1 28.0Q77.1 28.5 77.3 28.8Q77.5 29.0 78.0 29.0L78.0 29.0Q78.1 29.0 78.3 29.0Q78.5 28.9 78.7 28.9L78.7 28.9L78.9 30.0Q78.7 30.0 78.5 30.1Q78.2 30.1 78.0 30.1L78.0 30.1Q77.0 30.1 76.4 29.6Q75.9 29.0 75.9 28.1L75.9 28.1L75.9 23.4L74.7 23.4L74.7 22.4L75.9 22.4L75.9 20.5L77.1 20.5L77.1 22.4ZM82.1 22.4L83.8 22.4L83.8 23.4L82.1 23.4L82.1 30L80.8 30L80.8 23.4L79.3 23.4L79.3 22.4L80.8 22.4L80.8 21.3Q80.8 20.7 81.1 20.2Q81.4 19.8 81.9 19.6Q82.4 19.3 83.0 19.3L83.0 19.3Q83.4 19.3 83.7 19.4Q84.0 19.5 84.1 19.5L84.1 19.5L83.8 20.6Q83.7 20.6 83.6 20.5Q83.4 20.5 83.1 20.5L83.1 20.5Q82.6 20.5 82.3 20.8Q82.1 21.1 82.1 21.6L82.1 21.6L82.1 22.4ZM88.6 30.2L88.6 30.2Q87.5 30.2 86.7 29.7Q86.0 29.2 85.5 28.3Q85.1 27.4 85.1 26.2L85.1 26.2Q85.1 25.0 85.5 24.1Q86.0 23.2 86.7 22.8Q87.5 22.3 88.6 22.3L88.6 22.3Q89.6 22.3 90.4 22.8Q91.2 23.2 91.6 24.1Q92.1 25.0 92.1 26.2L92.1 26.2Q92.1 27.4 91.6 28.3Q91.2 29.2 90.4 29.7Q89.6 30.2 88.6 30.2ZM88.6 29.1L88.6 29.1Q89.3 29.1 89.8 28.7Q90.3 28.3 90.6 27.6Q90.8 27.0 90.8 26.2L90.8 26.2Q90.8 25.5 90.6 24.8Q90.3 24.2 89.8 23.8Q89.3 23.4 88.6 23.4L88.6 23.4Q87.8 23.4 87.3 23.8Q86.8 24.2 86.6 24.8Q86.3 25.5 86.3 26.2L86.3 26.2Q86.3 27.0 86.6 27.6Q86.8 28.3 87.3 28.7Q87.8 29.1 88.6 29.1ZM93.8 19.8L95.1 19.8L95.1 30L93.8 30L93.8 19.8ZM98.5 30L97.2 30L97.2 22.4L98.5 22.4L98.5 30ZM97.9 21.1L97.9 21.1Q97.5 21.1 97.3 20.9Q97.0 20.6 97.0 20.3L97.0 20.3Q97.0 20.0 97.3 19.7Q97.5 19.5 97.9 19.5L97.9 19.5Q98.2 19.5 98.5 19.7Q98.7 20.0 98.7 20.3L98.7 20.3Q98.7 20.6 98.5 20.9Q98.2 21.1 97.9 21.1ZM103.7 30.2L103.7 30.2Q102.7 30.2 101.9 29.7Q101.1 29.2 100.7 28.3Q100.3 27.4 100.3 26.2L100.3 26.2Q100.3 25.0 100.7 24.1Q101.1 23.2 101.9 22.8Q102.7 22.3 103.7 22.3L103.7 22.3Q104.8 22.3 105.6 22.8Q106.4 23.2 106.8 24.1Q107.2 25.0 107.2 26.2L107.2 26.2Q107.2 27.4 106.8 28.3Q106.4 29.2 105.6 29.7Q104.8 30.2 103.7 30.2ZM103.7 29.1L103.7 29.1Q104.5 29.1 105.0 28.7Q105.5 28.3 105.7 27.6Q106.0 27.0 106.0 26.2L106.0 26.2Q106.0 25.5 105.7 24.8Q105.5 24.2 105.0 23.8Q104.5 23.4 103.7 23.4L103.7 23.4Q103.0 23.4 102.5 23.8Q102.0 24.2 101.7 24.8Q101.5 25.5 101.5 26.2L101.5 26.2Q101.5 27.0 101.7 27.6Q102.0 28.3 102.5 28.7Q103.0 29.1 103.7 29.1Z "/></g></svg>