<!-- Generated by readme-aura https://github.com/collectioneur/readme-aura -->
<svg width="800" height="160" viewBox="0 0 800 160" xmlns="http://www.w3.org/2000/svg"><defs><clipPath id="satori_bc-id"><path x="0" y="0" width="800" height="160" d="M24,0 h752 a24,24 0 0 1 24,24 v112 a24,24 0 0 1 -24,24 h-752 a24,24 0 0 1 -24,-24 v-112 a24,24 0 0 1 24,-24"/></clipPath></defs><clipPath id="satori_cp-id"><path x="0" y="0" width="800" height="160" d="M24,0 h752 a24,24 0 0 1 24,24 v112 a24,24 0 0 1 -24,24 h-752 a24,24 0 0 1 -24,-24 v-112 a24,24 0 0 1 24,-24"/></clipPath><mask id="satori_om-id"><rect x="1" y="1" width="798" height="158" fill="#fff"/><path width="800" height="160" fill="none" stroke="#000" stroke-width="2" d="M7.029,7.029 A24,24 0 0 1 24,0 h752 a24,24 0 0 1 24,24 v112 a24,24 0 0 1 -24,24 h-752 a24,24 0 0 1 -24,-24 v-112 A24,24 0 0 1 7.029,7.029"/></mask><path x="0" y="0" width="800" height="160" fill="#09090b" d="M24,0 h752 a24,24 0 0 1 24,24 v112 a24,24 0 0 1 -24,24 h-752 a24,24 0 0 1 -24,-24 v-112 a24,24 0 0 1 24,-24"/><path width="800" height="160" clip-path="url(#satori_bc-id)" fill="none" stroke="#27272a" stroke-width="2" d="M7.029,7.029 A24,24 0 0 1 24,0 h752 a24,24 0 0 1 24,24 v112 a24,24 0 0 1 -24,24 h-752 a24,24 0 0 1 -24,-24 v-112 A24,24 0 0 1 7.029,7.029"/><defs><pattern id="satori_pattern_id-0_0" x="0" y="0" width="1" height="1" patternUnits="objectBoundingBox"><radialGradient id="satori_radial_id-0_0" spreadMethod="pad"><stop offset="0" stop-color="rgba(236, 72, 153, 0.25)"/><stop offset="0.7" stop-color="rgba(0,0,0,0)"/><stop offset="1" stop-color="rgba(0,0,0,0)"/></radialGradient><mask id="satori_mask_id-0_0"><rect x="0" y="0" width="300" height="200" fill="#fff"/></mask><rect x="0" y="0" width="300" height="200" fill="rgba(0,0,0,0)"/><circle cx="150" cy="100" width="300" height="200" r="180.27756377319946" fill="url(#satori_radial_id-0_0)" mask="url(#satori_mask_id-0_0)"/></pattern></defs><mask id="satori_om-id-0"><rect x="41" y="39" width="300" height="200" fill="#fff" mask="url(#satori_om-id)"/></mask><rect x="41" y="39" width="300" height="200" fill="url(#satori_pattern_id-0_0)" clip-path="url(#satori_cp-id)" mask="url(#satori_om-id)"/><defs><pattern id="satori_pattern_id-1_0" x="0" y="0" width="1" height="1" patternUnits="objectBoundingBox"><radialGradient id="satori_radial_id-1_0" spreadMethod="pad"><stop offset="0" stop-color="rgba(59, 130, 246, 0.25)"/><stop offset="0.7" stop-color="rgba(0,0,0,0)"/><stop offset="1" stop-color="rgba(0,0,0,0)"/></radialGradient><mask id="satori_mask_id-1_0"><rect x="0" y="0" width="300" height="200" fill="#fff"/></mask><rect x="0" y="0" width="300" height="200" fill="rgba(0,0,0,0)"/><circle cx="150" cy="100" width="300" height="200" r="180.27756377319946" fill="url(#satori_radial_id-1_0)" mask="url(#satori_mask_id-1_0)"/></pattern></defs><mask id="satori_om-id-1"><rect x="459" y="39" width="300" height="200" fill="#fff" mask="url(#satori_om-id)"/></mask><rect x="459" y="39" width="300" height="200" fill="url(#satori_pattern_id-1_0)" clip-path="url(#satori_cp-id)" mask="url(#satori_om-id)"/><defs><pattern id="satori_pattern_id-2_0" x="0" y="0" width="1" height="1" patternUnits="objectBoundingBox"><radialGradient id="satori_radial_id-2_0" spreadMethod="pad"><stop offset="0" stop-color="rgba(234, 179, 8, 0.2)"/><stop offset="0.7" stop-color="rgba(0,0,0,0)"/><stop offset="1" stop-color="rgba(0,0,0,0)"/></radialGradient><mask id="satori_mask_id-2_0"><rect x="0" y="0" width="250" height="150" fill="#fff"/></mask><rect x="0" y="0" width="250" height="150" fill="rgba(0,0,0,0)"/><circle cx="125" cy="75" width="250" height="150" r="145.7737973711325" fill="url(#satori_radial_id-2_0)" mask="url(#satori_mask_id-2_0)"/></pattern></defs><mask id="satori_om-id-2"><rect x="280" y="-49" width="250" height="150" fill="#fff" mask="url(#satori_om-id)"/></mask><rect x="280" y="-49" width="250" height="150" fill="url(#satori_pattern_id-2_0)" clip-path="url(#satori_cp-id)" mask="url(#satori_om-id)"/><mask id="satori_om-id-3"><rect x="50" y="34" width="66" height="93" fill="#fff" mask="url(#satori_om-id)"/></mask><mask id="satori_om-id-3-0"><rect x="50" y="34" width="66" height="68" fill="#fff" mask="url(#satori_om-id)"/></mask><g mask="url(#satori_om-id)" clip-path="url(#satori_cp-id)"><path fill="#ec4899" d="M63.5 88L54.8 88L71.8 54.4L71.8 54.1L52.1 54.1L52.1 47.3L80.5 47.3L80.5 54.3L63.5 88ZM97.2 88L88.5 88L105.5 54.4L105.5 54.1L85.7 54.1L85.7 47.3L114.2 47.3L114.2 54.3L97.2 88Z "/></g><mask id="satori_om-id-3-1"><rect x="55" y="110" width="57" height="17" fill="#fff" mask="url(#satori_om-id)"/></mask><g mask="url(#satori_om-id)" clip-path="url(#satori_cp-id)"><path fill="#52525b" d="M58.0 124L55.9 124L55.9 113.8L59.9 113.8Q61.1 113.8 61.9 114.2Q62.7 114.6 63.1 115.4Q63.5 116.1 63.5 117.1Q63.5 118.1 63.1 118.9Q62.7 119.6 61.8 120.0L61.8 120.0Q61.8 120.0 61.7 120.0L61.7 120.0L63.9 124L61.6 124L59.6 120.4L58.0 120.4L58.0 124ZM58.0 115.5L58.0 118.7L59.5 118.7Q60.2 118.7 60.6 118.5Q61.0 118.3 61.2 118.0Q61.4 117.6 61.4 117.1L61.4 117.1Q61.4 116.6 61.2 116.3Q61.0 115.9 60.6 115.7Q60.1 115.5 59.5 115.5L59.5 115.5L58.0 115.5ZM73.9 124L67.1 124L67.1 113.8L73.9 113.8L73.9 115.5L69.2 115.5L69.2 118.0L73.6 118.0L73.6 119.7L69.2 119.7L69.2 122.3L73.9 122.3L73.9 124ZM79.7 124L77.6 124L77.6 113.8L81.6 113.8Q82.8 113.8 83.6 114.3Q84.4 114.7 84.8 115.5Q85.2 116.2 85.2 117.3L85.2 117.3Q85.2 118.3 84.8 119.0Q84.4 119.8 83.5 120.2Q82.7 120.7 81.5 120.7L81.5 120.7L79.7 120.7L79.7 124ZM79.7 115.5L79.7 119.0L81.2 119.0Q81.9 119.0 82.3 118.8Q82.7 118.5 82.9 118.2Q83.1 117.8 83.1 117.3Q83.1 116.7 82.9 116.4Q82.7 116.0 82.3 115.8Q81.8 115.5 81.2 115.5L81.2 115.5L79.7 115.5ZM93.2 124.1L93.2 124.1Q91.8 124.1 90.7 123.5Q89.7 122.9 89.0 121.7Q88.4 120.6 88.4 118.9L88.4 118.9Q88.4 117.3 89.0 116.1Q89.7 114.9 90.7 114.3Q91.8 113.7 93.2 113.7L93.2 113.7Q94.5 113.7 95.6 114.3Q96.7 114.9 97.3 116.1Q97.9 117.3 97.9 118.9L97.9 118.9Q97.9 120.6 97.3 121.7Q96.7 122.9 95.6 123.5Q94.5 124.1 93.2 124.1ZM93.2 122.3L93.2 122.3Q94.0 122.3 94.5 121.9Q95.1 121.5 95.5 120.8Q95.8 120.0 95.8 118.9L95.8 118.9Q95.8 117.8 95.5 117.1Q95.1 116.3 94.5 115.9Q94.0 115.5 93.2 115.5L93.2 115.5Q92.4 115.5 91.8 115.9Q91.2 116.3 90.9 117.1Q90.5 117.8 90.5 118.9L90.5 118.9Q90.5 120.0 90.9 120.8Q91.2 121.5 91.8 121.9Q92.4 122.3 93.2 122.3ZM105.2 124.2L105.2 124.2Q104.0 124.2 103.1 123.8Q102.2 123.4 101.7 122.7Q101.2 121.9 101.1 120.8L101.1 120.8L103.2 120.8Q103.2 121.4 103.5 121.7Q103.7 122.0 104.2 122.2Q104.6 122.4 105.2 122.4L105.2 122.4Q105.8 122.4 106.2 122.2Q106.6 122.1 106.8 121.8Q107.0 121.5 107.0 121.1L107.0 121.1Q107.0 120.7 106.8 120.5Q106.6 120.3 106.2 120.1Q105.8 119.9 105.3 119.8L105.3 119.8L104.2 119.5Q102.9 119.2 102.1 118.5Q101.4 117.9 101.4 116.7L101.4 116.7Q101.4 115.8 101.9 115.1Q102.4 114.4 103.3 114.1Q104.1 113.7 105.2 113.7L105.2 113.7Q106.4 113.7 107.2 114.1Q108.0 114.5 108.5 115.1Q109.0 115.8 109.0 116.7L109.0 116.7L107.0 116.7Q106.9 116.1 106.5 115.8Q106.0 115.4 105.2 115.4L105.2 115.4Q104.7 115.4 104.3 115.6Q103.9 115.7 103.7 116.0Q103.6 116.3 103.6 116.6L103.6 116.6Q103.6 117.0 103.8 117.2Q104.0 117.5 104.4 117.6Q104.8 117.8 105.2 117.9L105.2 117.9L106.1 118.1Q106.7 118.3 107.3 118.5Q107.9 118.8 108.3 119.1Q108.7 119.5 108.9 120.0Q109.1 120.5 109.1 121.1L109.1 121.1Q109.1 122.0 108.7 122.7Q108.2 123.4 107.3 123.8Q106.4 124.2 105.2 124.2Z "/></g><mask id="satori_om-id-4"><rect x="213" y="50" width="1" height="60" fill="#fff" mask="url(#satori_om-id)"/></mask><rect x="213" y="50" width="1" height="60" fill="#27272a" clip-path="url(#satori_cp-id)" mask="url(#satori_om-id)"/><mask id="satori_om-id-5"><rect x="312" y="34" width="99" height="93" fill="#fff" mask="url(#satori_om-id)"/></mask><mask id="satori_om-id-5-0"><rect x="312" y="34" width="99" height="68" fill="#fff" mask="url(#satori_om-id)"/></mask><g mask="url(#satori_om-id)" clip-path="url(#satori_cp-id)"><path fill="#3b82f6" d="M323.5 47.3L332.5 47.3L332.5 88L324.1 88L324.1 54.6L323.9 54.6L314.5 61.2L314.5 53.6L323.5 47.3ZM354.4 88.5L354.4 88.5Q349.8 88.5 346.3 87.0Q342.7 85.5 340.7 82.9Q338.7 80.3 338.7 77.1L338.7 77.1Q338.7 74.5 339.9 72.4Q341.0 70.2 343.0 68.8Q345.0 67.4 347.5 66.9L347.5 66.9L347.5 66.7Q344.2 66.0 342.2 63.5Q340.2 61.0 340.2 57.6L340.2 57.6Q340.2 54.5 342.0 52.0Q343.9 49.6 347.1 48.1Q350.3 46.7 354.4 46.7L354.4 46.7Q358.4 46.7 361.6 48.1Q364.9 49.6 366.7 52.0Q368.5 54.5 368.5 57.6L368.5 57.6Q368.5 61.0 366.5 63.5Q364.4 66.0 361.3 66.7L361.3 66.7L361.3 66.9Q363.7 67.4 365.7 68.8Q367.7 70.2 368.9 72.4Q370.1 74.5 370.1 77.1L370.1 77.1Q370.1 80.3 368.0 82.9Q366.0 85.5 362.5 87.0Q358.9 88.5 354.4 88.5ZM354.4 82.4L354.4 82.4Q356.5 82.4 358.0 81.6Q359.6 80.9 360.5 79.5Q361.3 78.2 361.3 76.4L361.3 76.4Q361.3 74.6 360.4 73.2Q359.5 71.8 358.0 71.0Q356.4 70.2 354.4 70.2L354.4 70.2Q352.3 70.2 350.8 71.0Q349.2 71.8 348.3 73.2Q347.4 74.6 347.4 76.4L347.4 76.4Q347.4 78.2 348.2 79.5Q349.1 80.8 350.7 81.6Q352.3 82.4 354.4 82.4ZM354.4 64.1L354.4 64.1Q356.1 64.1 357.5 63.4Q358.8 62.7 359.6 61.4Q360.4 60.2 360.4 58.6L360.4 58.6Q360.4 56.9 359.6 55.7Q358.8 54.4 357.5 53.8Q356.1 53.1 354.4 53.1L354.4 53.1Q352.6 53.1 351.2 53.8Q349.9 54.4 349.1 55.7Q348.3 56.9 348.3 58.6L348.3 58.6Q348.3 60.2 349.1 61.4Q349.9 62.7 351.2 63.4Q352.6 64.1 354.4 64.1ZM394.9 80.8L375.4 80.8L375.4 74.2L392.4 47.3L402.9 47.3L402.9 74.0L407.9 74.0L407.9 80.8L402.9 80.8L402.9 88L394.9 88L394.9 80.8ZM383.8 74.0L395.0 74.0L395.0 56.4L394.7 56.4L383.8 73.7L383.8 74.0Z "/></g><mask id="satori_om-id-5-1"><rect x="333" y="110" width="58" height="17" fill="#fff" mask="url(#satori_om-id)"/></mask><g mask="url(#satori_om-id)" clip-path="url(#satori_cp-id)"><path fill="#52525b" d="M337.7 124.2L337.7 124.2Q336.4 124.2 335.5 123.8Q334.6 123.4 334.1 122.7Q333.6 121.9 333.6 120.8L333.6 120.8L335.6 120.8Q335.7 121.4 335.9 121.7Q336.2 122.0 336.6 122.2Q337.1 122.4 337.6 122.4L337.6 122.4Q338.2 122.4 338.6 122.2Q339.0 122.1 339.3 121.8Q339.5 121.5 339.5 121.1L339.5 121.1Q339.5 120.7 339.3 120.5Q339.1 120.3 338.7 120.1Q338.3 119.9 337.7 119.8L337.7 119.8L336.6 119.5Q335.3 119.2 334.6 118.5Q333.9 117.9 333.9 116.7L333.9 116.7Q333.9 115.8 334.4 115.1Q334.8 114.4 335.7 114.1Q336.6 113.7 337.7 113.7L337.7 113.7Q338.8 113.7 339.7 114.1Q340.5 114.5 341.0 115.1Q341.4 115.8 341.4 116.7L341.4 116.7L339.4 116.7Q339.4 116.1 338.9 115.8Q338.4 115.4 337.7 115.4L337.7 115.4Q337.1 115.4 336.8 115.6Q336.4 115.7 336.2 116.0Q336.0 116.3 336.0 116.6L336.0 116.6Q336.0 117.0 336.2 117.2Q336.4 117.5 336.8 117.6Q337.2 117.8 337.6 117.9L337.6 117.9L338.5 118.1Q339.2 118.3 339.7 118.5Q340.3 118.8 340.7 119.1Q341.1 119.5 341.4 120.0Q341.6 120.5 341.6 121.1L341.6 121.1Q341.6 122.0 341.1 122.7Q340.7 123.4 339.8 123.8Q338.9 124.2 337.7 124.2ZM347.8 115.5L344.7 115.5L344.7 113.8L353.0 113.8L353.0 115.5L349.9 115.5L349.9 124L347.8 124L347.8 115.5ZM358.2 124L355.8 124L359.3 113.8L362.1 113.8L365.6 124L363.3 124L362.5 121.6L358.9 121.6L358.2 124ZM359.4 120.0L362.0 120.0L361.7 119.1Q361.4 118.1 361.1 117L361.1 117Q360.9 116.3 360.7 115.5L360.7 115.5Q360.5 116.3 360.3 117.0L360.3 117.0Q360.0 118.2 359.7 119.1L359.7 119.1L359.4 120.0ZM371.0 124L368.9 124L368.9 113.8L372.9 113.8Q374.0 113.8 374.8 114.2Q375.6 114.6 376.1 115.4Q376.5 116.1 376.5 117.1Q376.5 118.1 376.1 118.9Q375.6 119.6 374.8 120.0L374.8 120.0Q374.8 120.0 374.7 120.0L374.7 120.0L376.9 124L374.6 124L372.6 120.4L371.0 120.4L371.0 124ZM371.0 115.5L371.0 118.7L372.5 118.7Q373.1 118.7 373.5 118.5Q373.9 118.3 374.1 118.0Q374.3 117.6 374.3 117.1L374.3 117.1Q374.3 116.6 374.1 116.3Q373.9 115.9 373.5 115.7Q373.1 115.5 372.5 115.5L372.5 115.5L371.0 115.5ZM383.8 124.2L383.8 124.2Q382.6 124.2 381.7 123.8Q380.8 123.4 380.3 122.7Q379.8 121.9 379.7 120.8L379.7 120.8L381.8 120.8Q381.8 121.4 382.1 121.7Q382.3 122.0 382.8 122.2Q383.2 122.4 383.8 122.4L383.8 122.4Q384.4 122.4 384.8 122.2Q385.2 122.1 385.4 121.8Q385.6 121.5 385.6 121.1L385.6 121.1Q385.6 120.7 385.4 120.5Q385.2 120.3 384.8 120.1Q384.4 119.9 383.9 119.8L383.9 119.8L382.8 119.5Q381.5 119.2 380.7 118.5Q380.0 117.9 380.0 116.7L380.0 116.7Q380.0 115.8 380.5 115.1Q381.0 114.4 381.9 114.1Q382.7 113.7 383.8 113.7L383.8 113.7Q385.0 113.7 385.8 114.1Q386.7 114.5 387.1 115.1Q387.6 115.8 387.6 116.7L387.6 116.7L385.6 116.7Q385.5 116.1 385.1 115.8Q384.6 115.4 383.8 115.4L383.8 115.4Q383.3 115.4 382.9 115.6Q382.5 115.7 382.3 116.0Q382.2 116.3 382.2 116.6L382.2 116.6Q382.2 117.0 382.4 117.2Q382.6 117.5 383.0 117.6Q383.4 117.8 383.8 117.9L383.8 117.9L384.7 118.1Q385.3 118.3 385.9 118.5Q386.5 118.8 386.9 119.1Q387.3 119.5 387.5 120.0Q387.7 120.5 387.7 121.1L387.7 121.1Q387.7 122.0 387.3 122.7Q386.8 123.4 385.9 123.8Q385.1 124.2 383.8 124.2Z "/></g><mask id="satori_om-id-6"><rect x="508" y="50" width="1" height="60" fill="#fff" mask="url(#satori_om-id)"/></mask><rect x="508" y="50" width="1" height="60" fill="#27272a" clip-path="url(#satori_cp-id)" mask="url(#satori_om-id)"/><mask id="satori_om-id-7"><rect x="606" y="34" width="144" height="93" fill="#fff" mask="url(#satori_om-id)"/></mask><mask id="satori_om-id-7-0"><rect x="606" y="34" width="144" height="68" fill="#fff" mask="url(#satori_om-id)"/></mask><g mask="url(#satori_om-id)" clip-path="url(#satori_cp-id)"><path fill="#eab308" d="M638.2 88L609.4 88L609.4 82.0L623.8 68.4Q625.7 66.6 627.0 65.2Q628.2 63.7 628.9 62.3Q629.6 60.9 629.6 59.3L629.6 59.3Q629.6 57.4 628.8 56.1Q627.9 54.8 626.5 54.1Q625.1 53.4 623.3 53.4L623.3 53.4Q621.4 53.4 619.9 54.1Q618.5 54.9 617.8 56.3Q617.0 57.8 617.0 59.8L617.0 59.8L609.0 59.8Q609.0 55.8 610.8 52.8Q612.6 49.9 615.9 48.3Q619.1 46.7 623.3 46.7L623.3 46.7Q627.6 46.7 630.9 48.3Q634.1 49.8 635.9 52.5Q637.7 55.2 637.7 58.7L637.7 58.7Q637.7 61.0 636.8 63.2Q635.9 65.4 633.6 68.2Q631.3 70.9 627.1 74.8L627.1 74.8L621.0 80.8L621.0 81.1L638.2 81.1L638.2 88ZM662.7 80.8L643.2 80.8L643.2 74.2L660.2 47.3L670.7 47.3L670.7 74.0L675.8 74.0L675.8 80.8L670.7 80.8L670.7 88L662.7 88L662.7 80.8ZM651.6 74.0L662.8 74.0L662.8 56.4L662.5 56.4L651.6 73.7L651.6 74.0ZM690.0 88L681.8 88L681.8 47.3L690.0 47.3L690.0 69.2L690.4 69.2L700.4 57.4L709.9 57.4L698.5 70.7L710.5 88L700.9 88L692.3 75.6L690.0 78.2L690.0 88ZM733.2 85.8L726.3 85.8L726.3 75.0L715.8 75.0L715.8 68.4L726.3 68.4L726.3 57.7L733.2 57.7L733.2 68.4L743.8 68.4L743.8 75.0L733.2 75.0L733.2 85.8Z "/></g><mask id="satori_om-id-7-1"><rect x="636" y="110" width="84" height="17" fill="#fff" mask="url(#satori_om-id)"/></mask><g mask="url(#satori_om-id)" clip-path="url(#satori_cp-id)"><path fill="#52525b" d="M641.4 124.1L641.4 124.1Q640.0 124.1 638.9 123.5Q637.9 122.9 637.3 121.7Q636.6 120.6 636.6 118.9L636.6 118.9Q636.6 117.3 637.3 116.1Q637.9 114.9 639.0 114.3Q640.0 113.7 641.4 113.7L641.4 113.7Q642.2 113.7 643.0 113.9Q643.7 114.2 644.3 114.6Q644.9 115.1 645.3 115.8Q645.6 116.4 645.8 117.3L645.8 117.3L643.6 117.3Q643.6 116.9 643.4 116.6Q643.2 116.2 642.9 116.0Q642.6 115.8 642.2 115.6Q641.9 115.5 641.4 115.5L641.4 115.5Q640.6 115.5 640.0 115.9Q639.4 116.3 639.1 117.1Q638.8 117.8 638.8 118.9L638.8 118.9Q638.8 120.0 639.1 120.8Q639.4 121.5 640.0 121.9Q640.6 122.3 641.4 122.3L641.4 122.3Q641.8 122.3 642.2 122.2Q642.6 122.0 642.9 121.8Q643.2 121.6 643.4 121.3Q643.6 120.9 643.6 120.5L643.6 120.5L645.8 120.5Q645.7 121.2 645.3 121.9Q645.0 122.5 644.4 123.0Q643.9 123.5 643.1 123.8Q642.3 124.1 641.4 124.1ZM653.8 124.1L653.8 124.1Q652.4 124.1 651.3 123.5Q650.3 122.9 649.6 121.7Q649.0 120.6 649.0 118.9L649.0 118.9Q649.0 117.3 649.6 116.1Q650.3 114.9 651.3 114.3Q652.4 113.7 653.8 113.7L653.8 113.7Q655.1 113.7 656.2 114.3Q657.3 114.9 657.9 116.1Q658.5 117.3 658.5 118.9L658.5 118.9Q658.5 120.6 657.9 121.7Q657.3 122.9 656.2 123.5Q655.1 124.1 653.8 124.1ZM653.8 122.3L653.8 122.3Q654.5 122.3 655.1 121.9Q655.7 121.5 656.1 120.8Q656.4 120.0 656.4 118.9L656.4 118.9Q656.4 117.8 656.1 117.1Q655.7 116.3 655.1 115.9Q654.5 115.5 653.8 115.5L653.8 115.5Q653.0 115.5 652.4 115.9Q651.8 116.3 651.4 117.1Q651.1 117.8 651.1 118.9L651.1 118.9Q651.1 120.0 651.4 120.8Q651.8 121.5 652.4 121.9Q653.0 122.3 653.8 122.3ZM664.1 124L662.1 124L662.1 113.8L665.3 113.8L666.9 118.5Q667.0 118.8 667.2 119.3Q667.3 119.9 667.4 120.5L667.4 120.5Q667.6 121.0 667.7 121.6L667.7 121.6Q667.8 121.1 667.9 120.5L667.9 120.5Q668.1 119.9 668.2 119.3Q668.3 118.8 668.4 118.5L668.4 118.5L670.1 113.8L673.3 113.8L673.3 124L671.2 124L671.2 119.2Q671.2 118.9 671.2 118.4Q671.2 117.9 671.2 117.3Q671.2 116.7 671.2 116.1L671.2 116.1Q671.2 115.9 671.3 115.6L671.3 115.6Q671.2 115.9 671.1 116.2L671.1 116.2Q670.9 116.8 670.8 117.4Q670.6 117.9 670.5 118.4Q670.3 118.9 670.2 119.2L670.2 119.2L668.5 124L666.8 124L665.1 119.2Q665.0 118.9 664.8 118.4Q664.7 118.0 664.5 117.4Q664.4 116.8 664.2 116.2L664.2 116.2Q664.1 115.9 664.1 115.7L664.1 115.7Q664.1 115.9 664.1 116.1L664.1 116.1Q664.1 116.7 664.1 117.3Q664.1 117.8 664.1 118.4Q664.1 118.9 664.1 119.2L664.1 119.2L664.1 124ZM679.2 124L677.1 124L677.1 113.8L680.3 113.8L682.0 118.5Q682.1 118.8 682.2 119.3Q682.3 119.9 682.5 120.5L682.5 120.5Q682.6 121.0 682.7 121.6L682.7 121.6Q682.8 121.1 683.0 120.5L683.0 120.5Q683.1 119.9 683.2 119.3Q683.4 118.8 683.5 118.5L683.5 118.5L685.1 113.8L688.3 113.8L688.3 124L686.2 124L686.2 119.2Q686.2 118.9 686.2 118.4Q686.2 117.9 686.3 117.3Q686.3 116.7 686.3 116.1L686.3 116.1Q686.3 115.9 686.3 115.6L686.3 115.6Q686.2 115.9 686.1 116.2L686.1 116.2Q686.0 116.8 685.8 117.4Q685.7 117.9 685.5 118.4Q685.4 118.9 685.3 119.2L685.3 119.2L683.6 124L681.8 124L680.1 119.2Q680.0 118.9 679.9 118.4Q679.7 118.0 679.6 117.4Q679.4 116.8 679.2 116.2L679.2 116.2Q679.2 115.9 679.1 115.7L679.1 115.7Q679.1 115.9 679.1 116.1L679.1 116.1Q679.1 116.7 679.1 117.3Q679.2 117.8 679.2 118.4Q679.2 118.9 679.2 119.2L679.2 119.2L679.2 124ZM692.2 113.8L694.2 113.8L694.2 124L692.2 124L692.2 113.8ZM700.8 115.5L697.7 115.5L697.7 113.8L706.0 113.8L706.0 115.5L702.9 115.5L702.9 124L700.8 124L700.8 115.5ZM713.2 124.2L713.2 124.2Q711.9 124.2 711.0 123.8Q710.1 123.4 709.6 122.7Q709.1 121.9 709.1 120.8L709.1 120.8L711.1 120.8Q711.2 121.4 711.4 121.7Q711.7 122.0 712.1 122.2Q712.6 122.4 713.1 122.4L713.1 122.4Q713.7 122.4 714.1 122.2Q714.5 122.1 714.8 121.8Q715.0 121.5 715.0 121.1L715.0 121.1Q715.0 120.7 714.8 120.5Q714.6 120.3 714.2 120.1Q713.8 119.9 713.2 119.8L713.2 119.8L712.1 119.5Q710.8 119.2 710.1 118.5Q709.4 117.9 709.4 116.7L709.4 116.7Q709.4 115.8 709.9 115.1Q710.4 114.4 711.2 114.1Q712.1 113.7 713.2 113.7L713.2 113.7Q714.3 113.7 715.2 114.1Q716.0 114.5 716.5 115.1Q716.9 115.8 717.0 116.7L717.0 116.7L714.9 116.7Q714.9 116.1 714.4 115.8Q713.9 115.4 713.2 115.4L713.2 115.4Q712.6 115.4 712.3 115.6Q711.9 115.7 711.7 116.0Q711.5 116.3 711.5 116.6L711.5 116.6Q711.5 117.0 711.7 117.2Q712.0 117.5 712.3 117.6Q712.7 117.8 713.1 117.9L713.1 117.9L714.0 118.1Q714.7 118.3 715.2 118.5Q715.8 118.8 716.2 119.1Q716.6 119.5 716.9 120.0Q717.1 120.5 717.1 121.1L717.1 121.1Q717.1 122.0 716.6 122.7Q716.2 123.4 715.3 123.8Q714.4 124.2 713.2 124.2Z "/></g></svg>