<!-- Generated by readme-aura https://github.com/collectioneur/readme-aura -->
<svg width="800" height="420" viewBox="0 0 800 420" xmlns="http://www.w3.org/2000/svg"><defs><clipPath id="satori_bc-id"><path x="0" y="0" width="800" height="420" d="M24,0 h752 a24,24 0 0 1 24,24 v372 a24,24 0 0 1 -24,24 h-752 a24,24 0 0 1 -24,-24 v-372 a24,24 0 0 1 24,-24"/></clipPath></defs><clipPath id="satori_cp-id"><path x="0" y="0" width="800" height="420" d="M24,0 h752 a24,24 0 0 1 24,24 v372 a24,24 0 0 1 -24,24 h-752 a24,24 0 0 1 -24,-24 v-372 a24,24 0 0 1 24,-24"/></clipPath><mask id="satori_om-id"><rect x="1" y="1" width="798" height="418" fill="#fff"/><path width="800" height="420" fill="none" stroke="#000" stroke-width="2" d="M7.029,7.029 A24,24 0 0 1 24,0 h752 a24,24 0 0 1 24,24 v372 a24,24 0 0 1 -24,24 h-752 a24,24 0 0 1 -24,-24 v-372 A24,24 0 0 1 7.029,7.029"/></mask><path x="0" y="0" width="800" height="420" fill="#09090b" d="M24,0 h752 a24,24 0 0 1 24,24 v372 a24,24 0 0 1 -24,24 h-752 a24,24 0 0 1 -24,-24 v-372 a24,24 0 0 1 24,-24"/><path width="800" height="420" clip-path="url(#satori_bc-id)" fill="none" stroke="#27272a" stroke-width="2" d="M7.029,7.029 A24,24 0 0 1 24,0 h752 a24,24 0 0 1 24,24 v372 a24,24 0 0 1 -24,24 h-752 a24,24 0 0 1 -24,-24 v-372 A24,24 0 0 1 7.029,7.029"/><defs><pattern id="satori_pattern_id-0_0" x="0" y="0" width="1" height="1" patternUnits="objectBoundingBox"><radialGradient id="satori_radial_id-0_0" spreadMethod="pad"><stop offset="0" stop-color="rgba(16, 185, 129, 0.15)"/><stop offset="0.7" stop-color="rgba(0,0,0,0)"/><stop offset="1" stop-color="rgba(0,0,0,0)"/></radialGradient><mask id="satori_mask_id-0_0"><rect x="0" y="0" width="500" height="200" fill="#fff"/></mask><rect x="0" y="0" width="500" height="200" fill="rgba(0,0,0,0)"/><circle cx="250" cy="100" width="500" height="200" r="269.2582403567252" fill="url(#satori_radial_id-0_0)" mask="url(#satori_mask_id-0_0)"/></pattern></defs><mask id="satori_om-id-0"><rect x="150" y="-99" width="500" height="200" fill="#fff" mask="url(#satori_om-id)"/></mask><rect x="150" y="-99" width="500" height="200" fill="url(#satori_pattern_id-0_0)" clip-path="url(#satori_cp-id)" mask="url(#satori_om-id)"/><defs><pattern id="satori_pattern_id-1_0" x="0" y="0" width="1" height="1" patternUnits="objectBoundingBox"><radialGradient id="satori_radial_id-1_0" spreadMethod="pad"><stop offset="0" stop-color="rgba(59, 130, 246, 0.15)"/><stop offset="0.7" stop-color="rgba(0,0,0,0)"/><stop offset="1" stop-color="rgba(0,0,0,0)"/></radialGradient><mask id="satori_mask_id-1_0"><rect x="0" y="0" width="500" height="200" fill="#fff"/></mask><rect x="0" y="0" width="500" height="200" fill="rgba(0,0,0,0)"/><circle cx="250" cy="100" width="500" height="200" r="269.2582403567252" fill="url(#satori_radial_id-1_0)" mask="url(#satori_mask_id-1_0)"/></pattern></defs><mask id="satori_om-id-1"><rect x="150" y="269" width="500" height="200" fill="#fff" mask="url(#satori_om-id)"/></mask><rect x="150" y="269" width="500" height="200" fill="url(#satori_pattern_id-1_0)" clip-path="url(#satori_cp-id)" mask="url(#satori_om-id)"/><mask id="satori_om-id-2"><rect x="365" y="107" width="70" height="17" fill="#fff" mask="url(#satori_om-id)"/></mask><g mask="url(#satori_om-id)" clip-path="url(#satori_cp-id)"><path fill="#52525b" d="M369.7 121.2L369.7 121.2Q368.4 121.2 367.5 120.8Q366.6 120.4 366.1 119.7Q365.6 118.9 365.6 117.8L365.6 117.8L367.6 117.8Q367.7 118.4 367.9 118.7Q368.2 119.0 368.6 119.2Q369.1 119.4 369.6 119.4L369.6 119.4Q370.2 119.4 370.6 119.2Q371.0 119.1 371.3 118.8Q371.5 118.5 371.5 118.1L371.5 118.1Q371.5 117.7 371.3 117.5Q371.1 117.3 370.7 117.1Q370.3 116.9 369.7 116.8L369.7 116.8L368.6 116.5Q367.3 116.2 366.6 115.5Q365.9 114.9 365.9 113.7L365.9 113.7Q365.9 112.8 366.4 112.1Q366.8 111.4 367.7 111.1Q368.6 110.7 369.7 110.7L369.7 110.7Q370.8 110.7 371.7 111.1Q372.5 111.5 373.0 112.1Q373.4 112.8 373.4 113.7L373.4 113.7L371.4 113.7Q371.4 113.1 370.9 112.8Q370.4 112.4 369.7 112.4L369.7 112.4Q369.1 112.4 368.8 112.6Q368.4 112.7 368.2 113.0Q368.0 113.3 368.0 113.6L368.0 113.6Q368.0 114.0 368.2 114.2Q368.4 114.5 368.8 114.6Q369.2 114.8 369.6 114.9L369.6 114.9L370.5 115.1Q371.2 115.3 371.7 115.5Q372.3 115.8 372.7 116.1Q373.1 116.5 373.4 117.0Q373.6 117.5 373.6 118.1L373.6 118.1Q373.6 119.0 373.1 119.7Q372.7 120.4 371.8 120.8Q370.9 121.2 369.7 121.2ZM381.8 112.5L378.7 112.5L378.7 110.8L387.0 110.8L387.0 112.5L383.9 112.5L383.9 121L381.8 121L381.8 112.5ZM394.2 121L391.8 121L395.3 110.8L398.1 110.8L401.6 121L399.3 121L398.5 118.6L394.9 118.6L394.2 121ZM395.4 117.0L398.0 117.0L397.7 116.1Q397.4 115.1 397.1 114L397.1 114Q396.9 113.3 396.7 112.5L396.7 112.5Q396.5 113.3 396.3 114.0L396.3 114.0Q396.0 115.2 395.7 116.1L395.7 116.1L395.4 117.0ZM411.3 121.1L411.3 121.1Q410.0 121.1 408.9 120.5Q407.8 119.9 407.2 118.7Q406.6 117.6 406.6 115.9L406.6 115.9Q406.6 114.3 407.2 113.1Q407.9 111.9 408.9 111.3Q410.0 110.7 411.3 110.7L411.3 110.7Q412.2 110.7 413.0 110.9Q413.7 111.2 414.3 111.6Q414.9 112.1 415.2 112.8Q415.6 113.4 415.7 114.3L415.7 114.3L413.6 114.3Q413.5 113.9 413.3 113.6Q413.1 113.2 412.9 113.0Q412.6 112.8 412.2 112.6Q411.8 112.5 411.4 112.5L411.4 112.5Q410.6 112.5 410.0 112.9Q409.4 113.3 409.1 114.1Q408.7 114.8 408.7 115.9L408.7 115.9Q408.7 117.0 409.1 117.8Q409.4 118.5 410.0 118.9Q410.6 119.3 411.4 119.3L411.4 119.3Q411.8 119.3 412.2 119.2Q412.6 119.0 412.9 118.8Q413.1 118.6 413.3 118.3Q413.5 117.9 413.6 117.5L413.6 117.5L415.7 117.5Q415.6 118.2 415.3 118.9Q415.0 119.5 414.4 120.0Q413.8 120.5 413.1 120.8Q412.3 121.1 411.3 121.1ZM423.3 121L421.2 121L421.2 110.8L423.3 110.8L423.3 113.6L423.3 115.9Q423.3 115.8 423.4 115.8L423.4 115.8Q423.7 115.3 424.1 114.8Q424.4 114.3 424.9 113.7L424.9 113.7L427.4 110.8L429.9 110.8L426.1 115.2L430.0 121L427.6 121L424.7 116.6L423.3 118.1L423.3 121Z "/></g><mask id="satori_om-id-3"><rect x="75" y="164" width="650" height="149" fill="#fff" mask="url(#satori_om-id)"/></mask><defs><clipPath id="satori_bc-id-3-0" clip-path="url(#satori_cp-id)"><path x="114" y="164" width="123" height="39" d="M133.5,164 h84 a19.5,19.5 0 0 1 19.5,19.5 v0 a19.5,19.5 0 0 1 -19.5,19.5 h-84 a19.5,19.5 0 0 1 -19.5,-19.5 v0 a19.5,19.5 0 0 1 19.5,-19.5"/></clipPath></defs><mask id="satori_om-id-3-0"><rect x="115" y="165" width="121" height="37" fill="#fff" mask="url(#satori_om-id)"/><path width="123" height="39" fill="none" stroke="#000" stroke-width="2" d="M119.711,169.711 A19.5,19.5 0 0 1 133.5,164 h84 a19.5,19.5 0 0 1 19.5,19.5 v0 a19.5,19.5 0 0 1 -19.5,19.5 h-84 a19.5,19.5 0 0 1 -19.5,-19.5 v0 A19.5,19.5 0 0 1 119.711,169.711"/></mask><path x="114" y="164" width="123" height="39" fill="#18181b" d="M133.5,164 h84 a19.5,19.5 0 0 1 19.5,19.5 v0 a19.5,19.5 0 0 1 -19.5,19.5 h-84 a19.5,19.5 0 0 1 -19.5,-19.5 v0 a19.5,19.5 0 0 1 19.5,-19.5" clip-path="url(#satori_cp-id)" mask="url(#satori_om-id)"/><path width="123" height="39" clip-path="url(#satori_bc-id-3-0)" fill="none" stroke="#27272a" stroke-width="2" d="M119.711,169.711 A19.5,19.5 0 0 1 133.5,164 h84 a19.5,19.5 0 0 1 19.5,19.5 v0 a19.5,19.5 0 0 1 -19.5,19.5 h-84 a19.5,19.5 0 0 1 -19.5,-19.5 v0 A19.5,19.5 0 0 1 119.711,169.711"/><g mask="url(#satori_om-id)" clip-path="url(#satori_cp-id)"><path fill="#e4e4e7" d="M142.9 180.0L139.7 180.0L139.7 178.8L147.4 178.8L147.4 180.0L144.2 180.0L144.2 189L142.9 189L142.9 180.0ZM149.0 191.8L149.0 191.8L149.3 190.7L149.4 190.7Q149.8 190.8 150.1 190.8Q150.4 190.7 150.7 190.5Q150.9 190.2 151.1 189.7L151.1 189.7L151.3 189.0L148.4 181.4L149.8 181.4L151.4 185.9Q151.6 186.6 151.8 187.3L151.8 187.3Q151.9 187.6 152.0 187.9L152.0 187.9Q152.0 187.6 152.1 187.3L152.1 187.3Q152.3 186.6 152.6 185.9L152.6 185.9L154.2 181.4L155.5 181.4L152.2 190.1Q151.9 190.8 151.6 191.1Q151.3 191.5 150.9 191.7Q150.4 191.9 149.9 191.9L149.9 191.9Q149.6 191.9 149.3 191.9Q149.1 191.8 149.0 191.8ZM158.2 191.9L157.0 191.9L157.0 181.4L158.2 181.4L158.2 182.6L158.3 182.6Q158.4 182.4 158.7 182.1Q158.9 181.8 159.3 181.5Q159.8 181.3 160.5 181.3L160.5 181.3Q161.5 181.3 162.2 181.7Q162.9 182.2 163.4 183.1Q163.8 184.0 163.8 185.2L163.8 185.2Q163.8 186.4 163.4 187.3Q162.9 188.2 162.2 188.7Q161.5 189.2 160.5 189.2L160.5 189.2Q159.8 189.2 159.4 188.9Q158.9 188.7 158.7 188.3Q158.4 188.0 158.3 187.8L158.3 187.8L158.2 187.8L158.2 191.9ZM160.3 188.1L160.3 188.1Q161.1 188.1 161.5 187.7Q162.0 187.3 162.3 186.6Q162.5 186.0 162.5 185.2L162.5 185.2Q162.5 184.4 162.3 183.8Q162.0 183.1 161.6 182.7Q161.1 182.4 160.3 182.4L160.3 182.4Q159.6 182.4 159.2 182.7Q158.7 183.1 158.4 183.7Q158.2 184.3 158.2 185.2L158.2 185.2Q158.2 186.0 158.4 186.7Q158.7 187.3 159.2 187.7Q159.7 188.1 160.3 188.1ZM168.8 189.2L168.8 189.2Q167.7 189.2 166.9 188.7Q166.1 188.2 165.6 187.3Q165.2 186.4 165.2 185.2Q165.2 184.1 165.6 183.2Q166.0 182.3 166.8 181.8Q167.6 181.3 168.6 181.3L168.6 181.3Q169.2 181.3 169.8 181.5Q170.4 181.7 170.9 182.1Q171.4 182.6 171.7 183.3Q172.0 184.0 172.0 185.1L172.0 185.1L172.0 185.6L166.4 185.6Q166.5 186.3 166.7 186.9L166.7 186.9Q167.0 187.5 167.6 187.8Q168.1 188.1 168.8 188.1L168.8 188.1Q169.2 188.1 169.6 187.9Q170.0 187.8 170.2 187.5Q170.5 187.3 170.6 186.9L170.6 186.9L171.8 187.2Q171.7 187.8 171.2 188.2Q170.8 188.7 170.2 188.9Q169.6 189.2 168.8 189.2ZM166.4 184.6L166.4 184.6L170.7 184.6Q170.7 184.0 170.5 183.6L170.5 183.6Q170.2 183.0 169.8 182.7Q169.3 182.4 168.6 182.4Q167.9 182.4 167.4 182.7Q167.0 183.0 166.7 183.6L166.7 183.6Q166.5 184.0 166.4 184.6ZM177.1 189.2L177.1 189.2Q176.0 189.2 175.2 188.8Q174.4 188.5 174.0 187.8Q173.5 187.2 173.4 186.3L173.4 186.3L174.8 186.3Q174.8 186.9 175.2 187.3Q175.5 187.7 176.0 187.8Q176.5 188.0 177.1 188.0L177.1 188.0Q177.8 188.0 178.4 187.8Q178.9 187.6 179.2 187.2Q179.6 186.7 179.6 186.2L179.6 186.2Q179.6 185.7 179.3 185.4Q179.0 185.1 178.6 184.9Q178.1 184.7 177.5 184.5L177.5 184.5L176.3 184.2Q175.1 183.9 174.4 183.2Q173.7 182.6 173.7 181.5L173.7 181.5Q173.7 180.7 174.2 180.0Q174.6 179.4 175.4 179.0Q176.2 178.7 177.2 178.7L177.2 178.7Q178.2 178.7 179.0 179.0Q179.8 179.4 180.2 180.0Q180.7 180.6 180.7 181.4L180.7 181.4L179.4 181.4Q179.3 180.6 178.7 180.2Q178.1 179.8 177.2 179.8L177.2 179.8Q176.5 179.8 176.0 180.0Q175.5 180.3 175.3 180.6Q175.0 181.0 175.0 181.5L175.0 181.5Q175.0 182.0 175.3 182.3Q175.6 182.7 176.1 182.8Q176.6 183.0 176.9 183.1L176.9 183.1L177.9 183.4Q178.4 183.5 178.9 183.7Q179.3 183.9 179.8 184.2Q180.2 184.5 180.5 185.0Q180.8 185.5 180.8 186.2L180.8 186.2Q180.8 187.1 180.4 187.7Q180.0 188.4 179.1 188.8Q178.3 189.2 177.1 189.2ZM185.8 189.2L185.8 189.2Q184.8 189.2 184.0 188.7Q183.2 188.2 182.8 187.3Q182.3 186.4 182.3 185.2L182.3 185.2Q182.3 184.0 182.8 183.1Q183.2 182.2 184.0 181.8Q184.8 181.3 185.8 181.3L185.8 181.3Q186.4 181.3 186.9 181.4Q187.4 181.5 187.8 181.8Q188.2 182.1 188.5 182.5Q188.8 182.9 188.9 183.4L188.9 183.4L187.7 183.7Q187.6 183.4 187.5 183.2Q187.3 182.9 187.1 182.7Q186.8 182.6 186.5 182.5Q186.2 182.4 185.8 182.4L185.8 182.4Q185.0 182.4 184.6 182.8Q184.1 183.2 183.8 183.8Q183.6 184.5 183.6 185.2L183.6 185.2Q183.6 186.0 183.8 186.6Q184.1 187.3 184.6 187.7Q185.0 188.1 185.8 188.1L185.8 188.1Q186.2 188.1 186.5 188.0Q186.8 187.9 187.1 187.7Q187.3 187.5 187.5 187.2Q187.7 187.0 187.8 186.7L187.8 186.7L188.9 187.0Q188.8 187.5 188.5 187.9Q188.2 188.3 187.8 188.6Q187.4 188.9 186.9 189.0Q186.4 189.2 185.8 189.2ZM191.9 189L190.7 189L190.7 181.4L191.9 181.4L191.9 182.5L192.0 182.5Q192.2 182.0 192.7 181.6Q193.3 181.2 194.0 181.2L194.0 181.2Q194.1 181.2 194.3 181.3Q194.5 181.3 194.6 181.3L194.6 181.3L194.6 182.5Q194.5 182.5 194.3 182.5Q194.1 182.4 193.8 182.4L193.8 182.4Q193.3 182.4 192.9 182.7Q192.4 182.9 192.2 183.3Q191.9 183.7 191.9 184.2L191.9 184.2L191.9 189ZM197.2 189L196.0 189L196.0 181.4L197.2 181.4L197.2 189ZM196.6 180.1L196.6 180.1Q196.2 180.1 196.0 179.9Q195.7 179.6 195.7 179.3L195.7 179.3Q195.7 179.0 196.0 178.7Q196.2 178.5 196.6 178.5L196.6 178.5Q196.9 178.5 197.2 178.7Q197.5 179.0 197.5 179.3L197.5 179.3Q197.5 179.6 197.2 179.9Q196.9 180.1 196.6 180.1ZM200.6 191.9L199.4 191.9L199.4 181.4L200.6 181.4L200.6 182.6L200.7 182.6Q200.8 182.4 201.0 182.1Q201.3 181.8 201.7 181.5Q202.2 181.3 202.9 181.3L202.9 181.3Q203.9 181.3 204.6 181.7Q205.3 182.2 205.7 183.1Q206.1 184.0 206.1 185.2L206.1 185.2Q206.1 186.4 205.7 187.3Q205.3 188.2 204.6 188.7Q203.9 189.2 202.9 189.2L202.9 189.2Q202.2 189.2 201.7 188.9Q201.3 188.7 201.1 188.3Q200.8 188.0 200.7 187.8L200.7 187.8L200.6 187.8L200.6 191.9ZM202.7 188.1L202.7 188.1Q203.4 188.1 203.9 187.7Q204.4 187.3 204.6 186.6Q204.9 186.0 204.9 185.2L204.9 185.2Q204.9 184.4 204.7 183.8Q204.4 183.1 203.9 182.7Q203.4 182.4 202.7 182.4L202.7 182.4Q202.0 182.4 201.5 182.7Q201.1 183.1 200.8 183.7Q200.6 184.3 200.6 185.2L200.6 185.2Q200.6 186.0 200.8 186.7Q201.1 187.3 201.6 187.7Q202.0 188.1 202.7 188.1ZM209.4 181.4L210.9 181.4L210.9 182.4L209.4 182.4L209.4 187.0Q209.4 187.5 209.6 187.8Q209.8 188.0 210.3 188.0L210.3 188.0Q210.4 188.0 210.6 188.0Q210.8 187.9 210.9 187.9L210.9 187.9L211.2 189.0Q211.0 189.0 210.7 189.1Q210.5 189.1 210.2 189.1L210.2 189.1Q209.2 189.1 208.7 188.6Q208.1 188.0 208.1 187.1L208.1 187.1L208.1 182.4L207.0 182.4L207.0 181.4L208.1 181.4L208.1 179.5L209.4 179.5L209.4 181.4Z "/></g><defs><clipPath id="satori_bc-id-3-1" clip-path="url(#satori_cp-id)"><path x="253" y="164" width="88" height="39" d="M272.5,164 h49 a19.5,19.5 0 0 1 19.5,19.5 v0 a19.5,19.5 0 0 1 -19.5,19.5 h-49 a19.5,19.5 0 0 1 -19.5,-19.5 v0 a19.5,19.5 0 0 1 19.5,-19.5"/></clipPath></defs><mask id="satori_om-id-3-1"><rect x="254" y="165" width="86" height="37" fill="#fff" mask="url(#satori_om-id)"/><path width="88" height="39" fill="none" stroke="#000" stroke-width="2" d="M258.711,169.711 A19.5,19.5 0 0 1 272.5,164 h49 a19.5,19.5 0 0 1 19.5,19.5 v0 a19.5,19.5 0 0 1 -19.5,19.5 h-49 a19.5,19.5 0 0 1 -19.5,-19.5 v0 A19.5,19.5 0 0 1 258.711,169.711"/></mask><path x="253" y="164" width="88" height="39" fill="#18181b" d="M272.5,164 h49 a19.5,19.5 0 0 1 19.5,19.5 v0 a19.5,19.5 0 0 1 -19.5,19.5 h-49 a19.5,19.5 0 0 1 -19.5,-19.5 v0 a19.5,19.5 0 0 1 19.5,-19.5" clip-path="url(#satori_cp-id)" mask="url(#satori_om-id)"/><path width="88" height="39" clip-path="url(#satori_bc-id-3-1)" fill="none" stroke="#27272a" stroke-width="2" d="M258.711,169.711 A19.5,19.5 0 0 1 272.5,164 h49 a19.5,19.5 0 0 1 19.5,19.5 v0 a19.5,19.5 0 0 1 -19.5,19.5 h-49 a19.5,19.5 0 0 1 -19.5,-19.5 v0 A19.5,19.5 0 0 1 258.711,169.711"/><g mask="url(#satori_om-id)" clip-path="url(#satori_cp-id)"><path fill="#e4e4e7" d="M280.5 189L279.2 189L279.2 178.8L282.7 178.8Q283.9 178.8 284.7 179.2Q285.4 179.6 285.8 180.3Q286.2 181.0 286.2 182.0Q286.2 182.9 285.8 183.6Q285.4 184.3 284.7 184.7L284.7 184.7Q284.5 184.7 284.3 184.8L284.3 184.8L286.6 189L285.1 189L283.0 185.0Q282.8 185.0 282.7 185.0L282.7 185.0L280.5 185.0L280.5 189ZM280.5 180.0L280.5 183.9L282.7 183.9Q283.5 183.9 284.0 183.7Q284.4 183.4 284.7 183.0Q284.9 182.6 284.9 182.0L284.9 182.0Q284.9 181.4 284.7 180.9Q284.4 180.5 284.0 180.2Q283.5 180.0 282.6 180.0L282.6 180.0L280.5 180.0ZM291.3 189.2L291.3 189.2Q290.2 189.2 289.4 188.7Q288.6 188.2 288.2 187.3Q287.7 186.4 287.7 185.2Q287.7 184.1 288.1 183.2Q288.6 182.3 289.3 181.8Q290.1 181.3 291.2 181.3L291.2 181.3Q291.8 181.3 292.4 181.5Q293.0 181.7 293.4 182.1Q293.9 182.6 294.2 183.3Q294.5 184.0 294.5 185.1L294.5 185.1L294.5 185.6L289.0 185.6Q289.0 186.3 289.3 186.9L289.3 186.9Q289.6 187.5 290.1 187.8Q290.6 188.1 291.3 188.1L291.3 188.1Q291.8 188.1 292.1 187.9Q292.5 187.8 292.8 187.5Q293.0 187.3 293.2 186.9L293.2 186.9L294.4 187.2Q294.2 187.8 293.8 188.2Q293.3 188.7 292.7 188.9Q292.1 189.2 291.3 189.2ZM289.0 184.6L289.0 184.6L293.2 184.6Q293.2 184.0 293.0 183.6L293.0 183.6Q292.8 183.0 292.3 182.7Q291.8 182.4 291.2 182.4Q290.5 182.4 290.0 182.7Q289.5 183.0 289.2 183.6L289.2 183.6Q289.0 184.0 289.0 184.6ZM298.4 189.2L298.4 189.2Q297.7 189.2 297.1 188.9Q296.5 188.6 296.1 188.1Q295.8 187.6 295.8 186.8L295.8 186.8Q295.8 186.2 296.0 185.8Q296.3 185.3 296.7 185.1Q297.2 184.9 297.7 184.8Q298.2 184.6 298.8 184.6L298.8 184.6Q299.4 184.5 299.9 184.4Q300.3 184.4 300.5 184.3Q300.7 184.2 300.7 183.9L300.7 183.9L300.7 183.8Q300.7 183.4 300.5 183.0Q300.4 182.7 300.0 182.5Q299.7 182.3 299.1 182.3L299.1 182.3Q298.6 182.3 298.2 182.5Q297.8 182.7 297.6 182.9Q297.3 183.2 297.2 183.5L297.2 183.5L296.0 183.1Q296.3 182.4 296.8 182.0Q297.3 181.6 297.9 181.4Q298.5 181.3 299.1 181.3L299.1 181.3Q299.5 181.3 300.0 181.4Q300.4 181.4 300.9 181.7Q301.4 182.0 301.7 182.5Q302.0 183.1 302.0 184.0L302.0 184.0L302.0 189L300.7 189L300.7 188.0L300.7 188.0Q300.5 188.2 300.2 188.5Q300.0 188.8 299.5 189.0Q299.0 189.2 298.4 189.2ZM298.6 188.1L298.6 188.1Q299.3 188.1 299.8 187.8Q300.2 187.6 300.5 187.1Q300.7 186.7 300.7 186.2L300.7 186.2L300.7 185.2Q300.6 185.3 300.4 185.3Q300.1 185.4 299.8 185.5Q299.5 185.5 299.2 185.6Q298.9 185.6 298.7 185.6L298.7 185.6Q298.3 185.7 297.9 185.8Q297.5 185.9 297.3 186.2Q297.0 186.5 297.0 186.9L297.0 186.9Q297.0 187.3 297.2 187.6Q297.4 187.8 297.8 188.0Q298.1 188.1 298.6 188.1ZM307.2 189.2L307.2 189.2Q306.2 189.2 305.4 188.7Q304.6 188.2 304.2 187.3Q303.7 186.4 303.7 185.2L303.7 185.2Q303.7 184.0 304.2 183.1Q304.6 182.2 305.4 181.8Q306.2 181.3 307.2 181.3L307.2 181.3Q307.8 181.3 308.3 181.4Q308.8 181.5 309.2 181.8Q309.6 182.1 309.9 182.5Q310.2 182.9 310.3 183.4L310.3 183.4L309.1 183.7Q309.1 183.4 308.9 183.2Q308.7 182.9 308.5 182.7Q308.2 182.6 307.9 182.5Q307.6 182.4 307.2 182.4L307.2 182.4Q306.5 182.4 306.0 182.8Q305.5 183.2 305.2 183.8Q305.0 184.5 305.0 185.2L305.0 185.2Q305.0 186.0 305.2 186.6Q305.5 187.3 306.0 187.7Q306.5 188.1 307.2 188.1L307.2 188.1Q307.6 188.1 307.9 188.0Q308.2 187.9 308.5 187.7Q308.7 187.5 308.9 187.2Q309.1 187.0 309.2 186.7L309.2 186.7L310.3 187.0Q310.2 187.5 309.9 187.9Q309.6 188.3 309.2 188.6Q308.8 188.9 308.3 189.0Q307.8 189.2 307.2 189.2ZM313.5 181.4L315.1 181.4L315.1 182.4L313.5 182.4L313.5 187.0Q313.5 187.5 313.8 187.8Q314.0 188.0 314.4 188.0L314.4 188.0Q314.6 188.0 314.7 188.0Q314.9 187.9 315.1 187.9L315.1 187.9L315.3 189.0Q315.1 189.0 314.9 189.1Q314.7 189.1 314.4 189.1L314.4 189.1Q313.4 189.1 312.9 188.6Q312.3 188.0 312.3 187.1L312.3 187.1L312.3 182.4L311.2 182.4L311.2 181.4L312.3 181.4L312.3 179.5L313.5 179.5L313.5 181.4Z "/></g><defs><clipPath id="satori_bc-id-3-2" clip-path="url(#satori_cp-id)"><path x="357" y="164" width="96" height="39" d="M376.5,164 h57 a19.5,19.5 0 0 1 19.5,19.5 v0 a19.5,19.5 0 0 1 -19.5,19.5 h-57 a19.5,19.5 0 0 1 -19.5,-19.5 v0 a19.5,19.5 0 0 1 19.5,-19.5"/></clipPath></defs><mask id="satori_om-id-3-2"><rect x="358" y="165" width="94" height="37" fill="#fff" mask="url(#satori_om-id)"/><path width="96" height="39" fill="none" stroke="#000" stroke-width="2" d="M362.711,169.711 A19.5,19.5 0 0 1 376.5,164 h57 a19.5,19.5 0 0 1 19.5,19.5 v0 a19.5,19.5 0 0 1 -19.5,19.5 h-57 a19.5,19.5 0 0 1 -19.5,-19.5 v0 A19.5,19.5 0 0 1 362.711,169.711"/></mask><path x="357" y="164" width="96" height="39" fill="#18181b" d="M376.5,164 h57 a19.5,19.5 0 0 1 19.5,19.5 v0 a19.5,19.5 0 0 1 -19.5,19.5 h-57 a19.5,19.5 0 0 1 -19.5,-19.5 v0 a19.5,19.5 0 0 1 19.5,-19.5" clip-path="url(#satori_cp-id)" mask="url(#satori_om-id)"/><path width="96" height="39" clip-path="url(#satori_bc-id-3-2)" fill="none" stroke="#27272a" stroke-width="2" d="M362.711,169.711 A19.5,19.5 0 0 1 376.5,164 h57 a19.5,19.5 0 0 1 19.5,19.5 v0 a19.5,19.5 0 0 1 -19.5,19.5 h-57 a19.5,19.5 0 0 1 -19.5,-19.5 v0 A19.5,19.5 0 0 1 362.711,169.711"/><g mask="url(#satori_om-id)" clip-path="url(#satori_cp-id)"><path fill="#e4e4e7" d="M384.5 189L383.2 189L383.2 178.8L384.8 178.8L388.9 185.3Q389.1 185.6 389.3 186.0Q389.5 186.4 389.8 186.9L389.8 186.9Q390.0 187.2 390.1 187.5L390.1 187.5Q390.1 187.1 390.1 186.8L390.1 186.8Q390.0 186.3 390.0 185.8Q390.0 185.4 390.0 185.1L390.0 185.1L390.0 178.8L391.3 178.8L391.3 189L389.8 189L386.1 183.2Q385.8 182.8 385.6 182.4Q385.3 181.9 385.0 181.4L385.0 181.4Q384.7 180.9 384.4 180.4L384.4 180.4Q384.5 180.9 384.5 181.3L384.5 181.3Q384.5 182.0 384.5 182.4Q384.5 182.9 384.5 183.2L384.5 183.2L384.5 189ZM396.8 189.2L396.8 189.2Q395.7 189.2 394.9 188.7Q394.1 188.2 393.7 187.3Q393.3 186.4 393.3 185.2Q393.3 184.1 393.7 183.2Q394.1 182.3 394.9 181.8Q395.7 181.3 396.7 181.3L396.7 181.3Q397.3 181.3 397.9 181.5Q398.5 181.7 399.0 182.1Q399.5 182.6 399.7 183.3Q400.0 184.0 400.0 185.1L400.0 185.1L400.0 185.6L394.5 185.6Q394.5 186.3 394.8 186.9L394.8 186.9Q395.1 187.5 395.6 187.8Q396.2 188.1 396.8 188.1L396.8 188.1Q397.3 188.1 397.7 187.9Q398.0 187.8 398.3 187.5Q398.6 187.3 398.7 186.9L398.7 186.9L399.9 187.2Q399.7 187.8 399.3 188.2Q398.9 188.7 398.3 188.9Q397.6 189.2 396.8 189.2ZM394.5 184.6L394.5 184.6L398.8 184.6Q398.7 184.0 398.6 183.6L398.6 183.6Q398.3 183.0 397.9 182.7Q397.4 182.4 396.7 182.4Q396.0 182.4 395.5 182.7Q395.0 183.0 394.8 183.6L394.8 183.6Q394.5 184.0 394.5 184.6ZM402.6 189L401.2 189L403.8 185.1L401.3 181.4L402.7 181.4L403.7 182.8Q404.1 183.4 404.3 183.9L404.3 183.9Q404.4 184.1 404.6 184.3L404.6 184.3Q404.7 184.1 404.8 183.9L404.8 183.9Q405.0 183.4 405.4 182.8L405.4 182.8L406.4 181.4L407.8 181.4L405.2 185.1L407.9 189L406.5 189L405.4 187.3Q405.0 186.7 404.7 186.2L404.7 186.2Q404.6 186.0 404.5 185.9L404.5 185.9Q404.4 186.0 404.3 186.2L404.3 186.2Q404.1 186.7 403.7 187.3L403.7 187.3L402.6 189ZM410.9 181.4L412.4 181.4L412.4 182.4L410.9 182.4L410.9 187.0Q410.9 187.5 411.1 187.8Q411.3 188.0 411.8 188.0L411.8 188.0Q411.9 188.0 412.1 188.0Q412.2 187.9 412.4 187.9L412.4 187.9L412.7 189.0Q412.5 189.0 412.2 189.1Q412.0 189.1 411.7 189.1L411.7 189.1Q410.7 189.1 410.2 188.6Q409.6 188.0 409.6 187.1L409.6 187.1L409.6 182.4L408.5 182.4L408.5 181.4L409.6 181.4L409.6 179.5L410.9 179.5L410.9 181.4ZM414.9 189.1L414.9 189.1Q414.6 189.1 414.3 188.8Q414.0 188.5 414.0 188.2L414.0 188.2Q414.0 187.8 414.3 187.5Q414.6 187.2 414.9 187.2L414.9 187.2Q415.3 187.2 415.6 187.5Q415.9 187.8 415.9 188.2L415.9 188.2Q415.9 188.5 415.6 188.8Q415.3 189.1 414.9 189.1ZM418.0 189.5L418.0 181.4L419.3 181.4L419.3 189.5Q419.3 190.3 419.0 190.8Q418.8 191.3 418.3 191.6Q417.8 191.9 417.0 191.9L417.0 191.9L416.8 191.9L416.8 190.7L417.0 190.7Q417.5 190.7 417.8 190.4Q418.0 190.1 418.0 189.5L418.0 189.5ZM418.7 180.1L418.7 180.1Q418.3 180.1 418.1 179.9Q417.8 179.6 417.8 179.3L417.8 179.3Q417.8 179.0 418.1 178.7Q418.3 178.5 418.7 178.5L418.7 178.5Q419.0 178.5 419.3 178.7Q419.5 179.0 419.5 179.3L419.5 179.3Q419.5 179.6 419.3 179.9Q419.0 180.1 418.7 180.1ZM424.0 189.2L424.0 189.2Q423.2 189.2 422.6 188.9Q422.0 188.7 421.6 188.3Q421.2 187.8 421.1 187.1L421.1 187.1L422.3 186.9Q422.4 187.5 422.9 187.8Q423.3 188.1 424.0 188.1L424.0 188.1Q424.8 188.1 425.3 187.7Q425.8 187.4 425.8 186.9L425.8 186.9Q425.8 186.5 425.5 186.3Q425.2 186.0 424.6 185.9L424.6 185.9L423.4 185.6Q422.3 185.3 421.8 184.8Q421.3 184.3 421.3 183.5L421.3 183.5Q421.3 182.8 421.7 182.3Q422.1 181.8 422.7 181.5Q423.3 181.3 424.2 181.3L424.2 181.3Q424.9 181.3 425.5 181.5Q426.0 181.7 426.4 182.1Q426.7 182.6 426.9 183.1L426.9 183.1L425.8 183.4Q425.6 183.0 425.3 182.6Q424.9 182.3 424.2 182.3L424.2 182.3Q423.5 182.3 423.0 182.6Q422.6 182.9 422.6 183.4L422.6 183.4Q422.6 183.8 422.9 184.1Q423.2 184.4 423.9 184.5L423.9 184.5L425.0 184.8Q426.1 185.0 426.5 185.5Q427.0 186.1 427.0 186.8L427.0 186.8Q427.0 187.5 426.7 188.0Q426.3 188.6 425.6 188.9Q424.9 189.2 424.0 189.2Z "/></g><defs><clipPath id="satori_bc-id-3-3" clip-path="url(#satori_cp-id)"><path x="469" y="164" width="101" height="39" d="M488.5,164 h62 a19.5,19.5 0 0 1 19.5,19.5 v0 a19.5,19.5 0 0 1 -19.5,19.5 h-62 a19.5,19.5 0 0 1 -19.5,-19.5 v0 a19.5,19.5 0 0 1 19.5,-19.5"/></clipPath></defs><mask id="satori_om-id-3-3"><rect x="470" y="165" width="99" height="37" fill="#fff" mask="url(#satori_om-id)"/><path width="101" height="39" fill="none" stroke="#000" stroke-width="2" d="M474.711,169.711 A19.5,19.5 0 0 1 488.5,164 h62 a19.5,19.5 0 0 1 19.5,19.5 v0 a19.5,19.5 0 0 1 -19.5,19.5 h-62 a19.5,19.5 0 0 1 -19.5,-19.5 v0 A19.5,19.5 0 0 1 474.711,169.711"/></mask><path x="469" y="164" width="101" height="39" fill="#18181b" d="M488.5,164 h62 a19.5,19.5 0 0 1 19.5,19.5 v0 a19.5,19.5 0 0 1 -19.5,19.5 h-62 a19.5,19.5 0 0 1 -19.5,-19.5 v0 a19.5,19.5 0 0 1 19.5,-19.5" clip-path="url(#satori_cp-id)" mask="url(#satori_om-id)"/><path width="101" height="39" clip-path="url(#satori_bc-id-3-3)" fill="none" stroke="#27272a" stroke-width="2" d="M474.711,169.711 A19.5,19.5 0 0 1 488.5,164 h62 a19.5,19.5 0 0 1 19.5,19.5 v0 a19.5,19.5 0 0 1 -19.5,19.5 h-62 a19.5,19.5 0 0 1 -19.5,-19.5 v0 A19.5,19.5 0 0 1 474.711,169.711"/><g mask="url(#satori_om-id)" clip-path="url(#satori_cp-id)"><path fill="#e4e4e7" d="M496.5 189L495.2 189L495.2 178.8L496.8 178.8L500.9 185.3Q501.1 185.6 501.3 186.0Q501.5 186.4 501.8 186.9L501.8 186.9Q502.0 187.2 502.1 187.5L502.1 187.5Q502.1 187.1 502.1 186.8L502.1 186.8Q502.0 186.3 502.0 185.8Q502.0 185.4 502.0 185.1L502.0 185.1L502.0 178.8L503.3 178.8L503.3 189L501.8 189L498.1 183.2Q497.8 182.8 497.6 182.4Q497.3 181.9 497.0 181.4L497.0 181.4Q496.7 180.9 496.4 180.4L496.4 180.4Q496.5 180.9 496.5 181.3L496.5 181.3Q496.5 182.0 496.5 182.4Q496.5 182.9 496.5 183.2L496.5 183.2L496.5 189ZM508.7 189.2L508.7 189.2Q507.7 189.2 506.9 188.7Q506.1 188.2 505.7 187.3Q505.3 186.4 505.3 185.2L505.3 185.2Q505.3 184.0 505.7 183.1Q506.1 182.2 506.9 181.8Q507.7 181.3 508.7 181.3L508.7 181.3Q509.8 181.3 510.6 181.8Q511.4 182.2 511.8 183.1Q512.2 184.0 512.2 185.2L512.2 185.2Q512.2 186.4 511.8 187.3Q511.4 188.2 510.6 188.7Q509.8 189.2 508.7 189.2ZM508.7 188.1L508.7 188.1Q509.5 188.1 510.0 187.7Q510.5 187.3 510.7 186.6Q511.0 186.0 511.0 185.2L511.0 185.2Q511.0 184.5 510.7 183.8Q510.5 183.2 510.0 182.8Q509.5 182.4 508.7 182.4L508.7 182.4Q508.0 182.4 507.5 182.8Q507.0 183.2 506.7 183.8Q506.5 184.5 506.5 185.2L506.5 185.2Q506.5 186.0 506.7 186.6Q507.0 187.3 507.5 187.7Q508.0 188.1 508.7 188.1ZM516.9 189.2L516.9 189.2Q515.9 189.2 515.2 188.7Q514.5 188.2 514.1 187.3Q513.7 186.4 513.7 185.2L513.7 185.2Q513.7 184.0 514.1 183.1Q514.5 182.2 515.2 181.7Q515.9 181.3 516.9 181.3L516.9 181.3Q517.6 181.3 518.1 181.5Q518.5 181.8 518.7 182.1Q519.0 182.4 519.1 182.6L519.1 182.6L519.2 182.6L519.2 178.8L520.4 178.8L520.4 189L519.2 189L519.2 187.8L519.1 187.8Q519.0 188.0 518.7 188.3Q518.5 188.7 518.1 188.9Q517.6 189.2 516.9 189.2ZM517.1 188.1L517.1 188.1Q517.8 188.1 518.2 187.7Q518.7 187.3 519.0 186.7Q519.2 186.0 519.2 185.2L519.2 185.2Q519.2 184.3 519.0 183.7Q518.7 183.1 518.3 182.7Q517.8 182.4 517.1 182.4L517.1 182.4Q516.3 182.4 515.9 182.7Q515.4 183.1 515.1 183.8Q514.9 184.4 514.9 185.2L514.9 185.2Q514.9 186.0 515.1 186.6Q515.4 187.3 515.9 187.7Q516.4 188.1 517.1 188.1ZM525.8 189.2L525.8 189.2Q524.7 189.2 523.9 188.7Q523.1 188.2 522.7 187.3Q522.2 186.4 522.2 185.2Q522.2 184.1 522.6 183.2Q523.1 182.3 523.8 181.8Q524.6 181.3 525.7 181.3L525.7 181.3Q526.3 181.3 526.9 181.5Q527.5 181.7 527.9 182.1Q528.4 182.6 528.7 183.3Q529.0 184.0 529.0 185.1L529.0 185.1L529.0 185.6L523.5 185.6Q523.5 186.3 523.8 186.9L523.8 186.9Q524.1 187.5 524.6 187.8Q525.1 188.1 525.8 188.1L525.8 188.1Q526.3 188.1 526.6 187.9Q527.0 187.8 527.3 187.5Q527.5 187.3 527.7 186.9L527.7 186.9L528.9 187.2Q528.7 187.8 528.3 188.2Q527.8 188.7 527.2 188.9Q526.6 189.2 525.8 189.2ZM523.5 184.6L523.5 184.6L527.7 184.6Q527.7 184.0 527.5 183.6L527.5 183.6Q527.3 183.0 526.8 182.7Q526.4 182.4 525.7 182.4Q525.0 182.4 524.5 182.7Q524.0 183.0 523.7 183.6L523.7 183.6Q523.5 184.0 523.5 184.6ZM531.7 189.1L531.7 189.1Q531.3 189.1 531.0 188.8Q530.8 188.5 530.8 188.2L530.8 188.2Q530.8 187.8 531.0 187.5Q531.3 187.2 531.7 187.2L531.7 187.2Q532.1 187.2 532.3 187.5Q532.6 187.8 532.6 188.2L532.6 188.2Q532.6 188.5 532.3 188.8Q532.1 189.1 531.7 189.1ZM534.8 189.5L534.8 181.4L536.0 181.4L536.0 189.5Q536.0 190.3 535.8 190.8Q535.5 191.3 535.0 191.6Q534.5 191.9 533.8 191.9L533.8 191.9L533.5 191.9L533.5 190.7L533.8 190.7Q534.3 190.7 534.5 190.4Q534.8 190.1 534.8 189.5L534.8 189.5ZM535.4 180.1L535.4 180.1Q535.1 180.1 534.8 179.9Q534.6 179.6 534.6 179.3L534.6 179.3Q534.6 179.0 534.8 178.7Q535.1 178.5 535.4 178.5L535.4 178.5Q535.8 178.5 536.0 178.7Q536.3 179.0 536.3 179.3L536.3 179.3Q536.3 179.6 536.0 179.9Q535.8 180.1 535.4 180.1ZM540.8 189.2L540.8 189.2Q540.0 189.2 539.4 188.9Q538.8 188.7 538.4 188.3Q538.0 187.8 537.8 187.1L537.8 187.1L539.0 186.9Q539.2 187.5 539.6 187.8Q540.1 188.1 540.8 188.1L540.8 188.1Q541.6 188.1 542.0 187.7Q542.5 187.4 542.5 186.9L542.5 186.9Q542.5 186.5 542.2 186.3Q542.0 186.0 541.4 185.9L541.4 185.9L540.1 185.6Q539.1 185.3 538.6 184.8Q538.1 184.3 538.1 183.5L538.1 183.5Q538.1 182.8 538.4 182.3Q538.8 181.8 539.4 181.5Q540.1 181.3 540.9 181.3L540.9 181.3Q541.7 181.3 542.2 181.5Q542.8 181.7 543.1 182.1Q543.5 182.6 543.6 183.1L543.6 183.1L542.5 183.4Q542.4 183.0 542.0 182.6Q541.6 182.3 540.9 182.3L540.9 182.3Q540.2 182.3 539.8 182.6Q539.3 182.9 539.3 183.4L539.3 183.4Q539.3 183.8 539.6 184.1Q539.9 184.4 540.6 184.5L540.6 184.5L541.8 184.8Q542.8 185.0 543.3 185.5Q543.8 186.1 543.8 186.8L543.8 186.8Q543.8 187.5 543.4 188.0Q543.0 188.6 542.4 188.9Q541.7 189.2 540.8 189.2Z "/></g><defs><clipPath id="satori_bc-id-3-4" clip-path="url(#satori_cp-id)"><path x="586" y="164" width="101" height="39" d="M605.5,164 h62 a19.5,19.5 0 0 1 19.5,19.5 v0 a19.5,19.5 0 0 1 -19.5,19.5 h-62 a19.5,19.5 0 0 1 -19.5,-19.5 v0 a19.5,19.5 0 0 1 19.5,-19.5"/></clipPath></defs><mask id="satori_om-id-3-4"><rect x="587" y="165" width="99" height="37" fill="#fff" mask="url(#satori_om-id)"/><path width="101" height="39" fill="none" stroke="#000" stroke-width="2" d="M591.711,169.711 A19.5,19.5 0 0 1 605.5,164 h62 a19.5,19.5 0 0 1 19.5,19.5 v0 a19.5,19.5 0 0 1 -19.5,19.5 h-62 a19.5,19.5 0 0 1 -19.5,-19.5 v0 A19.5,19.5 0 0 1 591.711,169.711"/></mask><path x="586" y="164" width="101" height="39" fill="#18181b" d="M605.5,164 h62 a19.5,19.5 0 0 1 19.5,19.5 v0 a19.5,19.5 0 0 1 -19.5,19.5 h-62 a19.5,19.5 0 0 1 -19.5,-19.5 v0 a19.5,19.5 0 0 1 19.5,-19.5" clip-path="url(#satori_cp-id)" mask="url(#satori_om-id)"/><path width="101" height="39" clip-path="url(#satori_bc-id-3-4)" fill="none" stroke="#27272a" stroke-width="2" d="M591.711,169.711 A19.5,19.5 0 0 1 605.5,164 h62 a19.5,19.5 0 0 1 19.5,19.5 v0 a19.5,19.5 0 0 1 -19.5,19.5 h-62 a19.5,19.5 0 0 1 -19.5,-19.5 v0 A19.5,19.5 0 0 1 591.711,169.711"/><g mask="url(#satori_om-id)" clip-path="url(#satori_cp-id)"><path fill="#e4e4e7" d="M613.5 189L612.2 189L612.2 178.8L618.4 178.8L618.4 180.0L613.5 180.0L613.5 183.4L617.9 183.4L617.9 184.6L613.5 184.6L613.5 189ZM622.5 189.2L622.5 189.2Q621.8 189.2 621.2 188.9Q620.6 188.6 620.2 188.1Q619.9 187.6 619.9 186.8L619.9 186.8Q619.9 186.2 620.1 185.8Q620.4 185.3 620.8 185.1Q621.3 184.9 621.8 184.8Q622.3 184.6 622.9 184.6L622.9 184.6Q623.5 184.5 624.0 184.4Q624.4 184.4 624.6 184.3Q624.8 184.2 624.8 183.9L624.8 183.9L624.8 183.8Q624.8 183.4 624.6 183.0Q624.5 182.7 624.1 182.5Q623.7 182.3 623.2 182.3L623.2 182.3Q622.7 182.3 622.3 182.5Q621.9 182.7 621.6 182.9Q621.4 183.2 621.3 183.5L621.3 183.5L620.1 183.1Q620.4 182.4 620.9 182.0Q621.4 181.6 622.0 181.4Q622.6 181.3 623.2 181.3L623.2 181.3Q623.6 181.3 624.1 181.4Q624.5 181.4 625.0 181.7Q625.5 182.0 625.7 182.5Q626.0 183.1 626.0 184.0L626.0 184.0L626.0 189L624.8 189L624.8 188.0L624.8 188.0Q624.6 188.2 624.3 188.5Q624.0 188.8 623.6 189.0Q623.1 189.2 622.5 189.2ZM622.7 188.1L622.7 188.1Q623.4 188.1 623.9 187.8Q624.3 187.6 624.6 187.1Q624.8 186.7 624.8 186.2L624.8 186.2L624.8 185.2Q624.7 185.3 624.5 185.3Q624.2 185.4 623.9 185.5Q623.6 185.5 623.3 185.6Q623.0 185.6 622.8 185.6L622.8 185.6Q622.4 185.7 622.0 185.8Q621.6 185.9 621.3 186.2Q621.1 186.5 621.1 186.9L621.1 186.9Q621.1 187.3 621.3 187.6Q621.5 187.8 621.9 188.0Q622.2 188.1 622.7 188.1ZM630.8 189.2L630.8 189.2Q630.0 189.2 629.4 188.9Q628.8 188.7 628.4 188.3Q628.0 187.8 627.9 187.1L627.9 187.1L629.0 186.9Q629.2 187.5 629.7 187.8Q630.1 188.1 630.8 188.1L630.8 188.1Q631.6 188.1 632.1 187.7Q632.5 187.4 632.5 186.9L632.5 186.9Q632.5 186.5 632.3 186.3Q632.0 186.0 631.4 185.9L631.4 185.9L630.1 185.6Q629.1 185.3 628.6 184.8Q628.1 184.3 628.1 183.5L628.1 183.5Q628.1 182.8 628.5 182.3Q628.8 181.8 629.5 181.5Q630.1 181.3 630.9 181.3L630.9 181.3Q631.7 181.3 632.3 181.5Q632.8 181.7 633.2 182.1Q633.5 182.6 633.7 183.1L633.7 183.1L632.6 183.4Q632.4 183.0 632.0 182.6Q631.7 182.3 630.9 182.3L630.9 182.3Q630.3 182.3 629.8 182.6Q629.3 182.9 629.3 183.4L629.3 183.4Q629.3 183.8 629.6 184.1Q630.0 184.4 630.6 184.5L630.6 184.5L631.8 184.8Q632.8 185.0 633.3 185.5Q633.8 186.1 633.8 186.8L633.8 186.8Q633.8 187.5 633.4 188.0Q633.1 188.6 632.4 188.9Q631.7 189.2 630.8 189.2ZM637.0 181.4L638.6 181.4L638.6 182.4L637.0 182.4L637.0 187.0Q637.0 187.5 637.2 187.8Q637.4 188.0 637.9 188.0L637.9 188.0Q638.0 188.0 638.2 188.0Q638.4 187.9 638.6 187.9L638.6 187.9L638.8 189.0Q638.6 189.0 638.4 189.1Q638.1 189.1 637.9 189.1L637.9 189.1Q636.9 189.1 636.4 188.6Q635.8 188.0 635.8 187.1L635.8 187.1L635.8 182.4L634.7 182.4L634.7 181.4L635.8 181.4L635.8 179.5L637.0 179.5L637.0 181.4ZM640.8 189L639.5 189L643.1 178.8L644.7 178.8L648.4 189L647.0 189L646.0 186.2L641.8 186.2L640.8 189ZM642.2 185.0L645.6 185.0L644.9 183.0Q644.7 182.4 644.4 181.6L644.4 181.6Q644.2 180.9 643.9 179.9L643.9 179.9Q643.6 180.9 643.4 181.6L643.4 181.6Q643.1 182.4 642.9 183.0L642.9 183.0L642.2 185.0ZM651.3 189L650.0 189L650.0 178.8L653.5 178.8Q654.7 178.8 655.4 179.2Q656.2 179.7 656.6 180.4Q656.9 181.1 656.9 182.1Q656.9 183.0 656.6 183.7Q656.2 184.4 655.4 184.9Q654.7 185.3 653.5 185.3L653.5 185.3L651.3 185.3L651.3 189ZM651.3 180.0L651.3 184.2L653.4 184.2Q654.2 184.2 654.7 183.9Q655.2 183.6 655.4 183.1Q655.7 182.7 655.7 182.1Q655.7 181.5 655.4 181.0Q655.2 180.5 654.7 180.2Q654.2 180.0 653.4 180.0L653.4 180.0L651.3 180.0ZM658.9 178.8L660.2 178.8L660.2 189L658.9 189L658.9 178.8Z "/></g><defs><clipPath id="satori_bc-id-3-5" clip-path="url(#satori_cp-id)"><path x="107" y="219" width="97" height="39" d="M126.5,219 h58 a19.5,19.5 0 0 1 19.5,19.5 v0 a19.5,19.5 0 0 1 -19.5,19.5 h-58 a19.5,19.5 0 0 1 -19.5,-19.5 v0 a19.5,19.5 0 0 1 19.5,-19.5"/></clipPath></defs><mask id="satori_om-id-3-5"><rect x="108" y="220" width="95" height="37" fill="#fff" mask="url(#satori_om-id)"/><path width="97" height="39" fill="none" stroke="#000" stroke-width="2" d="M112.711,224.711 A19.5,19.5 0 0 1 126.5,219 h58 a19.5,19.5 0 0 1 19.5,19.5 v0 a19.5,19.5 0 0 1 -19.5,19.5 h-58 a19.5,19.5 0 0 1 -19.5,-19.5 v0 A19.5,19.5 0 0 1 112.711,224.711"/></mask><path x="107" y="219" width="97" height="39" fill="#18181b" d="M126.5,219 h58 a19.5,19.5 0 0 1 19.5,19.5 v0 a19.5,19.5 0 0 1 -19.5,19.5 h-58 a19.5,19.5 0 0 1 -19.5,-19.5 v0 a19.5,19.5 0 0 1 19.5,-19.5" clip-path="url(#satori_cp-id)" mask="url(#satori_om-id)"/><path width="97" height="39" clip-path="url(#satori_bc-id-3-5)" fill="none" stroke="#27272a" stroke-width="2" d="M112.711,224.711 A19.5,19.5 0 0 1 126.5,219 h58 a19.5,19.5 0 0 1 19.5,19.5 v0 a19.5,19.5 0 0 1 -19.5,19.5 h-58 a19.5,19.5 0 0 1 -19.5,-19.5 v0 A19.5,19.5 0 0 1 112.711,224.711"/><g mask="url(#satori_om-id)" clip-path="url(#satori_cp-id)"><path fill="#e4e4e7" d="M134.5 244L133.2 244L133.2 233.8L136.7 233.8Q137.9 233.8 138.7 234.2Q139.4 234.7 139.8 235.4Q140.2 236.1 140.2 237.1Q140.2 238.0 139.8 238.7Q139.4 239.4 138.7 239.9Q137.9 240.3 136.7 240.3L136.7 240.3L134.5 240.3L134.5 244ZM134.5 235.0L134.5 239.2L136.7 239.2Q137.5 239.2 138.0 238.9Q138.5 238.6 138.7 238.1Q138.9 237.7 138.9 237.1Q138.9 236.5 138.7 236.0Q138.5 235.5 138.0 235.2Q137.5 235.0 136.6 235.0L136.6 235.0L134.5 235.0ZM141.9 246.8L141.9 246.8L142.2 245.7L142.3 245.7Q142.7 245.8 143.0 245.8Q143.3 245.7 143.6 245.5Q143.8 245.2 144.0 244.7L144.0 244.7L144.2 244.0L141.3 236.4L142.7 236.4L144.3 240.9Q144.5 241.6 144.7 242.3L144.7 242.3Q144.8 242.6 144.9 242.9L144.9 242.9Q144.9 242.6 145.0 242.3L145.0 242.3Q145.2 241.6 145.5 240.9L145.5 240.9L147.1 236.4L148.4 236.4L145.1 245.1Q144.9 245.8 144.5 246.1Q144.2 246.5 143.8 246.7Q143.3 246.9 142.8 246.9L142.8 246.9Q142.5 246.9 142.2 246.9Q142.0 246.8 141.9 246.8ZM151.3 236.4L152.9 236.4L152.9 237.4L151.3 237.4L151.3 242.0Q151.3 242.5 151.5 242.8Q151.7 243.0 152.2 243.0L152.2 243.0Q152.3 243.0 152.5 243.0Q152.7 242.9 152.9 242.9L152.9 242.9L153.1 244.0Q152.9 244.0 152.7 244.1Q152.4 244.1 152.2 244.1L152.2 244.1Q151.2 244.1 150.6 243.6Q150.1 243.0 150.1 242.1L150.1 242.1L150.1 237.4L148.9 237.4L148.9 236.4L150.1 236.4L150.1 234.5L151.3 234.5L151.3 236.4ZM155.7 239.4L155.7 239.4L155.7 244L154.5 244L154.5 233.8L155.7 233.8L155.7 237.7Q156.0 237.0 156.5 236.7L156.5 236.7Q157.1 236.3 158.0 236.3L158.0 236.3Q158.8 236.3 159.4 236.6Q159.9 236.9 160.3 237.5Q160.6 238.2 160.6 239.1L160.6 239.1L160.6 244L159.4 244L159.4 239.2Q159.4 238.4 158.9 237.9Q158.4 237.4 157.6 237.4L157.6 237.4Q157.1 237.4 156.6 237.6Q156.2 237.8 156.0 238.3Q155.7 238.8 155.7 239.4ZM165.9 244.2L165.9 244.2Q164.8 244.2 164.0 243.7Q163.3 243.2 162.8 242.3Q162.4 241.4 162.4 240.2L162.4 240.2Q162.4 239.0 162.8 238.1Q163.3 237.2 164.0 236.8Q164.8 236.3 165.9 236.3L165.9 236.3Q166.9 236.3 167.7 236.8Q168.5 237.2 168.9 238.1Q169.4 239.0 169.4 240.2L169.4 240.2Q169.4 241.4 168.9 242.3Q168.5 243.2 167.7 243.7Q166.9 244.2 165.9 244.2ZM165.9 243.1L165.9 243.1Q166.6 243.1 167.1 242.7Q167.6 242.3 167.9 241.6Q168.1 241.0 168.1 240.2L168.1 240.2Q168.1 239.5 167.9 238.8Q167.6 238.2 167.1 237.8Q166.6 237.4 165.9 237.4L165.9 237.4Q165.1 237.4 164.6 237.8Q164.1 238.2 163.9 238.8Q163.6 239.5 163.6 240.2L163.6 240.2Q163.6 241.0 163.9 241.6Q164.1 242.3 164.6 242.7Q165.1 243.1 165.9 243.1ZM172.4 239.4L172.4 239.4L172.4 244L171.1 244L171.1 236.4L172.3 236.4L172.3 237.8Q172.7 237.1 173.2 236.7L173.2 236.7Q173.8 236.3 174.7 236.3L174.7 236.3Q175.4 236.3 176.0 236.6Q176.6 236.9 176.9 237.5Q177.3 238.2 177.3 239.1L177.3 239.1L177.3 244L176.0 244L176.0 239.2Q176.0 238.4 175.6 237.9Q175.1 237.4 174.3 237.4L174.3 237.4Q173.8 237.4 173.3 237.6Q172.9 237.8 172.6 238.3Q172.4 238.8 172.4 239.4Z "/></g><defs><clipPath id="satori_bc-id-3-6" clip-path="url(#satori_cp-id)"><path x="220" y="219" width="98" height="39" d="M239.5,219 h59 a19.5,19.5 0 0 1 19.5,19.5 v0 a19.5,19.5 0 0 1 -19.5,19.5 h-59 a19.5,19.5 0 0 1 -19.5,-19.5 v0 a19.5,19.5 0 0 1 19.5,-19.5"/></clipPath></defs><mask id="satori_om-id-3-6"><rect x="221" y="220" width="96" height="37" fill="#fff" mask="url(#satori_om-id)"/><path width="98" height="39" fill="none" stroke="#000" stroke-width="2" d="M225.711,224.711 A19.5,19.5 0 0 1 239.5,219 h59 a19.5,19.5 0 0 1 19.5,19.5 v0 a19.5,19.5 0 0 1 -19.5,19.5 h-59 a19.5,19.5 0 0 1 -19.5,-19.5 v0 A19.5,19.5 0 0 1 225.711,224.711"/></mask><path x="220" y="219" width="98" height="39" fill="#18181b" d="M239.5,219 h59 a19.5,19.5 0 0 1 19.5,19.5 v0 a19.5,19.5 0 0 1 -19.5,19.5 h-59 a19.5,19.5 0 0 1 -19.5,-19.5 v0 a19.5,19.5 0 0 1 19.5,-19.5" clip-path="url(#satori_cp-id)" mask="url(#satori_om-id)"/><path width="98" height="39" clip-path="url(#satori_bc-id-3-6)" fill="none" stroke="#27272a" stroke-width="2" d="M225.711,224.711 A19.5,19.5 0 0 1 239.5,219 h59 a19.5,19.5 0 0 1 19.5,19.5 v0 a19.5,19.5 0 0 1 -19.5,19.5 h-59 a19.5,19.5 0 0 1 -19.5,-19.5 v0 A19.5,19.5 0 0 1 225.711,224.711"/><g mask="url(#satori_om-id)" clip-path="url(#satori_cp-id)"><path fill="#e4e4e7" d="M249.4 244L249.4 244L246.2 244L246.2 233.8L249.5 233.8Q251.0 233.8 252.1 234.4Q253.1 235.0 253.7 236.2Q254.3 237.3 254.3 238.9L254.3 238.9Q254.3 240.5 253.7 241.6Q253.1 242.8 252.0 243.4Q251.0 244 249.4 244ZM247.5 235.0L247.5 242.9L249.3 242.9Q250.6 242.9 251.4 242.4Q252.2 241.9 252.6 241.0Q253.0 240.1 253.0 238.9L253.0 238.9Q253.0 237.7 252.6 236.8Q252.2 235.9 251.4 235.4Q250.6 235.0 249.5 235.0L249.5 235.0L247.5 235.0ZM259.3 244.2L259.3 244.2Q258.3 244.2 257.5 243.7Q256.7 243.2 256.3 242.3Q255.8 241.4 255.8 240.2L255.8 240.2Q255.8 239.0 256.3 238.1Q256.7 237.2 257.5 236.8Q258.3 236.3 259.3 236.3L259.3 236.3Q260.3 236.3 261.1 236.8Q261.9 237.2 262.3 238.1Q262.8 239.0 262.8 240.2L262.8 240.2Q262.8 241.4 262.3 242.3Q261.9 243.2 261.1 243.7Q260.3 244.2 259.3 244.2ZM259.3 243.1L259.3 243.1Q260.1 243.1 260.6 242.7Q261.1 242.3 261.3 241.6Q261.5 241.0 261.5 240.2L261.5 240.2Q261.5 239.5 261.3 238.8Q261.1 238.2 260.6 237.8Q260.1 237.4 259.3 237.4L259.3 237.4Q258.5 237.4 258.0 237.8Q257.5 238.2 257.3 238.8Q257.1 239.5 257.1 240.2L257.1 240.2Q257.1 241.0 257.3 241.6Q257.5 242.3 258.0 242.7Q258.5 243.1 259.3 243.1ZM267.7 244.2L267.7 244.2Q266.6 244.2 265.9 243.7Q265.1 243.2 264.6 242.3Q264.2 241.4 264.2 240.2L264.2 240.2Q264.2 239.0 264.6 238.1Q265.1 237.2 265.9 236.8Q266.6 236.3 267.7 236.3L267.7 236.3Q268.2 236.3 268.7 236.4Q269.2 236.5 269.6 236.8Q270.0 237.1 270.3 237.5Q270.6 237.9 270.8 238.4L270.8 238.4L269.6 238.7Q269.5 238.4 269.3 238.2Q269.2 237.9 268.9 237.7Q268.7 237.6 268.4 237.5Q268.1 237.4 267.7 237.4L267.7 237.4Q266.9 237.4 266.4 237.8Q265.9 238.2 265.7 238.8Q265.5 239.5 265.5 240.2L265.5 240.2Q265.5 241.0 265.7 241.6Q265.9 242.3 266.4 242.7Q266.9 243.1 267.7 243.1L267.7 243.1Q268.1 243.1 268.4 243.0Q268.7 242.9 269.0 242.7Q269.2 242.5 269.4 242.2Q269.6 242.0 269.6 241.7L269.6 241.7L270.8 242.0Q270.7 242.5 270.4 242.9Q270.1 243.3 269.7 243.6Q269.2 243.9 268.7 244.0Q268.2 244.2 267.7 244.2ZM273.8 244L272.6 244L272.6 233.8L273.8 233.8L273.8 239.7L274.0 239.7L277.2 236.4L278.7 236.4L275.5 239.6L279.0 244L277.4 244L274.6 240.4L273.8 241.2L273.8 244ZM283.5 244.2L283.5 244.2Q282.4 244.2 281.6 243.7Q280.8 243.2 280.3 242.3Q279.9 241.4 279.9 240.2Q279.9 239.1 280.3 238.2Q280.7 237.3 281.5 236.8Q282.3 236.3 283.3 236.3L283.3 236.3Q283.9 236.3 284.5 236.5Q285.1 236.7 285.6 237.1Q286.1 237.6 286.4 238.3Q286.7 239.0 286.7 240.1L286.7 240.1L286.7 240.6L281.1 240.6Q281.2 241.3 281.4 241.9L281.4 241.9Q281.7 242.5 282.3 242.8Q282.8 243.1 283.5 243.1L283.5 243.1Q283.9 243.1 284.3 242.9Q284.7 242.8 284.9 242.5Q285.2 242.3 285.3 241.9L285.3 241.9L286.5 242.2Q286.4 242.8 285.9 243.2Q285.5 243.7 284.9 243.9Q284.3 244.2 283.5 244.2ZM281.1 239.6L281.1 239.6L285.4 239.6Q285.4 239.0 285.2 238.6L285.2 238.6Q284.9 238.0 284.5 237.7Q284.0 237.4 283.3 237.4Q282.6 237.4 282.1 237.7Q281.7 238.0 281.4 238.6L281.4 238.6Q281.2 239.0 281.1 239.6ZM289.7 244L288.4 244L288.4 236.4L289.6 236.4L289.6 237.5L289.7 237.5Q289.9 237.0 290.4 236.6Q291.0 236.2 291.7 236.2L291.7 236.2Q291.8 236.2 292.0 236.3Q292.2 236.3 292.3 236.3L292.3 236.3L292.3 237.5Q292.2 237.5 292.0 237.5Q291.8 237.4 291.6 237.4L291.6 237.4Q291.0 237.4 290.6 237.7Q290.1 237.9 289.9 238.3Q289.7 238.7 289.7 239.2L289.7 239.2L289.7 244Z "/></g><defs><clipPath id="satori_bc-id-3-7" clip-path="url(#satori_cp-id)"><path x="334" y="219" width="129" height="39" d="M353.5,219 h90 a19.5,19.5 0 0 1 19.5,19.5 v0 a19.5,19.5 0 0 1 -19.5,19.5 h-90 a19.5,19.5 0 0 1 -19.5,-19.5 v0 a19.5,19.5 0 0 1 19.5,-19.5"/></clipPath></defs><mask id="satori_om-id-3-7"><rect x="335" y="220" width="127" height="37" fill="#fff" mask="url(#satori_om-id)"/><path width="129" height="39" fill="none" stroke="#000" stroke-width="2" d="M339.711,224.711 A19.5,19.5 0 0 1 353.5,219 h90 a19.5,19.5 0 0 1 19.5,19.5 v0 a19.5,19.5 0 0 1 -19.5,19.5 h-90 a19.5,19.5 0 0 1 -19.5,-19.5 v0 A19.5,19.5 0 0 1 339.711,224.711"/></mask><path x="334" y="219" width="129" height="39" fill="#18181b" d="M353.5,219 h90 a19.5,19.5 0 0 1 19.5,19.5 v0 a19.5,19.5 0 0 1 -19.5,19.5 h-90 a19.5,19.5 0 0 1 -19.5,-19.5 v0 a19.5,19.5 0 0 1 19.5,-19.5" clip-path="url(#satori_cp-id)" mask="url(#satori_om-id)"/><path width="129" height="39" clip-path="url(#satori_bc-id-3-7)" fill="none" stroke="#27272a" stroke-width="2" d="M339.711,224.711 A19.5,19.5 0 0 1 353.5,219 h90 a19.5,19.5 0 0 1 19.5,19.5 v0 a19.5,19.5 0 0 1 -19.5,19.5 h-90 a19.5,19.5 0 0 1 -19.5,-19.5 v0 A19.5,19.5 0 0 1 339.711,224.711"/><g mask="url(#satori_om-id)" clip-path="url(#satori_cp-id)"><path fill="#e4e4e7" d="M361.5 244L360.2 244L360.2 233.8L363.7 233.8Q364.9 233.8 365.7 234.2Q366.4 234.7 366.8 235.4Q367.2 236.1 367.2 237.1Q367.2 238.0 366.8 238.7Q366.4 239.4 365.7 239.9Q364.9 240.3 363.7 240.3L363.7 240.3L361.5 240.3L361.5 244ZM361.5 235.0L361.5 239.2L363.7 239.2Q364.5 239.2 365.0 238.9Q365.5 238.6 365.7 238.1Q365.9 237.7 365.9 237.1Q365.9 236.5 365.7 236.0Q365.5 235.5 365.0 235.2Q364.5 235.0 363.6 235.0L363.6 235.0L361.5 235.0ZM372.1 244.2L372.1 244.2Q371.1 244.2 370.3 243.7Q369.5 243.2 369.1 242.3Q368.7 241.4 368.7 240.2L368.7 240.2Q368.7 239.0 369.1 238.1Q369.5 237.2 370.3 236.8Q371.1 236.3 372.1 236.3L372.1 236.3Q373.2 236.3 374.0 236.8Q374.8 237.2 375.2 238.1Q375.6 239.0 375.6 240.2L375.6 240.2Q375.6 241.4 375.2 242.3Q374.8 243.2 374.0 243.7Q373.2 244.2 372.1 244.2ZM372.1 243.1L372.1 243.1Q372.9 243.1 373.4 242.7Q373.9 242.3 374.1 241.6Q374.4 241.0 374.4 240.2L374.4 240.2Q374.4 239.5 374.1 238.8Q373.9 238.2 373.4 237.8Q372.9 237.4 372.1 237.4L372.1 237.4Q371.4 237.4 370.9 237.8Q370.4 238.2 370.1 238.8Q369.9 239.5 369.9 240.2L369.9 240.2Q369.9 241.0 370.1 241.6Q370.4 242.3 370.9 242.7Q371.4 243.1 372.1 243.1ZM380.0 244.2L380.0 244.2Q379.2 244.2 378.6 243.9Q378.0 243.7 377.6 243.3Q377.2 242.8 377.1 242.1L377.1 242.1L378.2 241.9Q378.4 242.5 378.9 242.8Q379.3 243.1 380 243.1L380 243.1Q380.8 243.1 381.3 242.7Q381.8 242.4 381.8 241.9L381.8 241.9Q381.8 241.5 381.5 241.3Q381.2 241.0 380.6 240.9L380.6 240.9L379.4 240.6Q378.3 240.3 377.8 239.8Q377.3 239.3 377.3 238.5L377.3 238.5Q377.3 237.8 377.7 237.3Q378.0 236.8 378.7 236.5Q379.3 236.3 380.1 236.3L380.1 236.3Q380.9 236.3 381.5 236.5Q382.0 236.7 382.4 237.1Q382.7 237.6 382.9 238.1L382.9 238.1L381.8 238.4Q381.6 238.0 381.2 237.6Q380.9 237.3 380.1 237.3L380.1 237.3Q379.5 237.3 379.0 237.6Q378.6 237.9 378.6 238.4L378.6 238.4Q378.6 238.8 378.9 239.1Q379.2 239.4 379.8 239.5L379.8 239.5L381.0 239.8Q382.0 240.0 382.5 240.5Q383.0 241.1 383.0 241.8L383.0 241.8Q383.0 242.5 382.6 243.0Q382.3 243.6 381.6 243.9Q380.9 244.2 380.0 244.2ZM386.2 236.4L387.8 236.4L387.8 237.4L386.2 237.4L386.2 242.0Q386.2 242.5 386.4 242.8Q386.7 243.0 387.1 243.0L387.1 243.0Q387.3 243.0 387.4 243.0Q387.6 242.9 387.8 242.9L387.8 242.9L388.0 244.0Q387.8 244.0 387.6 244.1Q387.3 244.1 387.1 244.1L387.1 244.1Q386.1 244.1 385.6 243.6Q385.0 243.0 385.0 242.1L385.0 242.1L385.0 237.4L383.9 237.4L383.9 236.4L385.0 236.4L385.0 234.5L386.2 234.5L386.2 236.4ZM392.5 247.0L392.5 247.0Q391.6 247.0 391.0 246.8Q390.4 246.6 390.0 246.2Q389.6 245.9 389.3 245.5L389.3 245.5L390.3 244.8Q390.5 245.0 390.7 245.3Q391.0 245.6 391.4 245.8Q391.8 245.9 392.5 245.9L392.5 245.9Q393.4 245.9 394.0 245.5Q394.6 245.1 394.6 244.1L394.6 244.1L394.6 242.6L394.5 242.6Q394.3 242.8 394.1 243.1Q393.9 243.4 393.4 243.6Q393.0 243.9 392.2 243.9L392.2 243.9Q391.3 243.9 390.6 243.4Q389.9 243.0 389.4 242.2Q389.0 241.3 389.0 240.1L389.0 240.1Q389.0 239.0 389.4 238.1Q389.9 237.2 390.6 236.7Q391.3 236.3 392.3 236.3L392.3 236.3Q393.0 236.3 393.4 236.5Q393.9 236.7 394.1 237.1Q394.4 237.4 394.5 237.6L394.5 237.6L394.6 237.6L394.6 236.4L395.8 236.4L395.8 244.2Q395.8 245.2 395.4 245.8Q394.9 246.4 394.2 246.7Q393.4 247.0 392.5 247.0ZM392.4 242.8L392.4 242.8Q393.1 242.8 393.6 242.5Q394.1 242.1 394.3 241.5Q394.6 241.0 394.6 240.1L394.6 240.1Q394.6 239.3 394.4 238.7Q394.1 238.1 393.6 237.7Q393.2 237.4 392.4 237.4L392.4 237.4Q391.7 237.4 391.2 237.7Q390.8 238.1 390.5 238.7Q390.3 239.4 390.3 240.1L390.3 240.1Q390.3 240.9 390.5 241.5Q390.8 242.1 391.2 242.4Q391.7 242.8 392.4 242.8ZM399.2 244L398.0 244L398.0 236.4L399.2 236.4L399.2 237.5L399.2 237.5Q399.5 237.0 400.0 236.6Q400.5 236.2 401.2 236.2L401.2 236.2Q401.4 236.2 401.6 236.3Q401.7 236.3 401.8 236.3L401.8 236.3L401.8 237.5Q401.8 237.5 401.6 237.5Q401.4 237.4 401.1 237.4L401.1 237.4Q400.6 237.4 400.1 237.7Q399.7 237.9 399.4 238.3Q399.2 238.7 399.2 239.2L399.2 239.2L399.2 244ZM406.5 244.2L406.5 244.2Q405.3 244.2 404.5 243.7Q403.7 243.2 403.3 242.3Q402.9 241.4 402.9 240.2Q402.9 239.1 403.3 238.2Q403.7 237.3 404.5 236.8Q405.3 236.3 406.3 236.3L406.3 236.3Q406.9 236.3 407.5 236.5Q408.1 236.7 408.6 237.1Q409.1 237.6 409.4 238.3Q409.6 239.0 409.6 240.1L409.6 240.1L409.6 240.6L404.1 240.6Q404.1 241.3 404.4 241.9L404.4 241.9Q404.7 242.5 405.2 242.8Q405.8 243.1 406.5 243.1L406.5 243.1Q406.9 243.1 407.3 242.9Q407.7 242.8 407.9 242.5Q408.2 242.3 408.3 241.9L408.3 241.9L409.5 242.2Q409.3 242.8 408.9 243.2Q408.5 243.7 407.9 243.9Q407.2 244.2 406.5 244.2ZM404.1 239.6L404.1 239.6L408.4 239.6Q408.3 239.0 408.2 238.6L408.2 238.6Q407.9 238.0 407.5 237.7Q407.0 237.4 406.3 237.4Q405.6 237.4 405.1 237.7Q404.6 238.0 404.4 238.6L404.4 238.6Q404.2 239.0 404.1 239.6ZM414.8 244.2L414.8 244.2Q413.7 244.2 412.9 243.8Q412.1 243.5 411.6 242.8Q411.2 242.2 411.1 241.3L411.1 241.3L412.5 241.3Q412.5 241.9 412.8 242.3Q413.2 242.7 413.7 242.8Q414.2 243.0 414.8 243.0L414.8 243.0Q415.5 243.0 416.1 242.8Q416.6 242.6 416.9 242.2Q417.2 241.7 417.2 241.2L417.2 241.2Q417.2 240.7 417.0 240.4Q416.7 240.1 416.2 239.9Q415.8 239.7 415.2 239.5L415.2 239.5L414.0 239.2Q412.8 238.9 412.1 238.2Q411.4 237.6 411.4 236.5L411.4 236.5Q411.4 235.7 411.9 235.0Q412.3 234.4 413.1 234.0Q413.9 233.7 414.9 233.7L414.9 233.7Q415.9 233.7 416.7 234.0Q417.5 234.4 417.9 235.0Q418.3 235.6 418.4 236.4L418.4 236.4L417.1 236.4Q417.0 235.6 416.4 235.2Q415.8 234.8 414.9 234.8L414.9 234.8Q414.2 234.8 413.7 235.0Q413.2 235.3 412.9 235.6Q412.7 236.0 412.7 236.5L412.7 236.5Q412.7 237.0 413.0 237.3Q413.3 237.7 413.8 237.8Q414.2 238.0 414.6 238.1L414.6 238.1L415.6 238.4Q416.0 238.5 416.5 238.7Q417.0 238.9 417.5 239.2Q417.9 239.5 418.2 240.0Q418.5 240.5 418.5 241.2L418.5 241.2Q418.5 242.1 418.1 242.7Q417.6 243.4 416.8 243.8Q416.0 244.2 414.8 244.2ZM424.7 244.1L424.7 244.1Q423.4 244.1 422.3 243.5Q421.3 242.9 420.7 241.7Q420.1 240.5 420.1 238.9L420.1 238.9Q420.1 237.3 420.7 236.1Q421.3 234.9 422.3 234.3Q423.4 233.7 424.7 233.7Q426.0 233.7 427.0 234.3Q428.0 234.9 428.6 236.1Q429.2 237.3 429.2 238.9L429.2 238.9Q429.2 240.5 428.6 241.7L428.6 241.7Q428.1 242.6 427.4 243.2L427.4 243.2L428.7 245.0L427.4 245.0L426.5 243.8Q425.7 244.1 424.7 244.1ZM425.7 242.8L424.2 240.8L425.6 240.8L426.7 242.2Q427.2 241.8 427.5 241.1L427.5 241.1Q427.9 240.2 427.9 238.9L427.9 238.9Q427.9 237.6 427.5 236.7Q427.0 235.8 426.3 235.3Q425.6 234.9 424.7 234.9L424.7 234.9Q423.8 234.9 423.0 235.3Q422.3 235.8 421.8 236.7Q421.4 237.6 421.4 238.9L421.4 238.9Q421.4 240.2 421.8 241.1Q422.3 242.0 423.0 242.5Q423.8 242.9 424.7 242.9L424.7 242.9Q425.2 242.9 425.7 242.8L425.7 242.8ZM437.3 244L431.2 244L431.2 233.8L432.5 233.8L432.5 242.9L437.3 242.9L437.3 244Z "/></g><defs><clipPath id="satori_bc-id-3-8" clip-path="url(#satori_cp-id)"><path x="479" y="219" width="116" height="39" d="M498.5,219 h77 a19.5,19.5 0 0 1 19.5,19.5 v0 a19.5,19.5 0 0 1 -19.5,19.5 h-77 a19.5,19.5 0 0 1 -19.5,-19.5 v0 a19.5,19.5 0 0 1 19.5,-19.5"/></clipPath></defs><mask id="satori_om-id-3-8"><rect x="480" y="220" width="114" height="37" fill="#fff" mask="url(#satori_om-id)"/><path width="116" height="39" fill="none" stroke="#000" stroke-width="2" d="M484.711,224.711 A19.5,19.5 0 0 1 498.5,219 h77 a19.5,19.5 0 0 1 19.5,19.5 v0 a19.5,19.5 0 0 1 -19.5,19.5 h-77 a19.5,19.5 0 0 1 -19.5,-19.5 v0 A19.5,19.5 0 0 1 484.711,224.711"/></mask><path x="479" y="219" width="116" height="39" fill="#18181b" d="M498.5,219 h77 a19.5,19.5 0 0 1 19.5,19.5 v0 a19.5,19.5 0 0 1 -19.5,19.5 h-77 a19.5,19.5 0 0 1 -19.5,-19.5 v0 a19.5,19.5 0 0 1 19.5,-19.5" clip-path="url(#satori_cp-id)" mask="url(#satori_om-id)"/><path width="116" height="39" clip-path="url(#satori_bc-id-3-8)" fill="none" stroke="#27272a" stroke-width="2" d="M484.711,224.711 A19.5,19.5 0 0 1 498.5,219 h77 a19.5,19.5 0 0 1 19.5,19.5 v0 a19.5,19.5 0 0 1 -19.5,19.5 h-77 a19.5,19.5 0 0 1 -19.5,-19.5 v0 A19.5,19.5 0 0 1 484.711,224.711"/><g mask="url(#satori_om-id)" clip-path="url(#satori_cp-id)"><path fill="#e4e4e7" d="M506.5 244L505.2 244L505.2 233.8L507.1 233.8L509.6 240.2Q509.7 240.5 509.8 240.8Q509.9 241.1 510.0 241.5Q510.2 241.9 510.3 242.3L510.3 242.3Q510.3 242.4 510.3 242.6L510.3 242.6Q510.4 242.5 510.4 242.4L510.4 242.4Q510.5 242.0 510.6 241.6Q510.8 241.2 510.9 240.8Q511 240.5 511.1 240.2L511.1 240.2L513.6 233.8L515.4 233.8L515.4 244L514.1 244L514.1 238.2Q514.1 237.9 514.1 237.5Q514.1 237.1 514.2 236.6Q514.2 236.2 514.2 235.7L514.2 235.7Q514.2 235.5 514.2 235.2L514.2 235.2Q514.1 235.5 514.0 235.8L514.0 235.8Q513.8 236.3 513.7 236.7Q513.5 237.2 513.4 237.6Q513.3 237.9 513.2 238.2L513.2 238.2L510.9 244L509.8 244L507.4 238.2Q507.3 237.9 507.2 237.6Q507.1 237.2 506.9 236.8Q506.8 236.3 506.6 235.8L506.6 235.8Q506.5 235.5 506.4 235.2L506.4 235.2Q506.4 235.4 506.4 235.7L506.4 235.7Q506.4 236.1 506.4 236.6Q506.5 237.0 506.5 237.4Q506.5 237.8 506.5 238.2L506.5 238.2L506.5 244ZM520.8 244.2L520.8 244.2Q519.8 244.2 519.0 243.7Q518.2 243.2 517.8 242.3Q517.4 241.4 517.4 240.2L517.4 240.2Q517.4 239.0 517.8 238.1Q518.2 237.2 519.0 236.8Q519.8 236.3 520.8 236.3L520.8 236.3Q521.9 236.3 522.7 236.8Q523.5 237.2 523.9 238.1Q524.3 239.0 524.3 240.2L524.3 240.2Q524.3 241.4 523.9 242.3Q523.5 243.2 522.7 243.7Q521.9 244.2 520.8 244.2ZM520.8 243.1L520.8 243.1Q521.6 243.1 522.1 242.7Q522.6 242.3 522.8 241.6Q523.1 241.0 523.1 240.2L523.1 240.2Q523.1 239.5 522.8 238.8Q522.6 238.2 522.1 237.8Q521.6 237.4 520.8 237.4L520.8 237.4Q520.1 237.4 519.6 237.8Q519.1 238.2 518.8 238.8Q518.6 239.5 518.6 240.2L518.6 240.2Q518.6 241.0 518.8 241.6Q519.1 242.3 519.6 242.7Q520.1 243.1 520.8 243.1ZM527.4 239.4L527.4 239.4L527.4 244L526.1 244L526.1 236.4L527.3 236.4L527.3 237.8Q527.6 237.1 528.1 236.7L528.1 236.7Q528.8 236.3 529.6 236.3L529.6 236.3Q530.4 236.3 531.0 236.6Q531.6 236.9 531.9 237.5Q532.2 238.2 532.2 239.1L532.2 239.1L532.2 244L531.0 244L531.0 239.2Q531.0 238.4 530.5 237.9Q530.1 237.4 529.3 237.4L529.3 237.4Q528.7 237.4 528.3 237.6Q527.9 237.8 527.6 238.3Q527.4 238.8 527.4 239.4ZM537.5 247.0L537.5 247.0Q536.6 247.0 536.0 246.8Q535.4 246.6 535.0 246.2Q534.6 245.9 534.3 245.5L534.3 245.5L535.3 244.8Q535.5 245.0 535.7 245.3Q536.0 245.6 536.4 245.8Q536.8 245.9 537.5 245.9L537.5 245.9Q538.4 245.9 539.0 245.5Q539.6 245.1 539.6 244.1L539.6 244.1L539.6 242.6L539.5 242.6Q539.3 242.8 539.1 243.1Q538.9 243.4 538.4 243.6Q538.0 243.9 537.3 243.9L537.3 243.9Q536.3 243.9 535.6 243.4Q534.9 243.0 534.4 242.2Q534.0 241.3 534.0 240.1L534.0 240.1Q534.0 239.0 534.4 238.1Q534.9 237.2 535.6 236.7Q536.3 236.3 537.3 236.3L537.3 236.3Q538.0 236.3 538.5 236.5Q538.9 236.7 539.1 237.1Q539.4 237.4 539.5 237.6L539.5 237.6L539.6 237.6L539.6 236.4L540.8 236.4L540.8 244.2Q540.8 245.2 540.4 245.8Q539.9 246.4 539.2 246.7Q538.4 247.0 537.5 247.0ZM537.5 242.8L537.5 242.8Q538.2 242.8 538.6 242.5Q539.1 242.1 539.4 241.5Q539.6 241.0 539.6 240.1L539.6 240.1Q539.6 239.3 539.4 238.7Q539.1 238.1 538.6 237.7Q538.2 237.4 537.5 237.4L537.5 237.4Q536.7 237.4 536.2 237.7Q535.8 238.1 535.5 238.7Q535.3 239.4 535.3 240.1L535.3 240.1Q535.3 240.9 535.5 241.5Q535.8 242.1 536.3 242.4Q536.7 242.8 537.5 242.8ZM546.1 244.2L546.1 244.2Q545.0 244.2 544.3 243.7Q543.5 243.2 543.0 242.3Q542.6 241.4 542.6 240.2L542.6 240.2Q542.6 239.0 543.0 238.1Q543.5 237.2 544.3 236.8Q545.0 236.3 546.1 236.3L546.1 236.3Q547.1 236.3 547.9 236.8Q548.7 237.2 549.1 238.1Q549.6 239.0 549.6 240.2L549.6 240.2Q549.6 241.4 549.1 242.3Q548.7 243.2 547.9 243.7Q547.1 244.2 546.1 244.2ZM546.1 243.1L546.1 243.1Q546.9 243.1 547.4 242.7Q547.9 242.3 548.1 241.6Q548.3 241.0 548.3 240.2L548.3 240.2Q548.3 239.5 548.1 238.8Q547.9 238.2 547.4 237.8Q546.9 237.4 546.1 237.4L546.1 237.4Q545.3 237.4 544.8 237.8Q544.3 238.2 544.1 238.8Q543.9 239.5 543.9 240.2L543.9 240.2Q543.9 241.0 544.1 241.6Q544.3 242.3 544.8 242.7Q545.3 243.1 546.1 243.1ZM554.7 244L554.7 244L551.5 244L551.5 233.8L554.8 233.8Q556.3 233.8 557.4 234.4Q558.4 235.0 559.0 236.2Q559.6 237.3 559.6 238.9L559.6 238.9Q559.6 240.5 559.0 241.6Q558.4 242.8 557.3 243.4Q556.3 244 554.7 244ZM552.8 235.0L552.8 242.9L554.6 242.9Q555.9 242.9 556.7 242.4Q557.5 241.9 557.9 241.0Q558.3 240.1 558.3 238.9L558.3 238.9Q558.3 237.7 557.9 236.8Q557.5 235.9 556.7 235.4Q555.9 235.0 554.7 235.0L554.7 235.0L552.8 235.0ZM565.4 244L561.6 244L561.6 233.8L565.2 233.8Q566.3 233.8 567.0 234.2Q567.7 234.5 568.0 235.2Q568.4 235.8 568.4 236.5L568.4 236.5Q568.4 237.2 568.1 237.6Q567.9 238.0 567.5 238.3Q567.1 238.5 566.7 238.7L566.7 238.7L566.7 238.8Q567.2 238.8 567.7 239.1Q568.1 239.4 568.4 239.9Q568.8 240.5 568.8 241.3L568.8 241.3Q568.8 242.1 568.4 242.7Q568.1 243.3 567.3 243.6Q566.6 244 565.4 244L565.4 244ZM562.9 239.4L562.9 242.9L565.3 242.9Q566.5 242.9 567.0 242.4Q567.5 241.9 567.5 241.3L567.5 241.3Q567.5 240.8 567.3 240.3Q567.0 239.9 566.5 239.6Q566.0 239.4 565.4 239.4L565.4 239.4L562.9 239.4ZM562.9 235.0L562.9 238.3L565.2 238.3Q565.7 238.3 566.2 238.1Q566.6 237.9 566.9 237.5Q567.1 237.1 567.1 236.5L567.1 236.5Q567.1 235.9 566.7 235.4Q566.2 235.0 565.2 235.0L565.2 235.0L562.9 235.0Z "/></g><defs><clipPath id="satori_bc-id-3-9" clip-path="url(#satori_cp-id)"><path x="611" y="219" width="83" height="39" d="M630.5,219 h44 a19.5,19.5 0 0 1 19.5,19.5 v0 a19.5,19.5 0 0 1 -19.5,19.5 h-44 a19.5,19.5 0 0 1 -19.5,-19.5 v0 a19.5,19.5 0 0 1 19.5,-19.5"/></clipPath></defs><mask id="satori_om-id-3-9"><rect x="612" y="220" width="81" height="37" fill="#fff" mask="url(#satori_om-id)"/><path width="83" height="39" fill="none" stroke="#000" stroke-width="2" d="M616.711,224.711 A19.5,19.5 0 0 1 630.5,219 h44 a19.5,19.5 0 0 1 19.5,19.5 v0 a19.5,19.5 0 0 1 -19.5,19.5 h-44 a19.5,19.5 0 0 1 -19.5,-19.5 v0 A19.5,19.5 0 0 1 616.711,224.711"/></mask><path x="611" y="219" width="83" height="39" fill="#18181b" d="M630.5,219 h44 a19.5,19.5 0 0 1 19.5,19.5 v0 a19.5,19.5 0 0 1 -19.5,19.5 h-44 a19.5,19.5 0 0 1 -19.5,-19.5 v0 a19.5,19.5 0 0 1 19.5,-19.5" clip-path="url(#satori_cp-id)" mask="url(#satori_om-id)"/><path width="83" height="39" clip-path="url(#satori_bc-id-3-9)" fill="none" stroke="#27272a" stroke-width="2" d="M616.711,224.711 A19.5,19.5 0 0 1 630.5,219 h44 a19.5,19.5 0 0 1 19.5,19.5 v0 a19.5,19.5 0 0 1 -19.5,19.5 h-44 a19.5,19.5 0 0 1 -19.5,-19.5 v0 A19.5,19.5 0 0 1 616.711,224.711"/><g mask="url(#satori_om-id)" clip-path="url(#satori_cp-id)"><path fill="#e4e4e7" d="M637.7 244L636.4 244L640.1 233.8L641.6 233.8L645.3 244L643.9 244L642.9 241.2L638.7 241.2L637.7 244ZM639.1 240.0L642.5 240.0L641.8 238.0Q641.6 237.4 641.3 236.6L641.3 236.6Q641.1 235.9 640.8 234.9L640.8 234.9Q640.5 235.9 640.3 236.6L640.3 236.6Q640.0 237.4 639.8 238.0L639.8 238.0L639.1 240.0ZM650.3 244L648.8 244L646.0 233.8L647.3 233.8L649.0 240.1Q649.1 240.6 649.2 241.1Q649.3 241.6 649.4 242.1L649.4 242.1Q649.5 242.4 649.6 242.8L649.6 242.8Q649.6 242.4 649.7 242.1L649.7 242.1Q649.8 241.6 649.9 241.1Q650.0 240.6 650.2 240.1L650.2 240.1L651.8 233.8L653.3 233.8L654.9 240.1Q655.1 240.6 655.2 241.1Q655.3 241.6 655.4 242.1L655.4 242.1Q655.5 242.4 655.6 242.7L655.6 242.7Q655.6 242.4 655.7 242.1L655.7 242.1Q655.8 241.6 655.9 241.1Q656.0 240.6 656.2 240.1L656.2 240.1L657.8 233.8L659.1 233.8L656.3 244L654.8 244L653.0 237.5Q652.9 236.9 652.7 236.2L652.7 236.2Q652.6 235.8 652.5 235.3L652.5 235.3Q652.5 235.7 652.4 236.1L652.4 236.1Q652.2 236.8 652.1 237.5L652.1 237.5L650.3 244ZM663.9 244.2L663.9 244.2Q662.8 244.2 662.0 243.8Q661.2 243.5 660.8 242.8Q660.3 242.2 660.2 241.3L660.2 241.3L661.6 241.3Q661.6 241.9 662.0 242.3Q662.3 242.7 662.8 242.8Q663.4 243.0 663.9 243.0L663.9 243.0Q664.6 243.0 665.2 242.8Q665.7 242.6 666.1 242.2Q666.4 241.7 666.4 241.2L666.4 241.2Q666.4 240.7 666.1 240.4Q665.8 240.1 665.4 239.9Q664.9 239.7 664.4 239.5L664.4 239.5L663.1 239.2Q661.9 238.9 661.2 238.2Q660.5 237.6 660.5 236.5L660.5 236.5Q660.5 235.7 661.0 235.0Q661.5 234.4 662.3 234.0Q663.0 233.7 664.0 233.7L664.0 233.7Q665.0 233.7 665.8 234.0Q666.6 234.4 667.0 235.0Q667.5 235.6 667.5 236.4L667.5 236.4L666.2 236.4Q666.1 235.6 665.5 235.2Q664.9 234.8 664.0 234.8L664.0 234.8Q663.3 234.8 662.8 235.0Q662.3 235.3 662.1 235.6Q661.8 236.0 661.8 236.5L661.8 236.5Q661.8 237.0 662.1 237.3Q662.5 237.7 662.9 237.8Q663.4 238.0 663.7 238.1L663.7 238.1L664.8 238.4Q665.2 238.5 665.7 238.7Q666.2 238.9 666.6 239.2Q667.1 239.5 667.4 240.0Q667.6 240.5 667.6 241.2L667.6 241.2Q667.6 242.1 667.2 242.7Q666.8 243.4 665.9 243.8Q665.1 244.2 663.9 244.2Z "/></g><defs><clipPath id="satori_bc-id-3-10" clip-path="url(#satori_cp-id)"><path x="193" y="274" width="121" height="39" d="M212.5,274 h82 a19.5,19.5 0 0 1 19.5,19.5 v0 a19.5,19.5 0 0 1 -19.5,19.5 h-82 a19.5,19.5 0 0 1 -19.5,-19.5 v0 a19.5,19.5 0 0 1 19.5,-19.5"/></clipPath></defs><mask id="satori_om-id-3-10"><rect x="194" y="275" width="119" height="37" fill="#fff" mask="url(#satori_om-id)"/><path width="121" height="39" fill="none" stroke="#000" stroke-width="2" d="M198.711,279.711 A19.5,19.5 0 0 1 212.5,274 h82 a19.5,19.5 0 0 1 19.5,19.5 v0 a19.5,19.5 0 0 1 -19.5,19.5 h-82 a19.5,19.5 0 0 1 -19.5,-19.5 v0 A19.5,19.5 0 0 1 198.711,279.711"/></mask><path x="193" y="274" width="121" height="39" fill="#18181b" d="M212.5,274 h82 a19.5,19.5 0 0 1 19.5,19.5 v0 a19.5,19.5 0 0 1 -19.5,19.5 h-82 a19.5,19.5 0 0 1 -19.5,-19.5 v0 a19.5,19.5 0 0 1 19.5,-19.5" clip-path="url(#satori_cp-id)" mask="url(#satori_om-id)"/><path width="121" height="39" clip-path="url(#satori_bc-id-3-10)" fill="none" stroke="#27272a" stroke-width="2" d="M198.711,279.711 A19.5,19.5 0 0 1 212.5,274 h82 a19.5,19.5 0 0 1 19.5,19.5 v0 a19.5,19.5 0 0 1 -19.5,19.5 h-82 a19.5,19.5 0 0 1 -19.5,-19.5 v0 A19.5,19.5 0 0 1 198.711,279.711"/><g mask="url(#satori_om-id)" clip-path="url(#satori_cp-id)"><path fill="#e4e4e7" d="M225.2 299L219.2 299L219.2 288.8L220.5 288.8L220.5 297.9L225.2 297.9L225.2 299ZM229.1 299.2L229.1 299.2Q228.4 299.2 227.8 298.9Q227.2 298.6 226.9 298.1Q226.5 297.6 226.5 296.8L226.5 296.8Q226.5 296.2 226.8 295.8Q227.1 295.3 227.5 295.1Q227.9 294.9 228.4 294.8Q229.0 294.6 229.5 294.6L229.5 294.6Q230.2 294.5 230.6 294.4Q231.0 294.4 231.3 294.3Q231.5 294.2 231.5 293.9L231.5 293.9L231.5 293.8Q231.5 293.4 231.3 293.0Q231.1 292.7 230.8 292.5Q230.4 292.3 229.9 292.3L229.9 292.3Q229.3 292.3 228.9 292.5Q228.5 292.7 228.3 292.9Q228.1 293.2 227.9 293.5L227.9 293.5L226.8 293.1Q227.0 292.4 227.5 292.0Q228.0 291.6 228.6 291.4Q229.2 291.3 229.8 291.3L229.8 291.3Q230.2 291.3 230.7 291.4Q231.2 291.4 231.6 291.7Q232.1 292.0 232.4 292.5Q232.7 293.1 232.7 294.0L232.7 294.0L232.7 299L231.5 299L231.5 298.0L231.4 298.0Q231.3 298.2 231.0 298.5Q230.7 298.8 230.2 299.0Q229.8 299.2 229.1 299.2ZM229.3 298.1L229.3 298.1Q230.0 298.1 230.5 297.8Q231.0 297.6 231.2 297.1Q231.5 296.7 231.5 296.2L231.5 296.2L231.5 295.2Q231.4 295.3 231.1 295.3Q230.9 295.4 230.6 295.5Q230.2 295.5 229.9 295.6Q229.6 295.6 229.5 295.6L229.5 295.6Q229.0 295.7 228.6 295.8Q228.2 295.9 228.0 296.2Q227.8 296.5 227.8 296.9L227.8 296.9Q227.8 297.3 228.0 297.6Q228.2 297.8 228.5 298.0Q228.9 298.1 229.3 298.1ZM236.1 294.4L236.1 294.4L236.1 299L234.9 299L234.9 291.4L236.0 291.4L236.0 292.8Q236.4 292.1 236.9 291.7L236.9 291.7Q237.5 291.3 238.4 291.3L238.4 291.3Q239.2 291.3 239.7 291.6Q240.3 291.9 240.6 292.5Q241.0 293.2 241.0 294.1L241.0 294.1L241.0 299L239.7 299L239.7 294.2Q239.7 293.4 239.3 292.9Q238.8 292.4 238.0 292.4L238.0 292.4Q237.5 292.4 237.0 292.6Q236.6 292.8 236.3 293.3Q236.1 293.8 236.1 294.4ZM246.2 302.0L246.2 302.0Q245.4 302.0 244.8 301.8Q244.1 301.6 243.7 301.2Q243.3 300.9 243.1 300.5L243.1 300.5L244.1 299.8Q244.2 300.0 244.5 300.3Q244.7 300.6 245.1 300.8Q245.6 300.9 246.2 300.9L246.2 300.9Q247.1 300.9 247.7 300.5Q248.3 300.1 248.3 299.1L248.3 299.1L248.3 297.6L248.2 297.6Q248.1 297.8 247.8 298.1Q247.6 298.4 247.2 298.6Q246.7 298.9 246.0 298.9L246.0 298.9Q245.1 298.9 244.3 298.4Q243.6 298.0 243.2 297.2Q242.8 296.3 242.8 295.1L242.8 295.1Q242.8 294.0 243.2 293.1Q243.6 292.2 244.3 291.7Q245.1 291.3 246.0 291.3L246.0 291.3Q246.8 291.3 247.2 291.5Q247.6 291.7 247.9 292.1Q248.1 292.4 248.2 292.6L248.2 292.6L248.4 292.6L248.4 291.4L249.6 291.4L249.6 299.2Q249.6 300.2 249.1 300.8Q248.7 301.4 247.9 301.7Q247.2 302.0 246.2 302.0ZM246.2 297.8L246.2 297.8Q246.9 297.8 247.4 297.5Q247.8 297.1 248.1 296.5Q248.3 296.0 248.3 295.1L248.3 295.1Q248.3 294.3 248.1 293.7Q247.9 293.1 247.4 292.7Q246.9 292.4 246.2 292.4L246.2 292.4Q245.5 292.4 245.0 292.7Q244.5 293.1 244.3 293.7Q244.0 294.4 244.0 295.1L244.0 295.1Q244.0 295.9 244.3 296.5Q244.5 297.1 245.0 297.4Q245.5 297.8 246.2 297.8ZM256.0 299.1L256.0 299.1Q254.7 299.1 253.7 298.5Q252.6 297.9 252.1 296.7Q251.5 295.5 251.5 293.9L251.5 293.9Q251.5 292.3 252.1 291.1Q252.6 289.9 253.7 289.3Q254.7 288.7 256.0 288.7L256.0 288.7Q256.8 288.7 257.4 288.9Q258.1 289.1 258.7 289.6Q259.2 290.0 259.6 290.6Q260.0 291.2 260.1 292.0L260.1 292.0L258.8 292.0Q258.7 291.5 258.4 291.1Q258.2 290.7 257.8 290.4Q257.4 290.2 256.9 290.0Q256.5 289.9 256.0 289.9L256.0 289.9Q255.1 289.9 254.3 290.3Q253.6 290.8 253.2 291.7Q252.7 292.6 252.7 293.9L252.7 293.9Q252.7 295.2 253.2 296.1Q253.6 297.0 254.3 297.5Q255.1 297.9 256.0 297.9L256.0 297.9Q256.5 297.9 256.9 297.8Q257.4 297.7 257.8 297.4Q258.2 297.1 258.4 296.7Q258.7 296.3 258.8 295.8L258.8 295.8L260.1 295.8Q260.0 296.6 259.6 297.2Q259.2 297.8 258.7 298.2Q258.1 298.7 257.5 298.9Q256.8 299.1 256.0 299.1ZM263.2 294.4L263.2 294.4L263.2 299L261.9 299L261.9 288.8L263.2 288.8L263.2 292.7Q263.5 292.0 264.0 291.7L264.0 291.7Q264.6 291.3 265.5 291.3L265.5 291.3Q266.2 291.3 266.8 291.6Q267.4 291.9 267.7 292.5Q268.1 293.2 268.1 294.1L268.1 294.1L268.1 299L266.8 299L266.8 294.2Q266.8 293.4 266.4 292.9Q265.9 292.4 265.1 292.4L265.1 292.4Q264.6 292.4 264.1 292.6Q263.7 292.8 263.4 293.3Q263.2 293.8 263.2 294.4ZM272.4 299.2L272.4 299.2Q271.6 299.2 271.0 298.9Q270.5 298.6 270.1 298.1Q269.8 297.6 269.8 296.8L269.8 296.8Q269.8 296.2 270.0 295.8Q270.3 295.3 270.7 295.1Q271.1 294.9 271.7 294.8Q272.2 294.6 272.7 294.6L272.7 294.6Q273.4 294.5 273.8 294.4Q274.3 294.4 274.5 294.3Q274.7 294.2 274.7 293.9L274.7 293.9L274.7 293.8Q274.7 293.4 274.5 293.0Q274.3 292.7 274.0 292.5Q273.6 292.3 273.1 292.3L273.1 292.3Q272.5 292.3 272.2 292.5Q271.8 292.7 271.5 292.9Q271.3 293.2 271.2 293.5L271.2 293.5L270.0 293.1Q270.3 292.4 270.8 292.0Q271.3 291.6 271.9 291.4Q272.5 291.3 273.1 291.3L273.1 291.3Q273.4 291.3 273.9 291.4Q274.4 291.4 274.9 291.7Q275.3 292.0 275.6 292.5Q275.9 293.1 275.9 294.0L275.9 294.0L275.9 299L274.7 299L274.7 298.0L274.6 298.0Q274.5 298.2 274.2 298.5Q273.9 298.8 273.5 299.0Q273.0 299.2 272.4 299.2ZM272.6 298.1L272.6 298.1Q273.3 298.1 273.7 297.8Q274.2 297.6 274.4 297.1Q274.7 296.7 274.7 296.2L274.7 296.2L274.7 295.2Q274.6 295.3 274.4 295.3Q274.1 295.4 273.8 295.5Q273.5 295.5 273.2 295.6Q272.9 295.6 272.7 295.6L272.7 295.6Q272.2 295.7 271.8 295.8Q271.5 295.9 271.2 296.2Q271.0 296.5 271.0 296.9L271.0 296.9Q271.0 297.3 271.2 297.6Q271.4 297.8 271.8 298.0Q272.1 298.1 272.6 298.1ZM279.3 299L278.1 299L278.1 291.4L279.3 291.4L279.3 299ZM278.7 290.1L278.7 290.1Q278.4 290.1 278.1 289.9Q277.8 289.6 277.8 289.3L277.8 289.3Q277.8 289.0 278.1 288.7Q278.4 288.5 278.7 288.5L278.7 288.5Q279.1 288.5 279.3 288.7Q279.6 289.0 279.6 289.3L279.6 289.3Q279.6 289.6 279.3 289.9Q279.1 290.1 278.7 290.1ZM282.7 294.4L282.7 294.4L282.7 299L281.5 299L281.5 291.4L282.7 291.4L282.7 292.8Q283.0 292.1 283.5 291.7L283.5 291.7Q284.1 291.3 285.0 291.3L285.0 291.3Q285.8 291.3 286.4 291.6Q286.9 291.9 287.3 292.5Q287.6 293.2 287.6 294.1L287.6 294.1L287.6 299L286.4 299L286.4 294.2Q286.4 293.4 285.9 292.9Q285.4 292.4 284.6 292.4L284.6 292.4Q284.1 292.4 283.6 292.6Q283.2 292.8 283.0 293.3Q282.7 293.8 282.7 294.4Z "/></g><defs><clipPath id="satori_bc-id-3-11" clip-path="url(#satori_cp-id)"><path x="330" y="274" width="124" height="39" d="M349.5,274 h85 a19.5,19.5 0 0 1 19.5,19.5 v0 a19.5,19.5 0 0 1 -19.5,19.5 h-85 a19.5,19.5 0 0 1 -19.5,-19.5 v0 a19.5,19.5 0 0 1 19.5,-19.5"/></clipPath></defs><mask id="satori_om-id-3-11"><rect x="331" y="275" width="122" height="37" fill="#fff" mask="url(#satori_om-id)"/><path width="124" height="39" fill="none" stroke="#000" stroke-width="2" d="M335.711,279.711 A19.5,19.5 0 0 1 349.5,274 h85 a19.5,19.5 0 0 1 19.5,19.5 v0 a19.5,19.5 0 0 1 -19.5,19.5 h-85 a19.5,19.5 0 0 1 -19.5,-19.5 v0 A19.5,19.5 0 0 1 335.711,279.711"/></mask><path x="330" y="274" width="124" height="39" fill="#18181b" d="M349.5,274 h85 a19.5,19.5 0 0 1 19.5,19.5 v0 a19.5,19.5 0 0 1 -19.5,19.5 h-85 a19.5,19.5 0 0 1 -19.5,-19.5 v0 a19.5,19.5 0 0 1 19.5,-19.5" clip-path="url(#satori_cp-id)" mask="url(#satori_om-id)"/><path width="124" height="39" clip-path="url(#satori_bc-id-3-11)" fill="none" stroke="#27272a" stroke-width="2" d="M335.711,279.711 A19.5,19.5 0 0 1 349.5,274 h85 a19.5,19.5 0 0 1 19.5,19.5 v0 a19.5,19.5 0 0 1 -19.5,19.5 h-85 a19.5,19.5 0 0 1 -19.5,-19.5 v0 A19.5,19.5 0 0 1 335.711,279.711"/><g mask="url(#satori_om-id)" clip-path="url(#satori_cp-id)"><path fill="#e4e4e7" d="M362.2 299L356.2 299L356.2 288.8L357.5 288.8L357.5 297.9L362.2 297.9L362.2 299ZM366.1 299.2L366.1 299.2Q365.4 299.2 364.8 298.9Q364.2 298.6 363.9 298.1Q363.5 297.6 363.5 296.8L363.5 296.8Q363.5 296.2 363.8 295.8Q364.1 295.3 364.5 295.1Q364.9 294.9 365.4 294.8Q366.0 294.6 366.5 294.6L366.5 294.6Q367.2 294.5 367.6 294.4Q368.0 294.4 368.3 294.3Q368.5 294.2 368.5 293.9L368.5 293.9L368.5 293.8Q368.5 293.4 368.3 293.0Q368.1 292.7 367.8 292.5Q367.4 292.3 366.9 292.3L366.9 292.3Q366.3 292.3 365.9 292.5Q365.5 292.7 365.3 292.9Q365.1 293.2 364.9 293.5L364.9 293.5L363.8 293.1Q364.0 292.4 364.5 292.0Q365.0 291.6 365.6 291.4Q366.2 291.3 366.8 291.3L366.8 291.3Q367.2 291.3 367.7 291.4Q368.2 291.4 368.6 291.7Q369.1 292.0 369.4 292.5Q369.7 293.1 369.7 294.0L369.7 294.0L369.7 299L368.5 299L368.5 298.0L368.4 298.0Q368.3 298.2 368.0 298.5Q367.7 298.8 367.2 299.0Q366.8 299.2 366.1 299.2ZM366.3 298.1L366.3 298.1Q367.0 298.1 367.5 297.8Q368.0 297.6 368.2 297.1Q368.5 296.7 368.5 296.2L368.5 296.2L368.5 295.2Q368.4 295.3 368.1 295.3Q367.9 295.4 367.6 295.5Q367.2 295.5 366.9 295.6Q366.6 295.6 366.5 295.6L366.5 295.6Q366.0 295.7 365.6 295.8Q365.2 295.9 365.0 296.2Q364.8 296.5 364.8 296.9L364.8 296.9Q364.8 297.3 365.0 297.6Q365.2 297.8 365.5 298.0Q365.9 298.1 366.3 298.1ZM373.1 294.4L373.1 294.4L373.1 299L371.9 299L371.9 291.4L373.0 291.4L373.0 292.8Q373.4 292.1 373.9 291.7L373.9 291.7Q374.5 291.3 375.4 291.3L375.4 291.3Q376.2 291.3 376.7 291.6Q377.3 291.9 377.6 292.5Q378.0 293.2 378.0 294.1L378.0 294.1L378.0 299L376.7 299L376.7 294.2Q376.7 293.4 376.3 292.9Q375.8 292.4 375.0 292.4L375.0 292.4Q374.5 292.4 374.0 292.6Q373.6 292.8 373.3 293.3Q373.1 293.8 373.1 294.4ZM383.2 302.0L383.2 302.0Q382.4 302.0 381.8 301.8Q381.1 301.6 380.7 301.2Q380.3 300.9 380.1 300.5L380.1 300.5L381.1 299.8Q381.2 300.0 381.5 300.3Q381.7 300.6 382.1 300.8Q382.6 300.9 383.2 300.9L383.2 300.9Q384.1 300.9 384.7 300.5Q385.3 300.1 385.3 299.1L385.3 299.1L385.3 297.6L385.2 297.6Q385.1 297.8 384.8 298.1Q384.6 298.4 384.2 298.6Q383.7 298.9 383.0 298.9L383.0 298.9Q382.1 298.9 381.3 298.4Q380.6 298.0 380.2 297.2Q379.8 296.3 379.8 295.1L379.8 295.1Q379.8 294.0 380.2 293.1Q380.6 292.2 381.3 291.7Q382.1 291.3 383.0 291.3L383.0 291.3Q383.8 291.3 384.2 291.5Q384.6 291.7 384.9 292.1Q385.1 292.4 385.2 292.6L385.2 292.6L385.4 292.6L385.4 291.4L386.6 291.4L386.6 299.2Q386.6 300.2 386.1 300.8Q385.7 301.4 384.9 301.7Q384.2 302.0 383.2 302.0ZM383.2 297.8L383.2 297.8Q383.9 297.8 384.4 297.5Q384.8 297.1 385.1 296.5Q385.3 296.0 385.3 295.1L385.3 295.1Q385.3 294.3 385.1 293.7Q384.9 293.1 384.4 292.7Q383.9 292.4 383.2 292.4L383.2 292.4Q382.5 292.4 382.0 292.7Q381.5 293.1 381.3 293.7Q381.0 294.4 381.0 295.1L381.0 295.1Q381.0 295.9 381.3 296.5Q381.5 297.1 382.0 297.4Q382.5 297.8 383.2 297.8ZM393.0 299.1L393.0 299.1Q391.7 299.1 390.6 298.5Q389.6 297.9 389.0 296.7Q388.5 295.5 388.5 293.9L388.5 293.9Q388.5 292.3 389.0 291.1Q389.6 289.9 390.6 289.3Q391.6 288.7 392.9 288.7L392.9 288.7Q393.8 288.7 394.5 288.9Q395.2 289.2 395.7 289.6Q396.3 290.0 396.6 290.7Q397.0 291.3 397.1 292.0L397.1 292.0L395.8 292.0Q395.6 291.5 395.4 291.1Q395.1 290.7 394.8 290.5Q394.4 290.2 393.9 290.0Q393.5 289.9 393.0 289.9L393.0 289.9Q392.1 289.9 391.3 290.3Q390.6 290.8 390.2 291.7Q389.7 292.6 389.7 293.9L389.7 293.9Q389.7 295.2 390.2 296.1Q390.6 297.0 391.3 297.5Q392.1 297.9 393.0 297.9L393.0 297.9Q393.9 297.9 394.5 297.6Q395.2 297.2 395.6 296.5L395.6 296.5Q395.9 295.9 395.9 295.0L395.9 295.0L393.3 295.0L393.3 293.9L397.2 293.9L397.2 295.0Q397.2 296.3 396.7 297.2Q396.1 298.1 395.2 298.6Q394.2 299.1 393.0 299.1ZM400.4 299L399.2 299L399.2 291.4L400.3 291.4L400.3 292.5L400.4 292.5Q400.6 292.0 401.2 291.6Q401.7 291.2 402.4 291.2L402.4 291.2Q402.6 291.2 402.7 291.3Q402.9 291.3 403.0 291.3L403.0 291.3L403.0 292.5Q403.0 292.5 402.8 292.5Q402.5 292.4 402.3 292.4L402.3 292.4Q401.8 292.4 401.3 292.7Q400.9 292.9 400.6 293.3Q400.4 293.7 400.4 294.2L400.4 294.2L400.4 299ZM406.6 299.2L406.6 299.2Q405.8 299.2 405.3 298.9Q404.7 298.6 404.3 298.1Q404.0 297.6 404.0 296.8L404.0 296.8Q404.0 296.2 404.2 295.8Q404.5 295.3 404.9 295.1Q405.4 294.9 405.9 294.8Q406.4 294.6 406.9 294.6L406.9 294.6Q407.6 294.5 408.1 294.4Q408.5 294.4 408.7 294.3Q408.9 294.2 408.9 293.9L408.9 293.9L408.9 293.8Q408.9 293.4 408.7 293.0Q408.5 292.7 408.2 292.5Q407.8 292.3 407.3 292.3L407.3 292.3Q406.8 292.3 406.4 292.5Q406.0 292.7 405.7 292.9Q405.5 293.2 405.4 293.5L405.4 293.5L404.2 293.1Q404.5 292.4 405.0 292.0Q405.5 291.6 406.1 291.4Q406.7 291.3 407.3 291.3L407.3 291.3Q407.7 291.3 408.1 291.4Q408.6 291.4 409.1 291.7Q409.5 292.0 409.8 292.5Q410.1 293.1 410.1 294.0L410.1 294.0L410.1 299L408.9 299L408.9 298.0L408.8 298.0Q408.7 298.2 408.4 298.5Q408.1 298.8 407.7 299.0Q407.2 299.2 406.6 299.2ZM406.8 298.1L406.8 298.1Q407.5 298.1 407.9 297.8Q408.4 297.6 408.7 297.1Q408.9 296.7 408.9 296.2L408.9 296.2L408.9 295.2Q408.8 295.3 408.6 295.3Q408.3 295.4 408.0 295.5Q407.7 295.5 407.4 295.6Q407.1 295.6 406.9 295.6L406.9 295.6Q406.4 295.7 406.1 295.8Q405.7 295.9 405.4 296.2Q405.2 296.5 405.2 296.9L405.2 296.9Q405.2 297.3 405.4 297.6Q405.6 297.8 406.0 298.0Q406.3 298.1 406.8 298.1ZM413.5 301.9L412.3 301.9L412.3 291.4L413.5 291.4L413.5 292.6L413.6 292.6Q413.7 292.4 414.0 292.1Q414.2 291.8 414.7 291.5Q415.1 291.3 415.8 291.3L415.8 291.3Q416.8 291.3 417.5 291.7Q418.2 292.2 418.7 293.1Q419.1 294.0 419.1 295.2L419.1 295.2Q419.1 296.4 418.7 297.3Q418.3 298.2 417.5 298.7Q416.8 299.2 415.8 299.2L415.8 299.2Q415.1 299.2 414.7 298.9Q414.2 298.7 414.0 298.3Q413.7 298.0 413.6 297.8L413.6 297.8L413.5 297.8L413.5 301.9ZM415.7 298.1L415.7 298.1Q416.4 298.1 416.9 297.7Q417.3 297.3 417.6 296.6Q417.8 296.0 417.8 295.2L417.8 295.2Q417.8 294.4 417.6 293.8Q417.3 293.1 416.9 292.7Q416.4 292.4 415.7 292.4L415.7 292.4Q415.0 292.4 414.5 292.7Q414.0 293.1 413.8 293.7Q413.5 294.3 413.5 295.2L413.5 295.2Q413.5 296.0 413.8 296.7Q414.0 297.3 414.5 297.7Q415.0 298.1 415.7 298.1ZM422.1 294.4L422.1 294.4L422.1 299L420.9 299L420.9 288.8L422.1 288.8L422.1 292.7Q422.4 292.0 422.9 291.7L422.9 291.7Q423.5 291.3 424.4 291.3L424.4 291.3Q425.2 291.3 425.7 291.6Q426.3 291.9 426.7 292.5Q427.0 293.2 427.0 294.1L427.0 294.1L427.0 299L425.7 299L425.7 294.2Q425.7 293.4 425.3 292.9Q424.8 292.4 424.0 292.4L424.0 292.4Q423.5 292.4 423.0 292.6Q422.6 292.8 422.3 293.3Q422.1 293.8 422.1 294.4Z "/></g><defs><clipPath id="satori_bc-id-3-12" clip-path="url(#satori_cp-id)"><path x="470" y="274" width="138" height="39" d="M489.5,274 h99 a19.5,19.5 0 0 1 19.5,19.5 v0 a19.5,19.5 0 0 1 -19.5,19.5 h-99 a19.5,19.5 0 0 1 -19.5,-19.5 v0 a19.5,19.5 0 0 1 19.5,-19.5"/></clipPath></defs><mask id="satori_om-id-3-12"><rect x="471" y="275" width="136" height="37" fill="#fff" mask="url(#satori_om-id)"/><path width="138" height="39" fill="none" stroke="#000" stroke-width="2" d="M475.711,279.711 A19.5,19.5 0 0 1 489.5,274 h99 a19.5,19.5 0 0 1 19.5,19.5 v0 a19.5,19.5 0 0 1 -19.5,19.5 h-99 a19.5,19.5 0 0 1 -19.5,-19.5 v0 A19.5,19.5 0 0 1 475.711,279.711"/></mask><path x="470" y="274" width="138" height="39" fill="#18181b" d="M489.5,274 h99 a19.5,19.5 0 0 1 19.5,19.5 v0 a19.5,19.5 0 0 1 -19.5,19.5 h-99 a19.5,19.5 0 0 1 -19.5,-19.5 v0 a19.5,19.5 0 0 1 19.5,-19.5" clip-path="url(#satori_cp-id)" mask="url(#satori_om-id)"/><path width="138" height="39" clip-path="url(#satori_bc-id-3-12)" fill="none" stroke="#27272a" stroke-width="2" d="M475.711,279.711 A19.5,19.5 0 0 1 489.5,274 h99 a19.5,19.5 0 0 1 19.5,19.5 v0 a19.5,19.5 0 0 1 -19.5,19.5 h-99 a19.5,19.5 0 0 1 -19.5,-19.5 v0 A19.5,19.5 0 0 1 475.711,279.711"/><g mask="url(#satori_om-id)" clip-path="url(#satori_cp-id)"><path fill="#e4e4e7" d="M498.9 290.0L495.7 290.0L495.7 288.8L503.4 288.8L503.4 290.0L500.2 290.0L500.2 299L498.9 299L498.9 290.0ZM507.3 299.2L507.3 299.2Q506.5 299.2 505.9 298.9Q505.3 298.6 505.0 298.1Q504.7 297.6 504.7 296.8L504.7 296.8Q504.7 296.2 504.9 295.8Q505.2 295.3 505.6 295.1Q506.0 294.9 506.6 294.8Q507.1 294.6 507.6 294.6L507.6 294.6Q508.3 294.5 508.7 294.4Q509.2 294.4 509.4 294.3Q509.6 294.2 509.6 293.9L509.6 293.9L509.6 293.8Q509.6 293.4 509.4 293.0Q509.2 292.7 508.9 292.5Q508.5 292.3 508.0 292.3L508.0 292.3Q507.4 292.3 507.1 292.5Q506.7 292.7 506.4 292.9Q506.2 293.2 506.1 293.5L506.1 293.5L504.9 293.1Q505.2 292.4 505.7 292.0Q506.2 291.6 506.8 291.4Q507.4 291.3 508.0 291.3L508.0 291.3Q508.3 291.3 508.8 291.4Q509.3 291.4 509.8 291.7Q510.2 292.0 510.5 292.5Q510.8 293.1 510.8 294.0L510.8 294.0L510.8 299L509.6 299L509.6 298.0L509.5 298.0Q509.4 298.2 509.1 298.5Q508.8 298.8 508.4 299.0Q507.9 299.2 507.3 299.2ZM507.5 298.1L507.5 298.1Q508.2 298.1 508.6 297.8Q509.1 297.6 509.3 297.1Q509.6 296.7 509.6 296.2L509.6 296.2L509.6 295.2Q509.5 295.3 509.3 295.3Q509.0 295.4 508.7 295.5Q508.4 295.5 508.1 295.6Q507.7 295.6 507.6 295.6L507.6 295.6Q507.1 295.7 506.7 295.8Q506.4 295.9 506.1 296.2Q505.9 296.5 505.9 296.9L505.9 296.9Q505.9 297.3 506.1 297.6Q506.3 297.8 506.7 298.0Q507.0 298.1 507.5 298.1ZM514.2 299L513.0 299L513.0 291.4L514.2 291.4L514.2 299ZM513.6 290.1L513.6 290.1Q513.3 290.1 513.0 289.9Q512.7 289.6 512.7 289.3L512.7 289.3Q512.7 289.0 513.0 288.7Q513.3 288.5 513.6 288.5L513.6 288.5Q514.0 288.5 514.2 288.7Q514.5 289.0 514.5 289.3L514.5 289.3Q514.5 289.6 514.2 289.9Q514.0 290.1 513.6 290.1ZM516.4 288.8L517.6 288.8L517.6 299L516.4 299L516.4 288.8ZM522.7 299L521.5 299L519.2 291.4L520.5 291.4L521.4 294.7Q521.6 295.4 521.8 296.2L521.8 296.2Q522.0 296.9 522.1 297.7L522.1 297.7Q522.3 296.9 522.4 296.3L522.4 296.3Q522.7 295.4 522.8 294.7L522.8 294.7L523.8 291.4L525.1 291.4L526.0 294.7Q526.2 295.4 526.4 296.3L526.4 296.3Q526.5 296.9 526.7 297.7L526.7 297.7Q526.8 296.9 527.0 296.3L527.0 296.3Q527.2 295.4 527.4 294.7L527.4 294.7L528.4 291.4L529.7 291.4L527.3 299L526.1 299L525.1 295.5Q525.0 295.0 524.8 294.5Q524.7 293.9 524.6 293.3L524.6 293.3Q524.5 293.1 524.4 292.8L524.4 292.8Q524.3 293.0 524.3 293.3L524.3 293.3Q524.1 293.9 524.0 294.5Q523.8 295.0 523.7 295.5L523.7 295.5L522.7 299ZM532.4 299L531.2 299L531.2 291.4L532.4 291.4L532.4 299ZM531.8 290.1L531.8 290.1Q531.5 290.1 531.2 289.9Q531.0 289.6 531.0 289.3L531.0 289.3Q531.0 289.0 531.2 288.7Q531.5 288.5 531.8 288.5L531.8 288.5Q532.2 288.5 532.4 288.7Q532.7 289.0 532.7 289.3L532.7 289.3Q532.7 289.6 532.4 289.9Q532.2 290.1 531.8 290.1ZM535.8 294.4L535.8 294.4L535.8 299L534.6 299L534.6 291.4L535.8 291.4L535.8 292.8Q536.1 292.1 536.6 291.7L536.6 291.7Q537.3 291.3 538.1 291.3L538.1 291.3Q538.9 291.3 539.5 291.6Q540.1 291.9 540.4 292.5Q540.7 293.2 540.7 294.1L540.7 294.1L540.7 299L539.5 299L539.5 294.2Q539.5 293.4 539.0 292.9Q538.6 292.4 537.8 292.4L537.8 292.4Q537.2 292.4 536.8 292.6Q536.3 292.8 536.1 293.3Q535.8 293.8 535.8 294.4ZM545.7 299.2L545.7 299.2Q544.8 299.2 544.1 298.7Q543.3 298.2 542.9 297.3Q542.5 296.4 542.5 295.2L542.5 295.2Q542.5 294.0 542.9 293.1Q543.3 292.2 544.1 291.7Q544.8 291.3 545.8 291.3L545.8 291.3Q546.5 291.3 546.9 291.5Q547.4 291.8 547.6 292.1Q547.8 292.4 548.0 292.6L548.0 292.6L548.1 292.6L548.1 288.8L549.3 288.8L549.3 299L548.1 299L548.1 297.8L548.0 297.8Q547.8 298.0 547.6 298.3Q547.4 298.7 546.9 298.9Q546.5 299.2 545.7 299.2ZM545.9 298.1L545.9 298.1Q546.6 298.1 547.1 297.7Q547.6 297.3 547.8 296.7Q548.1 296.0 548.1 295.2L548.1 295.2Q548.1 294.3 547.8 293.7Q547.6 293.1 547.1 292.7Q546.6 292.4 545.9 292.4L545.9 292.4Q545.2 292.4 544.7 292.7Q544.2 293.1 544 293.8Q543.8 294.4 543.8 295.2L543.8 295.2Q543.8 296.0 544.0 296.6Q544.2 297.3 544.7 297.7Q545.2 298.1 545.9 298.1Z M559.7 299.1L559.7 299.1Q558.4 299.1 557.3 298.5Q556.3 297.9 555.7 296.7Q555.1 295.5 555.1 293.9L555.1 293.9Q555.1 292.3 555.7 291.1Q556.3 289.9 557.3 289.3Q558.4 288.7 559.7 288.7L559.7 288.7Q560.4 288.7 561.1 288.9Q561.8 289.1 562.4 289.6Q562.9 290.0 563.3 290.6Q563.6 291.2 563.8 292.0L563.8 292.0L562.5 292.0Q562.4 291.5 562.1 291.1Q561.8 290.7 561.5 290.4Q561.1 290.2 560.6 290.0Q560.2 289.9 559.7 289.9L559.7 289.9Q558.7 289.9 558.0 290.3Q557.3 290.8 556.8 291.7Q556.4 292.6 556.4 293.9L556.4 293.9Q556.4 295.2 556.8 296.1Q557.3 297.0 558.0 297.5Q558.8 297.9 559.7 297.9L559.7 297.9Q560.2 297.9 560.6 297.8Q561.1 297.7 561.5 297.4Q561.8 297.1 562.1 296.7Q562.4 296.3 562.5 295.8L562.5 295.8L563.8 295.8Q563.6 296.6 563.3 297.2Q562.9 297.8 562.4 298.2Q561.8 298.7 561.1 298.9Q560.4 299.1 559.7 299.1ZM569.0 299.2L569.0 299.2Q567.9 299.2 567.1 298.8Q566.3 298.5 565.8 297.8Q565.4 297.2 565.3 296.3L565.3 296.3L566.7 296.3Q566.7 296.9 567.1 297.3Q567.4 297.7 567.9 297.8Q568.4 298.0 569.0 298.0L569.0 298.0Q569.7 298.0 570.3 297.8Q570.8 297.6 571.1 297.2Q571.5 296.7 571.5 296.2L571.5 296.2Q571.5 295.7 571.2 295.4Q570.9 295.1 570.4 294.9Q570.0 294.7 569.4 294.5L569.4 294.5L568.2 294.2Q567.0 293.9 566.3 293.2Q565.6 292.6 565.6 291.5L565.6 291.5Q565.6 290.7 566.1 290.0Q566.5 289.4 567.3 289.0Q568.1 288.7 569.1 288.7L569.1 288.7Q570.1 288.7 570.9 289.0Q571.7 289.4 572.1 290.0Q572.6 290.6 572.6 291.4L572.6 291.4L571.3 291.4Q571.2 290.6 570.6 290.2Q570.0 289.8 569.1 289.8L569.1 289.8Q568.4 289.8 567.9 290.0Q567.4 290.3 567.2 290.6Q566.9 291.0 566.9 291.5L566.9 291.5Q566.9 292.0 567.2 292.3Q567.5 292.7 568.0 292.8Q568.5 293.0 568.8 293.1L568.8 293.1L569.8 293.4Q570.3 293.5 570.7 293.7Q571.2 293.9 571.7 294.2Q572.1 294.5 572.4 295.0Q572.7 295.5 572.7 296.2L572.7 296.2Q572.7 297.1 572.3 297.7Q571.9 298.4 571.0 298.8Q570.2 299.2 569.0 299.2ZM578.0 299.2L578.0 299.2Q576.9 299.2 576.1 298.8Q575.3 298.5 574.8 297.8Q574.4 297.2 574.3 296.3L574.3 296.3L575.6 296.3Q575.7 296.9 576.0 297.3Q576.4 297.7 576.9 297.8Q577.4 298.0 578.0 298.0L578.0 298.0Q578.7 298.0 579.2 297.8Q579.8 297.6 580.1 297.2Q580.4 296.7 580.4 296.2L580.4 296.2Q580.4 295.7 580.2 295.4Q579.9 295.1 579.4 294.9Q579.0 294.7 578.4 294.5L578.4 294.5L577.2 294.2Q576.0 293.9 575.3 293.2Q574.6 292.6 574.6 291.5L574.6 291.5Q574.6 290.7 575.1 290.0Q575.5 289.4 576.3 289.0Q577.1 288.7 578.1 288.7L578.1 288.7Q579.1 288.7 579.9 289.0Q580.6 289.4 581.1 290.0Q581.5 290.6 581.6 291.4L581.6 291.4L580.3 291.4Q580.2 290.6 579.6 290.2Q579.0 289.8 578.1 289.8L578.1 289.8Q577.4 289.8 576.9 290.0Q576.4 290.3 576.1 290.6Q575.9 291.0 575.9 291.5L575.9 291.5Q575.9 292.0 576.2 292.3Q576.5 292.7 577.0 292.8Q577.4 293.0 577.8 293.1L577.8 293.1L578.8 293.4Q579.2 293.5 579.7 293.7Q580.2 293.9 580.7 294.2Q581.1 294.5 581.4 295.0Q581.7 295.5 581.7 296.2L581.7 296.2Q581.7 297.1 581.3 297.7Q580.8 298.4 580.0 298.8Q579.2 299.2 578.0 299.2Z "/></g></svg>