<!-- Generated by readme-aura https://github.com/collectioneur/readme-aura -->
<svg width="800" height="260" viewBox="0 0 800 260" xmlns="http://www.w3.org/2000/svg"><defs><clipPath id="satori_bc-id"><path x="0" y="0" width="800" height="260" d="M24,0 h752 a24,24 0 0 1 24,24 v212 a24,24 0 0 1 -24,24 h-752 a24,24 0 0 1 -24,-24 v-212 a24,24 0 0 1 24,-24"/></clipPath></defs><clipPath id="satori_cp-id"><path x="0" y="0" width="800" height="260" d="M24,0 h752 a24,24 0 0 1 24,24 v212 a24,24 0 0 1 -24,24 h-752 a24,24 0 0 1 -24,-24 v-212 a24,24 0 0 1 24,-24"/></clipPath><mask id="satori_om-id"><rect x="1" y="1" width="798" height="258" fill="#fff"/><path width="800" height="260" fill="none" stroke="#000" stroke-width="2" d="M7.029,7.029 A24,24 0 0 1 24,0 h752 a24,24 0 0 1 24,24 v212 a24,24 0 0 1 -24,24 h-752 a24,24 0 0 1 -24,-24 v-212 A24,24 0 0 1 7.029,7.029"/></mask><path x="0" y="0" width="800" height="260" fill="#09090b" d="M24,0 h752 a24,24 0 0 1 24,24 v212 a24,24 0 0 1 -24,24 h-752 a24,24 0 0 1 -24,-24 v-212 a24,24 0 0 1 24,-24"/><path width="800" height="260" clip-path="url(#satori_bc-id)" fill="none" stroke="#27272a" stroke-width="2" d="M7.029,7.029 A24,24 0 0 1 24,0 h752 a24,24 0 0 1 24,24 v212 a24,24 0 0 1 -24,24 h-752 a24,24 0 0 1 -24,-24 v-212 A24,24 0 0 1 7.029,7.029"/><defs><pattern id="satori_pattern_id-0_0" x="0" y="0" width="1" height="1" patternUnits="objectBoundingBox"><radialGradient id="satori_radial_id-0_0" spreadMethod="pad"><stop offset="0" stop-color="rgba(16, 185, 129, 0.15)"/><stop offset="0.7" stop-color="rgba(0,0,0,0)"/><stop offset="1" stop-color="rgba(0,0,0,0)"/></radialGradient><mask id="satori_mask_id-0_0"><rect x="0" y="0" width="600" height="250" fill="#fff"/></mask><rect x="0" y="0" width="600" height="250" fill="rgba(0,0,0,0)"/><circle cx="300" cy="125" width="600" height="250" r="325" fill="url(#satori_radial_id-0_0)" mask="url(#satori_mask_id-0_0)"/></pattern></defs><mask id="satori_om-id-0"><rect x="161" y="109" width="600" height="250" fill="#fff" mask="url(#satori_om-id)"/></mask><rect x="161" y="109" width="600" height="250" fill="url(#satori_pattern_id-0_0)" clip-path="url(#satori_cp-id)" mask="url(#satori_om-id)"/><defs><pattern id="satori_pattern_id-1_0" x="0" y="0" width="1" height="1" patternUnits="objectBoundingBox"><radialGradient id="satori_radial_id-1_0" spreadMethod="pad"><stop offset="0" stop-color="rgba(139, 92, 246, 0.15)"/><stop offset="0.7" stop-color="rgba(0,0,0,0)"/><stop offset="1" stop-color="rgba(0,0,0,0)"/></radialGradient><mask id="satori_mask_id-1_0"><rect x="0" y="0" width="300" height="300" fill="#fff"/></mask><rect x="0" y="0" width="300" height="300" fill="rgba(0,0,0,0)"/><circle cx="150" cy="150" width="300" height="300" r="212.13203435596427" fill="url(#satori_radial_id-1_0)" mask="url(#satori_mask_id-1_0)"/></pattern></defs><mask id="satori_om-id-1"><rect x="549" y="-49" width="300" height="300" fill="#fff" mask="url(#satori_om-id)"/></mask><rect x="549" y="-49" width="300" height="300" fill="url(#satori_pattern_id-1_0)" clip-path="url(#satori_cp-id)" mask="url(#satori_om-id)"/><mask id="satori_om-id-2"><rect x="41" y="33" width="718" height="17" fill="#fff" mask="url(#satori_om-id)"/></mask><g mask="url(#satori_om-id)" clip-path="url(#satori_cp-id)"><path fill="#52525b" d="M44.6 38.5L41.5 38.5L41.5 36.8L49.8 36.8L49.8 38.5L46.7 38.5L46.7 47L44.6 47L44.6 38.5ZM60.1 47L53.3 47L53.3 36.8L60.1 36.8L60.1 38.5L55.4 38.5L55.4 41.0L59.7 41.0L59.7 42.7L55.4 42.7L55.4 45.3L60.1 45.3L60.1 47ZM68.2 47.1L68.2 47.1Q66.9 47.1 65.8 46.5Q64.7 45.9 64.1 44.7Q63.5 43.6 63.5 41.9L63.5 41.9Q63.5 40.3 64.1 39.1Q64.7 37.9 65.8 37.3Q66.9 36.7 68.2 36.7L68.2 36.7Q69.1 36.7 69.8 36.9Q70.6 37.2 71.2 37.6Q71.7 38.1 72.1 38.8Q72.5 39.4 72.6 40.3L72.6 40.3L70.5 40.3Q70.4 39.9 70.2 39.6Q70.0 39.2 69.7 39.0Q69.5 38.8 69.1 38.6Q68.7 38.5 68.3 38.5L68.3 38.5Q67.5 38.5 66.9 38.9Q66.3 39.3 65.9 40.1Q65.6 40.8 65.6 41.9L65.6 41.9Q65.6 43.0 65.9 43.8Q66.3 44.5 66.9 44.9Q67.5 45.3 68.3 45.3L68.3 45.3Q68.7 45.3 69.1 45.2Q69.4 45.0 69.7 44.8Q70.0 44.6 70.2 44.3Q70.4 43.9 70.5 43.5L70.5 43.5L72.6 43.5Q72.5 44.2 72.2 44.9Q71.9 45.5 71.3 46.0Q70.7 46.5 70.0 46.8Q69.2 47.1 68.2 47.1ZM78.2 47L76.1 47L76.1 36.8L78.2 36.8L78.2 40.9L82.6 40.9L82.6 36.8L84.7 36.8L84.7 47L82.6 47L82.6 42.7L78.2 42.7L78.2 47Z M97.6 47.2L97.6 47.2Q96.4 47.2 95.5 46.8Q94.6 46.4 94.1 45.7Q93.6 44.9 93.6 43.8L93.6 43.8L95.6 43.8Q95.6 44.4 95.9 44.7Q96.2 45.0 96.6 45.2Q97.1 45.4 97.6 45.4L97.6 45.4Q98.2 45.4 98.6 45.2Q99.0 45.1 99.2 44.8Q99.5 44.5 99.5 44.1L99.5 44.1Q99.5 43.7 99.3 43.5Q99.0 43.3 98.7 43.1Q98.3 42.9 97.7 42.8L97.7 42.8L96.6 42.5Q95.3 42.2 94.6 41.5Q93.8 40.9 93.8 39.7L93.8 39.7Q93.8 38.8 94.3 38.1Q94.8 37.4 95.7 37.1Q96.6 36.7 97.7 36.7L97.7 36.7Q98.8 36.7 99.6 37.1Q100.5 37.5 100.9 38.1Q101.4 38.8 101.4 39.7L101.4 39.7L99.4 39.7Q99.4 39.1 98.9 38.8Q98.4 38.4 97.6 38.4L97.6 38.4Q97.1 38.4 96.7 38.6Q96.4 38.7 96.2 39.0Q96.0 39.3 96.0 39.6L96.0 39.6Q96.0 40.0 96.2 40.2Q96.4 40.5 96.8 40.6Q97.2 40.8 97.6 40.9L97.6 40.9L98.5 41.1Q99.2 41.3 99.7 41.5Q100.3 41.8 100.7 42.1Q101.1 42.5 101.3 43.0Q101.6 43.5 101.6 44.1L101.6 44.1Q101.6 45.0 101.1 45.7Q100.6 46.4 99.8 46.8Q98.9 47.2 97.6 47.2ZM107.8 38.5L104.7 38.5L104.7 36.8L113.0 36.8L113.0 38.5L109.9 38.5L109.9 47L107.8 47L107.8 38.5ZM118.1 47L115.8 47L119.3 36.8L122.0 36.8L125.6 47L123.3 47L122.5 44.6L118.9 44.6L118.1 47ZM119.4 43.0L122.0 43.0L121.7 42.1Q121.4 41.1 121.1 40L121.1 40Q120.9 39.3 120.7 38.5L120.7 38.5Q120.4 39.3 120.3 40.0L120.3 40.0Q120.0 41.2 119.7 42.1L119.7 42.1L119.4 43.0ZM133.3 47.1L133.3 47.1Q132.0 47.1 130.9 46.5Q129.8 45.9 129.2 44.7Q128.6 43.6 128.6 41.9L128.6 41.9Q128.6 40.3 129.2 39.1Q129.8 37.9 130.9 37.3Q132.0 36.7 133.3 36.7L133.3 36.7Q134.2 36.7 134.9 36.9Q135.7 37.2 136.3 37.6Q136.8 38.1 137.2 38.8Q137.6 39.4 137.7 40.3L137.7 40.3L135.6 40.3Q135.5 39.9 135.3 39.6Q135.1 39.2 134.8 39.0Q134.5 38.8 134.2 38.6Q133.8 38.5 133.4 38.5L133.4 38.5Q132.6 38.5 132.0 38.9Q131.4 39.3 131.0 40.1Q130.7 40.8 130.7 41.9L130.7 41.9Q130.7 43.0 131.0 43.8Q131.4 44.5 132.0 44.9Q132.6 45.3 133.4 45.3L133.4 45.3Q133.8 45.3 134.2 45.2Q134.5 45.0 134.8 44.8Q135.1 44.6 135.3 44.3Q135.5 43.9 135.6 43.5L135.6 43.5L137.7 43.5Q137.6 44.2 137.3 44.9Q136.9 45.5 136.4 46.0Q135.8 46.5 135.1 46.8Q134.3 47.1 133.3 47.1ZM143.3 47L141.2 47L141.2 36.8L143.3 36.8L143.3 39.6L143.3 41.9Q143.3 41.8 143.4 41.8L143.4 41.8Q143.7 41.3 144.0 40.8Q144.4 40.3 144.9 39.7L144.9 39.7L147.4 36.8L149.9 36.8L146.1 41.2L150.0 47L147.6 47L144.7 42.6L143.3 44.1L143.3 47Z "/></g><mask id="satori_om-id-3"><rect x="41" y="74" width="718" height="31" fill="#fff" mask="url(#satori_om-id)"/></mask><mask id="satori_om-id-3-0"><rect x="41" y="81" width="120" height="17" fill="#fff" mask="url(#satori_om-id)"/></mask><g mask="url(#satori_om-id)" clip-path="url(#satori_cp-id)"><path fill="#60a5fa" d="M43.6 95L41.3 95L44.8 84.8L47.5 84.8L51.1 95L48.8 95L48.0 92.6L44.4 92.6L43.6 95ZM44.9 91.0L47.5 91.0L47.2 90.1Q46.9 89.1 46.6 88L46.6 88Q46.4 87.3 46.2 86.5L46.2 86.5Q46.0 87.3 45.8 88.0L45.8 88.0Q45.5 89.2 45.2 90.1L45.2 90.1L44.9 91.0ZM52.4 84.8L54.5 84.8L54.5 95L52.4 95L52.4 84.8Z M62.2 84.3L63.9 84.3L60.7 96.5L58.9 96.5L62.2 84.3Z M70.4 95L68.4 95L68.4 84.8L71.6 84.8L73.2 89.5Q73.3 89.8 73.5 90.3Q73.6 90.9 73.7 91.5L73.7 91.5Q73.9 92.0 74.0 92.6L74.0 92.6Q74.1 92.1 74.2 91.5L74.2 91.5Q74.4 90.9 74.5 90.3Q74.6 89.8 74.7 89.5L74.7 89.5L76.4 84.8L79.6 84.8L79.6 95L77.5 95L77.5 90.2Q77.5 89.9 77.5 89.4Q77.5 88.9 77.5 88.3Q77.5 87.7 77.5 87.1L77.5 87.1Q77.6 86.9 77.6 86.6L77.6 86.6Q77.5 86.9 77.4 87.2L77.4 87.2Q77.3 87.8 77.1 88.4Q76.9 88.9 76.8 89.4Q76.6 89.9 76.5 90.2L76.5 90.2L74.9 95L73.1 95L71.4 90.2Q71.3 89.9 71.1 89.4Q71.0 89.0 70.8 88.4Q70.7 87.8 70.5 87.2L70.5 87.2Q70.4 86.9 70.4 86.7L70.4 86.7Q70.4 86.9 70.4 87.1L70.4 87.1Q70.4 87.7 70.4 88.3Q70.4 88.8 70.4 89.4Q70.4 89.9 70.4 90.2L70.4 90.2L70.4 95ZM87.9 95L81.4 95L81.4 84.8L83.5 84.8L83.5 93.3L87.9 93.3L87.9 95Z "/></g><mask id="satori_om-id-3-1"><rect x="161" y="74" width="385" height="31" fill="#fff" mask="url(#satori_om-id)"/></mask><defs><clipPath id="satori_bc-id-3-1-0" clip-path="url(#satori_cp-id)"><path x="161" y="74" width="90" height="31" d="M169,74 h74 a8,8 0 0 1 8,8 v15 a8,8 0 0 1 -8,8 h-74 a8,8 0 0 1 -8,-8 v-15 a8,8 0 0 1 8,-8"/></clipPath></defs><mask id="satori_om-id-3-1-0"><rect x="162" y="75" width="88" height="29" fill="#fff" mask="url(#satori_om-id)"/><path width="90" height="31" fill="none" stroke="#000" stroke-width="2" d="M163.343,76.343 A8,8 0 0 1 169,74 h74 a8,8 0 0 1 8,8 v15 a8,8 0 0 1 -8,8 h-74 a8,8 0 0 1 -8,-8 v-15 A8,8 0 0 1 163.343,76.343"/></mask><path x="161" y="74" width="90" height="31" fill="#18181b" d="M169,74 h74 a8,8 0 0 1 8,8 v15 a8,8 0 0 1 -8,8 h-74 a8,8 0 0 1 -8,-8 v-15 a8,8 0 0 1 8,-8" clip-path="url(#satori_cp-id)" mask="url(#satori_om-id)"/><path width="90" height="31" clip-path="url(#satori_bc-id-3-1-0)" fill="none" stroke="#27272a" stroke-width="2" d="M163.343,76.343 A8,8 0 0 1 169,74 h74 a8,8 0 0 1 8,8 v15 a8,8 0 0 1 -8,8 h-74 a8,8 0 0 1 -8,-8 v-15 A8,8 0 0 1 163.343,76.343"/><g mask="url(#satori_om-id)" clip-path="url(#satori_cp-id)"><path fill="#e4e4e7" d="M180.5 95L179.2 95L179.2 84.8L182.7 84.8Q183.9 84.8 184.7 85.2Q185.4 85.7 185.8 86.4Q186.2 87.1 186.2 88.1Q186.2 89.0 185.8 89.7Q185.4 90.4 184.7 90.9Q183.9 91.3 182.7 91.3L182.7 91.3L180.5 91.3L180.5 95ZM180.5 86.0L180.5 90.2L182.7 90.2Q183.5 90.2 184.0 89.9Q184.5 89.6 184.7 89.1Q184.9 88.7 184.9 88.1Q184.9 87.5 184.7 87.0Q184.5 86.5 184.0 86.2Q183.5 86.0 182.6 86.0L182.6 86.0L180.5 86.0ZM187.9 97.8L187.9 97.8L188.2 96.7L188.3 96.7Q188.7 96.8 189.0 96.8Q189.3 96.7 189.6 96.5Q189.8 96.2 190.0 95.7L190.0 95.7L190.2 95.0L187.3 87.4L188.7 87.4L190.3 91.9Q190.5 92.6 190.7 93.3L190.7 93.3Q190.8 93.6 190.9 93.9L190.9 93.9Q190.9 93.6 191.0 93.3L191.0 93.3Q191.2 92.6 191.5 91.9L191.5 91.9L193.1 87.4L194.4 87.4L191.1 96.1Q190.9 96.8 190.5 97.1Q190.2 97.5 189.8 97.7Q189.3 97.9 188.8 97.9L188.8 97.9Q188.5 97.9 188.2 97.9Q188.0 97.8 187.9 97.8ZM198.7 86.0L195.5 86.0L195.5 84.8L203.2 84.8L203.2 86.0L200.0 86.0L200.0 95L198.7 95L198.7 86.0ZM208.0 95.2L208.0 95.2Q207.0 95.2 206.2 94.7Q205.4 94.2 205.0 93.3Q204.6 92.4 204.6 91.2L204.6 91.2Q204.6 90.0 205.0 89.1Q205.4 88.2 206.2 87.8Q207.0 87.3 208.0 87.3L208.0 87.3Q209.1 87.3 209.9 87.8Q210.7 88.2 211.1 89.1Q211.5 90.0 211.5 91.2L211.5 91.2Q211.5 92.4 211.1 93.3Q210.7 94.2 209.9 94.7Q209.1 95.2 208.0 95.2ZM208.0 94.1L208.0 94.1Q208.8 94.1 209.3 93.7Q209.8 93.3 210.0 92.6Q210.3 92.0 210.3 91.2L210.3 91.2Q210.3 90.5 210.0 89.8Q209.8 89.2 209.3 88.8Q208.8 88.4 208.0 88.4L208.0 88.4Q207.3 88.4 206.8 88.8Q206.3 89.2 206.0 89.8Q205.8 90.5 205.8 91.2L205.8 91.2Q205.8 92.0 206.0 92.6Q206.3 93.3 206.8 93.7Q207.3 94.1 208.0 94.1ZM214.6 95L213.3 95L213.3 87.4L214.5 87.4L214.5 88.5L214.6 88.5Q214.8 88.0 215.3 87.6Q215.9 87.2 216.6 87.2L216.6 87.2Q216.7 87.2 216.9 87.3Q217.1 87.3 217.2 87.3L217.2 87.3L217.2 88.5Q217.1 88.5 216.9 88.5Q216.7 88.4 216.5 88.4L216.5 88.4Q215.9 88.4 215.5 88.7Q215.0 88.9 214.8 89.3Q214.6 89.7 214.6 90.2L214.6 90.2L214.6 95ZM221.7 95.2L221.7 95.2Q220.7 95.2 219.9 94.7Q219.1 94.2 218.7 93.3Q218.2 92.4 218.2 91.2L218.2 91.2Q218.2 90.0 218.7 89.1Q219.1 88.2 219.9 87.8Q220.7 87.3 221.7 87.3L221.7 87.3Q222.3 87.3 222.7 87.4Q223.2 87.5 223.6 87.8Q224.1 88.1 224.3 88.5Q224.6 88.9 224.8 89.4L224.8 89.4L223.6 89.7Q223.5 89.4 223.4 89.2Q223.2 88.9 222.9 88.7Q222.7 88.6 222.4 88.5Q222.1 88.4 221.7 88.4L221.7 88.4Q220.9 88.4 220.4 88.8Q220.0 89.2 219.7 89.8Q219.5 90.5 219.5 91.2L219.5 91.2Q219.5 92.0 219.7 92.6Q220.0 93.3 220.4 93.7Q220.9 94.1 221.7 94.1L221.7 94.1Q222.1 94.1 222.4 94.0Q222.7 93.9 223.0 93.7Q223.2 93.5 223.4 93.2Q223.6 93.0 223.7 92.7L223.7 92.7L224.8 93.0Q224.7 93.5 224.4 93.9Q224.1 94.3 223.7 94.6Q223.3 94.9 222.8 95.0Q222.3 95.2 221.7 95.2ZM227.8 90.4L227.8 90.4L227.8 95L226.6 95L226.6 84.8L227.8 84.8L227.8 88.7Q228.1 88.0 228.6 87.7L228.6 87.7Q229.2 87.3 230.1 87.3L230.1 87.3Q230.9 87.3 231.5 87.6Q232.1 87.9 232.4 88.5Q232.7 89.2 232.7 90.1L232.7 90.1L232.7 95L231.5 95L231.5 90.2Q231.5 89.4 231.0 88.9Q230.5 88.4 229.7 88.4L229.7 88.4Q229.2 88.4 228.8 88.6Q228.3 88.8 228.1 89.3Q227.8 89.8 227.8 90.4Z "/></g><defs><clipPath id="satori_bc-id-3-1-1" clip-path="url(#satori_cp-id)"><path x="263" y="74" width="105" height="31" d="M271,74 h89 a8,8 0 0 1 8,8 v15 a8,8 0 0 1 -8,8 h-89 a8,8 0 0 1 -8,-8 v-15 a8,8 0 0 1 8,-8"/></clipPath></defs><mask id="satori_om-id-3-1-1"><rect x="264" y="75" width="103" height="29" fill="#fff" mask="url(#satori_om-id)"/><path width="105" height="31" fill="none" stroke="#000" stroke-width="2" d="M265.343,76.343 A8,8 0 0 1 271,74 h89 a8,8 0 0 1 8,8 v15 a8,8 0 0 1 -8,8 h-89 a8,8 0 0 1 -8,-8 v-15 A8,8 0 0 1 265.343,76.343"/></mask><path x="263" y="74" width="105" height="31" fill="#18181b" d="M271,74 h89 a8,8 0 0 1 8,8 v15 a8,8 0 0 1 -8,8 h-89 a8,8 0 0 1 -8,-8 v-15 a8,8 0 0 1 8,-8" clip-path="url(#satori_cp-id)" mask="url(#satori_om-id)"/><path width="105" height="31" clip-path="url(#satori_bc-id-3-1-1)" fill="none" stroke="#27272a" stroke-width="2" d="M265.343,76.343 A8,8 0 0 1 271,74 h89 a8,8 0 0 1 8,8 v15 a8,8 0 0 1 -8,8 h-89 a8,8 0 0 1 -8,-8 v-15 A8,8 0 0 1 265.343,76.343"/><g mask="url(#satori_om-id)" clip-path="url(#satori_cp-id)"><path fill="#e4e4e7" d="M287.2 95L281.2 95L281.2 84.8L282.5 84.8L282.5 93.9L287.2 93.9L287.2 95ZM291.1 95.2L291.1 95.2Q290.4 95.2 289.8 94.9Q289.2 94.6 288.9 94.1Q288.5 93.6 288.5 92.8L288.5 92.8Q288.5 92.2 288.8 91.8Q289.1 91.3 289.5 91.1Q289.9 90.9 290.4 90.8Q291.0 90.6 291.5 90.6L291.5 90.6Q292.2 90.5 292.6 90.4Q293.0 90.4 293.3 90.3Q293.5 90.2 293.5 89.9L293.5 89.9L293.5 89.8Q293.5 89.4 293.3 89.0Q293.1 88.7 292.8 88.5Q292.4 88.3 291.9 88.3L291.9 88.3Q291.3 88.3 290.9 88.5Q290.5 88.7 290.3 88.9Q290.1 89.2 289.9 89.5L289.9 89.5L288.8 89.1Q289.0 88.4 289.5 88.0Q290.0 87.6 290.6 87.4Q291.2 87.3 291.8 87.3L291.8 87.3Q292.2 87.3 292.7 87.4Q293.2 87.4 293.6 87.7Q294.1 88.0 294.4 88.5Q294.7 89.1 294.7 90.0L294.7 90.0L294.7 95L293.5 95L293.5 94.0L293.4 94.0Q293.3 94.2 293.0 94.5Q292.7 94.8 292.2 95.0Q291.8 95.2 291.1 95.2ZM291.3 94.1L291.3 94.1Q292.0 94.1 292.5 93.8Q293.0 93.6 293.2 93.1Q293.5 92.7 293.5 92.2L293.5 92.2L293.5 91.2Q293.4 91.3 293.1 91.3Q292.9 91.4 292.6 91.5Q292.2 91.5 291.9 91.6Q291.6 91.6 291.5 91.6L291.5 91.6Q291.0 91.7 290.6 91.8Q290.2 91.9 290.0 92.2Q289.8 92.5 289.8 92.9L289.8 92.9Q289.8 93.3 290.0 93.6Q290.2 93.8 290.5 94.0Q290.9 94.1 291.3 94.1ZM298.1 90.4L298.1 90.4L298.1 95L296.9 95L296.9 87.4L298.0 87.4L298.0 88.8Q298.4 88.1 298.9 87.7L298.9 87.7Q299.5 87.3 300.4 87.3L300.4 87.3Q301.2 87.3 301.7 87.6Q302.3 87.9 302.6 88.5Q303.0 89.2 303.0 90.1L303.0 90.1L303.0 95L301.7 95L301.7 90.2Q301.7 89.4 301.3 88.9Q300.8 88.4 300.0 88.4L300.0 88.4Q299.5 88.4 299.0 88.6Q298.6 88.8 298.3 89.3Q298.1 89.8 298.1 90.4ZM308.2 98.0L308.2 98.0Q307.4 98.0 306.8 97.8Q306.1 97.6 305.7 97.2Q305.3 96.9 305.1 96.5L305.1 96.5L306.1 95.8Q306.2 96.0 306.5 96.3Q306.7 96.6 307.1 96.8Q307.6 96.9 308.2 96.9L308.2 96.9Q309.1 96.9 309.7 96.5Q310.3 96.1 310.3 95.1L310.3 95.1L310.3 93.6L310.2 93.6Q310.1 93.8 309.8 94.1Q309.6 94.4 309.2 94.6Q308.7 94.9 308.0 94.9L308.0 94.9Q307.1 94.9 306.3 94.4Q305.6 94.0 305.2 93.2Q304.8 92.3 304.8 91.1L304.8 91.1Q304.8 90.0 305.2 89.1Q305.6 88.2 306.3 87.7Q307.1 87.3 308.0 87.3L308.0 87.3Q308.8 87.3 309.2 87.5Q309.6 87.7 309.9 88.1Q310.1 88.4 310.2 88.6L310.2 88.6L310.4 88.6L310.4 87.4L311.6 87.4L311.6 95.2Q311.6 96.2 311.1 96.8Q310.7 97.4 309.9 97.7Q309.2 98.0 308.2 98.0ZM308.2 93.8L308.2 93.8Q308.9 93.8 309.4 93.5Q309.8 93.1 310.1 92.5Q310.3 92.0 310.3 91.1L310.3 91.1Q310.3 90.3 310.1 89.7Q309.9 89.1 309.4 88.7Q308.9 88.4 308.2 88.4L308.2 88.4Q307.5 88.4 307.0 88.7Q306.5 89.1 306.3 89.7Q306.0 90.4 306.0 91.1L306.0 91.1Q306.0 91.9 306.3 92.5Q306.5 93.1 307.0 93.4Q307.5 93.8 308.2 93.8ZM318.0 95.1L318.0 95.1Q316.7 95.1 315.7 94.5Q314.6 93.9 314.1 92.7Q313.5 91.5 313.5 89.9L313.5 89.9Q313.5 88.3 314.1 87.1Q314.6 85.9 315.7 85.3Q316.7 84.7 318.0 84.7L318.0 84.7Q318.8 84.7 319.4 84.9Q320.1 85.1 320.7 85.6Q321.2 86.0 321.6 86.6Q322.0 87.2 322.1 88.0L322.1 88.0L320.8 88.0Q320.7 87.5 320.4 87.1Q320.2 86.7 319.8 86.4Q319.4 86.2 318.9 86.0Q318.5 85.9 318.0 85.9L318.0 85.9Q317.1 85.9 316.3 86.3Q315.6 86.8 315.2 87.7Q314.7 88.6 314.7 89.9L314.7 89.9Q314.7 91.2 315.2 92.1Q315.6 93.0 316.3 93.5Q317.1 93.9 318.0 93.9L318.0 93.9Q318.5 93.9 318.9 93.8Q319.4 93.7 319.8 93.4Q320.2 93.1 320.4 92.7Q320.7 92.3 320.8 91.8L320.8 91.8L322.1 91.8Q322.0 92.6 321.6 93.2Q321.2 93.8 320.7 94.2Q320.1 94.7 319.5 94.9Q318.8 95.1 318.0 95.1ZM325.2 90.4L325.2 90.4L325.2 95L323.9 95L323.9 84.8L325.2 84.8L325.2 88.7Q325.5 88.0 326.0 87.7L326.0 87.7Q326.6 87.3 327.5 87.3L327.5 87.3Q328.2 87.3 328.8 87.6Q329.4 87.9 329.7 88.5Q330.1 89.2 330.1 90.1L330.1 90.1L330.1 95L328.8 95L328.8 90.2Q328.8 89.4 328.4 88.9Q327.9 88.4 327.1 88.4L327.1 88.4Q326.6 88.4 326.1 88.6Q325.7 88.8 325.4 89.3Q325.2 89.8 325.2 90.4ZM334.4 95.2L334.4 95.2Q333.6 95.2 333.0 94.9Q332.5 94.6 332.1 94.1Q331.8 93.6 331.8 92.8L331.8 92.8Q331.8 92.2 332.0 91.8Q332.3 91.3 332.7 91.1Q333.1 90.9 333.7 90.8Q334.2 90.6 334.7 90.6L334.7 90.6Q335.4 90.5 335.8 90.4Q336.3 90.4 336.5 90.3Q336.7 90.2 336.7 89.9L336.7 89.9L336.7 89.8Q336.7 89.4 336.5 89.0Q336.3 88.7 336.0 88.5Q335.6 88.3 335.1 88.3L335.1 88.3Q334.5 88.3 334.2 88.5Q333.8 88.7 333.5 88.9Q333.3 89.2 333.2 89.5L333.2 89.5L332.0 89.1Q332.3 88.4 332.8 88.0Q333.3 87.6 333.9 87.4Q334.5 87.3 335.1 87.3L335.1 87.3Q335.4 87.3 335.9 87.4Q336.4 87.4 336.9 87.7Q337.3 88.0 337.6 88.5Q337.9 89.1 337.9 90.0L337.9 90.0L337.9 95L336.7 95L336.7 94.0L336.6 94.0Q336.5 94.2 336.2 94.5Q335.9 94.8 335.5 95.0Q335.0 95.2 334.4 95.2ZM334.6 94.1L334.6 94.1Q335.3 94.1 335.7 93.8Q336.2 93.6 336.4 93.1Q336.7 92.7 336.7 92.2L336.7 92.2L336.7 91.2Q336.6 91.3 336.4 91.3Q336.1 91.4 335.8 91.5Q335.5 91.5 335.2 91.6Q334.9 91.6 334.7 91.6L334.7 91.6Q334.2 91.7 333.8 91.8Q333.5 91.9 333.2 92.2Q333.0 92.5 333.0 92.9L333.0 92.9Q333.0 93.3 333.2 93.6Q333.4 93.8 333.8 94.0Q334.1 94.1 334.6 94.1ZM341.3 95L340.1 95L340.1 87.4L341.3 87.4L341.3 95ZM340.7 86.1L340.7 86.1Q340.4 86.1 340.1 85.9Q339.8 85.6 339.8 85.3L339.8 85.3Q339.8 85.0 340.1 84.7Q340.4 84.5 340.7 84.5L340.7 84.5Q341.1 84.5 341.3 84.7Q341.6 85.0 341.6 85.3L341.6 85.3Q341.6 85.6 341.3 85.9Q341.1 86.1 340.7 86.1ZM344.7 90.4L344.7 90.4L344.7 95L343.5 95L343.5 87.4L344.7 87.4L344.7 88.8Q345.0 88.1 345.5 87.7L345.5 87.7Q346.1 87.3 347.0 87.3L347.0 87.3Q347.8 87.3 348.4 87.6Q348.9 87.9 349.3 88.5Q349.6 89.2 349.6 90.1L349.6 90.1L349.6 95L348.4 95L348.4 90.2Q348.4 89.4 347.9 88.9Q347.4 88.4 346.6 88.4L346.6 88.4Q346.1 88.4 345.6 88.6Q345.2 88.8 345.0 89.3Q344.7 89.8 344.7 90.4Z "/></g><defs><clipPath id="satori_bc-id-3-1-2" clip-path="url(#satori_cp-id)"><path x="380" y="74" width="80" height="31" d="M388,74 h64 a8,8 0 0 1 8,8 v15 a8,8 0 0 1 -8,8 h-64 a8,8 0 0 1 -8,-8 v-15 a8,8 0 0 1 8,-8"/></clipPath></defs><mask id="satori_om-id-3-1-2"><rect x="381" y="75" width="78" height="29" fill="#fff" mask="url(#satori_om-id)"/><path width="80" height="31" fill="none" stroke="#000" stroke-width="2" d="M382.343,76.343 A8,8 0 0 1 388,74 h64 a8,8 0 0 1 8,8 v15 a8,8 0 0 1 -8,8 h-64 a8,8 0 0 1 -8,-8 v-15 A8,8 0 0 1 382.343,76.343"/></mask><path x="380" y="74" width="80" height="31" fill="#18181b" d="M388,74 h64 a8,8 0 0 1 8,8 v15 a8,8 0 0 1 -8,8 h-64 a8,8 0 0 1 -8,-8 v-15 a8,8 0 0 1 8,-8" clip-path="url(#satori_cp-id)" mask="url(#satori_om-id)"/><path width="80" height="31" clip-path="url(#satori_bc-id-3-1-2)" fill="none" stroke="#27272a" stroke-width="2" d="M382.343,76.343 A8,8 0 0 1 388,74 h64 a8,8 0 0 1 8,8 v15 a8,8 0 0 1 -8,8 h-64 a8,8 0 0 1 -8,-8 v-15 A8,8 0 0 1 382.343,76.343"/><g mask="url(#satori_om-id)" clip-path="url(#satori_cp-id)"><path fill="#e4e4e7" d="M402.4 95.1L402.4 95.1Q401.1 95.1 400.0 94.5Q399.0 93.9 398.4 92.7Q397.8 91.5 397.8 89.9L397.8 89.9Q397.8 88.3 398.4 87.1Q399.0 85.9 400.0 85.3Q401.1 84.7 402.4 84.7L402.4 84.7Q403.7 84.7 404.7 85.3Q405.7 85.9 406.3 87.1Q406.9 88.3 406.9 89.9L406.9 89.9Q406.9 91.5 406.3 92.7Q405.7 93.9 404.7 94.5Q403.7 95.1 402.4 95.1ZM402.4 93.9L402.4 93.9Q403.3 93.9 404.0 93.5Q404.7 93.0 405.2 92.1Q405.6 91.2 405.6 89.9L405.6 89.9Q405.6 88.6 405.2 87.7Q404.7 86.8 404.0 86.3Q403.3 85.9 402.4 85.9L402.4 85.9Q401.4 85.9 400.7 86.3Q400.0 86.8 399.5 87.7Q399.1 88.6 399.1 89.9L399.1 89.9Q399.1 91.2 399.5 92.1Q400.0 93.0 400.7 93.5Q401.4 93.9 402.4 93.9ZM408.8 84.8L410.0 84.8L410.0 95L408.8 95L408.8 84.8ZM412.2 84.8L413.4 84.8L413.4 95L412.2 95L412.2 84.8ZM417.7 95.2L417.7 95.2Q417.0 95.2 416.4 94.9Q415.8 94.6 415.5 94.1Q415.1 93.6 415.1 92.8L415.1 92.8Q415.1 92.2 415.4 91.8Q415.6 91.3 416.1 91.1Q416.5 90.9 417.0 90.8Q417.5 90.6 418.1 90.6L418.1 90.6Q418.8 90.5 419.2 90.4Q419.6 90.4 419.8 90.3Q420.0 90.2 420.0 89.9L420.0 89.9L420.0 89.8Q420.0 89.4 419.9 89.0Q419.7 88.7 419.3 88.5Q419.0 88.3 418.4 88.3L418.4 88.3Q417.9 88.3 417.5 88.5Q417.1 88.7 416.9 88.9Q416.6 89.2 416.5 89.5L416.5 89.5L415.3 89.1Q415.6 88.4 416.1 88.0Q416.6 87.6 417.2 87.4Q417.8 87.3 418.4 87.3L418.4 87.3Q418.8 87.3 419.3 87.4Q419.8 87.4 420.2 87.7Q420.7 88.0 421.0 88.5Q421.3 89.1 421.3 90.0L421.3 90.0L421.3 95L420.1 95L420.1 94.0L420.0 94.0Q419.8 94.2 419.6 94.5Q419.3 94.8 418.8 95.0Q418.4 95.2 417.7 95.2ZM417.9 94.1L417.9 94.1Q418.6 94.1 419.1 93.8Q419.5 93.6 419.8 93.1Q420.0 92.7 420.0 92.2L420.0 92.2L420.0 91.2Q420.0 91.3 419.7 91.3Q419.5 91.4 419.1 91.5Q418.8 91.5 418.5 91.6Q418.2 91.6 418.0 91.6L418.0 91.6Q417.6 91.7 417.2 91.8Q416.8 91.9 416.6 92.2Q416.3 92.5 416.3 92.9L416.3 92.9Q416.3 93.3 416.5 93.6Q416.7 93.8 417.1 94.0Q417.5 94.1 417.9 94.1ZM424.7 95L423.4 95L423.4 87.4L424.6 87.4L424.6 88.8Q424.8 88.3 425.0 88.0L425.0 88.0Q425.4 87.6 425.8 87.4Q426.3 87.2 426.8 87.2L426.8 87.2Q427.6 87.2 428.1 87.7L428.1 87.7Q428.5 88.2 428.7 88.8L428.7 88.8Q428.9 88.4 429.1 88.1L429.1 88.1Q429.5 87.7 430.0 87.4Q430.5 87.2 431.1 87.2L431.1 87.2Q431.8 87.2 432.3 87.5Q432.9 87.8 433.2 88.4Q433.5 89.0 433.5 89.8L433.5 89.8L433.5 95L432.3 95L432.3 89.9Q432.3 89.1 431.8 88.7Q431.4 88.3 430.8 88.3L430.8 88.3Q430.2 88.3 429.9 88.6Q429.5 88.8 429.3 89.1Q429.1 89.5 429.1 90.0L429.1 90.0L429.1 95L427.9 95L427.9 89.8Q427.9 89.1 427.4 88.7Q427.0 88.3 426.4 88.3L426.4 88.3Q425.9 88.3 425.5 88.6Q425.1 88.8 424.9 89.2Q424.7 89.6 424.7 90.2L424.7 90.2L424.7 95ZM437.8 95.2L437.8 95.2Q437.1 95.2 436.5 94.9Q435.9 94.6 435.6 94.1Q435.2 93.6 435.2 92.8L435.2 92.8Q435.2 92.2 435.5 91.8Q435.7 91.3 436.2 91.1Q436.6 90.9 437.1 90.8Q437.7 90.6 438.2 90.6L438.2 90.6Q438.9 90.5 439.3 90.4Q439.7 90.4 440.0 90.3Q440.2 90.2 440.2 89.9L440.2 89.9L440.2 89.8Q440.2 89.4 440.0 89.0Q439.8 88.7 439.5 88.5Q439.1 88.3 438.6 88.3L438.6 88.3Q438.0 88.3 437.6 88.5Q437.2 88.7 437.0 88.9Q436.8 89.2 436.6 89.5L436.6 89.5L435.4 89.1Q435.7 88.4 436.2 88.0Q436.7 87.6 437.3 87.4Q437.9 87.3 438.5 87.3L438.5 87.3Q438.9 87.3 439.4 87.4Q439.9 87.4 440.3 87.7Q440.8 88.0 441.1 88.5Q441.4 89.1 441.4 90.0L441.4 90.0L441.4 95L440.2 95L440.2 94.0L440.1 94.0Q440.0 94.2 439.7 94.5Q439.4 94.8 438.9 95.0Q438.5 95.2 437.8 95.2ZM438.0 94.1L438.0 94.1Q438.7 94.1 439.2 93.8Q439.7 93.6 439.9 93.1Q440.2 92.7 440.2 92.2L440.2 92.2L440.2 91.2Q440.1 91.3 439.8 91.3Q439.6 91.4 439.3 91.5Q438.9 91.5 438.6 91.6Q438.3 91.6 438.1 91.6L438.1 91.6Q437.7 91.7 437.3 91.8Q436.9 91.9 436.7 92.2Q436.5 92.5 436.5 92.9L436.5 92.9Q436.5 93.3 436.7 93.6Q436.9 93.8 437.2 94.0Q437.6 94.1 438.0 94.1Z "/></g><defs><clipPath id="satori_bc-id-3-1-3" clip-path="url(#satori_cp-id)"><path x="472" y="74" width="74" height="31" d="M480,74 h58 a8,8 0 0 1 8,8 v15 a8,8 0 0 1 -8,8 h-58 a8,8 0 0 1 -8,-8 v-15 a8,8 0 0 1 8,-8"/></clipPath></defs><mask id="satori_om-id-3-1-3"><rect x="473" y="75" width="72" height="29" fill="#fff" mask="url(#satori_om-id)"/><path width="74" height="31" fill="none" stroke="#000" stroke-width="2" d="M474.343,76.343 A8,8 0 0 1 480,74 h58 a8,8 0 0 1 8,8 v15 a8,8 0 0 1 -8,8 h-58 a8,8 0 0 1 -8,-8 v-15 A8,8 0 0 1 474.343,76.343"/></mask><path x="472" y="74" width="74" height="31" fill="#18181b" d="M480,74 h58 a8,8 0 0 1 8,8 v15 a8,8 0 0 1 -8,8 h-58 a8,8 0 0 1 -8,-8 v-15 a8,8 0 0 1 8,-8" clip-path="url(#satori_cp-id)" mask="url(#satori_om-id)"/><path width="74" height="31" clip-path="url(#satori_bc-id-3-1-3)" fill="none" stroke="#27272a" stroke-width="2" d="M474.343,76.343 A8,8 0 0 1 480,74 h58 a8,8 0 0 1 8,8 v15 a8,8 0 0 1 -8,8 h-58 a8,8 0 0 1 -8,-8 v-15 A8,8 0 0 1 474.343,76.343"/><g mask="url(#satori_om-id)" clip-path="url(#satori_cp-id)"><path fill="#e4e4e7" d="M491.5 95L490.2 95L490.2 84.8L496.4 84.8L496.4 86.0L491.5 86.0L491.5 89.4L495.9 89.4L495.9 90.6L491.5 90.6L491.5 95ZM499.0 95L497.6 95L501.3 84.8L502.8 84.8L506.6 95L505.2 95L504.2 92.2L500.0 92.2L499.0 95ZM500.4 91.0L503.8 91.0L503.0 89.0Q502.8 88.4 502.6 87.6L502.6 87.6Q502.4 86.9 502.1 85.9L502.1 85.9Q501.8 86.9 501.6 87.6L501.6 87.6Q501.3 88.4 501.1 89.0L501.1 89.0L500.4 91.0ZM508.2 84.8L509.5 84.8L509.5 95L508.2 95L508.2 84.8ZM515.2 95.2L515.2 95.2Q514.1 95.2 513.3 94.8Q512.5 94.5 512.0 93.8Q511.5 93.2 511.5 92.3L511.5 92.3L512.8 92.3Q512.9 92.9 513.2 93.3Q513.5 93.7 514.1 93.8Q514.6 94.0 515.2 94.0L515.2 94.0Q515.9 94.0 516.4 93.8Q517.0 93.6 517.3 93.2Q517.6 92.7 517.6 92.2L517.6 92.2Q517.6 91.7 517.3 91.4Q517.1 91.1 516.6 90.9Q516.1 90.7 515.6 90.5L515.6 90.5L514.4 90.2Q513.1 89.9 512.4 89.2Q511.8 88.6 511.8 87.5L511.8 87.5Q511.8 86.7 512.2 86.0Q512.7 85.4 513.5 85.0Q514.3 84.7 515.3 84.7L515.3 84.7Q516.3 84.7 517.0 85.0Q517.8 85.4 518.3 86.0Q518.7 86.6 518.7 87.4L518.7 87.4L517.5 87.4Q517.4 86.6 516.8 86.2Q516.1 85.8 515.2 85.8L515.2 85.8Q514.6 85.8 514.1 86.0Q513.6 86.3 513.3 86.6Q513.0 87.0 513.0 87.5L513.0 87.5Q513.0 88.0 513.4 88.3Q513.7 88.7 514.1 88.8Q514.6 89.0 515.0 89.1L515.0 89.1L516.0 89.4Q516.4 89.5 516.9 89.7Q517.4 89.9 517.8 90.2Q518.3 90.5 518.6 91.0Q518.9 91.5 518.9 92.2L518.9 92.2Q518.9 93.1 518.4 93.7Q518.0 94.4 517.2 94.8Q516.4 95.2 515.2 95.2ZM524.2 95.2L524.2 95.2Q523.1 95.2 522.2 94.8Q521.4 94.5 521.0 93.8Q520.5 93.2 520.5 92.3L520.5 92.3L521.8 92.3Q521.8 92.9 522.2 93.3Q522.5 93.7 523.0 93.8Q523.6 94.0 524.2 94.0L524.2 94.0Q524.8 94.0 525.4 93.8Q525.9 93.6 526.3 93.2Q526.6 92.7 526.6 92.2L526.6 92.2Q526.6 91.7 526.3 91.4Q526.0 91.1 525.6 90.9Q525.1 90.7 524.6 90.5L524.6 90.5L523.3 90.2Q522.1 89.9 521.4 89.2Q520.7 88.6 520.7 87.5L520.7 87.5Q520.7 86.7 521.2 86.0Q521.7 85.4 522.5 85.0Q523.3 84.7 524.2 84.7L524.2 84.7Q525.3 84.7 526.0 85.0Q526.8 85.4 527.2 86.0Q527.7 86.6 527.7 87.4L527.7 87.4L526.4 87.4Q526.4 86.6 525.7 86.2Q525.1 85.8 524.2 85.8L524.2 85.8Q523.5 85.8 523.1 86.0Q522.6 86.3 522.3 86.6Q522.0 87.0 522.0 87.5L522.0 87.5Q522.0 88.0 522.3 88.3Q522.7 88.7 523.1 88.8Q523.6 89.0 524.0 89.1L524.0 89.1L525.0 89.4Q525.4 89.5 525.9 89.7Q526.4 89.9 526.8 90.2Q527.3 90.5 527.6 91.0Q527.9 91.5 527.9 92.2L527.9 92.2Q527.9 93.1 527.4 93.7Q527.0 94.4 526.2 94.8Q525.3 95.2 524.2 95.2Z "/></g><mask id="satori_om-id-4"><rect x="41" y="125" width="718" height="31" fill="#fff" mask="url(#satori_om-id)"/></mask><mask id="satori_om-id-4-0"><rect x="41" y="132" width="120" height="17" fill="#fff" mask="url(#satori_om-id)"/></mask><g mask="url(#satori_om-id)" clip-path="url(#satori_cp-id)"><path fill="#60a5fa" d="M46.2 146L41.9 146L41.9 135.8L46.0 135.8Q47.1 135.8 47.8 136.2Q48.6 136.5 49.0 137.1Q49.3 137.7 49.3 138.4L49.3 138.4Q49.3 139.0 49.1 139.5Q48.8 139.9 48.4 140.2Q48.0 140.5 47.5 140.6L47.5 140.6L47.5 140.7Q48.1 140.7 48.6 141.0Q49.1 141.4 49.4 141.9Q49.7 142.4 49.7 143.2L49.7 143.2Q49.7 144.0 49.3 144.6Q48.9 145.3 48.2 145.6Q47.4 146 46.2 146L46.2 146ZM44.0 141.5L44.0 144.3L45.8 144.3Q46.7 144.3 47.2 143.9Q47.6 143.6 47.6 143.0L47.6 143.0Q47.6 142.6 47.4 142.2Q47.2 141.9 46.8 141.7Q46.4 141.5 45.9 141.5L45.9 141.5L44.0 141.5ZM44.0 137.5L44.0 140.1L45.7 140.1Q46.1 140.1 46.5 139.9Q46.8 139.8 47.0 139.5Q47.2 139.2 47.2 138.8L47.2 138.8Q47.2 138.2 46.8 137.9Q46.4 137.5 45.7 137.5L45.7 137.5L44.0 137.5ZM52.9 146L50.6 146L54.1 135.8L56.8 135.8L60.4 146L58.1 146L57.3 143.6L53.7 143.6L52.9 146ZM54.2 142.0L56.7 142.0L56.4 141.1Q56.1 140.1 55.8 139L55.8 139Q55.6 138.3 55.4 137.5L55.4 137.5Q55.2 138.3 55.0 139.0L55.0 139.0Q54.8 140.2 54.5 141.1L54.5 141.1L54.2 142.0ZM66.1 146.1L66.1 146.1Q64.7 146.1 63.7 145.5Q62.6 144.9 62.0 143.7Q61.4 142.6 61.4 140.9L61.4 140.9Q61.4 139.3 62.0 138.1Q62.6 136.9 63.7 136.3Q64.7 135.7 66.1 135.7L66.1 135.7Q67.0 135.7 67.7 135.9Q68.5 136.2 69.0 136.6Q69.6 137.1 70.0 137.8Q70.4 138.4 70.5 139.3L70.5 139.3L68.4 139.3Q68.3 138.9 68.1 138.6Q67.9 138.2 67.6 138.0Q67.3 137.8 66.9 137.6Q66.6 137.5 66.1 137.5L66.1 137.5Q65.3 137.5 64.7 137.9Q64.1 138.3 63.8 139.1Q63.5 139.8 63.5 140.9L63.5 140.9Q63.5 142.0 63.8 142.8Q64.1 143.5 64.7 143.9Q65.3 144.3 66.1 144.3L66.1 144.3Q66.6 144.3 66.9 144.2Q67.3 144.0 67.6 143.8Q67.9 143.6 68.1 143.3Q68.3 142.9 68.4 142.5L68.4 142.5L70.5 142.5Q70.4 143.2 70.1 143.9Q69.7 144.5 69.2 145.0Q68.6 145.5 67.8 145.8Q67.1 146.1 66.1 146.1ZM74.1 146L72.0 146L72.0 135.8L74.1 135.8L74.1 138.6L74.1 140.9Q74.1 140.8 74.1 140.8L74.1 140.8Q74.4 140.3 74.8 139.8Q75.2 139.3 75.6 138.7L75.6 138.7L78.1 135.8L80.7 135.8L76.9 140.2L80.8 146L78.3 146L75.4 141.6L74.1 143.1L74.1 146ZM88.9 146L82.1 146L82.1 135.8L88.9 135.8L88.9 137.5L84.1 137.5L84.1 140.0L88.5 140.0L88.5 141.7L84.1 141.7L84.1 144.3L88.9 144.3L88.9 146ZM92.7 146L90.6 146L90.6 135.8L92.9 135.8L96.1 141.0Q96.4 141.4 96.6 141.8Q96.9 142.3 97.1 142.9L97.1 142.9Q97.3 143.1 97.4 143.5L97.4 143.5Q97.4 143.2 97.4 142.9L97.4 142.9Q97.3 142.3 97.3 141.7Q97.3 141.1 97.3 140.7L97.3 140.7L97.3 135.8L99.4 135.8L99.4 146L97.1 146L94.1 141.3Q93.8 140.8 93.5 140.3Q93.3 139.8 93.0 139.2L93.0 139.2Q92.8 138.8 92.6 138.4L92.6 138.4Q92.6 138.8 92.6 139.2L92.6 139.2Q92.7 139.9 92.7 140.4Q92.7 141.0 92.7 141.3L92.7 141.3L92.7 146ZM104.8 146L104.8 146L101.2 146L101.2 135.8L104.9 135.8Q106.4 135.8 107.5 136.4Q108.6 137.0 109.2 138.2Q109.8 139.3 109.8 140.9L109.8 140.9Q109.8 142.5 109.2 143.6Q108.6 144.8 107.5 145.4Q106.4 146 104.8 146ZM103.3 137.6L103.3 144.2L104.7 144.2Q105.7 144.2 106.4 143.9Q107.0 143.5 107.4 142.8Q107.7 142.0 107.7 140.9L107.7 140.9Q107.7 139.8 107.4 139.0Q107.0 138.3 106.4 138.0Q105.7 137.6 104.7 137.6L104.7 137.6L103.3 137.6Z "/></g><mask id="satori_om-id-4-1"><rect x="161" y="125" width="258" height="31" fill="#fff" mask="url(#satori_om-id)"/></mask><defs><clipPath id="satori_bc-id-4-1-0" clip-path="url(#satori_cp-id)"><path x="161" y="125" width="85" height="31" d="M169,125 h69 a8,8 0 0 1 8,8 v15 a8,8 0 0 1 -8,8 h-69 a8,8 0 0 1 -8,-8 v-15 a8,8 0 0 1 8,-8"/></clipPath></defs><mask id="satori_om-id-4-1-0"><rect x="162" y="126" width="83" height="29" fill="#fff" mask="url(#satori_om-id)"/><path width="85" height="31" fill="none" stroke="#000" stroke-width="2" d="M163.343,127.343 A8,8 0 0 1 169,125 h69 a8,8 0 0 1 8,8 v15 a8,8 0 0 1 -8,8 h-69 a8,8 0 0 1 -8,-8 v-15 A8,8 0 0 1 163.343,127.343"/></mask><path x="161" y="125" width="85" height="31" fill="#18181b" d="M169,125 h69 a8,8 0 0 1 8,8 v15 a8,8 0 0 1 -8,8 h-69 a8,8 0 0 1 -8,-8 v-15 a8,8 0 0 1 8,-8" clip-path="url(#satori_cp-id)" mask="url(#satori_om-id)"/><path width="85" height="31" clip-path="url(#satori_bc-id-4-1-0)" fill="none" stroke="#27272a" stroke-width="2" d="M163.343,127.343 A8,8 0 0 1 169,125 h69 a8,8 0 0 1 8,8 v15 a8,8 0 0 1 -8,8 h-69 a8,8 0 0 1 -8,-8 v-15 A8,8 0 0 1 163.343,127.343"/><g mask="url(#satori_om-id)" clip-path="url(#satori_cp-id)"><path fill="#e4e4e7" d="M180.5 146L179.2 146L179.2 135.8L185.4 135.8L185.4 137.0L180.5 137.0L180.5 140.4L184.9 140.4L184.9 141.6L180.5 141.6L180.5 146ZM189.5 146.2L189.5 146.2Q188.8 146.2 188.2 145.9Q187.6 145.6 187.2 145.1Q186.9 144.6 186.9 143.8L186.9 143.8Q186.9 143.2 187.1 142.8Q187.4 142.3 187.8 142.1Q188.3 141.9 188.8 141.8Q189.3 141.6 189.9 141.6L189.9 141.6Q190.5 141.5 191.0 141.4Q191.4 141.4 191.6 141.3Q191.8 141.2 191.8 140.9L191.8 140.9L191.8 140.8Q191.8 140.4 191.6 140.0Q191.5 139.7 191.1 139.5Q190.7 139.3 190.2 139.3L190.2 139.3Q189.7 139.3 189.3 139.5Q188.9 139.7 188.6 139.9Q188.4 140.2 188.3 140.5L188.3 140.5L187.1 140.1Q187.4 139.4 187.9 139.0Q188.4 138.6 189.0 138.4Q189.6 138.3 190.2 138.3L190.2 138.3Q190.6 138.3 191.1 138.4Q191.5 138.4 192.0 138.7Q192.5 139.0 192.7 139.5Q193.0 140.1 193.0 141.0L193.0 141.0L193.0 146L191.8 146L191.8 145.0L191.8 145.0Q191.6 145.2 191.3 145.5Q191.0 145.8 190.6 146.0Q190.1 146.2 189.5 146.2ZM189.7 145.1L189.7 145.1Q190.4 145.1 190.9 144.8Q191.3 144.6 191.6 144.1Q191.8 143.7 191.8 143.2L191.8 143.2L191.8 142.2Q191.7 142.3 191.5 142.3Q191.2 142.4 190.9 142.5Q190.6 142.5 190.3 142.6Q190.0 142.6 189.8 142.6L189.8 142.6Q189.4 142.7 189.0 142.8Q188.6 142.9 188.3 143.2Q188.1 143.5 188.1 143.9L188.1 143.9Q188.1 144.3 188.3 144.6Q188.5 144.8 188.9 145.0Q189.2 145.1 189.7 145.1ZM197.8 146.2L197.8 146.2Q197.0 146.2 196.4 145.9Q195.8 145.7 195.4 145.3Q195.0 144.8 194.9 144.1L194.9 144.1L196.0 143.9Q196.2 144.5 196.7 144.8Q197.1 145.1 197.8 145.1L197.8 145.1Q198.6 145.1 199.1 144.7Q199.5 144.4 199.5 143.9L199.5 143.9Q199.5 143.5 199.3 143.3Q199.0 143.0 198.4 142.9L198.4 142.9L197.1 142.6Q196.1 142.3 195.6 141.8Q195.1 141.3 195.1 140.5L195.1 140.5Q195.1 139.8 195.5 139.3Q195.8 138.8 196.5 138.5Q197.1 138.3 197.9 138.3L197.9 138.3Q198.7 138.3 199.3 138.5Q199.8 138.7 200.2 139.1Q200.5 139.6 200.7 140.1L200.7 140.1L199.6 140.4Q199.4 140.0 199.0 139.6Q198.7 139.3 197.9 139.3L197.9 139.3Q197.3 139.3 196.8 139.6Q196.3 139.9 196.3 140.4L196.3 140.4Q196.3 140.8 196.6 141.1Q197.0 141.4 197.6 141.5L197.6 141.5L198.8 141.8Q199.8 142.0 200.3 142.5Q200.8 143.1 200.8 143.8L200.8 143.8Q200.8 144.5 200.4 145.0Q200.1 145.6 199.4 145.9Q198.7 146.2 197.8 146.2ZM204.0 138.4L205.6 138.4L205.6 139.4L204.0 139.4L204.0 144.0Q204.0 144.5 204.2 144.8Q204.4 145.0 204.9 145.0L204.9 145.0Q205.0 145.0 205.2 145.0Q205.4 144.9 205.6 144.9L205.6 144.9L205.8 146.0Q205.6 146.0 205.4 146.1Q205.1 146.1 204.9 146.1L204.9 146.1Q203.9 146.1 203.4 145.6Q202.8 145.0 202.8 144.1L202.8 144.1L202.8 139.4L201.7 139.4L201.7 138.4L202.8 138.4L202.8 136.5L204.0 136.5L204.0 138.4ZM207.8 146L206.5 146L210.1 135.8L211.7 135.8L215.4 146L214.0 146L213.0 143.2L208.8 143.2L207.8 146ZM209.2 142.0L212.6 142.0L211.9 140.0Q211.7 139.4 211.4 138.6L211.4 138.6Q211.2 137.9 210.9 136.9L210.9 136.9Q210.6 137.9 210.4 138.6L210.4 138.6Q210.1 139.4 209.9 140.0L209.9 140.0L209.2 142.0ZM218.3 146L217.0 146L217.0 135.8L220.5 135.8Q221.7 135.8 222.4 136.2Q223.2 136.7 223.6 137.4Q223.9 138.1 223.9 139.1Q223.9 140.0 223.6 140.7Q223.2 141.4 222.4 141.9Q221.7 142.3 220.5 142.3L220.5 142.3L218.3 142.3L218.3 146ZM218.3 137.0L218.3 141.2L220.4 141.2Q221.2 141.2 221.7 140.9Q222.2 140.6 222.4 140.1Q222.7 139.7 222.7 139.1Q222.7 138.5 222.4 138.0Q222.2 137.5 221.7 137.2Q221.2 137.0 220.4 137.0L220.4 137.0L218.3 137.0ZM225.9 135.8L227.2 135.8L227.2 146L225.9 146L225.9 135.8Z "/></g><defs><clipPath id="satori_bc-id-4-1-1" clip-path="url(#satori_cp-id)"><path x="258" y="125" width="82" height="31" d="M266,125 h66 a8,8 0 0 1 8,8 v15 a8,8 0 0 1 -8,8 h-66 a8,8 0 0 1 -8,-8 v-15 a8,8 0 0 1 8,-8"/></clipPath></defs><mask id="satori_om-id-4-1-1"><rect x="259" y="126" width="80" height="29" fill="#fff" mask="url(#satori_om-id)"/><path width="82" height="31" fill="none" stroke="#000" stroke-width="2" d="M260.343,127.343 A8,8 0 0 1 266,125 h66 a8,8 0 0 1 8,8 v15 a8,8 0 0 1 -8,8 h-66 a8,8 0 0 1 -8,-8 v-15 A8,8 0 0 1 260.343,127.343"/></mask><path x="258" y="125" width="82" height="31" fill="#18181b" d="M266,125 h66 a8,8 0 0 1 8,8 v15 a8,8 0 0 1 -8,8 h-66 a8,8 0 0 1 -8,-8 v-15 a8,8 0 0 1 8,-8" clip-path="url(#satori_cp-id)" mask="url(#satori_om-id)"/><path width="82" height="31" clip-path="url(#satori_bc-id-4-1-1)" fill="none" stroke="#27272a" stroke-width="2" d="M260.343,127.343 A8,8 0 0 1 266,125 h66 a8,8 0 0 1 8,8 v15 a8,8 0 0 1 -8,8 h-66 a8,8 0 0 1 -8,-8 v-15 A8,8 0 0 1 260.343,127.343"/><g mask="url(#satori_om-id)" clip-path="url(#satori_cp-id)"><path fill="#e4e4e7" d="M279.4 146L279.4 146L276.2 146L276.2 135.8L279.5 135.8Q281.0 135.8 282.1 136.4Q283.1 137.0 283.7 138.2Q284.3 139.3 284.3 140.9L284.3 140.9Q284.3 142.5 283.7 143.6Q283.1 144.8 282.0 145.4Q281.0 146 279.4 146ZM277.5 137.0L277.5 144.9L279.3 144.9Q280.6 144.9 281.4 144.4Q282.2 143.9 282.6 143.0Q283.0 142.1 283.0 140.9L283.0 140.9Q283.0 139.7 282.6 138.8Q282.2 137.9 281.4 137.4Q280.6 137.0 279.5 137.0L279.5 137.0L277.5 137.0ZM289.3 146.2L289.3 146.2Q288.3 146.2 287.5 145.7Q286.7 145.2 286.3 144.3Q285.8 143.4 285.8 142.2L285.8 142.2Q285.8 141.0 286.3 140.1Q286.7 139.2 287.5 138.8Q288.3 138.3 289.3 138.3L289.3 138.3Q290.3 138.3 291.1 138.8Q291.9 139.2 292.3 140.1Q292.8 141.0 292.8 142.2L292.8 142.2Q292.8 143.4 292.3 144.3Q291.9 145.2 291.1 145.7Q290.3 146.2 289.3 146.2ZM289.3 145.1L289.3 145.1Q290.1 145.1 290.6 144.7Q291.1 144.3 291.3 143.6Q291.5 143.0 291.5 142.2L291.5 142.2Q291.5 141.5 291.3 140.8Q291.1 140.2 290.6 139.8Q290.1 139.4 289.3 139.4L289.3 139.4Q288.5 139.4 288.0 139.8Q287.5 140.2 287.3 140.8Q287.1 141.5 287.1 142.2L287.1 142.2Q287.1 143.0 287.3 143.6Q287.5 144.3 288.0 144.7Q288.5 145.1 289.3 145.1ZM297.7 146.2L297.7 146.2Q296.6 146.2 295.9 145.7Q295.1 145.2 294.6 144.3Q294.2 143.4 294.2 142.2L294.2 142.2Q294.2 141.0 294.6 140.1Q295.1 139.2 295.9 138.8Q296.6 138.3 297.7 138.3L297.7 138.3Q298.2 138.3 298.7 138.4Q299.2 138.5 299.6 138.8Q300.0 139.1 300.3 139.5Q300.6 139.9 300.8 140.4L300.8 140.4L299.6 140.7Q299.5 140.4 299.3 140.2Q299.2 139.9 298.9 139.7Q298.7 139.6 298.4 139.5Q298.1 139.4 297.7 139.4L297.7 139.4Q296.9 139.4 296.4 139.8Q295.9 140.2 295.7 140.8Q295.5 141.5 295.5 142.2L295.5 142.2Q295.5 143.0 295.7 143.6Q295.9 144.3 296.4 144.7Q296.9 145.1 297.7 145.1L297.7 145.1Q298.1 145.1 298.4 145.0Q298.7 144.9 299.0 144.7Q299.2 144.5 299.4 144.2Q299.6 144.0 299.6 143.7L299.6 143.7L300.8 144.0Q300.7 144.5 300.4 144.9Q300.1 145.3 299.7 145.6Q299.2 145.9 298.7 146.0Q298.2 146.2 297.7 146.2ZM303.8 146L302.6 146L302.6 135.8L303.8 135.8L303.8 141.7L304.0 141.7L307.2 138.4L308.7 138.4L305.5 141.6L309.0 146L307.4 146L304.6 142.4L303.8 143.2L303.8 146ZM313.5 146.2L313.5 146.2Q312.4 146.2 311.6 145.7Q310.8 145.2 310.3 144.3Q309.9 143.4 309.9 142.2Q309.9 141.1 310.3 140.2Q310.7 139.3 311.5 138.8Q312.3 138.3 313.3 138.3L313.3 138.3Q313.9 138.3 314.5 138.5Q315.1 138.7 315.6 139.1Q316.1 139.6 316.4 140.3Q316.7 141.0 316.7 142.1L316.7 142.1L316.7 142.6L311.1 142.6Q311.2 143.3 311.4 143.9L311.4 143.9Q311.7 144.5 312.3 144.8Q312.8 145.1 313.5 145.1L313.5 145.1Q313.9 145.1 314.3 144.9Q314.7 144.8 314.9 144.5Q315.2 144.3 315.3 143.9L315.3 143.9L316.5 144.2Q316.4 144.8 315.9 145.2Q315.5 145.7 314.9 145.9Q314.3 146.2 313.5 146.2ZM311.1 141.6L311.1 141.6L315.4 141.6Q315.4 141.0 315.2 140.6L315.2 140.6Q314.9 140.0 314.5 139.7Q314.0 139.4 313.3 139.4Q312.6 139.4 312.1 139.7Q311.7 140.0 311.4 140.6L311.4 140.6Q311.2 141.0 311.1 141.6ZM319.7 146L318.4 146L318.4 138.4L319.6 138.4L319.6 139.5L319.7 139.5Q319.9 139.0 320.4 138.6Q321.0 138.2 321.7 138.2L321.7 138.2Q321.8 138.2 322.0 138.3Q322.2 138.3 322.3 138.3L322.3 138.3L322.3 139.5Q322.2 139.5 322.0 139.5Q321.8 139.4 321.6 139.4L321.6 139.4Q321.0 139.4 320.6 139.7Q320.1 139.9 319.9 140.3Q319.7 140.7 319.7 141.2L319.7 141.2L319.7 146Z "/></g><defs><clipPath id="satori_bc-id-4-1-2" clip-path="url(#satori_cp-id)"><path x="352" y="125" width="67" height="31" d="M360,125 h51 a8,8 0 0 1 8,8 v15 a8,8 0 0 1 -8,8 h-51 a8,8 0 0 1 -8,-8 v-15 a8,8 0 0 1 8,-8"/></clipPath></defs><mask id="satori_om-id-4-1-2"><rect x="353" y="126" width="65" height="29" fill="#fff" mask="url(#satori_om-id)"/><path width="67" height="31" fill="none" stroke="#000" stroke-width="2" d="M354.343,127.343 A8,8 0 0 1 360,125 h51 a8,8 0 0 1 8,8 v15 a8,8 0 0 1 -8,8 h-51 a8,8 0 0 1 -8,-8 v-15 A8,8 0 0 1 354.343,127.343"/></mask><path x="352" y="125" width="67" height="31" fill="#18181b" d="M360,125 h51 a8,8 0 0 1 8,8 v15 a8,8 0 0 1 -8,8 h-51 a8,8 0 0 1 -8,-8 v-15 a8,8 0 0 1 8,-8" clip-path="url(#satori_cp-id)" mask="url(#satori_om-id)"/><path width="67" height="31" clip-path="url(#satori_bc-id-4-1-2)" fill="none" stroke="#27272a" stroke-width="2" d="M354.343,127.343 A8,8 0 0 1 360,125 h51 a8,8 0 0 1 8,8 v15 a8,8 0 0 1 -8,8 h-51 a8,8 0 0 1 -8,-8 v-15 A8,8 0 0 1 354.343,127.343"/><g mask="url(#satori_om-id)" clip-path="url(#satori_cp-id)"><path fill="#e4e4e7" d="M370.7 146L369.4 146L373.1 135.8L374.6 135.8L378.3 146L376.9 146L375.9 143.2L371.7 143.2L370.7 146ZM372.1 142.0L375.5 142.0L374.8 140.0Q374.6 139.4 374.3 138.6L374.3 138.6Q374.1 137.9 373.8 136.9L373.8 136.9Q373.5 137.9 373.3 138.6L373.3 138.6Q373.0 139.4 372.8 140.0L372.8 140.0L372.1 142.0ZM383.3 146L381.8 146L379.0 135.8L380.3 135.8L382.0 142.1Q382.1 142.6 382.2 143.1Q382.3 143.6 382.4 144.1L382.4 144.1Q382.5 144.4 382.6 144.8L382.6 144.8Q382.6 144.4 382.7 144.1L382.7 144.1Q382.8 143.6 382.9 143.1Q383.0 142.6 383.2 142.1L383.2 142.1L384.8 135.8L386.3 135.8L387.9 142.1Q388.1 142.6 388.2 143.1Q388.3 143.6 388.4 144.1L388.4 144.1Q388.5 144.4 388.6 144.7L388.6 144.7Q388.6 144.4 388.7 144.1L388.7 144.1Q388.8 143.6 388.9 143.1Q389.0 142.6 389.2 142.1L389.2 142.1L390.8 135.8L392.1 135.8L389.3 146L387.8 146L386.0 139.5Q385.9 138.9 385.7 138.2L385.7 138.2Q385.6 137.8 385.5 137.3L385.5 137.3Q385.5 137.7 385.4 138.1L385.4 138.1Q385.2 138.8 385.1 139.5L385.1 139.5L383.3 146ZM396.9 146.2L396.9 146.2Q395.8 146.2 395.0 145.8Q394.2 145.5 393.8 144.8Q393.3 144.2 393.2 143.3L393.2 143.3L394.6 143.3Q394.6 143.9 395.0 144.3Q395.3 144.7 395.8 144.8Q396.4 145.0 396.9 145.0L396.9 145.0Q397.6 145.0 398.2 144.8Q398.7 144.6 399.1 144.2Q399.4 143.7 399.4 143.2L399.4 143.2Q399.4 142.7 399.1 142.4Q398.8 142.1 398.4 141.9Q397.9 141.7 397.4 141.5L397.4 141.5L396.1 141.2Q394.9 140.9 394.2 140.2Q393.5 139.6 393.5 138.5L393.5 138.5Q393.5 137.7 394.0 137.0Q394.5 136.4 395.3 136.0Q396.0 135.7 397.0 135.7L397.0 135.7Q398.0 135.7 398.8 136.0Q399.6 136.4 400.0 137.0Q400.5 137.6 400.5 138.4L400.5 138.4L399.2 138.4Q399.1 137.6 398.5 137.2Q397.9 136.8 397.0 136.8L397.0 136.8Q396.3 136.8 395.8 137.0Q395.3 137.3 395.1 137.6Q394.8 138.0 394.8 138.5L394.8 138.5Q394.8 139.0 395.1 139.3Q395.5 139.7 395.9 139.8Q396.4 140.0 396.7 140.1L396.7 140.1L397.8 140.4Q398.2 140.5 398.7 140.7Q399.2 140.9 399.6 141.2Q400.1 141.5 400.4 142.0Q400.6 142.5 400.6 143.2L400.6 143.2Q400.6 144.1 400.2 144.7Q399.8 145.4 398.9 145.8Q398.1 146.2 396.9 146.2Z "/></g><mask id="satori_om-id-5"><rect x="622" y="228" width="145" height="15" fill="#fff" mask="url(#satori_om-id)"/></mask><g mask="url(#satori_om-id)" clip-path="url(#satori_cp-id)"><path fill="#52525b" d="M624.0 242.4L622.9 242.4L622.9 233.4L623.9 233.4L623.9 234.5L624.1 234.5Q624.2 234.3 624.4 234.1Q624.6 233.8 624.9 233.6Q625.3 233.4 626.0 233.4L626.0 233.4Q626.8 233.4 627.4 233.8Q628.0 234.2 628.4 234.9Q628.7 235.7 628.7 236.7L628.7 236.7Q628.7 237.8 628.4 238.5Q628.0 239.3 627.4 239.7Q626.8 240.1 626.0 240.1L626.0 240.1Q625.3 240.1 625.0 239.9Q624.6 239.7 624.4 239.4Q624.2 239.2 624.1 239.0L624.1 239.0L624.0 239.0L624.0 242.4ZM625.8 239.2L625.8 239.2Q626.4 239.2 626.8 238.9Q627.3 238.5 627.5 238.0Q627.7 237.4 627.7 236.7L627.7 236.7Q627.7 236.1 627.5 235.5Q627.3 235.0 626.8 234.6Q626.4 234.3 625.8 234.3L625.8 234.3Q625.2 234.3 624.8 234.6Q624.4 234.9 624.2 235.5Q624.0 236.0 624.0 236.7L624.0 236.7Q624.0 237.5 624.2 238.0Q624.4 238.6 624.8 238.9Q625.2 239.2 625.8 239.2ZM632.9 240.1L632.9 240.1Q632.0 240.1 631.4 239.7Q630.7 239.3 630.3 238.5Q630.0 237.8 630.0 236.8L630.0 236.8Q630.0 235.7 630.3 235.0Q630.7 234.2 631.4 233.8Q632.0 233.4 632.9 233.4L632.9 233.4Q633.8 233.4 634.5 233.8Q635.2 234.2 635.6 235.0Q635.9 235.7 635.9 236.8L635.9 236.8Q635.9 237.8 635.6 238.5Q635.2 239.3 634.5 239.7Q633.8 240.1 632.9 240.1ZM632.9 239.2L632.9 239.2Q633.6 239.2 634.0 238.9Q634.5 238.5 634.7 238.0Q634.9 237.4 634.9 236.8L634.9 236.8Q634.9 236.1 634.7 235.6Q634.5 235.0 634.0 234.7Q633.6 234.3 632.9 234.3L632.9 234.3Q632.3 234.3 631.9 234.7Q631.4 235.0 631.2 235.6Q631.0 236.1 631.0 236.8L631.0 236.8Q631.0 237.4 631.2 238.0Q631.4 238.5 631.9 238.9Q632.3 239.2 632.9 239.2ZM640.0 240L638.9 240L637.0 233.4L638.1 233.4L638.9 236.3Q639.0 236.9 639.2 237.6L639.2 237.6Q639.4 238.2 639.5 238.9L639.5 238.9Q639.6 238.2 639.8 237.7L639.8 237.7Q639.9 236.9 640.1 236.3L640.1 236.3L640.9 233.4L642.0 233.4L642.8 236.3Q643.0 236.9 643.1 237.7L643.1 237.7Q643.3 238.2 643.4 238.9L643.4 238.9Q643.5 238.2 643.7 237.7L643.7 237.7Q643.9 236.9 644.0 236.3L644.0 236.3L644.8 233.4L646.0 233.4L644.0 240L642.9 240L642.1 237.0Q641.9 236.6 641.8 236.1Q641.7 235.6 641.6 235.2L641.6 235.2Q641.5 234.9 641.5 234.6L641.5 234.6Q641.4 234.9 641.3 235.1L641.3 235.1Q641.2 235.6 641.1 236.1Q641.0 236.6 640.8 237.0L640.8 237.0L640.0 240ZM650.0 240.1L650.0 240.1Q649.1 240.1 648.4 239.7Q647.7 239.3 647.3 238.5Q647.0 237.8 647.0 236.8Q647.0 235.8 647.3 235.0Q647.7 234.2 648.4 233.8Q649.0 233.4 649.9 233.4L649.9 233.4Q650.4 233.4 650.9 233.5Q651.5 233.7 651.9 234.1Q652.3 234.5 652.5 235.1Q652.8 235.7 652.8 236.6L652.8 236.6L652.8 237.1L648.0 237.1Q648.1 237.7 648.3 238.2L648.3 238.2Q648.5 238.7 649.0 238.9Q649.5 239.2 650.0 239.2L650.0 239.2Q650.4 239.2 650.8 239.1Q651.1 239.0 651.3 238.8Q651.5 238.5 651.6 238.2L651.6 238.2L652.7 238.5Q652.5 239.0 652.2 239.3Q651.8 239.7 651.3 239.9Q650.7 240.1 650.0 240.1ZM648.0 236.2L648.0 236.2L651.7 236.2Q651.7 235.7 651.5 235.4L651.5 235.4Q651.3 234.9 650.9 234.6Q650.5 234.3 649.9 234.3Q649.3 234.3 648.9 234.6Q648.5 234.9 648.3 235.3L648.3 235.3Q648.1 235.7 648.0 236.2ZM655.3 240L654.3 240L654.3 233.4L655.3 233.4L655.3 234.5L655.4 234.5Q655.6 234.0 656.0 233.7Q656.5 233.4 657.1 233.4L657.1 233.4Q657.2 233.4 657.4 233.4Q657.5 233.4 657.6 233.4L657.6 233.4L657.6 234.4Q657.6 234.4 657.4 234.4Q657.2 234.4 657.0 234.4L657.0 234.4Q656.5 234.4 656.1 234.6Q655.8 234.8 655.6 235.1Q655.3 235.5 655.3 235.9L655.3 235.9L655.3 240ZM661.6 240.1L661.6 240.1Q660.6 240.1 659.9 239.7Q659.2 239.3 658.9 238.5Q658.5 237.8 658.5 236.8Q658.5 235.8 658.8 235.0Q659.2 234.2 659.9 233.8Q660.5 233.4 661.4 233.4L661.4 233.4Q662.0 233.4 662.5 233.5Q663.0 233.7 663.4 234.1Q663.8 234.5 664.0 235.1Q664.3 235.7 664.3 236.6L664.3 236.6L664.3 237.1L659.6 237.1Q659.6 237.7 659.8 238.2L659.8 238.2Q660.1 238.7 660.5 238.9Q661.0 239.2 661.6 239.2L661.6 239.2Q661.9 239.2 662.3 239.1Q662.6 239.0 662.8 238.8Q663.0 238.5 663.2 238.2L663.2 238.2L664.2 238.5Q664.0 239.0 663.7 239.3Q663.3 239.7 662.8 239.9Q662.2 240.1 661.6 240.1ZM659.6 236.2L659.6 236.2L663.2 236.2Q663.2 235.7 663.0 235.4L663.0 235.4Q662.8 234.9 662.4 234.6Q662.0 234.3 661.4 234.3Q660.8 234.3 660.4 234.6Q660.0 234.9 659.8 235.3L659.8 235.3Q659.6 235.7 659.6 236.2ZM668.3 240.1L668.3 240.1Q667.4 240.1 666.8 239.7Q666.2 239.3 665.8 238.5Q665.5 237.8 665.5 236.7L665.5 236.7Q665.5 235.7 665.8 234.9Q666.2 234.2 666.8 233.8Q667.4 233.4 668.3 233.4L668.3 233.4Q668.9 233.4 669.3 233.6Q669.6 233.8 669.9 234.1Q670.1 234.3 670.2 234.5L670.2 234.5L670.2 234.5L670.2 231.3L671.3 231.3L671.3 240L670.3 240L670.3 239.0L670.2 239.0Q670.1 239.2 669.8 239.4Q669.6 239.7 669.3 239.9Q668.9 240.1 668.3 240.1ZM668.4 239.2L668.4 239.2Q669.0 239.2 669.4 238.9Q669.8 238.6 670.0 238.0Q670.3 237.5 670.3 236.7L670.3 236.7Q670.3 236.0 670.0 235.5Q669.8 234.9 669.4 234.6Q669.0 234.3 668.4 234.3L668.4 234.3Q667.8 234.3 667.4 234.6Q667.0 235.0 666.8 235.5Q666.6 236.1 666.6 236.7L666.6 236.7Q666.6 237.4 666.8 238.0Q667.0 238.5 667.4 238.9Q667.8 239.2 668.4 239.2Z M679.6 240.1L679.6 240.1Q678.9 240.1 678.6 239.9Q678.2 239.7 678.0 239.4Q677.8 239.2 677.7 239.0L677.7 239.0L677.5 239.0L677.5 240L676.5 240L676.5 231.3L677.6 231.3L677.6 234.5L677.7 234.5Q677.8 234.3 678.0 234.1Q678.2 233.8 678.5 233.6Q678.9 233.4 679.6 233.4L679.6 233.4Q680.4 233.4 681.0 233.8Q681.6 234.2 682.0 234.9Q682.3 235.7 682.3 236.7L682.3 236.7Q682.3 237.8 682.0 238.5Q681.6 239.3 681.0 239.7Q680.4 240.1 679.6 240.1ZM679.4 239.2L679.4 239.2Q680.0 239.2 680.4 238.9Q680.8 238.5 681.1 238.0Q681.3 237.4 681.3 236.7L681.3 236.7Q681.3 236.1 681.1 235.5Q680.9 235.0 680.4 234.6Q680.0 234.3 679.4 234.3L679.4 234.3Q678.8 234.3 678.4 234.6Q678.0 234.9 677.8 235.5Q677.6 236.0 677.6 236.7L677.6 236.7Q677.6 237.5 677.8 238.0Q678.0 238.6 678.4 238.9Q678.8 239.2 679.4 239.2ZM683.8 242.4L683.8 242.4L684.0 241.5L684.1 241.5Q684.5 241.6 684.7 241.5Q685.0 241.5 685.2 241.3Q685.4 241.0 685.6 240.6L685.6 240.6L685.8 240.0L683.3 233.4L684.4 233.4L685.8 237.3Q686.0 237.9 686.2 238.5L686.2 238.5Q686.2 238.8 686.3 239.0L686.3 239.0Q686.4 238.8 686.4 238.5L686.4 238.5Q686.6 237.9 686.8 237.3L686.8 237.3L688.2 233.4L689.4 233.4L686.5 241.0Q686.3 241.5 686.0 241.8Q685.7 242.2 685.4 242.3Q685 242.5 684.5 242.5L684.5 242.5Q684.3 242.5 684.1 242.5Q683.8 242.4 683.8 242.4Z M695.0 240L694.0 240L694.0 233.4L695.0 233.4L695.0 234.5L695.1 234.5Q695.3 234.0 695.7 233.7Q696.2 233.4 696.8 233.4L696.8 233.4Q696.9 233.4 697.1 233.4Q697.2 233.4 697.3 233.4L697.3 233.4L697.3 234.4Q697.3 234.4 697.1 234.4Q696.9 234.4 696.7 234.4L696.7 234.4Q696.2 234.4 695.8 234.6Q695.5 234.8 695.3 235.1Q695.0 235.5 695.0 235.9L695.0 235.9L695.0 240ZM701.3 240.1L701.3 240.1Q700.3 240.1 699.6 239.7Q698.9 239.3 698.6 238.5Q698.2 237.8 698.2 236.8Q698.2 235.8 698.6 235.0Q698.9 234.2 699.6 233.8Q700.2 233.4 701.1 233.4L701.1 233.4Q701.7 233.4 702.2 233.5Q702.7 233.7 703.1 234.1Q703.5 234.5 703.7 235.1Q704.0 235.7 704.0 236.6L704.0 236.6L704.0 237.1L699.3 237.1Q699.3 237.7 699.5 238.2L699.5 238.2Q699.8 238.7 700.2 238.9Q700.7 239.2 701.3 239.2L701.3 239.2Q701.7 239.2 702.0 239.1Q702.3 239.0 702.5 238.8Q702.7 238.5 702.9 238.2L702.9 238.2L703.9 238.5Q703.7 239.0 703.4 239.3Q703.0 239.7 702.5 239.9Q701.9 240.1 701.3 240.1ZM699.3 236.2L699.3 236.2L702.9 236.2Q702.9 235.7 702.7 235.4L702.7 235.4Q702.5 234.9 702.1 234.6Q701.7 234.3 701.1 234.3Q700.5 234.3 700.1 234.6Q699.7 234.9 699.5 235.3L699.5 235.3Q699.3 235.7 699.3 236.2ZM707.3 240.2L707.3 240.2Q706.7 240.2 706.2 239.9Q705.7 239.7 705.4 239.2Q705.1 238.8 705.1 238.1L705.1 238.1Q705.1 237.6 705.3 237.2Q705.5 236.9 705.9 236.7Q706.3 236.5 706.7 236.4Q707.2 236.3 707.7 236.2L707.7 236.2Q708.2 236.1 708.6 236.1Q709.0 236.1 709.2 236.0Q709.3 235.9 709.3 235.6L709.3 235.6L709.3 235.6Q709.3 235.2 709.2 234.9Q709.0 234.6 708.7 234.4Q708.4 234.3 708.0 234.3L708.0 234.3Q707.5 234.3 707.2 234.4Q706.8 234.6 706.6 234.8Q706.4 235.0 706.3 235.3L706.3 235.3L705.3 234.9Q705.5 234.3 706.0 234.0Q706.4 233.6 706.9 233.5Q707.4 233.4 707.9 233.4L707.9 233.4Q708.3 233.4 708.7 233.4Q709.1 233.5 709.5 233.8Q709.9 234.0 710.1 234.5Q710.4 234.9 710.4 235.7L710.4 235.7L710.4 240L709.4 240L709.4 239.1L709.3 239.1Q709.2 239.3 708.9 239.6Q708.7 239.8 708.3 240.0Q707.9 240.2 707.3 240.2ZM707.5 239.2L707.5 239.2Q708.1 239.2 708.5 239.0Q708.9 238.8 709.1 238.4Q709.3 238.0 709.3 237.6L709.3 237.6L709.3 236.7Q709.3 236.8 709.1 236.9Q708.8 236.9 708.6 237.0Q708.3 237.0 708.0 237.0Q707.8 237.1 707.6 237.1L707.6 237.1Q707.2 237.1 706.9 237.3Q706.6 237.4 706.4 237.6Q706.2 237.8 706.2 238.2L706.2 238.2Q706.2 238.5 706.3 238.8Q706.5 239.0 706.8 239.1Q707.1 239.2 707.5 239.2ZM714.7 240.1L714.7 240.1Q713.9 240.1 713.3 239.7Q712.6 239.3 712.3 238.5Q711.9 237.8 711.9 236.7L711.9 236.7Q711.9 235.7 712.3 234.9Q712.6 234.2 713.3 233.8Q713.9 233.4 714.7 233.4L714.7 233.4Q715.3 233.4 715.7 233.6Q716.1 233.8 716.3 234.1Q716.5 234.3 716.6 234.5L716.6 234.5L716.7 234.5L716.7 231.3L717.7 231.3L717.7 240L716.7 240L716.7 239.0L716.6 239.0Q716.5 239.2 716.3 239.4Q716.1 239.7 715.7 239.9Q715.3 240.1 714.7 240.1ZM714.9 239.2L714.9 239.2Q715.5 239.2 715.9 238.9Q716.3 238.6 716.5 238.0Q716.7 237.5 716.7 236.7L716.7 236.7Q716.7 236.0 716.5 235.5Q716.3 234.9 715.9 234.6Q715.5 234.3 714.9 234.3L714.9 234.3Q714.2 234.3 713.8 234.6Q713.4 235.0 713.2 235.5Q713.0 236.1 713.0 236.7L713.0 236.7Q713.0 237.4 713.2 238.0Q713.4 238.5 713.8 238.9Q714.2 239.2 714.9 239.2ZM720.6 240L719.6 240L719.6 233.4L720.6 233.4L720.6 234.7Q720.7 234.3 721.0 234.0L721.0 234.0Q721.3 233.7 721.6 233.5Q722.0 233.3 722.5 233.3L722.5 233.3Q723.2 233.3 723.6 233.8L723.6 233.8Q724.0 234.1 724.1 234.7L724.1 234.7Q724.2 234.3 724.5 234.1L724.5 234.1Q724.8 233.7 725.2 233.5Q725.7 233.3 726.2 233.3L726.2 233.3Q726.8 233.3 727.2 233.6Q727.7 233.8 728.0 234.3Q728.2 234.8 728.2 235.6L728.2 235.6L728.2 240L727.2 240L727.2 235.6Q727.2 234.9 726.8 234.6Q726.4 234.3 725.9 234.3L725.9 234.3Q725.4 234.3 725.1 234.5Q724.8 234.7 724.6 235.0Q724.4 235.3 724.4 235.7L724.4 235.7L724.4 240L723.4 240L723.4 235.5Q723.4 235.0 723.0 234.6Q722.7 234.3 722.1 234.3L722.1 234.3Q721.7 234.3 721.4 234.5Q721.1 234.7 720.8 235.0Q720.6 235.4 720.6 235.9L720.6 235.9L720.6 240ZM732.9 240.1L732.9 240.1Q731.9 240.1 731.2 239.7Q730.5 239.3 730.2 238.5Q729.8 237.8 729.8 236.8Q729.8 235.8 730.1 235.0Q730.5 234.2 731.2 233.8Q731.8 233.4 732.7 233.4L732.7 233.4Q733.3 233.4 733.8 233.5Q734.3 233.7 734.7 234.1Q735.1 234.5 735.3 235.1Q735.6 235.7 735.6 236.6L735.6 236.6L735.6 237.1L730.8 237.1Q730.9 237.7 731.1 238.2L731.1 238.2Q731.4 238.7 731.8 238.9Q732.3 239.2 732.9 239.2L732.9 239.2Q733.2 239.2 733.6 239.1Q733.9 239.0 734.1 238.8Q734.3 238.5 734.5 238.2L734.5 238.2L735.5 238.5Q735.3 239.0 735.0 239.3Q734.6 239.7 734.1 239.9Q733.5 240.1 732.9 240.1ZM730.9 236.2L730.9 236.2L734.5 236.2Q734.5 235.7 734.3 235.4L734.3 235.4Q734.1 234.9 733.7 234.6Q733.3 234.3 732.7 234.3Q732.1 234.3 731.7 234.6Q731.3 234.9 731.1 235.3L731.1 235.3Q730.9 235.7 730.9 236.2ZM737.0 235.8L740.8 235.8L740.8 236.8L737.0 236.8L737.0 235.8ZM744.4 240.2L744.4 240.2Q743.8 240.2 743.3 239.9Q742.8 239.7 742.5 239.2Q742.2 238.8 742.2 238.1L742.2 238.1Q742.2 237.6 742.4 237.2Q742.7 236.9 743.0 236.7Q743.4 236.5 743.9 236.4Q744.3 236.3 744.8 236.2L744.8 236.2Q745.4 236.1 745.7 236.1Q746.1 236.1 746.3 236.0Q746.4 235.9 746.4 235.6L746.4 235.6L746.4 235.6Q746.4 235.2 746.3 234.9Q746.1 234.6 745.8 234.4Q745.5 234.3 745.1 234.3L745.1 234.3Q744.6 234.3 744.3 234.4Q743.9 234.6 743.7 234.8Q743.5 235.0 743.4 235.3L743.4 235.3L742.4 234.9Q742.7 234.3 743.1 234.0Q743.5 233.6 744.0 233.5Q744.5 233.4 745.0 233.4L745.0 233.4Q745.4 233.4 745.8 233.4Q746.2 233.5 746.6 233.8Q747.0 234.0 747.2 234.5Q747.5 234.9 747.5 235.7L747.5 235.7L747.5 240L746.5 240L746.5 239.1L746.4 239.1Q746.3 239.3 746.0 239.6Q745.8 239.8 745.4 240.0Q745.0 240.2 744.4 240.2ZM744.6 239.2L744.6 239.2Q745.2 239.2 745.6 239.0Q746.0 238.8 746.2 238.4Q746.4 238.0 746.4 237.6L746.4 237.6L746.4 236.7Q746.4 236.8 746.2 236.9Q745.9 236.9 745.7 237.0Q745.4 237.0 745.1 237.0Q744.9 237.1 744.7 237.1L744.7 237.1Q744.3 237.1 744.0 237.3Q743.7 237.4 743.5 237.6Q743.3 237.8 743.3 238.2L743.3 238.2Q743.3 238.5 743.5 238.8Q743.6 239.0 743.9 239.1Q744.2 239.2 744.6 239.2ZM751.6 240.1L751.6 240.1Q750.9 240.1 750.4 239.8Q749.9 239.5 749.6 239.0Q749.4 238.4 749.4 237.6L749.4 237.6L749.4 233.4L750.4 233.4L750.4 237.5Q750.4 238.3 750.8 238.7Q751.2 239.1 751.9 239.1L751.9 239.1Q752.4 239.1 752.7 238.9Q753.1 238.7 753.3 238.3Q753.5 237.9 753.5 237.4L753.5 237.4L753.5 233.4L754.6 233.4L754.6 240L753.6 240L753.6 238.8Q753.3 239.4 752.9 239.7L752.9 239.7Q752.3 240.1 751.6 240.1ZM757.5 240L756.4 240L756.4 233.4L757.5 233.4L757.5 234.5L757.5 234.5Q757.7 234.0 758.2 233.7Q758.7 233.4 759.2 233.4L759.2 233.4Q759.4 233.4 759.5 233.4Q759.7 233.4 759.8 233.4L759.8 233.4L759.8 234.4Q759.7 234.4 759.5 234.4Q759.3 234.4 759.1 234.4L759.1 234.4Q758.7 234.4 758.3 234.6Q757.9 234.8 757.7 235.1Q757.5 235.5 757.5 235.9L757.5 235.9L757.5 240ZM762.8 240.2L762.8 240.2Q762.2 240.2 761.7 239.9Q761.2 239.7 760.9 239.2Q760.6 238.8 760.6 238.1L760.6 238.1Q760.6 237.6 760.8 237.2Q761.0 236.9 761.4 236.7Q761.8 236.5 762.2 236.4Q762.7 236.3 763.1 236.2L763.1 236.2Q763.7 236.1 764.1 236.1Q764.4 236.1 764.6 236.0Q764.8 235.9 764.8 235.6L764.8 235.6L764.8 235.6Q764.8 235.2 764.6 234.9Q764.5 234.6 764.2 234.4Q763.9 234.3 763.4 234.3L763.4 234.3Q763.0 234.3 762.6 234.4Q762.3 234.6 762.1 234.8Q761.9 235.0 761.8 235.3L761.8 235.3L760.8 234.9Q761.0 234.3 761.4 234.0Q761.9 233.6 762.4 233.5Q762.9 233.4 763.4 233.4L763.4 233.4Q763.7 233.4 764.1 233.4Q764.6 233.5 765.0 233.8Q765.3 234.0 765.6 234.5Q765.9 234.9 765.9 235.7L765.9 235.7L765.9 240L764.8 240L764.8 239.1L764.7 239.1Q764.6 239.3 764.4 239.6Q764.1 239.8 763.8 240.0Q763.4 240.2 762.8 240.2ZM763.0 239.2L763.0 239.2Q763.6 239.2 764.0 239.0Q764.4 238.8 764.6 238.4Q764.8 238.0 764.8 237.6L764.8 237.6L764.8 236.7Q764.7 236.8 764.5 236.9Q764.3 236.9 764.0 237.0Q763.7 237.0 763.5 237.0Q763.2 237.1 763.1 237.1L763.1 237.1Q762.7 237.1 762.4 237.3Q762.0 237.4 761.8 237.6Q761.6 237.8 761.6 238.2L761.6 238.2Q761.6 238.5 761.8 238.8Q762.0 239.0 762.3 239.1Q762.6 239.2 763.0 239.2Z "/></g></svg>