<!-- Generated by readme-aura https://github.com/collectioneur/readme-aura -->
<svg width="120" height="44" viewBox="0 0 120 44" xmlns="http://www.w3.org/2000/svg"><defs><clipPath id="satori_bc-id"><path x="0" y="0" width="120" height="44" d="M22,0 h76 a22,22 0 0 1 22,22 v0 a22,22 0 0 1 -22,22 h-76 a22,22 0 0 1 -22,-22 v0 a22,22 0 0 1 22,-22"/></clipPath></defs><mask id="satori_om-id"><rect x="1" y="1" width="118" height="42" fill="#fff"/><path width="120" height="44" fill="none" stroke="#000" stroke-width="2" d="M6.444000000000001,6.444000000000001 A22,22 0 0 1 22,0 h76 a22,22 0 0 1 22,22 v0 a22,22 0 0 1 -22,22 h-76 a22,22 0 0 1 -22,-22 v0 A22,22 0 0 1 6.444000000000001,6.444000000000001"/></mask><path x="0" y="0" width="120" height="44" fill="#0a66c2" d="M22,0 h76 a22,22 0 0 1 22,22 v0 a22,22 0 0 1 -22,22 h-76 a22,22 0 0 1 -22,-22 v0 a22,22 0 0 1 22,-22"/><path width="120" height="44" clip-path="url(#satori_bc-id)" fill="none" stroke="#27272a" stroke-width="2" d="M6.444000000000001,6.444000000000001 A22,22 0 0 1 22,0 h76 a22,22 0 0 1 22,22 v0 a22,22 0 0 1 -22,22 h-76 a22,22 0 0 1 -22,-22 v0 A22,22 0 0 1 6.444000000000001,6.444000000000001"/><mask id="satori_om-id-0"><rect x="31" y="14" width="59" height="17" fill="#fff"/></mask><g  ><path fill="white" d="M38.4 28L31.9 28L31.9 17.8L34.0 17.8L34.0 26.3L38.4 26.3L38.4 28ZM41.8 28L39.8 28L39.8 20.4L41.8 20.4L41.8 28ZM40.8 19.4L40.8 19.4Q40.4 19.4 40.0 19.1Q39.7 18.7 39.7 18.3L39.7 18.3Q39.7 17.9 40.0 17.6Q40.4 17.3 40.8 17.3L40.8 17.3Q41.3 17.3 41.6 17.6Q41.9 17.9 41.9 18.3L41.9 18.3Q41.9 18.7 41.6 19.1Q41.3 19.4 40.8 19.4ZM45.6 23.6L45.6 23.6L45.6 28L43.6 28L43.6 20.4L45.5 20.4L45.5 21.9Q45.8 21.2 46.3 20.8L46.3 20.8Q47.0 20.3 47.9 20.3L47.9 20.3Q48.7 20.3 49.3 20.6Q49.9 21.0 50.2 21.6Q50.6 22.2 50.6 23.1L50.6 23.1L50.6 28L48.5 28L48.5 23.5Q48.5 22.8 48.1 22.4Q47.8 22.0 47.1 22.0L47.1 22.0Q46.7 22.0 46.4 22.2Q46.0 22.4 45.8 22.7Q45.6 23.1 45.6 23.6ZM54.4 28L52.3 28L52.3 17.8L54.4 17.8L54.4 23.3L54.5 23.3L57.0 20.4L59.3 20.4L56.5 23.7L59.5 28L57.1 28L54.9 24.9L54.4 25.5L54.4 28ZM63.9 28.2L63.9 28.2Q62.7 28.2 61.9 27.7Q61.0 27.2 60.6 26.3Q60.1 25.4 60.1 24.2L60.1 24.2Q60.1 23.0 60.6 22.1Q61.0 21.3 61.8 20.8Q62.7 20.3 63.8 20.3L63.8 20.3Q64.5 20.3 65.2 20.5Q65.8 20.7 66.3 21.2Q66.8 21.7 67.1 22.4Q67.4 23.2 67.4 24.1L67.4 24.1L67.4 24.7L62.1 24.7Q62.2 25.3 62.4 25.7L62.4 25.7Q62.6 26.2 63.0 26.4Q63.4 26.6 63.9 26.6L63.9 26.6Q64.3 26.6 64.6 26.5Q64.9 26.4 65.1 26.2Q65.3 26.0 65.4 25.7L65.4 25.7L67.2 26.1Q67.1 26.7 66.6 27.2Q66.1 27.6 65.5 27.9Q64.8 28.2 63.9 28.2ZM62.1 23.4L62.1 23.4L65.4 23.4Q65.3 23.0 65.2 22.7L65.2 22.7Q65.0 22.3 64.7 22.0Q64.3 21.8 63.8 21.8L63.8 21.8Q63.3 21.8 62.9 22.1Q62.5 22.3 62.3 22.7L62.3 22.7Q62.2 23.0 62.1 23.4ZM71.6 28.1L71.6 28.1Q70.7 28.1 70.0 27.7Q69.3 27.2 68.9 26.3Q68.4 25.5 68.4 24.2L68.4 24.2Q68.4 22.9 68.9 22.0Q69.3 21.1 70.0 20.7Q70.7 20.3 71.5 20.3L71.5 20.3Q72.2 20.3 72.6 20.5Q73.1 20.7 73.3 21.0Q73.6 21.3 73.7 21.6L73.7 21.6L73.8 21.6L73.8 17.8L75.8 17.8L75.8 28L73.8 28L73.8 26.8L73.7 26.8Q73.6 27.1 73.3 27.4Q73.0 27.7 72.6 27.9Q72.2 28.1 71.6 28.1ZM72.2 26.5L72.2 26.5Q72.7 26.5 73.1 26.2Q73.4 25.9 73.6 25.4Q73.8 24.9 73.8 24.2L73.8 24.2Q73.8 23.5 73.6 23.0Q73.5 22.5 73.1 22.2Q72.7 21.9 72.2 21.9L72.2 21.9Q71.6 21.9 71.3 22.2Q70.9 22.5 70.7 23.0Q70.5 23.5 70.5 24.2L70.5 24.2Q70.5 24.9 70.7 25.4Q70.9 25.9 71.3 26.2Q71.7 26.5 72.2 26.5ZM77.6 17.8L79.7 17.8L79.7 28L77.6 28L77.6 17.8ZM83.6 23.6L83.6 23.6L83.6 28L81.5 28L81.5 20.4L83.5 20.4L83.5 21.9Q83.8 21.2 84.3 20.8L84.3 20.8Q84.9 20.3 85.9 20.3L85.9 20.3Q86.7 20.3 87.2 20.6Q87.8 21.0 88.2 21.6Q88.5 22.2 88.5 23.1L88.5 23.1L88.5 28L86.4 28L86.4 23.5Q86.4 22.8 86.1 22.4Q85.7 22.0 85.1 22.0L85.1 22.0Q84.6 22.0 84.3 22.2Q83.9 22.4 83.8 22.7Q83.6 23.1 83.6 23.6Z "/></g></svg>