<!-- Generated by readme-aura https://github.com/collectioneur/readme-aura -->
<svg width="800" height="340" viewBox="0 0 800 340" xmlns="http://www.w3.org/2000/svg"><defs><clipPath id="satori_bc-id"><path x="0" y="0" width="800" height="340" d="M24,0 h752 a24,24 0 0 1 24,24 v292 a24,24 0 0 1 -24,24 h-752 a24,24 0 0 1 -24,-24 v-292 a24,24 0 0 1 24,-24"/></clipPath></defs><clipPath id="satori_cp-id"><path x="0" y="0" width="800" height="340" d="M24,0 h752 a24,24 0 0 1 24,24 v292 a24,24 0 0 1 -24,24 h-752 a24,24 0 0 1 -24,-24 v-292 a24,24 0 0 1 24,-24"/></clipPath><mask id="satori_om-id"><rect x="1" y="1" width="798" height="338" fill="#fff"/><path width="800" height="340" fill="none" stroke="#000" stroke-width="2" d="M7.029,7.029 A24,24 0 0 1 24,0 h752 a24,24 0 0 1 24,24 v292 a24,24 0 0 1 -24,24 h-752 a24,24 0 0 1 -24,-24 v-292 A24,24 0 0 1 7.029,7.029"/></mask><path x="0" y="0" width="800" height="340" fill="#09090b" d="M24,0 h752 a24,24 0 0 1 24,24 v292 a24,24 0 0 1 -24,24 h-752 a24,24 0 0 1 -24,-24 v-292 a24,24 0 0 1 24,-24"/><path width="800" height="340" clip-path="url(#satori_bc-id)" fill="none" stroke="#27272a" stroke-width="2" d="M7.029,7.029 A24,24 0 0 1 24,0 h752 a24,24 0 0 1 24,24 v292 a24,24 0 0 1 -24,24 h-752 a24,24 0 0 1 -24,-24 v-292 A24,24 0 0 1 7.029,7.029"/><defs><pattern id="satori_pattern_id-0_0" x="0" y="0" width="1" height="1" patternUnits="objectBoundingBox"><radialGradient id="satori_radial_id-0_0" spreadMethod="pad"><stop offset="0" stop-color="rgba(16, 185, 129, 0.15)"/><stop offset="0.7" stop-color="rgba(0,0,0,0)"/><stop offset="1" stop-color="rgba(0,0,0,0)"/></radialGradient><mask id="satori_mask_id-0_0"><rect x="0" y="0" width="600" height="250" fill="#fff"/></mask><rect x="0" y="0" width="600" height="250" fill="rgba(0,0,0,0)"/><circle cx="300" cy="125" width="600" height="250" r="325" fill="url(#satori_radial_id-0_0)" mask="url(#satori_mask_id-0_0)"/></pattern></defs><mask id="satori_om-id-0"><rect x="161" y="189" width="600" height="250" fill="#fff" mask="url(#satori_om-id)"/></mask><rect x="161" y="189" width="600" height="250" fill="url(#satori_pattern_id-0_0)" clip-path="url(#satori_cp-id)" mask="url(#satori_om-id)"/><defs><pattern id="satori_pattern_id-1_0" x="0" y="0" width="1" height="1" patternUnits="objectBoundingBox"><radialGradient id="satori_radial_id-1_0" spreadMethod="pad"><stop offset="0" stop-color="rgba(139, 92, 246, 0.15)"/><stop offset="0.7" stop-color="rgba(0,0,0,0)"/><stop offset="1" stop-color="rgba(0,0,0,0)"/></radialGradient><mask id="satori_mask_id-1_0"><rect x="0" y="0" width="300" height="300" fill="#fff"/></mask><rect x="0" y="0" width="300" height="300" fill="rgba(0,0,0,0)"/><circle cx="150" cy="150" width="300" height="300" r="212.13203435596427" fill="url(#satori_radial_id-1_0)" mask="url(#satori_mask_id-1_0)"/></pattern></defs><mask id="satori_om-id-1"><rect x="549" y="-49" width="300" height="300" fill="#fff" mask="url(#satori_om-id)"/></mask><rect x="549" y="-49" width="300" height="300" fill="url(#satori_pattern_id-1_0)" clip-path="url(#satori_cp-id)" mask="url(#satori_om-id)"/><mask id="satori_om-id-2"><rect x="41" y="33" width="718" height="17" fill="#fff" mask="url(#satori_om-id)"/></mask><g mask="url(#satori_om-id)" clip-path="url(#satori_cp-id)"><path fill="#52525b" d="M44.6 38.5L41.5 38.5L41.5 36.8L49.8 36.8L49.8 38.5L46.7 38.5L46.7 47L44.6 47L44.6 38.5ZM60.1 47L53.3 47L53.3 36.8L60.1 36.8L60.1 38.5L55.4 38.5L55.4 41.0L59.7 41.0L59.7 42.7L55.4 42.7L55.4 45.3L60.1 45.3L60.1 47ZM68.2 47.1L68.2 47.1Q66.9 47.1 65.8 46.5Q64.7 45.9 64.1 44.7Q63.5 43.6 63.5 41.9L63.5 41.9Q63.5 40.3 64.1 39.1Q64.7 37.9 65.8 37.3Q66.9 36.7 68.2 36.7L68.2 36.7Q69.1 36.7 69.8 36.9Q70.6 37.2 71.2 37.6Q71.7 38.1 72.1 38.8Q72.5 39.4 72.6 40.3L72.6 40.3L70.5 40.3Q70.4 39.9 70.2 39.6Q70.0 39.2 69.7 39.0Q69.5 38.8 69.1 38.6Q68.7 38.5 68.3 38.5L68.3 38.5Q67.5 38.5 66.9 38.9Q66.3 39.3 65.9 40.1Q65.6 40.8 65.6 41.9L65.6 41.9Q65.6 43.0 65.9 43.8Q66.3 44.5 66.9 44.9Q67.5 45.3 68.3 45.3L68.3 45.3Q68.7 45.3 69.1 45.2Q69.4 45.0 69.7 44.8Q70.0 44.6 70.2 44.3Q70.4 43.9 70.5 43.5L70.5 43.5L72.6 43.5Q72.5 44.2 72.2 44.9Q71.9 45.5 71.3 46.0Q70.7 46.5 70.0 46.8Q69.2 47.1 68.2 47.1ZM78.2 47L76.1 47L76.1 36.8L78.2 36.8L78.2 40.9L82.6 40.9L82.6 36.8L84.7 36.8L84.7 47L82.6 47L82.6 42.7L78.2 42.7L78.2 47Z M97.6 47.2L97.6 47.2Q96.4 47.2 95.5 46.8Q94.6 46.4 94.1 45.7Q93.6 44.9 93.6 43.8L93.6 43.8L95.6 43.8Q95.6 44.4 95.9 44.7Q96.2 45.0 96.6 45.2Q97.1 45.4 97.6 45.4L97.6 45.4Q98.2 45.4 98.6 45.2Q99.0 45.1 99.2 44.8Q99.5 44.5 99.5 44.1L99.5 44.1Q99.5 43.7 99.3 43.5Q99.0 43.3 98.7 43.1Q98.3 42.9 97.7 42.8L97.7 42.8L96.6 42.5Q95.3 42.2 94.6 41.5Q93.8 40.9 93.8 39.7L93.8 39.7Q93.8 38.8 94.3 38.1Q94.8 37.4 95.7 37.1Q96.6 36.7 97.7 36.7L97.7 36.7Q98.8 36.7 99.6 37.1Q100.5 37.5 100.9 38.1Q101.4 38.8 101.4 39.7L101.4 39.7L99.4 39.7Q99.4 39.1 98.9 38.8Q98.4 38.4 97.6 38.4L97.6 38.4Q97.1 38.4 96.7 38.6Q96.4 38.7 96.2 39.0Q96.0 39.3 96.0 39.6L96.0 39.6Q96.0 40.0 96.2 40.2Q96.4 40.5 96.8 40.6Q97.2 40.8 97.6 40.9L97.6 40.9L98.5 41.1Q99.2 41.3 99.7 41.5Q100.3 41.8 100.7 42.1Q101.1 42.5 101.3 43.0Q101.6 43.5 101.6 44.1L101.6 44.1Q101.6 45.0 101.1 45.7Q100.6 46.4 99.8 46.8Q98.9 47.2 97.6 47.2ZM107.8 38.5L104.7 38.5L104.7 36.8L113.0 36.8L113.0 38.5L109.9 38.5L109.9 47L107.8 47L107.8 38.5ZM118.1 47L115.8 47L119.3 36.8L122.0 36.8L125.6 47L123.3 47L122.5 44.6L118.9 44.6L118.1 47ZM119.4 43.0L122.0 43.0L121.7 42.1Q121.4 41.1 121.1 40L121.1 40Q120.9 39.3 120.7 38.5L120.7 38.5Q120.4 39.3 120.3 40.0L120.3 40.0Q120.0 41.2 119.7 42.1L119.7 42.1L119.4 43.0ZM133.3 47.1L133.3 47.1Q132.0 47.1 130.9 46.5Q129.8 45.9 129.2 44.7Q128.6 43.6 128.6 41.9L128.6 41.9Q128.6 40.3 129.2 39.1Q129.8 37.9 130.9 37.3Q132.0 36.7 133.3 36.7L133.3 36.7Q134.2 36.7 134.9 36.9Q135.7 37.2 136.3 37.6Q136.8 38.1 137.2 38.8Q137.6 39.4 137.7 40.3L137.7 40.3L135.6 40.3Q135.5 39.9 135.3 39.6Q135.1 39.2 134.8 39.0Q134.5 38.8 134.2 38.6Q133.8 38.5 133.4 38.5L133.4 38.5Q132.6 38.5 132.0 38.9Q131.4 39.3 131.0 40.1Q130.7 40.8 130.7 41.9L130.7 41.9Q130.7 43.0 131.0 43.8Q131.4 44.5 132.0 44.9Q132.6 45.3 133.4 45.3L133.4 45.3Q133.8 45.3 134.2 45.2Q134.5 45.0 134.8 44.8Q135.1 44.6 135.3 44.3Q135.5 43.9 135.6 43.5L135.6 43.5L137.7 43.5Q137.6 44.2 137.3 44.9Q136.9 45.5 136.4 46.0Q135.8 46.5 135.1 46.8Q134.3 47.1 133.3 47.1ZM143.3 47L141.2 47L141.2 36.8L143.3 36.8L143.3 39.6L143.3 41.9Q143.3 41.8 143.4 41.8L143.4 41.8Q143.7 41.3 144.0 40.8Q144.4 40.3 144.9 39.7L144.9 39.7L147.4 36.8L149.9 36.8L146.1 41.2L150.0 47L147.6 47L144.7 42.6L143.3 44.1L143.3 47Z "/></g><mask id="satori_om-id-3"><rect x="41" y="74" width="718" height="31" fill="#fff" mask="url(#satori_om-id)"/></mask><mask id="satori_om-id-3-0"><rect x="41" y="81" width="120" height="17" fill="#fff" mask="url(#satori_om-id)"/></mask><g mask="url(#satori_om-id)" clip-path="url(#satori_cp-id)"><path fill="#60a5fa" d="M43.6 95L41.3 95L44.8 84.8L47.5 84.8L51.1 95L48.8 95L48.0 92.6L44.4 92.6L43.6 95ZM44.9 91.0L47.5 91.0L47.2 90.1Q46.9 89.1 46.6 88L46.6 88Q46.4 87.3 46.2 86.5L46.2 86.5Q46.0 87.3 45.8 88.0L45.8 88.0Q45.5 89.2 45.2 90.1L45.2 90.1L44.9 91.0ZM52.4 84.8L54.5 84.8L54.5 95L52.4 95L52.4 84.8Z M62.2 84.3L63.9 84.3L60.7 96.5L58.9 96.5L62.2 84.3Z M70.4 95L68.4 95L68.4 84.8L71.6 84.8L73.2 89.5Q73.3 89.8 73.5 90.3Q73.6 90.9 73.7 91.5L73.7 91.5Q73.9 92.0 74.0 92.6L74.0 92.6Q74.1 92.1 74.2 91.5L74.2 91.5Q74.4 90.9 74.5 90.3Q74.6 89.8 74.7 89.5L74.7 89.5L76.4 84.8L79.6 84.8L79.6 95L77.5 95L77.5 90.2Q77.5 89.9 77.5 89.4Q77.5 88.9 77.5 88.3Q77.5 87.7 77.5 87.1L77.5 87.1Q77.6 86.9 77.6 86.6L77.6 86.6Q77.5 86.9 77.4 87.2L77.4 87.2Q77.3 87.8 77.1 88.4Q76.9 88.9 76.8 89.4Q76.6 89.9 76.5 90.2L76.5 90.2L74.9 95L73.1 95L71.4 90.2Q71.3 89.9 71.1 89.4Q71.0 89.0 70.8 88.4Q70.7 87.8 70.5 87.2L70.5 87.2Q70.4 86.9 70.4 86.7L70.4 86.7Q70.4 86.9 70.4 87.1L70.4 87.1Q70.4 87.7 70.4 88.3Q70.4 88.8 70.4 89.4Q70.4 89.9 70.4 90.2L70.4 90.2L70.4 95ZM87.9 95L81.4 95L81.4 84.8L83.5 84.8L83.5 93.3L87.9 93.3L87.9 95Z "/></g><mask id="satori_om-id-3-1"><rect x="161" y="74" width="510" height="31" fill="#fff" mask="url(#satori_om-id)"/></mask><defs><clipPath id="satori_bc-id-3-1-0" clip-path="url(#satori_cp-id)"><path x="161" y="74" width="90" height="31" d="M169,74 h74 a8,8 0 0 1 8,8 v15 a8,8 0 0 1 -8,8 h-74 a8,8 0 0 1 -8,-8 v-15 a8,8 0 0 1 8,-8"/></clipPath></defs><mask id="satori_om-id-3-1-0"><rect x="162" y="75" width="88" height="29" fill="#fff" mask="url(#satori_om-id)"/><path width="90" height="31" fill="none" stroke="#000" stroke-width="2" d="M163.343,76.343 A8,8 0 0 1 169,74 h74 a8,8 0 0 1 8,8 v15 a8,8 0 0 1 -8,8 h-74 a8,8 0 0 1 -8,-8 v-15 A8,8 0 0 1 163.343,76.343"/></mask><path x="161" y="74" width="90" height="31" fill="#18181b" d="M169,74 h74 a8,8 0 0 1 8,8 v15 a8,8 0 0 1 -8,8 h-74 a8,8 0 0 1 -8,-8 v-15 a8,8 0 0 1 8,-8" clip-path="url(#satori_cp-id)" mask="url(#satori_om-id)"/><path width="90" height="31" clip-path="url(#satori_bc-id-3-1-0)" fill="none" stroke="#27272a" stroke-width="2" d="M163.343,76.343 A8,8 0 0 1 169,74 h74 a8,8 0 0 1 8,8 v15 a8,8 0 0 1 -8,8 h-74 a8,8 0 0 1 -8,-8 v-15 A8,8 0 0 1 163.343,76.343"/><g mask="url(#satori_om-id)" clip-path="url(#satori_cp-id)"><path fill="#e4e4e7" d="M180.5 95L179.2 95L179.2 84.8L182.7 84.8Q183.9 84.8 184.7 85.2Q185.4 85.7 185.8 86.4Q186.2 87.1 186.2 88.1Q186.2 89.0 185.8 89.7Q185.4 90.4 184.7 90.9Q183.9 91.3 182.7 91.3L182.7 91.3L180.5 91.3L180.5 95ZM180.5 86.0L180.5 90.2L182.7 90.2Q183.5 90.2 184.0 89.9Q184.5 89.6 184.7 89.1Q184.9 88.7 184.9 88.1Q184.9 87.5 184.7 87.0Q184.5 86.5 184.0 86.2Q183.5 86.0 182.6 86.0L182.6 86.0L180.5 86.0ZM187.9 97.8L187.9 97.8L188.2 96.7L188.3 96.7Q188.7 96.8 189.0 96.8Q189.3 96.7 189.6 96.5Q189.8 96.2 190.0 95.7L190.0 95.7L190.2 95.0L187.3 87.4L188.7 87.4L190.3 91.9Q190.5 92.6 190.7 93.3L190.7 93.3Q190.8 93.6 190.9 93.9L190.9 93.9Q190.9 93.6 191.0 93.3L191.0 93.3Q191.2 92.6 191.5 91.9L191.5 91.9L193.1 87.4L194.4 87.4L191.1 96.1Q190.9 96.8 190.5 97.1Q190.2 97.5 189.8 97.7Q189.3 97.9 188.8 97.9L188.8 97.9Q188.5 97.9 188.2 97.9Q188.0 97.8 187.9 97.8ZM198.7 86.0L195.5 86.0L195.5 84.8L203.2 84.8L203.2 86.0L200.0 86.0L200.0 95L198.7 95L198.7 86.0ZM208.0 95.2L208.0 95.2Q207.0 95.2 206.2 94.7Q205.4 94.2 205.0 93.3Q204.6 92.4 204.6 91.2L204.6 91.2Q204.6 90.0 205.0 89.1Q205.4 88.2 206.2 87.8Q207.0 87.3 208.0 87.3L208.0 87.3Q209.1 87.3 209.9 87.8Q210.7 88.2 211.1 89.1Q211.5 90.0 211.5 91.2L211.5 91.2Q211.5 92.4 211.1 93.3Q210.7 94.2 209.9 94.7Q209.1 95.2 208.0 95.2ZM208.0 94.1L208.0 94.1Q208.8 94.1 209.3 93.7Q209.8 93.3 210.0 92.6Q210.3 92.0 210.3 91.2L210.3 91.2Q210.3 90.5 210.0 89.8Q209.8 89.2 209.3 88.8Q208.8 88.4 208.0 88.4L208.0 88.4Q207.3 88.4 206.8 88.8Q206.3 89.2 206.0 89.8Q205.8 90.5 205.8 91.2L205.8 91.2Q205.8 92.0 206.0 92.6Q206.3 93.3 206.8 93.7Q207.3 94.1 208.0 94.1ZM214.6 95L213.3 95L213.3 87.4L214.5 87.4L214.5 88.5L214.6 88.5Q214.8 88.0 215.3 87.6Q215.9 87.2 216.6 87.2L216.6 87.2Q216.7 87.2 216.9 87.3Q217.1 87.3 217.2 87.3L217.2 87.3L217.2 88.5Q217.1 88.5 216.9 88.5Q216.7 88.4 216.5 88.4L216.5 88.4Q215.9 88.4 215.5 88.7Q215.0 88.9 214.8 89.3Q214.6 89.7 214.6 90.2L214.6 90.2L214.6 95ZM221.7 95.2L221.7 95.2Q220.7 95.2 219.9 94.7Q219.1 94.2 218.7 93.3Q218.2 92.4 218.2 91.2L218.2 91.2Q218.2 90.0 218.7 89.1Q219.1 88.2 219.9 87.8Q220.7 87.3 221.7 87.3L221.7 87.3Q222.3 87.3 222.7 87.4Q223.2 87.5 223.6 87.8Q224.1 88.1 224.3 88.5Q224.6 88.9 224.8 89.4L224.8 89.4L223.6 89.7Q223.5 89.4 223.4 89.2Q223.2 88.9 222.9 88.7Q222.7 88.6 222.4 88.5Q222.1 88.4 221.7 88.4L221.7 88.4Q220.9 88.4 220.4 88.8Q220.0 89.2 219.7 89.8Q219.5 90.5 219.5 91.2L219.5 91.2Q219.5 92.0 219.7 92.6Q220.0 93.3 220.4 93.7Q220.9 94.1 221.7 94.1L221.7 94.1Q222.1 94.1 222.4 94.0Q222.7 93.9 223.0 93.7Q223.2 93.5 223.4 93.2Q223.6 93.0 223.7 92.7L223.7 92.7L224.8 93.0Q224.7 93.5 224.4 93.9Q224.1 94.3 223.7 94.6Q223.3 94.9 222.8 95.0Q222.3 95.2 221.7 95.2ZM227.8 90.4L227.8 90.4L227.8 95L226.6 95L226.6 84.8L227.8 84.8L227.8 88.7Q228.1 88.0 228.6 87.7L228.6 87.7Q229.2 87.3 230.1 87.3L230.1 87.3Q230.9 87.3 231.5 87.6Q232.1 87.9 232.4 88.5Q232.7 89.2 232.7 90.1L232.7 90.1L232.7 95L231.5 95L231.5 90.2Q231.5 89.4 231.0 88.9Q230.5 88.4 229.7 88.4L229.7 88.4Q229.2 88.4 228.8 88.6Q228.3 88.8 228.1 89.3Q227.8 89.8 227.8 90.4Z "/></g><defs><clipPath id="satori_bc-id-3-1-1" clip-path="url(#satori_cp-id)"><path x="263" y="74" width="105" height="31" d="M271,74 h89 a8,8 0 0 1 8,8 v15 a8,8 0 0 1 -8,8 h-89 a8,8 0 0 1 -8,-8 v-15 a8,8 0 0 1 8,-8"/></clipPath></defs><mask id="satori_om-id-3-1-1"><rect x="264" y="75" width="103" height="29" fill="#fff" mask="url(#satori_om-id)"/><path width="105" height="31" fill="none" stroke="#000" stroke-width="2" d="M265.343,76.343 A8,8 0 0 1 271,74 h89 a8,8 0 0 1 8,8 v15 a8,8 0 0 1 -8,8 h-89 a8,8 0 0 1 -8,-8 v-15 A8,8 0 0 1 265.343,76.343"/></mask><path x="263" y="74" width="105" height="31" fill="#18181b" d="M271,74 h89 a8,8 0 0 1 8,8 v15 a8,8 0 0 1 -8,8 h-89 a8,8 0 0 1 -8,-8 v-15 a8,8 0 0 1 8,-8" clip-path="url(#satori_cp-id)" mask="url(#satori_om-id)"/><path width="105" height="31" clip-path="url(#satori_bc-id-3-1-1)" fill="none" stroke="#27272a" stroke-width="2" d="M265.343,76.343 A8,8 0 0 1 271,74 h89 a8,8 0 0 1 8,8 v15 a8,8 0 0 1 -8,8 h-89 a8,8 0 0 1 -8,-8 v-15 A8,8 0 0 1 265.343,76.343"/><g mask="url(#satori_om-id)" clip-path="url(#satori_cp-id)"><path fill="#e4e4e7" d="M287.2 95L281.2 95L281.2 84.8L282.5 84.8L282.5 93.9L287.2 93.9L287.2 95ZM291.1 95.2L291.1 95.2Q290.4 95.2 289.8 94.9Q289.2 94.6 288.9 94.1Q288.5 93.6 288.5 92.8L288.5 92.8Q288.5 92.2 288.8 91.8Q289.1 91.3 289.5 91.1Q289.9 90.9 290.4 90.8Q291.0 90.6 291.5 90.6L291.5 90.6Q292.2 90.5 292.6 90.4Q293.0 90.4 293.3 90.3Q293.5 90.2 293.5 89.9L293.5 89.9L293.5 89.8Q293.5 89.4 293.3 89.0Q293.1 88.7 292.8 88.5Q292.4 88.3 291.9 88.3L291.9 88.3Q291.3 88.3 290.9 88.5Q290.5 88.7 290.3 88.9Q290.1 89.2 289.9 89.5L289.9 89.5L288.8 89.1Q289.0 88.4 289.5 88.0Q290.0 87.6 290.6 87.4Q291.2 87.3 291.8 87.3L291.8 87.3Q292.2 87.3 292.7 87.4Q293.2 87.4 293.6 87.7Q294.1 88.0 294.4 88.5Q294.7 89.1 294.7 90.0L294.7 90.0L294.7 95L293.5 95L293.5 94.0L293.4 94.0Q293.3 94.2 293.0 94.5Q292.7 94.8 292.2 95.0Q291.8 95.2 291.1 95.2ZM291.3 94.1L291.3 94.1Q292.0 94.1 292.5 93.8Q293.0 93.6 293.2 93.1Q293.5 92.7 293.5 92.2L293.5 92.2L293.5 91.2Q293.4 91.3 293.1 91.3Q292.9 91.4 292.6 91.5Q292.2 91.5 291.9 91.6Q291.6 91.6 291.5 91.6L291.5 91.6Q291.0 91.7 290.6 91.8Q290.2 91.9 290.0 92.2Q289.8 92.5 289.8 92.9L289.8 92.9Q289.8 93.3 290.0 93.6Q290.2 93.8 290.5 94.0Q290.9 94.1 291.3 94.1ZM298.1 90.4L298.1 90.4L298.1 95L296.9 95L296.9 87.4L298.0 87.4L298.0 88.8Q298.4 88.1 298.9 87.7L298.9 87.7Q299.5 87.3 300.4 87.3L300.4 87.3Q301.2 87.3 301.7 87.6Q302.3 87.9 302.6 88.5Q303.0 89.2 303.0 90.1L303.0 90.1L303.0 95L301.7 95L301.7 90.2Q301.7 89.4 301.3 88.9Q300.8 88.4 300.0 88.4L300.0 88.4Q299.5 88.4 299.0 88.6Q298.6 88.8 298.3 89.3Q298.1 89.8 298.1 90.4ZM308.2 98.0L308.2 98.0Q307.4 98.0 306.8 97.8Q306.1 97.6 305.7 97.2Q305.3 96.9 305.1 96.5L305.1 96.5L306.1 95.8Q306.2 96.0 306.5 96.3Q306.7 96.6 307.1 96.8Q307.6 96.9 308.2 96.9L308.2 96.9Q309.1 96.9 309.7 96.5Q310.3 96.1 310.3 95.1L310.3 95.1L310.3 93.6L310.2 93.6Q310.1 93.8 309.8 94.1Q309.6 94.4 309.2 94.6Q308.7 94.9 308.0 94.9L308.0 94.9Q307.1 94.9 306.3 94.4Q305.6 94.0 305.2 93.2Q304.8 92.3 304.8 91.1L304.8 91.1Q304.8 90.0 305.2 89.1Q305.6 88.2 306.3 87.7Q307.1 87.3 308.0 87.3L308.0 87.3Q308.8 87.3 309.2 87.5Q309.6 87.7 309.9 88.1Q310.1 88.4 310.2 88.6L310.2 88.6L310.4 88.6L310.4 87.4L311.6 87.4L311.6 95.2Q311.6 96.2 311.1 96.8Q310.7 97.4 309.9 97.7Q309.2 98.0 308.2 98.0ZM308.2 93.8L308.2 93.8Q308.9 93.8 309.4 93.5Q309.8 93.1 310.1 92.5Q310.3 92.0 310.3 91.1L310.3 91.1Q310.3 90.3 310.1 89.7Q309.9 89.1 309.4 88.7Q308.9 88.4 308.2 88.4L308.2 88.4Q307.5 88.4 307.0 88.7Q306.5 89.1 306.3 89.7Q306.0 90.4 306.0 91.1L306.0 91.1Q306.0 91.9 306.3 92.5Q306.5 93.1 307.0 93.4Q307.5 93.8 308.2 93.8ZM318.0 95.1L318.0 95.1Q316.7 95.1 315.7 94.5Q314.6 93.9 314.1 92.7Q313.5 91.5 313.5 89.9L313.5 89.9Q313.5 88.3 314.1 87.1Q314.6 85.9 315.7 85.3Q316.7 84.7 318.0 84.7L318.0 84.7Q318.8 84.7 319.4 84.9Q320.1 85.1 320.7 85.6Q321.2 86.0 321.6 86.6Q322.0 87.2 322.1 88.0L322.1 88.0L320.8 88.0Q320.7 87.5 320.4 87.1Q320.2 86.7 319.8 86.4Q319.4 86.2 318.9 86.0Q318.5 85.9 318.0 85.9L318.0 85.9Q317.1 85.9 316.3 86.3Q315.6 86.8 315.2 87.7Q314.7 88.6 314.7 89.9L314.7 89.9Q314.7 91.2 315.2 92.1Q315.6 93.0 316.3 93.5Q317.1 93.9 318.0 93.9L318.0 93.9Q318.5 93.9 318.9 93.8Q319.4 93.7 319.8 93.4Q320.2 93.1 320.4 92.7Q320.7 92.3 320.8 91.8L320.8 91.8L322.1 91.8Q322.0 92.6 321.6 93.2Q321.2 93.8 320.7 94.2Q320.1 94.7 319.5 94.9Q318.8 95.1 318.0 95.1ZM325.2 90.4L325.2 90.4L325.2 95L323.9 95L323.9 84.8L325.2 84.8L325.2 88.7Q325.5 88.0 326.0 87.7L326.0 87.7Q326.6 87.3 327.5 87.3L327.5 87.3Q328.2 87.3 328.8 87.6Q329.4 87.9 329.7 88.5Q330.1 89.2 330.1 90.1L330.1 90.1L330.1 95L328.8 95L328.8 90.2Q328.8 89.4 328.4 88.9Q327.9 88.4 327.1 88.4L327.1 88.4Q326.6 88.4 326.1 88.6Q325.7 88.8 325.4 89.3Q325.2 89.8 325.2 90.4ZM334.4 95.2L334.4 95.2Q333.6 95.2 333.0 94.9Q332.5 94.6 332.1 94.1Q331.8 93.6 331.8 92.8L331.8 92.8Q331.8 92.2 332.0 91.8Q332.3 91.3 332.7 91.1Q333.1 90.9 333.7 90.8Q334.2 90.6 334.7 90.6L334.7 90.6Q335.4 90.5 335.8 90.4Q336.3 90.4 336.5 90.3Q336.7 90.2 336.7 89.9L336.7 89.9L336.7 89.8Q336.7 89.4 336.5 89.0Q336.3 88.7 336.0 88.5Q335.6 88.3 335.1 88.3L335.1 88.3Q334.5 88.3 334.2 88.5Q333.8 88.7 333.5 88.9Q333.3 89.2 333.2 89.5L333.2 89.5L332.0 89.1Q332.3 88.4 332.8 88.0Q333.3 87.6 333.9 87.4Q334.5 87.3 335.1 87.3L335.1 87.3Q335.4 87.3 335.9 87.4Q336.4 87.4 336.9 87.7Q337.3 88.0 337.6 88.5Q337.9 89.1 337.9 90.0L337.9 90.0L337.9 95L336.7 95L336.7 94.0L336.6 94.0Q336.5 94.2 336.2 94.5Q335.9 94.8 335.5 95.0Q335.0 95.2 334.4 95.2ZM334.6 94.1L334.6 94.1Q335.3 94.1 335.7 93.8Q336.2 93.6 336.4 93.1Q336.7 92.7 336.7 92.2L336.7 92.2L336.7 91.2Q336.6 91.3 336.4 91.3Q336.1 91.4 335.8 91.5Q335.5 91.5 335.2 91.6Q334.9 91.6 334.7 91.6L334.7 91.6Q334.2 91.7 333.8 91.8Q333.5 91.9 333.2 92.2Q333.0 92.5 333.0 92.9L333.0 92.9Q333.0 93.3 333.2 93.6Q333.4 93.8 333.8 94.0Q334.1 94.1 334.6 94.1ZM341.3 95L340.1 95L340.1 87.4L341.3 87.4L341.3 95ZM340.7 86.1L340.7 86.1Q340.4 86.1 340.1 85.9Q339.8 85.6 339.8 85.3L339.8 85.3Q339.8 85.0 340.1 84.7Q340.4 84.5 340.7 84.5L340.7 84.5Q341.1 84.5 341.3 84.7Q341.6 85.0 341.6 85.3L341.6 85.3Q341.6 85.6 341.3 85.9Q341.1 86.1 340.7 86.1ZM344.7 90.4L344.7 90.4L344.7 95L343.5 95L343.5 87.4L344.7 87.4L344.7 88.8Q345.0 88.1 345.5 87.7L345.5 87.7Q346.1 87.3 347.0 87.3L347.0 87.3Q347.8 87.3 348.4 87.6Q348.9 87.9 349.3 88.5Q349.6 89.2 349.6 90.1L349.6 90.1L349.6 95L348.4 95L348.4 90.2Q348.4 89.4 347.9 88.9Q347.4 88.4 346.6 88.4L346.6 88.4Q346.1 88.4 345.6 88.6Q345.2 88.8 345.0 89.3Q344.7 89.8 344.7 90.4Z "/></g><defs><clipPath id="satori_bc-id-3-1-2" clip-path="url(#satori_cp-id)"><path x="380" y="74" width="80" height="31" d="M388,74 h64 a8,8 0 0 1 8,8 v15 a8,8 0 0 1 -8,8 h-64 a8,8 0 0 1 -8,-8 v-15 a8,8 0 0 1 8,-8"/></clipPath></defs><mask id="satori_om-id-3-1-2"><rect x="381" y="75" width="78" height="29" fill="#fff" mask="url(#satori_om-id)"/><path width="80" height="31" fill="none" stroke="#000" stroke-width="2" d="M382.343,76.343 A8,8 0 0 1 388,74 h64 a8,8 0 0 1 8,8 v15 a8,8 0 0 1 -8,8 h-64 a8,8 0 0 1 -8,-8 v-15 A8,8 0 0 1 382.343,76.343"/></mask><path x="380" y="74" width="80" height="31" fill="#18181b" d="M388,74 h64 a8,8 0 0 1 8,8 v15 a8,8 0 0 1 -8,8 h-64 a8,8 0 0 1 -8,-8 v-15 a8,8 0 0 1 8,-8" clip-path="url(#satori_cp-id)" mask="url(#satori_om-id)"/><path width="80" height="31" clip-path="url(#satori_bc-id-3-1-2)" fill="none" stroke="#27272a" stroke-width="2" d="M382.343,76.343 A8,8 0 0 1 388,74 h64 a8,8 0 0 1 8,8 v15 a8,8 0 0 1 -8,8 h-64 a8,8 0 0 1 -8,-8 v-15 A8,8 0 0 1 382.343,76.343"/><g mask="url(#satori_om-id)" clip-path="url(#satori_cp-id)"><path fill="#e4e4e7" d="M402.4 95.1L402.4 95.1Q401.1 95.1 400.0 94.5Q399.0 93.9 398.4 92.7Q397.8 91.5 397.8 89.9L397.8 89.9Q397.8 88.3 398.4 87.1Q399.0 85.9 400.0 85.3Q401.1 84.7 402.4 84.7L402.4 84.7Q403.7 84.7 404.7 85.3Q405.7 85.9 406.3 87.1Q406.9 88.3 406.9 89.9L406.9 89.9Q406.9 91.5 406.3 92.7Q405.7 93.9 404.7 94.5Q403.7 95.1 402.4 95.1ZM402.4 93.9L402.4 93.9Q403.3 93.9 404.0 93.5Q404.7 93.0 405.2 92.1Q405.6 91.2 405.6 89.9L405.6 89.9Q405.6 88.6 405.2 87.7Q404.7 86.8 404.0 86.3Q403.3 85.9 402.4 85.9L402.4 85.9Q401.4 85.9 400.7 86.3Q400.0 86.8 399.5 87.7Q399.1 88.6 399.1 89.9L399.1 89.9Q399.1 91.2 399.5 92.1Q400.0 93.0 400.7 93.5Q401.4 93.9 402.4 93.9ZM408.8 84.8L410.0 84.8L410.0 95L408.8 95L408.8 84.8ZM412.2 84.8L413.4 84.8L413.4 95L412.2 95L412.2 84.8ZM417.7 95.2L417.7 95.2Q417.0 95.2 416.4 94.9Q415.8 94.6 415.5 94.1Q415.1 93.6 415.1 92.8L415.1 92.8Q415.1 92.2 415.4 91.8Q415.6 91.3 416.1 91.1Q416.5 90.9 417.0 90.8Q417.5 90.6 418.1 90.6L418.1 90.6Q418.8 90.5 419.2 90.4Q419.6 90.4 419.8 90.3Q420.0 90.2 420.0 89.9L420.0 89.9L420.0 89.8Q420.0 89.4 419.9 89.0Q419.7 88.7 419.3 88.5Q419.0 88.3 418.4 88.3L418.4 88.3Q417.9 88.3 417.5 88.5Q417.1 88.7 416.9 88.9Q416.6 89.2 416.5 89.5L416.5 89.5L415.3 89.1Q415.6 88.4 416.1 88.0Q416.6 87.6 417.2 87.4Q417.8 87.3 418.4 87.3L418.4 87.3Q418.8 87.3 419.3 87.4Q419.8 87.4 420.2 87.7Q420.7 88.0 421.0 88.5Q421.3 89.1 421.3 90.0L421.3 90.0L421.3 95L420.1 95L420.1 94.0L420.0 94.0Q419.8 94.2 419.6 94.5Q419.3 94.8 418.8 95.0Q418.4 95.2 417.7 95.2ZM417.9 94.1L417.9 94.1Q418.6 94.1 419.1 93.8Q419.5 93.6 419.8 93.1Q420.0 92.7 420.0 92.2L420.0 92.2L420.0 91.2Q420.0 91.3 419.7 91.3Q419.5 91.4 419.1 91.5Q418.8 91.5 418.5 91.6Q418.2 91.6 418.0 91.6L418.0 91.6Q417.6 91.7 417.2 91.8Q416.8 91.9 416.6 92.2Q416.3 92.5 416.3 92.9L416.3 92.9Q416.3 93.3 416.5 93.6Q416.7 93.8 417.1 94.0Q417.5 94.1 417.9 94.1ZM424.7 95L423.4 95L423.4 87.4L424.6 87.4L424.6 88.8Q424.8 88.3 425.0 88.0L425.0 88.0Q425.4 87.6 425.8 87.4Q426.3 87.2 426.8 87.2L426.8 87.2Q427.6 87.2 428.1 87.7L428.1 87.7Q428.5 88.2 428.7 88.8L428.7 88.8Q428.9 88.4 429.1 88.1L429.1 88.1Q429.5 87.7 430.0 87.4Q430.5 87.2 431.1 87.2L431.1 87.2Q431.8 87.2 432.3 87.5Q432.9 87.8 433.2 88.4Q433.5 89.0 433.5 89.8L433.5 89.8L433.5 95L432.3 95L432.3 89.9Q432.3 89.1 431.8 88.7Q431.4 88.3 430.8 88.3L430.8 88.3Q430.2 88.3 429.9 88.6Q429.5 88.8 429.3 89.1Q429.1 89.5 429.1 90.0L429.1 90.0L429.1 95L427.9 95L427.9 89.8Q427.9 89.1 427.4 88.7Q427.0 88.3 426.4 88.3L426.4 88.3Q425.9 88.3 425.5 88.6Q425.1 88.8 424.9 89.2Q424.7 89.6 424.7 90.2L424.7 90.2L424.7 95ZM437.8 95.2L437.8 95.2Q437.1 95.2 436.5 94.9Q435.9 94.6 435.6 94.1Q435.2 93.6 435.2 92.8L435.2 92.8Q435.2 92.2 435.5 91.8Q435.7 91.3 436.2 91.1Q436.6 90.9 437.1 90.8Q437.7 90.6 438.2 90.6L438.2 90.6Q438.9 90.5 439.3 90.4Q439.7 90.4 440.0 90.3Q440.2 90.2 440.2 89.9L440.2 89.9L440.2 89.8Q440.2 89.4 440.0 89.0Q439.8 88.7 439.5 88.5Q439.1 88.3 438.6 88.3L438.6 88.3Q438.0 88.3 437.6 88.5Q437.2 88.7 437.0 88.9Q436.8 89.2 436.6 89.5L436.6 89.5L435.4 89.1Q435.7 88.4 436.2 88.0Q436.7 87.6 437.3 87.4Q437.9 87.3 438.5 87.3L438.5 87.3Q438.9 87.3 439.4 87.4Q439.9 87.4 440.3 87.7Q440.8 88.0 441.1 88.5Q441.4 89.1 441.4 90.0L441.4 90.0L441.4 95L440.2 95L440.2 94.0L440.1 94.0Q440.0 94.2 439.7 94.5Q439.4 94.8 438.9 95.0Q438.5 95.2 437.8 95.2ZM438.0 94.1L438.0 94.1Q438.7 94.1 439.2 93.8Q439.7 93.6 439.9 93.1Q440.2 92.7 440.2 92.2L440.2 92.2L440.2 91.2Q440.1 91.3 439.8 91.3Q439.6 91.4 439.3 91.5Q438.9 91.5 438.6 91.6Q438.3 91.6 438.1 91.6L438.1 91.6Q437.7 91.7 437.3 91.8Q436.9 91.9 436.7 92.2Q436.5 92.5 436.5 92.9L436.5 92.9Q436.5 93.3 436.7 93.6Q436.9 93.8 437.2 94.0Q437.6 94.1 438.0 94.1Z "/></g><defs><clipPath id="satori_bc-id-3-1-3" clip-path="url(#satori_cp-id)"><path x="472" y="74" width="74" height="31" d="M480,74 h58 a8,8 0 0 1 8,8 v15 a8,8 0 0 1 -8,8 h-58 a8,8 0 0 1 -8,-8 v-15 a8,8 0 0 1 8,-8"/></clipPath></defs><mask id="satori_om-id-3-1-3"><rect x="473" y="75" width="72" height="29" fill="#fff" mask="url(#satori_om-id)"/><path width="74" height="31" fill="none" stroke="#000" stroke-width="2" d="M474.343,76.343 A8,8 0 0 1 480,74 h58 a8,8 0 0 1 8,8 v15 a8,8 0 0 1 -8,8 h-58 a8,8 0 0 1 -8,-8 v-15 A8,8 0 0 1 474.343,76.343"/></mask><path x="472" y="74" width="74" height="31" fill="#18181b" d="M480,74 h58 a8,8 0 0 1 8,8 v15 a8,8 0 0 1 -8,8 h-58 a8,8 0 0 1 -8,-8 v-15 a8,8 0 0 1 8,-8" clip-path="url(#satori_cp-id)" mask="url(#satori_om-id)"/><path width="74" height="31" clip-path="url(#satori_bc-id-3-1-3)" fill="none" stroke="#27272a" stroke-width="2" d="M474.343,76.343 A8,8 0 0 1 480,74 h58 a8,8 0 0 1 8,8 v15 a8,8 0 0 1 -8,8 h-58 a8,8 0 0 1 -8,-8 v-15 A8,8 0 0 1 474.343,76.343"/><g mask="url(#satori_om-id)" clip-path="url(#satori_cp-id)"><path fill="#e4e4e7" d="M491.5 95L490.2 95L490.2 84.8L496.4 84.8L496.4 86.0L491.5 86.0L491.5 89.4L495.9 89.4L495.9 90.6L491.5 90.6L491.5 95ZM499.0 95L497.6 95L501.3 84.8L502.8 84.8L506.6 95L505.2 95L504.2 92.2L500.0 92.2L499.0 95ZM500.4 91.0L503.8 91.0L503.0 89.0Q502.8 88.4 502.6 87.6L502.6 87.6Q502.4 86.9 502.1 85.9L502.1 85.9Q501.8 86.9 501.6 87.6L501.6 87.6Q501.3 88.4 501.1 89.0L501.1 89.0L500.4 91.0ZM508.2 84.8L509.5 84.8L509.5 95L508.2 95L508.2 84.8ZM515.2 95.2L515.2 95.2Q514.1 95.2 513.3 94.8Q512.5 94.5 512.0 93.8Q511.5 93.2 511.5 92.3L511.5 92.3L512.8 92.3Q512.9 92.9 513.2 93.3Q513.5 93.7 514.1 93.8Q514.6 94.0 515.2 94.0L515.2 94.0Q515.9 94.0 516.4 93.8Q517.0 93.6 517.3 93.2Q517.6 92.7 517.6 92.2L517.6 92.2Q517.6 91.7 517.3 91.4Q517.1 91.1 516.6 90.9Q516.1 90.7 515.6 90.5L515.6 90.5L514.4 90.2Q513.1 89.9 512.4 89.2Q511.8 88.6 511.8 87.5L511.8 87.5Q511.8 86.7 512.2 86.0Q512.7 85.4 513.5 85.0Q514.3 84.7 515.3 84.7L515.3 84.7Q516.3 84.7 517.0 85.0Q517.8 85.4 518.3 86.0Q518.7 86.6 518.7 87.4L518.7 87.4L517.5 87.4Q517.4 86.6 516.8 86.2Q516.1 85.8 515.2 85.8L515.2 85.8Q514.6 85.8 514.1 86.0Q513.6 86.3 513.3 86.6Q513.0 87.0 513.0 87.5L513.0 87.5Q513.0 88.0 513.4 88.3Q513.7 88.7 514.1 88.8Q514.6 89.0 515.0 89.1L515.0 89.1L516.0 89.4Q516.4 89.5 516.9 89.7Q517.4 89.9 517.8 90.2Q518.3 90.5 518.6 91.0Q518.9 91.5 518.9 92.2L518.9 92.2Q518.9 93.1 518.4 93.7Q518.0 94.4 517.2 94.8Q516.4 95.2 515.2 95.2ZM524.2 95.2L524.2 95.2Q523.1 95.2 522.2 94.8Q521.4 94.5 521.0 93.8Q520.5 93.2 520.5 92.3L520.5 92.3L521.8 92.3Q521.8 92.9 522.2 93.3Q522.5 93.7 523.0 93.8Q523.6 94.0 524.2 94.0L524.2 94.0Q524.8 94.0 525.4 93.8Q525.9 93.6 526.3 93.2Q526.6 92.7 526.6 92.2L526.6 92.2Q526.6 91.7 526.3 91.4Q526.0 91.1 525.6 90.9Q525.1 90.7 524.6 90.5L524.6 90.5L523.3 90.2Q522.1 89.9 521.4 89.2Q520.7 88.6 520.7 87.5L520.7 87.5Q520.7 86.7 521.2 86.0Q521.7 85.4 522.5 85.0Q523.3 84.7 524.2 84.7L524.2 84.7Q525.3 84.7 526.0 85.0Q526.8 85.4 527.2 86.0Q527.7 86.6 527.7 87.4L527.7 87.4L526.4 87.4Q526.4 86.6 525.7 86.2Q525.1 85.8 524.2 85.8L524.2 85.8Q523.5 85.8 523.1 86.0Q522.6 86.3 522.3 86.6Q522.0 87.0 522.0 87.5L522.0 87.5Q522.0 88.0 522.3 88.3Q522.7 88.7 523.1 88.8Q523.6 89.0 524.0 89.1L524.0 89.1L525.0 89.4Q525.4 89.5 525.9 89.7Q526.4 89.9 526.8 90.2Q527.3 90.5 527.6 91.0Q527.9 91.5 527.9 92.2L527.9 92.2Q527.9 93.1 527.4 93.7Q527.0 94.4 526.2 94.8Q525.3 95.2 524.2 95.2Z "/></g><defs><clipPath id="satori_bc-id-3-1-4" clip-path="url(#satori_cp-id)"><path x="558" y="74" width="113" height="31" d="M566,74 h97 a8,8 0 0 1 8,8 v15 a8,8 0 0 1 -8,8 h-97 a8,8 0 0 1 -8,-8 v-15 a8,8 0 0 1 8,-8"/></clipPath></defs><mask id="satori_om-id-3-1-4"><rect x="559" y="75" width="111" height="29" fill="#fff" mask="url(#satori_om-id)"/><path width="113" height="31" fill="none" stroke="#000" stroke-width="2" d="M560.343,76.343 A8,8 0 0 1 566,74 h97 a8,8 0 0 1 8,8 v15 a8,8 0 0 1 -8,8 h-97 a8,8 0 0 1 -8,-8 v-15 A8,8 0 0 1 560.343,76.343"/></mask><path x="558" y="74" width="113" height="31" fill="#18181b" d="M566,74 h97 a8,8 0 0 1 8,8 v15 a8,8 0 0 1 -8,8 h-97 a8,8 0 0 1 -8,-8 v-15 a8,8 0 0 1 8,-8" clip-path="url(#satori_cp-id)" mask="url(#satori_om-id)"/><path width="113" height="31" clip-path="url(#satori_bc-id-3-1-4)" fill="none" stroke="#27272a" stroke-width="2" d="M560.343,76.343 A8,8 0 0 1 566,74 h97 a8,8 0 0 1 8,8 v15 a8,8 0 0 1 -8,8 h-97 a8,8 0 0 1 -8,-8 v-15 A8,8 0 0 1 560.343,76.343"/><g mask="url(#satori_om-id)" clip-path="url(#satori_cp-id)"><path fill="#e4e4e7" d="M578.9 86.0L575.7 86.0L575.7 84.8L583.4 84.8L583.4 86.0L580.2 86.0L580.2 95L578.9 95L578.9 86.0ZM588.3 95.2L588.3 95.2Q587.2 95.2 586.4 94.7Q585.6 94.2 585.2 93.3Q584.7 92.4 584.7 91.2Q584.7 90.1 585.2 89.2Q585.6 88.3 586.4 87.8Q587.1 87.3 588.2 87.3L588.2 87.3Q588.8 87.3 589.4 87.5Q590.0 87.7 590.5 88.1Q590.9 88.6 591.2 89.3Q591.5 90.0 591.5 91.1L591.5 91.1L591.5 91.6L586.0 91.6Q586.0 92.3 586.3 92.9L586.3 92.9Q586.6 93.5 587.1 93.8Q587.6 94.1 588.3 94.1L588.3 94.1Q588.8 94.1 589.2 93.9Q589.5 93.8 589.8 93.5Q590.1 93.3 590.2 92.9L590.2 92.9L591.4 93.2Q591.2 93.8 590.8 94.2Q590.4 94.7 589.7 94.9Q589.1 95.2 588.3 95.2ZM586.0 90.6L586.0 90.6L590.3 90.6Q590.2 90.0 590.0 89.6L590.0 89.6Q589.8 89.0 589.3 88.7Q588.9 88.4 588.2 88.4Q587.5 88.4 587.0 88.7Q586.5 89.0 586.3 89.6L586.3 89.6Q586.0 90.0 586.0 90.6ZM594.5 90.4L594.5 90.4L594.5 95L593.3 95L593.3 87.4L594.5 87.4L594.5 88.8Q594.8 88.1 595.3 87.7L595.3 87.7Q595.9 87.3 596.8 87.3L596.8 87.3Q597.6 87.3 598.2 87.6Q598.7 87.9 599.1 88.5Q599.4 89.2 599.4 90.1L599.4 90.1L599.4 95L598.2 95L598.2 90.2Q598.2 89.4 597.7 88.9Q597.2 88.4 596.4 88.4L596.4 88.4Q595.9 88.4 595.5 88.6Q595.0 88.8 594.8 89.3Q594.5 89.8 594.5 90.4ZM604.1 95.2L604.1 95.2Q603.4 95.2 602.8 94.9Q602.1 94.7 601.7 94.3Q601.3 93.8 601.2 93.1L601.2 93.1L602.4 92.9Q602.5 93.5 603.0 93.8Q603.5 94.1 604.1 94.1L604.1 94.1Q604.9 94.1 605.4 93.7Q605.9 93.4 605.9 92.9L605.9 92.9Q605.9 92.5 605.6 92.3Q605.3 92.0 604.8 91.9L604.8 91.9L603.5 91.6Q602.5 91.3 601.9 90.8Q601.4 90.3 601.4 89.5L601.4 89.5Q601.4 88.8 601.8 88.3Q602.2 87.8 602.8 87.5Q603.5 87.3 604.3 87.3L604.3 87.3Q605.1 87.3 605.6 87.5Q606.2 87.7 606.5 88.1Q606.8 88.6 607.0 89.1L607.0 89.1L605.9 89.4Q605.7 89.0 605.4 88.6Q605.0 88.3 604.3 88.3L604.3 88.3Q603.6 88.3 603.1 88.6Q602.7 88.9 602.7 89.4L602.7 89.4Q602.7 89.8 603.0 90.1Q603.3 90.4 604.0 90.5L604.0 90.5L605.1 90.8Q606.2 91.0 606.7 91.5Q607.2 92.1 607.2 92.8L607.2 92.8Q607.2 93.5 606.8 94.0Q606.4 94.6 605.7 94.9Q605.0 95.2 604.1 95.2ZM612.1 95.2L612.1 95.2Q611.0 95.2 610.2 94.7Q609.4 94.2 609.0 93.3Q608.6 92.4 608.6 91.2L608.6 91.2Q608.6 90.0 609.0 89.1Q609.4 88.2 610.2 87.8Q611.0 87.3 612.1 87.3L612.1 87.3Q613.1 87.3 613.9 87.8Q614.7 88.2 615.1 89.1Q615.5 90.0 615.5 91.2L615.5 91.2Q615.5 92.4 615.1 93.3Q614.7 94.2 613.9 94.7Q613.1 95.2 612.1 95.2ZM612.1 94.1L612.1 94.1Q612.8 94.1 613.3 93.7Q613.8 93.3 614.1 92.6Q614.3 92.0 614.3 91.2L614.3 91.2Q614.3 90.5 614.1 89.8Q613.8 89.2 613.3 88.8Q612.8 88.4 612.1 88.4L612.1 88.4Q611.3 88.4 610.8 88.8Q610.3 89.2 610.1 89.8Q609.8 90.5 609.8 91.2L609.8 91.2Q609.8 92.0 610.1 92.6Q610.3 93.3 610.8 93.7Q611.3 94.1 612.1 94.1ZM618.6 95L617.3 95L617.3 87.4L618.5 87.4L618.5 88.5L618.6 88.5Q618.8 88.0 619.4 87.6Q619.9 87.2 620.6 87.2L620.6 87.2Q620.7 87.2 620.9 87.3Q621.1 87.3 621.2 87.3L621.2 87.3L621.2 88.5Q621.2 88.5 620.9 88.5Q620.7 88.4 620.5 88.4L620.5 88.4Q619.9 88.4 619.5 88.7Q619.1 88.9 618.8 89.3Q618.6 89.7 618.6 90.2L618.6 90.2L618.6 95ZM624.1 95L622.8 95L622.8 84.8L628.9 84.8L628.9 86.0L624.1 86.0L624.1 89.4L628.5 89.4L628.5 90.6L624.1 90.6L624.1 95ZM630.9 84.8L632.1 84.8L632.1 95L630.9 95L630.9 84.8ZM637.4 95.2L637.4 95.2Q636.3 95.2 635.5 94.7Q634.8 94.2 634.3 93.3Q633.9 92.4 633.9 91.2L633.9 91.2Q633.9 90.0 634.3 89.1Q634.8 88.2 635.5 87.8Q636.3 87.3 637.4 87.3L637.4 87.3Q638.4 87.3 639.2 87.8Q640.0 88.2 640.4 89.1Q640.9 90.0 640.9 91.2L640.9 91.2Q640.9 92.4 640.4 93.3Q640.0 94.2 639.2 94.7Q638.4 95.2 637.4 95.2ZM637.4 94.1L637.4 94.1Q638.1 94.1 638.6 93.7Q639.1 93.3 639.4 92.6Q639.6 92.0 639.6 91.2L639.6 91.2Q639.6 90.5 639.4 89.8Q639.1 89.2 638.6 88.8Q638.1 88.4 637.4 88.4L637.4 88.4Q636.6 88.4 636.1 88.8Q635.6 89.2 635.4 89.8Q635.1 90.5 635.1 91.2L635.1 91.2Q635.1 92.0 635.4 92.6Q635.6 93.3 636.1 93.7Q636.6 94.1 637.4 94.1ZM645.6 95L644.4 95L642.1 87.4L643.4 87.4L644.3 90.7Q644.5 91.4 644.7 92.2L644.7 92.2Q644.9 92.9 645.0 93.7L645.0 93.7Q645.2 92.9 645.3 92.3L645.3 92.3Q645.5 91.4 645.7 90.7L645.7 90.7L646.7 87.4L648.0 87.4L648.9 90.7Q649.1 91.4 649.3 92.3L649.3 92.3Q649.4 92.9 649.6 93.7L649.6 93.7Q649.7 92.9 649.9 92.3L649.9 92.3Q650.1 91.4 650.3 90.7L650.3 90.7L651.2 87.4L652.6 87.4L650.2 95L649.0 95L648.0 91.5Q647.9 91.0 647.7 90.5Q647.6 89.9 647.4 89.3L647.4 89.3Q647.4 89.1 647.3 88.8L647.3 88.8Q647.2 89.0 647.2 89.3L647.2 89.3Q647.0 89.9 646.9 90.5Q646.7 91.0 646.6 91.5L646.6 91.5L645.6 95Z "/></g><mask id="satori_om-id-4"><rect x="41" y="121" width="718" height="31" fill="#fff" mask="url(#satori_om-id)"/></mask><mask id="satori_om-id-4-0"><rect x="41" y="128" width="120" height="17" fill="#fff" mask="url(#satori_om-id)"/></mask><g mask="url(#satori_om-id)" clip-path="url(#satori_cp-id)"><path fill="#60a5fa" d="M46.2 142L41.9 142L41.9 131.8L46.0 131.8Q47.1 131.8 47.8 132.2Q48.6 132.5 49.0 133.1Q49.3 133.7 49.3 134.4L49.3 134.4Q49.3 135.0 49.1 135.5Q48.8 135.9 48.4 136.2Q48.0 136.5 47.5 136.6L47.5 136.6L47.5 136.7Q48.1 136.7 48.6 137.0Q49.1 137.4 49.4 137.9Q49.7 138.4 49.7 139.2L49.7 139.2Q49.7 140.0 49.3 140.6Q48.9 141.3 48.2 141.6Q47.4 142 46.2 142L46.2 142ZM44.0 137.5L44.0 140.3L45.8 140.3Q46.7 140.3 47.2 139.9Q47.6 139.6 47.6 139.0L47.6 139.0Q47.6 138.6 47.4 138.2Q47.2 137.9 46.8 137.7Q46.4 137.5 45.9 137.5L45.9 137.5L44.0 137.5ZM44.0 133.5L44.0 136.1L45.7 136.1Q46.1 136.1 46.5 135.9Q46.8 135.8 47.0 135.5Q47.2 135.2 47.2 134.8L47.2 134.8Q47.2 134.2 46.8 133.9Q46.4 133.5 45.7 133.5L45.7 133.5L44.0 133.5ZM52.9 142L50.6 142L54.1 131.8L56.8 131.8L60.4 142L58.1 142L57.3 139.6L53.7 139.6L52.9 142ZM54.2 138.0L56.7 138.0L56.4 137.1Q56.1 136.1 55.8 135L55.8 135Q55.6 134.3 55.4 133.5L55.4 133.5Q55.2 134.3 55.0 135.0L55.0 135.0Q54.8 136.2 54.5 137.1L54.5 137.1L54.2 138.0ZM66.1 142.1L66.1 142.1Q64.7 142.1 63.7 141.5Q62.6 140.9 62.0 139.7Q61.4 138.6 61.4 136.9L61.4 136.9Q61.4 135.3 62.0 134.1Q62.6 132.9 63.7 132.3Q64.7 131.7 66.1 131.7L66.1 131.7Q67.0 131.7 67.7 131.9Q68.5 132.2 69.0 132.6Q69.6 133.1 70.0 133.8Q70.4 134.4 70.5 135.3L70.5 135.3L68.4 135.3Q68.3 134.9 68.1 134.6Q67.9 134.2 67.6 134.0Q67.3 133.8 66.9 133.6Q66.6 133.5 66.1 133.5L66.1 133.5Q65.3 133.5 64.7 133.9Q64.1 134.3 63.8 135.1Q63.5 135.8 63.5 136.9L63.5 136.9Q63.5 138.0 63.8 138.8Q64.1 139.5 64.7 139.9Q65.3 140.3 66.1 140.3L66.1 140.3Q66.6 140.3 66.9 140.2Q67.3 140.0 67.6 139.8Q67.9 139.6 68.1 139.3Q68.3 138.9 68.4 138.5L68.4 138.5L70.5 138.5Q70.4 139.2 70.1 139.9Q69.7 140.5 69.2 141.0Q68.6 141.5 67.8 141.8Q67.1 142.1 66.1 142.1ZM74.1 142L72.0 142L72.0 131.8L74.1 131.8L74.1 134.6L74.1 136.9Q74.1 136.8 74.1 136.8L74.1 136.8Q74.4 136.3 74.8 135.8Q75.2 135.3 75.6 134.7L75.6 134.7L78.1 131.8L80.7 131.8L76.9 136.2L80.8 142L78.3 142L75.4 137.6L74.1 139.1L74.1 142ZM88.9 142L82.1 142L82.1 131.8L88.9 131.8L88.9 133.5L84.1 133.5L84.1 136.0L88.5 136.0L88.5 137.7L84.1 137.7L84.1 140.3L88.9 140.3L88.9 142ZM92.7 142L90.6 142L90.6 131.8L92.9 131.8L96.1 137.0Q96.4 137.4 96.6 137.8Q96.9 138.3 97.1 138.9L97.1 138.9Q97.3 139.1 97.4 139.5L97.4 139.5Q97.4 139.2 97.4 138.9L97.4 138.9Q97.3 138.3 97.3 137.7Q97.3 137.1 97.3 136.7L97.3 136.7L97.3 131.8L99.4 131.8L99.4 142L97.1 142L94.1 137.3Q93.8 136.8 93.5 136.3Q93.3 135.8 93.0 135.2L93.0 135.2Q92.8 134.8 92.6 134.4L92.6 134.4Q92.6 134.8 92.6 135.2L92.6 135.2Q92.7 135.9 92.7 136.4Q92.7 137.0 92.7 137.3L92.7 137.3L92.7 142ZM104.8 142L104.8 142L101.2 142L101.2 131.8L104.9 131.8Q106.4 131.8 107.5 132.4Q108.6 133.0 109.2 134.2Q109.8 135.3 109.8 136.9L109.8 136.9Q109.8 138.5 109.2 139.6Q108.6 140.8 107.5 141.4Q106.4 142 104.8 142ZM103.3 133.6L103.3 140.2L104.7 140.2Q105.7 140.2 106.4 139.9Q107.0 139.5 107.4 138.8Q107.7 138.0 107.7 136.9L107.7 136.9Q107.7 135.8 107.4 135.0Q107.0 134.3 106.4 134.0Q105.7 133.6 104.7 133.6L104.7 133.6L103.3 133.6Z "/></g><mask id="satori_om-id-4-1"><rect x="161" y="121" width="383" height="31" fill="#fff" mask="url(#satori_om-id)"/></mask><defs><clipPath id="satori_bc-id-4-1-0" clip-path="url(#satori_cp-id)"><path x="161" y="121" width="85" height="31" d="M169,121 h69 a8,8 0 0 1 8,8 v15 a8,8 0 0 1 -8,8 h-69 a8,8 0 0 1 -8,-8 v-15 a8,8 0 0 1 8,-8"/></clipPath></defs><mask id="satori_om-id-4-1-0"><rect x="162" y="122" width="83" height="29" fill="#fff" mask="url(#satori_om-id)"/><path width="85" height="31" fill="none" stroke="#000" stroke-width="2" d="M163.343,123.343 A8,8 0 0 1 169,121 h69 a8,8 0 0 1 8,8 v15 a8,8 0 0 1 -8,8 h-69 a8,8 0 0 1 -8,-8 v-15 A8,8 0 0 1 163.343,123.343"/></mask><path x="161" y="121" width="85" height="31" fill="#18181b" d="M169,121 h69 a8,8 0 0 1 8,8 v15 a8,8 0 0 1 -8,8 h-69 a8,8 0 0 1 -8,-8 v-15 a8,8 0 0 1 8,-8" clip-path="url(#satori_cp-id)" mask="url(#satori_om-id)"/><path width="85" height="31" clip-path="url(#satori_bc-id-4-1-0)" fill="none" stroke="#27272a" stroke-width="2" d="M163.343,123.343 A8,8 0 0 1 169,121 h69 a8,8 0 0 1 8,8 v15 a8,8 0 0 1 -8,8 h-69 a8,8 0 0 1 -8,-8 v-15 A8,8 0 0 1 163.343,123.343"/><g mask="url(#satori_om-id)" clip-path="url(#satori_cp-id)"><path fill="#e4e4e7" d="M180.5 142L179.2 142L179.2 131.8L185.4 131.8L185.4 133.0L180.5 133.0L180.5 136.4L184.9 136.4L184.9 137.6L180.5 137.6L180.5 142ZM189.5 142.2L189.5 142.2Q188.8 142.2 188.2 141.9Q187.6 141.6 187.2 141.1Q186.9 140.6 186.9 139.8L186.9 139.8Q186.9 139.2 187.1 138.8Q187.4 138.3 187.8 138.1Q188.3 137.9 188.8 137.8Q189.3 137.6 189.9 137.6L189.9 137.6Q190.5 137.5 191.0 137.4Q191.4 137.4 191.6 137.3Q191.8 137.2 191.8 136.9L191.8 136.9L191.8 136.8Q191.8 136.4 191.6 136.0Q191.5 135.7 191.1 135.5Q190.7 135.3 190.2 135.3L190.2 135.3Q189.7 135.3 189.3 135.5Q188.9 135.7 188.6 135.9Q188.4 136.2 188.3 136.5L188.3 136.5L187.1 136.1Q187.4 135.4 187.9 135.0Q188.4 134.6 189.0 134.4Q189.6 134.3 190.2 134.3L190.2 134.3Q190.6 134.3 191.1 134.4Q191.5 134.4 192.0 134.7Q192.5 135.0 192.7 135.5Q193.0 136.1 193.0 137.0L193.0 137.0L193.0 142L191.8 142L191.8 141.0L191.8 141.0Q191.6 141.2 191.3 141.5Q191.0 141.8 190.6 142.0Q190.1 142.2 189.5 142.2ZM189.7 141.1L189.7 141.1Q190.4 141.1 190.9 140.8Q191.3 140.6 191.6 140.1Q191.8 139.7 191.8 139.2L191.8 139.2L191.8 138.2Q191.7 138.3 191.5 138.3Q191.2 138.4 190.9 138.5Q190.6 138.5 190.3 138.6Q190.0 138.6 189.8 138.6L189.8 138.6Q189.4 138.7 189.0 138.8Q188.6 138.9 188.3 139.2Q188.1 139.5 188.1 139.9L188.1 139.9Q188.1 140.3 188.3 140.6Q188.5 140.8 188.9 141.0Q189.2 141.1 189.7 141.1ZM197.8 142.2L197.8 142.2Q197.0 142.2 196.4 141.9Q195.8 141.7 195.4 141.3Q195.0 140.8 194.9 140.1L194.9 140.1L196.0 139.9Q196.2 140.5 196.7 140.8Q197.1 141.1 197.8 141.1L197.8 141.1Q198.6 141.1 199.1 140.7Q199.5 140.4 199.5 139.9L199.5 139.9Q199.5 139.5 199.3 139.3Q199.0 139.0 198.4 138.9L198.4 138.9L197.1 138.6Q196.1 138.3 195.6 137.8Q195.1 137.3 195.1 136.5L195.1 136.5Q195.1 135.8 195.5 135.3Q195.8 134.8 196.5 134.5Q197.1 134.3 197.9 134.3L197.9 134.3Q198.7 134.3 199.3 134.5Q199.8 134.7 200.2 135.1Q200.5 135.6 200.7 136.1L200.7 136.1L199.6 136.4Q199.4 136.0 199.0 135.6Q198.7 135.3 197.9 135.3L197.9 135.3Q197.3 135.3 196.8 135.6Q196.3 135.9 196.3 136.4L196.3 136.4Q196.3 136.8 196.6 137.1Q197.0 137.4 197.6 137.5L197.6 137.5L198.8 137.8Q199.8 138.0 200.3 138.5Q200.8 139.1 200.8 139.8L200.8 139.8Q200.8 140.5 200.4 141.0Q200.1 141.6 199.4 141.9Q198.7 142.2 197.8 142.2ZM204.0 134.4L205.6 134.4L205.6 135.4L204.0 135.4L204.0 140.0Q204.0 140.5 204.2 140.8Q204.4 141.0 204.9 141.0L204.9 141.0Q205.0 141.0 205.2 141.0Q205.4 140.9 205.6 140.9L205.6 140.9L205.8 142.0Q205.6 142.0 205.4 142.1Q205.1 142.1 204.9 142.1L204.9 142.1Q203.9 142.1 203.4 141.6Q202.8 141.0 202.8 140.1L202.8 140.1L202.8 135.4L201.7 135.4L201.7 134.4L202.8 134.4L202.8 132.5L204.0 132.5L204.0 134.4ZM207.8 142L206.5 142L210.1 131.8L211.7 131.8L215.4 142L214.0 142L213.0 139.2L208.8 139.2L207.8 142ZM209.2 138.0L212.6 138.0L211.9 136.0Q211.7 135.4 211.4 134.6L211.4 134.6Q211.2 133.9 210.9 132.9L210.9 132.9Q210.6 133.9 210.4 134.6L210.4 134.6Q210.1 135.4 209.9 136.0L209.9 136.0L209.2 138.0ZM218.3 142L217.0 142L217.0 131.8L220.5 131.8Q221.7 131.8 222.4 132.2Q223.2 132.7 223.6 133.4Q223.9 134.1 223.9 135.1Q223.9 136.0 223.6 136.7Q223.2 137.4 222.4 137.9Q221.7 138.3 220.5 138.3L220.5 138.3L218.3 138.3L218.3 142ZM218.3 133.0L218.3 137.2L220.4 137.2Q221.2 137.2 221.7 136.9Q222.2 136.6 222.4 136.1Q222.7 135.7 222.7 135.1Q222.7 134.5 222.4 134.0Q222.2 133.5 221.7 133.2Q221.2 133.0 220.4 133.0L220.4 133.0L218.3 133.0ZM225.9 131.8L227.2 131.8L227.2 142L225.9 142L225.9 131.8Z "/></g><defs><clipPath id="satori_bc-id-4-1-1" clip-path="url(#satori_cp-id)"><path x="258" y="121" width="82" height="31" d="M266,121 h66 a8,8 0 0 1 8,8 v15 a8,8 0 0 1 -8,8 h-66 a8,8 0 0 1 -8,-8 v-15 a8,8 0 0 1 8,-8"/></clipPath></defs><mask id="satori_om-id-4-1-1"><rect x="259" y="122" width="80" height="29" fill="#fff" mask="url(#satori_om-id)"/><path width="82" height="31" fill="none" stroke="#000" stroke-width="2" d="M260.343,123.343 A8,8 0 0 1 266,121 h66 a8,8 0 0 1 8,8 v15 a8,8 0 0 1 -8,8 h-66 a8,8 0 0 1 -8,-8 v-15 A8,8 0 0 1 260.343,123.343"/></mask><path x="258" y="121" width="82" height="31" fill="#18181b" d="M266,121 h66 a8,8 0 0 1 8,8 v15 a8,8 0 0 1 -8,8 h-66 a8,8 0 0 1 -8,-8 v-15 a8,8 0 0 1 8,-8" clip-path="url(#satori_cp-id)" mask="url(#satori_om-id)"/><path width="82" height="31" clip-path="url(#satori_bc-id-4-1-1)" fill="none" stroke="#27272a" stroke-width="2" d="M260.343,123.343 A8,8 0 0 1 266,121 h66 a8,8 0 0 1 8,8 v15 a8,8 0 0 1 -8,8 h-66 a8,8 0 0 1 -8,-8 v-15 A8,8 0 0 1 260.343,123.343"/><g mask="url(#satori_om-id)" clip-path="url(#satori_cp-id)"><path fill="#e4e4e7" d="M279.4 142L279.4 142L276.2 142L276.2 131.8L279.5 131.8Q281.0 131.8 282.1 132.4Q283.1 133.0 283.7 134.2Q284.3 135.3 284.3 136.9L284.3 136.9Q284.3 138.5 283.7 139.6Q283.1 140.8 282.0 141.4Q281.0 142 279.4 142ZM277.5 133.0L277.5 140.9L279.3 140.9Q280.6 140.9 281.4 140.4Q282.2 139.9 282.6 139.0Q283.0 138.1 283.0 136.9L283.0 136.9Q283.0 135.7 282.6 134.8Q282.2 133.9 281.4 133.4Q280.6 133.0 279.5 133.0L279.5 133.0L277.5 133.0ZM289.3 142.2L289.3 142.2Q288.3 142.2 287.5 141.7Q286.7 141.2 286.3 140.3Q285.8 139.4 285.8 138.2L285.8 138.2Q285.8 137.0 286.3 136.1Q286.7 135.2 287.5 134.8Q288.3 134.3 289.3 134.3L289.3 134.3Q290.3 134.3 291.1 134.8Q291.9 135.2 292.3 136.1Q292.8 137.0 292.8 138.2L292.8 138.2Q292.8 139.4 292.3 140.3Q291.9 141.2 291.1 141.7Q290.3 142.2 289.3 142.2ZM289.3 141.1L289.3 141.1Q290.1 141.1 290.6 140.7Q291.1 140.3 291.3 139.6Q291.5 139.0 291.5 138.2L291.5 138.2Q291.5 137.5 291.3 136.8Q291.1 136.2 290.6 135.8Q290.1 135.4 289.3 135.4L289.3 135.4Q288.5 135.4 288.0 135.8Q287.5 136.2 287.3 136.8Q287.1 137.5 287.1 138.2L287.1 138.2Q287.1 139.0 287.3 139.6Q287.5 140.3 288.0 140.7Q288.5 141.1 289.3 141.1ZM297.7 142.2L297.7 142.2Q296.6 142.2 295.9 141.7Q295.1 141.2 294.6 140.3Q294.2 139.4 294.2 138.2L294.2 138.2Q294.2 137.0 294.6 136.1Q295.1 135.2 295.9 134.8Q296.6 134.3 297.7 134.3L297.7 134.3Q298.2 134.3 298.7 134.4Q299.2 134.5 299.6 134.8Q300.0 135.1 300.3 135.5Q300.6 135.9 300.8 136.4L300.8 136.4L299.6 136.7Q299.5 136.4 299.3 136.2Q299.2 135.9 298.9 135.7Q298.7 135.6 298.4 135.5Q298.1 135.4 297.7 135.4L297.7 135.4Q296.9 135.4 296.4 135.8Q295.9 136.2 295.7 136.8Q295.5 137.5 295.5 138.2L295.5 138.2Q295.5 139.0 295.7 139.6Q295.9 140.3 296.4 140.7Q296.9 141.1 297.7 141.1L297.7 141.1Q298.1 141.1 298.4 141.0Q298.7 140.9 299.0 140.7Q299.2 140.5 299.4 140.2Q299.6 140.0 299.6 139.7L299.6 139.7L300.8 140.0Q300.7 140.5 300.4 140.9Q300.1 141.3 299.7 141.6Q299.2 141.9 298.7 142.0Q298.2 142.2 297.7 142.2ZM303.8 142L302.6 142L302.6 131.8L303.8 131.8L303.8 137.7L304.0 137.7L307.2 134.4L308.7 134.4L305.5 137.6L309.0 142L307.4 142L304.6 138.4L303.8 139.2L303.8 142ZM313.5 142.2L313.5 142.2Q312.4 142.2 311.6 141.7Q310.8 141.2 310.3 140.3Q309.9 139.4 309.9 138.2Q309.9 137.1 310.3 136.2Q310.7 135.3 311.5 134.8Q312.3 134.3 313.3 134.3L313.3 134.3Q313.9 134.3 314.5 134.5Q315.1 134.7 315.6 135.1Q316.1 135.6 316.4 136.3Q316.7 137.0 316.7 138.1L316.7 138.1L316.7 138.6L311.1 138.6Q311.2 139.3 311.4 139.9L311.4 139.9Q311.7 140.5 312.3 140.8Q312.8 141.1 313.5 141.1L313.5 141.1Q313.9 141.1 314.3 140.9Q314.7 140.8 314.9 140.5Q315.2 140.3 315.3 139.9L315.3 139.9L316.5 140.2Q316.4 140.8 315.9 141.2Q315.5 141.7 314.9 141.9Q314.3 142.2 313.5 142.2ZM311.1 137.6L311.1 137.6L315.4 137.6Q315.4 137.0 315.2 136.6L315.2 136.6Q314.9 136.0 314.5 135.7Q314.0 135.4 313.3 135.4Q312.6 135.4 312.1 135.7Q311.7 136.0 311.4 136.6L311.4 136.6Q311.2 137.0 311.1 137.6ZM319.7 142L318.4 142L318.4 134.4L319.6 134.4L319.6 135.5L319.7 135.5Q319.9 135.0 320.4 134.6Q321.0 134.2 321.7 134.2L321.7 134.2Q321.8 134.2 322.0 134.3Q322.2 134.3 322.3 134.3L322.3 134.3L322.3 135.5Q322.2 135.5 322.0 135.5Q321.8 135.4 321.6 135.4L321.6 135.4Q321.0 135.4 320.6 135.7Q320.1 135.9 319.9 136.3Q319.7 136.7 319.7 137.2L319.7 137.2L319.7 142Z "/></g><defs><clipPath id="satori_bc-id-4-1-2" clip-path="url(#satori_cp-id)"><path x="352" y="121" width="67" height="31" d="M360,121 h51 a8,8 0 0 1 8,8 v15 a8,8 0 0 1 -8,8 h-51 a8,8 0 0 1 -8,-8 v-15 a8,8 0 0 1 8,-8"/></clipPath></defs><mask id="satori_om-id-4-1-2"><rect x="353" y="122" width="65" height="29" fill="#fff" mask="url(#satori_om-id)"/><path width="67" height="31" fill="none" stroke="#000" stroke-width="2" d="M354.343,123.343 A8,8 0 0 1 360,121 h51 a8,8 0 0 1 8,8 v15 a8,8 0 0 1 -8,8 h-51 a8,8 0 0 1 -8,-8 v-15 A8,8 0 0 1 354.343,123.343"/></mask><path x="352" y="121" width="67" height="31" fill="#18181b" d="M360,121 h51 a8,8 0 0 1 8,8 v15 a8,8 0 0 1 -8,8 h-51 a8,8 0 0 1 -8,-8 v-15 a8,8 0 0 1 8,-8" clip-path="url(#satori_cp-id)" mask="url(#satori_om-id)"/><path width="67" height="31" clip-path="url(#satori_bc-id-4-1-2)" fill="none" stroke="#27272a" stroke-width="2" d="M354.343,123.343 A8,8 0 0 1 360,121 h51 a8,8 0 0 1 8,8 v15 a8,8 0 0 1 -8,8 h-51 a8,8 0 0 1 -8,-8 v-15 A8,8 0 0 1 354.343,123.343"/><g mask="url(#satori_om-id)" clip-path="url(#satori_cp-id)"><path fill="#e4e4e7" d="M370.7 142L369.4 142L373.1 131.8L374.6 131.8L378.3 142L376.9 142L375.9 139.2L371.7 139.2L370.7 142ZM372.1 138.0L375.5 138.0L374.8 136.0Q374.6 135.4 374.3 134.6L374.3 134.6Q374.1 133.9 373.8 132.9L373.8 132.9Q373.5 133.9 373.3 134.6L373.3 134.6Q373.0 135.4 372.8 136.0L372.8 136.0L372.1 138.0ZM383.3 142L381.8 142L379.0 131.8L380.3 131.8L382.0 138.1Q382.1 138.6 382.2 139.1Q382.3 139.6 382.4 140.1L382.4 140.1Q382.5 140.4 382.6 140.8L382.6 140.8Q382.6 140.4 382.7 140.1L382.7 140.1Q382.8 139.6 382.9 139.1Q383.0 138.6 383.2 138.1L383.2 138.1L384.8 131.8L386.3 131.8L387.9 138.1Q388.1 138.6 388.2 139.1Q388.3 139.6 388.4 140.1L388.4 140.1Q388.5 140.4 388.6 140.7L388.6 140.7Q388.6 140.4 388.7 140.1L388.7 140.1Q388.8 139.6 388.9 139.1Q389.0 138.6 389.2 138.1L389.2 138.1L390.8 131.8L392.1 131.8L389.3 142L387.8 142L386.0 135.5Q385.9 134.9 385.7 134.2L385.7 134.2Q385.6 133.8 385.5 133.3L385.5 133.3Q385.5 133.7 385.4 134.1L385.4 134.1Q385.2 134.8 385.1 135.5L385.1 135.5L383.3 142ZM396.9 142.2L396.9 142.2Q395.8 142.2 395.0 141.8Q394.2 141.5 393.8 140.8Q393.3 140.2 393.2 139.3L393.2 139.3L394.6 139.3Q394.6 139.9 395.0 140.3Q395.3 140.7 395.8 140.8Q396.4 141.0 396.9 141.0L396.9 141.0Q397.6 141.0 398.2 140.8Q398.7 140.6 399.1 140.2Q399.4 139.7 399.4 139.2L399.4 139.2Q399.4 138.7 399.1 138.4Q398.8 138.1 398.4 137.9Q397.9 137.7 397.4 137.5L397.4 137.5L396.1 137.2Q394.9 136.9 394.2 136.2Q393.5 135.6 393.5 134.5L393.5 134.5Q393.5 133.7 394.0 133.0Q394.5 132.4 395.3 132.0Q396.0 131.7 397.0 131.7L397.0 131.7Q398.0 131.7 398.8 132.0Q399.6 132.4 400.0 133.0Q400.5 133.6 400.5 134.4L400.5 134.4L399.2 134.4Q399.1 133.6 398.5 133.2Q397.9 132.8 397.0 132.8L397.0 132.8Q396.3 132.8 395.8 133.0Q395.3 133.3 395.1 133.6Q394.8 134.0 394.8 134.5L394.8 134.5Q394.8 135.0 395.1 135.3Q395.5 135.7 395.9 135.8Q396.4 136.0 396.7 136.1L396.7 136.1L397.8 136.4Q398.2 136.5 398.7 136.7Q399.2 136.9 399.6 137.2Q400.1 137.5 400.4 138.0Q400.6 138.5 400.6 139.2L400.6 139.2Q400.6 140.1 400.2 140.7Q399.8 141.4 398.9 141.8Q398.1 142.2 396.9 142.2Z "/></g><defs><clipPath id="satori_bc-id-4-1-3" clip-path="url(#satori_cp-id)"><path x="431" y="121" width="113" height="31" d="M439,121 h97 a8,8 0 0 1 8,8 v15 a8,8 0 0 1 -8,8 h-97 a8,8 0 0 1 -8,-8 v-15 a8,8 0 0 1 8,-8"/></clipPath></defs><mask id="satori_om-id-4-1-3"><rect x="432" y="122" width="111" height="29" fill="#fff" mask="url(#satori_om-id)"/><path width="113" height="31" fill="none" stroke="#000" stroke-width="2" d="M433.343,123.343 A8,8 0 0 1 439,121 h97 a8,8 0 0 1 8,8 v15 a8,8 0 0 1 -8,8 h-97 a8,8 0 0 1 -8,-8 v-15 A8,8 0 0 1 433.343,123.343"/></mask><path x="431" y="121" width="113" height="31" fill="#18181b" d="M439,121 h97 a8,8 0 0 1 8,8 v15 a8,8 0 0 1 -8,8 h-97 a8,8 0 0 1 -8,-8 v-15 a8,8 0 0 1 8,-8" clip-path="url(#satori_cp-id)" mask="url(#satori_om-id)"/><path width="113" height="31" clip-path="url(#satori_bc-id-4-1-3)" fill="none" stroke="#27272a" stroke-width="2" d="M433.343,123.343 A8,8 0 0 1 439,121 h97 a8,8 0 0 1 8,8 v15 a8,8 0 0 1 -8,8 h-97 a8,8 0 0 1 -8,-8 v-15 A8,8 0 0 1 433.343,123.343"/><g mask="url(#satori_om-id)" clip-path="url(#satori_cp-id)"><path fill="#e4e4e7" d="M450.5 142L449.2 142L449.2 131.8L452.7 131.8Q453.9 131.8 454.7 132.2Q455.4 132.7 455.8 133.4Q456.2 134.1 456.2 135.1Q456.2 136.0 455.8 136.7Q455.4 137.4 454.7 137.9Q453.9 138.3 452.7 138.3L452.7 138.3L450.5 138.3L450.5 142ZM450.5 133.0L450.5 137.2L452.7 137.2Q453.5 137.2 454.0 136.9Q454.5 136.6 454.7 136.1Q454.9 135.7 454.9 135.1Q454.9 134.5 454.7 134.0Q454.5 133.5 454.0 133.2Q453.5 133.0 452.6 133.0L452.6 133.0L450.5 133.0ZM461.1 142.2L461.1 142.2Q460.1 142.2 459.3 141.7Q458.5 141.2 458.1 140.3Q457.7 139.4 457.7 138.2L457.7 138.2Q457.7 137.0 458.1 136.1Q458.5 135.2 459.3 134.8Q460.1 134.3 461.1 134.3L461.1 134.3Q462.2 134.3 463.0 134.8Q463.8 135.2 464.2 136.1Q464.6 137.0 464.6 138.2L464.6 138.2Q464.6 139.4 464.2 140.3Q463.8 141.2 463.0 141.7Q462.2 142.2 461.1 142.2ZM461.1 141.1L461.1 141.1Q461.9 141.1 462.4 140.7Q462.9 140.3 463.1 139.6Q463.4 139.0 463.4 138.2L463.4 138.2Q463.4 137.5 463.1 136.8Q462.9 136.2 462.4 135.8Q461.9 135.4 461.1 135.4L461.1 135.4Q460.4 135.4 459.9 135.8Q459.4 136.2 459.1 136.8Q458.9 137.5 458.9 138.2L458.9 138.2Q458.9 139.0 459.1 139.6Q459.4 140.3 459.9 140.7Q460.4 141.1 461.1 141.1ZM469.0 142.2L469.0 142.2Q468.2 142.2 467.6 141.9Q467.0 141.7 466.6 141.3Q466.2 140.8 466.1 140.1L466.1 140.1L467.2 139.9Q467.4 140.5 467.9 140.8Q468.3 141.1 469 141.1L469 141.1Q469.8 141.1 470.3 140.7Q470.8 140.4 470.8 139.9L470.8 139.9Q470.8 139.5 470.5 139.3Q470.2 139.0 469.6 138.9L469.6 138.9L468.4 138.6Q467.3 138.3 466.8 137.8Q466.3 137.3 466.3 136.5L466.3 136.5Q466.3 135.8 466.7 135.3Q467.0 134.8 467.7 134.5Q468.3 134.3 469.1 134.3L469.1 134.3Q469.9 134.3 470.5 134.5Q471.0 134.7 471.4 135.1Q471.7 135.6 471.9 136.1L471.9 136.1L470.8 136.4Q470.6 136.0 470.2 135.6Q469.9 135.3 469.1 135.3L469.1 135.3Q468.5 135.3 468.0 135.6Q467.6 135.9 467.6 136.4L467.6 136.4Q467.6 136.8 467.9 137.1Q468.2 137.4 468.8 137.5L468.8 137.5L470.0 137.8Q471.0 138.0 471.5 138.5Q472.0 139.1 472.0 139.8L472.0 139.8Q472.0 140.5 471.6 141.0Q471.3 141.6 470.6 141.9Q469.9 142.2 469.0 142.2ZM475.2 134.4L476.8 134.4L476.8 135.4L475.2 135.4L475.2 140.0Q475.2 140.5 475.4 140.8Q475.7 141.0 476.1 141.0L476.1 141.0Q476.3 141.0 476.4 141.0Q476.6 140.9 476.8 140.9L476.8 140.9L477.0 142.0Q476.8 142.0 476.6 142.1Q476.3 142.1 476.1 142.1L476.1 142.1Q475.1 142.1 474.6 141.6Q474.0 141.0 474.0 140.1L474.0 140.1L474.0 135.4L472.9 135.4L472.9 134.4L474.0 134.4L474.0 132.5L475.2 132.5L475.2 134.4ZM481.5 145.0L481.5 145.0Q480.6 145.0 480.0 144.8Q479.4 144.6 479.0 144.2Q478.6 143.9 478.3 143.5L478.3 143.5L479.3 142.8Q479.5 143.0 479.7 143.3Q480.0 143.6 480.4 143.8Q480.8 143.9 481.5 143.9L481.5 143.9Q482.4 143.9 483.0 143.5Q483.6 143.1 483.6 142.1L483.6 142.1L483.6 140.6L483.5 140.6Q483.3 140.8 483.1 141.1Q482.9 141.4 482.4 141.6Q482.0 141.9 481.2 141.9L481.2 141.9Q480.3 141.9 479.6 141.4Q478.9 141.0 478.4 140.2Q478.0 139.3 478.0 138.1L478.0 138.1Q478.0 137.0 478.4 136.1Q478.9 135.2 479.6 134.7Q480.3 134.3 481.3 134.3L481.3 134.3Q482.0 134.3 482.4 134.5Q482.9 134.7 483.1 135.1Q483.4 135.4 483.5 135.6L483.5 135.6L483.6 135.6L483.6 134.4L484.8 134.4L484.8 142.2Q484.8 143.2 484.4 143.8Q483.9 144.4 483.2 144.7Q482.4 145.0 481.5 145.0ZM481.4 140.8L481.4 140.8Q482.1 140.8 482.6 140.5Q483.1 140.1 483.3 139.5Q483.6 139.0 483.6 138.1L483.6 138.1Q483.6 137.3 483.4 136.7Q483.1 136.1 482.6 135.7Q482.2 135.4 481.4 135.4L481.4 135.4Q480.7 135.4 480.2 135.7Q479.8 136.1 479.5 136.7Q479.3 137.4 479.3 138.1L479.3 138.1Q479.3 138.9 479.5 139.5Q479.8 140.1 480.2 140.4Q480.7 140.8 481.4 140.8ZM488.2 142L487.0 142L487.0 134.4L488.2 134.4L488.2 135.5L488.2 135.5Q488.5 135.0 489.0 134.6Q489.5 134.2 490.2 134.2L490.2 134.2Q490.4 134.2 490.6 134.3Q490.7 134.3 490.8 134.3L490.8 134.3L490.8 135.5Q490.8 135.5 490.6 135.5Q490.4 135.4 490.1 135.4L490.1 135.4Q489.6 135.4 489.1 135.7Q488.7 135.9 488.4 136.3Q488.2 136.7 488.2 137.2L488.2 137.2L488.2 142ZM495.5 142.2L495.5 142.2Q494.3 142.2 493.5 141.7Q492.7 141.2 492.3 140.3Q491.9 139.4 491.9 138.2Q491.9 137.1 492.3 136.2Q492.7 135.3 493.5 134.8Q494.3 134.3 495.3 134.3L495.3 134.3Q495.9 134.3 496.5 134.5Q497.1 134.7 497.6 135.1Q498.1 135.6 498.4 136.3Q498.6 137.0 498.6 138.1L498.6 138.1L498.6 138.6L493.1 138.6Q493.1 139.3 493.4 139.9L493.4 139.9Q493.7 140.5 494.2 140.8Q494.8 141.1 495.5 141.1L495.5 141.1Q495.9 141.1 496.3 140.9Q496.7 140.8 496.9 140.5Q497.2 140.3 497.3 139.9L497.3 139.9L498.5 140.2Q498.3 140.8 497.9 141.2Q497.5 141.7 496.9 141.9Q496.2 142.2 495.5 142.2ZM493.1 137.6L493.1 137.6L497.4 137.6Q497.3 137.0 497.2 136.6L497.2 136.6Q496.9 136.0 496.5 135.7Q496.0 135.4 495.3 135.4Q494.6 135.4 494.1 135.7Q493.6 136.0 493.4 136.6L493.4 136.6Q493.2 137.0 493.1 137.6ZM503.8 142.2L503.8 142.2Q502.7 142.2 501.9 141.8Q501.1 141.5 500.6 140.8Q500.2 140.2 500.1 139.3L500.1 139.3L501.5 139.3Q501.5 139.9 501.8 140.3Q502.2 140.7 502.7 140.8Q503.2 141.0 503.8 141.0L503.8 141.0Q504.5 141.0 505.1 140.8Q505.6 140.6 505.9 140.2Q506.2 139.7 506.2 139.2L506.2 139.2Q506.2 138.7 506.0 138.4Q505.7 138.1 505.2 137.9Q504.8 137.7 504.2 137.5L504.2 137.5L503.0 137.2Q501.8 136.9 501.1 136.2Q500.4 135.6 500.4 134.5L500.4 134.5Q500.4 133.7 500.9 133.0Q501.3 132.4 502.1 132.0Q502.9 131.7 503.9 131.7L503.9 131.7Q504.9 131.7 505.7 132.0Q506.5 132.4 506.9 133.0Q507.3 133.6 507.4 134.4L507.4 134.4L506.1 134.4Q506.0 133.6 505.4 133.2Q504.8 132.8 503.9 132.8L503.9 132.8Q503.2 132.8 502.7 133.0Q502.2 133.3 501.9 133.6Q501.7 134.0 501.7 134.5L501.7 134.5Q501.7 135.0 502.0 135.3Q502.3 135.7 502.8 135.8Q503.2 136.0 503.6 136.1L503.6 136.1L504.6 136.4Q505.0 136.5 505.5 136.7Q506.0 136.9 506.5 137.2Q506.9 137.5 507.2 138.0Q507.5 138.5 507.5 139.2L507.5 139.2Q507.5 140.1 507.1 140.7Q506.6 141.4 505.8 141.8Q505.0 142.2 503.8 142.2ZM513.7 142.1L513.7 142.1Q512.4 142.1 511.3 141.5Q510.3 140.9 509.7 139.7Q509.1 138.5 509.1 136.9L509.1 136.9Q509.1 135.3 509.7 134.1Q510.3 132.9 511.3 132.3Q512.4 131.7 513.7 131.7Q515.0 131.7 516.0 132.3Q517.0 132.9 517.6 134.1Q518.2 135.3 518.2 136.9L518.2 136.9Q518.2 138.5 517.6 139.7L517.6 139.7Q517.1 140.6 516.4 141.2L516.4 141.2L517.7 143.0L516.4 143.0L515.5 141.8Q514.7 142.1 513.7 142.1ZM514.7 140.8L513.2 138.8L514.6 138.8L515.7 140.2Q516.2 139.8 516.5 139.1L516.5 139.1Q516.9 138.2 516.9 136.9L516.9 136.9Q516.9 135.6 516.5 134.7Q516.0 133.8 515.3 133.3Q514.6 132.9 513.7 132.9L513.7 132.9Q512.8 132.9 512.0 133.3Q511.3 133.8 510.8 134.7Q510.4 135.6 510.4 136.9L510.4 136.9Q510.4 138.2 510.8 139.1Q511.3 140.0 512.0 140.5Q512.8 140.9 513.7 140.9L513.7 140.9Q514.2 140.9 514.7 140.8L514.7 140.8ZM526.3 142L520.2 142L520.2 131.8L521.5 131.8L521.5 140.9L526.3 140.9L526.3 142Z "/></g><mask id="satori_om-id-5"><rect x="41" y="272" width="718" height="35" fill="#fff" mask="url(#satori_om-id)"/></mask><defs><clipPath id="satori_bc-id-5-0" clip-path="url(#satori_cp-id)"><path x="192" y="272" width="101" height="35" d="M209.5,272 h66 a17.5,17.5 0 0 1 17.5,17.5 v0 a17.5,17.5 0 0 1 -17.5,17.5 h-66 a17.5,17.5 0 0 1 -17.5,-17.5 v0 a17.5,17.5 0 0 1 17.5,-17.5"/></clipPath></defs><mask id="satori_om-id-5-0"><rect x="193" y="273" width="99" height="33" fill="#fff" mask="url(#satori_om-id)"/><path width="101" height="35" fill="none" stroke="#000" stroke-width="2" d="M197.126,277.126 A17.5,17.5 0 0 1 209.5,272 h66 a17.5,17.5 0 0 1 17.5,17.5 v0 a17.5,17.5 0 0 1 -17.5,17.5 h-66 a17.5,17.5 0 0 1 -17.5,-17.5 v0 A17.5,17.5 0 0 1 197.126,277.126"/></mask><path x="192" y="272" width="101" height="35" fill="#0a66c2" d="M209.5,272 h66 a17.5,17.5 0 0 1 17.5,17.5 v0 a17.5,17.5 0 0 1 -17.5,17.5 h-66 a17.5,17.5 0 0 1 -17.5,-17.5 v0 a17.5,17.5 0 0 1 17.5,-17.5" clip-path="url(#satori_cp-id)" mask="url(#satori_om-id)"/><path width="101" height="35" clip-path="url(#satori_bc-id-5-0)" fill="none" stroke="#27272a" stroke-width="2" d="M197.126,277.126 A17.5,17.5 0 0 1 209.5,272 h66 a17.5,17.5 0 0 1 17.5,17.5 v0 a17.5,17.5 0 0 1 -17.5,17.5 h-66 a17.5,17.5 0 0 1 -17.5,-17.5 v0 A17.5,17.5 0 0 1 197.126,277.126"/><mask id="satori_om-id-5-0-0"><rect x="213" y="281" width="59" height="17" fill="#fff" mask="url(#satori_om-id)"/></mask><g mask="url(#satori_om-id)" clip-path="url(#satori_cp-id)"><path fill="white" d="M220.4 295L213.9 295L213.9 284.8L216.0 284.8L216.0 293.3L220.4 293.3L220.4 295ZM223.8 295L221.8 295L221.8 287.4L223.8 287.4L223.8 295ZM222.8 286.4L222.8 286.4Q222.4 286.4 222.0 286.1Q221.7 285.7 221.7 285.3L221.7 285.3Q221.7 284.9 222.0 284.6Q222.4 284.3 222.8 284.3L222.8 284.3Q223.3 284.3 223.6 284.6Q223.9 284.9 223.9 285.3L223.9 285.3Q223.9 285.7 223.6 286.1Q223.3 286.4 222.8 286.4ZM227.6 290.6L227.6 290.6L227.6 295L225.6 295L225.6 287.4L227.5 287.4L227.5 288.9Q227.8 288.2 228.3 287.8L228.3 287.8Q229.0 287.3 229.9 287.3L229.9 287.3Q230.7 287.3 231.3 287.6Q231.9 288.0 232.2 288.6Q232.6 289.2 232.6 290.1L232.6 290.1L232.6 295L230.5 295L230.5 290.5Q230.5 289.8 230.1 289.4Q229.8 289.0 229.1 289.0L229.1 289.0Q228.7 289.0 228.4 289.2Q228.0 289.4 227.8 289.7Q227.6 290.1 227.6 290.6ZM236.4 295L234.3 295L234.3 284.8L236.4 284.8L236.4 290.3L236.5 290.3L239.0 287.4L241.3 287.4L238.5 290.7L241.5 295L239.1 295L236.9 291.9L236.4 292.5L236.4 295ZM245.9 295.2L245.9 295.2Q244.7 295.2 243.9 294.7Q243.0 294.2 242.6 293.3Q242.1 292.4 242.1 291.2L242.1 291.2Q242.1 290.0 242.6 289.1Q243.0 288.3 243.8 287.8Q244.7 287.3 245.8 287.3L245.8 287.3Q246.5 287.3 247.2 287.5Q247.8 287.7 248.3 288.2Q248.8 288.7 249.1 289.4Q249.4 290.2 249.4 291.1L249.4 291.1L249.4 291.7L244.1 291.7Q244.2 292.3 244.4 292.7L244.4 292.7Q244.6 293.2 245.0 293.4Q245.4 293.6 245.9 293.6L245.9 293.6Q246.3 293.6 246.6 293.5Q246.9 293.4 247.1 293.2Q247.3 293.0 247.4 292.7L247.4 292.7L249.2 293.1Q249.1 293.7 248.6 294.2Q248.1 294.6 247.5 294.9Q246.8 295.2 245.9 295.2ZM244.1 290.4L244.1 290.4L247.4 290.4Q247.3 290.0 247.2 289.7L247.2 289.7Q247.0 289.3 246.7 289.0Q246.3 288.8 245.8 288.8L245.8 288.8Q245.3 288.8 244.9 289.1Q244.5 289.3 244.3 289.7L244.3 289.7Q244.2 290.0 244.1 290.4ZM253.6 295.1L253.6 295.1Q252.7 295.1 252.0 294.7Q251.3 294.2 250.9 293.3Q250.4 292.5 250.4 291.2L250.4 291.2Q250.4 289.9 250.9 289.0Q251.3 288.1 252.0 287.7Q252.7 287.3 253.5 287.3L253.5 287.3Q254.2 287.3 254.6 287.5Q255.1 287.7 255.3 288.0Q255.6 288.3 255.7 288.6L255.7 288.6L255.8 288.6L255.8 284.8L257.8 284.8L257.8 295L255.8 295L255.8 293.8L255.7 293.8Q255.6 294.1 255.3 294.4Q255.0 294.7 254.6 294.9Q254.2 295.1 253.6 295.1ZM254.2 293.5L254.2 293.5Q254.7 293.5 255.1 293.2Q255.4 292.9 255.6 292.4Q255.8 291.9 255.8 291.2L255.8 291.2Q255.8 290.5 255.6 290.0Q255.5 289.5 255.1 289.2Q254.7 288.9 254.2 288.9L254.2 288.9Q253.6 288.9 253.3 289.2Q252.9 289.5 252.7 290.0Q252.5 290.5 252.5 291.2L252.5 291.2Q252.5 291.9 252.7 292.4Q252.9 292.9 253.3 293.2Q253.7 293.5 254.2 293.5ZM259.6 284.8L261.7 284.8L261.7 295L259.6 295L259.6 284.8ZM265.6 290.6L265.6 290.6L265.6 295L263.5 295L263.5 287.4L265.5 287.4L265.5 288.9Q265.8 288.2 266.3 287.8L266.3 287.8Q266.9 287.3 267.9 287.3L267.9 287.3Q268.7 287.3 269.2 287.6Q269.8 288.0 270.2 288.6Q270.5 289.2 270.5 290.1L270.5 290.1L270.5 295L268.4 295L268.4 290.5Q268.4 289.8 268.1 289.4Q267.7 289.0 267.1 289.0L267.1 289.0Q266.6 289.0 266.3 289.2Q265.9 289.4 265.8 289.7Q265.6 290.1 265.6 290.6Z "/></g><defs><clipPath id="satori_bc-id-5-1" clip-path="url(#satori_cp-id)"><path x="309" y="272" width="87" height="35" d="M326.5,272 h52 a17.5,17.5 0 0 1 17.5,17.5 v0 a17.5,17.5 0 0 1 -17.5,17.5 h-52 a17.5,17.5 0 0 1 -17.5,-17.5 v0 a17.5,17.5 0 0 1 17.5,-17.5"/></clipPath></defs><mask id="satori_om-id-5-1"><rect x="310" y="273" width="85" height="33" fill="#fff" mask="url(#satori_om-id)"/><path width="87" height="35" fill="none" stroke="#000" stroke-width="2" d="M314.126,277.126 A17.5,17.5 0 0 1 326.5,272 h52 a17.5,17.5 0 0 1 17.5,17.5 v0 a17.5,17.5 0 0 1 -17.5,17.5 h-52 a17.5,17.5 0 0 1 -17.5,-17.5 v0 A17.5,17.5 0 0 1 314.126,277.126"/></mask><path x="309" y="272" width="87" height="35" fill="#000000" d="M326.5,272 h52 a17.5,17.5 0 0 1 17.5,17.5 v0 a17.5,17.5 0 0 1 -17.5,17.5 h-52 a17.5,17.5 0 0 1 -17.5,-17.5 v0 a17.5,17.5 0 0 1 17.5,-17.5" clip-path="url(#satori_cp-id)" mask="url(#satori_om-id)"/><path width="87" height="35" clip-path="url(#satori_bc-id-5-1)" fill="none" stroke="#3f3f46" stroke-width="2" d="M314.126,277.126 A17.5,17.5 0 0 1 326.5,272 h52 a17.5,17.5 0 0 1 17.5,17.5 v0 a17.5,17.5 0 0 1 -17.5,17.5 h-52 a17.5,17.5 0 0 1 -17.5,-17.5 v0 A17.5,17.5 0 0 1 314.126,277.126"/><mask id="satori_om-id-5-1-0"><rect x="330" y="281" width="45" height="17" fill="#fff" mask="url(#satori_om-id)"/></mask><g mask="url(#satori_om-id)" clip-path="url(#satori_cp-id)"><path fill="white" d="M332.8 295L330.3 295L334.0 289.8L330.7 284.8L333.1 284.8L334.2 286.5Q334.5 287.0 334.7 287.4Q334.9 287.8 335.1 288.1L335.1 288.1Q335.1 288.2 335.2 288.3L335.2 288.3Q335.2 288.2 335.3 288.1L335.3 288.1Q335.5 287.8 335.7 287.4Q335.9 287.0 336.2 286.5L336.2 286.5L337.3 284.8L339.7 284.8L336.4 289.7L340.0 295L337.5 295L336.1 292.9Q335.8 292.4 335.6 292.1Q335.5 291.8 335.3 291.6L335.3 291.6Q335.3 291.4 335.2 291.3L335.2 291.3Q335.1 291.4 335.0 291.6L335.0 291.6Q334.9 291.8 334.7 292.1Q334.5 292.4 334.2 292.9L334.2 292.9L332.8 295ZM342.7 295.1L342.7 295.1Q342.2 295.1 341.8 294.8Q341.5 294.5 341.5 294.0L341.5 294.0Q341.5 293.5 341.8 293.1Q342.2 292.8 342.7 292.8L342.7 292.8Q343.2 292.8 343.5 293.1Q343.9 293.5 343.9 294.0L343.9 294.0Q343.9 294.5 343.5 294.8Q343.2 295.1 342.7 295.1ZM349.3 295.2L349.3 295.2Q348.1 295.2 347.3 294.7Q346.5 294.2 346.0 293.3Q345.6 292.4 345.6 291.2L345.6 291.2Q345.6 290.0 346.0 289.1Q346.5 288.3 347.3 287.8Q348.1 287.3 349.3 287.3L349.3 287.3Q350.0 287.3 350.6 287.4Q351.1 287.6 351.6 287.9Q352.0 288.3 352.3 288.7Q352.6 289.2 352.7 289.8L352.7 289.8L350.8 290.2Q350.7 289.9 350.6 289.6Q350.5 289.4 350.3 289.2Q350.1 289.1 349.9 289.0Q349.6 288.9 349.3 288.9L349.3 288.9Q348.8 288.9 348.4 289.2Q348.0 289.5 347.8 290.0Q347.7 290.5 347.7 291.2L347.7 291.2Q347.7 291.9 347.8 292.4Q348.0 292.9 348.4 293.2Q348.8 293.5 349.3 293.5L349.3 293.5Q349.6 293.5 349.9 293.4Q350.1 293.4 350.3 293.2Q350.5 293.0 350.6 292.8Q350.8 292.5 350.8 292.2L350.8 292.2L352.7 292.6Q352.6 293.2 352.3 293.6Q352.0 294.1 351.6 294.5Q351.1 294.8 350.6 295.0Q350.0 295.2 349.3 295.2ZM357.5 295.2L357.5 295.2Q356.4 295.2 355.6 294.7Q354.7 294.2 354.3 293.3Q353.8 292.4 353.8 291.2L353.8 291.2Q353.8 290.0 354.3 289.1Q354.7 288.3 355.6 287.8Q356.4 287.3 357.5 287.3L357.5 287.3Q358.7 287.3 359.5 287.8Q360.4 288.3 360.8 289.1Q361.3 290.0 361.3 291.2L361.3 291.2Q361.3 292.4 360.8 293.3Q360.4 294.2 359.5 294.7Q358.7 295.2 357.5 295.2ZM357.5 293.5L357.5 293.5Q358.1 293.5 358.5 293.2Q358.8 292.9 359.0 292.4Q359.2 291.9 359.2 291.2L359.2 291.2Q359.2 290.5 359.0 290.0Q358.8 289.5 358.5 289.2Q358.1 288.9 357.5 288.9L357.5 288.9Q357.0 288.9 356.6 289.2Q356.3 289.5 356.1 290.0Q355.9 290.5 355.9 291.2L355.9 291.2Q355.9 291.9 356.1 292.4Q356.3 292.9 356.6 293.2Q357.0 293.5 357.5 293.5ZM364.8 295L362.7 295L362.7 287.4L364.6 287.4L364.7 288.8Q364.8 288.4 365.1 288.1L365.1 288.1Q365.4 287.7 365.9 287.5Q366.4 287.2 366.9 287.2L366.9 287.2Q367.7 287.2 368.2 287.8L368.2 287.8Q368.6 288.2 368.8 289.0L368.8 289.0Q369.0 288.5 369.3 288.2L369.3 288.2Q369.7 287.7 370.2 287.5Q370.7 287.2 371.3 287.2L371.3 287.2Q372 287.2 372.6 287.5Q373.1 287.9 373.4 288.4Q373.7 289.0 373.7 289.8L373.7 289.8L373.7 295L371.7 295L371.7 290.2Q371.7 289.6 371.3 289.3Q371.0 289.0 370.5 289.0L370.5 289.0Q370.1 289.0 369.8 289.1Q369.5 289.3 369.4 289.6Q369.2 289.9 369.2 290.3L369.2 290.3L369.2 295L367.2 295L367.2 290.2Q367.2 289.6 366.9 289.3Q366.6 289.0 366.0 289.0L366.0 289.0Q365.7 289.0 365.4 289.1Q365.1 289.3 364.9 289.6Q364.8 289.9 364.8 290.4L364.8 290.4L364.8 295Z "/></g><defs><clipPath id="satori_bc-id-5-2" clip-path="url(#satori_cp-id)"><path x="412" y="272" width="79" height="35" d="M429.5,272 h44 a17.5,17.5 0 0 1 17.5,17.5 v0 a17.5,17.5 0 0 1 -17.5,17.5 h-44 a17.5,17.5 0 0 1 -17.5,-17.5 v0 a17.5,17.5 0 0 1 17.5,-17.5"/></clipPath></defs><mask id="satori_om-id-5-2"><rect x="413" y="273" width="77" height="33" fill="#fff" mask="url(#satori_om-id)"/><path width="79" height="35" fill="none" stroke="#000" stroke-width="2" d="M417.126,277.126 A17.5,17.5 0 0 1 429.5,272 h44 a17.5,17.5 0 0 1 17.5,17.5 v0 a17.5,17.5 0 0 1 -17.5,17.5 h-44 a17.5,17.5 0 0 1 -17.5,-17.5 v0 A17.5,17.5 0 0 1 417.126,277.126"/></mask><path x="412" y="272" width="79" height="35" fill="#ea4335" d="M429.5,272 h44 a17.5,17.5 0 0 1 17.5,17.5 v0 a17.5,17.5 0 0 1 -17.5,17.5 h-44 a17.5,17.5 0 0 1 -17.5,-17.5 v0 a17.5,17.5 0 0 1 17.5,-17.5" clip-path="url(#satori_cp-id)" mask="url(#satori_om-id)"/><path width="79" height="35" clip-path="url(#satori_bc-id-5-2)" fill="none" stroke="#27272a" stroke-width="2" d="M417.126,277.126 A17.5,17.5 0 0 1 429.5,272 h44 a17.5,17.5 0 0 1 17.5,17.5 v0 a17.5,17.5 0 0 1 -17.5,17.5 h-44 a17.5,17.5 0 0 1 -17.5,-17.5 v0 A17.5,17.5 0 0 1 417.126,277.126"/><mask id="satori_om-id-5-2-0"><rect x="433" y="281" width="37" height="17" fill="#fff" mask="url(#satori_om-id)"/></mask><g mask="url(#satori_om-id)" clip-path="url(#satori_cp-id)"><path fill="white" d="M440.8 295L433.9 295L433.9 284.8L440.7 284.8L440.7 286.5L436.0 286.5L436.0 289.0L440.4 289.0L440.4 290.7L436.0 290.7L436.0 293.3L440.8 293.3L440.8 295ZM444.4 295L442.4 295L442.4 287.4L444.3 287.4L444.4 288.8Q444.5 288.4 444.8 288.1L444.8 288.1Q445.1 287.7 445.6 287.5Q446.0 287.2 446.5 287.2L446.5 287.2Q447.4 287.2 447.9 287.8L447.9 287.8Q448.3 288.2 448.5 289.0L448.5 289.0Q448.7 288.5 448.9 288.2L448.9 288.2Q449.3 287.7 449.9 287.5Q450.4 287.2 451.0 287.2L451.0 287.2Q451.7 287.2 452.2 287.5Q452.8 287.9 453.1 288.4Q453.4 289.0 453.4 289.8L453.4 289.8L453.4 295L451.4 295L451.4 290.2Q451.4 289.6 451.0 289.3Q450.7 289.0 450.1 289.0L450.1 289.0Q449.8 289.0 449.5 289.1Q449.2 289.3 449.0 289.6Q448.9 289.9 448.9 290.3L448.9 290.3L448.9 295L446.9 295L446.9 290.2Q446.9 289.6 446.6 289.3Q446.2 289.0 445.7 289.0L445.7 289.0Q445.3 289.0 445.1 289.1Q444.8 289.3 444.6 289.6Q444.4 289.9 444.4 290.4L444.4 290.4L444.4 295ZM457.3 295.2L457.3 295.2Q456.6 295.2 456.0 294.9Q455.4 294.6 455.1 294.1Q454.7 293.6 454.7 292.9L454.7 292.9Q454.7 292.2 455.0 291.8Q455.2 291.4 455.6 291.1Q456.0 290.8 456.5 290.7Q457.1 290.6 457.6 290.5L457.6 290.5Q458.3 290.4 458.7 290.4Q459.1 290.3 459.3 290.2Q459.5 290.1 459.5 289.8L459.5 289.8L459.5 289.8Q459.5 289.5 459.3 289.2Q459.2 289.0 458.9 288.9Q458.7 288.8 458.3 288.8L458.3 288.8Q457.9 288.8 457.6 288.9Q457.3 289.0 457.1 289.2Q456.9 289.4 456.8 289.7L456.8 289.7L455.0 289.4Q455.2 288.7 455.6 288.2Q456.1 287.8 456.8 287.5Q457.4 287.3 458.3 287.3L458.3 287.3Q458.9 287.3 459.5 287.4Q460.1 287.6 460.5 287.9Q461.0 288.2 461.3 288.7Q461.5 289.2 461.5 289.9L461.5 289.9L461.5 295L459.6 295L459.6 293.9L459.5 293.9Q459.3 294.3 459.0 294.6Q458.7 294.8 458.3 295.0Q457.9 295.2 457.3 295.2ZM457.9 293.7L457.9 293.7Q458.4 293.7 458.7 293.5Q459.1 293.3 459.3 293.0Q459.5 292.7 459.5 292.3L459.5 292.3L459.5 291.4Q459.4 291.5 459.2 291.6Q459.0 291.6 458.8 291.7Q458.6 291.7 458.4 291.7Q458.1 291.8 458.0 291.8L458.0 291.8Q457.6 291.8 457.3 292.0Q457.0 292.1 456.9 292.3Q456.7 292.5 456.7 292.8L456.7 292.8Q456.7 293.1 456.9 293.3Q457.0 293.5 457.3 293.6Q457.5 293.7 457.9 293.7ZM465.3 295L463.3 295L463.3 287.4L465.3 287.4L465.3 295ZM464.3 286.4L464.3 286.4Q463.8 286.4 463.5 286.1Q463.2 285.7 463.2 285.3L463.2 285.3Q463.2 284.9 463.5 284.6Q463.8 284.3 464.3 284.3L464.3 284.3Q464.8 284.3 465.1 284.6Q465.4 284.9 465.4 285.3L465.4 285.3Q465.4 285.7 465.1 286.1Q464.8 286.4 464.3 286.4ZM467.1 284.8L469.1 284.8L469.1 295L467.1 295L467.1 284.8Z "/></g><defs><clipPath id="satori_bc-id-5-3" clip-path="url(#satori_cp-id)"><path x="507" y="272" width="101" height="35" d="M524.5,272 h66 a17.5,17.5 0 0 1 17.5,17.5 v0 a17.5,17.5 0 0 1 -17.5,17.5 h-66 a17.5,17.5 0 0 1 -17.5,-17.5 v0 a17.5,17.5 0 0 1 17.5,-17.5"/></clipPath></defs><mask id="satori_om-id-5-3"><rect x="508" y="273" width="99" height="33" fill="#fff" mask="url(#satori_om-id)"/><path width="101" height="35" fill="none" stroke="#000" stroke-width="2" d="M512.126,277.126 A17.5,17.5 0 0 1 524.5,272 h66 a17.5,17.5 0 0 1 17.5,17.5 v0 a17.5,17.5 0 0 1 -17.5,17.5 h-66 a17.5,17.5 0 0 1 -17.5,-17.5 v0 A17.5,17.5 0 0 1 512.126,277.126"/></mask><path x="507" y="272" width="101" height="35" fill="#18181b" d="M524.5,272 h66 a17.5,17.5 0 0 1 17.5,17.5 v0 a17.5,17.5 0 0 1 -17.5,17.5 h-66 a17.5,17.5 0 0 1 -17.5,-17.5 v0 a17.5,17.5 0 0 1 17.5,-17.5" clip-path="url(#satori_cp-id)" mask="url(#satori_om-id)"/><path width="101" height="35" clip-path="url(#satori_bc-id-5-3)" fill="none" stroke="#27272a" stroke-width="2" d="M512.126,277.126 A17.5,17.5 0 0 1 524.5,272 h66 a17.5,17.5 0 0 1 17.5,17.5 v0 a17.5,17.5 0 0 1 -17.5,17.5 h-66 a17.5,17.5 0 0 1 -17.5,-17.5 v0 A17.5,17.5 0 0 1 512.126,277.126"/><mask id="satori_om-id-5-3-0"><rect x="528" y="281" width="59" height="17" fill="#fff" mask="url(#satori_om-id)"/></mask><g mask="url(#satori_om-id)" clip-path="url(#satori_cp-id)"><path fill="white" d="M531.0 295L528.9 295L528.9 284.8L532.9 284.8Q534.1 284.8 534.9 285.3Q535.7 285.7 536.1 286.5Q536.5 287.2 536.5 288.3L536.5 288.3Q536.5 289.3 536.1 290.0Q535.7 290.8 534.8 291.2Q534.0 291.7 532.8 291.7L532.8 291.7L531.0 291.7L531.0 295ZM531.0 286.5L531.0 290.0L532.5 290.0Q533.2 290.0 533.6 289.8Q534.0 289.5 534.2 289.2Q534.4 288.8 534.4 288.3Q534.4 287.7 534.2 287.4Q534.0 287.0 533.6 286.8Q533.1 286.5 532.5 286.5L532.5 286.5L531.0 286.5ZM541.4 295.2L541.4 295.2Q540.2 295.2 539.4 294.7Q538.5 294.2 538.1 293.3Q537.6 292.4 537.6 291.2L537.6 291.2Q537.6 290.0 538.1 289.1Q538.5 288.3 539.4 287.8Q540.2 287.3 541.4 287.3L541.4 287.3Q542.5 287.3 543.4 287.8Q544.2 288.3 544.6 289.1Q545.1 290.0 545.1 291.2L545.1 291.2Q545.1 292.4 544.6 293.3Q544.2 294.2 543.4 294.7Q542.5 295.2 541.4 295.2ZM541.4 293.5L541.4 293.5Q541.9 293.5 542.3 293.2Q542.6 292.9 542.8 292.4Q543.0 291.9 543.0 291.2L543.0 291.2Q543.0 290.5 542.8 290.0Q542.6 289.5 542.3 289.2Q541.9 288.9 541.4 288.9L541.4 288.9Q540.8 288.9 540.5 289.2Q540.1 289.5 539.9 290.0Q539.7 290.5 539.7 291.2L539.7 291.2Q539.7 291.9 539.9 292.4Q540.1 292.9 540.5 293.2Q540.8 293.5 541.4 293.5ZM548.6 295L546.5 295L546.5 287.4L548.5 287.4L548.5 288.7L548.6 288.7Q548.8 288.0 549.3 287.6Q549.8 287.3 550.4 287.3L550.4 287.3Q550.6 287.3 550.8 287.3Q551.0 287.3 551.1 287.3L551.1 287.3L551.1 289.2Q551.0 289.1 550.7 289.1Q550.4 289.1 550.2 289.1L550.2 289.1Q549.8 289.1 549.4 289.3Q549 289.5 548.8 289.8Q548.6 290.2 548.6 290.7L548.6 290.7L548.6 295ZM554.6 287.4L556.0 287.4L556.0 288.9L554.6 288.9L554.6 292.8Q554.6 293.1 554.8 293.3Q554.9 293.5 555.3 293.5L555.3 293.5Q555.4 293.5 555.6 293.4Q555.8 293.4 555.9 293.4L555.9 293.4L556.2 294.9Q555.9 295.0 555.6 295.1Q555.2 295.1 554.9 295.1L554.9 295.1Q553.8 295.1 553.2 294.5Q552.5 294.0 552.5 292.9L552.5 292.9L552.5 288.9L551.5 288.9L551.5 287.4L552.5 287.4L552.5 285.5L554.6 285.5L554.6 287.4ZM560.0 287.4L561.6 287.4L561.6 288.9L560.0 288.9L560.0 295L558.0 295L558.0 288.9L556.6 288.9L556.6 287.4L558.0 287.4L558.0 286.8Q558.0 286.0 558.3 285.4Q558.6 284.9 559.2 284.6Q559.7 284.3 560.5 284.3L560.5 284.3Q560.9 284.3 561.3 284.4Q561.7 284.5 561.9 284.5L561.9 284.5L561.6 286.1Q561.4 286.1 561.2 286.0Q561.1 286.0 560.9 286.0L560.9 286.0Q560.4 286.0 560.2 286.2Q560.0 286.4 560.0 286.8L560.0 286.8L560.0 287.4ZM566.3 295.2L566.3 295.2Q565.2 295.2 564.4 294.7Q563.5 294.2 563.1 293.3Q562.6 292.4 562.6 291.2L562.6 291.2Q562.6 290.0 563.1 289.1Q563.5 288.3 564.4 287.8Q565.2 287.3 566.3 287.3L566.3 287.3Q567.5 287.3 568.3 287.8Q569.2 288.3 569.6 289.1Q570.1 290.0 570.1 291.2L570.1 291.2Q570.1 292.4 569.6 293.3Q569.2 294.2 568.3 294.7Q567.5 295.2 566.3 295.2ZM566.3 293.5L566.3 293.5Q566.9 293.5 567.3 293.2Q567.6 292.9 567.8 292.4Q568.0 291.9 568.0 291.2L568.0 291.2Q568.0 290.5 567.8 290.0Q567.6 289.5 567.3 289.2Q566.9 288.9 566.3 288.9L566.3 288.9Q565.8 288.9 565.4 289.2Q565.1 289.5 564.9 290.0Q564.7 290.5 564.7 291.2L564.7 291.2Q564.7 291.9 564.9 292.4Q565.1 292.9 565.4 293.2Q565.8 293.5 566.3 293.5ZM571.5 284.8L573.6 284.8L573.6 295L571.5 295L571.5 284.8ZM577.4 295L575.3 295L575.3 287.4L577.4 287.4L577.4 295ZM576.3 286.4L576.3 286.4Q575.9 286.4 575.5 286.1Q575.2 285.7 575.2 285.3L575.2 285.3Q575.2 284.9 575.5 284.6Q575.9 284.3 576.3 284.3L576.3 284.3Q576.8 284.3 577.1 284.6Q577.5 284.9 577.5 285.3L577.5 285.3Q577.5 285.7 577.1 286.1Q576.8 286.4 576.3 286.4ZM582.5 295.2L582.5 295.2Q581.4 295.2 580.5 294.7Q579.7 294.2 579.2 293.3Q578.8 292.4 578.8 291.2L578.8 291.2Q578.8 290.0 579.2 289.1Q579.7 288.3 580.5 287.8Q581.4 287.3 582.5 287.3L582.5 287.3Q583.7 287.3 584.5 287.8Q585.4 288.3 585.8 289.1Q586.3 290.0 586.3 291.2L586.3 291.2Q586.3 292.4 585.8 293.3Q585.4 294.2 584.5 294.7Q583.7 295.2 582.5 295.2ZM582.5 293.5L582.5 293.5Q583.1 293.5 583.4 293.2Q583.8 292.9 584.0 292.4Q584.2 291.9 584.2 291.2L584.2 291.2Q584.2 290.5 584.0 290.0Q583.8 289.5 583.4 289.2Q583.1 288.9 582.5 288.9L582.5 288.9Q582.0 288.9 581.6 289.2Q581.2 289.5 581.1 290.0Q580.9 290.5 580.9 291.2L580.9 291.2Q580.9 291.9 581.1 292.4Q581.2 292.9 581.6 293.2Q582.0 293.5 582.5 293.5Z "/></g><mask id="satori_om-id-6"><rect x="622" y="308" width="145" height="15" fill="#fff" mask="url(#satori_om-id)"/></mask><g mask="url(#satori_om-id)" clip-path="url(#satori_cp-id)"><path fill="#52525b" d="M624.0 322.4L622.9 322.4L622.9 313.4L623.9 313.4L623.9 314.5L624.1 314.5Q624.2 314.3 624.4 314.1Q624.6 313.8 624.9 313.6Q625.3 313.4 626.0 313.4L626.0 313.4Q626.8 313.4 627.4 313.8Q628.0 314.2 628.4 314.9Q628.7 315.7 628.7 316.7L628.7 316.7Q628.7 317.8 628.4 318.5Q628.0 319.3 627.4 319.7Q626.8 320.1 626.0 320.1L626.0 320.1Q625.3 320.1 625.0 319.9Q624.6 319.7 624.4 319.4Q624.2 319.2 624.1 319.0L624.1 319.0L624.0 319.0L624.0 322.4ZM625.8 319.2L625.8 319.2Q626.4 319.2 626.8 318.9Q627.3 318.5 627.5 318.0Q627.7 317.4 627.7 316.7L627.7 316.7Q627.7 316.1 627.5 315.5Q627.3 315.0 626.8 314.6Q626.4 314.3 625.8 314.3L625.8 314.3Q625.2 314.3 624.8 314.6Q624.4 314.9 624.2 315.5Q624.0 316.0 624.0 316.7L624.0 316.7Q624.0 317.5 624.2 318.0Q624.4 318.6 624.8 318.9Q625.2 319.2 625.8 319.2ZM632.9 320.1L632.9 320.1Q632.0 320.1 631.4 319.7Q630.7 319.3 630.3 318.5Q630.0 317.8 630.0 316.8L630.0 316.8Q630.0 315.7 630.3 315.0Q630.7 314.2 631.4 313.8Q632.0 313.4 632.9 313.4L632.9 313.4Q633.8 313.4 634.5 313.8Q635.2 314.2 635.6 315.0Q635.9 315.7 635.9 316.8L635.9 316.8Q635.9 317.8 635.6 318.5Q635.2 319.3 634.5 319.7Q633.8 320.1 632.9 320.1ZM632.9 319.2L632.9 319.2Q633.6 319.2 634.0 318.9Q634.5 318.5 634.7 318.0Q634.9 317.4 634.9 316.8L634.9 316.8Q634.9 316.1 634.7 315.6Q634.5 315.0 634.0 314.7Q633.6 314.3 632.9 314.3L632.9 314.3Q632.3 314.3 631.9 314.7Q631.4 315.0 631.2 315.6Q631.0 316.1 631.0 316.8L631.0 316.8Q631.0 317.4 631.2 318.0Q631.4 318.5 631.9 318.9Q632.3 319.2 632.9 319.2ZM640.0 320L638.9 320L637.0 313.4L638.1 313.4L638.9 316.3Q639.0 316.9 639.2 317.6L639.2 317.6Q639.4 318.2 639.5 318.9L639.5 318.9Q639.6 318.2 639.8 317.7L639.8 317.7Q639.9 316.9 640.1 316.3L640.1 316.3L640.9 313.4L642.0 313.4L642.8 316.3Q643.0 316.9 643.1 317.7L643.1 317.7Q643.3 318.2 643.4 318.9L643.4 318.9Q643.5 318.2 643.7 317.7L643.7 317.7Q643.9 316.9 644.0 316.3L644.0 316.3L644.8 313.4L646.0 313.4L644.0 320L642.9 320L642.1 317.0Q641.9 316.6 641.8 316.1Q641.7 315.6 641.6 315.2L641.6 315.2Q641.5 314.9 641.5 314.6L641.5 314.6Q641.4 314.9 641.3 315.1L641.3 315.1Q641.2 315.6 641.1 316.1Q641.0 316.6 640.8 317.0L640.8 317.0L640.0 320ZM650.0 320.1L650.0 320.1Q649.1 320.1 648.4 319.7Q647.7 319.3 647.3 318.5Q647.0 317.8 647.0 316.8Q647.0 315.8 647.3 315.0Q647.7 314.2 648.4 313.8Q649.0 313.4 649.9 313.4L649.9 313.4Q650.4 313.4 650.9 313.5Q651.5 313.7 651.9 314.1Q652.3 314.5 652.5 315.1Q652.8 315.7 652.8 316.6L652.8 316.6L652.8 317.1L648.0 317.1Q648.1 317.7 648.3 318.2L648.3 318.2Q648.5 318.7 649.0 318.9Q649.5 319.2 650.0 319.2L650.0 319.2Q650.4 319.2 650.8 319.1Q651.1 319.0 651.3 318.8Q651.5 318.5 651.6 318.2L651.6 318.2L652.7 318.5Q652.5 319.0 652.2 319.3Q651.8 319.7 651.3 319.9Q650.7 320.1 650.0 320.1ZM648.0 316.2L648.0 316.2L651.7 316.2Q651.7 315.7 651.5 315.4L651.5 315.4Q651.3 314.9 650.9 314.6Q650.5 314.3 649.9 314.3Q649.3 314.3 648.9 314.6Q648.5 314.9 648.3 315.3L648.3 315.3Q648.1 315.7 648.0 316.2ZM655.3 320L654.3 320L654.3 313.4L655.3 313.4L655.3 314.5L655.4 314.5Q655.6 314.0 656.0 313.7Q656.5 313.4 657.1 313.4L657.1 313.4Q657.2 313.4 657.4 313.4Q657.5 313.4 657.6 313.4L657.6 313.4L657.6 314.4Q657.6 314.4 657.4 314.4Q657.2 314.4 657.0 314.4L657.0 314.4Q656.5 314.4 656.1 314.6Q655.8 314.8 655.6 315.1Q655.3 315.5 655.3 315.9L655.3 315.9L655.3 320ZM661.6 320.1L661.6 320.1Q660.6 320.1 659.9 319.7Q659.2 319.3 658.9 318.5Q658.5 317.8 658.5 316.8Q658.5 315.8 658.8 315.0Q659.2 314.2 659.9 313.8Q660.5 313.4 661.4 313.4L661.4 313.4Q662.0 313.4 662.5 313.5Q663.0 313.7 663.4 314.1Q663.8 314.5 664.0 315.1Q664.3 315.7 664.3 316.6L664.3 316.6L664.3 317.1L659.6 317.1Q659.6 317.7 659.8 318.2L659.8 318.2Q660.1 318.7 660.5 318.9Q661.0 319.2 661.6 319.2L661.6 319.2Q661.9 319.2 662.3 319.1Q662.6 319.0 662.8 318.8Q663.0 318.5 663.2 318.2L663.2 318.2L664.2 318.5Q664.0 319.0 663.7 319.3Q663.3 319.7 662.8 319.9Q662.2 320.1 661.6 320.1ZM659.6 316.2L659.6 316.2L663.2 316.2Q663.2 315.7 663.0 315.4L663.0 315.4Q662.8 314.9 662.4 314.6Q662.0 314.3 661.4 314.3Q660.8 314.3 660.4 314.6Q660.0 314.9 659.8 315.3L659.8 315.3Q659.6 315.7 659.6 316.2ZM668.3 320.1L668.3 320.1Q667.4 320.1 666.8 319.7Q666.2 319.3 665.8 318.5Q665.5 317.8 665.5 316.7L665.5 316.7Q665.5 315.7 665.8 314.9Q666.2 314.2 666.8 313.8Q667.4 313.4 668.3 313.4L668.3 313.4Q668.9 313.4 669.3 313.6Q669.6 313.8 669.9 314.1Q670.1 314.3 670.2 314.5L670.2 314.5L670.2 314.5L670.2 311.3L671.3 311.3L671.3 320L670.3 320L670.3 319.0L670.2 319.0Q670.1 319.2 669.8 319.4Q669.6 319.7 669.3 319.9Q668.9 320.1 668.3 320.1ZM668.4 319.2L668.4 319.2Q669.0 319.2 669.4 318.9Q669.8 318.6 670.0 318.0Q670.3 317.5 670.3 316.7L670.3 316.7Q670.3 316.0 670.0 315.5Q669.8 314.9 669.4 314.6Q669.0 314.3 668.4 314.3L668.4 314.3Q667.8 314.3 667.4 314.6Q667.0 315.0 666.8 315.5Q666.6 316.1 666.6 316.7L666.6 316.7Q666.6 317.4 666.8 318.0Q667.0 318.5 667.4 318.9Q667.8 319.2 668.4 319.2Z M679.6 320.1L679.6 320.1Q678.9 320.1 678.6 319.9Q678.2 319.7 678.0 319.4Q677.8 319.2 677.7 319.0L677.7 319.0L677.5 319.0L677.5 320L676.5 320L676.5 311.3L677.6 311.3L677.6 314.5L677.7 314.5Q677.8 314.3 678.0 314.1Q678.2 313.8 678.5 313.6Q678.9 313.4 679.6 313.4L679.6 313.4Q680.4 313.4 681.0 313.8Q681.6 314.2 682.0 314.9Q682.3 315.7 682.3 316.7L682.3 316.7Q682.3 317.8 682.0 318.5Q681.6 319.3 681.0 319.7Q680.4 320.1 679.6 320.1ZM679.4 319.2L679.4 319.2Q680.0 319.2 680.4 318.9Q680.8 318.5 681.1 318.0Q681.3 317.4 681.3 316.7L681.3 316.7Q681.3 316.1 681.1 315.5Q680.9 315.0 680.4 314.6Q680.0 314.3 679.4 314.3L679.4 314.3Q678.8 314.3 678.4 314.6Q678.0 314.9 677.8 315.5Q677.6 316.0 677.6 316.7L677.6 316.7Q677.6 317.5 677.8 318.0Q678.0 318.6 678.4 318.9Q678.8 319.2 679.4 319.2ZM683.8 322.4L683.8 322.4L684.0 321.5L684.1 321.5Q684.5 321.6 684.7 321.5Q685.0 321.5 685.2 321.3Q685.4 321.0 685.6 320.6L685.6 320.6L685.8 320.0L683.3 313.4L684.4 313.4L685.8 317.3Q686.0 317.9 686.2 318.5L686.2 318.5Q686.2 318.8 686.3 319.0L686.3 319.0Q686.4 318.8 686.4 318.5L686.4 318.5Q686.6 317.9 686.8 317.3L686.8 317.3L688.2 313.4L689.4 313.4L686.5 321.0Q686.3 321.5 686.0 321.8Q685.7 322.2 685.4 322.3Q685 322.5 684.5 322.5L684.5 322.5Q684.3 322.5 684.1 322.5Q683.8 322.4 683.8 322.4Z M695.0 320L694.0 320L694.0 313.4L695.0 313.4L695.0 314.5L695.1 314.5Q695.3 314.0 695.7 313.7Q696.2 313.4 696.8 313.4L696.8 313.4Q696.9 313.4 697.1 313.4Q697.2 313.4 697.3 313.4L697.3 313.4L697.3 314.4Q697.3 314.4 697.1 314.4Q696.9 314.4 696.7 314.4L696.7 314.4Q696.2 314.4 695.8 314.6Q695.5 314.8 695.3 315.1Q695.0 315.5 695.0 315.9L695.0 315.9L695.0 320ZM701.3 320.1L701.3 320.1Q700.3 320.1 699.6 319.7Q698.9 319.3 698.6 318.5Q698.2 317.8 698.2 316.8Q698.2 315.8 698.6 315.0Q698.9 314.2 699.6 313.8Q700.2 313.4 701.1 313.4L701.1 313.4Q701.7 313.4 702.2 313.5Q702.7 313.7 703.1 314.1Q703.5 314.5 703.7 315.1Q704.0 315.7 704.0 316.6L704.0 316.6L704.0 317.1L699.3 317.1Q699.3 317.7 699.5 318.2L699.5 318.2Q699.8 318.7 700.2 318.9Q700.7 319.2 701.3 319.2L701.3 319.2Q701.7 319.2 702.0 319.1Q702.3 319.0 702.5 318.8Q702.7 318.5 702.9 318.2L702.9 318.2L703.9 318.5Q703.7 319.0 703.4 319.3Q703.0 319.7 702.5 319.9Q701.9 320.1 701.3 320.1ZM699.3 316.2L699.3 316.2L702.9 316.2Q702.9 315.7 702.7 315.4L702.7 315.4Q702.5 314.9 702.1 314.6Q701.7 314.3 701.1 314.3Q700.5 314.3 700.1 314.6Q699.7 314.9 699.5 315.3L699.5 315.3Q699.3 315.7 699.3 316.2ZM707.3 320.2L707.3 320.2Q706.7 320.2 706.2 319.9Q705.7 319.7 705.4 319.2Q705.1 318.8 705.1 318.1L705.1 318.1Q705.1 317.6 705.3 317.2Q705.5 316.9 705.9 316.7Q706.3 316.5 706.7 316.4Q707.2 316.3 707.7 316.2L707.7 316.2Q708.2 316.1 708.6 316.1Q709.0 316.1 709.2 316.0Q709.3 315.9 709.3 315.6L709.3 315.6L709.3 315.6Q709.3 315.2 709.2 314.9Q709.0 314.6 708.7 314.4Q708.4 314.3 708.0 314.3L708.0 314.3Q707.5 314.3 707.2 314.4Q706.8 314.6 706.6 314.8Q706.4 315.0 706.3 315.3L706.3 315.3L705.3 314.9Q705.5 314.3 706.0 314.0Q706.4 313.6 706.9 313.5Q707.4 313.4 707.9 313.4L707.9 313.4Q708.3 313.4 708.7 313.4Q709.1 313.5 709.5 313.8Q709.9 314.0 710.1 314.5Q710.4 314.9 710.4 315.7L710.4 315.7L710.4 320L709.4 320L709.4 319.1L709.3 319.1Q709.2 319.3 708.9 319.6Q708.7 319.8 708.3 320.0Q707.9 320.2 707.3 320.2ZM707.5 319.2L707.5 319.2Q708.1 319.2 708.5 319.0Q708.9 318.8 709.1 318.4Q709.3 318.0 709.3 317.6L709.3 317.6L709.3 316.7Q709.3 316.8 709.1 316.9Q708.8 316.9 708.6 317.0Q708.3 317.0 708.0 317.0Q707.8 317.1 707.6 317.1L707.6 317.1Q707.2 317.1 706.9 317.3Q706.6 317.4 706.4 317.6Q706.2 317.8 706.2 318.2L706.2 318.2Q706.2 318.5 706.3 318.8Q706.5 319.0 706.8 319.1Q707.1 319.2 707.5 319.2ZM714.7 320.1L714.7 320.1Q713.9 320.1 713.3 319.7Q712.6 319.3 712.3 318.5Q711.9 317.8 711.9 316.7L711.9 316.7Q711.9 315.7 712.3 314.9Q712.6 314.2 713.3 313.8Q713.9 313.4 714.7 313.4L714.7 313.4Q715.3 313.4 715.7 313.6Q716.1 313.8 716.3 314.1Q716.5 314.3 716.6 314.5L716.6 314.5L716.7 314.5L716.7 311.3L717.7 311.3L717.7 320L716.7 320L716.7 319.0L716.6 319.0Q716.5 319.2 716.3 319.4Q716.1 319.7 715.7 319.9Q715.3 320.1 714.7 320.1ZM714.9 319.2L714.9 319.2Q715.5 319.2 715.9 318.9Q716.3 318.6 716.5 318.0Q716.7 317.5 716.7 316.7L716.7 316.7Q716.7 316.0 716.5 315.5Q716.3 314.9 715.9 314.6Q715.5 314.3 714.9 314.3L714.9 314.3Q714.2 314.3 713.8 314.6Q713.4 315.0 713.2 315.5Q713.0 316.1 713.0 316.7L713.0 316.7Q713.0 317.4 713.2 318.0Q713.4 318.5 713.8 318.9Q714.2 319.2 714.9 319.2ZM720.6 320L719.6 320L719.6 313.4L720.6 313.4L720.6 314.7Q720.7 314.3 721.0 314.0L721.0 314.0Q721.3 313.7 721.6 313.5Q722.0 313.3 722.5 313.3L722.5 313.3Q723.2 313.3 723.6 313.8L723.6 313.8Q724.0 314.1 724.1 314.7L724.1 314.7Q724.2 314.3 724.5 314.1L724.5 314.1Q724.8 313.7 725.2 313.5Q725.7 313.3 726.2 313.3L726.2 313.3Q726.8 313.3 727.2 313.6Q727.7 313.8 728.0 314.3Q728.2 314.8 728.2 315.6L728.2 315.6L728.2 320L727.2 320L727.2 315.6Q727.2 314.9 726.8 314.6Q726.4 314.3 725.9 314.3L725.9 314.3Q725.4 314.3 725.1 314.5Q724.8 314.7 724.6 315.0Q724.4 315.3 724.4 315.7L724.4 315.7L724.4 320L723.4 320L723.4 315.5Q723.4 315.0 723.0 314.6Q722.7 314.3 722.1 314.3L722.1 314.3Q721.7 314.3 721.4 314.5Q721.1 314.7 720.8 315.0Q720.6 315.4 720.6 315.9L720.6 315.9L720.6 320ZM732.9 320.1L732.9 320.1Q731.9 320.1 731.2 319.7Q730.5 319.3 730.2 318.5Q729.8 317.8 729.8 316.8Q729.8 315.8 730.1 315.0Q730.5 314.2 731.2 313.8Q731.8 313.4 732.7 313.4L732.7 313.4Q733.3 313.4 733.8 313.5Q734.3 313.7 734.7 314.1Q735.1 314.5 735.3 315.1Q735.6 315.7 735.6 316.6L735.6 316.6L735.6 317.1L730.8 317.1Q730.9 317.7 731.1 318.2L731.1 318.2Q731.4 318.7 731.8 318.9Q732.3 319.2 732.9 319.2L732.9 319.2Q733.2 319.2 733.6 319.1Q733.9 319.0 734.1 318.8Q734.3 318.5 734.5 318.2L734.5 318.2L735.5 318.5Q735.3 319.0 735.0 319.3Q734.6 319.7 734.1 319.9Q733.5 320.1 732.9 320.1ZM730.9 316.2L730.9 316.2L734.5 316.2Q734.5 315.7 734.3 315.4L734.3 315.4Q734.1 314.9 733.7 314.6Q733.3 314.3 732.7 314.3Q732.1 314.3 731.7 314.6Q731.3 314.9 731.1 315.3L731.1 315.3Q730.9 315.7 730.9 316.2ZM737.0 315.8L740.8 315.8L740.8 316.8L737.0 316.8L737.0 315.8ZM744.4 320.2L744.4 320.2Q743.8 320.2 743.3 319.9Q742.8 319.7 742.5 319.2Q742.2 318.8 742.2 318.1L742.2 318.1Q742.2 317.6 742.4 317.2Q742.7 316.9 743.0 316.7Q743.4 316.5 743.9 316.4Q744.3 316.3 744.8 316.2L744.8 316.2Q745.4 316.1 745.7 316.1Q746.1 316.1 746.3 316.0Q746.4 315.9 746.4 315.6L746.4 315.6L746.4 315.6Q746.4 315.2 746.3 314.9Q746.1 314.6 745.8 314.4Q745.5 314.3 745.1 314.3L745.1 314.3Q744.6 314.3 744.3 314.4Q743.9 314.6 743.7 314.8Q743.5 315.0 743.4 315.3L743.4 315.3L742.4 314.9Q742.7 314.3 743.1 314.0Q743.5 313.6 744.0 313.5Q744.5 313.4 745.0 313.4L745.0 313.4Q745.4 313.4 745.8 313.4Q746.2 313.5 746.6 313.8Q747.0 314.0 747.2 314.5Q747.5 314.9 747.5 315.7L747.5 315.7L747.5 320L746.5 320L746.5 319.1L746.4 319.1Q746.3 319.3 746.0 319.6Q745.8 319.8 745.4 320.0Q745.0 320.2 744.4 320.2ZM744.6 319.2L744.6 319.2Q745.2 319.2 745.6 319.0Q746.0 318.8 746.2 318.4Q746.4 318.0 746.4 317.6L746.4 317.6L746.4 316.7Q746.4 316.8 746.2 316.9Q745.9 316.9 745.7 317.0Q745.4 317.0 745.1 317.0Q744.9 317.1 744.7 317.1L744.7 317.1Q744.3 317.1 744.0 317.3Q743.7 317.4 743.5 317.6Q743.3 317.8 743.3 318.2L743.3 318.2Q743.3 318.5 743.5 318.8Q743.6 319.0 743.9 319.1Q744.2 319.2 744.6 319.2ZM751.6 320.1L751.6 320.1Q750.9 320.1 750.4 319.8Q749.9 319.5 749.6 319.0Q749.4 318.4 749.4 317.6L749.4 317.6L749.4 313.4L750.4 313.4L750.4 317.5Q750.4 318.3 750.8 318.7Q751.2 319.1 751.9 319.1L751.9 319.1Q752.4 319.1 752.7 318.9Q753.1 318.7 753.3 318.3Q753.5 317.9 753.5 317.4L753.5 317.4L753.5 313.4L754.6 313.4L754.6 320L753.6 320L753.6 318.8Q753.3 319.4 752.9 319.7L752.9 319.7Q752.3 320.1 751.6 320.1ZM757.5 320L756.4 320L756.4 313.4L757.5 313.4L757.5 314.5L757.5 314.5Q757.7 314.0 758.2 313.7Q758.7 313.4 759.2 313.4L759.2 313.4Q759.4 313.4 759.5 313.4Q759.7 313.4 759.8 313.4L759.8 313.4L759.8 314.4Q759.7 314.4 759.5 314.4Q759.3 314.4 759.1 314.4L759.1 314.4Q758.7 314.4 758.3 314.6Q757.9 314.8 757.7 315.1Q757.5 315.5 757.5 315.9L757.5 315.9L757.5 320ZM762.8 320.2L762.8 320.2Q762.2 320.2 761.7 319.9Q761.2 319.7 760.9 319.2Q760.6 318.8 760.6 318.1L760.6 318.1Q760.6 317.6 760.8 317.2Q761.0 316.9 761.4 316.7Q761.8 316.5 762.2 316.4Q762.7 316.3 763.1 316.2L763.1 316.2Q763.7 316.1 764.1 316.1Q764.4 316.1 764.6 316.0Q764.8 315.9 764.8 315.6L764.8 315.6L764.8 315.6Q764.8 315.2 764.6 314.9Q764.5 314.6 764.2 314.4Q763.9 314.3 763.4 314.3L763.4 314.3Q763.0 314.3 762.6 314.4Q762.3 314.6 762.1 314.8Q761.9 315.0 761.8 315.3L761.8 315.3L760.8 314.9Q761.0 314.3 761.4 314.0Q761.9 313.6 762.4 313.5Q762.9 313.4 763.4 313.4L763.4 313.4Q763.7 313.4 764.1 313.4Q764.6 313.5 765.0 313.8Q765.3 314.0 765.6 314.5Q765.9 314.9 765.9 315.7L765.9 315.7L765.9 320L764.8 320L764.8 319.1L764.7 319.1Q764.6 319.3 764.4 319.6Q764.1 319.8 763.8 320.0Q763.4 320.2 762.8 320.2ZM763.0 319.2L763.0 319.2Q763.6 319.2 764.0 319.0Q764.4 318.8 764.6 318.4Q764.8 318.0 764.8 317.6L764.8 317.6L764.8 316.7Q764.7 316.8 764.5 316.9Q764.3 316.9 764.0 317.0Q763.7 317.0 763.5 317.0Q763.2 317.1 763.1 317.1L763.1 317.1Q762.7 317.1 762.4 317.3Q762.0 317.4 761.8 317.6Q761.6 317.8 761.6 318.2L761.6 318.2Q761.6 318.5 761.8 318.8Q762.0 319.0 762.3 319.1Q762.6 319.2 763.0 319.2Z "/></g></svg>