<!-- Generated by readme-aura https://github.com/collectioneur/readme-aura -->
<svg width="120" height="44" viewBox="0 0 120 44" xmlns="http://www.w3.org/2000/svg"><defs><clipPath id="satori_bc-id"><path x="0" y="0" width="120" height="44" d="M22,0 h76 a22,22 0 0 1 22,22 v0 a22,22 0 0 1 -22,22 h-76 a22,22 0 0 1 -22,-22 v0 a22,22 0 0 1 22,-22"/></clipPath></defs><mask id="satori_om-id"><rect x="1" y="1" width="118" height="42" fill="#fff"/><path width="120" height="44" fill="none" stroke="#000" stroke-width="2" d="M6.444000000000001,6.444000000000001 A22,22 0 0 1 22,0 h76 a22,22 0 0 1 22,22 v0 a22,22 0 0 1 -22,22 h-76 a22,22 0 0 1 -22,-22 v0 A22,22 0 0 1 6.444000000000001,6.444000000000001"/></mask><path x="0" y="0" width="120" height="44" fill="#ea4335" d="M22,0 h76 a22,22 0 0 1 22,22 v0 a22,22 0 0 1 -22,22 h-76 a22,22 0 0 1 -22,-22 v0 a22,22 0 0 1 22,-22"/><path width="120" height="44" clip-path="url(#satori_bc-id)" fill="none" stroke="#27272a" stroke-width="2" d="M6.444000000000001,6.444000000000001 A22,22 0 0 1 22,0 h76 a22,22 0 0 1 22,22 v0 a22,22 0 0 1 -22,22 h-76 a22,22 0 0 1 -22,-22 v0 A22,22 0 0 1 6.444000000000001,6.444000000000001"/><mask id="satori_om-id-0"><rect x="42" y="14" width="37" height="17" fill="#fff"/></mask><g  ><path fill="white" d="M49.8 28L42.9 28L42.9 17.8L49.7 17.8L49.7 19.5L45.0 19.5L45.0 22.0L49.4 22.0L49.4 23.7L45.0 23.7L45.0 26.3L49.8 26.3L49.8 28ZM53.4 28L51.4 28L51.4 20.4L53.3 20.4L53.4 21.8Q53.5 21.4 53.8 21.1L53.8 21.1Q54.1 20.7 54.6 20.5Q55.0 20.2 55.5 20.2L55.5 20.2Q56.4 20.2 56.9 20.8L56.9 20.8Q57.3 21.2 57.5 22.0L57.5 22.0Q57.7 21.5 57.9 21.2L57.9 21.2Q58.3 20.7 58.9 20.5Q59.4 20.2 60.0 20.2L60.0 20.2Q60.7 20.2 61.2 20.5Q61.8 20.9 62.1 21.4Q62.4 22.0 62.4 22.8L62.4 22.8L62.4 28L60.4 28L60.4 23.2Q60.4 22.6 60.0 22.3Q59.7 22.0 59.1 22.0L59.1 22.0Q58.8 22.0 58.5 22.1Q58.2 22.3 58.0 22.6Q57.9 22.9 57.9 23.3L57.9 23.3L57.9 28L55.9 28L55.9 23.2Q55.9 22.6 55.6 22.3Q55.2 22.0 54.7 22.0L54.7 22.0Q54.3 22.0 54.1 22.1Q53.8 22.3 53.6 22.6Q53.4 22.9 53.4 23.4L53.4 23.4L53.4 28ZM66.3 28.2L66.3 28.2Q65.6 28.2 65.0 27.9Q64.4 27.6 64.1 27.1Q63.7 26.6 63.7 25.9L63.7 25.9Q63.7 25.2 64.0 24.8Q64.2 24.4 64.6 24.1Q65.0 23.8 65.5 23.7Q66.1 23.6 66.6 23.5L66.6 23.5Q67.3 23.4 67.7 23.4Q68.1 23.3 68.3 23.2Q68.5 23.1 68.5 22.8L68.5 22.8L68.5 22.8Q68.5 22.5 68.3 22.2Q68.2 22.0 67.9 21.9Q67.7 21.8 67.3 21.8L67.3 21.8Q66.9 21.8 66.6 21.9Q66.3 22.0 66.1 22.2Q65.9 22.4 65.8 22.7L65.8 22.7L64.0 22.4Q64.2 21.7 64.6 21.2Q65.1 20.8 65.8 20.5Q66.4 20.3 67.3 20.3L67.3 20.3Q67.9 20.3 68.5 20.4Q69.1 20.6 69.5 20.9Q70.0 21.2 70.3 21.7Q70.5 22.2 70.5 22.9L70.5 22.9L70.5 28L68.6 28L68.6 26.9L68.5 26.9Q68.3 27.3 68.0 27.6Q67.7 27.8 67.3 28.0Q66.9 28.2 66.3 28.2ZM66.9 26.7L66.9 26.7Q67.4 26.7 67.7 26.5Q68.1 26.3 68.3 26.0Q68.5 25.7 68.5 25.3L68.5 25.3L68.5 24.4Q68.4 24.5 68.2 24.6Q68.0 24.6 67.8 24.7Q67.6 24.7 67.4 24.7Q67.1 24.8 67.0 24.8L67.0 24.8Q66.6 24.8 66.3 25.0Q66.0 25.1 65.9 25.3Q65.7 25.5 65.7 25.8L65.7 25.8Q65.7 26.1 65.9 26.3Q66.0 26.5 66.3 26.6Q66.5 26.7 66.9 26.7ZM74.3 28L72.3 28L72.3 20.4L74.3 20.4L74.3 28ZM73.3 19.4L73.3 19.4Q72.8 19.4 72.5 19.1Q72.2 18.7 72.2 18.3L72.2 18.3Q72.2 17.9 72.5 17.6Q72.8 17.3 73.3 17.3L73.3 17.3Q73.8 17.3 74.1 17.6Q74.4 17.9 74.4 18.3L74.4 18.3Q74.4 18.7 74.1 19.1Q73.8 19.4 73.3 19.4ZM76.1 17.8L78.1 17.8L78.1 28L76.1 28L76.1 17.8Z "/></g></svg>