<!-- Generated by readme-aura https://github.com/collectioneur/readme-aura -->
<svg width="120" height="44" viewBox="0 0 120 44" xmlns="http://www.w3.org/2000/svg"><mask id="satori_om-id"><rect x="0" y="0" width="120" height="44" fill="#fff"/></mask><path x="0" y="0" width="120" height="44" fill="#000000" d="M22,0 h76 a22,22 0 0 1 22,22 v0 a22,22 0 0 1 -22,22 h-76 a22,22 0 0 1 -22,-22 v0 a22,22 0 0 1 22,-22"/><clipPath id="satori_cp-id-0"><rect x="0" y="0" width="120" height="44"/></clipPath><mask id="satori_om-id-0"><rect x="0" y="0" width="120" height="44" fill="#fff"/></mask><svg x="0" y="0" width="120" height="44" preserveAspectRatio="none" clip-path="url(#satori_cp-id-0)" mask="url(#satori_om-id-0)"><defs><linearGradient id="smb-grad-Xcom" gradientUnits="objectBoundingBox" x1="0" y1="0" x2="1" y2="1"><stop offset="0%" stop-color="#818cf8"></stop><stop offset="30%" stop-color="#000000"></stop><stop offset="60%" stop-color="#9298f8"></stop><stop offset="80%" stop-color="#000000"></stop><stop offset="100%" stop-color="#7479f5"></stop><animateTransform attributeName="gradientTransform" type="rotate" from="0 0.5 0.5" to="360 0.5 0.5" dur="8s" repeatCount="indefinite"></animateTransform></linearGradient></defs><rect x="1.25" y="1.25" width="117.5" height="41.5" rx="20.75" ry="20.75" fill="none" stroke="url(#smb-grad-Xcom)" stroke-width="2" stroke-linecap="round" stroke-linejoin="round"></rect><rect x="0.25" y="0.25" width="119.5" height="43.5" rx="21.75" ry="21.75" fill="none" stroke="#AAAAAA" stroke-width="0.5" stroke-linecap="round" stroke-linejoin="round"></rect></svg><mask id="satori_om-id-0-0"><rect x="0" y="0" width="0" height="44" fill="#fff"/></mask><mask id="satori_om-id-0-0-0"><rect x="0" y="0" width="0" height="44" fill="#fff"/></mask><mask id="satori_om-id-0-0-0-0"><rect x="0" y="0" width="0" height="44" fill="#fff"/></mask><mask id="satori_om-id-0-0-0-1"><rect x="0" y="0" width="0" height="44" fill="#fff"/></mask><mask id="satori_om-id-0-0-0-2"><rect x="0" y="0" width="0" height="44" fill="#fff"/></mask><mask id="satori_om-id-0-0-0-3"><rect x="0" y="0" width="0" height="44" fill="#fff"/></mask><mask id="satori_om-id-0-0-0-4"><rect x="0" y="0" width="0" height="44" fill="#fff"/></mask><mask id="satori_om-id-0-0-0-5"><rect x="0" y="0" width="0" height="44" fill="#fff"/></mask><mask id="satori_om-id-0-1"><rect x="0" y="0" width="0" height="44" fill="#fff"/></mask><mask id="satori_om-id-0-2"><rect x="0" y="0" width="0" height="44" fill="#fff"/></mask><mask id="satori_om-id-1"><rect x="0" y="0" width="120" height="44" fill="#fff"/></mask><mask id="satori_om-id-1-0"><rect x="28" y="13" width="18" height="18" fill="#fff"/></mask><mask id="satori_om-id-1-1"><rect x="51" y="14" width="41" height="16" fill="#fff"/></mask><g  ><path fill="#f5f5f5" d="M53.6 27L51.3 27L54.7 22.2L51.6 17.5L53.9 17.5L54.9 19.1Q55.2 19.6 55.4 19.9Q55.6 20.3 55.7 20.6L55.7 20.6Q55.8 20.7 55.8 20.8L55.8 20.8Q55.9 20.7 55.9 20.6L55.9 20.6Q56.1 20.3 56.3 19.9Q56.5 19.6 56.7 19.1L56.7 19.1L57.8 17.5L60.0 17.5L56.9 22.1L60.3 27L58.0 27L56.7 25.0Q56.4 24.6 56.2 24.3Q56.1 24.1 56.0 23.8L56.0 23.8Q55.9 23.7 55.8 23.5L55.8 23.5Q55.7 23.7 55.7 23.8L55.7 23.8Q55.5 24.1 55.4 24.3Q55.2 24.6 54.9 25.0L54.9 25.0L53.6 27ZM62.6 27.1L62.6 27.1Q62.1 27.1 61.8 26.8Q61.5 26.5 61.5 26.0L61.5 26.0Q61.5 25.6 61.8 25.3Q62.1 24.9 62.6 24.9L62.6 24.9Q63.0 24.9 63.3 25.3Q63.7 25.6 63.7 26.0L63.7 26.0Q63.7 26.5 63.3 26.8Q63.0 27.1 62.6 27.1ZM68.5 27.1L68.5 27.1Q67.5 27.1 66.7 26.7Q65.9 26.2 65.5 25.4Q65.1 24.6 65.1 23.5L65.1 23.5Q65.1 22.4 65.5 21.6Q65.9 20.7 66.7 20.3Q67.5 19.8 68.5 19.8L68.5 19.8Q69.2 19.8 69.7 20.0Q70.2 20.1 70.6 20.4Q71.0 20.8 71.3 21.2Q71.6 21.6 71.7 22.2L71.7 22.2L69.9 22.5Q69.9 22.2 69.7 22.0Q69.6 21.8 69.4 21.6Q69.3 21.5 69.0 21.4Q68.8 21.3 68.5 21.3L68.5 21.3Q68.0 21.3 67.7 21.6Q67.3 21.9 67.2 22.3Q67.0 22.8 67.0 23.5L67.0 23.5Q67.0 24.1 67.2 24.6Q67.3 25.1 67.7 25.4Q68.0 25.6 68.5 25.6L68.5 25.6Q68.8 25.6 69.0 25.6Q69.3 25.5 69.5 25.3Q69.6 25.1 69.8 24.9Q69.9 24.7 69.9 24.4L69.9 24.4L71.7 24.7Q71.6 25.3 71.3 25.7Q71.1 26.2 70.6 26.5Q70.2 26.8 69.7 27.0Q69.2 27.1 68.5 27.1ZM76.0 27.1L76.0 27.1Q74.9 27.1 74.1 26.7Q73.3 26.2 72.9 25.4Q72.5 24.6 72.5 23.5L72.5 23.5Q72.5 22.4 72.9 21.6Q73.3 20.7 74.1 20.3Q74.9 19.8 76.0 19.8L76.0 19.8Q77.0 19.8 77.8 20.3Q78.6 20.7 79.0 21.6Q79.4 22.4 79.4 23.5L79.4 23.5Q79.4 24.6 79.0 25.4Q78.6 26.2 77.8 26.7Q77.0 27.1 76.0 27.1ZM76.0 25.6L76.0 25.6Q76.5 25.6 76.8 25.4Q77.2 25.1 77.3 24.6Q77.5 24.1 77.5 23.5L77.5 23.5Q77.5 22.8 77.3 22.4Q77.2 21.9 76.8 21.6Q76.5 21.3 76.0 21.3L76.0 21.3Q75.5 21.3 75.1 21.6Q74.8 21.9 74.6 22.4Q74.4 22.8 74.4 23.5L74.4 23.5Q74.4 24.1 74.6 24.6Q74.8 25.1 75.1 25.4Q75.5 25.6 76.0 25.6ZM82.5 27L80.6 27L80.6 19.9L82.3 19.9L82.4 21.3Q82.6 20.9 82.8 20.6L82.8 20.6Q83.1 20.2 83.5 20.0Q84.0 19.8 84.4 19.8L84.4 19.8Q85.2 19.8 85.7 20.3L85.7 20.3Q86.1 20.7 86.3 21.4L86.3 21.4Q86.4 21.0 86.7 20.7L86.7 20.7Q87.0 20.2 87.5 20.0Q88.0 19.8 88.5 19.8L88.5 19.8Q89.2 19.8 89.7 20.1Q90.2 20.4 90.5 20.9Q90.8 21.4 90.8 22.2L90.8 22.2L90.8 27L88.9 27L88.9 22.6Q88.9 22.0 88.6 21.7Q88.3 21.4 87.8 21.4L87.8 21.4Q87.4 21.4 87.2 21.5Q86.9 21.7 86.8 22.0Q86.6 22.3 86.6 22.6L86.6 22.6L86.6 27L84.8 27L84.8 22.5Q84.8 22.0 84.5 21.7Q84.2 21.4 83.7 21.4L83.7 21.4Q83.3 21.4 83.1 21.5Q82.8 21.7 82.6 22.0Q82.5 22.3 82.5 22.7L82.5 22.7L82.5 27Z "/></g></svg>