<!-- Generated by readme-aura https://github.com/collectioneur/readme-aura -->
<svg width="160" height="48" viewBox="0 0 160 48" xmlns="http://www.w3.org/2000/svg"><defs><clipPath id="satori_bc-id"><path x="0" y="0" width="160" height="48" d="M24,0 h112 a24,24 0 0 1 24,24 v0 a24,24 0 0 1 -24,24 h-112 a24,24 0 0 1 -24,-24 v0 a24,24 0 0 1 24,-24"/></clipPath></defs><mask id="satori_om-id"><rect x="1" y="1" width="158" height="46" fill="#fff"/><path width="160" height="48" fill="none" stroke="#000" stroke-width="2" d="M7.029,7.029 A24,24 0 0 1 24,0 h112 a24,24 0 0 1 24,24 v0 a24,24 0 0 1 -24,24 h-112 a24,24 0 0 1 -24,-24 v0 A24,24 0 0 1 7.029,7.029"/></mask><path x="0" y="0" width="160" height="48" fill="#09090b" d="M24,0 h112 a24,24 0 0 1 24,24 v0 a24,24 0 0 1 -24,24 h-112 a24,24 0 0 1 -24,-24 v0 a24,24 0 0 1 24,-24"/><path width="160" height="48" clip-path="url(#satori_bc-id)" fill="none" stroke="#27272a" stroke-width="2" d="M7.029,7.029 A24,24 0 0 1 24,0 h112 a24,24 0 0 1 24,24 v0 a24,24 0 0 1 -24,24 h-112 a24,24 0 0 1 -24,-24 v0 A24,24 0 0 1 7.029,7.029"/><mask id="satori_om-id-0"><rect x="62" y="16" width="36" height="17" fill="#fff"/></mask><g  ><path fill="white" d="M69.5 30L63.2 30L63.2 19.8L69.4 19.8L69.4 21.0L64.5 21.0L64.5 24.3L69.1 24.3L69.1 25.4L64.5 25.4L64.5 28.9L69.5 28.9L69.5 30ZM72.7 30L71.5 30L71.5 22.4L72.7 22.4L72.7 23.8Q72.8 23.3 73.1 23.0L73.1 23.0Q73.4 22.6 73.9 22.4Q74.3 22.2 74.8 22.2L74.8 22.2Q75.7 22.2 76.2 22.7L76.2 22.7Q76.6 23.2 76.8 23.8L76.8 23.8Q76.9 23.4 77.2 23.1L77.2 23.1Q77.6 22.7 78.1 22.4Q78.6 22.2 79.2 22.2L79.2 22.2Q79.9 22.2 80.4 22.5Q80.9 22.8 81.3 23.4Q81.6 24.0 81.6 24.8L81.6 24.8L81.6 30L80.4 30L80.4 24.9Q80.4 24.1 79.9 23.7Q79.4 23.3 78.8 23.3L78.8 23.3Q78.3 23.3 77.9 23.6Q77.6 23.8 77.4 24.1Q77.2 24.5 77.2 25.0L77.2 25.0L77.2 30L75.9 30L75.9 24.8Q75.9 24.1 75.5 23.7Q75.1 23.3 74.4 23.3L74.4 23.3Q74.0 23.3 73.6 23.6Q73.2 23.8 73.0 24.2Q72.7 24.6 72.7 25.2L72.7 25.2L72.7 30ZM85.9 30.2L85.9 30.2Q85.2 30.2 84.6 29.9Q84.0 29.6 83.6 29.1Q83.3 28.6 83.3 27.8L83.3 27.8Q83.3 27.2 83.6 26.8Q83.8 26.3 84.2 26.1Q84.7 25.9 85.2 25.8Q85.7 25.6 86.3 25.6L86.3 25.6Q87.0 25.5 87.4 25.4Q87.8 25.4 88.0 25.3Q88.2 25.2 88.2 24.9L88.2 24.9L88.2 24.8Q88.2 24.4 88.1 24.0Q87.9 23.7 87.5 23.5Q87.2 23.3 86.6 23.3L86.6 23.3Q86.1 23.3 85.7 23.5Q85.3 23.7 85.1 23.9Q84.8 24.2 84.7 24.5L84.7 24.5L83.5 24.1Q83.8 23.4 84.3 23.0Q84.8 22.6 85.4 22.4Q86.0 22.3 86.6 22.3L86.6 22.3Q87.0 22.3 87.5 22.4Q88.0 22.4 88.4 22.7Q88.9 23.0 89.2 23.5Q89.5 24.1 89.5 25.0L89.5 25.0L89.5 30L88.3 30L88.3 29.0L88.2 29.0Q88.0 29.2 87.8 29.5Q87.5 29.8 87.0 30.0Q86.5 30.2 85.9 30.2ZM86.1 29.1L86.1 29.1Q86.8 29.1 87.3 28.8Q87.7 28.6 88.0 28.1Q88.2 27.7 88.2 27.2L88.2 27.2L88.2 26.2Q88.2 26.3 87.9 26.3Q87.6 26.4 87.3 26.5Q87.0 26.5 86.7 26.6Q86.4 26.6 86.2 26.6L86.2 26.6Q85.8 26.7 85.4 26.8Q85.0 26.9 84.8 27.2Q84.5 27.5 84.5 27.9L84.5 27.9Q84.5 28.3 84.7 28.6Q84.9 28.8 85.3 29.0Q85.7 29.1 86.1 29.1ZM92.9 30L91.6 30L91.6 22.4L92.9 22.4L92.9 30ZM92.2 21.1L92.2 21.1Q91.9 21.1 91.6 20.9Q91.4 20.6 91.4 20.3L91.4 20.3Q91.4 20.0 91.6 19.7Q91.9 19.5 92.2 19.5L92.2 19.5Q92.6 19.5 92.9 19.7Q93.1 20.0 93.1 20.3L93.1 20.3Q93.1 20.6 92.9 20.9Q92.6 21.1 92.2 21.1ZM95.0 19.8L96.2 19.8L96.2 30L95.0 30L95.0 19.8Z "/></g></svg>