<!-- Generated by readme-aura https://github.com/collectioneur/readme-aura -->
<svg width="800" height="260" viewBox="0 0 800 260" xmlns="http://www.w3.org/2000/svg"><defs><clipPath id="satori_bc-id"><path x="0" y="0" width="800" height="260" d="M24,0 h752 a24,24 0 0 1 24,24 v212 a24,24 0 0 1 -24,24 h-752 a24,24 0 0 1 -24,-24 v-212 a24,24 0 0 1 24,-24"/></clipPath></defs><clipPath id="satori_cp-id"><path x="0" y="0" width="800" height="260" d="M24,0 h752 a24,24 0 0 1 24,24 v212 a24,24 0 0 1 -24,24 h-752 a24,24 0 0 1 -24,-24 v-212 a24,24 0 0 1 24,-24"/></clipPath><mask id="satori_om-id"><rect x="1" y="1" width="798" height="258" fill="#fff"/><path width="800" height="260" fill="none" stroke="#000" stroke-width="2" d="M7.029,7.029 A24,24 0 0 1 24,0 h752 a24,24 0 0 1 24,24 v212 a24,24 0 0 1 -24,24 h-752 a24,24 0 0 1 -24,-24 v-212 A24,24 0 0 1 7.029,7.029"/></mask><path x="0" y="0" width="800" height="260" fill="#09090b" d="M24,0 h752 a24,24 0 0 1 24,24 v212 a24,24 0 0 1 -24,24 h-752 a24,24 0 0 1 -24,-24 v-212 a24,24 0 0 1 24,-24"/><path width="800" height="260" clip-path="url(#satori_bc-id)" fill="none" stroke="#27272a" stroke-width="2" d="M7.029,7.029 A24,24 0 0 1 24,0 h752 a24,24 0 0 1 24,24 v212 a24,24 0 0 1 -24,24 h-752 a24,24 0 0 1 -24,-24 v-212 A24,24 0 0 1 7.029,7.029"/><defs><pattern id="satori_pattern_id-0_0" x="0" y="0" width="1" height="1" patternUnits="objectBoundingBox"><radialGradient id="satori_radial_id-0_0" spreadMethod="pad"><stop offset="0" stop-color="rgba(139, 92, 246, 0.15)"/><stop offset="0.7" stop-color="rgba(0,0,0,0)"/><stop offset="1" stop-color="rgba(0,0,0,0)"/></radialGradient><mask id="satori_mask_id-0_0"><rect x="0" y="0" width="600" height="300" fill="#fff"/></mask><rect x="0" y="0" width="600" height="300" fill="rgba(0,0,0,0)"/><circle cx="300" cy="150" width="600" height="300" r="335.4101966249685" fill="url(#satori_radial_id-0_0)" mask="url(#satori_mask_id-0_0)"/></pattern></defs><mask id="satori_om-id-0"><rect x="100" y="-99" width="600" height="300" fill="#fff" mask="url(#satori_om-id)"/></mask><rect x="100" y="-99" width="600" height="300" fill="url(#satori_pattern_id-0_0)" clip-path="url(#satori_cp-id)" mask="url(#satori_om-id)"/><defs><pattern id="satori_pattern_id-1_0" x="0" y="0" width="1" height="1" patternUnits="objectBoundingBox"><radialGradient id="satori_radial_id-1_0" spreadMethod="pad"><stop offset="0" stop-color="rgba(225, 29, 72, 0.15)"/><stop offset="0.7" stop-color="rgba(0,0,0,0)"/><stop offset="1" stop-color="rgba(0,0,0,0)"/></radialGradient><mask id="satori_mask_id-1_0"><rect x="0" y="0" width="400" height="200" fill="#fff"/></mask><rect x="0" y="0" width="400" height="200" fill="rgba(0,0,0,0)"/><circle cx="200" cy="100" width="400" height="200" r="223.60679774997897" fill="url(#satori_radial_id-1_0)" mask="url(#satori_mask_id-1_0)"/></pattern></defs><mask id="satori_om-id-1"><rect x="499" y="159" width="400" height="200" fill="#fff" mask="url(#satori_om-id)"/></mask><rect x="499" y="159" width="400" height="200" fill="url(#satori_pattern_id-1_0)" clip-path="url(#satori_cp-id)" mask="url(#satori_om-id)"/><mask id="satori_om-id-2"><rect x="247" y="49" width="307" height="68" fill="#fff" mask="url(#satori_om-id)"/></mask><g mask="url(#satori_om-id)" clip-path="url(#satori_cp-id)"><path fill="white" d="M259.2 103L250.7 103L250.7 62.3L260.0 62.3L272.9 82.9Q273.9 84.5 274.9 86.3Q275.9 88.2 276.9 90.4L276.9 90.4Q277.5 91.6 278.0 92.8L278.0 92.8Q277.9 91.8 277.8 90.7L277.8 90.7Q277.7 88.2 277.6 85.8Q277.5 83.4 277.5 81.8L277.5 81.8L277.5 62.3L286.0 62.3L286.0 103L276.7 103L265.0 84.3Q263.7 82.2 262.6 80.2Q261.5 78.2 260.3 75.8L260.3 75.8Q259.6 74.4 258.7 72.5L258.7 72.5Q258.8 74.2 258.9 75.8L258.9 75.8Q259.0 78.5 259.1 80.7Q259.2 82.9 259.2 84.3L259.2 84.3L259.2 103ZM299.4 103L291.2 103L291.2 72.4L299.4 72.4L299.4 103ZM295.3 68.4L295.3 68.4Q293.4 68.4 292.1 67.2Q290.8 66.0 290.8 64.2L290.8 64.2Q290.8 62.5 292.1 61.2Q293.4 60.0 295.3 60.0L295.3 60.0Q297.1 60.0 298.5 61.2Q299.8 62.4 299.8 64.2L299.8 64.2Q299.8 66.0 298.5 67.2Q297.1 68.4 295.3 68.4ZM313.8 72.4L319.5 72.4L319.5 78.7L313.8 78.7L313.8 94.1Q313.8 95.5 314.5 96.2Q315.1 96.9 316.6 96.9L316.6 96.9Q317.1 96.9 317.9 96.8Q318.8 96.7 319.2 96.5L319.2 96.5L320.4 102.7Q319.0 103.1 317.7 103.3Q316.3 103.4 315.1 103.4L315.1 103.4Q310.5 103.4 308.1 101.2Q305.6 99.0 305.6 94.8L305.6 94.8L305.6 78.7L301.4 78.7L301.4 72.4L305.6 72.4L305.6 65.2L313.8 65.2L313.8 72.4ZM331.1 103L322.9 103L322.9 72.4L331.1 72.4L331.1 103ZM327.0 68.4L327.0 68.4Q325.1 68.4 323.8 67.2Q322.5 66.0 322.5 64.2L322.5 64.2Q322.5 62.5 323.8 61.2Q325.1 60.0 327.0 60.0L327.0 60.0Q328.8 60.0 330.2 61.2Q331.5 62.4 331.5 64.2L331.5 64.2Q331.5 66.0 330.2 67.2Q328.8 68.4 327.0 68.4ZM344.2 85.3L344.2 85.3L344.2 103L336.0 103L336.0 72.4L343.8 72.4L343.9 78.7Q345.1 75.8 347.1 74.1L347.1 74.1Q349.5 72.0 353.4 72.0L353.4 72.0Q356.6 72.0 358.9 73.4Q361.3 74.8 362.6 77.4Q363.9 80.0 363.9 83.6L363.9 83.6L363.9 103L355.7 103L355.7 85.0Q355.7 82.1 354.2 80.5Q352.8 78.9 350.2 78.9L350.2 78.9Q348.5 78.9 347.1 79.7Q345.8 80.4 345.0 81.8Q344.2 83.3 344.2 85.3Z M388.6 103L380.4 103L380.4 62.3L393.2 62.3L399.8 81.0Q400.2 82.3 400.7 84.4Q401.3 86.4 401.8 88.8L401.8 88.8Q402.3 91.2 402.8 93.4L402.8 93.4Q403.3 91.2 403.8 88.9L403.8 88.9Q404.3 86.5 404.9 84.4Q405.4 82.3 405.8 81.0L405.8 81.0L412.3 62.3L425.2 62.3L425.2 103L416.8 103L416.8 83.8Q416.8 82.5 416.8 80.5Q416.9 78.5 416.9 76.2Q417 73.9 417.1 71.5L417.1 71.5Q417.1 70.5 417.1 69.4L417.1 69.4Q416.8 70.6 416.5 71.8L416.5 71.8Q415.9 74.2 415.2 76.5Q414.6 78.7 414.0 80.6Q413.4 82.5 413.0 83.8L413.0 83.8L406.3 103L399.3 103L392.4 83.8Q392.0 82.5 391.4 80.7Q390.8 78.8 390.2 76.5Q389.5 74.3 388.9 71.8L388.9 71.8Q388.6 70.8 388.3 69.8L388.3 69.8Q388.3 70.5 388.4 71.4L388.4 71.4Q388.4 73.7 388.5 76.1Q388.6 78.4 388.6 80.4Q388.6 82.4 388.6 83.8L388.6 83.8L388.6 103ZM438.5 103L430.3 103L430.3 72.4L438.5 72.4L438.5 103ZM434.4 68.4L434.4 68.4Q432.6 68.4 431.3 67.2Q430.0 66.0 430.0 64.2L430.0 64.2Q430.0 62.5 431.3 61.2Q432.6 60.0 434.4 60.0L434.4 60.0Q436.3 60.0 437.6 61.2Q439.0 62.4 439.0 64.2L439.0 64.2Q439.0 66.0 437.6 67.2Q436.3 68.4 434.4 68.4ZM455.7 103.6L455.7 103.6Q452.0 103.6 449.1 102.5Q446.3 101.5 444.5 99.5Q442.7 97.5 442.1 94.6L442.1 94.6L449.8 93.3Q450.4 95.5 451.9 96.5Q453.4 97.6 455.9 97.6L455.9 97.6Q458.3 97.6 459.6 96.7Q461.0 95.8 461.0 94.4L461.0 94.4Q461.0 93.2 460.0 92.5Q459.0 91.7 457.0 91.3L457.0 91.3L451.7 90.2Q447.3 89.3 445.1 87.1Q442.9 85.0 442.9 81.5L442.9 81.5Q442.9 78.6 444.6 76.5Q446.2 74.3 449.0 73.2Q451.9 72.0 455.8 72.0L455.8 72.0Q459.4 72.0 462.1 73.0Q464.7 74.0 466.3 75.9Q468.0 77.7 468.5 80.2L468.5 80.2L461.3 81.5Q460.8 79.9 459.5 78.9Q458.1 77.9 455.9 77.9L455.9 77.9Q453.9 77.9 452.5 78.8Q451.1 79.6 451.1 81.0L451.1 81.0Q451.1 82.2 452.0 83.0Q452.9 83.8 455.1 84.2L455.1 84.2L460.6 85.3Q465.0 86.2 467.2 88.2Q469.3 90.3 469.3 93.6L469.3 93.6Q469.3 96.6 467.6 98.8Q465.8 101.1 462.8 102.3Q459.7 103.6 455.7 103.6ZM481.1 85.3L481.1 85.3L481.1 103L472.9 103L472.9 62.3L480.9 62.3L480.9 78.3Q482.1 75.7 483.9 74.1L483.9 74.1Q486.4 72.0 490.2 72.0L490.2 72.0Q493.4 72.0 495.8 73.4Q498.1 74.8 499.5 77.4Q500.8 80.0 500.8 83.6L500.8 83.6L500.8 103L492.5 103L492.5 85.0Q492.5 82.1 491.1 80.5Q489.6 78.9 487.0 78.9L487.0 78.9Q485.3 78.9 483.9 79.7Q482.6 80.4 481.8 81.8Q481.1 83.3 481.1 85.3ZM513.9 103L505.7 103L505.7 72.4L513.7 72.4L513.7 77.8L514 77.8Q514.8 74.9 516.8 73.5Q518.8 72.0 521.4 72.0L521.4 72.0Q522.0 72.0 522.8 72.1Q523.5 72.2 524.0 72.3L524.0 72.3L524.0 79.6Q523.5 79.4 522.4 79.3Q521.4 79.2 520.5 79.2L520.5 79.2Q518.6 79.2 517.1 80.0Q515.6 80.8 514.8 82.3Q513.9 83.7 513.9 85.6L513.9 85.6L513.9 103ZM535.1 103.6L535.1 103.6Q532.2 103.6 529.9 102.6Q527.6 101.6 526.2 99.5Q524.9 97.5 524.9 94.4L524.9 94.4Q524.9 91.9 525.8 90.2Q526.8 88.5 528.4 87.4Q530.0 86.4 532.1 85.8Q534.2 85.3 536.4 85.1L536.4 85.1Q539.1 84.8 540.7 84.6Q542.4 84.3 543.1 83.8Q543.9 83.3 543.9 82.3L543.9 82.3L543.9 82.2Q543.9 80.9 543.3 80.0Q542.8 79.1 541.7 78.6Q540.6 78.1 539.1 78.1L539.1 78.1Q537.5 78.1 536.3 78.6Q535.1 79.1 534.4 79.9Q533.7 80.7 533.3 81.6L533.3 81.6L525.8 80.4Q526.6 77.7 528.4 75.9Q530.2 74.0 533.0 73.0Q535.7 72.0 539.1 72.0L539.1 72.0Q541.6 72.0 543.9 72.6Q546.2 73.2 548.1 74.5Q549.9 75.7 551.0 77.7Q552.1 79.6 552.1 82.4L552.1 82.4L552.1 103L544.3 103L544.3 98.8L544.0 98.8Q543.3 100.2 542.1 101.3Q540.8 102.3 539.1 103.0Q537.3 103.6 535.1 103.6ZM537.4 97.8L537.4 97.8Q539.3 97.8 540.8 97.1Q542.3 96.3 543.1 95.0Q543.9 93.7 543.9 92.1L543.9 92.1L543.9 88.8Q543.6 89.0 542.8 89.2Q542.1 89.5 541.2 89.6Q540.3 89.8 539.4 89.9Q538.5 90.1 537.8 90.1L537.8 90.1Q536.3 90.4 535.2 90.9Q534.0 91.4 533.4 92.2Q532.8 93.0 532.8 94.2L532.8 94.2Q532.8 95.4 533.4 96.2Q534.0 97.0 535.0 97.4Q536.1 97.8 537.4 97.8Z "/></g><mask id="satori_om-id-3"><rect x="285" y="133" width="231" height="17" fill="#fff" mask="url(#satori_om-id)"/></mask><g mask="url(#satori_om-id)" clip-path="url(#satori_cp-id)"><path fill="#a1a1aa" d="M290.0 147L286.2 147L286.2 136.8L289.8 136.8Q290.9 136.8 291.6 137.2Q292.3 137.5 292.6 138.2Q293.0 138.8 293.0 139.5L293.0 139.5Q293.0 140.2 292.7 140.6Q292.5 141.0 292.1 141.3Q291.7 141.5 291.3 141.7L291.3 141.7L291.3 141.8Q291.8 141.8 292.3 142.1Q292.7 142.4 293.0 142.9Q293.4 143.5 293.4 144.3L293.4 144.3Q293.4 145.1 293.0 145.7Q292.7 146.3 291.9 146.6Q291.2 147 290.0 147L290.0 147ZM287.5 142.4L287.5 145.9L289.9 145.9Q291.1 145.9 291.6 145.4Q292.1 144.9 292.1 144.3L292.1 144.3Q292.1 143.8 291.9 143.3Q291.6 142.9 291.1 142.6Q290.6 142.4 290.0 142.4L290.0 142.4L287.5 142.4ZM287.5 138.0L287.5 141.3L289.8 141.3Q290.3 141.3 290.8 141.1Q291.2 140.9 291.5 140.5Q291.7 140.1 291.7 139.5L291.7 139.5Q291.7 138.9 291.3 138.4Q290.8 138.0 289.8 138.0L289.8 138.0L287.5 138.0ZM303.4 147.2L303.4 147.2Q302.2 147.2 301.3 146.7Q300.4 146.2 299.9 145.4Q299.4 144.6 299.4 143.5L299.4 143.5L299.4 136.8L300.7 136.8L300.7 143.4Q300.7 144.2 301.0 144.7Q301.3 145.3 301.9 145.6Q302.5 146.0 303.4 146.0L303.4 146.0Q304.2 146.0 304.8 145.6Q305.4 145.3 305.7 144.7Q306.0 144.2 306.0 143.4L306.0 143.4L306.0 136.8L307.3 136.8L307.3 143.5Q307.3 144.6 306.9 145.4Q306.4 146.2 305.5 146.7Q304.6 147.2 303.4 147.2ZM313.8 136.8L315.1 136.8L315.1 147L313.8 147L313.8 136.8ZM327.6 147L321.6 147L321.6 136.8L322.9 136.8L322.9 145.9L327.6 145.9L327.6 147ZM336.7 147L336.7 147L333.5 147L333.5 136.8L336.8 136.8Q338.3 136.8 339.3 137.4Q340.4 138.0 341.0 139.2Q341.5 140.3 341.5 141.9L341.5 141.9Q341.5 143.5 341.0 144.6Q340.4 145.8 339.3 146.4Q338.2 147 336.7 147ZM334.8 138.0L334.8 145.9L336.6 145.9Q337.8 145.9 338.6 145.4Q339.5 144.9 339.9 144.0Q340.3 143.1 340.3 141.9L340.3 141.9Q340.3 140.7 339.9 139.8Q339.5 138.9 338.7 138.4Q337.9 138.0 336.7 138.0L336.7 138.0L334.8 138.0Z M358.2 145.1L358.2 145.1Q357.6 145.1 357.1 144.8Q356.6 144.5 356.3 144.0Q356.0 143.5 356.0 142.9L356.0 142.9Q356.0 142.3 356.3 141.8Q356.6 141.3 357.1 141.0Q357.6 140.8 358.2 140.8L358.2 140.8Q358.8 140.8 359.3 141.0Q359.8 141.3 360.1 141.8Q360.4 142.3 360.4 142.9L360.4 142.9Q360.4 143.5 360.1 144.0Q359.8 144.5 359.3 144.8Q358.8 145.1 358.2 145.1Z M378.6 147.2L378.6 147.2Q377.5 147.2 376.7 146.8Q375.9 146.5 375.4 145.8Q375.0 145.2 374.9 144.3L374.9 144.3L376.2 144.3Q376.3 144.9 376.6 145.3Q377.0 145.7 377.5 145.8Q378.0 146.0 378.6 146.0L378.6 146.0Q379.3 146.0 379.8 145.8Q380.4 145.6 380.7 145.2Q381.0 144.7 381.0 144.2L381.0 144.2Q381.0 143.7 380.8 143.4Q380.5 143.1 380.0 142.9Q379.6 142.7 379.0 142.5L379.0 142.5L377.8 142.2Q376.6 141.9 375.9 141.2Q375.2 140.6 375.2 139.5L375.2 139.5Q375.2 138.7 375.7 138.0Q376.1 137.4 376.9 137.0Q377.7 136.7 378.7 136.7L378.7 136.7Q379.7 136.7 380.5 137.0Q381.2 137.4 381.7 138.0Q382.1 138.6 382.2 139.4L382.2 139.4L380.9 139.4Q380.8 138.6 380.2 138.2Q379.6 137.8 378.6 137.8L378.6 137.8Q378.0 137.8 377.5 138.0Q377.0 138.3 376.7 138.6Q376.5 139.0 376.5 139.5L376.5 139.5Q376.5 140.0 376.8 140.3Q377.1 140.7 377.6 140.8Q378.0 141.0 378.4 141.1L378.4 141.1L379.4 141.4Q379.8 141.5 380.3 141.7Q380.8 141.9 381.3 142.2Q381.7 142.5 382.0 143.0Q382.3 143.5 382.3 144.2L382.3 144.2Q382.3 145.1 381.9 145.7Q381.4 146.4 380.6 146.8Q379.8 147.2 378.6 147.2ZM389.6 147L388.3 147L388.3 136.8L389.6 136.8L389.6 141.2L395.0 141.2L395.0 136.8L396.3 136.8L396.3 147L395.0 147L395.0 142.4L389.6 142.4L389.6 147ZM402.7 136.8L404.0 136.8L404.0 147L402.7 147L402.7 136.8ZM411.8 147L410.5 147L410.5 136.8L414.0 136.8Q415.2 136.8 415.9 137.2Q416.7 137.7 417.1 138.4Q417.4 139.1 417.4 140.1Q417.4 141.0 417.1 141.7Q416.7 142.4 415.9 142.9Q415.2 143.3 414.0 143.3L414.0 143.3L411.8 143.3L411.8 147ZM411.8 138.0L411.8 142.2L413.9 142.2Q414.7 142.2 415.2 141.9Q415.7 141.6 415.9 141.1Q416.2 140.7 416.2 140.1Q416.2 139.5 415.9 139.0Q415.7 138.5 415.2 138.2Q414.7 138.0 413.9 138.0L413.9 138.0L411.8 138.0Z M434.1 145.1L434.1 145.1Q433.5 145.1 433.0 144.8Q432.5 144.5 432.2 144.0Q431.9 143.5 431.9 142.9L431.9 142.9Q431.9 142.3 432.2 141.8Q432.5 141.3 433.0 141.0Q433.5 140.8 434.1 140.8L434.1 140.8Q434.7 140.8 435.2 141.0Q435.7 141.3 436.0 141.8Q436.3 142.3 436.3 142.9L436.3 142.9Q436.3 143.5 436.0 144.0Q435.7 144.5 435.2 144.8Q434.7 145.1 434.1 145.1Z M454.4 147.2L454.4 147.2Q453.3 147.2 452.5 146.8Q451.7 146.5 451.3 145.8Q450.8 145.2 450.7 144.3L450.7 144.3L452.1 144.3Q452.1 144.9 452.5 145.3Q452.8 145.7 453.3 145.8Q453.8 146.0 454.4 146.0L454.4 146.0Q455.1 146.0 455.7 145.8Q456.2 145.6 456.5 145.2Q456.9 144.7 456.9 144.2L456.9 144.2Q456.9 143.7 456.6 143.4Q456.3 143.1 455.9 142.9Q455.4 142.7 454.9 142.5L454.9 142.5L453.6 142.2Q452.4 141.9 451.7 141.2Q451.0 140.6 451.0 139.5L451.0 139.5Q451.0 138.7 451.5 138.0Q452.0 137.4 452.7 137.0Q453.5 136.7 454.5 136.7L454.5 136.7Q455.5 136.7 456.3 137.0Q457.1 137.4 457.5 138.0Q458.0 138.6 458.0 139.4L458.0 139.4L456.7 139.4Q456.6 138.6 456.0 138.2Q455.4 137.8 454.5 137.8L454.5 137.8Q453.8 137.8 453.3 138.0Q452.8 138.3 452.6 138.6Q452.3 139.0 452.3 139.5L452.3 139.5Q452.3 140.0 452.6 140.3Q453.0 140.7 453.4 140.8Q453.9 141.0 454.2 141.1L454.2 141.1L455.3 141.4Q455.7 141.5 456.2 141.7Q456.7 141.9 457.1 142.2Q457.6 142.5 457.8 143.0Q458.1 143.5 458.1 144.2L458.1 144.2Q458.1 145.1 457.7 145.7Q457.3 146.4 456.4 146.8Q455.6 147.2 454.4 147.2ZM468.3 147.1L468.3 147.1Q467.0 147.1 466.0 146.5Q464.9 145.9 464.3 144.7Q463.8 143.5 463.8 141.9L463.8 141.9Q463.8 140.3 464.3 139.1Q464.9 137.9 466.0 137.3Q467.0 136.7 468.3 136.7L468.3 136.7Q469.1 136.7 469.7 136.9Q470.4 137.1 471.0 137.6Q471.5 138.0 471.9 138.6Q472.3 139.2 472.4 140.0L472.4 140.0L471.1 140.0Q471.0 139.5 470.7 139.1Q470.5 138.7 470.1 138.4Q469.7 138.2 469.2 138.0Q468.8 137.9 468.3 137.9L468.3 137.9Q467.4 137.9 466.6 138.3Q465.9 138.8 465.5 139.7Q465.0 140.6 465.0 141.9L465.0 141.9Q465.0 143.2 465.5 144.1Q465.9 145.0 466.6 145.5Q467.4 145.9 468.3 145.9L468.3 145.9Q468.8 145.9 469.2 145.8Q469.7 145.7 470.1 145.4Q470.5 145.1 470.7 144.7Q471.0 144.3 471.1 143.8L471.1 143.8L472.4 143.8Q472.3 144.6 471.9 145.2Q471.5 145.8 471.0 146.2Q470.4 146.7 469.7 146.9Q469.1 147.1 468.3 147.1ZM478.9 147L477.5 147L481.2 136.8L482.7 136.8L486.5 147L485.1 147L484.1 144.2L479.9 144.2L478.9 147ZM480.3 143.0L483.7 143.0L482.9 141.0Q482.7 140.4 482.5 139.6L482.5 139.6Q482.3 138.9 482.0 137.9L482.0 137.9Q481.7 138.9 481.4 139.6L481.4 139.6Q481.2 140.4 481.0 141.0L481.0 141.0L480.3 143.0ZM498.1 147L492.0 147L492.0 136.8L493.3 136.8L493.3 145.9L498.1 145.9L498.1 147ZM510.2 147L504.0 147L504.0 136.8L510.2 136.8L510.2 138.0L505.3 138.0L505.3 141.3L509.8 141.3L509.8 142.4L505.3 142.4L505.3 145.9L510.2 145.9L510.2 147Z "/></g><mask id="satori_om-id-4"><rect x="229" y="182" width="342" height="30" fill="#fff" mask="url(#satori_om-id)"/></mask><defs><clipPath id="satori_bc-id-4-0" clip-path="url(#satori_cp-id)"><path x="229" y="182" width="82" height="30" d="M244,182 h52 a15,15 0 0 1 15,15 v0 a15,15 0 0 1 -15,15 h-52 a15,15 0 0 1 -15,-15 v0 a15,15 0 0 1 15,-15"/></clipPath></defs><mask id="satori_om-id-4-0"><rect x="230" y="183" width="80" height="28" fill="#fff" mask="url(#satori_om-id)"/><path width="82" height="30" fill="none" stroke="#000" stroke-width="2" d="M233.393,186.393 A15,15 0 0 1 244,182 h52 a15,15 0 0 1 15,15 v0 a15,15 0 0 1 -15,15 h-52 a15,15 0 0 1 -15,-15 v0 A15,15 0 0 1 233.393,186.393"/></mask><path x="229" y="182" width="82" height="30" fill="#18181b" d="M244,182 h52 a15,15 0 0 1 15,15 v0 a15,15 0 0 1 -15,15 h-52 a15,15 0 0 1 -15,-15 v0 a15,15 0 0 1 15,-15" clip-path="url(#satori_cp-id)" mask="url(#satori_om-id)"/><path width="82" height="30" clip-path="url(#satori_bc-id-4-0)" fill="none" stroke="#27272a" stroke-width="2" d="M233.393,186.393 A15,15 0 0 1 244,182 h52 a15,15 0 0 1 15,15 v0 a15,15 0 0 1 -15,15 h-52 a15,15 0 0 1 -15,-15 v0 A15,15 0 0 1 233.393,186.393"/><g mask="url(#satori_om-id)" clip-path="url(#satori_cp-id)"><path fill="#a1a1aa" d="M253.9 204.8L253.9 204.8Q253.1 204.8 252.5 204.6Q251.9 204.4 251.6 204.1Q251.2 203.7 251.0 203.4L251.0 203.4L251.9 202.8Q252.0 203.0 252.3 203.2Q252.5 203.5 252.9 203.6Q253.3 203.8 253.9 203.8L253.9 203.8Q254.7 203.8 255.3 203.4Q255.8 203.0 255.8 202.1L255.8 202.1L255.8 200.7L255.7 200.7Q255.6 200.9 255.4 201.2Q255.2 201.5 254.8 201.7Q254.3 201.9 253.7 201.9L253.7 201.9Q252.8 201.9 252.1 201.5Q251.4 201.1 251.1 200.3Q250.7 199.5 250.7 198.4L250.7 198.4Q250.7 197.3 251.0 196.5Q251.4 195.7 252.1 195.3Q252.8 194.8 253.7 194.8L253.7 194.8Q254.4 194.8 254.8 195.0Q255.2 195.3 255.4 195.6Q255.6 195.8 255.8 196.0L255.8 196.0L255.9 196.0L255.9 194.9L257.0 194.9L257.0 202.2Q257.0 203.1 256.6 203.7Q256.1 204.3 255.4 204.5Q254.7 204.8 253.9 204.8ZM253.8 200.9L253.8 200.9Q254.5 200.9 254.9 200.6Q255.4 200.3 255.6 199.7Q255.8 199.2 255.8 198.4L255.8 198.4Q255.8 197.6 255.6 197.1Q255.4 196.5 254.9 196.2Q254.5 195.8 253.8 195.8L253.8 195.8Q253.2 195.8 252.7 196.2Q252.3 196.5 252.0 197.1Q251.8 197.7 251.8 198.4L251.8 198.4Q251.8 199.1 252.1 199.7Q252.3 200.2 252.7 200.6Q253.2 200.9 253.8 200.9ZM262.0 202.2L262.0 202.2Q260.9 202.2 260.2 201.7Q259.4 201.2 259.0 200.4Q258.6 199.6 258.6 198.5Q258.6 197.4 259.0 196.6Q259.4 195.8 260.1 195.3Q260.9 194.8 261.8 194.8L261.8 194.8Q262.4 194.8 262.9 195.0Q263.5 195.2 263.9 195.6Q264.4 196.0 264.7 196.7Q264.9 197.4 264.9 198.4L264.9 198.4L264.9 198.8L259.8 198.8Q259.8 199.5 260.1 200.0L260.1 200.0Q260.3 200.6 260.8 200.9Q261.3 201.1 262.0 201.1L262.0 201.1Q262.4 201.1 262.7 201.0Q263.1 200.9 263.3 200.7Q263.6 200.4 263.7 200.0L263.7 200.0L264.8 200.3Q264.6 200.9 264.2 201.3Q263.9 201.7 263.3 201.9Q262.7 202.2 262.0 202.2ZM259.8 197.9L259.8 197.9L263.8 197.9Q263.7 197.4 263.6 197.0L263.6 197.0Q263.3 196.4 262.9 196.1Q262.5 195.8 261.8 195.8Q261.2 195.8 260.7 196.1Q260.3 196.5 260.0 197.0L260.0 197.0Q259.8 197.4 259.8 197.9ZM267.7 197.7L267.7 197.7L267.7 202L266.6 202L266.6 194.9L267.7 194.9L267.7 196.2Q268.0 195.6 268.4 195.2L268.4 195.2Q269.0 194.8 269.8 194.8L269.8 194.8Q270.5 194.8 271.1 195.1Q271.6 195.4 271.9 196.0Q272.2 196.6 272.2 197.5L272.2 197.5L272.2 202L271.1 202L271.1 197.6Q271.1 196.8 270.7 196.3Q270.2 195.8 269.5 195.8L269.5 195.8Q269.0 195.8 268.6 196.1Q268.2 196.3 267.9 196.7Q267.7 197.1 267.7 197.7ZM274.1 197.4L278.3 197.4L278.3 198.5L274.1 198.5L274.1 197.4ZM282.2 202.2L282.2 202.2Q281.5 202.2 281.0 201.9Q280.4 201.7 280.1 201.2Q279.8 200.7 279.8 200.0L279.8 200.0Q279.8 199.4 280.0 199.0Q280.3 198.6 280.7 198.4Q281.1 198.2 281.6 198.1Q282.0 198.0 282.5 197.9L282.5 197.9Q283.2 197.8 283.6 197.8Q284.0 197.7 284.2 197.6Q284.4 197.5 284.4 197.2L284.4 197.2L284.4 197.2Q284.4 196.8 284.2 196.5Q284.0 196.1 283.7 196.0Q283.4 195.8 282.9 195.8L282.9 195.8Q282.4 195.8 282.0 196.0Q281.6 196.1 281.4 196.4Q281.2 196.6 281.1 196.9L281.1 196.9L280.0 196.5Q280.3 195.8 280.7 195.5Q281.2 195.1 281.7 195.0Q282.3 194.8 282.8 194.8L282.8 194.8Q283.2 194.8 283.7 194.9Q284.1 195.0 284.5 195.2Q285.0 195.5 285.2 196.0Q285.5 196.5 285.5 197.3L285.5 197.3L285.5 202L284.4 202L284.4 201.0L284.3 201.0Q284.2 201.3 283.9 201.5Q283.7 201.8 283.2 202.0Q282.8 202.2 282.2 202.2ZM282.4 201.2L282.4 201.2Q283.0 201.2 283.5 200.9Q283.9 200.7 284.1 200.3Q284.4 199.9 284.4 199.4L284.4 199.4L284.4 198.5Q284.3 198.5 284.1 198.6Q283.8 198.7 283.5 198.7Q283.2 198.8 282.9 198.8Q282.7 198.8 282.5 198.9L282.5 198.9Q282.1 198.9 281.7 199.0Q281.4 199.2 281.1 199.4Q280.9 199.6 280.9 200.0L280.9 200.0Q280.9 200.4 281.1 200.7Q281.3 200.9 281.6 201.0Q282.0 201.2 282.4 201.2ZM288.7 202L287.5 202L287.5 194.9L288.7 194.9L288.7 202ZM288.1 193.7L288.1 193.7Q287.8 193.7 287.5 193.5Q287.3 193.3 287.3 193.0L287.3 193.0Q287.3 192.7 287.5 192.4Q287.8 192.2 288.1 192.2L288.1 192.2Q288.4 192.2 288.7 192.4Q288.9 192.7 288.9 193.0L288.9 193.0Q288.9 193.3 288.7 193.5Q288.4 193.7 288.1 193.7Z "/></g><defs><clipPath id="satori_bc-id-4-1" clip-path="url(#satori_cp-id)"><path x="323" y="182" width="119" height="30" d="M338,182 h89 a15,15 0 0 1 15,15 v0 a15,15 0 0 1 -15,15 h-89 a15,15 0 0 1 -15,-15 v0 a15,15 0 0 1 15,-15"/></clipPath></defs><mask id="satori_om-id-4-1"><rect x="324" y="183" width="117" height="28" fill="#fff" mask="url(#satori_om-id)"/><path width="119" height="30" fill="none" stroke="#000" stroke-width="2" d="M327.39300000000003,186.393 A15,15 0 0 1 338,182 h89 a15,15 0 0 1 15,15 v0 a15,15 0 0 1 -15,15 h-89 a15,15 0 0 1 -15,-15 v0 A15,15 0 0 1 327.39300000000003,186.393"/></mask><path x="323" y="182" width="119" height="30" fill="#18181b" d="M338,182 h89 a15,15 0 0 1 15,15 v0 a15,15 0 0 1 -15,15 h-89 a15,15 0 0 1 -15,-15 v0 a15,15 0 0 1 15,-15" clip-path="url(#satori_cp-id)" mask="url(#satori_om-id)"/><path width="119" height="30" clip-path="url(#satori_bc-id-4-1)" fill="none" stroke="#27272a" stroke-width="2" d="M327.39300000000003,186.393 A15,15 0 0 1 338,182 h89 a15,15 0 0 1 15,15 v0 a15,15 0 0 1 -15,15 h-89 a15,15 0 0 1 -15,-15 v0 A15,15 0 0 1 327.39300000000003,186.393"/><g mask="url(#satori_om-id)" clip-path="url(#satori_cp-id)"><path fill="#a1a1aa" d="M347.9 202.2L347.9 202.2Q346.9 202.2 346.2 201.7Q345.5 201.2 345.1 200.4Q344.7 199.6 344.7 198.5L344.7 198.5Q344.7 197.4 345.1 196.6Q345.5 195.7 346.2 195.3Q346.9 194.8 347.9 194.8L347.9 194.8Q348.9 194.8 349.6 195.3Q350.3 195.7 350.7 196.6Q351.1 197.4 351.1 198.5L351.1 198.5Q351.1 199.6 350.7 200.4Q350.3 201.2 349.6 201.7Q348.9 202.2 347.9 202.2ZM347.9 201.1L347.9 201.1Q348.6 201.1 349.1 200.8Q349.5 200.4 349.8 199.8Q350.0 199.2 350.0 198.5L350.0 198.5Q350.0 197.8 349.8 197.2Q349.5 196.6 349.1 196.2Q348.6 195.8 347.9 195.8L347.9 195.8Q347.2 195.8 346.7 196.2Q346.3 196.6 346.0 197.2Q345.8 197.8 345.8 198.5L345.8 198.5Q345.8 199.2 346.0 199.8Q346.3 200.4 346.7 200.8Q347.2 201.1 347.9 201.1ZM353.9 204.7L352.8 204.7L352.8 194.9L353.9 194.9L353.9 196.0L354.0 196.0Q354.1 195.8 354.4 195.6Q354.6 195.3 355.0 195.0Q355.4 194.8 356.1 194.8L356.1 194.8Q357.0 194.8 357.7 195.3Q358.3 195.7 358.7 196.5Q359.1 197.3 359.1 198.5L359.1 198.5Q359.1 199.6 358.7 200.4Q358.3 201.3 357.7 201.7Q357.0 202.2 356.1 202.2L356.1 202.2Q355.4 202.2 355.0 201.9Q354.6 201.7 354.4 201.4Q354.1 201.1 354.0 200.9L354.0 200.9L353.9 200.9L353.9 204.7ZM355.9 201.1L355.9 201.1Q356.6 201.1 357.0 200.8Q357.5 200.4 357.7 199.8Q357.9 199.2 357.9 198.5L357.9 198.5Q357.9 197.7 357.7 197.1Q357.5 196.5 357.0 196.2Q356.6 195.8 355.9 195.8L355.9 195.8Q355.3 195.8 354.8 196.2Q354.4 196.5 354.2 197.1Q353.9 197.7 353.9 198.5L353.9 198.5Q353.9 199.2 354.2 199.8Q354.4 200.5 354.8 200.8Q355.3 201.1 355.9 201.1ZM363.7 202.2L363.7 202.2Q362.7 202.2 362.0 201.7Q361.2 201.2 360.8 200.4Q360.4 199.6 360.4 198.5Q360.4 197.4 360.8 196.6Q361.2 195.8 361.9 195.3Q362.6 194.8 363.6 194.8L363.6 194.8Q364.2 194.8 364.7 195.0Q365.3 195.2 365.7 195.6Q366.2 196.0 366.4 196.7Q366.7 197.4 366.7 198.4L366.7 198.4L366.7 198.8L361.6 198.8Q361.6 199.5 361.8 200.0L361.8 200.0Q362.1 200.6 362.6 200.9Q363.1 201.1 363.7 201.1L363.7 201.1Q364.2 201.1 364.5 201.0Q364.9 200.9 365.1 200.7Q365.3 200.4 365.5 200.0L365.5 200.0L366.6 200.3Q366.4 200.9 366.0 201.3Q365.6 201.7 365.1 201.9Q364.5 202.2 363.7 202.2ZM361.6 197.9L361.6 197.9L365.5 197.9Q365.5 197.4 365.3 197.0L365.3 197.0Q365.1 196.4 364.7 196.1Q364.2 195.8 363.6 195.8Q363.0 195.8 362.5 196.1Q362.1 196.5 361.8 197.0L361.8 197.0Q361.6 197.4 361.6 197.9ZM369.5 197.7L369.5 197.7L369.5 202L368.3 202L368.3 194.9L369.4 194.9L369.4 196.2Q369.7 195.6 370.2 195.2L370.2 195.2Q370.8 194.8 371.6 194.8L371.6 194.8Q372.3 194.8 372.9 195.1Q373.4 195.4 373.7 196.0Q374.0 196.6 374.0 197.5L374.0 197.5L374.0 202L372.9 202L372.9 197.6Q372.9 196.8 372.4 196.3Q372.0 195.8 371.3 195.8L371.3 195.8Q370.8 195.8 370.4 196.1Q369.9 196.3 369.7 196.7Q369.5 197.1 369.5 197.7Z M382.1 202.2L382.1 202.2Q381.4 202.2 380.8 201.9Q380.2 201.7 379.9 201.3Q379.5 200.9 379.4 200.3L379.4 200.3L380.4 200.0Q380.6 200.6 381.0 200.9Q381.4 201.1 382.1 201.1L382.1 201.1Q382.8 201.1 383.3 200.8Q383.7 200.5 383.7 200.1L383.7 200.1Q383.7 199.7 383.4 199.5Q383.2 199.2 382.7 199.1L382.7 199.1L381.5 198.8Q380.5 198.6 380.0 198.1Q379.6 197.6 379.6 196.9L379.6 196.9Q379.6 196.3 379.9 195.8Q380.3 195.3 380.9 195.1Q381.4 194.8 382.2 194.8L382.2 194.8Q382.9 194.8 383.4 195.0Q384.0 195.3 384.3 195.6Q384.6 196.0 384.8 196.5L384.8 196.5L383.7 196.8Q383.6 196.4 383.2 196.1Q382.9 195.8 382.2 195.8L382.2 195.8Q381.6 195.8 381.1 196.1Q380.7 196.4 380.7 196.8L380.7 196.8Q380.7 197.2 381.0 197.4Q381.3 197.7 381.9 197.8L381.9 197.8L383.0 198.1Q384.0 198.3 384.4 198.8Q384.9 199.3 384.9 200.0L384.9 200.0Q384.9 200.6 384.5 201.1Q384.2 201.6 383.5 201.9Q382.9 202.2 382.1 202.2ZM389.4 202.2L389.4 202.2Q388.5 202.2 387.7 201.7Q387.0 201.2 386.6 200.4Q386.2 199.6 386.2 198.5L386.2 198.5Q386.2 197.4 386.6 196.6Q387.0 195.7 387.7 195.3Q388.5 194.8 389.4 194.8L389.4 194.8Q390.4 194.8 391.1 195.3Q391.9 195.7 392.3 196.6Q392.7 197.4 392.7 198.5L392.7 198.5Q392.7 199.6 392.3 200.4Q391.9 201.2 391.1 201.7Q390.4 202.2 389.4 202.2ZM389.4 201.1L389.4 201.1Q390.1 201.1 390.6 200.8Q391.1 200.4 391.3 199.8Q391.5 199.2 391.5 198.5L391.5 198.5Q391.5 197.8 391.3 197.2Q391.1 196.6 390.6 196.2Q390.1 195.8 389.4 195.8L389.4 195.8Q388.7 195.8 388.3 196.2Q387.8 196.6 387.6 197.2Q387.4 197.8 387.4 198.5L387.4 198.5Q387.4 199.2 387.6 199.8Q387.8 200.4 388.3 200.8Q388.7 201.1 389.4 201.1ZM396.7 202.1L396.7 202.1Q396.0 202.1 395.5 201.8Q394.9 201.5 394.6 200.9Q394.3 200.3 394.3 199.4L394.3 199.4L394.3 194.9L395.5 194.9L395.5 199.3Q395.5 200.1 395.9 200.6Q396.3 201.1 397.1 201.1L397.1 201.1Q397.6 201.1 398.0 200.8Q398.4 200.6 398.6 200.2Q398.9 199.8 398.9 199.2L398.9 199.2L398.9 194.9L400.0 194.9L400.0 202L398.9 202L398.9 200.7Q398.6 201.4 398.1 201.7L398.1 201.7Q397.5 202.1 396.7 202.1ZM403.2 202L402.0 202L402.0 194.9L403.1 194.9L403.1 196.0L403.2 196.0Q403.4 195.5 403.9 195.1Q404.4 194.8 405.0 194.8L405.0 194.8Q405.2 194.8 405.3 194.8Q405.5 194.8 405.6 194.8L405.6 194.8L405.6 196.0Q405.6 196.0 405.4 195.9Q405.2 195.9 404.9 195.9L404.9 195.9Q404.4 195.9 404.0 196.1Q403.6 196.3 403.4 196.7Q403.2 197.1 403.2 197.6L403.2 197.6L403.2 202ZM409.8 202.2L409.8 202.2Q408.8 202.2 408.1 201.7Q407.4 201.2 407.0 200.4Q406.6 199.6 406.6 198.5L406.6 198.5Q406.6 197.4 407.0 196.6Q407.4 195.7 408.1 195.3Q408.8 194.8 409.8 194.8L409.8 194.8Q410.3 194.8 410.8 194.9Q411.2 195.1 411.6 195.3Q412.0 195.6 412.3 195.9Q412.5 196.3 412.7 196.8L412.7 196.8L411.6 197.1Q411.5 196.8 411.3 196.6Q411.2 196.4 411.0 196.2Q410.7 196.0 410.4 195.9Q410.1 195.8 409.8 195.8L409.8 195.8Q409.1 195.8 408.6 196.2Q408.2 196.6 408.0 197.2Q407.7 197.8 407.7 198.5L407.7 198.5Q407.7 199.2 408.0 199.8Q408.2 200.4 408.6 200.8Q409.1 201.1 409.8 201.1L409.8 201.1Q410.2 201.1 410.5 201.0Q410.8 200.9 411.0 200.8Q411.2 200.6 411.4 200.3Q411.5 200.1 411.6 199.8L411.6 199.8L412.7 200.1Q412.6 200.6 412.3 201.0Q412.0 201.4 411.6 201.6Q411.2 201.9 410.8 202.0Q410.3 202.2 409.8 202.2ZM417.3 202.2L417.3 202.2Q416.3 202.2 415.5 201.7Q414.8 201.2 414.4 200.4Q414.0 199.6 414.0 198.5Q414.0 197.4 414.4 196.6Q414.8 195.8 415.5 195.3Q416.2 194.8 417.2 194.8L417.2 194.8Q417.8 194.8 418.3 195.0Q418.9 195.2 419.3 195.6Q419.7 196.0 420.0 196.7Q420.3 197.4 420.3 198.4L420.3 198.4L420.3 198.8L415.2 198.8Q415.2 199.5 415.4 200.0L415.4 200.0Q415.7 200.6 416.2 200.9Q416.7 201.1 417.3 201.1L417.3 201.1Q417.7 201.1 418.1 201.0Q418.4 200.9 418.7 200.7Q418.9 200.4 419.1 200.0L419.1 200.0L420.2 200.3Q420.0 200.9 419.6 201.3Q419.2 201.7 418.6 201.9Q418.1 202.2 417.3 202.2ZM415.2 197.9L415.2 197.9L419.1 197.9Q419.1 197.4 418.9 197.0L418.9 197.0Q418.7 196.4 418.3 196.1Q417.8 195.8 417.2 195.8Q416.5 195.8 416.1 196.1Q415.6 196.5 415.4 197.0L415.4 197.0Q415.2 197.4 415.2 197.9Z "/></g><defs><clipPath id="satori_bc-id-4-2" clip-path="url(#satori_cp-id)"><path x="454" y="182" width="117" height="30" d="M469,182 h87 a15,15 0 0 1 15,15 v0 a15,15 0 0 1 -15,15 h-87 a15,15 0 0 1 -15,-15 v0 a15,15 0 0 1 15,-15"/></clipPath></defs><mask id="satori_om-id-4-2"><rect x="455" y="183" width="115" height="28" fill="#fff" mask="url(#satori_om-id)"/><path width="117" height="30" fill="none" stroke="#000" stroke-width="2" d="M458.39300000000003,186.393 A15,15 0 0 1 469,182 h87 a15,15 0 0 1 15,15 v0 a15,15 0 0 1 -15,15 h-87 a15,15 0 0 1 -15,-15 v0 A15,15 0 0 1 458.39300000000003,186.393"/></mask><path x="454" y="182" width="117" height="30" fill="#18181b" d="M469,182 h87 a15,15 0 0 1 15,15 v0 a15,15 0 0 1 -15,15 h-87 a15,15 0 0 1 -15,-15 v0 a15,15 0 0 1 15,-15" clip-path="url(#satori_cp-id)" mask="url(#satori_om-id)"/><path width="117" height="30" clip-path="url(#satori_bc-id-4-2)" fill="none" stroke="#27272a" stroke-width="2" d="M458.39300000000003,186.393 A15,15 0 0 1 469,182 h87 a15,15 0 0 1 15,15 v0 a15,15 0 0 1 -15,15 h-87 a15,15 0 0 1 -15,-15 v0 A15,15 0 0 1 458.39300000000003,186.393"/><g mask="url(#satori_om-id)" clip-path="url(#satori_cp-id)"><path fill="#a1a1aa" d="M478.0 202.2L478.0 202.2Q477.3 202.2 476.8 201.9Q476.2 201.7 475.9 201.2Q475.6 200.7 475.6 200.0L475.6 200.0Q475.6 199.4 475.8 199.0Q476.1 198.6 476.5 198.4Q476.9 198.2 477.3 198.1Q477.8 198.0 478.3 197.9L478.3 197.9Q479.0 197.8 479.4 197.8Q479.8 197.7 480.0 197.6Q480.2 197.5 480.2 197.2L480.2 197.2L480.2 197.2Q480.2 196.8 480.0 196.5Q479.8 196.1 479.5 196.0Q479.2 195.8 478.7 195.8L478.7 195.8Q478.2 195.8 477.8 196.0Q477.4 196.1 477.2 196.4Q477.0 196.6 476.9 196.9L476.9 196.9L475.8 196.5Q476.0 195.8 476.5 195.5Q477.0 195.1 477.5 195.0Q478.1 194.8 478.6 194.8L478.6 194.8Q479.0 194.8 479.4 194.9Q479.9 195.0 480.3 195.2Q480.7 195.5 481.0 196.0Q481.3 196.5 481.3 197.3L481.3 197.3L481.3 202L480.2 202L480.2 201.0L480.1 201.0Q480.0 201.3 479.7 201.5Q479.4 201.8 479.0 202.0Q478.6 202.2 478.0 202.2ZM478.2 201.2L478.2 201.2Q478.8 201.2 479.3 200.9Q479.7 200.7 479.9 200.3Q480.2 199.9 480.2 199.4L480.2 199.4L480.2 198.5Q480.1 198.5 479.8 198.6Q479.6 198.7 479.3 198.7Q479.0 198.8 478.7 198.8Q478.4 198.8 478.3 198.9L478.3 198.9Q477.9 198.9 477.5 199.0Q477.2 199.2 476.9 199.4Q476.7 199.6 476.7 200.0L476.7 200.0Q476.7 200.4 476.9 200.7Q477.1 200.9 477.4 201.0Q477.8 201.2 478.2 201.2ZM484.4 202L483.3 202L483.3 194.9L484.4 194.9L484.4 196.0L484.5 196.0Q484.7 195.5 485.2 195.1Q485.7 194.8 486.3 194.8L486.3 194.8Q486.5 194.8 486.6 194.8Q486.8 194.8 486.9 194.8L486.9 194.8L486.9 196.0Q486.9 196.0 486.6 195.9Q486.4 195.9 486.2 195.9L486.2 195.9Q485.7 195.9 485.3 196.1Q484.9 196.3 484.7 196.7Q484.4 197.1 484.4 197.6L484.4 197.6L484.4 202ZM491.1 202.2L491.1 202.2Q490.1 202.2 489.4 201.7Q488.7 201.2 488.3 200.4Q487.9 199.6 487.9 198.5L487.9 198.5Q487.9 197.4 488.3 196.6Q488.7 195.7 489.4 195.3Q490.1 194.8 491.1 194.8L491.1 194.8Q491.6 194.8 492.1 194.9Q492.5 195.1 492.9 195.3Q493.3 195.6 493.5 195.9Q493.8 196.3 494.0 196.8L494.0 196.8L492.9 197.1Q492.8 196.8 492.6 196.6Q492.5 196.4 492.2 196.2Q492.0 196.0 491.7 195.9Q491.4 195.8 491.1 195.8L491.1 195.8Q490.4 195.8 489.9 196.2Q489.5 196.6 489.2 197.2Q489.0 197.8 489.0 198.5L489.0 198.5Q489.0 199.2 489.2 199.8Q489.5 200.4 489.9 200.8Q490.4 201.1 491.1 201.1L491.1 201.1Q491.4 201.1 491.7 201.0Q492.0 200.9 492.3 200.8Q492.5 200.6 492.7 200.3Q492.8 200.1 492.9 199.8L492.9 199.8L494.0 200.1Q493.8 200.6 493.6 201.0Q493.3 201.4 492.9 201.6Q492.5 201.9 492.1 202.0Q491.6 202.2 491.1 202.2ZM496.8 197.7L496.8 197.7L496.8 202L495.6 202L495.6 192.5L496.8 192.5L496.8 196.1Q497.1 195.5 497.5 195.2L497.5 195.2Q498.1 194.8 498.9 194.8L498.9 194.8Q499.6 194.8 500.2 195.1Q500.7 195.4 501.0 196.0Q501.3 196.6 501.3 197.5L501.3 197.5L501.3 202L500.2 202L500.2 197.6Q500.2 196.8 499.7 196.3Q499.3 195.8 498.6 195.8L498.6 195.8Q498.0 195.8 497.6 196.1Q497.2 196.3 497.0 196.7Q496.8 197.1 496.8 197.7ZM504.5 202L503.3 202L503.3 194.9L504.5 194.9L504.5 202ZM503.9 193.7L503.9 193.7Q503.6 193.7 503.3 193.5Q503.1 193.3 503.1 193.0L503.1 193.0Q503.1 192.7 503.3 192.4Q503.6 192.2 503.9 192.2L503.9 192.2Q504.2 192.2 504.5 192.4Q504.7 192.7 504.7 193.0L504.7 193.0Q504.7 193.3 504.5 193.5Q504.2 193.7 503.9 193.7ZM507.8 194.9L509.3 194.9L509.3 195.9L507.8 195.9L507.8 200.2Q507.8 200.6 508.0 200.9Q508.2 201.1 508.6 201.1L508.6 201.1Q508.7 201.1 508.9 201.0Q509.1 201.0 509.2 201.0L509.2 201.0L509.4 202.0Q509.3 202.0 509.0 202.1Q508.8 202.1 508.6 202.1L508.6 202.1Q507.7 202.1 507.2 201.6Q506.6 201.1 506.6 200.2L506.6 200.2L506.6 195.9L505.6 195.9L505.6 194.9L506.6 194.9L506.6 193.2L507.8 193.2L507.8 194.9ZM513.7 202.2L513.7 202.2Q512.7 202.2 511.9 201.7Q511.2 201.2 510.8 200.4Q510.4 199.6 510.4 198.5Q510.4 197.4 510.8 196.6Q511.2 195.8 511.9 195.3Q512.6 194.8 513.6 194.8L513.6 194.8Q514.1 194.8 514.7 195.0Q515.2 195.2 515.7 195.6Q516.1 196.0 516.4 196.7Q516.7 197.4 516.7 198.4L516.7 198.4L516.7 198.8L511.5 198.8Q511.5 199.5 511.8 200.0L511.8 200.0Q512.1 200.6 512.6 200.9Q513.1 201.1 513.7 201.1L513.7 201.1Q514.1 201.1 514.5 201.0Q514.8 200.9 515.1 200.7Q515.3 200.4 515.4 200.0L515.4 200.0L516.5 200.3Q516.4 200.9 516.0 201.3Q515.6 201.7 515.0 201.9Q514.4 202.2 513.7 202.2ZM511.5 197.9L511.5 197.9L515.5 197.9Q515.4 197.4 515.3 197.0L515.3 197.0Q515.1 196.4 514.6 196.1Q514.2 195.8 513.6 195.8Q512.9 195.8 512.5 196.1Q512.0 196.5 511.8 197.0L511.8 197.0Q511.6 197.4 511.5 197.9ZM521.2 202.2L521.2 202.2Q520.2 202.2 519.5 201.7Q518.8 201.2 518.4 200.4Q517.9 199.6 517.9 198.5L517.9 198.5Q517.9 197.4 518.4 196.6Q518.8 195.7 519.5 195.3Q520.2 194.8 521.2 194.8L521.2 194.8Q521.7 194.8 522.2 194.9Q522.6 195.1 523.0 195.3Q523.4 195.6 523.6 195.9Q523.9 196.3 524.1 196.8L524.1 196.8L523.0 197.1Q522.9 196.8 522.7 196.6Q522.6 196.4 522.3 196.2Q522.1 196.0 521.8 195.9Q521.5 195.8 521.2 195.8L521.2 195.8Q520.5 195.8 520.0 196.2Q519.6 196.6 519.3 197.2Q519.1 197.8 519.1 198.5L519.1 198.5Q519.1 199.2 519.3 199.8Q519.6 200.4 520.0 200.8Q520.5 201.1 521.2 201.1L521.2 201.1Q521.5 201.1 521.8 201.0Q522.1 200.9 522.4 200.8Q522.6 200.6 522.8 200.3Q522.9 200.1 523.0 199.8L523.0 199.8L524.1 200.1Q523.9 200.6 523.7 201.0Q523.4 201.4 523.0 201.6Q522.6 201.9 522.2 202.0Q521.7 202.2 521.2 202.2ZM527.1 194.9L528.5 194.9L528.5 195.9L527.1 195.9L527.1 200.2Q527.1 200.6 527.2 200.9Q527.4 201.1 527.9 201.1L527.9 201.1Q528.0 201.1 528.2 201.0Q528.3 201.0 528.5 201.0L528.5 201.0L528.7 202.0Q528.5 202.0 528.3 202.1Q528.1 202.1 527.9 202.1L527.9 202.1Q526.9 202.1 526.4 201.6Q525.9 201.1 525.9 200.2L525.9 200.2L525.9 195.9L524.8 195.9L524.8 194.9L525.9 194.9L525.9 193.2L527.1 193.2L527.1 194.9ZM532.4 202.1L532.4 202.1Q531.7 202.1 531.1 201.8Q530.6 201.5 530.3 200.9Q530.0 200.3 530.0 199.4L530.0 199.4L530.0 194.9L531.1 194.9L531.1 199.3Q531.1 200.1 531.5 200.6Q532.0 201.1 532.7 201.1L532.7 201.1Q533.2 201.1 533.6 200.8Q534.0 200.6 534.3 200.2Q534.5 199.8 534.5 199.2L534.5 199.2L534.5 194.9L535.7 194.9L535.7 202L534.5 202L534.5 200.7Q534.2 201.4 533.8 201.7L533.8 201.7Q533.2 202.1 532.4 202.1ZM538.8 202L537.7 202L537.7 194.9L538.8 194.9L538.8 196.0L538.8 196.0Q539.0 195.5 539.5 195.1Q540.0 194.8 540.7 194.8L540.7 194.8Q540.8 194.8 541.0 194.8Q541.2 194.8 541.3 194.8L541.3 194.8L541.3 196.0Q541.2 196.0 541.0 195.9Q540.8 195.9 540.6 195.9L540.6 195.9Q540.1 195.9 539.7 196.1Q539.3 196.3 539.0 196.7Q538.8 197.1 538.8 197.6L538.8 197.6L538.8 202ZM545.5 202.2L545.5 202.2Q544.5 202.2 543.8 201.7Q543.0 201.2 542.6 200.4Q542.2 199.6 542.2 198.5Q542.2 197.4 542.6 196.6Q543.0 195.8 543.7 195.3Q544.4 194.8 545.4 194.8L545.4 194.8Q546.0 194.8 546.5 195.0Q547.1 195.2 547.5 195.6Q548.0 196.0 548.2 196.7Q548.5 197.4 548.5 198.4L548.5 198.4L548.5 198.8L543.4 198.8Q543.4 199.5 543.6 200.0L543.6 200.0Q543.9 200.6 544.4 200.9Q544.9 201.1 545.5 201.1L545.5 201.1Q546.0 201.1 546.3 201.0Q546.6 200.9 546.9 200.7Q547.1 200.4 547.3 200.0L547.3 200.0L548.4 200.3Q548.2 200.9 547.8 201.3Q547.4 201.7 546.8 201.9Q546.3 202.2 545.5 202.2ZM543.4 197.9L543.4 197.9L547.3 197.9Q547.3 197.4 547.1 197.0L547.1 197.0Q546.9 196.4 546.5 196.1Q546.0 195.8 545.4 195.8Q544.8 195.8 544.3 196.1Q543.8 196.5 543.6 197.0L543.6 197.0Q543.4 197.4 543.4 197.9Z "/></g></svg>