<!-- Generated by readme-aura https://github.com/collectioneur/readme-aura -->
<svg width="860" height="210" viewBox="0 0 860 210" xmlns="http://www.w3.org/2000/svg"><defs><clipPath id="satori_bc-id"><path x="0" y="0" width="860" height="210" d="M16,0 h828 a16,16 0 0 1 16,16 v178 a16,16 0 0 1 -16,16 h-828 a16,16 0 0 1 -16,-16 v-178 a16,16 0 0 1 16,-16"/></clipPath></defs><clipPath id="satori_cp-id"><path x="0" y="0" width="860" height="210" d="M16,0 h828 a16,16 0 0 1 16,16 v178 a16,16 0 0 1 -16,16 h-828 a16,16 0 0 1 -16,-16 v-178 a16,16 0 0 1 16,-16"/></clipPath><mask id="satori_om-id"><rect x="1" y="1" width="858" height="208" fill="#fff"/><path width="860" height="210" fill="none" stroke="#000" stroke-width="2" d="M4.686,4.686 A16,16 0 0 1 16,0 h828 a16,16 0 0 1 16,16 v178 a16,16 0 0 1 -16,16 h-828 a16,16 0 0 1 -16,-16 v-178 A16,16 0 0 1 4.686,4.686"/></mask><path x="0" y="0" width="860" height="210" fill="#08080c" d="M16,0 h828 a16,16 0 0 1 16,16 v178 a16,16 0 0 1 -16,16 h-828 a16,16 0 0 1 -16,-16 v-178 a16,16 0 0 1 16,-16"/><path width="860" height="210" clip-path="url(#satori_bc-id)" fill="none" stroke="rgba(110,80,220,0.18)" stroke-width="2" d="M4.686,4.686 A16,16 0 0 1 16,0 h828 a16,16 0 0 1 16,16 v178 a16,16 0 0 1 -16,16 h-828 a16,16 0 0 1 -16,-16 v-178 A16,16 0 0 1 4.686,4.686"/><clipPath id="satori_cp-id-0" clip-path="url(#satori_cp-id)"><rect x="1" y="1" width="860" height="210"/></clipPath><mask id="satori_om-id-0"><rect x="1" y="1" width="860" height="210" fill="#fff" mask="url(#satori_om-id)"/></mask><svg x="1" y="1" width="860" height="210" preserveAspectRatio="none" clip-path="url(#satori_cp-id-0)" mask="url(#satori_om-id-0)"><defs><radialGradient id="g1" cx="50%" cy="50%" r="50%"><stop offset="0%" stop-color="rgba(115,20,215,0.68)"></stop><stop offset="42%" stop-color="rgba(85,15,175,0.30)"></stop><stop offset="70%" stop-color="rgba(85,15,175,0)"></stop></radialGradient><radialGradient id="g2" cx="50%" cy="50%" r="50%"><stop offset="0%" stop-color="rgba(55,55,255,0.55)"></stop><stop offset="45%" stop-color="rgba(35,45,210,0.22)"></stop><stop offset="70%" stop-color="rgba(35,45,210,0)"></stop></radialGradient><radialGradient id="g3" cx="50%" cy="50%" r="50%"><stop offset="0%" stop-color="rgba(0,130,255,0.42)"></stop><stop offset="50%" stop-color="rgba(0,100,220,0.16)"></stop><stop offset="70%" stop-color="rgba(0,100,220,0)"></stop></radialGradient><radialGradient id="g4" cx="50%" cy="50%" r="50%"><stop offset="0%" stop-color="rgba(0,185,240,0.32)"></stop><stop offset="70%" stop-color="rgba(0,185,240,0)"></stop></radialGradient><radialGradient id="g5" cx="50%" cy="50%" r="50%"><stop offset="0%" stop-color="rgba(100,25,205,0.42)"></stop><stop offset="70%" stop-color="rgba(100,25,205,0)"></stop></radialGradient><radialGradient id="g6" cx="50%" cy="50%" r="50%"><stop offset="0%" stop-color="rgba(60,80,255,0.35)"></stop><stop offset="70%" stop-color="rgba(60,80,255,0)"></stop></radialGradient></defs><ellipse id="glow-1" cx="170" cy="210" rx="260" ry="170" fill="url(#g1)"></ellipse><ellipse id="glow-2" cx="320" cy="220" rx="220" ry="140" fill="url(#g2)"></ellipse><ellipse id="glow-3" cx="460" cy="220" rx="190" ry="130" fill="url(#g3)"></ellipse><ellipse id="glow-4" cx="590" cy="230" rx="160" ry="110" fill="url(#g4)"></ellipse><ellipse id="glow-5" cx="750" cy="230" rx="140" ry="100" fill="url(#g5)"></ellipse><ellipse id="glow-6" cx="420" cy="180" rx="100" ry="80" fill="url(#g6)"></ellipse><style>

         @keyframes float-slow {
           0%, 100% { transform: translateX(0px); opacity: 0.8; }
           50% { transform: translateX(350px); opacity: 1.2; }
         }
         @keyframes float-medium {
           0%, 100% { transform: translateX(0px); opacity: 0.7; }
           50% { transform: translateX(-250px); opacity: 1.1; }
         }
         @keyframes float-fast {
           0%, 100% { transform: translateX(0px); opacity: 0.9; }
           50% { transform: translateX(200px); opacity: 0.6; }
         }
         @keyframes float-diagonal {
           0%, 100% { transform: translate(0px, 0px); opacity: 0.75; }
           50% { transform: translate(120px, 30px); opacity: 1.0; }
         }
         @keyframes float-wave {
           0%, 100% { transform: translateX(0px); opacity: 0.65; }
           33% { transform: translateX(-160px); opacity: 0.9; }
           66% { transform: translateX(80px); opacity: 1.0; }
         }
         @keyframes float-pulse {
           0%, 100% { transform: scale(1); opacity: 0.8; }
           50% { transform: scale(1.3); opacity: 0.4; }
         }
         #glow-1 { animation: float-slow 9s ease-in-out infinite; }
         #glow-2 { animation: float-medium 12s ease-in-out infinite; }
         #glow-3 { animation: float-fast 8s ease-in-out infinite; }
         #glow-4 { animation: float-diagonal 11s ease-in-out infinite reverse; }
         #glow-5 { animation: float-wave 14s ease-in-out infinite reverse; }
         #glow-6 { animation: float-pulse 6s ease-in-out infinite; }
       
</style>
</svg><mask id="satori_om-id-0-0"><rect x="1" y="1" width="0" height="210" fill="#fff" mask="url(#satori_om-id)"/></mask><mask id="satori_om-id-0-0-0"><rect x="1" y="1" width="0" height="210" fill="#fff" mask="url(#satori_om-id)"/></mask><mask id="satori_om-id-0-0-0-0"><rect x="1" y="1" width="0" height="210" fill="#fff" mask="url(#satori_om-id)"/></mask><mask id="satori_om-id-0-0-0-1"><rect x="1" y="1" width="0" height="210" fill="#fff" mask="url(#satori_om-id)"/></mask><mask id="satori_om-id-0-0-0-2"><rect x="1" y="1" width="0" height="210" fill="#fff" mask="url(#satori_om-id)"/></mask><mask id="satori_om-id-0-0-1"><rect x="1" y="1" width="0" height="210" fill="#fff" mask="url(#satori_om-id)"/></mask><mask id="satori_om-id-0-0-1-0"><rect x="1" y="1" width="0" height="210" fill="#fff" mask="url(#satori_om-id)"/></mask><mask id="satori_om-id-0-0-1-1"><rect x="1" y="1" width="0" height="210" fill="#fff" mask="url(#satori_om-id)"/></mask><mask id="satori_om-id-0-0-1-2"><rect x="1" y="1" width="0" height="210" fill="#fff" mask="url(#satori_om-id)"/></mask><mask id="satori_om-id-0-0-2"><rect x="1" y="1" width="0" height="210" fill="#fff" mask="url(#satori_om-id)"/></mask><mask id="satori_om-id-0-0-2-0"><rect x="1" y="1" width="0" height="210" fill="#fff" mask="url(#satori_om-id)"/></mask><mask id="satori_om-id-0-0-2-1"><rect x="1" y="1" width="0" height="210" fill="#fff" mask="url(#satori_om-id)"/></mask><mask id="satori_om-id-0-0-2-2"><rect x="1" y="1" width="0" height="210" fill="#fff" mask="url(#satori_om-id)"/></mask><mask id="satori_om-id-0-0-3"><rect x="1" y="1" width="0" height="210" fill="#fff" mask="url(#satori_om-id)"/></mask><mask id="satori_om-id-0-0-3-0"><rect x="1" y="1" width="0" height="210" fill="#fff" mask="url(#satori_om-id)"/></mask><mask id="satori_om-id-0-0-3-1"><rect x="1" y="1" width="0" height="210" fill="#fff" mask="url(#satori_om-id)"/></mask><mask id="satori_om-id-0-0-4"><rect x="1" y="1" width="0" height="210" fill="#fff" mask="url(#satori_om-id)"/></mask><mask id="satori_om-id-0-0-4-0"><rect x="1" y="1" width="0" height="210" fill="#fff" mask="url(#satori_om-id)"/></mask><mask id="satori_om-id-0-0-4-1"><rect x="1" y="1" width="0" height="210" fill="#fff" mask="url(#satori_om-id)"/></mask><mask id="satori_om-id-0-0-5"><rect x="1" y="1" width="0" height="210" fill="#fff" mask="url(#satori_om-id)"/></mask><mask id="satori_om-id-0-0-5-0"><rect x="1" y="1" width="0" height="210" fill="#fff" mask="url(#satori_om-id)"/></mask><mask id="satori_om-id-0-0-5-1"><rect x="1" y="1" width="0" height="210" fill="#fff" mask="url(#satori_om-id)"/></mask><mask id="satori_om-id-0-1"><rect x="1" y="1" width="0" height="210" fill="#fff" mask="url(#satori_om-id)"/></mask><mask id="satori_om-id-0-2"><rect x="1" y="1" width="0" height="210" fill="#fff" mask="url(#satori_om-id)"/></mask><mask id="satori_om-id-0-3"><rect x="1" y="1" width="0" height="210" fill="#fff" mask="url(#satori_om-id)"/></mask><mask id="satori_om-id-0-4"><rect x="1" y="1" width="0" height="210" fill="#fff" mask="url(#satori_om-id)"/></mask><mask id="satori_om-id-0-5"><rect x="1" y="1" width="0" height="210" fill="#fff" mask="url(#satori_om-id)"/></mask><mask id="satori_om-id-0-6"><rect x="1" y="1" width="0" height="210" fill="#fff" mask="url(#satori_om-id)"/></mask><mask id="satori_om-id-1"><rect x="33" y="19" width="794" height="12" fill="#fff" mask="url(#satori_om-id)"/></mask><g mask="url(#satori_om-id)" clip-path="url(#satori_cp-id)"><path fill="rgba(155,140,210,0.5)" d="M35.6 23.0L33.4 23.0L33.4 21.7L39.3 21.7L39.3 23.0L37.1 23.0L37.1 29L35.6 29L35.6 23.0ZM48.2 29L43.3 29L43.3 21.7L48.2 21.7L48.2 23.0L44.8 23.0L44.8 24.7L47.9 24.7L47.9 25.9L44.8 25.9L44.8 27.8L48.2 27.8L48.2 29ZM55.6 29.1L55.6 29.1Q54.6 29.1 53.9 28.7Q53.1 28.2 52.6 27.4Q52.2 26.5 52.2 25.4L52.2 25.4Q52.2 24.2 52.7 23.3Q53.1 22.5 53.9 22.1Q54.6 21.6 55.6 21.6L55.6 21.6Q56.2 21.6 56.7 21.8Q57.3 22.0 57.7 22.3Q58.1 22.6 58.4 23.1Q58.6 23.6 58.7 24.2L58.7 24.2L57.2 24.2Q57.2 23.9 57.0 23.7Q56.9 23.4 56.7 23.3Q56.5 23.1 56.2 23.0Q55.9 23.0 55.6 23.0L55.6 23.0Q55.0 23.0 54.6 23.2Q54.2 23.5 54.0 24.1Q53.7 24.6 53.7 25.4L53.7 25.4Q53.7 26.2 54.0 26.7Q54.2 27.2 54.6 27.5Q55.0 27.8 55.6 27.8L55.6 27.8Q55.9 27.8 56.2 27.7Q56.5 27.6 56.7 27.4Q56.9 27.3 57.0 27.0Q57.2 26.8 57.2 26.5L57.2 26.5L58.7 26.5Q58.7 27.0 58.4 27.5Q58.2 27.9 57.8 28.3Q57.4 28.7 56.8 28.9Q56.3 29.1 55.6 29.1ZM64.3 29L62.8 29L62.8 21.7L64.3 21.7L64.3 24.7L67.5 24.7L67.5 21.7L69.0 21.7L69.0 29L67.5 29L67.5 25.9L64.3 25.9L64.3 29Z M81.3 29.1L81.3 29.1Q80.4 29.1 79.8 28.8Q79.1 28.6 78.8 28.0Q78.4 27.5 78.4 26.7L78.4 26.7L79.9 26.7Q79.9 27.1 80.1 27.4Q80.3 27.6 80.6 27.7Q80.9 27.8 81.3 27.8L81.3 27.8Q81.7 27.8 82.0 27.7Q82.3 27.6 82.5 27.4Q82.6 27.2 82.6 26.9L82.6 26.9Q82.6 26.7 82.5 26.5Q82.3 26.3 82.0 26.2Q81.8 26.1 81.4 26.0L81.4 26.0L80.6 25.8Q79.6 25.6 79.1 25.1Q78.6 24.6 78.6 23.8L78.6 23.8Q78.6 23.2 78.9 22.7Q79.3 22.2 79.9 21.9Q80.5 21.6 81.3 21.6L81.3 21.6Q82.1 21.6 82.7 21.9Q83.3 22.2 83.7 22.7Q84.0 23.2 84.0 23.8L84.0 23.8L82.6 23.8Q82.5 23.4 82.2 23.1Q81.9 22.9 81.3 22.9L81.3 22.9Q80.9 22.9 80.7 23.0Q80.4 23.1 80.3 23.3Q80.1 23.5 80.1 23.7L80.1 23.7Q80.1 24.0 80.3 24.2Q80.4 24.3 80.7 24.5Q81.0 24.6 81.3 24.6L81.3 24.6L81.9 24.8Q82.4 24.9 82.8 25.1Q83.2 25.3 83.5 25.5Q83.8 25.8 84.0 26.1Q84.1 26.5 84.1 26.9L84.1 26.9Q84.1 27.6 83.8 28.1Q83.5 28.6 82.8 28.8Q82.2 29.1 81.3 29.1ZM90.1 23.0L87.9 23.0L87.9 21.7L93.8 21.7L93.8 23.0L91.6 23.0L91.6 29L90.1 29L90.1 23.0ZM99.1 29L97.4 29L99.9 21.7L101.9 21.7L104.4 29L102.8 29L102.2 27.3L99.6 27.3L99.1 29ZM100.0 26.1L101.8 26.1L101.6 25.5Q101.4 24.8 101.2 24L101.2 24Q101.0 23.5 100.9 22.9L100.9 22.9Q100.7 23.5 100.6 24.0L100.6 24.0Q100.4 24.8 100.2 25.5L100.2 25.5L100.0 26.1ZM111.5 29.1L111.5 29.1Q110.5 29.1 109.8 28.7Q109.0 28.2 108.6 27.4Q108.1 26.5 108.1 25.4L108.1 25.4Q108.1 24.2 108.6 23.3Q109.0 22.5 109.8 22.1Q110.6 21.6 111.5 21.6L111.5 21.6Q112.1 21.6 112.7 21.8Q113.2 22.0 113.6 22.3Q114.0 22.6 114.3 23.1Q114.6 23.6 114.6 24.2L114.6 24.2L113.1 24.2Q113.1 23.9 112.9 23.7Q112.8 23.4 112.6 23.3Q112.4 23.1 112.1 23.0Q111.9 23.0 111.5 23.0L111.5 23.0Q111.0 23.0 110.5 23.2Q110.1 23.5 109.9 24.1Q109.6 24.6 109.6 25.4L109.6 25.4Q109.6 26.2 109.9 26.7Q110.1 27.2 110.5 27.5Q111.0 27.8 111.5 27.8L111.5 27.8Q111.8 27.8 112.1 27.7Q112.4 27.6 112.6 27.4Q112.8 27.3 112.9 27.0Q113.1 26.8 113.1 26.5L113.1 26.5L114.6 26.5Q114.6 27.0 114.3 27.5Q114.1 27.9 113.7 28.3Q113.3 28.7 112.8 28.9Q112.2 29.1 111.5 29.1ZM120.2 29L118.7 29L118.7 21.7L120.2 21.7L120.2 23.7L120.2 25.4Q120.2 25.3 120.3 25.3L120.3 25.3Q120.5 24.9 120.7 24.6Q121.0 24.2 121.3 23.8L121.3 23.8L123.1 21.7L124.9 21.7L122.2 24.9L125.0 29L123.3 29L121.2 25.9L120.2 26.9L120.2 29Z "/></g><mask id="satori_om-id-2"><rect x="33" y="45" width="794" height="103" fill="#fff" mask="url(#satori_om-id)"/></mask><mask id="satori_om-id-2-0"><rect x="33" y="45" width="794" height="25" fill="#fff" mask="url(#satori_om-id)"/></mask><mask id="satori_om-id-2-0-0"><rect x="33" y="52" width="90" height="12" fill="#fff" mask="url(#satori_om-id)"/></mask><g mask="url(#satori_om-id)" clip-path="url(#satori_cp-id)"><path fill="#a78bfa" d="M38.3 62L33.7 62L33.7 54.7L35.1 54.7L35.1 60.8L38.3 60.8L38.3 62ZM41.5 62L39.9 62L42.4 54.7L44.3 54.7L46.9 62L45.2 62L44.7 60.3L42.1 60.3L41.5 62ZM42.5 59.1L44.3 59.1L44.1 58.5Q43.8 57.8 43.6 57L43.6 57Q43.5 56.5 43.3 55.9L43.3 55.9Q43.2 56.5 43.1 57.0L43.1 57.0Q42.9 57.8 42.7 58.5L42.7 58.5L42.5 59.1ZM50.3 62L48.8 62L48.8 54.7L50.4 54.7L52.7 58.4Q52.9 58.7 53.1 59.0Q53.3 59.4 53.5 59.8L53.5 59.8Q53.6 60.0 53.6 60.2L53.6 60.2Q53.6 60.0 53.6 59.8L53.6 59.8Q53.6 59.3 53.6 58.9Q53.6 58.5 53.6 58.2L53.6 58.2L53.6 54.7L55.1 54.7L55.1 62L53.4 62L51.3 58.7Q51.1 58.3 50.9 57.9Q50.7 57.6 50.5 57.1L50.5 57.1Q50.4 56.9 50.2 56.6L50.2 56.6Q50.2 56.9 50.2 57.1L50.2 57.1Q50.3 57.6 50.3 58.0Q50.3 58.4 50.3 58.7L50.3 58.7L50.3 62ZM60.6 62.1L60.6 62.1Q59.6 62.1 58.8 61.6Q58.1 61.2 57.6 60.4Q57.2 59.5 57.2 58.4L57.2 58.4Q57.2 57.2 57.7 56.4Q58.1 55.5 58.9 55.1Q59.6 54.6 60.6 54.6L60.6 54.6Q61.2 54.6 61.7 54.8Q62.3 55.0 62.7 55.3Q63.1 55.6 63.4 56.1Q63.6 56.5 63.7 57.1L63.7 57.1L62.2 57.1Q62.1 56.8 62.0 56.6Q61.8 56.4 61.6 56.2Q61.4 56.1 61.2 56.0Q60.9 56.0 60.6 56.0L60.6 56.0Q60.1 56.0 59.6 56.2Q59.2 56.5 59.0 57.0Q58.7 57.6 58.7 58.4Q58.7 59.1 59.0 59.7Q59.2 60.2 59.6 60.5Q60.0 60.8 60.6 60.8L60.6 60.8Q61.2 60.8 61.5 60.6Q61.9 60.4 62.1 60.0L62.1 60.0Q62.3 59.7 62.3 59.3L62.3 59.3L60.7 59.3L60.7 58.1L63.8 58.1L63.8 59.0Q63.8 60.0 63.4 60.7Q63.0 61.4 62.2 61.7Q61.5 62.1 60.6 62.1ZM68.9 62.1L68.9 62.1Q68.0 62.1 67.3 61.8Q66.7 61.4 66.3 60.8Q65.9 60.2 65.9 59.4L65.9 59.4L65.9 54.7L67.4 54.7L67.4 59.3Q67.4 59.7 67.6 60.1Q67.8 60.4 68.1 60.6Q68.5 60.8 68.9 60.8L68.9 60.8Q69.4 60.8 69.7 60.6Q70.0 60.4 70.2 60.1Q70.4 59.7 70.4 59.3L70.4 59.3L70.4 54.7L71.9 54.7L71.9 59.4Q71.9 60.2 71.5 60.8Q71.2 61.4 70.5 61.8Q69.8 62.1 68.9 62.1ZM75.5 62L73.8 62L76.3 54.7L78.2 54.7L80.8 62L79.1 62L78.6 60.3L76.0 60.3L75.5 62ZM76.4 59.1L78.2 59.1L78.0 58.5Q77.8 57.8 77.5 57L77.5 57Q77.4 56.5 77.3 55.9L77.3 55.9Q77.1 56.5 77.0 57.0L77.0 57.0Q76.8 57.8 76.6 58.5L76.6 58.5L76.4 59.1ZM85.9 62.1L85.9 62.1Q84.9 62.1 84.1 61.6Q83.4 61.2 82.9 60.4Q82.5 59.5 82.5 58.4L82.5 58.4Q82.5 57.2 82.9 56.4Q83.4 55.5 84.2 55.1Q84.9 54.6 85.9 54.6L85.9 54.6Q86.5 54.6 87.0 54.8Q87.6 55.0 88.0 55.3Q88.4 55.6 88.6 56.1Q88.9 56.5 89.0 57.1L89.0 57.1L87.5 57.1Q87.4 56.8 87.2 56.6Q87.1 56.4 86.9 56.2Q86.7 56.1 86.5 56.0Q86.2 56.0 85.9 56.0L85.9 56.0Q85.3 56.0 84.9 56.2Q84.5 56.5 84.2 57.0Q84.0 57.6 84.0 58.4Q84.0 59.1 84.2 59.7Q84.5 60.2 84.9 60.5Q85.3 60.8 85.9 60.8L85.9 60.8Q86.5 60.8 86.8 60.6Q87.2 60.4 87.4 60.0L87.4 60.0Q87.6 59.7 87.6 59.3L87.6 59.3L86.0 59.3L86.0 58.1L89.1 58.1L89.1 59.0Q89.1 60.0 88.6 60.7Q88.2 61.4 87.5 61.7Q86.8 62.1 85.9 62.1ZM96.1 62L91.2 62L91.2 54.7L96.1 54.7L96.1 56.0L92.7 56.0L92.7 57.7L95.8 57.7L95.8 58.9L92.7 58.9L92.7 60.8L96.1 60.8L96.1 62ZM100.9 62.1L100.9 62.1Q100.1 62.1 99.4 61.8Q98.8 61.6 98.4 61.0Q98.0 60.5 98.0 59.7L98.0 59.7L99.5 59.7Q99.5 60.1 99.7 60.4Q99.9 60.6 100.2 60.7Q100.5 60.8 100.9 60.8L100.9 60.8Q101.3 60.8 101.6 60.7Q101.9 60.6 102.1 60.4Q102.2 60.2 102.2 59.9L102.2 59.9Q102.2 59.7 102.1 59.5Q101.9 59.3 101.7 59.2Q101.4 59.1 101.0 59.0L101.0 59.0L100.2 58.8Q99.3 58.6 98.7 58.1Q98.2 57.6 98.2 56.8L98.2 56.8Q98.2 56.2 98.6 55.7Q98.9 55.2 99.5 54.9Q100.2 54.6 101.0 54.6L101.0 54.6Q101.8 54.6 102.4 54.9Q103.0 55.2 103.3 55.7Q103.6 56.2 103.6 56.8L103.6 56.8L102.2 56.8Q102.2 56.4 101.8 56.1Q101.5 55.9 100.9 55.9L100.9 55.9Q100.6 55.9 100.3 56.0Q100.0 56.1 99.9 56.3Q99.8 56.5 99.8 56.7L99.8 56.7Q99.8 57.0 99.9 57.2Q100.1 57.3 100.3 57.5Q100.6 57.6 100.9 57.6L100.9 57.6L101.6 57.8Q102.0 57.9 102.4 58.1Q102.8 58.3 103.1 58.5Q103.4 58.8 103.6 59.1Q103.7 59.5 103.7 59.9L103.7 59.9Q103.7 60.6 103.4 61.1Q103.1 61.6 102.5 61.8Q101.8 62.1 100.9 62.1Z "/></g><mask id="satori_om-id-2-0-1"><rect x="139" y="45" width="541" height="25" fill="#fff" mask="url(#satori_om-id)"/></mask><defs><clipPath id="satori_bc-id-2-0-1-0" clip-path="url(#satori_cp-id)"><path x="139" y="45" width="93" height="25" d="M145,45 h81 a6,6 0 0 1 6,6 v13 a6,6 0 0 1 -6,6 h-81 a6,6 0 0 1 -6,-6 v-13 a6,6 0 0 1 6,-6"/></clipPath></defs><mask id="satori_om-id-2-0-1-0"><rect x="140" y="46" width="91" height="23" fill="#fff" mask="url(#satori_om-id)"/><path width="93" height="25" fill="none" stroke="#000" stroke-width="2" d="M140.757,46.757 A6,6 0 0 1 145,45 h81 a6,6 0 0 1 6,6 v13 a6,6 0 0 1 -6,6 h-81 a6,6 0 0 1 -6,-6 v-13 A6,6 0 0 1 140.757,46.757"/></mask><path x="139" y="45" width="93" height="25" fill="#a78bfa15" d="M145,45 h81 a6,6 0 0 1 6,6 v13 a6,6 0 0 1 -6,6 h-81 a6,6 0 0 1 -6,-6 v-13 a6,6 0 0 1 6,-6" clip-path="url(#satori_cp-id)" mask="url(#satori_om-id)"/><path width="93" height="25" clip-path="url(#satori_bc-id-2-0-1-0)" fill="none" stroke="#a78bfa35" stroke-width="2" d="M140.757,46.757 A6,6 0 0 1 145,45 h81 a6,6 0 0 1 6,6 v13 a6,6 0 0 1 -6,6 h-81 a6,6 0 0 1 -6,-6 v-13 A6,6 0 0 1 140.757,46.757"/><g mask="url(#satori_om-id)" clip-path="url(#satori_cp-id)"><path fill="rgba(225,220,255,0.85)" d="M156.1 54.8L153.4 54.8L153.4 53.3L160.6 53.3L160.6 54.8L157.9 54.8L157.9 62L156.1 62L156.1 54.8ZM161.7 64.3L161.7 64.3L162.1 63.0L162.3 63.0Q162.7 63.1 163.0 63.1Q163.2 63.1 163.4 62.9Q163.6 62.7 163.6 62.4L163.6 62.4L163.7 62.0L161.2 55.4L163.1 55.4L164.2 58.8Q164.4 59.5 164.5 60.1L164.5 60.1Q164.5 60.4 164.6 60.6L164.6 60.6Q164.6 60.4 164.7 60.1L164.7 60.1Q164.8 59.5 165.1 58.8L165.1 58.8L166.2 55.4L168.0 55.4L165.3 62.8Q165.1 63.3 164.8 63.7Q164.4 64.1 164.0 64.3Q163.5 64.5 162.9 64.5L162.9 64.5Q162.5 64.5 162.2 64.4Q161.9 64.4 161.7 64.3ZM170.7 64.4L169.0 64.4L169.0 55.4L170.7 55.4L170.7 56.6L170.8 56.6Q170.9 56.3 171.1 56.0Q171.4 55.7 171.7 55.6Q172.1 55.4 172.7 55.4L172.7 55.4Q173.4 55.4 174.0 55.7Q174.6 56.1 175.0 56.9Q175.3 57.6 175.3 58.7L175.3 58.7Q175.3 59.8 175.0 60.6Q174.6 61.3 174.0 61.7Q173.4 62.1 172.7 62.1L172.7 62.1Q172.1 62.1 171.8 61.9Q171.4 61.7 171.1 61.5Q170.9 61.2 170.8 61.0L170.8 61.0L170.7 61.0L170.7 64.4ZM172.1 60.7L172.1 60.7Q172.6 60.7 172.9 60.4Q173.2 60.2 173.4 59.8Q173.5 59.3 173.5 58.7L173.5 58.7Q173.5 58.2 173.4 57.7Q173.2 57.3 172.9 57.0Q172.6 56.8 172.1 56.8L172.1 56.8Q171.7 56.8 171.3 57.0Q171.0 57.3 170.9 57.7Q170.7 58.1 170.7 58.7L170.7 58.7Q170.7 59.3 170.9 59.8Q171.0 60.2 171.4 60.5Q171.7 60.7 172.1 60.7ZM179.5 62.1L179.5 62.1Q178.5 62.1 177.8 61.7Q177.1 61.3 176.7 60.6Q176.3 59.8 176.3 58.8L176.3 58.8Q176.3 57.7 176.7 57.0Q177.0 56.2 177.8 55.8Q178.5 55.4 179.4 55.4L179.4 55.4Q180.1 55.4 180.6 55.6Q181.2 55.8 181.6 56.2Q182.0 56.6 182.3 57.2Q182.5 57.8 182.5 58.7L182.5 58.7L182.5 59.2L178.0 59.2Q178.0 59.7 178.2 60.0L178.2 60.0Q178.4 60.4 178.7 60.6Q179.1 60.8 179.5 60.8L179.5 60.8Q179.8 60.8 180.1 60.7Q180.4 60.6 180.5 60.5Q180.7 60.3 180.8 60.0L180.8 60.0L182.4 60.3Q182.2 60.9 181.8 61.3Q181.5 61.7 180.9 61.9Q180.3 62.1 179.5 62.1ZM178.0 58.1L178.0 58.1L180.8 58.1Q180.8 57.8 180.7 57.5L180.7 57.5Q180.5 57.1 180.2 56.9Q179.9 56.7 179.4 56.7L179.4 56.7Q179.0 56.7 178.7 56.9Q178.3 57.1 178.2 57.5L178.2 57.5Q178.1 57.7 178.0 58.1ZM186.9 62.1L186.9 62.1Q185.9 62.1 185.1 61.8Q184.3 61.5 183.9 60.9Q183.5 60.2 183.4 59.3L183.4 59.3L185.2 59.3Q185.2 59.7 185.4 60.0Q185.7 60.3 186.1 60.5Q186.4 60.6 186.9 60.6L186.9 60.6Q187.4 60.6 187.8 60.5Q188.1 60.3 188.3 60.1Q188.5 59.8 188.5 59.5L188.5 59.5Q188.5 59.2 188.3 59.0Q188.2 58.8 187.8 58.7Q187.5 58.5 187.0 58.4L187.0 58.4L186.0 58.2Q184.9 57.9 184.3 57.3Q183.7 56.7 183.7 55.8L183.7 55.8Q183.7 55.0 184.1 54.4Q184.5 53.8 185.3 53.5Q186.0 53.2 187.0 53.2L187.0 53.2Q187.9 53.2 188.6 53.5Q189.4 53.8 189.8 54.4Q190.2 55.0 190.2 55.8L190.2 55.8L188.5 55.8Q188.4 55.2 188.0 54.9Q187.6 54.7 186.9 54.7L186.9 54.7Q186.5 54.7 186.2 54.8Q185.8 54.9 185.7 55.1Q185.5 55.4 185.5 55.7L185.5 55.7Q185.5 56.0 185.7 56.2Q185.9 56.4 186.2 56.5Q186.5 56.7 186.9 56.8L186.9 56.8L187.7 57.0Q188.3 57.1 188.7 57.3Q189.2 57.5 189.6 57.8Q189.9 58.1 190.1 58.5Q190.3 59.0 190.3 59.5L190.3 59.5Q190.3 60.3 189.9 60.9Q189.5 61.5 188.8 61.8Q188.0 62.1 186.9 62.1ZM194.5 62.1L194.5 62.1Q193.5 62.1 192.8 61.7Q192.1 61.3 191.7 60.5Q191.3 59.8 191.3 58.8L191.3 58.8Q191.3 57.7 191.7 57.0Q192.1 56.2 192.8 55.8Q193.5 55.4 194.5 55.4L194.5 55.4Q195.1 55.4 195.6 55.5Q196.0 55.7 196.4 56.0Q196.8 56.2 197.1 56.6Q197.3 57.0 197.4 57.5L197.4 57.5L195.8 57.9Q195.7 57.6 195.6 57.4Q195.5 57.2 195.3 57.0Q195.2 56.9 195.0 56.8Q194.8 56.8 194.5 56.8L194.5 56.8Q194.0 56.8 193.7 57.0Q193.4 57.3 193.2 57.7Q193.1 58.2 193.1 58.7L193.1 58.7Q193.1 59.3 193.2 59.8Q193.4 60.2 193.7 60.5Q194.0 60.7 194.5 60.7L194.5 60.7Q194.8 60.7 195.0 60.7Q195.2 60.6 195.3 60.4Q195.5 60.3 195.6 60.1Q195.7 59.9 195.8 59.6L195.8 59.6L197.4 59.9Q197.3 60.4 197.1 60.8Q196.8 61.2 196.4 61.5Q196.1 61.8 195.6 62.0Q195.1 62.1 194.5 62.1ZM200.4 62L198.6 62L198.6 55.4L200.3 55.4L200.3 56.6L200.4 56.6Q200.6 56.0 201.0 55.7Q201.4 55.4 202.0 55.4L202.0 55.4Q202.1 55.4 202.3 55.4Q202.4 55.4 202.5 55.4L202.5 55.4L202.5 57.0Q202.4 56.9 202.2 56.9Q202.0 56.9 201.8 56.9L201.8 56.9Q201.4 56.9 201.1 57.1Q200.7 57.2 200.6 57.6Q200.4 57.9 200.4 58.3L200.4 58.3L200.4 62ZM205.3 62L203.5 62L203.5 55.4L205.3 55.4L205.3 62ZM204.4 54.6L204.4 54.6Q204.0 54.6 203.7 54.3Q203.4 54.1 203.4 53.7L203.4 53.7Q203.4 53.3 203.7 53.1Q204.0 52.8 204.4 52.8L204.4 52.8Q204.8 52.8 205.1 53.0Q205.3 53.3 205.3 53.7L205.3 53.7Q205.3 54.1 205.1 54.3Q204.8 54.6 204.4 54.6ZM208.5 64.4L206.8 64.4L206.8 55.4L208.5 55.4L208.5 56.6L208.6 56.6Q208.7 56.3 208.9 56.0Q209.1 55.7 209.5 55.6Q209.9 55.4 210.4 55.4L210.4 55.4Q211.2 55.4 211.8 55.7Q212.4 56.1 212.7 56.9Q213.1 57.6 213.1 58.7L213.1 58.7Q213.1 59.8 212.7 60.6Q212.4 61.3 211.8 61.7Q211.2 62.1 210.4 62.1L210.4 62.1Q209.9 62.1 209.5 61.9Q209.2 61.7 208.9 61.5Q208.7 61.2 208.6 61.0L208.6 61.0L208.5 61.0L208.5 64.4ZM209.9 60.7L209.9 60.7Q210.3 60.7 210.7 60.4Q211.0 60.2 211.1 59.8Q211.3 59.3 211.3 58.7L211.3 58.7Q211.3 58.2 211.1 57.7Q211.0 57.3 210.7 57.0Q210.3 56.8 209.9 56.8L209.9 56.8Q209.4 56.8 209.1 57.0Q208.8 57.3 208.6 57.7Q208.5 58.1 208.5 58.7L208.5 58.7Q208.5 59.3 208.6 59.8Q208.8 60.2 209.1 60.5Q209.4 60.7 209.9 60.7ZM216.3 55.4L217.6 55.4L217.6 56.8L216.3 56.8L216.3 60.1Q216.3 60.4 216.5 60.5Q216.6 60.7 216.9 60.7L216.9 60.7Q217.0 60.7 217.2 60.7Q217.4 60.6 217.5 60.6L217.5 60.6L217.8 61.9Q217.5 62.0 217.2 62.1Q216.9 62.1 216.6 62.1L216.6 62.1Q215.6 62.1 215.1 61.6Q214.6 61.1 214.6 60.2L214.6 60.2L214.6 56.8L213.7 56.8L213.7 55.4L214.6 55.4L214.6 53.9L216.3 53.9L216.3 55.4Z "/></g><defs><clipPath id="satori_bc-id-2-0-1-1" clip-path="url(#satori_cp-id)"><path x="239" y="45" width="70" height="25" d="M245,45 h58 a6,6 0 0 1 6,6 v13 a6,6 0 0 1 -6,6 h-58 a6,6 0 0 1 -6,-6 v-13 a6,6 0 0 1 6,-6"/></clipPath></defs><mask id="satori_om-id-2-0-1-1"><rect x="240" y="46" width="68" height="23" fill="#fff" mask="url(#satori_om-id)"/><path width="70" height="25" fill="none" stroke="#000" stroke-width="2" d="M240.757,46.757 A6,6 0 0 1 245,45 h58 a6,6 0 0 1 6,6 v13 a6,6 0 0 1 -6,6 h-58 a6,6 0 0 1 -6,-6 v-13 A6,6 0 0 1 240.757,46.757"/></mask><path x="239" y="45" width="70" height="25" fill="#a78bfa15" d="M245,45 h58 a6,6 0 0 1 6,6 v13 a6,6 0 0 1 -6,6 h-58 a6,6 0 0 1 -6,-6 v-13 a6,6 0 0 1 6,-6" clip-path="url(#satori_cp-id)" mask="url(#satori_om-id)"/><path width="70" height="25" clip-path="url(#satori_bc-id-2-0-1-1)" fill="none" stroke="#a78bfa35" stroke-width="2" d="M240.757,46.757 A6,6 0 0 1 245,45 h58 a6,6 0 0 1 6,6 v13 a6,6 0 0 1 -6,6 h-58 a6,6 0 0 1 -6,-6 v-13 A6,6 0 0 1 240.757,46.757"/><g mask="url(#satori_om-id)" clip-path="url(#satori_cp-id)"><path fill="rgba(225,220,255,0.85)" d="M255.6 62L253.8 62L253.8 53.3L257.2 53.3Q258.2 53.3 258.9 53.6Q259.6 54.0 260.0 54.7Q260.3 55.4 260.3 56.2L260.3 56.2Q260.3 57.1 259.9 57.7Q259.6 58.4 258.9 58.8Q258.2 59.1 257.2 59.1L257.2 59.1L255.6 59.1L255.6 62ZM255.6 54.7L255.6 57.7L256.9 57.7Q257.4 57.7 257.8 57.5Q258.1 57.3 258.3 57.0Q258.5 56.7 258.5 56.2Q258.5 55.8 258.3 55.4Q258.1 55.1 257.8 54.9Q257.4 54.7 256.9 54.7L256.9 54.7L255.6 54.7ZM261.5 64.3L261.5 64.3L261.9 63.0L262.1 63.0Q262.5 63.1 262.7 63.1Q263.0 63.1 263.2 62.9Q263.3 62.7 263.4 62.4L263.4 62.4L263.4 62.0L261.0 55.4L262.8 55.4L263.9 58.8Q264.1 59.5 264.3 60.1L264.3 60.1Q264.3 60.4 264.3 60.6L264.3 60.6Q264.4 60.4 264.4 60.1L264.4 60.1Q264.6 59.5 264.8 58.8L264.8 58.8L266.0 55.4L267.8 55.4L265.0 62.8Q264.8 63.3 264.5 63.7Q264.2 64.1 263.7 64.3Q263.3 64.5 262.6 64.5L262.6 64.5Q262.3 64.5 262.0 64.4Q261.7 64.4 261.5 64.3ZM270.8 55.4L272.0 55.4L272.0 56.8L270.8 56.8L270.8 60.1Q270.8 60.4 270.9 60.5Q271.1 60.7 271.4 60.7L271.4 60.7Q271.5 60.7 271.7 60.7Q271.8 60.6 271.9 60.6L271.9 60.6L272.2 61.9Q271.9 62.0 271.6 62.1Q271.3 62.1 271.0 62.1L271.0 62.1Q270.1 62.1 269.5 61.6Q269.0 61.1 269.0 60.2L269.0 60.2L269.0 56.8L268.1 56.8L268.1 55.4L269.0 55.4L269.0 53.9L270.8 53.9L270.8 55.4ZM274.9 58.2L274.9 58.2L274.9 62L273.1 62L273.1 53.3L274.9 53.3L274.9 56.7Q275.1 56.2 275.5 55.8L275.5 55.8Q276.0 55.4 276.9 55.4L276.9 55.4Q277.5 55.4 278.1 55.7Q278.6 56.0 278.8 56.5Q279.1 57.1 279.1 57.8L279.1 57.8L279.1 62L277.4 62L277.4 58.1Q277.4 57.5 277.0 57.2Q276.7 56.8 276.2 56.8L276.2 56.8Q275.8 56.8 275.5 57.0Q275.2 57.2 275.1 57.5Q274.9 57.8 274.9 58.2ZM283.5 62.1L283.5 62.1Q282.6 62.1 281.8 61.7Q281.1 61.3 280.7 60.5Q280.3 59.8 280.3 58.8L280.3 58.8Q280.3 57.7 280.7 57.0Q281.1 56.2 281.8 55.8Q282.6 55.4 283.5 55.4L283.5 55.4Q284.5 55.4 285.3 55.8Q286.0 56.2 286.4 57.0Q286.8 57.7 286.8 58.8L286.8 58.8Q286.8 59.8 286.4 60.5Q286.0 61.3 285.3 61.7Q284.5 62.1 283.5 62.1ZM283.5 60.7L283.5 60.7Q284.0 60.7 284.3 60.5Q284.6 60.2 284.8 59.8Q285.0 59.3 285.0 58.7L285.0 58.7Q285.0 58.2 284.8 57.7Q284.6 57.3 284.3 57.0Q284.0 56.8 283.5 56.8L283.5 56.8Q283.1 56.8 282.8 57.0Q282.4 57.3 282.3 57.7Q282.1 58.2 282.1 58.7L282.1 58.7Q282.1 59.3 282.3 59.8Q282.4 60.2 282.8 60.5Q283.1 60.7 283.5 60.7ZM289.7 58.2L289.7 58.2L289.7 62L288.0 62L288.0 55.4L289.6 55.4L289.7 56.8Q289.9 56.2 290.3 55.8L290.3 55.8Q290.9 55.4 291.7 55.4L291.7 55.4Q292.4 55.4 292.9 55.7Q293.4 56.0 293.7 56.5Q293.9 57.1 293.9 57.8L293.9 57.8L293.9 62L292.2 62L292.2 58.1Q292.2 57.5 291.9 57.2Q291.6 56.8 291.0 56.8L291.0 56.8Q290.6 56.8 290.3 57.0Q290.1 57.2 289.9 57.5Q289.7 57.8 289.7 58.2Z "/></g><defs><clipPath id="satori_bc-id-2-0-1-2" clip-path="url(#satori_cp-id)"><path x="316" y="45" width="134" height="25" d="M322,45 h122 a6,6 0 0 1 6,6 v13 a6,6 0 0 1 -6,6 h-122 a6,6 0 0 1 -6,-6 v-13 a6,6 0 0 1 6,-6"/></clipPath></defs><mask id="satori_om-id-2-0-1-2"><rect x="317" y="46" width="132" height="23" fill="#fff" mask="url(#satori_om-id)"/><path width="134" height="25" fill="none" stroke="#000" stroke-width="2" d="M317.757,46.757 A6,6 0 0 1 322,45 h122 a6,6 0 0 1 6,6 v13 a6,6 0 0 1 -6,6 h-122 a6,6 0 0 1 -6,-6 v-13 A6,6 0 0 1 317.757,46.757"/></mask><path x="316" y="45" width="134" height="25" fill="#a78bfa15" d="M322,45 h122 a6,6 0 0 1 6,6 v13 a6,6 0 0 1 -6,6 h-122 a6,6 0 0 1 -6,-6 v-13 a6,6 0 0 1 6,-6" clip-path="url(#satori_cp-id)" mask="url(#satori_om-id)"/><path width="134" height="25" clip-path="url(#satori_bc-id-2-0-1-2)" fill="none" stroke="#a78bfa35" stroke-width="2" d="M317.757,46.757 A6,6 0 0 1 322,45 h122 a6,6 0 0 1 6,6 v13 a6,6 0 0 1 -6,6 h-122 a6,6 0 0 1 -6,-6 v-13 A6,6 0 0 1 317.757,46.757"/><g mask="url(#satori_om-id)" clip-path="url(#satori_cp-id)"><path fill="rgba(225,220,255,0.85)" d="M333.3 62.1L333.3 62.1Q332.0 62.1 331.2 61.4Q330.4 60.7 330.4 59.4L330.4 59.4L330.4 58.9L332.2 58.9L332.2 59.4Q332.2 60.0 332.5 60.4Q332.8 60.7 333.3 60.7L333.3 60.7Q333.8 60.7 334.1 60.4Q334.5 60.0 334.5 59.4L334.5 59.4L334.5 53.3L336.2 53.3L336.2 59.4Q336.2 60.7 335.4 61.4Q334.7 62.1 333.3 62.1ZM340.0 62.1L340.0 62.1Q339.3 62.1 338.8 61.8Q338.3 61.5 338.0 60.9Q337.8 60.4 337.8 59.6L337.8 59.6L337.8 55.4L339.5 55.4L339.5 59.3Q339.5 59.9 339.8 60.3Q340.2 60.6 340.7 60.6L340.7 60.6Q341.1 60.6 341.4 60.5Q341.7 60.3 341.8 60.0Q342.0 59.7 342.0 59.2L342.0 59.2L342.0 55.4L343.7 55.4L343.7 62L342.1 62L342.1 60.6Q341.8 61.3 341.4 61.6L341.4 61.6Q340.8 62.1 340.0 62.1ZM347.0 64.4L345.2 64.4L345.2 55.4L347.0 55.4L347.0 56.6L347.0 56.6Q347.2 56.3 347.4 56.0Q347.6 55.7 348.0 55.6Q348.4 55.4 348.9 55.4L348.9 55.4Q349.6 55.4 350.2 55.7Q350.8 56.1 351.2 56.9Q351.6 57.6 351.6 58.7L351.6 58.7Q351.6 59.8 351.2 60.6Q350.9 61.3 350.3 61.7Q349.7 62.1 348.9 62.1L348.9 62.1Q348.4 62.1 348 61.9Q347.6 61.7 347.4 61.5Q347.2 61.2 347.0 61.0L347.0 61.0L347.0 61.0L347.0 64.4ZM348.4 60.7L348.4 60.7Q348.8 60.7 349.1 60.4Q349.4 60.2 349.6 59.8Q349.8 59.3 349.8 58.7L349.8 58.7Q349.8 58.2 349.6 57.7Q349.4 57.3 349.1 57.0Q348.8 56.8 348.4 56.8L348.4 56.8Q347.9 56.8 347.6 57.0Q347.3 57.3 347.1 57.7Q347.0 58.1 347.0 58.7L347.0 58.7Q347.0 59.3 347.1 59.8Q347.3 60.2 347.6 60.5Q347.9 60.7 348.4 60.7ZM352.8 64.3L352.8 64.3L353.2 63.0L353.4 63.0Q353.7 63.1 354 63.1Q354.3 63.1 354.4 62.9Q354.6 62.7 354.6 62.4L354.6 62.4L354.7 62.0L352.2 55.4L354.1 55.4L355.2 58.8Q355.4 59.5 355.5 60.1L355.5 60.1Q355.6 60.4 355.6 60.6L355.6 60.6Q355.7 60.4 355.7 60.1L355.7 60.1Q355.9 59.5 356.1 58.8L356.1 58.8L357.2 55.4L359.1 55.4L356.3 62.8Q356.1 63.3 355.8 63.7Q355.5 64.1 355.0 64.3Q354.6 64.5 353.9 64.5L353.9 64.5Q353.5 64.5 353.2 64.4Q352.9 64.4 352.8 64.3ZM362.1 55.4L363.3 55.4L363.3 56.8L362.1 56.8L362.1 60.1Q362.1 60.4 362.2 60.5Q362.3 60.7 362.6 60.7L362.6 60.7Q362.7 60.7 362.9 60.7Q363.1 60.6 363.2 60.6L363.2 60.6L363.5 61.9Q363.2 62.0 362.9 62.1Q362.6 62.1 362.3 62.1L362.3 62.1Q361.3 62.1 360.8 61.6Q360.3 61.1 360.3 60.2L360.3 60.2L360.3 56.8L359.4 56.8L359.4 55.4L360.3 55.4L360.3 53.9L362.1 53.9L362.1 55.4ZM367.4 62.1L367.4 62.1Q366.4 62.1 365.6 61.7Q364.9 61.3 364.5 60.6Q364.1 59.8 364.1 58.8L364.1 58.8Q364.1 57.7 364.5 57.0Q364.9 56.2 365.6 55.8Q366.3 55.4 367.3 55.4L367.3 55.4Q367.9 55.4 368.5 55.6Q369.0 55.8 369.5 56.2Q369.9 56.6 370.1 57.2Q370.4 57.8 370.4 58.7L370.4 58.7L370.4 59.2L365.9 59.2Q365.9 59.7 366.1 60.0L366.1 60.0Q366.3 60.4 366.6 60.6Q366.9 60.8 367.4 60.8L367.4 60.8Q367.7 60.8 368.0 60.7Q368.2 60.6 368.4 60.5Q368.6 60.3 368.7 60.0L368.7 60.0L370.3 60.3Q370.1 60.9 369.7 61.3Q369.3 61.7 368.7 61.9Q368.1 62.1 367.4 62.1ZM365.9 58.1L365.9 58.1L368.7 58.1Q368.6 57.8 368.5 57.5L368.5 57.5Q368.4 57.1 368.1 56.9Q367.8 56.7 367.3 56.7L367.3 56.7Q366.8 56.7 366.5 56.9Q366.2 57.1 366.0 57.5L366.0 57.5Q365.9 57.7 365.9 58.1ZM373.3 62L371.6 62L371.6 55.4L373.3 55.4L373.3 56.6L373.3 56.6Q373.5 56.0 373.9 55.7Q374.4 55.4 374.9 55.4L374.9 55.4Q375.1 55.4 375.2 55.4Q375.4 55.4 375.5 55.4L375.5 55.4L375.5 57.0Q375.4 56.9 375.1 56.9Q374.9 56.9 374.7 56.9L374.7 56.9Q374.3 56.9 374.0 57.1Q373.7 57.2 373.5 57.6Q373.3 57.9 373.3 58.3L373.3 58.3L373.3 62Z M381.2 62L379.3 62L379.3 53.3L381.3 53.3L384.1 57.7Q384.3 58.0 384.5 58.4Q384.7 58.8 385.0 59.3L385.0 59.3Q385.1 59.6 385.2 59.8L385.2 59.8Q385.2 59.6 385.2 59.4L385.2 59.4Q385.1 58.8 385.1 58.3Q385.1 57.8 385.1 57.5L385.1 57.5L385.1 53.3L386.9 53.3L386.9 62L384.9 62L382.4 58.0Q382.1 57.5 381.9 57.1Q381.7 56.7 381.4 56.2L381.4 56.2Q381.2 55.9 381.0 55.5L381.0 55.5Q381.1 55.8 381.1 56.2L381.1 56.2Q381.1 56.7 381.1 57.2Q381.2 57.7 381.2 58.0L381.2 58.0L381.2 62ZM391.4 62.1L391.4 62.1Q390.4 62.1 389.7 61.7Q388.9 61.3 388.6 60.5Q388.2 59.8 388.2 58.8L388.2 58.8Q388.2 57.7 388.6 57.0Q388.9 56.2 389.7 55.8Q390.4 55.4 391.4 55.4L391.4 55.4Q392.4 55.4 393.1 55.8Q393.8 56.2 394.2 57.0Q394.6 57.7 394.6 58.8L394.6 58.8Q394.6 59.8 394.2 60.5Q393.8 61.3 393.1 61.7Q392.4 62.1 391.4 62.1ZM391.4 60.7L391.4 60.7Q391.8 60.7 392.2 60.5Q392.5 60.2 392.6 59.8Q392.8 59.3 392.8 58.7L392.8 58.7Q392.8 58.2 392.6 57.7Q392.5 57.3 392.2 57.0Q391.8 56.8 391.4 56.8L391.4 56.8Q390.9 56.8 390.6 57.0Q390.3 57.3 390.1 57.7Q390.0 58.2 390.0 58.7L390.0 58.7Q390.0 59.3 390.1 59.8Q390.3 60.2 390.6 60.5Q390.9 60.7 391.4 60.7ZM397.8 55.4L399.1 55.4L399.1 56.8L397.8 56.8L397.8 60.1Q397.8 60.4 398.0 60.5Q398.1 60.7 398.4 60.7L398.4 60.7Q398.5 60.7 398.7 60.7Q398.9 60.6 399.0 60.6L399.0 60.6L399.2 61.9Q398.9 62.0 398.7 62.1Q398.4 62.1 398.1 62.1L398.1 62.1Q397.1 62.1 396.6 61.6Q396.1 61.1 396.1 60.2L396.1 60.2L396.1 56.8L395.2 56.8L395.2 55.4L396.1 55.4L396.1 53.9L397.8 53.9L397.8 55.4ZM403.2 62.1L403.2 62.1Q402.2 62.1 401.4 61.7Q400.7 61.3 400.3 60.6Q399.9 59.8 399.9 58.8L399.9 58.8Q399.9 57.7 400.3 57.0Q400.7 56.2 401.4 55.8Q402.1 55.4 403.1 55.4L403.1 55.4Q403.7 55.4 404.3 55.6Q404.8 55.8 405.2 56.2Q405.7 56.6 405.9 57.2Q406.1 57.8 406.1 58.7L406.1 58.7L406.1 59.2L401.7 59.2Q401.7 59.7 401.9 60.0L401.9 60.0Q402.0 60.4 402.4 60.6Q402.7 60.8 403.2 60.8L403.2 60.8Q403.5 60.8 403.7 60.7Q404.0 60.6 404.2 60.5Q404.4 60.3 404.4 60.0L404.4 60.0L406.0 60.3Q405.9 60.9 405.5 61.3Q405.1 61.7 404.5 61.9Q403.9 62.1 403.2 62.1ZM401.7 58.1L401.7 58.1L404.4 58.1Q404.4 57.8 404.3 57.5L404.3 57.5Q404.2 57.1 403.8 56.9Q403.5 56.7 403.1 56.7L403.1 56.7Q402.6 56.7 402.3 56.9Q402.0 57.1 401.8 57.5L401.8 57.5Q401.7 57.7 401.7 58.1ZM411.0 62.1L411.0 62.1Q410.5 62.1 410.1 61.9Q409.7 61.7 409.5 61.5Q409.3 61.2 409.2 61.0L409.2 61.0L409.1 61.0L409.1 62L407.3 62L407.3 53.3L409.1 53.3L409.1 56.6L409.2 56.6Q409.3 56.3 409.5 56.0Q409.7 55.7 410.1 55.6Q410.5 55.4 411.0 55.4L411.0 55.4Q411.8 55.4 412.4 55.7Q413.0 56.1 413.3 56.9Q413.7 57.6 413.7 58.7L413.7 58.7Q413.7 59.8 413.3 60.6Q413.0 61.3 412.4 61.7Q411.8 62.1 411.0 62.1ZM410.5 60.7L410.5 60.7Q410.9 60.7 411.2 60.4Q411.6 60.2 411.7 59.8Q411.9 59.3 411.9 58.7L411.9 58.7Q411.9 58.2 411.7 57.7Q411.6 57.3 411.2 57.0Q410.9 56.8 410.5 56.8L410.5 56.8Q410.0 56.8 409.7 57.0Q409.4 57.3 409.2 57.7Q409.1 58.1 409.1 58.7L409.1 58.7Q409.1 59.3 409.2 59.8Q409.4 60.2 409.7 60.5Q410.0 60.7 410.5 60.7ZM417.8 62.1L417.8 62.1Q416.9 62.1 416.1 61.7Q415.4 61.3 415.0 60.5Q414.6 59.8 414.6 58.8L414.6 58.8Q414.6 57.7 415.0 57.0Q415.4 56.2 416.1 55.8Q416.9 55.4 417.8 55.4L417.8 55.4Q418.8 55.4 419.5 55.8Q420.3 56.2 420.7 57.0Q421.0 57.7 421.0 58.8L421.0 58.8Q421.0 59.8 420.7 60.5Q420.3 61.3 419.5 61.7Q418.8 62.1 417.8 62.1ZM417.8 60.7L417.8 60.7Q418.3 60.7 418.6 60.5Q418.9 60.2 419.1 59.8Q419.3 59.3 419.3 58.7L419.3 58.7Q419.3 58.2 419.1 57.7Q418.9 57.3 418.6 57.0Q418.3 56.8 417.8 56.8L417.8 56.8Q417.4 56.8 417.1 57.0Q416.7 57.3 416.6 57.7Q416.4 58.2 416.4 58.7L416.4 58.7Q416.4 59.3 416.6 59.8Q416.7 60.2 417.1 60.5Q417.4 60.7 417.8 60.7ZM425.2 62.1L425.2 62.1Q424.2 62.1 423.5 61.7Q422.8 61.3 422.4 60.5Q422.0 59.8 422.0 58.8L422.0 58.8Q422.0 57.7 422.4 57.0Q422.8 56.2 423.5 55.8Q424.2 55.4 425.2 55.4L425.2 55.4Q426.2 55.4 426.9 55.8Q427.6 56.2 428.0 57.0Q428.4 57.7 428.4 58.8L428.4 58.8Q428.4 59.8 428.0 60.5Q427.6 61.3 426.9 61.7Q426.2 62.1 425.2 62.1ZM425.2 60.7L425.2 60.7Q425.7 60.7 426.0 60.5Q426.3 60.2 426.5 59.8Q426.6 59.3 426.6 58.7L426.6 58.7Q426.6 58.2 426.5 57.7Q426.3 57.3 426.0 57.0Q425.7 56.8 425.2 56.8L425.2 56.8Q424.7 56.8 424.4 57.0Q424.1 57.3 423.9 57.7Q423.8 58.2 423.8 58.7L423.8 58.7Q423.8 59.3 423.9 59.8Q424.1 60.2 424.4 60.5Q424.7 60.7 425.2 60.7ZM431.4 62L429.6 62L429.6 53.3L431.4 53.3L431.4 58.0L431.5 58.0L433.6 55.4L435.7 55.4L433.2 58.3L435.8 62L433.7 62L431.9 59.3L431.4 59.9L431.4 62Z "/></g><defs><clipPath id="satori_bc-id-2-0-1-3" clip-path="url(#satori_cp-id)"><path x="457" y="45" width="92" height="25" d="M463,45 h80 a6,6 0 0 1 6,6 v13 a6,6 0 0 1 -6,6 h-80 a6,6 0 0 1 -6,-6 v-13 a6,6 0 0 1 6,-6"/></clipPath></defs><mask id="satori_om-id-2-0-1-3"><rect x="458" y="46" width="90" height="23" fill="#fff" mask="url(#satori_om-id)"/><path width="92" height="25" fill="none" stroke="#000" stroke-width="2" d="M458.757,46.757 A6,6 0 0 1 463,45 h80 a6,6 0 0 1 6,6 v13 a6,6 0 0 1 -6,6 h-80 a6,6 0 0 1 -6,-6 v-13 A6,6 0 0 1 458.757,46.757"/></mask><path x="457" y="45" width="92" height="25" fill="#a78bfa15" d="M463,45 h80 a6,6 0 0 1 6,6 v13 a6,6 0 0 1 -6,6 h-80 a6,6 0 0 1 -6,-6 v-13 a6,6 0 0 1 6,-6" clip-path="url(#satori_cp-id)" mask="url(#satori_om-id)"/><path width="92" height="25" clip-path="url(#satori_bc-id-2-0-1-3)" fill="none" stroke="#a78bfa35" stroke-width="2" d="M458.757,46.757 A6,6 0 0 1 463,45 h80 a6,6 0 0 1 6,6 v13 a6,6 0 0 1 -6,6 h-80 a6,6 0 0 1 -6,-6 v-13 A6,6 0 0 1 458.757,46.757"/><g mask="url(#satori_om-id)" clip-path="url(#satori_cp-id)"><path fill="rgba(225,220,255,0.85)" d="M474.3 62.1L474.3 62.1Q473.0 62.1 472.2 61.4Q471.4 60.7 471.4 59.4L471.4 59.4L471.4 58.9L473.2 58.9L473.2 59.4Q473.2 60.0 473.5 60.4Q473.8 60.7 474.3 60.7L474.3 60.7Q474.8 60.7 475.1 60.4Q475.5 60.0 475.5 59.4L475.5 59.4L475.5 53.3L477.2 53.3L477.2 59.4Q477.2 60.7 476.4 61.4Q475.7 62.1 474.3 62.1ZM480.6 62.1L480.6 62.1Q480.0 62.1 479.5 61.9Q479.0 61.7 478.7 61.3Q478.4 60.8 478.4 60.2L478.4 60.2Q478.4 59.6 478.6 59.3Q478.8 58.9 479.2 58.7Q479.5 58.4 480.0 58.3Q480.4 58.2 480.9 58.2L480.9 58.2Q481.5 58.1 481.8 58.0Q482.2 58.0 482.3 57.9Q482.5 57.8 482.5 57.6L482.5 57.6L482.5 57.5Q482.5 57.3 482.4 57.1Q482.2 56.9 482.0 56.8Q481.8 56.7 481.4 56.7L481.4 56.7Q481.1 56.7 480.9 56.8Q480.6 56.9 480.4 57.0Q480.3 57.2 480.2 57.4L480.2 57.4L478.6 57.2Q478.8 56.6 479.2 56.2Q479.6 55.8 480.1 55.6Q480.7 55.4 481.5 55.4L481.5 55.4Q482.0 55.4 482.5 55.5Q483.0 55.6 483.4 55.9Q483.8 56.1 484.0 56.6Q484.2 57.0 484.2 57.6L484.2 57.6L484.2 62L482.6 62L482.6 61.1L482.5 61.1Q482.3 61.4 482.1 61.6Q481.8 61.9 481.5 62.0Q481.1 62.1 480.6 62.1ZM481.1 60.9L481.1 60.9Q481.5 60.9 481.8 60.7Q482.1 60.6 482.3 60.3Q482.5 60.0 482.5 59.7L482.5 59.7L482.5 58.9Q482.4 59.0 482.3 59.1Q482.1 59.1 481.9 59.1Q481.7 59.2 481.5 59.2Q481.3 59.2 481.2 59.2L481.2 59.2Q480.9 59.3 480.6 59.4Q480.4 59.5 480.2 59.7Q480.1 59.8 480.1 60.1L480.1 60.1Q480.1 60.4 480.2 60.5Q480.4 60.7 480.6 60.8Q480.8 60.9 481.1 60.9ZM489.6 62L487.6 62L485.2 55.4L487.0 55.4L488.1 58.8Q488.3 59.5 488.5 60.1L488.5 60.1Q488.5 60.4 488.6 60.6L488.6 60.6Q488.7 60.4 488.7 60.1L488.7 60.1Q488.9 59.5 489.1 58.8L489.1 58.8L490.1 55.4L492.0 55.4L489.6 62ZM494.8 62.1L494.8 62.1Q494.1 62.1 493.6 61.9Q493.1 61.7 492.9 61.3Q492.6 60.8 492.6 60.2L492.6 60.2Q492.6 59.6 492.8 59.3Q493.0 58.9 493.3 58.7Q493.7 58.4 494.1 58.3Q494.6 58.2 495.0 58.2L495.0 58.2Q495.6 58.1 496.0 58.0Q496.3 58.0 496.5 57.9Q496.6 57.8 496.6 57.6L496.6 57.6L496.6 57.5Q496.6 57.3 496.5 57.1Q496.4 56.9 496.2 56.8Q495.9 56.7 495.6 56.7L495.6 56.7Q495.3 56.7 495.0 56.8Q494.8 56.9 494.6 57.0Q494.4 57.2 494.4 57.4L494.4 57.4L492.8 57.2Q492.9 56.6 493.3 56.2Q493.7 55.8 494.3 55.6Q494.9 55.4 495.6 55.4L495.6 55.4Q496.1 55.4 496.6 55.5Q497.1 55.6 497.5 55.9Q497.9 56.1 498.2 56.6Q498.4 57.0 498.4 57.6L498.4 57.6L498.4 62L496.7 62L496.7 61.1L496.7 61.1Q496.5 61.4 496.2 61.6Q496.0 61.9 495.6 62.0Q495.2 62.1 494.8 62.1ZM495.3 60.9L495.3 60.9Q495.7 60.9 496.0 60.7Q496.3 60.6 496.5 60.3Q496.6 60.0 496.6 59.7L496.6 59.7L496.6 58.9Q496.6 59.0 496.4 59.1Q496.3 59.1 496.1 59.1Q495.9 59.2 495.7 59.2Q495.5 59.2 495.3 59.2L495.3 59.2Q495.0 59.3 494.8 59.4Q494.5 59.5 494.4 59.7Q494.3 59.8 494.3 60.1L494.3 60.1Q494.3 60.4 494.4 60.5Q494.5 60.7 494.7 60.8Q495.0 60.9 495.3 60.9ZM503.1 62.1L503.1 62.1Q502.1 62.1 501.3 61.8Q500.5 61.5 500.1 60.9Q499.7 60.2 499.6 59.3L499.6 59.3L501.4 59.3Q501.4 59.7 501.6 60.0Q501.9 60.3 502.3 60.5Q502.6 60.6 503.1 60.6L503.1 60.6Q503.6 60.6 504.0 60.5Q504.3 60.3 504.5 60.1Q504.7 59.8 504.7 59.5L504.7 59.5Q504.7 59.2 504.5 59.0Q504.3 58.8 504.0 58.7Q503.7 58.5 503.2 58.4L503.2 58.4L502.2 58.2Q501.1 57.9 500.5 57.3Q499.9 56.7 499.9 55.8L499.9 55.8Q499.9 55.0 500.3 54.4Q500.7 53.8 501.5 53.5Q502.2 53.2 503.2 53.2L503.2 53.2Q504.1 53.2 504.8 53.5Q505.6 53.8 506.0 54.4Q506.4 55.0 506.4 55.8L506.4 55.8L504.7 55.8Q504.6 55.2 504.2 54.9Q503.8 54.7 503.1 54.7L503.1 54.7Q502.7 54.7 502.4 54.8Q502.0 54.9 501.9 55.1Q501.7 55.4 501.7 55.7L501.7 55.7Q501.7 56.0 501.9 56.2Q502.1 56.4 502.4 56.5Q502.7 56.7 503.1 56.8L503.1 56.8L503.9 57.0Q504.4 57.1 504.9 57.3Q505.4 57.5 505.8 57.8Q506.1 58.1 506.3 58.5Q506.5 59.0 506.5 59.5L506.5 59.5Q506.5 60.3 506.1 60.9Q505.7 61.5 504.9 61.8Q504.2 62.1 503.1 62.1ZM510.7 62.1L510.7 62.1Q509.7 62.1 509.0 61.7Q508.3 61.3 507.9 60.5Q507.5 59.8 507.5 58.8L507.5 58.8Q507.5 57.7 507.9 57.0Q508.3 56.2 509.0 55.8Q509.7 55.4 510.7 55.4L510.7 55.4Q511.3 55.4 511.8 55.5Q512.2 55.7 512.6 56.0Q513.0 56.2 513.3 56.6Q513.5 57.0 513.6 57.5L513.6 57.5L512.0 57.9Q511.9 57.6 511.8 57.4Q511.7 57.2 511.5 57.0Q511.4 56.9 511.2 56.8Q510.9 56.8 510.7 56.8L510.7 56.8Q510.2 56.8 509.9 57.0Q509.6 57.3 509.4 57.7Q509.3 58.2 509.3 58.7L509.3 58.7Q509.3 59.3 509.4 59.8Q509.6 60.2 509.9 60.5Q510.2 60.7 510.7 60.7L510.7 60.7Q510.9 60.7 511.2 60.7Q511.4 60.6 511.5 60.4Q511.7 60.3 511.8 60.1Q511.9 59.9 512.0 59.6L512.0 59.6L513.6 59.9Q513.5 60.4 513.3 60.8Q513.0 61.2 512.6 61.5Q512.3 61.8 511.8 62.0Q511.3 62.1 510.7 62.1ZM516.6 62L514.8 62L514.8 55.4L516.5 55.4L516.5 56.6L516.6 56.6Q516.8 56.0 517.2 55.7Q517.6 55.4 518.2 55.4L518.2 55.4Q518.3 55.4 518.5 55.4Q518.6 55.4 518.7 55.4L518.7 55.4L518.7 57.0Q518.6 56.9 518.4 56.9Q518.2 56.9 518.0 56.9L518.0 56.9Q517.6 56.9 517.2 57.1Q516.9 57.2 516.7 57.6Q516.6 57.9 516.6 58.3L516.6 58.3L516.6 62ZM521.5 62L519.7 62L519.7 55.4L521.5 55.4L521.5 62ZM520.6 54.6L520.6 54.6Q520.2 54.6 519.9 54.3Q519.6 54.1 519.6 53.7L519.6 53.7Q519.6 53.3 519.9 53.1Q520.2 52.8 520.6 52.8L520.6 52.8Q521.0 52.8 521.3 53.0Q521.5 53.3 521.5 53.7L521.5 53.7Q521.5 54.1 521.3 54.3Q521.0 54.6 520.6 54.6ZM524.7 64.4L522.9 64.4L522.9 55.4L524.7 55.4L524.7 56.6L524.8 56.6Q524.9 56.3 525.1 56.0Q525.3 55.7 525.7 55.6Q526.1 55.4 526.6 55.4L526.6 55.4Q527.4 55.4 528.0 55.7Q528.6 56.1 528.9 56.9Q529.3 57.6 529.3 58.7L529.3 58.7Q529.3 59.8 528.9 60.6Q528.6 61.3 528.0 61.7Q527.4 62.1 526.6 62.1L526.6 62.1Q526.1 62.1 525.7 61.9Q525.3 61.7 525.1 61.5Q524.9 61.2 524.8 61.0L524.8 61.0L524.7 61.0L524.7 64.4ZM526.1 60.7L526.1 60.7Q526.5 60.7 526.8 60.4Q527.2 60.2 527.3 59.8Q527.5 59.3 527.5 58.7L527.5 58.7Q527.5 58.2 527.3 57.7Q527.2 57.3 526.9 57.0Q526.5 56.8 526.1 56.8L526.1 56.8Q525.6 56.8 525.3 57.0Q525.0 57.3 524.8 57.7Q524.7 58.1 524.7 58.7L524.7 58.7Q524.7 59.3 524.8 59.8Q525 60.2 525.3 60.5Q525.6 60.7 526.1 60.7ZM532.5 55.4L533.8 55.4L533.8 56.8L532.5 56.8L532.5 60.1Q532.5 60.4 532.7 60.5Q532.8 60.7 533.1 60.7L533.1 60.7Q533.2 60.7 533.4 60.7Q533.6 60.6 533.7 60.6L533.7 60.6L533.9 61.9Q533.7 62.0 533.4 62.1Q533.1 62.1 532.8 62.1L532.8 62.1Q531.8 62.1 531.3 61.6Q530.8 61.1 530.8 60.2L530.8 60.2L530.8 56.8L529.9 56.8L529.9 55.4L530.8 55.4L530.8 53.9L532.5 53.9L532.5 55.4Z "/></g><defs><clipPath id="satori_bc-id-2-0-1-4" clip-path="url(#satori_cp-id)"><path x="556" y="45" width="63" height="25" d="M562,45 h51 a6,6 0 0 1 6,6 v13 a6,6 0 0 1 -6,6 h-51 a6,6 0 0 1 -6,-6 v-13 a6,6 0 0 1 6,-6"/></clipPath></defs><mask id="satori_om-id-2-0-1-4"><rect x="557" y="46" width="61" height="23" fill="#fff" mask="url(#satori_om-id)"/><path width="63" height="25" fill="none" stroke="#000" stroke-width="2" d="M557.757,46.757 A6,6 0 0 1 562,45 h51 a6,6 0 0 1 6,6 v13 a6,6 0 0 1 -6,6 h-51 a6,6 0 0 1 -6,-6 v-13 A6,6 0 0 1 557.757,46.757"/></mask><path x="556" y="45" width="63" height="25" fill="#a78bfa15" d="M562,45 h51 a6,6 0 0 1 6,6 v13 a6,6 0 0 1 -6,6 h-51 a6,6 0 0 1 -6,-6 v-13 a6,6 0 0 1 6,-6" clip-path="url(#satori_cp-id)" mask="url(#satori_om-id)"/><path width="63" height="25" clip-path="url(#satori_bc-id-2-0-1-4)" fill="none" stroke="#a78bfa35" stroke-width="2" d="M557.757,46.757 A6,6 0 0 1 562,45 h51 a6,6 0 0 1 6,6 v13 a6,6 0 0 1 -6,6 h-51 a6,6 0 0 1 -6,-6 v-13 A6,6 0 0 1 557.757,46.757"/><g mask="url(#satori_om-id)" clip-path="url(#satori_cp-id)"><path fill="rgba(225,220,255,0.85)" d="M572.6 62L570.8 62L570.8 53.3L572.6 53.3L572.6 56.8L576.4 56.8L576.4 53.3L578.2 53.3L578.2 62L576.4 62L576.4 58.3L572.6 58.3L572.6 62ZM582.1 54.8L579.4 54.8L579.4 53.3L586.5 53.3L586.5 54.8L583.9 54.8L583.9 62L582.1 62L582.1 54.8ZM589.5 62L587.8 62L587.8 53.3L590.5 53.3L591.9 57.3Q592.0 57.6 592.1 58.0Q592.2 58.4 592.4 59.0L592.4 59.0Q592.5 59.5 592.6 59.9L592.6 59.9Q592.7 59.5 592.8 59.0L592.8 59.0Q592.9 58.5 593.0 58.0Q593.1 57.6 593.2 57.3L593.2 57.3L594.6 53.3L597.4 53.3L597.4 62L595.6 62L595.6 57.9Q595.6 57.6 595.6 57.2Q595.6 56.7 595.6 56.2Q595.6 55.8 595.6 55.3L595.6 55.3Q595.6 55.0 595.6 54.8L595.6 54.8Q595.6 55.1 595.5 55.3L595.5 55.3Q595.4 55.8 595.2 56.3Q595.1 56.8 595.0 57.2Q594.9 57.6 594.8 57.9L594.8 57.9L593.3 62L591.8 62L590.3 57.9Q590.3 57.6 590.1 57.2Q590.0 56.8 589.9 56.3Q589.7 55.8 589.6 55.3L589.6 55.3Q589.5 55.1 589.5 54.9L589.5 54.9Q589.5 55.0 589.5 55.2L589.5 55.2Q589.5 55.7 589.5 56.2Q589.5 56.7 589.5 57.2Q589.5 57.6 589.5 57.9L589.5 57.9L589.5 62ZM604.5 62L598.9 62L598.9 53.3L600.7 53.3L600.7 60.5L604.5 60.5L604.5 62Z "/></g><defs><clipPath id="satori_bc-id-2-0-1-5" clip-path="url(#satori_cp-id)"><path x="626" y="45" width="54" height="25" d="M632,45 h42 a6,6 0 0 1 6,6 v13 a6,6 0 0 1 -6,6 h-42 a6,6 0 0 1 -6,-6 v-13 a6,6 0 0 1 6,-6"/></clipPath></defs><mask id="satori_om-id-2-0-1-5"><rect x="627" y="46" width="52" height="23" fill="#fff" mask="url(#satori_om-id)"/><path width="54" height="25" fill="none" stroke="#000" stroke-width="2" d="M627.757,46.757 A6,6 0 0 1 632,45 h42 a6,6 0 0 1 6,6 v13 a6,6 0 0 1 -6,6 h-42 a6,6 0 0 1 -6,-6 v-13 A6,6 0 0 1 627.757,46.757"/></mask><path x="626" y="45" width="54" height="25" fill="#a78bfa15" d="M632,45 h42 a6,6 0 0 1 6,6 v13 a6,6 0 0 1 -6,6 h-42 a6,6 0 0 1 -6,-6 v-13 a6,6 0 0 1 6,-6" clip-path="url(#satori_cp-id)" mask="url(#satori_om-id)"/><path width="54" height="25" clip-path="url(#satori_bc-id-2-0-1-5)" fill="none" stroke="#a78bfa35" stroke-width="2" d="M627.757,46.757 A6,6 0 0 1 632,45 h42 a6,6 0 0 1 6,6 v13 a6,6 0 0 1 -6,6 h-42 a6,6 0 0 1 -6,-6 v-13 A6,6 0 0 1 627.757,46.757"/><g mask="url(#satori_om-id)" clip-path="url(#satori_cp-id)"><path fill="rgba(225,220,255,0.85)" d="M644.6 62.1L644.6 62.1Q643.4 62.1 642.5 61.6Q641.6 61.1 641.1 60.1Q640.6 59.1 640.6 57.6L640.6 57.6Q640.6 56.2 641.1 55.2Q641.6 54.2 642.5 53.7Q643.5 53.2 644.6 53.2L644.6 53.2Q645.3 53.2 646.0 53.4Q646.6 53.6 647.1 54.0Q647.6 54.4 647.9 54.9Q648.3 55.5 648.4 56.3L648.4 56.3L646.6 56.3Q646.5 55.9 646.3 55.6Q646.2 55.3 645.9 55.1Q645.7 54.9 645.3 54.8Q645.0 54.7 644.6 54.7L644.6 54.7Q644.0 54.7 643.4 55.1Q642.9 55.4 642.7 56.1Q642.4 56.7 642.4 57.6L642.4 57.6Q642.4 58.6 642.7 59.2Q642.9 59.9 643.5 60.2Q644.0 60.5 644.6 60.5L644.6 60.5Q645.0 60.5 645.3 60.4Q645.6 60.3 645.9 60.1Q646.2 59.9 646.3 59.7Q646.5 59.4 646.6 59.0L646.6 59.0L648.4 59.0Q648.3 59.6 648.0 60.2Q647.7 60.7 647.2 61.2Q646.8 61.6 646.1 61.9Q645.4 62.1 644.6 62.1ZM653.7 61.5L652.2 61.5L652.2 59.2L649.9 59.2L649.9 57.8L652.2 57.8L652.2 55.5L653.7 55.5L653.7 57.8L656.0 57.8L656.0 59.2L653.7 59.2L653.7 61.5ZM661.8 61.5L660.3 61.5L660.3 59.2L658.1 59.2L658.1 57.8L660.3 57.8L660.3 55.5L661.8 55.5L661.8 57.8L664.1 57.8L664.1 59.2L661.8 59.2L661.8 61.5Z "/></g><mask id="satori_om-id-2-1"><rect x="33" y="84" width="794" height="25" fill="#fff" mask="url(#satori_om-id)"/></mask><mask id="satori_om-id-2-1-0"><rect x="33" y="91" width="90" height="12" fill="#fff" mask="url(#satori_om-id)"/></mask><g mask="url(#satori_om-id)" clip-path="url(#satori_cp-id)"><path fill="#38bdf8" d="M34.9 101L33.2 101L35.7 93.7L37.7 93.7L40.2 101L38.6 101L38.0 99.3L35.4 99.3L34.9 101ZM35.8 98.1L37.6 98.1L37.4 97.5Q37.2 96.8 37.0 96L37.0 96Q36.8 95.5 36.7 94.9L36.7 94.9Q36.5 95.5 36.4 96.0L36.4 96.0Q36.2 96.8 36.0 97.5L36.0 97.5L35.8 98.1ZM42.1 93.7L43.6 93.7L43.6 101L42.1 101L42.1 93.7Z M51.5 101.1L51.5 101.1Q50.7 101.1 50.2 100.8Q49.6 100.6 49.3 100.1Q49.0 99.6 49.0 99.1L49.0 99.1Q49.0 98.6 49.2 98.3Q49.4 98.0 49.7 97.7L49.7 97.7Q50.0 97.4 50.4 97.2L50.4 97.2Q50.4 97.1 50.3 97.1L50.3 97.1Q50.0 96.7 49.9 96.3Q49.7 95.9 49.7 95.5L49.7 95.5Q49.7 95.0 49.9 94.5Q50.2 94.1 50.6 93.9Q51.1 93.6 51.6 93.6L51.6 93.6Q52.2 93.6 52.6 93.9Q53.1 94.1 53.3 94.5Q53.5 94.9 53.5 95.4L53.5 95.4Q53.5 95.7 53.4 96.0Q53.3 96.3 53.1 96.5Q52.9 96.8 52.6 97.0L52.6 97.0L52.1 97.3L53.3 98.7Q53.4 98.6 53.5 98.5L53.5 98.5Q53.7 98.0 53.7 97.5L53.7 97.5L54.9 97.5Q54.9 98.1 54.7 98.7Q54.6 99.2 54.3 99.6L54.3 99.6Q54.3 99.7 54.2 99.7L54.2 99.7L55.3 101L53.8 101L53.3 100.5Q53.0 100.8 52.5 101.0L52.5 101.0Q52.0 101.1 51.5 101.1ZM52.5 99.6L51.1 98.0L51.1 98.1Q50.8 98.3 50.6 98.5Q50.5 98.7 50.5 99.0L50.5 99.0Q50.5 99.3 50.6 99.5Q50.7 99.7 51.0 99.8Q51.2 99.9 51.5 99.9L51.5 99.9Q51.9 99.9 52.3 99.8L52.3 99.8Q52.4 99.7 52.5 99.6L52.5 99.6ZM51.4 96.5L51.4 96.5L51.8 96.2Q51.9 96.1 52.1 96.0Q52.2 95.9 52.3 95.7Q52.3 95.6 52.3 95.4L52.3 95.4Q52.3 95.2 52.2 95.0Q52.0 94.8 51.7 94.8L51.7 94.8Q51.4 94.8 51.3 94.9Q51.1 95.0 51.0 95.1Q50.9 95.3 50.9 95.5L50.9 95.5Q50.9 95.7 51.1 96.0Q51.2 96.2 51.4 96.5L51.4 96.5Q51.4 96.5 51.4 96.5Z M61.9 101L60.4 101L60.4 93.7L62.7 93.7L63.9 97.1Q63.9 97.3 64.0 97.7Q64.1 98.0 64.2 98.5L64.2 98.5Q64.3 98.9 64.4 99.3L64.4 99.3Q64.5 98.9 64.6 98.5L64.6 98.5Q64.7 98.1 64.8 97.7Q64.9 97.3 64.9 97.1L64.9 97.1L66.1 93.7L68.4 93.7L68.4 101L66.9 101L66.9 97.6Q66.9 97.3 66.9 97.0Q66.9 96.6 66.9 96.2Q66.9 95.8 66.9 95.4L66.9 95.4Q66.9 95.2 67.0 95.0L67.0 95.0Q66.9 95.2 66.8 95.4L66.8 95.4Q66.7 95.9 66.6 96.3Q66.5 96.7 66.4 97.0Q66.3 97.3 66.2 97.6L66.2 97.6L65.0 101L63.8 101L62.5 97.6Q62.5 97.3 62.4 97.0Q62.3 96.7 62.1 96.3Q62.0 95.9 61.9 95.4L61.9 95.4Q61.9 95.2 61.8 95.1L61.8 95.1Q61.8 95.2 61.8 95.4L61.8 95.4Q61.8 95.8 61.8 96.2Q61.9 96.6 61.9 97.0Q61.9 97.3 61.9 97.6L61.9 97.6L61.9 101ZM75.3 101L70.7 101L70.7 93.7L72.2 93.7L72.2 99.8L75.3 99.8L75.3 101Z "/></g><mask id="satori_om-id-2-1-1"><rect x="139" y="84" width="375" height="25" fill="#fff" mask="url(#satori_om-id)"/></mask><defs><clipPath id="satori_bc-id-2-1-1-0" clip-path="url(#satori_cp-id)"><path x="139" y="84" width="78" height="25" d="M145,84 h66 a6,6 0 0 1 6,6 v13 a6,6 0 0 1 -6,6 h-66 a6,6 0 0 1 -6,-6 v-13 a6,6 0 0 1 6,-6"/></clipPath></defs><mask id="satori_om-id-2-1-1-0"><rect x="140" y="85" width="76" height="23" fill="#fff" mask="url(#satori_om-id)"/><path width="78" height="25" fill="none" stroke="#000" stroke-width="2" d="M140.757,85.757 A6,6 0 0 1 145,84 h66 a6,6 0 0 1 6,6 v13 a6,6 0 0 1 -6,6 h-66 a6,6 0 0 1 -6,-6 v-13 A6,6 0 0 1 140.757,85.757"/></mask><path x="139" y="84" width="78" height="25" fill="#38bdf815" d="M145,84 h66 a6,6 0 0 1 6,6 v13 a6,6 0 0 1 -6,6 h-66 a6,6 0 0 1 -6,-6 v-13 a6,6 0 0 1 6,-6" clip-path="url(#satori_cp-id)" mask="url(#satori_om-id)"/><path width="78" height="25" clip-path="url(#satori_bc-id-2-1-1-0)" fill="none" stroke="#38bdf835" stroke-width="2" d="M140.757,85.757 A6,6 0 0 1 145,84 h66 a6,6 0 0 1 6,6 v13 a6,6 0 0 1 -6,6 h-66 a6,6 0 0 1 -6,-6 v-13 A6,6 0 0 1 140.757,85.757"/><g mask="url(#satori_om-id)" clip-path="url(#satori_cp-id)"><path fill="rgba(225,220,255,0.85)" d="M155.6 101L153.8 101L153.8 92.3L157.2 92.3Q158.2 92.3 158.9 92.6Q159.6 93.0 160.0 93.7Q160.3 94.4 160.3 95.2L160.3 95.2Q160.3 96.1 159.9 96.7Q159.6 97.4 158.9 97.8Q158.2 98.1 157.2 98.1L157.2 98.1L155.6 98.1L155.6 101ZM155.6 93.7L155.6 96.7L156.9 96.7Q157.4 96.7 157.8 96.5Q158.1 96.3 158.3 96.0Q158.5 95.7 158.5 95.2Q158.5 94.8 158.3 94.4Q158.1 94.1 157.8 93.9Q157.4 93.7 156.9 93.7L156.9 93.7L155.6 93.7ZM161.5 103.3L161.5 103.3L161.9 102.0L162.1 102.0Q162.5 102.1 162.7 102.1Q163.0 102.1 163.2 101.9Q163.3 101.7 163.4 101.4L163.4 101.4L163.4 101.0L161.0 94.4L162.8 94.4L163.9 97.8Q164.1 98.5 164.3 99.1L164.3 99.1Q164.3 99.4 164.3 99.6L164.3 99.6Q164.4 99.4 164.4 99.1L164.4 99.1Q164.6 98.5 164.8 97.8L164.8 97.8L166.0 94.4L167.8 94.4L165.0 101.8Q164.8 102.3 164.5 102.7Q164.2 103.1 163.7 103.3Q163.3 103.5 162.6 103.5L162.6 103.5Q162.3 103.5 162.0 103.4Q161.7 103.4 161.5 103.3ZM171.1 93.8L168.4 93.8L168.4 92.3L175.6 92.3L175.6 93.8L172.9 93.8L172.9 101L171.1 101L171.1 93.8ZM179.7 101.1L179.7 101.1Q178.7 101.1 178.0 100.7Q177.3 100.3 176.9 99.5Q176.5 98.8 176.5 97.8L176.5 97.8Q176.5 96.7 176.9 96.0Q177.3 95.2 178.0 94.8Q178.7 94.4 179.7 94.4L179.7 94.4Q180.7 94.4 181.4 94.8Q182.1 95.2 182.5 96.0Q182.9 96.7 182.9 97.8L182.9 97.8Q182.9 98.8 182.5 99.5Q182.1 100.3 181.4 100.7Q180.7 101.1 179.7 101.1ZM179.7 99.7L179.7 99.7Q180.2 99.7 180.5 99.5Q180.8 99.2 180.9 98.8Q181.1 98.3 181.1 97.7L181.1 97.7Q181.1 97.2 180.9 96.7Q180.8 96.3 180.5 96.0Q180.2 95.8 179.7 95.8L179.7 95.8Q179.2 95.8 178.9 96.0Q178.6 96.3 178.4 96.7Q178.3 97.2 178.3 97.7L178.3 97.7Q178.3 98.3 178.4 98.8Q178.6 99.2 178.9 99.5Q179.2 99.7 179.7 99.7ZM185.9 101L184.1 101L184.1 94.4L185.8 94.4L185.8 95.6L185.9 95.6Q186.1 95.0 186.5 94.7Q186.9 94.4 187.5 94.4L187.5 94.4Q187.6 94.4 187.8 94.4Q187.9 94.4 188.0 94.4L188.0 94.4L188.0 96.0Q187.9 95.9 187.7 95.9Q187.5 95.9 187.3 95.9L187.3 95.9Q186.9 95.9 186.6 96.1Q186.2 96.2 186.1 96.6Q185.9 96.9 185.9 97.3L185.9 97.3L185.9 101ZM191.9 101.1L191.9 101.1Q190.9 101.1 190.2 100.7Q189.5 100.3 189.1 99.5Q188.7 98.8 188.7 97.8L188.7 97.8Q188.7 96.7 189.1 96.0Q189.5 95.2 190.2 94.8Q190.9 94.4 191.9 94.4L191.9 94.4Q192.5 94.4 193.0 94.5Q193.5 94.7 193.9 95.0Q194.3 95.2 194.5 95.6Q194.8 96.0 194.8 96.5L194.8 96.5L193.2 96.9Q193.2 96.6 193.0 96.4Q192.9 96.2 192.8 96.0Q192.6 95.9 192.4 95.8Q192.2 95.8 192.0 95.8L192.0 95.8Q191.5 95.8 191.2 96.0Q190.8 96.3 190.7 96.7Q190.5 97.2 190.5 97.7L190.5 97.7Q190.5 98.3 190.7 98.8Q190.8 99.2 191.2 99.5Q191.5 99.7 192.0 99.7L192.0 99.7Q192.2 99.7 192.4 99.7Q192.6 99.6 192.8 99.4Q193.0 99.3 193.1 99.1Q193.2 98.9 193.2 98.6L193.2 98.6L194.9 98.9Q194.8 99.4 194.5 99.8Q194.3 100.2 193.9 100.5Q193.5 100.8 193.0 101.0Q192.5 101.1 191.9 101.1ZM197.8 97.2L197.8 97.2L197.8 101L196.1 101L196.1 92.3L197.8 92.3L197.8 95.7Q198.0 95.2 198.4 94.8L198.4 94.8Q199.0 94.4 199.8 94.4L199.8 94.4Q200.5 94.4 201.0 94.7Q201.5 95.0 201.8 95.5Q202.0 96.1 202.0 96.8L202.0 96.8L202.0 101L200.3 101L200.3 97.1Q200.3 96.5 200.0 96.2Q199.7 95.8 199.1 95.8L199.1 95.8Q198.7 95.8 198.4 96.0Q198.1 96.2 198.0 96.5Q197.8 96.8 197.8 97.2Z "/></g><defs><clipPath id="satori_bc-id-2-1-1-1" clip-path="url(#satori_cp-id)"><path x="224" y="84" width="98" height="25" d="M230,84 h86 a6,6 0 0 1 6,6 v13 a6,6 0 0 1 -6,6 h-86 a6,6 0 0 1 -6,-6 v-13 a6,6 0 0 1 6,-6"/></clipPath></defs><mask id="satori_om-id-2-1-1-1"><rect x="225" y="85" width="96" height="23" fill="#fff" mask="url(#satori_om-id)"/><path width="98" height="25" fill="none" stroke="#000" stroke-width="2" d="M225.757,85.757 A6,6 0 0 1 230,84 h86 a6,6 0 0 1 6,6 v13 a6,6 0 0 1 -6,6 h-86 a6,6 0 0 1 -6,-6 v-13 A6,6 0 0 1 225.757,85.757"/></mask><path x="224" y="84" width="98" height="25" fill="#38bdf815" d="M230,84 h86 a6,6 0 0 1 6,6 v13 a6,6 0 0 1 -6,6 h-86 a6,6 0 0 1 -6,-6 v-13 a6,6 0 0 1 6,-6" clip-path="url(#satori_cp-id)" mask="url(#satori_om-id)"/><path width="98" height="25" clip-path="url(#satori_bc-id-2-1-1-1)" fill="none" stroke="#38bdf835" stroke-width="2" d="M225.757,85.757 A6,6 0 0 1 230,84 h86 a6,6 0 0 1 6,6 v13 a6,6 0 0 1 -6,6 h-86 a6,6 0 0 1 -6,-6 v-13 A6,6 0 0 1 225.757,85.757"/><g mask="url(#satori_om-id)" clip-path="url(#satori_cp-id)"><path fill="rgba(225,220,255,0.85)" d="M241.1 93.8L238.4 93.8L238.4 92.3L245.6 92.3L245.6 93.8L242.9 93.8L242.9 101L241.1 101L241.1 93.8ZM249.7 101.1L249.7 101.1Q248.7 101.1 248.0 100.7Q247.3 100.3 246.9 99.6Q246.5 98.8 246.5 97.8L246.5 97.8Q246.5 96.7 246.9 96.0Q247.3 95.2 248.0 94.8Q248.7 94.4 249.6 94.4L249.6 94.4Q250.3 94.4 250.8 94.6Q251.4 94.8 251.8 95.2Q252.2 95.6 252.5 96.2Q252.7 96.8 252.7 97.7L252.7 97.7L252.7 98.2L248.2 98.2Q248.2 98.7 248.4 99.0L248.4 99.0Q248.6 99.4 248.9 99.6Q249.3 99.8 249.7 99.8L249.7 99.8Q250.1 99.8 250.3 99.7Q250.6 99.6 250.7 99.5Q250.9 99.3 251.0 99.0L251.0 99.0L252.6 99.3Q252.4 99.9 252.1 100.3Q251.7 100.7 251.1 100.9Q250.5 101.1 249.7 101.1ZM248.2 97.1L248.2 97.1L251.0 97.1Q251.0 96.8 250.9 96.5L250.9 96.5Q250.7 96.1 250.4 95.9Q250.1 95.7 249.6 95.7L249.6 95.7Q249.2 95.7 248.9 95.9Q248.6 96.1 248.4 96.5L248.4 96.5Q248.3 96.7 248.2 97.1ZM255.7 97.2L255.7 97.2L255.7 101L253.9 101L253.9 94.4L255.6 94.4L255.6 95.8Q255.8 95.2 256.3 94.8L256.3 94.8Q256.8 94.4 257.6 94.4L257.6 94.4Q258.3 94.4 258.8 94.7Q259.3 95.0 259.6 95.5Q259.9 96.1 259.9 96.8L259.9 96.8L259.9 101L258.1 101L258.1 97.1Q258.1 96.5 257.8 96.2Q257.5 95.8 256.9 95.8L256.9 95.8Q256.6 95.8 256.3 96.0Q256.0 96.2 255.8 96.5Q255.7 96.8 255.7 97.2ZM264.0 101.1L264.0 101.1Q263.2 101.1 262.6 100.9Q262.0 100.7 261.6 100.2Q261.2 99.8 261.1 99.2L261.1 99.2L262.7 98.9Q262.8 99.4 263.2 99.6Q263.5 99.8 264.0 99.8L264.0 99.8Q264.5 99.8 264.8 99.6Q265.1 99.5 265.1 99.2L265.1 99.2Q265.1 98.9 264.9 98.7Q264.7 98.6 264.3 98.5L264.3 98.5L263.1 98.3Q262.2 98.1 261.7 97.6Q261.3 97.1 261.3 96.4L261.3 96.4Q261.3 95.8 261.6 95.3Q261.9 94.9 262.6 94.6Q263.2 94.4 264.0 94.4L264.0 94.4Q264.8 94.4 265.4 94.6Q265.9 94.8 266.3 95.2Q266.6 95.6 266.7 96.1L266.7 96.1L265.2 96.4Q265.1 96.1 264.8 95.8Q264.5 95.6 264.0 95.6L264.0 95.6Q263.6 95.6 263.3 95.8Q263.0 96.0 263.0 96.3L263.0 96.3Q263.0 96.5 263.2 96.7Q263.4 96.9 263.9 97.0L263.9 97.0L265.0 97.2Q266.0 97.4 266.4 97.8Q266.9 98.3 266.9 99.0L266.9 99.0Q266.9 99.6 266.5 100.1Q266.2 100.6 265.5 100.9Q264.8 101.1 264.0 101.1ZM271.0 101.1L271.0 101.1Q270.0 101.1 269.3 100.7Q268.6 100.3 268.2 99.5Q267.8 98.8 267.8 97.8L267.8 97.8Q267.8 96.7 268.2 96.0Q268.6 95.2 269.3 94.8Q270.0 94.4 271.0 94.4L271.0 94.4Q272.0 94.4 272.7 94.8Q273.5 95.2 273.8 96.0Q274.2 96.7 274.2 97.8L274.2 97.8Q274.2 98.8 273.8 99.5Q273.5 100.3 272.7 100.7Q272.0 101.1 271.0 101.1ZM271.0 99.7L271.0 99.7Q271.5 99.7 271.8 99.5Q272.1 99.2 272.3 98.8Q272.4 98.3 272.4 97.7L272.4 97.7Q272.4 97.2 272.3 96.7Q272.1 96.3 271.8 96.0Q271.5 95.8 271.0 95.8L271.0 95.8Q270.6 95.8 270.2 96.0Q269.9 96.3 269.8 96.7Q269.6 97.2 269.6 97.7L269.6 97.7Q269.6 98.3 269.8 98.8Q269.9 99.2 270.2 99.5Q270.6 99.7 271.0 99.7ZM277.2 101L275.5 101L275.5 94.4L277.2 94.4L277.2 95.6L277.2 95.6Q277.4 95.0 277.8 94.7Q278.3 94.4 278.8 94.4L278.8 94.4Q278.9 94.4 279.1 94.4Q279.3 94.4 279.4 94.4L279.4 94.4L279.4 96.0Q279.3 95.9 279.0 95.9Q278.8 95.9 278.6 95.9L278.6 95.9Q278.2 95.9 277.9 96.1Q277.6 96.2 277.4 96.6Q277.2 96.9 277.2 97.3L277.2 97.3L277.2 101ZM282.2 101L280.4 101L280.4 92.3L286.1 92.3L286.1 93.8L282.2 93.8L282.2 96.2L285.7 96.2L285.7 97.6L282.2 97.6L282.2 101ZM287.4 92.3L289.1 92.3L289.1 101L287.4 101L287.4 92.3ZM293.6 101.1L293.6 101.1Q292.6 101.1 291.9 100.7Q291.1 100.3 290.8 99.5Q290.4 98.8 290.4 97.8L290.4 97.8Q290.4 96.7 290.8 96.0Q291.1 95.2 291.9 94.8Q292.6 94.4 293.6 94.4L293.6 94.4Q294.6 94.4 295.3 94.8Q296.0 95.2 296.4 96.0Q296.8 96.7 296.8 97.8L296.8 97.8Q296.8 98.8 296.4 99.5Q296.0 100.3 295.3 100.7Q294.6 101.1 293.6 101.1ZM293.6 99.7L293.6 99.7Q294.0 99.7 294.4 99.5Q294.7 99.2 294.8 98.8Q295.0 98.3 295.0 97.7L295.0 97.7Q295.0 97.2 294.8 96.7Q294.7 96.3 294.4 96.0Q294.0 95.8 293.6 95.8L293.6 95.8Q293.1 95.8 292.8 96.0Q292.5 96.3 292.3 96.7Q292.2 97.2 292.2 97.7L292.2 97.7Q292.2 98.3 292.3 98.8Q292.5 99.2 292.8 99.5Q293.1 99.7 293.6 99.7ZM301.2 101L299.4 101L297.4 94.4L299.3 94.4L299.8 96.9Q300.0 97.5 300.2 98.3L300.2 98.3Q300.3 98.8 300.4 99.4L300.4 99.4Q300.5 98.8 300.6 98.3L300.6 98.3Q300.8 97.5 300.9 96.9L300.9 96.9L301.5 94.4L303.2 94.4L303.7 96.9Q303.9 97.5 304.1 98.3L304.1 98.3Q304.2 98.8 304.3 99.4L304.3 99.4Q304.4 98.8 304.5 98.3L304.5 98.3Q304.7 97.5 304.8 96.9L304.8 96.9L305.4 94.4L307.3 94.4L305.3 101L303.5 101L302.8 98.5Q302.7 98.1 302.6 97.6Q302.5 97.2 302.4 96.7L302.4 96.7Q302.4 96.6 302.3 96.5L302.3 96.5Q302.3 96.6 302.3 96.7L302.3 96.7Q302.2 97.2 302.1 97.6Q302.0 98.1 301.9 98.5L301.9 98.5L301.2 101Z "/></g><defs><clipPath id="satori_bc-id-2-1-1-2" clip-path="url(#satori_cp-id)"><path x="329" y="84" width="78" height="25" d="M335,84 h66 a6,6 0 0 1 6,6 v13 a6,6 0 0 1 -6,6 h-66 a6,6 0 0 1 -6,-6 v-13 a6,6 0 0 1 6,-6"/></clipPath></defs><mask id="satori_om-id-2-1-1-2"><rect x="330" y="85" width="76" height="23" fill="#fff" mask="url(#satori_om-id)"/><path width="78" height="25" fill="none" stroke="#000" stroke-width="2" d="M330.757,85.757 A6,6 0 0 1 335,84 h66 a6,6 0 0 1 6,6 v13 a6,6 0 0 1 -6,6 h-66 a6,6 0 0 1 -6,-6 v-13 A6,6 0 0 1 330.757,85.757"/></mask><path x="329" y="84" width="78" height="25" fill="#38bdf815" d="M335,84 h66 a6,6 0 0 1 6,6 v13 a6,6 0 0 1 -6,6 h-66 a6,6 0 0 1 -6,-6 v-13 a6,6 0 0 1 6,-6" clip-path="url(#satori_cp-id)" mask="url(#satori_om-id)"/><path width="78" height="25" clip-path="url(#satori_bc-id-2-1-1-2)" fill="none" stroke="#38bdf835" stroke-width="2" d="M330.757,85.757 A6,6 0 0 1 335,84 h66 a6,6 0 0 1 6,6 v13 a6,6 0 0 1 -6,6 h-66 a6,6 0 0 1 -6,-6 v-13 A6,6 0 0 1 330.757,85.757"/><g mask="url(#satori_om-id)" clip-path="url(#satori_cp-id)"><path fill="rgba(225,220,255,0.85)" d="M347.6 101.1L347.6 101.1Q346.5 101.1 345.5 100.6Q344.6 100.1 344.1 99.1Q343.6 98.1 343.6 96.6L343.6 96.6Q343.6 95.2 344.1 94.2Q344.6 93.2 345.5 92.7Q346.5 92.2 347.6 92.2L347.6 92.2Q348.8 92.2 349.7 92.7Q350.6 93.2 351.2 94.2Q351.7 95.2 351.7 96.6L351.7 96.6Q351.7 98.1 351.2 99.1Q350.6 100.1 349.7 100.6Q348.8 101.1 347.6 101.1ZM347.6 99.5L347.6 99.5Q348.3 99.5 348.8 99.2Q349.3 98.9 349.6 98.2Q349.9 97.6 349.9 96.6L349.9 96.6Q349.9 95.7 349.6 95.0Q349.3 94.4 348.8 94.1Q348.3 93.7 347.6 93.7L347.6 93.7Q346.9 93.7 346.4 94.1Q345.9 94.4 345.6 95.1Q345.4 95.7 345.4 96.6L345.4 96.6Q345.4 97.6 345.6 98.2Q345.9 98.9 346.4 99.2Q346.9 99.5 347.6 99.5ZM354.8 103.4L353.0 103.4L353.0 94.4L354.7 94.4L354.7 95.6L354.8 95.6Q354.9 95.3 355.2 95.0Q355.4 94.7 355.8 94.6Q356.1 94.4 356.7 94.4L356.7 94.4Q357.4 94.4 358.0 94.7Q358.6 95.1 359.0 95.9Q359.3 96.6 359.3 97.7L359.3 97.7Q359.3 98.8 359.0 99.6Q358.6 100.3 358.0 100.7Q357.4 101.1 356.7 101.1L356.7 101.1Q356.1 101.1 355.8 100.9Q355.4 100.7 355.2 100.5Q354.9 100.2 354.8 100.0L354.8 100.0L354.8 100.0L354.8 103.4ZM356.1 99.7L356.1 99.7Q356.6 99.7 356.9 99.4Q357.2 99.2 357.4 98.8Q357.5 98.3 357.5 97.7L357.5 97.7Q357.5 97.2 357.4 96.7Q357.2 96.3 356.9 96.0Q356.6 95.8 356.1 95.8L356.1 95.8Q355.7 95.8 355.4 96.0Q355.0 96.3 354.9 96.7Q354.7 97.1 354.7 97.7L354.7 97.7Q354.7 98.3 354.9 98.8Q355.0 99.2 355.4 99.5Q355.7 99.7 356.1 99.7ZM363.5 101.1L363.5 101.1Q362.5 101.1 361.8 100.7Q361.1 100.3 360.7 99.6Q360.3 98.8 360.3 97.8L360.3 97.8Q360.3 96.7 360.7 96.0Q361.1 95.2 361.8 94.8Q362.5 94.4 363.4 94.4L363.4 94.4Q364.1 94.4 364.6 94.6Q365.2 94.8 365.6 95.2Q366.0 95.6 366.3 96.2Q366.5 96.8 366.5 97.7L366.5 97.7L366.5 98.2L362.0 98.2Q362.0 98.7 362.2 99.0L362.2 99.0Q362.4 99.4 362.7 99.6Q363.1 99.8 363.5 99.8L363.5 99.8Q363.9 99.8 364.1 99.7Q364.4 99.6 364.5 99.5Q364.7 99.3 364.8 99.0L364.8 99.0L366.4 99.3Q366.3 99.9 365.9 100.3Q365.5 100.7 364.9 100.9Q364.3 101.1 363.5 101.1ZM362.0 97.1L362.0 97.1L364.8 97.1Q364.8 96.8 364.7 96.5L364.7 96.5Q364.5 96.1 364.2 95.9Q363.9 95.7 363.4 95.7L363.4 95.7Q363.0 95.7 362.7 95.9Q362.4 96.1 362.2 96.5L362.2 96.5Q362.1 96.7 362.0 97.1ZM369.5 97.2L369.5 97.2L369.5 101L367.7 101L367.7 94.4L369.4 94.4L369.4 95.8Q369.6 95.2 370.1 94.8L370.1 94.8Q370.6 94.4 371.4 94.4L371.4 94.4Q372.1 94.4 372.6 94.7Q373.1 95.0 373.4 95.5Q373.7 96.1 373.7 96.8L373.7 96.8L373.7 101L371.9 101L371.9 97.1Q371.9 96.5 371.6 96.2Q371.3 95.8 370.7 95.8L370.7 95.8Q370.4 95.8 370.1 96.0Q369.8 96.2 369.6 96.5Q369.5 96.8 369.5 97.2ZM379.0 101.1L379.0 101.1Q377.9 101.1 377.0 100.6Q376.0 100.1 375.5 99.1Q375.0 98.1 375.0 96.6L375.0 96.6Q375.0 95.2 375.5 94.2Q376.0 93.2 377.0 92.7Q377.9 92.2 379.0 92.2L379.0 92.2Q379.8 92.2 380.4 92.4Q381.1 92.6 381.6 93.0Q382.1 93.4 382.4 93.9Q382.7 94.5 382.8 95.3L382.8 95.3L381.0 95.3Q380.9 94.9 380.8 94.6Q380.6 94.3 380.3 94.1Q380.1 93.9 379.8 93.8Q379.4 93.7 379.1 93.7L379.1 93.7Q378.4 93.7 377.9 94.1Q377.4 94.4 377.1 95.1Q376.8 95.7 376.8 96.6L376.8 96.6Q376.8 97.6 377.1 98.2Q377.4 98.9 377.9 99.2Q378.4 99.5 379.1 99.5L379.1 99.5Q379.4 99.5 379.8 99.4Q380.1 99.3 380.3 99.1Q380.6 98.9 380.8 98.7Q380.9 98.4 381.0 98.0L381.0 98.0L382.8 98.0Q382.7 98.6 382.4 99.2Q382.1 99.7 381.7 100.2Q381.2 100.6 380.5 100.9Q379.9 101.1 379.0 101.1ZM389.0 101L386.7 101L383.6 92.3L385.6 92.3L387.0 96.5Q387.2 97.3 387.5 98.2L387.5 98.2Q387.7 98.9 387.8 99.6L387.8 99.6Q388.0 98.9 388.2 98.2L388.2 98.2Q388.4 97.3 388.7 96.5L388.7 96.5L390.0 92.3L392.0 92.3L389.0 101Z "/></g><defs><clipPath id="satori_bc-id-2-1-1-3" clip-path="url(#satori_cp-id)"><path x="414" y="84" width="100" height="25" d="M420,84 h88 a6,6 0 0 1 6,6 v13 a6,6 0 0 1 -6,6 h-88 a6,6 0 0 1 -6,-6 v-13 a6,6 0 0 1 6,-6"/></clipPath></defs><mask id="satori_om-id-2-1-1-3"><rect x="415" y="85" width="98" height="23" fill="#fff" mask="url(#satori_om-id)"/><path width="100" height="25" fill="none" stroke="#000" stroke-width="2" d="M415.757,85.757 A6,6 0 0 1 420,84 h88 a6,6 0 0 1 6,6 v13 a6,6 0 0 1 -6,6 h-88 a6,6 0 0 1 -6,-6 v-13 A6,6 0 0 1 415.757,85.757"/></mask><path x="414" y="84" width="100" height="25" fill="#38bdf815" d="M420,84 h88 a6,6 0 0 1 6,6 v13 a6,6 0 0 1 -6,6 h-88 a6,6 0 0 1 -6,-6 v-13 a6,6 0 0 1 6,-6" clip-path="url(#satori_cp-id)" mask="url(#satori_om-id)"/><path width="100" height="25" clip-path="url(#satori_bc-id-2-1-1-3)" fill="none" stroke="#38bdf835" stroke-width="2" d="M415.757,85.757 A6,6 0 0 1 420,84 h88 a6,6 0 0 1 6,6 v13 a6,6 0 0 1 -6,6 h-88 a6,6 0 0 1 -6,-6 v-13 A6,6 0 0 1 415.757,85.757"/><g mask="url(#satori_om-id)" clip-path="url(#satori_cp-id)"><path fill="rgba(225,220,255,0.85)" d="M432.0 101.1L432.0 101.1Q430.9 101.1 430.2 100.8Q429.4 100.5 429.0 99.9Q428.5 99.2 428.5 98.3L428.5 98.3L430.2 98.3Q430.3 98.7 430.5 99.0Q430.7 99.3 431.1 99.5Q431.5 99.6 432.0 99.6L432.0 99.6Q432.5 99.6 432.8 99.5Q433.2 99.3 433.4 99.1Q433.6 98.8 433.6 98.5L433.6 98.5Q433.6 98.2 433.4 98.0Q433.2 97.8 432.9 97.7Q432.5 97.5 432.1 97.4L432.1 97.4L431.1 97.2Q430.0 96.9 429.4 96.3Q428.7 95.7 428.7 94.8L428.7 94.8Q428.7 94.0 429.2 93.4Q429.6 92.8 430.3 92.5Q431.1 92.2 432.0 92.2L432.0 92.2Q433.0 92.2 433.7 92.5Q434.4 92.8 434.8 93.4Q435.2 94.0 435.2 94.8L435.2 94.8L433.5 94.8Q433.5 94.2 433.1 93.9Q432.7 93.7 432.0 93.7L432.0 93.7Q431.5 93.7 431.2 93.8Q430.9 93.9 430.7 94.1Q430.6 94.4 430.6 94.7L430.6 94.7Q430.6 95.0 430.8 95.2Q431.0 95.4 431.3 95.5Q431.6 95.7 432.0 95.8L432.0 95.8L432.8 96.0Q433.3 96.1 433.8 96.3Q434.3 96.5 434.6 96.8Q435.0 97.1 435.2 97.5Q435.4 98.0 435.4 98.5L435.4 98.5Q435.4 99.3 435.0 99.9Q434.6 100.5 433.8 100.8Q433.1 101.1 432.0 101.1ZM439.5 101.1L439.5 101.1Q438.5 101.1 437.8 100.7Q437.1 100.3 436.7 99.5Q436.3 98.8 436.3 97.8L436.3 97.8Q436.3 96.7 436.7 96.0Q437.1 95.2 437.8 94.8Q438.5 94.4 439.5 94.4L439.5 94.4Q440.1 94.4 440.6 94.5Q441.1 94.7 441.5 95.0Q441.9 95.2 442.1 95.6Q442.4 96.0 442.4 96.5L442.4 96.5L440.8 96.9Q440.8 96.6 440.7 96.4Q440.5 96.2 440.4 96.0Q440.2 95.9 440.0 95.8Q439.8 95.8 439.6 95.8L439.6 95.8Q439.1 95.8 438.8 96.0Q438.4 96.3 438.3 96.7Q438.1 97.2 438.1 97.7L438.1 97.7Q438.1 98.3 438.3 98.8Q438.4 99.2 438.8 99.5Q439.1 99.7 439.6 99.7L439.6 99.7Q439.8 99.7 440.0 99.7Q440.2 99.6 440.4 99.4Q440.6 99.3 440.7 99.1Q440.8 98.9 440.8 98.6L440.8 98.6L442.5 98.9Q442.4 99.4 442.1 99.8Q441.9 100.2 441.5 100.5Q441.1 100.8 440.6 101.0Q440.1 101.1 439.5 101.1ZM445.4 101L443.7 101L443.7 94.4L445.4 94.4L445.4 101ZM444.5 93.6L444.5 93.6Q444.1 93.6 443.9 93.3Q443.6 93.1 443.6 92.7L443.6 92.7Q443.6 92.3 443.9 92.1Q444.1 91.8 444.5 91.8L444.5 91.8Q444.9 91.8 445.2 92.0Q445.5 92.3 445.5 92.7L445.5 92.7Q445.5 93.1 445.2 93.3Q444.9 93.6 444.5 93.6ZM448.7 101L446.9 101L446.9 92.3L448.7 92.3L448.7 97.0L448.8 97.0L450.9 94.4L453.0 94.4L450.5 97.3L453.1 101L451.0 101L449.2 98.3L448.7 98.9L448.7 101ZM455.6 101L453.9 101L453.9 94.4L455.6 94.4L455.6 101ZM454.8 93.6L454.8 93.6Q454.4 93.6 454.1 93.3Q453.8 93.1 453.8 92.7L453.8 92.7Q453.8 92.3 454.1 92.1Q454.4 91.8 454.8 91.8L454.8 91.8Q455.2 91.8 455.4 92.0Q455.7 92.3 455.7 92.7L455.7 92.7Q455.7 93.1 455.4 93.3Q455.2 93.6 454.8 93.6ZM459.2 94.4L460.4 94.4L460.4 95.8L459.2 95.8L459.2 99.1Q459.2 99.4 459.3 99.5Q459.4 99.7 459.8 99.7L459.8 99.7Q459.9 99.7 460.0 99.7Q460.2 99.6 460.3 99.6L460.3 99.6L460.6 100.9Q460.3 101.0 460.0 101.1Q459.7 101.1 459.4 101.1L459.4 101.1Q458.4 101.1 457.9 100.6Q457.4 100.1 457.4 99.2L457.4 99.2L457.4 95.8L456.5 95.8L456.5 94.4L457.4 94.4L457.4 92.9L459.2 92.9L459.2 94.4ZM461.6 96.7L465.6 96.7L465.6 98.1L461.6 98.1L461.6 96.7ZM472.7 101L467.2 101L467.2 92.3L469.0 92.3L469.0 99.5L472.7 99.5L472.7 101ZM476.9 101.1L476.9 101.1Q475.9 101.1 475.2 100.7Q474.4 100.3 474.0 99.6Q473.7 98.8 473.7 97.8L473.7 97.8Q473.7 96.7 474.0 96.0Q474.4 95.2 475.1 94.8Q475.8 94.4 476.8 94.4L476.8 94.4Q477.4 94.4 478.0 94.6Q478.6 94.8 479.0 95.2Q479.4 95.6 479.6 96.2Q479.9 96.8 479.9 97.7L479.9 97.7L479.9 98.2L475.4 98.2Q475.4 98.7 475.6 99.0L475.6 99.0Q475.8 99.4 476.1 99.6Q476.5 99.8 476.9 99.8L476.9 99.8Q477.2 99.8 477.5 99.7Q477.7 99.6 477.9 99.5Q478.1 99.3 478.2 99.0L478.2 99.0L479.8 99.3Q479.6 99.9 479.2 100.3Q478.8 100.7 478.2 100.9Q477.7 101.1 476.9 101.1ZM475.4 97.1L475.4 97.1L478.2 97.1Q478.1 96.8 478.0 96.5L478.0 96.5Q477.9 96.1 477.6 95.9Q477.3 95.7 476.8 95.7L476.8 95.7Q476.4 95.7 476.0 95.9Q475.7 96.1 475.6 96.5L475.6 96.5Q475.4 96.7 475.4 97.1ZM482.9 101.1L482.9 101.1Q482.3 101.1 481.8 100.9Q481.3 100.7 481.0 100.3Q480.7 99.8 480.7 99.2L480.7 99.2Q480.7 98.6 480.9 98.3Q481.1 97.9 481.5 97.7Q481.8 97.4 482.3 97.3Q482.7 97.2 483.2 97.2L483.2 97.2Q483.8 97.1 484.1 97.0Q484.5 97.0 484.6 96.9Q484.8 96.8 484.8 96.6L484.8 96.6L484.8 96.5Q484.8 96.3 484.7 96.1Q484.5 95.9 484.3 95.8Q484.1 95.7 483.8 95.7L483.8 95.7Q483.4 95.7 483.2 95.8Q482.9 95.9 482.8 96.0Q482.6 96.2 482.5 96.4L482.5 96.4L480.9 96.2Q481.1 95.6 481.5 95.2Q481.9 94.8 482.4 94.6Q483.0 94.4 483.8 94.4L483.8 94.4Q484.3 94.4 484.8 94.5Q485.3 94.6 485.7 94.9Q486.1 95.1 486.3 95.6Q486.5 96.0 486.5 96.6L486.5 96.6L486.5 101L484.9 101L484.9 100.1L484.8 100.1Q484.7 100.4 484.4 100.6Q484.1 100.9 483.8 101.0Q483.4 101.1 482.9 101.1ZM483.4 99.9L483.4 99.9Q483.8 99.9 484.1 99.7Q484.4 99.6 484.6 99.3Q484.8 99.0 484.8 98.7L484.8 98.7L484.8 97.9Q484.7 98.0 484.6 98.1Q484.4 98.1 484.2 98.1Q484.0 98.2 483.8 98.2Q483.6 98.2 483.5 98.2L483.5 98.2Q483.2 98.3 482.9 98.4Q482.7 98.5 482.5 98.7Q482.4 98.8 482.4 99.1L482.4 99.1Q482.4 99.4 482.5 99.5Q482.7 99.7 482.9 99.8Q483.1 99.9 483.4 99.9ZM489.8 101L488.0 101L488.0 94.4L489.7 94.4L489.7 95.6L489.8 95.6Q490.0 95.0 490.4 94.7Q490.8 94.4 491.4 94.4L491.4 94.4Q491.5 94.4 491.7 94.4Q491.8 94.4 492.0 94.4L492.0 94.4L492.0 96.0Q491.8 95.9 491.6 95.9Q491.4 95.9 491.2 95.9L491.2 95.9Q490.8 95.9 490.5 96.1Q490.2 96.2 490.0 96.6Q489.8 96.9 489.8 97.3L489.8 97.3L489.8 101ZM494.7 97.2L494.7 97.2L494.7 101L492.9 101L492.9 94.4L494.6 94.4L494.6 95.8Q494.9 95.2 495.3 94.8L495.3 94.8Q495.8 94.4 496.6 94.4L496.6 94.4Q497.3 94.4 497.8 94.7Q498.3 95.0 498.6 95.5Q498.9 96.1 498.9 96.8L498.9 96.8L498.9 101L497.1 101L497.1 97.1Q497.1 96.5 496.8 96.2Q496.5 95.8 496.0 95.8L496.0 95.8Q495.6 95.8 495.3 96.0Q495.0 96.2 494.8 96.5Q494.7 96.8 494.7 97.2Z "/></g><mask id="satori_om-id-2-2"><rect x="33" y="123" width="794" height="25" fill="#fff" mask="url(#satori_om-id)"/></mask><mask id="satori_om-id-2-2-0"><rect x="33" y="130" width="90" height="12" fill="#fff" mask="url(#satori_om-id)"/></mask><g mask="url(#satori_om-id)" clip-path="url(#satori_cp-id)"><path fill="#f43f5e" d="M35.1 140L33.7 140L33.7 132.7L38.4 132.7L38.4 134.0L35.1 134.0L35.1 136.0L38.1 136.0L38.1 137.2L35.1 137.2L35.1 140ZM42.0 140L40.5 140L40.5 132.7L43.4 132.7Q44.2 132.7 44.8 133.0Q45.4 133.3 45.7 133.8Q46.0 134.4 46.0 135.1Q46.0 135.8 45.7 136.3Q45.3 136.9 44.8 137.1L44.8 137.1Q44.7 137.1 44.7 137.2L44.7 137.2L46.2 140L44.6 140L43.2 137.4L42.0 137.4L42.0 140ZM42.0 134.0L42.0 136.2L43.1 136.2Q43.6 136.2 43.8 136.1Q44.1 135.9 44.3 135.7Q44.4 135.5 44.4 135.1L44.4 135.1Q44.4 134.7 44.3 134.5Q44.1 134.2 43.8 134.1Q43.5 134.0 43.1 134.0L43.1 134.0L42.0 134.0ZM49.3 140L47.7 140L50.2 132.7L52.1 132.7L54.7 140L53.0 140L52.4 138.3L49.9 138.3L49.3 140ZM50.2 137.1L52.1 137.1L51.8 136.5Q51.6 135.8 51.4 135L51.4 135Q51.3 134.5 51.1 133.9L51.1 133.9Q51.0 134.5 50.8 135.0L50.8 135.0Q50.6 135.8 50.4 136.5L50.4 136.5L50.2 137.1ZM58.0 140L56.6 140L56.6 132.7L58.8 132.7L60.0 136.1Q60.1 136.3 60.2 136.7Q60.3 137.0 60.4 137.5L60.4 137.5Q60.5 137.9 60.6 138.3L60.6 138.3Q60.7 137.9 60.7 137.5L60.7 137.5Q60.8 137.1 60.9 136.7Q61.0 136.3 61.1 136.1L61.1 136.1L62.3 132.7L64.6 132.7L64.6 140L63.1 140L63.1 136.6Q63.1 136.3 63.1 136.0Q63.1 135.6 63.1 135.2Q63.1 134.8 63.1 134.4L63.1 134.4Q63.1 134.2 63.1 134.0L63.1 134.0Q63.1 134.2 63.0 134.4L63.0 134.4Q62.9 134.9 62.8 135.3Q62.7 135.7 62.6 136.0Q62.5 136.3 62.4 136.6L62.4 136.6L61.2 140L59.9 140L58.7 136.6Q58.6 136.3 58.5 136.0Q58.4 135.7 58.3 135.3Q58.2 134.9 58.1 134.4L58.1 134.4Q58.0 134.2 58.0 134.1L58.0 134.1Q58.0 134.2 58.0 134.4L58.0 134.4Q58.0 134.8 58.0 135.2Q58.0 135.6 58.0 136.0Q58.0 136.3 58.0 136.6L58.0 136.6L58.0 140ZM71.8 140L66.9 140L66.9 132.7L71.7 132.7L71.7 134.0L68.4 134.0L68.4 135.7L71.5 135.7L71.5 136.9L68.4 136.9L68.4 138.8L71.8 138.8L71.8 140ZM77.2 140L75.5 140L73.5 132.7L75.2 132.7L76.0 136.3Q76.1 136.8 76.2 137.3Q76.3 137.8 76.4 138.3L76.4 138.3Q76.4 138.4 76.4 138.5L76.4 138.5Q76.4 138.4 76.4 138.3L76.4 138.3Q76.5 137.8 76.6 137.3Q76.7 136.8 76.8 136.3L76.8 136.3L77.7 132.7L79.3 132.7L80.1 136.3Q80.3 136.8 80.3 137.3Q80.4 137.8 80.5 138.3L80.5 138.3Q80.5 138.4 80.6 138.5L80.6 138.5Q80.6 138.4 80.6 138.3L80.6 138.3Q80.7 137.8 80.8 137.3Q80.9 136.8 81.0 136.3L81.0 136.3L81.8 132.7L83.4 132.7L81.5 140L79.8 140L78.8 136.3Q78.6 135.7 78.5 134.9L78.5 134.9Q78.5 134.7 78.5 134.5L78.5 134.5Q78.4 134.7 78.4 134.9L78.4 134.9Q78.3 135.6 78.2 136.3L78.2 136.3L77.2 140ZM88.5 140.1L88.5 140.1Q87.6 140.1 86.8 139.7Q86.0 139.2 85.6 138.4Q85.1 137.5 85.1 136.4L85.1 136.4Q85.1 135.2 85.6 134.3Q86.0 133.5 86.8 133.1Q87.6 132.6 88.5 132.6L88.5 132.6Q89.5 132.6 90.3 133.1Q91.0 133.5 91.5 134.3Q91.9 135.2 91.9 136.4L91.9 136.4Q91.9 137.5 91.5 138.4Q91.0 139.2 90.3 139.7Q89.5 140.1 88.5 140.1ZM88.5 138.8L88.5 138.8Q89.1 138.8 89.5 138.5Q89.9 138.2 90.2 137.7Q90.4 137.1 90.4 136.4L90.4 136.4Q90.4 135.6 90.2 135.0Q89.9 134.5 89.5 134.2Q89.1 134.0 88.5 134.0L88.5 134.0Q88.0 134.0 87.5 134.2Q87.1 134.5 86.9 135.0Q86.6 135.6 86.6 136.4L86.6 136.4Q86.6 137.1 86.9 137.7Q87.1 138.2 87.5 138.5Q88.0 138.8 88.5 138.8ZM95.5 140L94.0 140L94.0 132.7L96.9 132.7Q97.7 132.7 98.3 133.0Q98.9 133.3 99.2 133.8Q99.5 134.4 99.5 135.1Q99.5 135.8 99.2 136.3Q98.9 136.9 98.3 137.1L98.3 137.1Q98.2 137.1 98.2 137.2L98.2 137.2L99.7 140L98.1 140L96.7 137.4L95.5 137.4L95.5 140ZM95.5 134.0L95.5 136.2L96.6 136.2Q97.1 136.2 97.3 136.1Q97.6 135.9 97.8 135.7Q97.9 135.5 97.9 135.1L97.9 135.1Q97.9 134.7 97.8 134.5Q97.6 134.2 97.3 134.1Q97.1 134.0 96.6 134.0L96.6 134.0L95.5 134.0ZM103.1 140L101.6 140L101.6 132.7L103.1 132.7L103.1 134.7L103.1 136.4Q103.1 136.3 103.1 136.3L103.1 136.3Q103.4 135.9 103.6 135.6Q103.9 135.2 104.2 134.8L104.2 134.8L106.0 132.7L107.8 132.7L105.1 135.9L107.9 140L106.1 140L104.1 136.9L103.1 137.9L103.1 140ZM112.5 140.1L112.5 140.1Q111.6 140.1 110.9 139.8Q110.3 139.6 109.9 139.0Q109.6 138.5 109.5 137.7L109.5 137.7L111.0 137.7Q111.0 138.1 111.2 138.4Q111.4 138.6 111.7 138.7Q112.0 138.8 112.4 138.8L112.4 138.8Q112.8 138.8 113.1 138.7Q113.4 138.6 113.6 138.4Q113.8 138.2 113.8 137.9L113.8 137.9Q113.8 137.7 113.6 137.5Q113.5 137.3 113.2 137.2Q112.9 137.1 112.5 137.0L112.5 137.0L111.7 136.8Q110.8 136.6 110.3 136.1Q109.7 135.6 109.7 134.8L109.7 134.8Q109.7 134.2 110.1 133.7Q110.5 133.2 111.1 132.9Q111.7 132.6 112.5 132.6L112.5 132.6Q113.3 132.6 113.9 132.9Q114.5 133.2 114.8 133.7Q115.2 134.2 115.2 134.8L115.2 134.8L113.7 134.8Q113.7 134.4 113.4 134.1Q113.0 133.9 112.5 133.9L112.5 133.9Q112.1 133.9 111.8 134.0Q111.6 134.1 111.4 134.3Q111.3 134.5 111.3 134.7L111.3 134.7Q111.3 135.0 111.4 135.2Q111.6 135.3 111.9 135.5Q112.1 135.6 112.4 135.6L112.4 135.6L113.1 135.8Q113.6 135.9 113.9 136.1Q114.3 136.3 114.6 136.5Q114.9 136.8 115.1 137.1Q115.3 137.5 115.3 137.9L115.3 137.9Q115.3 138.6 114.9 139.1Q114.6 139.6 114.0 139.8Q113.3 140.1 112.5 140.1Z "/></g><mask id="satori_om-id-2-2-1"><rect x="139" y="123" width="301" height="25" fill="#fff" mask="url(#satori_om-id)"/></mask><defs><clipPath id="satori_bc-id-2-2-1-0" clip-path="url(#satori_cp-id)"><path x="139" y="123" width="62" height="25" d="M145,123 h50 a6,6 0 0 1 6,6 v13 a6,6 0 0 1 -6,6 h-50 a6,6 0 0 1 -6,-6 v-13 a6,6 0 0 1 6,-6"/></clipPath></defs><mask id="satori_om-id-2-2-1-0"><rect x="140" y="124" width="60" height="23" fill="#fff" mask="url(#satori_om-id)"/><path width="62" height="25" fill="none" stroke="#000" stroke-width="2" d="M140.757,124.757 A6,6 0 0 1 145,123 h50 a6,6 0 0 1 6,6 v13 a6,6 0 0 1 -6,6 h-50 a6,6 0 0 1 -6,-6 v-13 A6,6 0 0 1 140.757,124.757"/></mask><path x="139" y="123" width="62" height="25" fill="#f43f5e15" d="M145,123 h50 a6,6 0 0 1 6,6 v13 a6,6 0 0 1 -6,6 h-50 a6,6 0 0 1 -6,-6 v-13 a6,6 0 0 1 6,-6" clip-path="url(#satori_cp-id)" mask="url(#satori_om-id)"/><path width="62" height="25" clip-path="url(#satori_bc-id-2-2-1-0)" fill="none" stroke="#f43f5e35" stroke-width="2" d="M140.757,124.757 A6,6 0 0 1 145,123 h50 a6,6 0 0 1 6,6 v13 a6,6 0 0 1 -6,6 h-50 a6,6 0 0 1 -6,-6 v-13 A6,6 0 0 1 140.757,124.757"/><g mask="url(#satori_om-id)" clip-path="url(#satori_cp-id)"><path fill="rgba(225,220,255,0.85)" d="M155.6 140L153.8 140L153.8 131.3L157.2 131.3Q158.2 131.3 158.9 131.6Q159.6 132.0 160.0 132.6Q160.3 133.3 160.3 134.1Q160.3 135.0 159.9 135.6Q159.6 136.2 158.9 136.5L158.9 136.5Q158.8 136.6 158.8 136.6L158.8 136.6L160.6 140L158.6 140L157.0 136.9L155.6 136.9L155.6 140ZM155.6 132.7L155.6 135.4L156.9 135.4Q157.4 135.4 157.8 135.3Q158.1 135.1 158.3 134.8Q158.5 134.5 158.5 134.1L158.5 134.1Q158.5 133.7 158.3 133.4Q158.1 133.1 157.8 132.9Q157.4 132.7 156.9 132.7L156.9 132.7L155.6 132.7ZM164.6 140.1L164.6 140.1Q163.6 140.1 162.9 139.7Q162.1 139.3 161.7 138.6Q161.4 137.8 161.4 136.8L161.4 136.8Q161.4 135.7 161.7 135.0Q162.1 134.2 162.8 133.8Q163.5 133.4 164.5 133.4L164.5 133.4Q165.1 133.4 165.7 133.6Q166.3 133.8 166.7 134.2Q167.1 134.6 167.3 135.2Q167.6 135.8 167.6 136.7L167.6 136.7L167.6 137.2L163.1 137.2Q163.1 137.7 163.3 138.0L163.3 138.0Q163.5 138.4 163.8 138.6Q164.2 138.8 164.6 138.8L164.6 138.8Q164.9 138.8 165.2 138.7Q165.4 138.6 165.6 138.5Q165.8 138.3 165.9 138.0L165.9 138.0L167.5 138.3Q167.3 138.9 166.9 139.3Q166.5 139.7 165.9 139.9Q165.4 140.1 164.6 140.1ZM163.1 136.1L163.1 136.1L165.9 136.1Q165.8 135.8 165.7 135.5L165.7 135.5Q165.6 135.1 165.3 134.9Q165.0 134.7 164.5 134.7L164.5 134.7Q164.1 134.7 163.7 134.9Q163.4 135.1 163.3 135.5L163.3 135.5Q163.1 135.7 163.1 136.1ZM170.6 140.1L170.6 140.1Q170.0 140.1 169.5 139.9Q169.0 139.7 168.7 139.3Q168.4 138.8 168.4 138.2L168.4 138.2Q168.4 137.6 168.6 137.3Q168.8 136.9 169.2 136.7Q169.5 136.4 170.0 136.3Q170.4 136.2 170.9 136.2L170.9 136.2Q171.5 136.1 171.8 136.0Q172.2 136.0 172.3 135.9Q172.5 135.8 172.5 135.6L172.5 135.6L172.5 135.5Q172.5 135.3 172.4 135.1Q172.3 134.9 172.0 134.8Q171.8 134.7 171.5 134.7L171.5 134.7Q171.1 134.7 170.9 134.8Q170.6 134.9 170.5 135.0Q170.3 135.2 170.2 135.4L170.2 135.4L168.6 135.2Q168.8 134.6 169.2 134.2Q169.6 133.8 170.2 133.6Q170.7 133.4 171.5 133.4L171.5 133.4Q172.0 133.4 172.5 133.5Q173.0 133.6 173.4 133.9Q173.8 134.1 174.0 134.6Q174.2 135.0 174.2 135.6L174.2 135.6L174.2 140L172.6 140L172.6 139.1L172.5 139.1Q172.4 139.4 172.1 139.6Q171.8 139.9 171.5 140.0Q171.1 140.1 170.6 140.1ZM171.1 138.9L171.1 138.9Q171.5 138.9 171.8 138.7Q172.1 138.6 172.3 138.3Q172.5 138.0 172.5 137.7L172.5 137.7L172.5 136.9Q172.4 137.0 172.3 137.1Q172.1 137.1 171.9 137.1Q171.7 137.2 171.5 137.2Q171.3 137.2 171.2 137.2L171.2 137.2Q170.9 137.3 170.6 137.4Q170.4 137.5 170.3 137.7Q170.1 137.8 170.1 138.1L170.1 138.1Q170.1 138.4 170.2 138.5Q170.4 138.7 170.6 138.8Q170.8 138.9 171.1 138.9ZM178.7 140.1L178.7 140.1Q177.7 140.1 177.0 139.7Q176.3 139.3 175.9 138.5Q175.5 137.8 175.5 136.8L175.5 136.8Q175.5 135.7 175.9 135.0Q176.3 134.2 177.0 133.8Q177.7 133.4 178.7 133.4L178.7 133.4Q179.3 133.4 179.7 133.5Q180.2 133.7 180.6 134.0Q181.0 134.2 181.2 134.6Q181.5 135.0 181.6 135.5L181.6 135.5L180.0 135.9Q179.9 135.6 179.8 135.4Q179.7 135.2 179.5 135.0Q179.4 134.9 179.2 134.8Q178.9 134.8 178.7 134.8L178.7 134.8Q178.2 134.8 177.9 135.0Q177.6 135.3 177.4 135.7Q177.3 136.2 177.3 136.7L177.3 136.7Q177.3 137.3 177.4 137.8Q177.6 138.2 177.9 138.5Q178.2 138.7 178.7 138.7L178.7 138.7Q178.9 138.7 179.2 138.7Q179.4 138.6 179.5 138.4Q179.7 138.3 179.8 138.1Q179.9 137.9 180.0 137.6L180.0 137.6L181.6 137.9Q181.5 138.4 181.3 138.8Q181.0 139.2 180.6 139.5Q180.3 139.8 179.8 140.0Q179.3 140.1 178.7 140.1ZM184.8 133.4L186.1 133.4L186.1 134.8L184.8 134.8L184.8 138.1Q184.8 138.4 185.0 138.5Q185.1 138.7 185.4 138.7L185.4 138.7Q185.5 138.7 185.7 138.7Q185.9 138.6 186.0 138.6L186.0 138.6L186.2 139.9Q185.9 140.0 185.7 140.1Q185.4 140.1 185.1 140.1L185.1 140.1Q184.1 140.1 183.6 139.6Q183.1 139.1 183.1 138.2L183.1 138.2L183.1 134.8L182.2 134.8L182.2 133.4L183.1 133.4L183.1 131.9L184.8 131.9L184.8 133.4Z "/></g><defs><clipPath id="satori_bc-id-2-2-1-1" clip-path="url(#satori_cp-id)"><path x="208" y="123" width="70" height="25" d="M214,123 h58 a6,6 0 0 1 6,6 v13 a6,6 0 0 1 -6,6 h-58 a6,6 0 0 1 -6,-6 v-13 a6,6 0 0 1 6,-6"/></clipPath></defs><mask id="satori_om-id-2-2-1-1"><rect x="209" y="124" width="68" height="23" fill="#fff" mask="url(#satori_om-id)"/><path width="70" height="25" fill="none" stroke="#000" stroke-width="2" d="M209.757,124.757 A6,6 0 0 1 214,123 h58 a6,6 0 0 1 6,6 v13 a6,6 0 0 1 -6,6 h-58 a6,6 0 0 1 -6,-6 v-13 A6,6 0 0 1 209.757,124.757"/></mask><path x="208" y="123" width="70" height="25" fill="#f43f5e15" d="M214,123 h58 a6,6 0 0 1 6,6 v13 a6,6 0 0 1 -6,6 h-58 a6,6 0 0 1 -6,-6 v-13 a6,6 0 0 1 6,-6" clip-path="url(#satori_cp-id)" mask="url(#satori_om-id)"/><path width="70" height="25" clip-path="url(#satori_bc-id-2-2-1-1)" fill="none" stroke="#f43f5e35" stroke-width="2" d="M209.757,124.757 A6,6 0 0 1 214,123 h58 a6,6 0 0 1 6,6 v13 a6,6 0 0 1 -6,6 h-58 a6,6 0 0 1 -6,-6 v-13 A6,6 0 0 1 209.757,124.757"/><g mask="url(#satori_om-id)" clip-path="url(#satori_cp-id)"><path fill="rgba(225,220,255,0.85)" d="M224.6 140L222.8 140L222.8 131.3L224.8 131.3L227.5 135.7Q227.8 136.0 228.0 136.4Q228.2 136.8 228.4 137.3L228.4 137.3Q228.5 137.6 228.6 137.8L228.6 137.8Q228.6 137.6 228.6 137.4L228.6 137.4Q228.6 136.8 228.6 136.3Q228.5 135.8 228.5 135.5L228.5 135.5L228.5 131.3L230.4 131.3L230.4 140L228.4 140L225.8 136.0Q225.6 135.5 225.3 135.1Q225.1 134.7 224.9 134.2L224.9 134.2Q224.7 133.9 224.5 133.5L224.5 133.5Q224.5 133.8 224.5 134.2L224.5 134.2Q224.6 134.7 224.6 135.2Q224.6 135.7 224.6 136.0L224.6 136.0L224.6 140ZM234.9 140.1L234.9 140.1Q233.9 140.1 233.1 139.7Q232.4 139.3 232.0 138.6Q231.6 137.8 231.6 136.8L231.6 136.8Q231.6 135.7 232.0 135.0Q232.4 134.2 233.1 133.8Q233.8 133.4 234.8 133.4L234.8 133.4Q235.4 133.4 236.0 133.6Q236.5 133.8 236.9 134.2Q237.4 134.6 237.6 135.2Q237.8 135.8 237.8 136.7L237.8 136.7L237.8 137.2L233.4 137.2Q233.4 137.7 233.6 138.0L233.6 138.0Q233.7 138.4 234.1 138.6Q234.4 138.8 234.9 138.8L234.9 138.8Q235.2 138.8 235.4 138.7Q235.7 138.6 235.9 138.5Q236.1 138.3 236.2 138.0L236.2 138.0L237.7 138.3Q237.6 138.9 237.2 139.3Q236.8 139.7 236.2 139.9Q235.6 140.1 234.9 140.1ZM233.4 136.1L233.4 136.1L236.2 136.1Q236.1 135.8 236.0 135.5L236.0 135.5Q235.9 135.1 235.5 134.9Q235.2 134.7 234.8 134.7L234.8 134.7Q234.3 134.7 234.0 134.9Q233.7 135.1 233.5 135.5L233.5 135.5Q233.4 135.7 233.4 136.1ZM240.4 140L238.5 140L240.7 136.6L238.7 133.4L240.6 133.4L241.2 134.5Q241.4 135.0 241.7 135.5L241.7 135.5Q241.7 135.6 241.8 135.8L241.8 135.8Q241.9 135.6 241.9 135.5L241.9 135.5Q242.1 135.0 242.4 134.5L242.4 134.5L243.1 133.4L244.9 133.4L242.9 136.7L245.0 140L243.1 140L242.4 138.8Q242.1 138.3 241.9 137.8L241.9 137.8Q241.8 137.6 241.8 137.5L241.8 137.5Q241.7 137.6 241.6 137.8L241.6 137.8Q241.4 138.3 241.1 138.8L241.1 138.8L240.4 140ZM248.0 133.4L249.3 133.4L249.3 134.8L248.0 134.8L248.0 138.1Q248.0 138.4 248.2 138.5Q248.3 138.7 248.6 138.7L248.6 138.7Q248.7 138.7 248.9 138.7Q249.1 138.6 249.2 138.6L249.2 138.6L249.4 139.9Q249.1 140.0 248.9 140.1Q248.6 140.1 248.3 140.1L248.3 140.1Q247.3 140.1 246.8 139.6Q246.3 139.1 246.3 138.2L246.3 138.2L246.3 134.8L245.4 134.8L245.4 133.4L246.3 133.4L246.3 131.9L248.0 131.9L248.0 133.4ZM251.7 140.1L251.7 140.1Q251.2 140.1 250.9 139.8Q250.6 139.5 250.6 139.1L250.6 139.1Q250.6 138.7 250.9 138.4Q251.2 138.1 251.7 138.1L251.7 138.1Q252.1 138.1 252.4 138.4Q252.7 138.7 252.7 139.1L252.7 139.1Q252.7 139.5 252.4 139.8Q252.1 140.1 251.7 140.1ZM254.4 140.3L254.4 133.4L256.2 133.4L256.2 140.3Q256.2 141.1 255.9 141.5Q255.6 142.0 255.0 142.2Q254.5 142.4 253.7 142.4L253.7 142.4L253.4 142.4L253.4 141.1L253.6 141.1Q254.0 141.1 254.2 140.9Q254.4 140.7 254.4 140.3L254.4 140.3ZM255.3 132.6L255.3 132.6Q254.9 132.6 254.6 132.3Q254.3 132.1 254.3 131.7L254.3 131.7Q254.3 131.3 254.6 131.1Q254.9 130.8 255.3 130.8L255.3 130.8Q255.7 130.8 256.0 131.0Q256.3 131.3 256.3 131.7L256.3 131.7Q256.3 132.1 256.0 132.3Q255.7 132.6 255.3 132.6ZM260.3 140.1L260.3 140.1Q259.5 140.1 258.9 139.9Q258.3 139.7 257.9 139.2Q257.5 138.8 257.4 138.2L257.4 138.2L259.0 137.9Q259.1 138.4 259.5 138.6Q259.8 138.8 260.3 138.8L260.3 138.8Q260.8 138.8 261.1 138.6Q261.4 138.5 261.4 138.2L261.4 138.2Q261.4 137.9 261.2 137.7Q261.0 137.6 260.6 137.5L260.6 137.5L259.4 137.3Q258.5 137.1 258.0 136.6Q257.5 136.1 257.5 135.4L257.5 135.4Q257.5 134.8 257.9 134.3Q258.2 133.9 258.8 133.6Q259.5 133.4 260.3 133.4L260.3 133.4Q261.1 133.4 261.6 133.6Q262.2 133.8 262.6 134.2Q262.9 134.6 263.0 135.1L263.0 135.1L261.5 135.4Q261.4 135.1 261.1 134.8Q260.8 134.6 260.3 134.6L260.3 134.6Q259.9 134.6 259.6 134.8Q259.3 135.0 259.3 135.3L259.3 135.3Q259.3 135.5 259.5 135.7Q259.7 135.9 260.1 136.0L260.1 136.0L261.3 136.2Q262.3 136.4 262.7 136.8Q263.2 137.3 263.2 138.0L263.2 138.0Q263.2 138.6 262.8 139.1Q262.4 139.6 261.8 139.9Q261.1 140.1 260.3 140.1Z "/></g><defs><clipPath id="satori_bc-id-2-2-1-2" clip-path="url(#satori_cp-id)"><path x="285" y="123" width="74" height="25" d="M291,123 h62 a6,6 0 0 1 6,6 v13 a6,6 0 0 1 -6,6 h-62 a6,6 0 0 1 -6,-6 v-13 a6,6 0 0 1 6,-6"/></clipPath></defs><mask id="satori_om-id-2-2-1-2"><rect x="286" y="124" width="72" height="23" fill="#fff" mask="url(#satori_om-id)"/><path width="74" height="25" fill="none" stroke="#000" stroke-width="2" d="M286.757,124.757 A6,6 0 0 1 291,123 h62 a6,6 0 0 1 6,6 v13 a6,6 0 0 1 -6,6 h-62 a6,6 0 0 1 -6,-6 v-13 A6,6 0 0 1 286.757,124.757"/></mask><path x="285" y="123" width="74" height="25" fill="#f43f5e15" d="M291,123 h62 a6,6 0 0 1 6,6 v13 a6,6 0 0 1 -6,6 h-62 a6,6 0 0 1 -6,-6 v-13 a6,6 0 0 1 6,-6" clip-path="url(#satori_cp-id)" mask="url(#satori_om-id)"/><path width="74" height="25" clip-path="url(#satori_bc-id-2-2-1-2)" fill="none" stroke="#f43f5e35" stroke-width="2" d="M286.757,124.757 A6,6 0 0 1 291,123 h62 a6,6 0 0 1 6,6 v13 a6,6 0 0 1 -6,6 h-62 a6,6 0 0 1 -6,-6 v-13 A6,6 0 0 1 286.757,124.757"/><g mask="url(#satori_om-id)" clip-path="url(#satori_cp-id)"><path fill="rgba(225,220,255,0.85)" d="M301.6 140L299.8 140L299.8 131.3L305.5 131.3L305.5 132.8L301.6 132.8L301.6 135.2L305.1 135.2L305.1 136.6L301.6 136.6L301.6 140ZM308.6 140.1L308.6 140.1Q308 140.1 307.5 139.9Q307.0 139.7 306.7 139.3Q306.4 138.8 306.4 138.2L306.4 138.2Q306.4 137.6 306.6 137.3Q306.8 136.9 307.2 136.7Q307.5 136.4 308.0 136.3Q308.4 136.2 308.9 136.2L308.9 136.2Q309.5 136.1 309.8 136.0Q310.2 136.0 310.3 135.9Q310.5 135.8 310.5 135.6L310.5 135.6L310.5 135.5Q310.5 135.3 310.4 135.1Q310.3 134.9 310.0 134.8Q309.8 134.7 309.5 134.7L309.5 134.7Q309.1 134.7 308.9 134.8Q308.6 134.9 308.5 135.0Q308.3 135.2 308.2 135.4L308.2 135.4L306.6 135.2Q306.8 134.6 307.2 134.2Q307.6 133.8 308.2 133.6Q308.8 133.4 309.5 133.4L309.5 133.4Q310.0 133.4 310.5 133.5Q311.0 133.6 311.4 133.9Q311.8 134.1 312.0 134.6Q312.3 135.0 312.3 135.6L312.3 135.6L312.3 140L310.6 140L310.6 139.1L310.5 139.1Q310.4 139.4 310.1 139.6Q309.9 139.9 309.5 140.0Q309.1 140.1 308.6 140.1ZM309.1 138.9L309.1 138.9Q309.5 138.9 309.8 138.7Q310.2 138.6 310.3 138.3Q310.5 138.0 310.5 137.7L310.5 137.7L310.5 136.9Q310.4 137.0 310.3 137.1Q310.1 137.1 309.9 137.1Q309.7 137.2 309.5 137.2Q309.4 137.2 309.2 137.2L309.2 137.2Q308.9 137.3 308.6 137.4Q308.4 137.5 308.3 137.7Q308.1 137.8 308.1 138.1L308.1 138.1Q308.1 138.4 308.3 138.5Q308.4 138.7 308.6 138.8Q308.8 138.9 309.1 138.9ZM316.4 140.1L316.4 140.1Q315.6 140.1 315.0 139.9Q314.4 139.7 314.0 139.2Q313.6 138.8 313.5 138.2L313.5 138.2L315.1 137.9Q315.2 138.4 315.6 138.6Q315.9 138.8 316.4 138.8L316.4 138.8Q316.9 138.8 317.2 138.6Q317.5 138.5 317.5 138.2L317.5 138.2Q317.5 137.9 317.3 137.7Q317.1 137.6 316.7 137.5L316.7 137.5L315.5 137.3Q314.6 137.1 314.1 136.6Q313.6 136.1 313.6 135.4L313.6 135.4Q313.6 134.8 314.0 134.3Q314.3 133.9 314.9 133.6Q315.6 133.4 316.4 133.4L316.4 133.4Q317.2 133.4 317.7 133.6Q318.3 133.8 318.7 134.2Q319.0 134.6 319.1 135.1L319.1 135.1L317.6 135.4Q317.5 135.1 317.2 134.8Q316.9 134.6 316.4 134.6L316.4 134.6Q316.0 134.6 315.7 134.8Q315.4 135.0 315.4 135.3L315.4 135.3Q315.4 135.5 315.6 135.7Q315.8 135.9 316.2 136.0L316.2 136.0L317.4 136.2Q318.4 136.4 318.8 136.8Q319.3 137.3 319.3 138.0L319.3 138.0Q319.3 138.6 318.9 139.1Q318.5 139.6 317.9 139.9Q317.2 140.1 316.4 140.1ZM322.5 133.4L323.7 133.4L323.7 134.8L322.5 134.8L322.5 138.1Q322.5 138.4 322.6 138.5Q322.8 138.7 323.1 138.7L323.1 138.7Q323.2 138.7 323.4 138.7Q323.6 138.6 323.7 138.6L323.7 138.6L323.9 139.9Q323.6 140.0 323.3 140.1Q323.0 140.1 322.8 140.1L322.8 140.1Q321.8 140.1 321.3 139.6Q320.8 139.1 320.8 138.2L320.8 138.2L320.8 134.8L319.8 134.8L319.8 133.4L320.8 133.4L320.8 131.9L322.5 131.9L322.5 133.4ZM326.4 140L324.4 140L327.4 131.3L329.7 131.3L332.8 140L330.8 140L330.1 138.0L327.0 138.0L326.4 140ZM327.5 136.6L329.7 136.6L329.4 135.8Q329.2 135.0 328.9 134L328.9 134Q328.7 133.4 328.5 132.7L328.5 132.7Q328.4 133.4 328.2 134.0L328.2 134.0Q328.0 135.0 327.7 135.8L327.7 135.8L327.5 136.6ZM335.7 140L333.9 140L333.9 131.3L337.3 131.3Q338.3 131.3 339.0 131.6Q339.7 132.0 340.0 132.7Q340.4 133.4 340.4 134.2L340.4 134.2Q340.4 135.1 340.0 135.7Q339.7 136.4 339.0 136.8Q338.2 137.1 337.2 137.1L337.2 137.1L335.7 137.1L335.7 140ZM335.7 132.7L335.7 135.7L337.0 135.7Q337.5 135.7 337.9 135.5Q338.2 135.3 338.4 135.0Q338.6 134.7 338.6 134.2Q338.6 133.8 338.4 133.4Q338.2 133.1 337.9 132.9Q337.5 132.7 336.9 132.7L336.9 132.7L335.7 132.7ZM341.7 131.3L343.4 131.3L343.4 140L341.7 140L341.7 131.3Z "/></g><defs><clipPath id="satori_bc-id-2-2-1-3" clip-path="url(#satori_cp-id)"><path x="366" y="123" width="74" height="25" d="M372,123 h62 a6,6 0 0 1 6,6 v13 a6,6 0 0 1 -6,6 h-62 a6,6 0 0 1 -6,-6 v-13 a6,6 0 0 1 6,-6"/></clipPath></defs><mask id="satori_om-id-2-2-1-3"><rect x="367" y="124" width="72" height="23" fill="#fff" mask="url(#satori_om-id)"/><path width="74" height="25" fill="none" stroke="#000" stroke-width="2" d="M367.757,124.757 A6,6 0 0 1 372,123 h62 a6,6 0 0 1 6,6 v13 a6,6 0 0 1 -6,6 h-62 a6,6 0 0 1 -6,-6 v-13 A6,6 0 0 1 367.757,124.757"/></mask><path x="366" y="123" width="74" height="25" fill="#f43f5e15" d="M372,123 h62 a6,6 0 0 1 6,6 v13 a6,6 0 0 1 -6,6 h-62 a6,6 0 0 1 -6,-6 v-13 a6,6 0 0 1 6,-6" clip-path="url(#satori_cp-id)" mask="url(#satori_om-id)"/><path width="74" height="25" clip-path="url(#satori_bc-id-2-2-1-3)" fill="none" stroke="#f43f5e35" stroke-width="2" d="M367.757,124.757 A6,6 0 0 1 372,123 h62 a6,6 0 0 1 6,6 v13 a6,6 0 0 1 -6,6 h-62 a6,6 0 0 1 -6,-6 v-13 A6,6 0 0 1 367.757,124.757"/><g mask="url(#satori_om-id)" clip-path="url(#satori_cp-id)"><path fill="rgba(225,220,255,0.85)" d="M382.6 140L380.8 140L380.8 131.3L382.8 131.3L385.5 135.7Q385.8 136.0 386.0 136.4Q386.2 136.8 386.4 137.3L386.4 137.3Q386.5 137.6 386.6 137.8L386.6 137.8Q386.6 137.6 386.6 137.4L386.6 137.4Q386.6 136.8 386.6 136.3Q386.5 135.8 386.5 135.5L386.5 135.5L386.5 131.3L388.4 131.3L388.4 140L386.4 140L383.8 136.0Q383.6 135.5 383.3 135.1Q383.1 134.7 382.9 134.2L382.9 134.2Q382.7 133.9 382.5 133.5L382.5 133.5Q382.5 133.8 382.5 134.2L382.5 134.2Q382.6 134.7 382.6 135.2Q382.6 135.7 382.6 136.0L382.6 136.0L382.6 140ZM392.8 140.1L392.8 140.1Q391.8 140.1 391.1 139.7Q390.4 139.3 390.0 138.5Q389.6 137.8 389.6 136.8L389.6 136.8Q389.6 135.7 390.0 135.0Q390.4 134.2 391.1 133.8Q391.8 133.4 392.8 133.4L392.8 133.4Q393.8 133.4 394.5 133.8Q395.3 134.2 395.6 135.0Q396.0 135.7 396.0 136.8L396.0 136.8Q396.0 137.8 395.6 138.5Q395.3 139.3 394.5 139.7Q393.8 140.1 392.8 140.1ZM392.8 138.7L392.8 138.7Q393.3 138.7 393.6 138.5Q393.9 138.2 394.1 137.8Q394.2 137.3 394.2 136.7L394.2 136.7Q394.2 136.2 394.1 135.7Q393.9 135.3 393.6 135.0Q393.3 134.8 392.8 134.8L392.8 134.8Q392.4 134.8 392.0 135.0Q391.7 135.3 391.6 135.7Q391.4 136.2 391.4 136.7L391.4 136.7Q391.4 137.3 391.6 137.8Q391.7 138.2 392.0 138.5Q392.4 138.7 392.8 138.7ZM399.6 140.1L399.6 140.1Q398.9 140.1 398.3 139.7Q397.7 139.3 397.3 138.6Q397.0 137.8 397.0 136.7L397.0 136.7Q397.0 135.6 397.3 134.9Q397.7 134.1 398.3 133.7Q398.9 133.4 399.6 133.4L399.6 133.4Q400.2 133.4 400.6 133.6Q400.9 133.7 401.2 134.0Q401.4 134.3 401.5 134.6L401.5 134.6L401.6 134.6L401.6 131.3L403.3 131.3L403.3 140L401.6 140L401.6 139.0L401.5 139.0Q401.4 139.2 401.2 139.5Q400.9 139.7 400.6 139.9Q400.2 140.1 399.6 140.1ZM400.2 138.7L400.2 138.7Q400.6 138.7 401.0 138.5Q401.3 138.2 401.4 137.8Q401.6 137.3 401.6 136.7L401.6 136.7Q401.6 136.1 401.4 135.7Q401.3 135.3 401.0 135.0Q400.6 134.8 400.2 134.8L400.2 134.8Q399.7 134.8 399.4 135.0Q399.1 135.3 398.9 135.7Q398.8 136.2 398.8 136.7L398.8 136.7Q398.8 137.3 398.9 137.8Q399.1 138.2 399.4 138.4Q399.7 138.7 400.2 138.7ZM407.8 140.1L407.8 140.1Q406.8 140.1 406.1 139.7Q405.3 139.3 404.9 138.6Q404.5 137.8 404.5 136.8L404.5 136.8Q404.5 135.7 404.9 135.0Q405.3 134.2 406.0 133.8Q406.7 133.4 407.7 133.4L407.7 133.4Q408.3 133.4 408.9 133.6Q409.4 133.8 409.9 134.2Q410.3 134.6 410.5 135.2Q410.8 135.8 410.8 136.7L410.8 136.7L410.8 137.2L406.3 137.2Q406.3 137.7 406.5 138.0L406.5 138.0Q406.7 138.4 407.0 138.6Q407.4 138.8 407.8 138.8L407.8 138.8Q408.1 138.8 408.4 138.7Q408.6 138.6 408.8 138.5Q409.0 138.3 409.1 138.0L409.1 138.0L410.7 138.3Q410.5 138.9 410.1 139.3Q409.7 139.7 409.1 139.9Q408.5 140.1 407.8 140.1ZM406.3 136.1L406.3 136.1L409.1 136.1Q409.0 135.8 408.9 135.5L408.9 135.5Q408.8 135.1 408.5 134.9Q408.2 134.7 407.7 134.7L407.7 134.7Q407.3 134.7 406.9 134.9Q406.6 135.1 406.4 135.5L406.4 135.5Q406.3 135.7 406.3 136.1ZM413.2 140.1L413.2 140.1Q412.8 140.1 412.5 139.8Q412.2 139.5 412.2 139.1L412.2 139.1Q412.2 138.7 412.5 138.4Q412.8 138.1 413.2 138.1L413.2 138.1Q413.7 138.1 413.9 138.4Q414.2 138.7 414.2 139.1L414.2 139.1Q414.2 139.5 413.9 139.8Q413.7 140.1 413.2 140.1ZM416.0 140.3L416.0 133.4L417.7 133.4L417.7 140.3Q417.7 141.1 417.4 141.5Q417.1 142.0 416.6 142.2Q416.1 142.4 415.3 142.4L415.3 142.4L414.9 142.4L414.9 141.1L415.2 141.1Q415.6 141.1 415.8 140.9Q416.0 140.7 416.0 140.3L416.0 140.3ZM416.9 132.6L416.9 132.6Q416.5 132.6 416.2 132.3Q415.9 132.1 415.9 131.7L415.9 131.7Q415.9 131.3 416.2 131.1Q416.5 130.8 416.9 130.8L416.9 130.8Q417.3 130.8 417.5 131.0Q417.8 131.3 417.8 131.7L417.8 131.7Q417.8 132.1 417.5 132.3Q417.3 132.6 416.9 132.6ZM421.8 140.1L421.8 140.1Q421.0 140.1 420.4 139.9Q419.8 139.7 419.4 139.2Q419.0 138.8 418.9 138.2L418.9 138.2L420.6 137.9Q420.7 138.4 421.0 138.6Q421.3 138.8 421.9 138.8L421.9 138.8Q422.4 138.8 422.7 138.6Q423.0 138.5 423.0 138.2L423.0 138.2Q423.0 137.9 422.8 137.7Q422.6 137.6 422.1 137.5L422.1 137.5L421.0 137.3Q420.0 137.1 419.6 136.6Q419.1 136.1 419.1 135.4L419.1 135.4Q419.1 134.8 419.5 134.3Q419.8 133.9 420.4 133.6Q421.0 133.4 421.9 133.4L421.9 133.4Q422.6 133.4 423.2 133.6Q423.8 133.8 424.1 134.2Q424.5 134.6 424.6 135.1L424.6 135.1L423.0 135.4Q422.9 135.1 422.6 134.8Q422.4 134.6 421.9 134.6L421.9 134.6Q421.4 134.6 421.2 134.8Q420.9 135.0 420.9 135.3L420.9 135.3Q420.9 135.5 421.1 135.7Q421.2 135.9 421.7 136.0L421.7 136.0L422.9 136.2Q423.8 136.4 424.3 136.8Q424.8 137.3 424.8 138.0L424.8 138.0Q424.8 138.6 424.4 139.1Q424.0 139.6 423.4 139.9Q422.7 140.1 421.8 140.1Z "/></g></svg>