<!-- Generated by readme-aura https://github.com/collectioneur/readme-aura -->
<svg width="120" height="44" viewBox="0 0 120 44" xmlns="http://www.w3.org/2000/svg"><defs><clipPath id="satori_bc-id"><path x="0" y="0" width="120" height="44" d="M22,0 h76 a22,22 0 0 1 22,22 v0 a22,22 0 0 1 -22,22 h-76 a22,22 0 0 1 -22,-22 v0 a22,22 0 0 1 22,-22"/></clipPath></defs><mask id="satori_om-id"><rect x="1" y="1" width="118" height="42" fill="#fff"/><path width="120" height="44" fill="none" stroke="#000" stroke-width="2" d="M6.444000000000001,6.444000000000001 A22,22 0 0 1 22,0 h76 a22,22 0 0 1 22,22 v0 a22,22 0 0 1 -22,22 h-76 a22,22 0 0 1 -22,-22 v0 A22,22 0 0 1 6.444000000000001,6.444000000000001"/></mask><path x="0" y="0" width="120" height="44" fill="#18181b" d="M22,0 h76 a22,22 0 0 1 22,22 v0 a22,22 0 0 1 -22,22 h-76 a22,22 0 0 1 -22,-22 v0 a22,22 0 0 1 22,-22"/><path width="120" height="44" clip-path="url(#satori_bc-id)" fill="none" stroke="#27272a" stroke-width="2" d="M6.444000000000001,6.444000000000001 A22,22 0 0 1 22,0 h76 a22,22 0 0 1 22,22 v0 a22,22 0 0 1 -22,22 h-76 a22,22 0 0 1 -22,-22 v0 A22,22 0 0 1 6.444000000000001,6.444000000000001"/><mask id="satori_om-id-0"><rect x="31" y="14" width="59" height="17" fill="#fff"/></mask><g  ><path fill="white" d="M34.0 28L31.9 28L31.9 17.8L35.9 17.8Q37.1 17.8 37.9 18.3Q38.7 18.7 39.1 19.5Q39.5 20.2 39.5 21.3L39.5 21.3Q39.5 22.3 39.1 23.0Q38.7 23.8 37.8 24.2Q37.0 24.7 35.8 24.7L35.8 24.7L34.0 24.7L34.0 28ZM34.0 19.5L34.0 23.0L35.5 23.0Q36.2 23.0 36.6 22.8Q37.0 22.5 37.2 22.2Q37.4 21.8 37.4 21.3Q37.4 20.7 37.2 20.4Q37.0 20.0 36.6 19.8Q36.1 19.5 35.5 19.5L35.5 19.5L34.0 19.5ZM44.4 28.2L44.4 28.2Q43.2 28.2 42.4 27.7Q41.5 27.2 41.1 26.3Q40.6 25.4 40.6 24.2L40.6 24.2Q40.6 23.0 41.1 22.1Q41.5 21.3 42.4 20.8Q43.2 20.3 44.4 20.3L44.4 20.3Q45.5 20.3 46.4 20.8Q47.2 21.3 47.6 22.1Q48.1 23.0 48.1 24.2L48.1 24.2Q48.1 25.4 47.6 26.3Q47.2 27.2 46.4 27.7Q45.5 28.2 44.4 28.2ZM44.4 26.5L44.4 26.5Q44.9 26.5 45.3 26.2Q45.6 25.9 45.8 25.4Q46.0 24.9 46.0 24.2L46.0 24.2Q46.0 23.5 45.8 23.0Q45.6 22.5 45.3 22.2Q44.9 21.9 44.4 21.9L44.4 21.9Q43.8 21.9 43.5 22.2Q43.1 22.5 42.9 23.0Q42.7 23.5 42.7 24.2L42.7 24.2Q42.7 24.9 42.9 25.4Q43.1 25.9 43.5 26.2Q43.8 26.5 44.4 26.5ZM51.6 28L49.5 28L49.5 20.4L51.5 20.4L51.5 21.7L51.6 21.7Q51.8 21.0 52.3 20.6Q52.8 20.3 53.4 20.3L53.4 20.3Q53.6 20.3 53.8 20.3Q54.0 20.3 54.1 20.3L54.1 20.3L54.1 22.2Q54.0 22.1 53.7 22.1Q53.4 22.1 53.2 22.1L53.2 22.1Q52.8 22.1 52.4 22.3Q52 22.5 51.8 22.8Q51.6 23.2 51.6 23.7L51.6 23.7L51.6 28ZM57.6 20.4L59.0 20.4L59.0 21.9L57.6 21.9L57.6 25.8Q57.6 26.1 57.8 26.3Q57.9 26.5 58.3 26.5L58.3 26.5Q58.4 26.5 58.6 26.4Q58.8 26.4 58.9 26.4L58.9 26.4L59.2 27.9Q58.9 28.0 58.6 28.1Q58.2 28.1 57.9 28.1L57.9 28.1Q56.8 28.1 56.2 27.5Q55.5 27.0 55.5 25.9L55.5 25.9L55.5 21.9L54.5 21.9L54.5 20.4L55.5 20.4L55.5 18.5L57.6 18.5L57.6 20.4ZM63.0 20.4L64.6 20.4L64.6 21.9L63.0 21.9L63.0 28L61.0 28L61.0 21.9L59.6 21.9L59.6 20.4L61.0 20.4L61.0 19.8Q61.0 19.0 61.3 18.4Q61.6 17.9 62.2 17.6Q62.7 17.3 63.5 17.3L63.5 17.3Q63.9 17.3 64.3 17.4Q64.7 17.5 64.9 17.5L64.9 17.5L64.6 19.1Q64.4 19.1 64.2 19.0Q64.1 19.0 63.9 19.0L63.9 19.0Q63.4 19.0 63.2 19.2Q63.0 19.4 63.0 19.8L63.0 19.8L63.0 20.4ZM69.3 28.2L69.3 28.2Q68.2 28.2 67.4 27.7Q66.5 27.2 66.1 26.3Q65.6 25.4 65.6 24.2L65.6 24.2Q65.6 23.0 66.1 22.1Q66.5 21.3 67.4 20.8Q68.2 20.3 69.3 20.3L69.3 20.3Q70.5 20.3 71.3 20.8Q72.2 21.3 72.6 22.1Q73.1 23.0 73.1 24.2L73.1 24.2Q73.1 25.4 72.6 26.3Q72.2 27.2 71.3 27.7Q70.5 28.2 69.3 28.2ZM69.3 26.5L69.3 26.5Q69.9 26.5 70.3 26.2Q70.6 25.9 70.8 25.4Q71.0 24.9 71.0 24.2L71.0 24.2Q71.0 23.5 70.8 23.0Q70.6 22.5 70.3 22.2Q69.9 21.9 69.3 21.9L69.3 21.9Q68.8 21.9 68.4 22.2Q68.1 22.5 67.9 23.0Q67.7 23.5 67.7 24.2L67.7 24.2Q67.7 24.9 67.9 25.4Q68.1 25.9 68.4 26.2Q68.8 26.5 69.3 26.5ZM74.5 17.8L76.6 17.8L76.6 28L74.5 28L74.5 17.8ZM80.4 28L78.3 28L78.3 20.4L80.4 20.4L80.4 28ZM79.3 19.4L79.3 19.4Q78.9 19.4 78.5 19.1Q78.2 18.7 78.2 18.3L78.2 18.3Q78.2 17.9 78.5 17.6Q78.9 17.3 79.3 17.3L79.3 17.3Q79.8 17.3 80.1 17.6Q80.5 17.9 80.5 18.3L80.5 18.3Q80.5 18.7 80.1 19.1Q79.8 19.4 79.3 19.4ZM85.5 28.2L85.5 28.2Q84.4 28.2 83.5 27.7Q82.7 27.2 82.2 26.3Q81.8 25.4 81.8 24.2L81.8 24.2Q81.8 23.0 82.2 22.1Q82.7 21.3 83.5 20.8Q84.4 20.3 85.5 20.3L85.5 20.3Q86.7 20.3 87.5 20.8Q88.4 21.3 88.8 22.1Q89.3 23.0 89.3 24.2L89.3 24.2Q89.3 25.4 88.8 26.3Q88.4 27.2 87.5 27.7Q86.7 28.2 85.5 28.2ZM85.5 26.5L85.5 26.5Q86.1 26.5 86.4 26.2Q86.8 25.9 87.0 25.4Q87.2 24.9 87.2 24.2L87.2 24.2Q87.2 23.5 87.0 23.0Q86.8 22.5 86.4 22.2Q86.1 21.9 85.5 21.9L85.5 21.9Q85.0 21.9 84.6 22.2Q84.2 22.5 84.1 23.0Q83.9 23.5 83.9 24.2L83.9 24.2Q83.9 24.9 84.1 25.4Q84.2 25.9 84.6 26.2Q85.0 26.5 85.5 26.5Z "/></g></svg>