<!-- Generated by readme-aura https://github.com/collectioneur/readme-aura -->
<svg width="800" height="260" viewBox="0 0 800 260" xmlns="http://www.w3.org/2000/svg"><defs><clipPath id="satori_bc-id"><path x="0" y="0" width="800" height="260" d="M24,0 h752 a24,24 0 0 1 24,24 v212 a24,24 0 0 1 -24,24 h-752 a24,24 0 0 1 -24,-24 v-212 a24,24 0 0 1 24,-24"/></clipPath></defs><clipPath id="satori_cp-id"><path x="0" y="0" width="800" height="260" d="M24,0 h752 a24,24 0 0 1 24,24 v212 a24,24 0 0 1 -24,24 h-752 a24,24 0 0 1 -24,-24 v-212 a24,24 0 0 1 24,-24"/></clipPath><mask id="satori_om-id"><rect x="1" y="1" width="798" height="258" fill="#fff"/><path width="800" height="260" fill="none" stroke="#000" stroke-width="2" d="M7.029,7.029 A24,24 0 0 1 24,0 h752 a24,24 0 0 1 24,24 v212 a24,24 0 0 1 -24,24 h-752 a24,24 0 0 1 -24,-24 v-212 A24,24 0 0 1 7.029,7.029"/></mask><path x="0" y="0" width="800" height="260" fill="#09090b" d="M24,0 h752 a24,24 0 0 1 24,24 v212 a24,24 0 0 1 -24,24 h-752 a24,24 0 0 1 -24,-24 v-212 a24,24 0 0 1 24,-24"/><path width="800" height="260" clip-path="url(#satori_bc-id)" fill="none" stroke="#27272a" stroke-width="2" d="M7.029,7.029 A24,24 0 0 1 24,0 h752 a24,24 0 0 1 24,24 v212 a24,24 0 0 1 -24,24 h-752 a24,24 0 0 1 -24,-24 v-212 A24,24 0 0 1 7.029,7.029"/><defs><pattern id="satori_pattern_id-0_0" x="0" y="0" width="1" height="1" patternUnits="objectBoundingBox"><radialGradient id="satori_radial_id-0_0" spreadMethod="pad"><stop offset="0" stop-color="rgba(139, 92, 246, 0.15)"/><stop offset="0.7" stop-color="rgba(0,0,0,0)"/><stop offset="1" stop-color="rgba(0,0,0,0)"/></radialGradient><mask id="satori_mask_id-0_0"><rect x="0" y="0" width="600" height="300" fill="#fff"/></mask><rect x="0" y="0" width="600" height="300" fill="rgba(0,0,0,0)"/><circle cx="300" cy="150" width="600" height="300" r="335.4101966249685" fill="url(#satori_radial_id-0_0)" mask="url(#satori_mask_id-0_0)"/></pattern></defs><mask id="satori_om-id-0"><rect x="100" y="-99" width="600" height="300" fill="#fff" mask="url(#satori_om-id)"/></mask><rect x="100" y="-99" width="600" height="300" fill="url(#satori_pattern_id-0_0)" clip-path="url(#satori_cp-id)" mask="url(#satori_om-id)"/><defs><pattern id="satori_pattern_id-1_0" x="0" y="0" width="1" height="1" patternUnits="objectBoundingBox"><radialGradient id="satori_radial_id-1_0" spreadMethod="pad"><stop offset="0" stop-color="rgba(225, 29, 72, 0.15)"/><stop offset="0.7" stop-color="rgba(0,0,0,0)"/><stop offset="1" stop-color="rgba(0,0,0,0)"/></radialGradient><mask id="satori_mask_id-1_0"><rect x="0" y="0" width="400" height="200" fill="#fff"/></mask><rect x="0" y="0" width="400" height="200" fill="rgba(0,0,0,0)"/><circle cx="200" cy="100" width="400" height="200" r="223.60679774997897" fill="url(#satori_radial_id-1_0)" mask="url(#satori_mask_id-1_0)"/></pattern></defs><mask id="satori_om-id-1"><rect x="499" y="159" width="400" height="200" fill="#fff" mask="url(#satori_om-id)"/></mask><rect x="499" y="159" width="400" height="200" fill="url(#satori_pattern_id-1_0)" clip-path="url(#satori_cp-id)" mask="url(#satori_om-id)"/><mask id="satori_om-id-2"><rect x="247" y="49" width="307" height="68" fill="#fff" mask="url(#satori_om-id)"/></mask><g mask="url(#satori_om-id)" clip-path="url(#satori_cp-id)"><path fill="white" d="M259.2 103L250.7 103L250.7 62.3L260.0 62.3L272.9 82.9Q273.9 84.5 274.9 86.3Q275.9 88.2 276.9 90.4L276.9 90.4Q277.5 91.6 278.0 92.8L278.0 92.8Q277.9 91.8 277.8 90.7L277.8 90.7Q277.7 88.2 277.6 85.8Q277.5 83.4 277.5 81.8L277.5 81.8L277.5 62.3L286.0 62.3L286.0 103L276.7 103L265.0 84.3Q263.7 82.2 262.6 80.2Q261.5 78.2 260.3 75.8L260.3 75.8Q259.6 74.4 258.7 72.5L258.7 72.5Q258.8 74.2 258.9 75.8L258.9 75.8Q259.0 78.5 259.1 80.7Q259.2 82.9 259.2 84.3L259.2 84.3L259.2 103ZM299.4 103L291.2 103L291.2 72.4L299.4 72.4L299.4 103ZM295.3 68.4L295.3 68.4Q293.4 68.4 292.1 67.2Q290.8 66.0 290.8 64.2L290.8 64.2Q290.8 62.5 292.1 61.2Q293.4 60.0 295.3 60.0L295.3 60.0Q297.1 60.0 298.5 61.2Q299.8 62.4 299.8 64.2L299.8 64.2Q299.8 66.0 298.5 67.2Q297.1 68.4 295.3 68.4ZM313.8 72.4L319.5 72.4L319.5 78.7L313.8 78.7L313.8 94.1Q313.8 95.5 314.5 96.2Q315.1 96.9 316.6 96.9L316.6 96.9Q317.1 96.9 317.9 96.8Q318.8 96.7 319.2 96.5L319.2 96.5L320.4 102.7Q319.0 103.1 317.7 103.3Q316.3 103.4 315.1 103.4L315.1 103.4Q310.5 103.4 308.1 101.2Q305.6 99.0 305.6 94.8L305.6 94.8L305.6 78.7L301.4 78.7L301.4 72.4L305.6 72.4L305.6 65.2L313.8 65.2L313.8 72.4ZM331.1 103L322.9 103L322.9 72.4L331.1 72.4L331.1 103ZM327.0 68.4L327.0 68.4Q325.1 68.4 323.8 67.2Q322.5 66.0 322.5 64.2L322.5 64.2Q322.5 62.5 323.8 61.2Q325.1 60.0 327.0 60.0L327.0 60.0Q328.8 60.0 330.2 61.2Q331.5 62.4 331.5 64.2L331.5 64.2Q331.5 66.0 330.2 67.2Q328.8 68.4 327.0 68.4ZM344.2 85.3L344.2 85.3L344.2 103L336.0 103L336.0 72.4L343.8 72.4L343.9 78.7Q345.1 75.8 347.1 74.1L347.1 74.1Q349.5 72.0 353.4 72.0L353.4 72.0Q356.6 72.0 358.9 73.4Q361.3 74.8 362.6 77.4Q363.9 80.0 363.9 83.6L363.9 83.6L363.9 103L355.7 103L355.7 85.0Q355.7 82.1 354.2 80.5Q352.8 78.9 350.2 78.9L350.2 78.9Q348.5 78.9 347.1 79.7Q345.8 80.4 345.0 81.8Q344.2 83.3 344.2 85.3Z M388.6 103L380.4 103L380.4 62.3L393.2 62.3L399.8 81.0Q400.2 82.3 400.7 84.4Q401.3 86.4 401.8 88.8L401.8 88.8Q402.3 91.2 402.8 93.4L402.8 93.4Q403.3 91.2 403.8 88.9L403.8 88.9Q404.3 86.5 404.9 84.4Q405.4 82.3 405.8 81.0L405.8 81.0L412.3 62.3L425.2 62.3L425.2 103L416.8 103L416.8 83.8Q416.8 82.5 416.8 80.5Q416.9 78.5 416.9 76.2Q417 73.9 417.1 71.5L417.1 71.5Q417.1 70.5 417.1 69.4L417.1 69.4Q416.8 70.6 416.5 71.8L416.5 71.8Q415.9 74.2 415.2 76.5Q414.6 78.7 414.0 80.6Q413.4 82.5 413.0 83.8L413.0 83.8L406.3 103L399.3 103L392.4 83.8Q392.0 82.5 391.4 80.7Q390.8 78.8 390.2 76.5Q389.5 74.3 388.9 71.8L388.9 71.8Q388.6 70.8 388.3 69.8L388.3 69.8Q388.3 70.5 388.4 71.4L388.4 71.4Q388.4 73.7 388.5 76.1Q388.6 78.4 388.6 80.4Q388.6 82.4 388.6 83.8L388.6 83.8L388.6 103ZM438.5 103L430.3 103L430.3 72.4L438.5 72.4L438.5 103ZM434.4 68.4L434.4 68.4Q432.6 68.4 431.3 67.2Q430.0 66.0 430.0 64.2L430.0 64.2Q430.0 62.5 431.3 61.2Q432.6 60.0 434.4 60.0L434.4 60.0Q436.3 60.0 437.6 61.2Q439.0 62.4 439.0 64.2L439.0 64.2Q439.0 66.0 437.6 67.2Q436.3 68.4 434.4 68.4ZM455.7 103.6L455.7 103.6Q452.0 103.6 449.1 102.5Q446.3 101.5 444.5 99.5Q442.7 97.5 442.1 94.6L442.1 94.6L449.8 93.3Q450.4 95.5 451.9 96.5Q453.4 97.6 455.9 97.6L455.9 97.6Q458.3 97.6 459.6 96.7Q461.0 95.8 461.0 94.4L461.0 94.4Q461.0 93.2 460.0 92.5Q459.0 91.7 457.0 91.3L457.0 91.3L451.7 90.2Q447.3 89.3 445.1 87.1Q442.9 85.0 442.9 81.5L442.9 81.5Q442.9 78.6 444.6 76.5Q446.2 74.3 449.0 73.2Q451.9 72.0 455.8 72.0L455.8 72.0Q459.4 72.0 462.1 73.0Q464.7 74.0 466.3 75.9Q468.0 77.7 468.5 80.2L468.5 80.2L461.3 81.5Q460.8 79.9 459.5 78.9Q458.1 77.9 455.9 77.9L455.9 77.9Q453.9 77.9 452.5 78.8Q451.1 79.6 451.1 81.0L451.1 81.0Q451.1 82.2 452.0 83.0Q452.9 83.8 455.1 84.2L455.1 84.2L460.6 85.3Q465.0 86.2 467.2 88.2Q469.3 90.3 469.3 93.6L469.3 93.6Q469.3 96.6 467.6 98.8Q465.8 101.1 462.8 102.3Q459.7 103.6 455.7 103.6ZM481.1 85.3L481.1 85.3L481.1 103L472.9 103L472.9 62.3L480.9 62.3L480.9 78.3Q482.1 75.7 483.9 74.1L483.9 74.1Q486.4 72.0 490.2 72.0L490.2 72.0Q493.4 72.0 495.8 73.4Q498.1 74.8 499.5 77.4Q500.8 80.0 500.8 83.6L500.8 83.6L500.8 103L492.5 103L492.5 85.0Q492.5 82.1 491.1 80.5Q489.6 78.9 487.0 78.9L487.0 78.9Q485.3 78.9 483.9 79.7Q482.6 80.4 481.8 81.8Q481.1 83.3 481.1 85.3ZM513.9 103L505.7 103L505.7 72.4L513.7 72.4L513.7 77.8L514 77.8Q514.8 74.9 516.8 73.5Q518.8 72.0 521.4 72.0L521.4 72.0Q522.0 72.0 522.8 72.1Q523.5 72.2 524.0 72.3L524.0 72.3L524.0 79.6Q523.5 79.4 522.4 79.3Q521.4 79.2 520.5 79.2L520.5 79.2Q518.6 79.2 517.1 80.0Q515.6 80.8 514.8 82.3Q513.9 83.7 513.9 85.6L513.9 85.6L513.9 103ZM535.1 103.6L535.1 103.6Q532.2 103.6 529.9 102.6Q527.6 101.6 526.2 99.5Q524.9 97.5 524.9 94.4L524.9 94.4Q524.9 91.9 525.8 90.2Q526.8 88.5 528.4 87.4Q530.0 86.4 532.1 85.8Q534.2 85.3 536.4 85.1L536.4 85.1Q539.1 84.8 540.7 84.6Q542.4 84.3 543.1 83.8Q543.9 83.3 543.9 82.3L543.9 82.3L543.9 82.2Q543.9 80.9 543.3 80.0Q542.8 79.1 541.7 78.6Q540.6 78.1 539.1 78.1L539.1 78.1Q537.5 78.1 536.3 78.6Q535.1 79.1 534.4 79.9Q533.7 80.7 533.3 81.6L533.3 81.6L525.8 80.4Q526.6 77.7 528.4 75.9Q530.2 74.0 533.0 73.0Q535.7 72.0 539.1 72.0L539.1 72.0Q541.6 72.0 543.9 72.6Q546.2 73.2 548.1 74.5Q549.9 75.7 551.0 77.7Q552.1 79.6 552.1 82.4L552.1 82.4L552.1 103L544.3 103L544.3 98.8L544.0 98.8Q543.3 100.2 542.1 101.3Q540.8 102.3 539.1 103.0Q537.3 103.6 535.1 103.6ZM537.4 97.8L537.4 97.8Q539.3 97.8 540.8 97.1Q542.3 96.3 543.1 95.0Q543.9 93.7 543.9 92.1L543.9 92.1L543.9 88.8Q543.6 89.0 542.8 89.2Q542.1 89.5 541.2 89.6Q540.3 89.8 539.4 89.9Q538.5 90.1 537.8 90.1L537.8 90.1Q536.3 90.4 535.2 90.9Q534.0 91.4 533.4 92.2Q532.8 93.0 532.8 94.2L532.8 94.2Q532.8 95.4 533.4 96.2Q534.0 97.0 535.0 97.4Q536.1 97.8 537.4 97.8Z "/></g><mask id="satori_om-id-3"><rect x="285" y="133" width="231" height="17" fill="#fff" mask="url(#satori_om-id)"/></mask><g mask="url(#satori_om-id)" clip-path="url(#satori_cp-id)"><path fill="#a1a1aa" d="M290.0 147L286.2 147L286.2 136.8L289.8 136.8Q290.9 136.8 291.6 137.2Q292.3 137.5 292.6 138.2Q293.0 138.8 293.0 139.5L293.0 139.5Q293.0 140.2 292.7 140.6Q292.5 141.0 292.1 141.3Q291.7 141.5 291.3 141.7L291.3 141.7L291.3 141.8Q291.8 141.8 292.3 142.1Q292.7 142.4 293.0 142.9Q293.4 143.5 293.4 144.3L293.4 144.3Q293.4 145.1 293.0 145.7Q292.7 146.3 291.9 146.6Q291.2 147 290.0 147L290.0 147ZM287.5 142.4L287.5 145.9L289.9 145.9Q291.1 145.9 291.6 145.4Q292.1 144.9 292.1 144.3L292.1 144.3Q292.1 143.8 291.9 143.3Q291.6 142.9 291.1 142.6Q290.6 142.4 290.0 142.4L290.0 142.4L287.5 142.4ZM287.5 138.0L287.5 141.3L289.8 141.3Q290.3 141.3 290.8 141.1Q291.2 140.9 291.5 140.5Q291.7 140.1 291.7 139.5L291.7 139.5Q291.7 138.9 291.3 138.4Q290.8 138.0 289.8 138.0L289.8 138.0L287.5 138.0ZM303.4 147.2L303.4 147.2Q302.2 147.2 301.3 146.7Q300.4 146.2 299.9 145.4Q299.4 144.6 299.4 143.5L299.4 143.5L299.4 136.8L300.7 136.8L300.7 143.4Q300.7 144.2 301.0 144.7Q301.3 145.3 301.9 145.6Q302.5 146.0 303.4 146.0L303.4 146.0Q304.2 146.0 304.8 145.6Q305.4 145.3 305.7 144.7Q306.0 144.2 306.0 143.4L306.0 143.4L306.0 136.8L307.3 136.8L307.3 143.5Q307.3 144.6 306.9 145.4Q306.4 146.2 305.5 146.7Q304.6 147.2 303.4 147.2ZM313.8 136.8L315.1 136.8L315.1 147L313.8 147L313.8 136.8ZM327.6 147L321.6 147L321.6 136.8L322.9 136.8L322.9 145.9L327.6 145.9L327.6 147ZM336.7 147L336.7 147L333.5 147L333.5 136.8L336.8 136.8Q338.3 136.8 339.3 137.4Q340.4 138.0 341.0 139.2Q341.5 140.3 341.5 141.9L341.5 141.9Q341.5 143.5 341.0 144.6Q340.4 145.8 339.3 146.4Q338.2 147 336.7 147ZM334.8 138.0L334.8 145.9L336.6 145.9Q337.8 145.9 338.6 145.4Q339.5 144.9 339.9 144.0Q340.3 143.1 340.3 141.9L340.3 141.9Q340.3 140.7 339.9 139.8Q339.5 138.9 338.7 138.4Q337.9 138.0 336.7 138.0L336.7 138.0L334.8 138.0Z M358.2 145.1L358.2 145.1Q357.6 145.1 357.1 144.8Q356.6 144.5 356.3 144.0Q356.0 143.5 356.0 142.9L356.0 142.9Q356.0 142.3 356.3 141.8Q356.6 141.3 357.1 141.0Q357.6 140.8 358.2 140.8L358.2 140.8Q358.8 140.8 359.3 141.0Q359.8 141.3 360.1 141.8Q360.4 142.3 360.4 142.9L360.4 142.9Q360.4 143.5 360.1 144.0Q359.8 144.5 359.3 144.8Q358.8 145.1 358.2 145.1Z M378.6 147.2L378.6 147.2Q377.5 147.2 376.7 146.8Q375.9 146.5 375.4 145.8Q375.0 145.2 374.9 144.3L374.9 144.3L376.2 144.3Q376.3 144.9 376.6 145.3Q377.0 145.7 377.5 145.8Q378.0 146.0 378.6 146.0L378.6 146.0Q379.3 146.0 379.8 145.8Q380.4 145.6 380.7 145.2Q381.0 144.7 381.0 144.2L381.0 144.2Q381.0 143.7 380.8 143.4Q380.5 143.1 380.0 142.9Q379.6 142.7 379.0 142.5L379.0 142.5L377.8 142.2Q376.6 141.9 375.9 141.2Q375.2 140.6 375.2 139.5L375.2 139.5Q375.2 138.7 375.7 138.0Q376.1 137.4 376.9 137.0Q377.7 136.7 378.7 136.7L378.7 136.7Q379.7 136.7 380.5 137.0Q381.2 137.4 381.7 138.0Q382.1 138.6 382.2 139.4L382.2 139.4L380.9 139.4Q380.8 138.6 380.2 138.2Q379.6 137.8 378.6 137.8L378.6 137.8Q378.0 137.8 377.5 138.0Q377.0 138.3 376.7 138.6Q376.5 139.0 376.5 139.5L376.5 139.5Q376.5 140.0 376.8 140.3Q377.1 140.7 377.6 140.8Q378.0 141.0 378.4 141.1L378.4 141.1L379.4 141.4Q379.8 141.5 380.3 141.7Q380.8 141.9 381.3 142.2Q381.7 142.5 382.0 143.0Q382.3 143.5 382.3 144.2L382.3 144.2Q382.3 145.1 381.9 145.7Q381.4 146.4 380.6 146.8Q379.8 147.2 378.6 147.2ZM389.6 147L388.3 147L388.3 136.8L389.6 136.8L389.6 141.2L395.0 141.2L395.0 136.8L396.3 136.8L396.3 147L395.0 147L395.0 142.4L389.6 142.4L389.6 147ZM402.7 136.8L404.0 136.8L404.0 147L402.7 147L402.7 136.8ZM411.8 147L410.5 147L410.5 136.8L414.0 136.8Q415.2 136.8 415.9 137.2Q416.7 137.7 417.1 138.4Q417.4 139.1 417.4 140.1Q417.4 141.0 417.1 141.7Q416.7 142.4 415.9 142.9Q415.2 143.3 414.0 143.3L414.0 143.3L411.8 143.3L411.8 147ZM411.8 138.0L411.8 142.2L413.9 142.2Q414.7 142.2 415.2 141.9Q415.7 141.6 415.9 141.1Q416.2 140.7 416.2 140.1Q416.2 139.5 415.9 139.0Q415.7 138.5 415.2 138.2Q414.7 138.0 413.9 138.0L413.9 138.0L411.8 138.0Z M434.1 145.1L434.1 145.1Q433.5 145.1 433.0 144.8Q432.5 144.5 432.2 144.0Q431.9 143.5 431.9 142.9L431.9 142.9Q431.9 142.3 432.2 141.8Q432.5 141.3 433.0 141.0Q433.5 140.8 434.1 140.8L434.1 140.8Q434.7 140.8 435.2 141.0Q435.7 141.3 436.0 141.8Q436.3 142.3 436.3 142.9L436.3 142.9Q436.3 143.5 436.0 144.0Q435.7 144.5 435.2 144.8Q434.7 145.1 434.1 145.1Z M454.4 147.2L454.4 147.2Q453.3 147.2 452.5 146.8Q451.7 146.5 451.3 145.8Q450.8 145.2 450.7 144.3L450.7 144.3L452.1 144.3Q452.1 144.9 452.5 145.3Q452.8 145.7 453.3 145.8Q453.8 146.0 454.4 146.0L454.4 146.0Q455.1 146.0 455.7 145.8Q456.2 145.6 456.5 145.2Q456.9 144.7 456.9 144.2L456.9 144.2Q456.9 143.7 456.6 143.4Q456.3 143.1 455.9 142.9Q455.4 142.7 454.9 142.5L454.9 142.5L453.6 142.2Q452.4 141.9 451.7 141.2Q451.0 140.6 451.0 139.5L451.0 139.5Q451.0 138.7 451.5 138.0Q452.0 137.4 452.7 137.0Q453.5 136.7 454.5 136.7L454.5 136.7Q455.5 136.7 456.3 137.0Q457.1 137.4 457.5 138.0Q458.0 138.6 458.0 139.4L458.0 139.4L456.7 139.4Q456.6 138.6 456.0 138.2Q455.4 137.8 454.5 137.8L454.5 137.8Q453.8 137.8 453.3 138.0Q452.8 138.3 452.6 138.6Q452.3 139.0 452.3 139.5L452.3 139.5Q452.3 140.0 452.6 140.3Q453.0 140.7 453.4 140.8Q453.9 141.0 454.2 141.1L454.2 141.1L455.3 141.4Q455.7 141.5 456.2 141.7Q456.7 141.9 457.1 142.2Q457.6 142.5 457.8 143.0Q458.1 143.5 458.1 144.2L458.1 144.2Q458.1 145.1 457.7 145.7Q457.3 146.4 456.4 146.8Q455.6 147.2 454.4 147.2ZM468.3 147.1L468.3 147.1Q467.0 147.1 466.0 146.5Q464.9 145.9 464.3 144.7Q463.8 143.5 463.8 141.9L463.8 141.9Q463.8 140.3 464.3 139.1Q464.9 137.9 466.0 137.3Q467.0 136.7 468.3 136.7L468.3 136.7Q469.1 136.7 469.7 136.9Q470.4 137.1 471.0 137.6Q471.5 138.0 471.9 138.6Q472.3 139.2 472.4 140.0L472.4 140.0L471.1 140.0Q471.0 139.5 470.7 139.1Q470.5 138.7 470.1 138.4Q469.7 138.2 469.2 138.0Q468.8 137.9 468.3 137.9L468.3 137.9Q467.4 137.9 466.6 138.3Q465.9 138.8 465.5 139.7Q465.0 140.6 465.0 141.9L465.0 141.9Q465.0 143.2 465.5 144.1Q465.9 145.0 466.6 145.5Q467.4 145.9 468.3 145.9L468.3 145.9Q468.8 145.9 469.2 145.8Q469.7 145.7 470.1 145.4Q470.5 145.1 470.7 144.7Q471.0 144.3 471.1 143.8L471.1 143.8L472.4 143.8Q472.3 144.6 471.9 145.2Q471.5 145.8 471.0 146.2Q470.4 146.7 469.7 146.9Q469.1 147.1 468.3 147.1ZM478.9 147L477.5 147L481.2 136.8L482.7 136.8L486.5 147L485.1 147L484.1 144.2L479.9 144.2L478.9 147ZM480.3 143.0L483.7 143.0L482.9 141.0Q482.7 140.4 482.5 139.6L482.5 139.6Q482.3 138.9 482.0 137.9L482.0 137.9Q481.7 138.9 481.4 139.6L481.4 139.6Q481.2 140.4 481.0 141.0L481.0 141.0L480.3 143.0ZM498.1 147L492.0 147L492.0 136.8L493.3 136.8L493.3 145.9L498.1 145.9L498.1 147ZM510.2 147L504.0 147L504.0 136.8L510.2 136.8L510.2 138.0L505.3 138.0L505.3 141.3L509.8 141.3L509.8 142.4L505.3 142.4L505.3 145.9L510.2 145.9L510.2 147Z "/></g><mask id="satori_om-id-4"><rect x="214" y="182" width="373" height="30" fill="#fff" mask="url(#satori_om-id)"/></mask><defs><clipPath id="satori_bc-id-4-0" clip-path="url(#satori_cp-id)"><path x="214" y="182" width="113" height="30" d="M229,182 h83 a15,15 0 0 1 15,15 v0 a15,15 0 0 1 -15,15 h-83 a15,15 0 0 1 -15,-15 v0 a15,15 0 0 1 15,-15"/></clipPath></defs><mask id="satori_om-id-4-0"><rect x="215" y="183" width="111" height="28" fill="#fff" mask="url(#satori_om-id)"/><path width="113" height="30" fill="none" stroke="#000" stroke-width="2" d="M218.393,186.393 A15,15 0 0 1 229,182 h83 a15,15 0 0 1 15,15 v0 a15,15 0 0 1 -15,15 h-83 a15,15 0 0 1 -15,-15 v0 A15,15 0 0 1 218.393,186.393"/></mask><path x="214" y="182" width="113" height="30" fill="#18181b" d="M229,182 h83 a15,15 0 0 1 15,15 v0 a15,15 0 0 1 -15,15 h-83 a15,15 0 0 1 -15,-15 v0 a15,15 0 0 1 15,-15" clip-path="url(#satori_cp-id)" mask="url(#satori_om-id)"/><path width="113" height="30" clip-path="url(#satori_bc-id-4-0)" fill="none" stroke="#27272a" stroke-width="2" d="M218.393,186.393 A15,15 0 0 1 229,182 h83 a15,15 0 0 1 15,15 v0 a15,15 0 0 1 -15,15 h-83 a15,15 0 0 1 -15,-15 v0 A15,15 0 0 1 218.393,186.393"/><g mask="url(#satori_om-id)" clip-path="url(#satori_cp-id)"><path fill="#a1a1aa" d="M236.6 202L235.3 202L238.8 192.5L240.2 192.5L243.6 202L242.4 202L241.4 199.4L237.5 199.4L236.6 202ZM237.9 198.3L241.0 198.3L240.4 196.4Q240.2 195.9 239.9 195.1L239.9 195.1Q239.7 194.4 239.5 193.5L239.5 193.5Q239.2 194.5 239.0 195.1L239.0 195.1Q238.7 195.9 238.6 196.4L238.6 196.4L237.9 198.3ZM245.1 192.5L246.3 192.5L246.3 202L245.1 202L245.1 192.5Z M255.1 202.2L255.1 202.2Q254.1 202.2 253.3 201.7Q252.6 201.2 252.2 200.4Q251.8 199.6 251.8 198.5Q251.8 197.4 252.2 196.6Q252.6 195.8 253.3 195.3Q254.0 194.8 255.0 194.8L255.0 194.8Q255.5 194.8 256.1 195.0Q256.6 195.2 257.1 195.6Q257.5 196.0 257.8 196.7Q258.1 197.4 258.1 198.4L258.1 198.4L258.1 198.8L252.9 198.8Q253.0 199.5 253.2 200.0L253.2 200.0Q253.5 200.6 254.0 200.9Q254.5 201.1 255.1 201.1L255.1 201.1Q255.5 201.1 255.9 201.0Q256.2 200.9 256.5 200.7Q256.7 200.4 256.8 200.0L256.8 200.0L257.9 200.3Q257.8 200.9 257.4 201.3Q257.0 201.7 256.4 201.9Q255.8 202.2 255.1 202.2ZM252.9 197.9L252.9 197.9L256.9 197.9Q256.9 197.4 256.7 197.0L256.7 197.0Q256.5 196.4 256.0 196.1Q255.6 195.8 255.0 195.8Q254.3 195.8 253.9 196.1Q253.4 196.5 253.2 197.0L253.2 197.0Q253.0 197.4 252.9 197.9ZM260.8 197.7L260.8 197.7L260.8 202L259.7 202L259.7 194.9L260.8 194.9L260.8 196.2Q261.1 195.6 261.6 195.2L261.6 195.2Q262.2 194.8 263.0 194.8L263.0 194.8Q263.7 194.8 264.2 195.1Q264.8 195.4 265.1 196.0Q265.4 196.6 265.4 197.5L265.4 197.5L265.4 202L264.2 202L264.2 197.6Q264.2 196.8 263.8 196.3Q263.4 195.8 262.6 195.8L262.6 195.8Q262.1 195.8 261.7 196.1Q261.3 196.3 261.1 196.7Q260.8 197.1 260.8 197.7ZM270.3 204.8L270.3 204.8Q269.5 204.8 268.9 204.6Q268.3 204.4 267.9 204.1Q267.6 203.7 267.3 203.4L267.3 203.4L268.3 202.8Q268.4 203.0 268.6 203.2Q268.9 203.5 269.2 203.6Q269.6 203.8 270.3 203.8L270.3 203.8Q271.1 203.8 271.7 203.4Q272.2 203.0 272.2 202.1L272.2 202.1L272.2 200.7L272.1 200.7Q272.0 200.9 271.8 201.2Q271.5 201.5 271.1 201.7Q270.7 201.9 270.0 201.9L270.0 201.9Q269.2 201.9 268.5 201.5Q267.8 201.1 267.4 200.3Q267.0 199.5 267.0 198.4L267.0 198.4Q267.0 197.3 267.4 196.5Q267.8 195.7 268.5 195.3Q269.2 194.8 270.1 194.8L270.1 194.8Q270.7 194.8 271.2 195.0Q271.6 195.3 271.8 195.6Q272.0 195.8 272.1 196.0L272.1 196.0L272.2 196.0L272.2 194.9L273.3 194.9L273.3 202.2Q273.3 203.1 272.9 203.7Q272.5 204.3 271.8 204.5Q271.1 204.8 270.3 204.8ZM270.2 200.9L270.2 200.9Q270.9 200.9 271.3 200.6Q271.8 200.3 272.0 199.7Q272.2 199.2 272.2 198.4L272.2 198.4Q272.2 197.6 272.0 197.1Q271.8 196.5 271.3 196.2Q270.9 195.8 270.2 195.8L270.2 195.8Q269.6 195.8 269.1 196.2Q268.6 196.5 268.4 197.1Q268.2 197.7 268.2 198.4L268.2 198.4Q268.2 199.1 268.4 199.7Q268.7 200.2 269.1 200.6Q269.6 200.9 270.2 200.9ZM276.5 202L275.4 202L275.4 194.9L276.5 194.9L276.5 202ZM275.9 193.7L275.9 193.7Q275.6 193.7 275.4 193.5Q275.1 193.3 275.1 193.0L275.1 193.0Q275.1 192.7 275.4 192.4Q275.6 192.2 275.9 192.2L275.9 192.2Q276.3 192.2 276.5 192.4Q276.7 192.7 276.7 193.0L276.7 193.0Q276.7 193.3 276.5 193.5Q276.3 193.7 275.9 193.7ZM279.6 197.7L279.6 197.7L279.6 202L278.5 202L278.5 194.9L279.6 194.9L279.6 196.2Q279.9 195.6 280.4 195.2L280.4 195.2Q281.0 194.8 281.8 194.8L281.8 194.8Q282.5 194.8 283.0 195.1Q283.6 195.4 283.9 196.0Q284.2 196.6 284.2 197.5L284.2 197.5L284.2 202L283.0 202L283.0 197.6Q283.0 196.8 282.6 196.3Q282.2 195.8 281.4 195.8L281.4 195.8Q280.9 195.8 280.5 196.1Q280.1 196.3 279.9 196.7Q279.6 197.1 279.6 197.7ZM289.2 202.2L289.2 202.2Q288.1 202.2 287.4 201.7Q286.6 201.2 286.2 200.4Q285.8 199.6 285.8 198.5Q285.8 197.4 286.2 196.6Q286.6 195.8 287.3 195.3Q288.1 194.8 289.0 194.8L289.0 194.8Q289.6 194.8 290.1 195.0Q290.7 195.2 291.1 195.6Q291.6 196.0 291.9 196.7Q292.1 197.4 292.1 198.4L292.1 198.4L292.1 198.8L287.0 198.8Q287.0 199.5 287.3 200.0L287.3 200.0Q287.5 200.6 288.0 200.9Q288.5 201.1 289.2 201.1L289.2 201.1Q289.6 201.1 289.9 201.0Q290.3 200.9 290.5 200.7Q290.8 200.4 290.9 200.0L290.9 200.0L292.0 200.3Q291.8 200.9 291.4 201.3Q291.1 201.7 290.5 201.9Q289.9 202.2 289.2 202.2ZM287 197.9L287 197.9L291.0 197.9Q290.9 197.4 290.8 197.0L290.8 197.0Q290.5 196.4 290.1 196.1Q289.7 195.8 289.0 195.8Q288.4 195.8 287.9 196.1Q287.5 196.5 287.2 197.0L287.2 197.0Q287.0 197.4 287 197.9ZM296.7 202.2L296.7 202.2Q295.7 202.2 295.0 201.7Q294.2 201.2 293.8 200.4Q293.4 199.6 293.4 198.5Q293.4 197.4 293.8 196.6Q294.2 195.8 294.9 195.3Q295.6 194.8 296.6 194.8L296.6 194.8Q297.2 194.8 297.7 195.0Q298.3 195.2 298.7 195.6Q299.2 196.0 299.4 196.7Q299.7 197.4 299.7 198.4L299.7 198.4L299.7 198.8L294.6 198.8Q294.6 199.5 294.8 200.0L294.8 200.0Q295.1 200.6 295.6 200.9Q296.1 201.1 296.8 201.1L296.8 201.1Q297.2 201.1 297.5 201.0Q297.9 200.9 298.1 200.7Q298.3 200.4 298.5 200.0L298.5 200.0L299.6 200.3Q299.4 200.9 299.0 201.3Q298.6 201.7 298.1 201.9Q297.5 202.2 296.7 202.2ZM294.6 197.9L294.6 197.9L298.5 197.9Q298.5 197.4 298.3 197.0L298.3 197.0Q298.1 196.4 297.7 196.1Q297.3 195.8 296.6 195.8Q296.0 195.8 295.5 196.1Q295.1 196.5 294.8 197.0L294.8 197.0Q294.6 197.4 294.6 197.9ZM302.5 202L301.3 202L301.3 194.9L302.4 194.9L302.4 196.0L302.5 196.0Q302.7 195.5 303.2 195.1Q303.7 194.8 304.4 194.8L304.4 194.8Q304.5 194.8 304.7 194.8Q304.8 194.8 304.9 194.8L304.9 194.8L304.9 196.0Q304.9 196.0 304.7 195.9Q304.5 195.9 304.3 195.9L304.3 195.9Q303.7 195.9 303.3 196.1Q302.9 196.3 302.7 196.7Q302.5 197.1 302.5 197.6L302.5 197.6L302.5 202Z "/></g><defs><clipPath id="satori_bc-id-4-1" clip-path="url(#satori_cp-id)"><path x="339" y="182" width="119" height="30" d="M354,182 h89 a15,15 0 0 1 15,15 v0 a15,15 0 0 1 -15,15 h-89 a15,15 0 0 1 -15,-15 v0 a15,15 0 0 1 15,-15"/></clipPath></defs><mask id="satori_om-id-4-1"><rect x="340" y="183" width="117" height="28" fill="#fff" mask="url(#satori_om-id)"/><path width="119" height="30" fill="none" stroke="#000" stroke-width="2" d="M343.39300000000003,186.393 A15,15 0 0 1 354,182 h89 a15,15 0 0 1 15,15 v0 a15,15 0 0 1 -15,15 h-89 a15,15 0 0 1 -15,-15 v0 A15,15 0 0 1 343.39300000000003,186.393"/></mask><path x="339" y="182" width="119" height="30" fill="#18181b" d="M354,182 h89 a15,15 0 0 1 15,15 v0 a15,15 0 0 1 -15,15 h-89 a15,15 0 0 1 -15,-15 v0 a15,15 0 0 1 15,-15" clip-path="url(#satori_cp-id)" mask="url(#satori_om-id)"/><path width="119" height="30" clip-path="url(#satori_bc-id-4-1)" fill="none" stroke="#27272a" stroke-width="2" d="M343.39300000000003,186.393 A15,15 0 0 1 354,182 h89 a15,15 0 0 1 15,15 v0 a15,15 0 0 1 -15,15 h-89 a15,15 0 0 1 -15,-15 v0 A15,15 0 0 1 343.39300000000003,186.393"/><g mask="url(#satori_om-id)" clip-path="url(#satori_cp-id)"><path fill="#a1a1aa" d="M363.9 202.2L363.9 202.2Q362.9 202.2 362.2 201.7Q361.5 201.2 361.1 200.4Q360.7 199.6 360.7 198.5L360.7 198.5Q360.7 197.4 361.1 196.6Q361.5 195.7 362.2 195.3Q362.9 194.8 363.9 194.8L363.9 194.8Q364.9 194.8 365.6 195.3Q366.3 195.7 366.7 196.6Q367.1 197.4 367.1 198.5L367.1 198.5Q367.1 199.6 366.7 200.4Q366.3 201.2 365.6 201.7Q364.9 202.2 363.9 202.2ZM363.9 201.1L363.9 201.1Q364.6 201.1 365.1 200.8Q365.5 200.4 365.8 199.8Q366.0 199.2 366.0 198.5L366.0 198.5Q366.0 197.8 365.8 197.2Q365.5 196.6 365.1 196.2Q364.6 195.8 363.9 195.8L363.9 195.8Q363.2 195.8 362.7 196.2Q362.3 196.6 362.0 197.2Q361.8 197.8 361.8 198.5L361.8 198.5Q361.8 199.2 362.0 199.8Q362.3 200.4 362.7 200.8Q363.2 201.1 363.9 201.1ZM369.9 204.7L368.8 204.7L368.8 194.9L369.9 194.9L369.9 196.0L370.0 196.0Q370.1 195.8 370.4 195.6Q370.6 195.3 371.0 195.0Q371.4 194.8 372.1 194.8L372.1 194.8Q373.0 194.8 373.7 195.3Q374.3 195.7 374.7 196.5Q375.1 197.3 375.1 198.5L375.1 198.5Q375.1 199.6 374.7 200.4Q374.3 201.3 373.7 201.7Q373.0 202.2 372.1 202.2L372.1 202.2Q371.4 202.2 371.0 201.9Q370.6 201.7 370.4 201.4Q370.1 201.1 370.0 200.9L370.0 200.9L369.9 200.9L369.9 204.7ZM371.9 201.1L371.9 201.1Q372.6 201.1 373.0 200.8Q373.5 200.4 373.7 199.8Q373.9 199.2 373.9 198.5L373.9 198.5Q373.9 197.7 373.7 197.1Q373.5 196.5 373.0 196.2Q372.6 195.8 371.9 195.8L371.9 195.8Q371.3 195.8 370.8 196.2Q370.4 196.5 370.2 197.1Q369.9 197.7 369.9 198.5L369.9 198.5Q369.9 199.2 370.2 199.8Q370.4 200.5 370.8 200.8Q371.3 201.1 371.9 201.1ZM379.7 202.2L379.7 202.2Q378.7 202.2 378.0 201.7Q377.2 201.2 376.8 200.4Q376.4 199.6 376.4 198.5Q376.4 197.4 376.8 196.6Q377.2 195.8 377.9 195.3Q378.6 194.8 379.6 194.8L379.6 194.8Q380.2 194.8 380.7 195.0Q381.3 195.2 381.7 195.6Q382.2 196.0 382.4 196.7Q382.7 197.4 382.7 198.4L382.7 198.4L382.7 198.8L377.6 198.8Q377.6 199.5 377.8 200.0L377.8 200.0Q378.1 200.6 378.6 200.9Q379.1 201.1 379.7 201.1L379.7 201.1Q380.2 201.1 380.5 201.0Q380.9 200.9 381.1 200.7Q381.3 200.4 381.5 200.0L381.5 200.0L382.6 200.3Q382.4 200.9 382.0 201.3Q381.6 201.7 381.1 201.9Q380.5 202.2 379.7 202.2ZM377.6 197.9L377.6 197.9L381.5 197.9Q381.5 197.4 381.3 197.0L381.3 197.0Q381.1 196.4 380.7 196.1Q380.2 195.8 379.6 195.8Q379.0 195.8 378.5 196.1Q378.1 196.5 377.8 197.0L377.8 197.0Q377.6 197.4 377.6 197.9ZM385.5 197.7L385.5 197.7L385.5 202L384.3 202L384.3 194.9L385.4 194.9L385.4 196.2Q385.7 195.6 386.2 195.2L386.2 195.2Q386.8 194.8 387.6 194.8L387.6 194.8Q388.3 194.8 388.9 195.1Q389.4 195.4 389.7 196.0Q390.0 196.6 390.0 197.5L390.0 197.5L390.0 202L388.9 202L388.9 197.6Q388.9 196.8 388.4 196.3Q388.0 195.8 387.3 195.8L387.3 195.8Q386.8 195.8 386.4 196.1Q385.9 196.3 385.7 196.7Q385.5 197.1 385.5 197.7Z M398.1 202.2L398.1 202.2Q397.4 202.2 396.8 201.9Q396.2 201.7 395.9 201.3Q395.5 200.9 395.4 200.3L395.4 200.3L396.4 200.0Q396.6 200.6 397.0 200.9Q397.4 201.1 398.1 201.1L398.1 201.1Q398.8 201.1 399.3 200.8Q399.7 200.5 399.7 200.1L399.7 200.1Q399.7 199.7 399.4 199.5Q399.2 199.2 398.7 199.1L398.7 199.1L397.5 198.8Q396.5 198.6 396.0 198.1Q395.6 197.6 395.6 196.9L395.6 196.9Q395.6 196.3 395.9 195.8Q396.3 195.3 396.9 195.1Q397.4 194.8 398.2 194.8L398.2 194.8Q398.9 194.8 399.4 195.0Q400.0 195.3 400.3 195.6Q400.6 196.0 400.8 196.5L400.8 196.5L399.7 196.8Q399.6 196.4 399.2 196.1Q398.9 195.8 398.2 195.8L398.2 195.8Q397.6 195.8 397.1 196.1Q396.7 196.4 396.7 196.8L396.7 196.8Q396.7 197.2 397.0 197.4Q397.3 197.7 397.9 197.8L397.9 197.8L399.0 198.1Q400.0 198.3 400.4 198.8Q400.9 199.3 400.9 200.0L400.9 200.0Q400.9 200.6 400.5 201.1Q400.2 201.6 399.5 201.9Q398.9 202.2 398.1 202.2ZM405.4 202.2L405.4 202.2Q404.5 202.2 403.7 201.7Q403.0 201.2 402.6 200.4Q402.2 199.6 402.2 198.5L402.2 198.5Q402.2 197.4 402.6 196.6Q403.0 195.7 403.7 195.3Q404.5 194.8 405.4 194.8L405.4 194.8Q406.4 194.8 407.1 195.3Q407.9 195.7 408.3 196.6Q408.7 197.4 408.7 198.5L408.7 198.5Q408.7 199.6 408.3 200.4Q407.9 201.2 407.1 201.7Q406.4 202.2 405.4 202.2ZM405.4 201.1L405.4 201.1Q406.1 201.1 406.6 200.8Q407.1 200.4 407.3 199.8Q407.5 199.2 407.5 198.5L407.5 198.5Q407.5 197.8 407.3 197.2Q407.1 196.6 406.6 196.2Q406.1 195.8 405.4 195.8L405.4 195.8Q404.7 195.8 404.3 196.2Q403.8 196.6 403.6 197.2Q403.4 197.8 403.4 198.5L403.4 198.5Q403.4 199.2 403.6 199.8Q403.8 200.4 404.3 200.8Q404.7 201.1 405.4 201.1ZM412.7 202.1L412.7 202.1Q412.0 202.1 411.5 201.8Q410.9 201.5 410.6 200.9Q410.3 200.3 410.3 199.4L410.3 199.4L410.3 194.9L411.5 194.9L411.5 199.3Q411.5 200.1 411.9 200.6Q412.3 201.1 413.1 201.1L413.1 201.1Q413.6 201.1 414.0 200.8Q414.4 200.6 414.6 200.2Q414.9 199.8 414.9 199.2L414.9 199.2L414.9 194.9L416.0 194.9L416.0 202L414.9 202L414.9 200.7Q414.6 201.4 414.1 201.7L414.1 201.7Q413.5 202.1 412.7 202.1ZM419.2 202L418.0 202L418.0 194.9L419.1 194.9L419.1 196.0L419.2 196.0Q419.4 195.5 419.9 195.1Q420.4 194.8 421.0 194.8L421.0 194.8Q421.2 194.8 421.3 194.8Q421.5 194.8 421.6 194.8L421.6 194.8L421.6 196.0Q421.6 196.0 421.4 195.9Q421.2 195.9 420.9 195.9L420.9 195.9Q420.4 195.9 420.0 196.1Q419.6 196.3 419.4 196.7Q419.2 197.1 419.2 197.6L419.2 197.6L419.2 202ZM425.8 202.2L425.8 202.2Q424.8 202.2 424.1 201.7Q423.4 201.2 423.0 200.4Q422.6 199.6 422.6 198.5L422.6 198.5Q422.6 197.4 423.0 196.6Q423.4 195.7 424.1 195.3Q424.8 194.8 425.8 194.8L425.8 194.8Q426.3 194.8 426.8 194.9Q427.2 195.1 427.6 195.3Q428.0 195.6 428.3 195.9Q428.5 196.3 428.7 196.8L428.7 196.8L427.6 197.1Q427.5 196.8 427.3 196.6Q427.2 196.4 427.0 196.2Q426.7 196.0 426.4 195.9Q426.1 195.8 425.8 195.8L425.8 195.8Q425.1 195.8 424.6 196.2Q424.2 196.6 424.0 197.2Q423.7 197.8 423.7 198.5L423.7 198.5Q423.7 199.2 424.0 199.8Q424.2 200.4 424.6 200.8Q425.1 201.1 425.8 201.1L425.8 201.1Q426.2 201.1 426.5 201.0Q426.8 200.9 427.0 200.8Q427.2 200.6 427.4 200.3Q427.5 200.1 427.6 199.8L427.6 199.8L428.7 200.1Q428.6 200.6 428.3 201.0Q428.0 201.4 427.6 201.6Q427.2 201.9 426.8 202.0Q426.3 202.2 425.8 202.2ZM433.3 202.2L433.3 202.2Q432.3 202.2 431.5 201.7Q430.8 201.2 430.4 200.4Q430.0 199.6 430.0 198.5Q430.0 197.4 430.4 196.6Q430.8 195.8 431.5 195.3Q432.2 194.8 433.2 194.8L433.2 194.8Q433.8 194.8 434.3 195.0Q434.9 195.2 435.3 195.6Q435.7 196.0 436.0 196.7Q436.3 197.4 436.3 198.4L436.3 198.4L436.3 198.8L431.2 198.8Q431.2 199.5 431.4 200.0L431.4 200.0Q431.7 200.6 432.2 200.9Q432.7 201.1 433.3 201.1L433.3 201.1Q433.7 201.1 434.1 201.0Q434.4 200.9 434.7 200.7Q434.9 200.4 435.1 200.0L435.1 200.0L436.2 200.3Q436.0 200.9 435.6 201.3Q435.2 201.7 434.6 201.9Q434.1 202.2 433.3 202.2ZM431.2 197.9L431.2 197.9L435.1 197.9Q435.1 197.4 434.9 197.0L434.9 197.0Q434.7 196.4 434.3 196.1Q433.8 195.8 433.2 195.8Q432.5 195.8 432.1 196.1Q431.6 196.5 431.4 197.0L431.4 197.0Q431.2 197.4 431.2 197.9Z "/></g><defs><clipPath id="satori_bc-id-4-2" clip-path="url(#satori_cp-id)"><path x="470" y="182" width="117" height="30" d="M485,182 h87 a15,15 0 0 1 15,15 v0 a15,15 0 0 1 -15,15 h-87 a15,15 0 0 1 -15,-15 v0 a15,15 0 0 1 15,-15"/></clipPath></defs><mask id="satori_om-id-4-2"><rect x="471" y="183" width="115" height="28" fill="#fff" mask="url(#satori_om-id)"/><path width="117" height="30" fill="none" stroke="#000" stroke-width="2" d="M474.39300000000003,186.393 A15,15 0 0 1 485,182 h87 a15,15 0 0 1 15,15 v0 a15,15 0 0 1 -15,15 h-87 a15,15 0 0 1 -15,-15 v0 A15,15 0 0 1 474.39300000000003,186.393"/></mask><path x="470" y="182" width="117" height="30" fill="#18181b" d="M485,182 h87 a15,15 0 0 1 15,15 v0 a15,15 0 0 1 -15,15 h-87 a15,15 0 0 1 -15,-15 v0 a15,15 0 0 1 15,-15" clip-path="url(#satori_cp-id)" mask="url(#satori_om-id)"/><path width="117" height="30" clip-path="url(#satori_bc-id-4-2)" fill="none" stroke="#27272a" stroke-width="2" d="M474.39300000000003,186.393 A15,15 0 0 1 485,182 h87 a15,15 0 0 1 15,15 v0 a15,15 0 0 1 -15,15 h-87 a15,15 0 0 1 -15,-15 v0 A15,15 0 0 1 474.39300000000003,186.393"/><g mask="url(#satori_om-id)" clip-path="url(#satori_cp-id)"><path fill="#a1a1aa" d="M494.0 202.2L494.0 202.2Q493.3 202.2 492.8 201.9Q492.2 201.7 491.9 201.2Q491.6 200.7 491.6 200.0L491.6 200.0Q491.6 199.4 491.8 199.0Q492.1 198.6 492.5 198.4Q492.9 198.2 493.3 198.1Q493.8 198.0 494.3 197.9L494.3 197.9Q495.0 197.8 495.4 197.8Q495.8 197.7 496.0 197.6Q496.2 197.5 496.2 197.2L496.2 197.2L496.2 197.2Q496.2 196.8 496.0 196.5Q495.8 196.1 495.5 196.0Q495.2 195.8 494.7 195.8L494.7 195.8Q494.2 195.8 493.8 196.0Q493.4 196.1 493.2 196.4Q493.0 196.6 492.9 196.9L492.9 196.9L491.8 196.5Q492.0 195.8 492.5 195.5Q493.0 195.1 493.5 195.0Q494.1 194.8 494.6 194.8L494.6 194.8Q495.0 194.8 495.4 194.9Q495.9 195.0 496.3 195.2Q496.7 195.5 497.0 196.0Q497.3 196.5 497.3 197.3L497.3 197.3L497.3 202L496.2 202L496.2 201.0L496.1 201.0Q496.0 201.3 495.7 201.5Q495.4 201.8 495.0 202.0Q494.6 202.2 494.0 202.2ZM494.2 201.2L494.2 201.2Q494.8 201.2 495.3 200.9Q495.7 200.7 495.9 200.3Q496.2 199.9 496.2 199.4L496.2 199.4L496.2 198.5Q496.1 198.5 495.8 198.6Q495.6 198.7 495.3 198.7Q495.0 198.8 494.7 198.8Q494.4 198.8 494.3 198.9L494.3 198.9Q493.9 198.9 493.5 199.0Q493.2 199.2 492.9 199.4Q492.7 199.6 492.7 200.0L492.7 200.0Q492.7 200.4 492.9 200.7Q493.1 200.9 493.4 201.0Q493.8 201.2 494.2 201.2ZM500.4 202L499.3 202L499.3 194.9L500.4 194.9L500.4 196.0L500.5 196.0Q500.7 195.5 501.2 195.1Q501.7 194.8 502.3 194.8L502.3 194.8Q502.5 194.8 502.6 194.8Q502.8 194.8 502.9 194.8L502.9 194.8L502.9 196.0Q502.9 196.0 502.6 195.9Q502.4 195.9 502.2 195.9L502.2 195.9Q501.7 195.9 501.3 196.1Q500.9 196.3 500.7 196.7Q500.4 197.1 500.4 197.6L500.4 197.6L500.4 202ZM507.1 202.2L507.1 202.2Q506.1 202.2 505.4 201.7Q504.7 201.2 504.3 200.4Q503.9 199.6 503.9 198.5L503.9 198.5Q503.9 197.4 504.3 196.6Q504.7 195.7 505.4 195.3Q506.1 194.8 507.1 194.8L507.1 194.8Q507.6 194.8 508.1 194.9Q508.5 195.1 508.9 195.3Q509.3 195.6 509.5 195.9Q509.8 196.3 510.0 196.8L510.0 196.8L508.9 197.1Q508.8 196.8 508.6 196.6Q508.5 196.4 508.2 196.2Q508.0 196.0 507.7 195.9Q507.4 195.8 507.1 195.8L507.1 195.8Q506.4 195.8 505.9 196.2Q505.5 196.6 505.2 197.2Q505.0 197.8 505.0 198.5L505.0 198.5Q505.0 199.2 505.2 199.8Q505.5 200.4 505.9 200.8Q506.4 201.1 507.1 201.1L507.1 201.1Q507.4 201.1 507.7 201.0Q508.0 200.9 508.3 200.8Q508.5 200.6 508.7 200.3Q508.8 200.1 508.9 199.8L508.9 199.8L510.0 200.1Q509.8 200.6 509.6 201.0Q509.3 201.4 508.9 201.6Q508.5 201.9 508.1 202.0Q507.6 202.2 507.1 202.2ZM512.8 197.7L512.8 197.7L512.8 202L511.6 202L511.6 192.5L512.8 192.5L512.8 196.1Q513.1 195.5 513.5 195.2L513.5 195.2Q514.1 194.8 514.9 194.8L514.9 194.8Q515.6 194.8 516.2 195.1Q516.7 195.4 517.0 196.0Q517.3 196.6 517.3 197.5L517.3 197.5L517.3 202L516.2 202L516.2 197.6Q516.2 196.8 515.7 196.3Q515.3 195.8 514.6 195.8L514.6 195.8Q514.0 195.8 513.6 196.1Q513.2 196.3 513.0 196.7Q512.8 197.1 512.8 197.7ZM520.5 202L519.3 202L519.3 194.9L520.5 194.9L520.5 202ZM519.9 193.7L519.9 193.7Q519.6 193.7 519.3 193.5Q519.1 193.3 519.1 193.0L519.1 193.0Q519.1 192.7 519.3 192.4Q519.6 192.2 519.9 192.2L519.9 192.2Q520.2 192.2 520.5 192.4Q520.7 192.7 520.7 193.0L520.7 193.0Q520.7 193.3 520.5 193.5Q520.2 193.7 519.9 193.7ZM523.8 194.9L525.3 194.9L525.3 195.9L523.8 195.9L523.8 200.2Q523.8 200.6 524.0 200.9Q524.2 201.1 524.6 201.1L524.6 201.1Q524.7 201.1 524.9 201.0Q525.1 201.0 525.2 201.0L525.2 201.0L525.4 202.0Q525.3 202.0 525.0 202.1Q524.8 202.1 524.6 202.1L524.6 202.1Q523.7 202.1 523.2 201.6Q522.6 201.1 522.6 200.2L522.6 200.2L522.6 195.9L521.6 195.9L521.6 194.9L522.6 194.9L522.6 193.2L523.8 193.2L523.8 194.9ZM529.7 202.2L529.7 202.2Q528.7 202.2 527.9 201.7Q527.2 201.2 526.8 200.4Q526.4 199.6 526.4 198.5Q526.4 197.4 526.8 196.6Q527.2 195.8 527.9 195.3Q528.6 194.8 529.6 194.8L529.6 194.8Q530.1 194.8 530.7 195.0Q531.2 195.2 531.7 195.6Q532.1 196.0 532.4 196.7Q532.7 197.4 532.7 198.4L532.7 198.4L532.7 198.8L527.5 198.8Q527.5 199.5 527.8 200.0L527.8 200.0Q528.1 200.6 528.6 200.9Q529.1 201.1 529.7 201.1L529.7 201.1Q530.1 201.1 530.5 201.0Q530.8 200.9 531.1 200.7Q531.3 200.4 531.4 200.0L531.4 200.0L532.5 200.3Q532.4 200.9 532.0 201.3Q531.6 201.7 531.0 201.9Q530.4 202.2 529.7 202.2ZM527.5 197.9L527.5 197.9L531.5 197.9Q531.4 197.4 531.3 197.0L531.3 197.0Q531.1 196.4 530.6 196.1Q530.2 195.8 529.6 195.8Q528.9 195.8 528.5 196.1Q528.0 196.5 527.8 197.0L527.8 197.0Q527.6 197.4 527.5 197.9ZM537.2 202.2L537.2 202.2Q536.2 202.2 535.5 201.7Q534.8 201.2 534.4 200.4Q533.9 199.6 533.9 198.5L533.9 198.5Q533.9 197.4 534.4 196.6Q534.8 195.7 535.5 195.3Q536.2 194.8 537.2 194.8L537.2 194.8Q537.7 194.8 538.2 194.9Q538.6 195.1 539.0 195.3Q539.4 195.6 539.6 195.9Q539.9 196.3 540.1 196.8L540.1 196.8L539.0 197.1Q538.9 196.8 538.7 196.6Q538.6 196.4 538.3 196.2Q538.1 196.0 537.8 195.9Q537.5 195.8 537.2 195.8L537.2 195.8Q536.5 195.8 536.0 196.2Q535.6 196.6 535.3 197.2Q535.1 197.8 535.1 198.5L535.1 198.5Q535.1 199.2 535.3 199.8Q535.6 200.4 536.0 200.8Q536.5 201.1 537.2 201.1L537.2 201.1Q537.5 201.1 537.8 201.0Q538.1 200.9 538.4 200.8Q538.6 200.6 538.8 200.3Q538.9 200.1 539.0 199.8L539.0 199.8L540.1 200.1Q539.9 200.6 539.7 201.0Q539.4 201.4 539.0 201.6Q538.6 201.9 538.2 202.0Q537.7 202.2 537.2 202.2ZM543.1 194.9L544.5 194.9L544.5 195.9L543.1 195.9L543.1 200.2Q543.1 200.6 543.2 200.9Q543.4 201.1 543.9 201.1L543.9 201.1Q544.0 201.1 544.2 201.0Q544.3 201.0 544.5 201.0L544.5 201.0L544.7 202.0Q544.5 202.0 544.3 202.1Q544.1 202.1 543.9 202.1L543.9 202.1Q542.9 202.1 542.4 201.6Q541.9 201.1 541.9 200.2L541.9 200.2L541.9 195.9L540.8 195.9L540.8 194.9L541.9 194.9L541.9 193.2L543.1 193.2L543.1 194.9ZM548.4 202.1L548.4 202.1Q547.7 202.1 547.1 201.8Q546.6 201.5 546.3 200.9Q546.0 200.3 546.0 199.4L546.0 199.4L546.0 194.9L547.1 194.9L547.1 199.3Q547.1 200.1 547.5 200.6Q548.0 201.1 548.7 201.1L548.7 201.1Q549.2 201.1 549.6 200.8Q550.0 200.6 550.3 200.2Q550.5 199.8 550.5 199.2L550.5 199.2L550.5 194.9L551.7 194.9L551.7 202L550.5 202L550.5 200.7Q550.2 201.4 549.8 201.7L549.8 201.7Q549.2 202.1 548.4 202.1ZM554.8 202L553.7 202L553.7 194.9L554.8 194.9L554.8 196.0L554.8 196.0Q555.0 195.5 555.5 195.1Q556.0 194.8 556.7 194.8L556.7 194.8Q556.8 194.8 557.0 194.8Q557.2 194.8 557.3 194.8L557.3 194.8L557.3 196.0Q557.2 196.0 557.0 195.9Q556.8 195.9 556.6 195.9L556.6 195.9Q556.1 195.9 555.7 196.1Q555.3 196.3 555.0 196.7Q554.8 197.1 554.8 197.6L554.8 197.6L554.8 202ZM561.5 202.2L561.5 202.2Q560.5 202.2 559.8 201.7Q559.0 201.2 558.6 200.4Q558.2 199.6 558.2 198.5Q558.2 197.4 558.6 196.6Q559.0 195.8 559.7 195.3Q560.4 194.8 561.4 194.8L561.4 194.8Q562.0 194.8 562.5 195.0Q563.1 195.2 563.5 195.6Q564.0 196.0 564.2 196.7Q564.5 197.4 564.5 198.4L564.5 198.4L564.5 198.8L559.4 198.8Q559.4 199.5 559.6 200.0L559.6 200.0Q559.9 200.6 560.4 200.9Q560.9 201.1 561.5 201.1L561.5 201.1Q562.0 201.1 562.3 201.0Q562.6 200.9 562.9 200.7Q563.1 200.4 563.3 200.0L563.3 200.0L564.4 200.3Q564.2 200.9 563.8 201.3Q563.4 201.7 562.8 201.9Q562.3 202.2 561.5 202.2ZM559.4 197.9L559.4 197.9L563.3 197.9Q563.3 197.4 563.1 197.0L563.1 197.0Q562.9 196.4 562.5 196.1Q562.0 195.8 561.4 195.8Q560.8 195.8 560.3 196.1Q559.8 196.5 559.6 197.0L559.6 197.0Q559.4 197.4 559.4 197.9Z "/></g></svg>