<!-- Generated by readme-aura https://github.com/collectioneur/readme-aura -->
<svg width="120" height="44" viewBox="0 0 120 44" xmlns="http://www.w3.org/2000/svg"><defs><clipPath id="satori_bc-id"><path x="0" y="0" width="120" height="44" d="M22,0 h76 a22,22 0 0 1 22,22 v0 a22,22 0 0 1 -22,22 h-76 a22,22 0 0 1 -22,-22 v0 a22,22 0 0 1 22,-22"/></clipPath></defs><mask id="satori_om-id"><rect x="1" y="1" width="118" height="42" fill="#fff"/><path width="120" height="44" fill="none" stroke="#000" stroke-width="2" d="M6.444000000000001,6.444000000000001 A22,22 0 0 1 22,0 h76 a22,22 0 0 1 22,22 v0 a22,22 0 0 1 -22,22 h-76 a22,22 0 0 1 -22,-22 v0 A22,22 0 0 1 6.444000000000001,6.444000000000001"/></mask><path x="0" y="0" width="120" height="44" fill="#e1306c" d="M22,0 h76 a22,22 0 0 1 22,22 v0 a22,22 0 0 1 -22,22 h-76 a22,22 0 0 1 -22,-22 v0 a22,22 0 0 1 22,-22"/><path width="120" height="44" clip-path="url(#satori_bc-id)" fill="none" stroke="#27272a" stroke-width="2" d="M6.444000000000001,6.444000000000001 A22,22 0 0 1 22,0 h76 a22,22 0 0 1 22,22 v0 a22,22 0 0 1 -22,22 h-76 a22,22 0 0 1 -22,-22 v0 A22,22 0 0 1 6.444000000000001,6.444000000000001"/><mask id="satori_om-id-0"><rect x="25" y="14" width="70" height="17" fill="#fff"/></mask><g  ><path fill="white" d="M25.9 17.8L28.0 17.8L28.0 28L25.9 28L25.9 17.8ZM31.9 23.6L31.9 23.6L31.9 28L29.8 28L29.8 20.4L31.7 20.4L31.8 21.9Q32.1 21.2 32.6 20.8L32.6 20.8Q33.2 20.3 34.1 20.3L34.1 20.3Q34.9 20.3 35.5 20.6Q36.1 21.0 36.4 21.6Q36.8 22.2 36.8 23.1L36.8 23.1L36.8 28L34.7 28L34.7 23.5Q34.7 22.8 34.4 22.4Q34.0 22.0 33.3 22.0L33.3 22.0Q32.9 22.0 32.6 22.2Q32.2 22.4 32.0 22.7Q31.9 23.1 31.9 23.6ZM41.6 28.2L41.6 28.2Q40.6 28.2 39.9 27.9Q39.2 27.6 38.8 27.1Q38.3 26.6 38.2 25.9L38.2 25.9L40.1 25.6Q40.2 26.1 40.6 26.4Q41.0 26.6 41.6 26.6L41.6 26.6Q42.2 26.6 42.5 26.4Q42.9 26.2 42.9 25.9L42.9 25.9Q42.9 25.6 42.6 25.4Q42.4 25.2 41.9 25.1L41.9 25.1L40.6 24.8Q39.5 24.6 38.9 24.0Q38.4 23.5 38.4 22.6L38.4 22.6Q38.4 21.9 38.8 21.4Q39.2 20.8 39.9 20.5Q40.6 20.3 41.6 20.3L41.6 20.3Q42.5 20.3 43.2 20.5Q43.8 20.8 44.2 21.2Q44.6 21.7 44.8 22.3L44.8 22.3L43.0 22.6Q42.8 22.2 42.5 22.0Q42.2 21.7 41.6 21.7L41.6 21.7Q41.1 21.7 40.8 21.9Q40.4 22.2 40.4 22.5L40.4 22.5Q40.4 22.8 40.7 23.0Q40.9 23.2 41.4 23.3L41.4 23.3L42.8 23.6Q43.9 23.8 44.4 24.3Q45.0 24.8 45.0 25.6L45.0 25.6Q45.0 26.4 44.5 27.0Q44.1 27.5 43.3 27.8Q42.6 28.2 41.6 28.2ZM48.7 20.4L50.2 20.4L50.2 21.9L48.7 21.9L48.7 25.8Q48.7 26.1 48.9 26.3Q49.0 26.5 49.4 26.5L49.4 26.5Q49.5 26.5 49.8 26.4Q50.0 26.4 50.1 26.4L50.1 26.4L50.4 27.9Q50.0 28.0 49.7 28.1Q49.3 28.1 49.0 28.1L49.0 28.1Q47.9 28.1 47.3 27.5Q46.7 27.0 46.7 25.9L46.7 25.9L46.7 21.9L45.6 21.9L45.6 20.4L46.7 20.4L46.7 18.5L48.7 18.5L48.7 20.4ZM53.6 28.2L53.6 28.2Q52.9 28.2 52.3 27.9Q51.7 27.6 51.4 27.1Q51.1 26.6 51.1 25.9L51.1 25.9Q51.1 25.2 51.3 24.8Q51.6 24.4 52.0 24.1Q52.4 23.8 52.9 23.7Q53.4 23.6 54.0 23.5L54.0 23.5Q54.6 23.4 55.0 23.4Q55.4 23.3 55.6 23.2Q55.8 23.1 55.8 22.8L55.8 22.8L55.8 22.8Q55.8 22.5 55.7 22.2Q55.5 22.0 55.3 21.9Q55.0 21.8 54.6 21.8L54.6 21.8Q54.2 21.8 53.9 21.9Q53.6 22.0 53.5 22.2Q53.3 22.4 53.2 22.7L53.2 22.7L51.3 22.4Q51.5 21.7 52.0 21.2Q52.4 20.8 53.1 20.5Q53.8 20.3 54.6 20.3L54.6 20.3Q55.2 20.3 55.8 20.4Q56.4 20.6 56.9 20.9Q57.3 21.2 57.6 21.7Q57.9 22.2 57.9 22.9L57.9 22.9L57.9 28L55.9 28L55.9 26.9L55.9 26.9Q55.7 27.3 55.4 27.6Q55.1 27.8 54.6 28.0Q54.2 28.2 53.6 28.2ZM54.2 26.7L54.2 26.7Q54.7 26.7 55.1 26.5Q55.4 26.3 55.6 26.0Q55.8 25.7 55.8 25.3L55.8 25.3L55.8 24.4Q55.7 24.5 55.6 24.6Q55.4 24.6 55.1 24.7Q54.9 24.7 54.7 24.7Q54.5 24.8 54.3 24.8L54.3 24.8Q53.9 24.8 53.6 25.0Q53.4 25.1 53.2 25.3Q53.0 25.5 53.0 25.8L53.0 25.8Q53.0 26.1 53.2 26.3Q53.3 26.5 53.6 26.6Q53.9 26.7 54.2 26.7ZM63.0 31.0L63.0 31.0Q62.1 31.0 61.3 30.8Q60.6 30.5 60.2 30.1Q59.7 29.7 59.6 29.1L59.6 29.1L61.3 28.7Q61.4 28.9 61.6 29.1Q61.8 29.3 62.2 29.4Q62.5 29.5 63.0 29.5L63.0 29.5Q63.8 29.5 64.2 29.2Q64.7 28.8 64.7 28.1L64.7 28.1L64.7 26.6L64.5 26.6Q64.4 27.0 64.1 27.2Q63.9 27.5 63.4 27.7Q63.0 27.9 62.4 27.9L62.4 27.9Q61.5 27.9 60.8 27.5Q60.1 27.1 59.7 26.3Q59.3 25.4 59.3 24.2L59.3 24.2Q59.3 22.9 59.7 22.0Q60.2 21.1 60.9 20.7Q61.6 20.3 62.4 20.3L62.4 20.3Q63.1 20.3 63.5 20.5Q63.9 20.7 64.2 21.0Q64.5 21.3 64.6 21.6L64.6 21.6L64.7 21.6L64.7 20.4L66.7 20.4L66.7 27.9Q66.7 29.0 66.2 29.7Q65.8 30.3 64.9 30.7Q64.1 31.0 63.0 31.0ZM63.0 26.3L63.0 26.3Q63.6 26.3 63.9 26.1Q64.3 25.8 64.5 25.3Q64.7 24.8 64.7 24.2L64.7 24.2Q64.7 23.5 64.5 23.0Q64.3 22.5 63.9 22.2Q63.6 21.9 63.0 21.9L63.0 21.9Q62.5 21.9 62.1 22.2Q61.8 22.5 61.6 23.0Q61.4 23.5 61.4 24.2L61.4 24.2Q61.4 24.8 61.6 25.3Q61.8 25.8 62.1 26.1Q62.5 26.3 63.0 26.3ZM70.5 28L68.5 28L68.5 20.4L70.4 20.4L70.4 21.7L70.5 21.7Q70.7 21.0 71.2 20.6Q71.7 20.3 72.4 20.3L72.4 20.3Q72.5 20.3 72.7 20.3Q72.9 20.3 73.0 20.3L73.0 20.3L73.0 22.2Q72.9 22.1 72.6 22.1Q72.4 22.1 72.1 22.1L72.1 22.1Q71.7 22.1 71.3 22.3Q70.9 22.5 70.7 22.8Q70.5 23.2 70.5 23.7L70.5 23.7L70.5 28ZM76.3 28.2L76.3 28.2Q75.6 28.2 75.0 27.9Q74.4 27.6 74.1 27.1Q73.8 26.6 73.8 25.9L73.8 25.9Q73.8 25.2 74.0 24.8Q74.2 24.4 74.6 24.1Q75.0 23.8 75.6 23.7Q76.1 23.6 76.6 23.5L76.6 23.5Q77.3 23.4 77.7 23.4Q78.1 23.3 78.3 23.2Q78.5 23.1 78.5 22.8L78.5 22.8L78.5 22.8Q78.5 22.5 78.4 22.2Q78.2 22.0 77.9 21.9Q77.7 21.8 77.3 21.8L77.3 21.8Q76.9 21.8 76.6 21.9Q76.3 22.0 76.1 22.2Q75.9 22.4 75.9 22.7L75.9 22.7L74.0 22.4Q74.2 21.7 74.6 21.2Q75.1 20.8 75.8 20.5Q76.4 20.3 77.3 20.3L77.3 20.3Q77.9 20.3 78.5 20.4Q79.1 20.6 79.5 20.9Q80.0 21.2 80.3 21.7Q80.5 22.2 80.5 22.9L80.5 22.9L80.5 28L78.6 28L78.6 26.9L78.5 26.9Q78.3 27.3 78.0 27.6Q77.7 27.8 77.3 28.0Q76.9 28.2 76.3 28.2ZM76.9 26.7L76.9 26.7Q77.4 26.7 77.7 26.5Q78.1 26.3 78.3 26.0Q78.5 25.7 78.5 25.3L78.5 25.3L78.5 24.4Q78.4 24.5 78.2 24.6Q78.0 24.6 77.8 24.7Q77.6 24.7 77.4 24.7Q77.2 24.8 77.0 24.8L77.0 24.8Q76.6 24.8 76.3 25.0Q76.0 25.1 75.9 25.3Q75.7 25.5 75.7 25.8L75.7 25.8Q75.7 26.1 75.9 26.3Q76.0 26.5 76.3 26.6Q76.5 26.7 76.9 26.7ZM84.3 28L82.3 28L82.3 20.4L84.2 20.4L84.3 21.8Q84.4 21.4 84.7 21.1L84.7 21.1Q85.0 20.7 85.5 20.5Q85.9 20.2 86.5 20.2L86.5 20.2Q87.3 20.2 87.8 20.8L87.8 20.8Q88.2 21.2 88.4 22.0L88.4 22.0Q88.6 21.5 88.9 21.2L88.9 21.2Q89.2 20.7 89.8 20.5Q90.3 20.2 90.9 20.2L90.9 20.2Q91.6 20.2 92.1 20.5Q92.7 20.9 93.0 21.4Q93.3 22.0 93.3 22.8L93.3 22.8L93.3 28L91.3 28L91.3 23.2Q91.3 22.6 90.9 22.3Q90.6 22.0 90.1 22.0L90.1 22.0Q89.7 22.0 89.4 22.1Q89.1 22.3 88.9 22.6Q88.8 22.9 88.8 23.3L88.8 23.3L88.8 28L86.8 28L86.8 23.2Q86.8 22.6 86.5 22.3Q86.1 22.0 85.6 22.0L85.6 22.0Q85.3 22.0 85.0 22.1Q84.7 22.3 84.5 22.6Q84.3 22.9 84.3 23.4L84.3 23.4L84.3 28Z "/></g></svg>