<!-- Generated by readme-aura https://github.com/collectioneur/readme-aura -->
<svg width="160" height="48" viewBox="0 0 160 48" xmlns="http://www.w3.org/2000/svg"><defs><clipPath id="satori_bc-id"><path x="0" y="0" width="160" height="48" d="M24,0 h112 a24,24 0 0 1 24,24 v0 a24,24 0 0 1 -24,24 h-112 a24,24 0 0 1 -24,-24 v0 a24,24 0 0 1 24,-24"/></clipPath></defs><mask id="satori_om-id"><rect x="1" y="1" width="158" height="46" fill="#fff"/><path width="160" height="48" fill="none" stroke="#000" stroke-width="2" d="M7.029,7.029 A24,24 0 0 1 24,0 h112 a24,24 0 0 1 24,24 v0 a24,24 0 0 1 -24,24 h-112 a24,24 0 0 1 -24,-24 v0 A24,24 0 0 1 7.029,7.029"/></mask><path x="0" y="0" width="160" height="48" fill="#09090b" d="M24,0 h112 a24,24 0 0 1 24,24 v0 a24,24 0 0 1 -24,24 h-112 a24,24 0 0 1 -24,-24 v0 a24,24 0 0 1 24,-24"/><path width="160" height="48" clip-path="url(#satori_bc-id)" fill="none" stroke="#27272a" stroke-width="2" d="M7.029,7.029 A24,24 0 0 1 24,0 h112 a24,24 0 0 1 24,24 v0 a24,24 0 0 1 -24,24 h-112 a24,24 0 0 1 -24,-24 v0 A24,24 0 0 1 7.029,7.029"/><mask id="satori_om-id-0"><rect x="47" y="16" width="66" height="17" fill="#fff"/></mask><g  ><path fill="white" d="M48.2 19.8L49.5 19.8L49.5 30L48.2 30L48.2 19.8ZM53.1 25.4L53.1 25.4L53.1 30L51.8 30L51.8 22.4L53.0 22.4L53.0 23.8Q53.4 23.1 53.9 22.7L53.9 22.7Q54.5 22.3 55.4 22.3L55.4 22.3Q56.1 22.3 56.7 22.6Q57.3 22.9 57.6 23.5Q58.0 24.2 58.0 25.1L58.0 25.1L58.0 30L56.7 30L56.7 25.2Q56.7 24.4 56.3 23.9Q55.8 23.4 55.0 23.4L55.0 23.4Q54.5 23.4 54.0 23.6Q53.6 23.8 53.3 24.3Q53.1 24.8 53.1 25.4ZM62.7 30.2L62.7 30.2Q61.9 30.2 61.3 29.9Q60.7 29.7 60.3 29.3Q59.9 28.8 59.8 28.1L59.8 28.1L60.9 27.9Q61.1 28.5 61.6 28.8Q62.0 29.1 62.7 29.1L62.7 29.1Q63.5 29.1 64.0 28.7Q64.4 28.4 64.4 27.9L64.4 27.9Q64.4 27.5 64.2 27.3Q63.9 27.0 63.3 26.9L63.3 26.9L62.1 26.6Q61.0 26.3 60.5 25.8Q60.0 25.3 60.0 24.5L60.0 24.5Q60.0 23.8 60.4 23.3Q60.7 22.8 61.4 22.5Q62.0 22.3 62.8 22.3L62.8 22.3Q63.6 22.3 64.2 22.5Q64.7 22.7 65.1 23.1Q65.4 23.6 65.6 24.1L65.6 24.1L64.5 24.4Q64.3 24.0 63.9 23.6Q63.6 23.3 62.8 23.3L62.8 23.3Q62.2 23.3 61.7 23.6Q61.2 23.9 61.2 24.4L61.2 24.4Q61.2 24.8 61.6 25.1Q61.9 25.4 62.5 25.5L62.5 25.5L63.7 25.8Q64.7 26.0 65.2 26.5Q65.7 27.1 65.7 27.8L65.7 27.8Q65.7 28.5 65.3 29.0Q65.0 29.6 64.3 29.9Q63.6 30.2 62.7 30.2ZM68.9 22.4L70.5 22.4L70.5 23.4L68.9 23.4L68.9 28.0Q68.9 28.5 69.1 28.8Q69.4 29.0 69.8 29.0L69.8 29.0Q70.0 29.0 70.1 29.0Q70.3 28.9 70.5 28.9L70.5 28.9L70.7 30.0Q70.5 30.0 70.3 30.1Q70.0 30.1 69.8 30.1L69.8 30.1Q68.8 30.1 68.3 29.6Q67.7 29.0 67.7 28.1L67.7 28.1L67.7 23.4L66.6 23.4L66.6 22.4L67.7 22.4L67.7 20.5L68.9 20.5L68.9 22.4ZM74.2 30.2L74.2 30.2Q73.5 30.2 72.9 29.9Q72.3 29.6 72.0 29.1Q71.6 28.6 71.6 27.8L71.6 27.8Q71.6 27.2 71.9 26.8Q72.1 26.3 72.6 26.1Q73.0 25.9 73.5 25.8Q74.1 25.6 74.6 25.6L74.6 25.6Q75.3 25.5 75.7 25.4Q76.1 25.4 76.3 25.3Q76.6 25.2 76.6 24.9L76.6 24.9L76.6 24.8Q76.6 24.4 76.4 24.0Q76.2 23.7 75.8 23.5Q75.5 23.3 75.0 23.3L75.0 23.3Q74.4 23.3 74.0 23.5Q73.6 23.7 73.4 23.9Q73.1 24.2 73.0 24.5L73.0 24.5L71.8 24.1Q72.1 23.4 72.6 23.0Q73.1 22.6 73.7 22.4Q74.3 22.3 74.9 22.3L74.9 22.3Q75.3 22.3 75.8 22.4Q76.3 22.4 76.7 22.7Q77.2 23.0 77.5 23.5Q77.8 24.1 77.8 25.0L77.8 25.0L77.8 30L76.6 30L76.6 29.0L76.5 29.0Q76.4 29.2 76.1 29.5Q75.8 29.8 75.3 30.0Q74.9 30.2 74.2 30.2ZM74.4 29.1L74.4 29.1Q75.1 29.1 75.6 28.8Q76.1 28.6 76.3 28.1Q76.6 27.7 76.6 27.2L76.6 27.2L76.6 26.2Q76.5 26.3 76.2 26.3Q76.0 26.4 75.6 26.5Q75.3 26.5 75.0 26.6Q74.7 26.6 74.5 26.6L74.5 26.6Q74.1 26.7 73.7 26.8Q73.3 26.9 73.1 27.2Q72.9 27.5 72.9 27.9L72.9 27.9Q72.9 28.3 73.1 28.6Q73.3 28.8 73.6 29.0Q74.0 29.1 74.4 29.1ZM83.0 33.0L83.0 33.0Q82.2 33.0 81.6 32.8Q81.0 32.6 80.5 32.2Q80.1 31.9 79.9 31.5L79.9 31.5L80.9 30.8Q81.1 31.0 81.3 31.3Q81.5 31.6 82.0 31.8Q82.4 31.9 83.0 31.9L83.0 31.9Q84.0 31.9 84.5 31.5Q85.1 31.1 85.1 30.1L85.1 30.1L85.1 28.6L85.0 28.6Q84.9 28.8 84.7 29.1Q84.4 29.4 84.0 29.6Q83.5 29.9 82.8 29.9L82.8 29.9Q81.9 29.9 81.2 29.4Q80.4 29.0 80.0 28.2Q79.6 27.3 79.6 26.1L79.6 26.1Q79.6 25.0 80.0 24.1Q80.4 23.2 81.1 22.7Q81.9 22.3 82.8 22.3L82.8 22.3Q83.6 22.3 84.0 22.5Q84.4 22.7 84.7 23.1Q84.9 23.4 85.1 23.6L85.1 23.6L85.2 23.6L85.2 22.4L86.4 22.4L86.4 30.2Q86.4 31.2 85.9 31.8Q85.5 32.4 84.7 32.7Q84.0 33.0 83.0 33.0ZM83.0 28.8L83.0 28.8Q83.7 28.8 84.2 28.5Q84.7 28.1 84.9 27.5Q85.2 27.0 85.2 26.1L85.2 26.1Q85.2 25.3 84.9 24.7Q84.7 24.1 84.2 23.7Q83.7 23.4 83.0 23.4L83.0 23.4Q82.3 23.4 81.8 23.7Q81.3 24.1 81.1 24.7Q80.8 25.4 80.8 26.1L80.8 26.1Q80.8 26.9 81.1 27.5Q81.3 28.1 81.8 28.4Q82.3 28.8 83.0 28.8ZM89.8 30L88.5 30L88.5 22.4L89.7 22.4L89.7 23.5L89.8 23.5Q90.0 23.0 90.6 22.6Q91.1 22.2 91.8 22.2L91.8 22.2Q91.9 22.2 92.1 22.3Q92.3 22.3 92.4 22.3L92.4 22.3L92.4 23.5Q92.3 23.5 92.1 23.5Q91.9 23.4 91.7 23.4L91.7 23.4Q91.1 23.4 90.7 23.7Q90.3 23.9 90.0 24.3Q89.8 24.7 89.8 25.2L89.8 25.2L89.8 30ZM95.9 30.2L95.9 30.2Q95.2 30.2 94.6 29.9Q94.0 29.6 93.7 29.1Q93.3 28.6 93.3 27.8L93.3 27.8Q93.3 27.2 93.6 26.8Q93.9 26.3 94.3 26.1Q94.7 25.9 95.2 25.8Q95.8 25.6 96.3 25.6L96.3 25.6Q97.0 25.5 97.4 25.4Q97.9 25.4 98.1 25.3Q98.3 25.2 98.3 24.9L98.3 24.9L98.3 24.8Q98.3 24.4 98.1 24.0Q97.9 23.7 97.6 23.5Q97.2 23.3 96.7 23.3L96.7 23.3Q96.1 23.3 95.7 23.5Q95.3 23.7 95.1 23.9Q94.9 24.2 94.7 24.5L94.7 24.5L93.6 24.1Q93.8 23.4 94.3 23.0Q94.8 22.6 95.4 22.4Q96.0 22.3 96.6 22.3L96.6 22.3Q97.0 22.3 97.5 22.4Q98.0 22.4 98.5 22.7Q98.9 23.0 99.2 23.5Q99.5 24.1 99.5 25.0L99.5 25.0L99.5 30L98.3 30L98.3 29.0L98.2 29.0Q98.1 29.2 97.8 29.5Q97.5 29.8 97.0 30.0Q96.6 30.2 95.9 30.2ZM96.2 29.1L96.2 29.1Q96.8 29.1 97.3 28.8Q97.8 28.6 98.0 28.1Q98.3 27.7 98.3 27.2L98.3 27.2L98.3 26.2Q98.2 26.3 97.9 26.3Q97.7 26.4 97.4 26.5Q97.0 26.5 96.7 26.6Q96.4 26.6 96.3 26.6L96.3 26.6Q95.8 26.7 95.4 26.8Q95.0 26.9 94.8 27.2Q94.6 27.5 94.6 27.9L94.6 27.9Q94.6 28.3 94.8 28.6Q95.0 28.8 95.3 29.0Q95.7 29.1 96.2 29.1ZM102.9 30L101.7 30L101.7 22.4L102.9 22.4L102.9 23.8Q103.0 23.3 103.3 23.0L103.3 23.0Q103.6 22.6 104.1 22.4Q104.5 22.2 105.0 22.2L105.0 22.2Q105.8 22.2 106.4 22.7L106.4 22.7Q106.8 23.2 107.0 23.8L107.0 23.8Q107.1 23.4 107.4 23.1L107.4 23.1Q107.7 22.7 108.2 22.4Q108.7 22.2 109.4 22.2L109.4 22.2Q110.0 22.2 110.6 22.5Q111.1 22.8 111.4 23.4Q111.8 24.0 111.8 24.8L111.8 24.8L111.8 30L110.5 30L110.5 24.9Q110.5 24.1 110.1 23.7Q109.6 23.3 109.0 23.3L109.0 23.3Q108.5 23.3 108.1 23.6Q107.7 23.8 107.5 24.1Q107.3 24.5 107.3 25.0L107.3 25.0L107.3 30L106.1 30L106.1 24.8Q106.1 24.1 105.7 23.7Q105.2 23.3 104.6 23.3L104.6 23.3Q104.2 23.3 103.8 23.6Q103.4 23.8 103.1 24.2Q102.9 24.6 102.9 25.2L102.9 25.2L102.9 30Z "/></g></svg>