<!-- Generated by readme-aura https://github.com/collectioneur/readme-aura -->
<svg width="860" height="140" viewBox="0 0 860 140" xmlns="http://www.w3.org/2000/svg"><defs><clipPath id="satori_bc-id"><path x="0" y="0" width="860" height="140" d="M16,0 h828 a16,16 0 0 1 16,16 v108 a16,16 0 0 1 -16,16 h-828 a16,16 0 0 1 -16,-16 v-108 a16,16 0 0 1 16,-16"/></clipPath></defs><clipPath id="satori_cp-id"><path x="0" y="0" width="860" height="140" d="M16,0 h828 a16,16 0 0 1 16,16 v108 a16,16 0 0 1 -16,16 h-828 a16,16 0 0 1 -16,-16 v-108 a16,16 0 0 1 16,-16"/></clipPath><mask id="satori_om-id"><rect x="1" y="1" width="858" height="138" fill="#fff"/><path width="860" height="140" fill="none" stroke="#000" stroke-width="2" d="M4.686,4.686 A16,16 0 0 1 16,0 h828 a16,16 0 0 1 16,16 v108 a16,16 0 0 1 -16,16 h-828 a16,16 0 0 1 -16,-16 v-108 A16,16 0 0 1 4.686,4.686"/></mask><path x="0" y="0" width="860" height="140" fill="#08080c" d="M16,0 h828 a16,16 0 0 1 16,16 v108 a16,16 0 0 1 -16,16 h-828 a16,16 0 0 1 -16,-16 v-108 a16,16 0 0 1 16,-16"/><path width="860" height="140" clip-path="url(#satori_bc-id)" fill="none" stroke="rgba(110,80,220,0.18)" stroke-width="2" d="M4.686,4.686 A16,16 0 0 1 16,0 h828 a16,16 0 0 1 16,16 v108 a16,16 0 0 1 -16,16 h-828 a16,16 0 0 1 -16,-16 v-108 A16,16 0 0 1 4.686,4.686"/><clipPath id="satori_cp-id-0" clip-path="url(#satori_cp-id)"><rect x="1" y="1" width="860" height="140"/></clipPath><mask id="satori_om-id-0"><rect x="1" y="1" width="860" height="140" fill="#fff" mask="url(#satori_om-id)"/></mask><svg x="1" y="1" width="860" height="140" preserveAspectRatio="none" clip-path="url(#satori_cp-id-0)" mask="url(#satori_om-id-0)"><defs><radialGradient id="g1" cx="50%" cy="50%" r="50%"><stop offset="0%" stop-color="rgba(110,20,210,0.65)"></stop><stop offset="45%" stop-color="rgba(80,15,170,0.28)"></stop><stop offset="70%" stop-color="rgba(80,15,170,0)"></stop></radialGradient><radialGradient id="g2" cx="50%" cy="50%" r="50%"><stop offset="0%" stop-color="rgba(40,70,255,0.55)"></stop><stop offset="45%" stop-color="rgba(20,50,200,0.22)"></stop><stop offset="70%" stop-color="rgba(20,50,200,0)"></stop></radialGradient><radialGradient id="g3" cx="50%" cy="50%" r="50%"><stop offset="0%" stop-color="rgba(0,140,255,0.42)"></stop><stop offset="70%" stop-color="rgba(0,140,255,0)"></stop></radialGradient><radialGradient id="g4" cx="50%" cy="50%" r="50%"><stop offset="0%" stop-color="rgba(0,195,235,0.30)"></stop><stop offset="70%" stop-color="rgba(0,195,235,0)"></stop></radialGradient><radialGradient id="g5" cx="50%" cy="50%" r="50%"><stop offset="0%" stop-color="rgba(100,30,210,0.40)"></stop><stop offset="70%" stop-color="rgba(100,30,210,0)"></stop></radialGradient></defs><ellipse id="glow-1" cx="710" cy="150" rx="210" ry="150" fill="url(#g1)"></ellipse><ellipse id="glow-2" cx="550" cy="140" rx="190" ry="140" fill="url(#g2)"></ellipse><ellipse id="glow-3" cx="400" cy="130" rx="170" ry="130" fill="url(#g3)"></ellipse><ellipse id="glow-4" cx="250" cy="140" rx="150" ry="120" fill="url(#g4)"></ellipse><ellipse id="glow-5" cx="100" cy="150" rx="130" ry="110" fill="url(#g5)"></ellipse><style>

         @keyframes float-slow {
           0%, 100% { transform: translateX(0px); opacity: 0.8; }
           50% { transform: translateX(350px); opacity: 1.2; }
         }
         @keyframes float-medium {
           0%, 100% { transform: translateX(0px); opacity: 0.7; }
           50% { transform: translateX(-250px); opacity: 1.1; }
         }
         @keyframes float-fast {
           0%, 100% { transform: translateX(0px); opacity: 0.9; }
           50% { transform: translateX(200px); opacity: 0.6; }
         }
         @keyframes float-diagonal {
           0%, 100% { transform: translate(0px, 0px); opacity: 0.75; }
           50% { transform: translate(120px, 30px); opacity: 1.0; }
         }
         @keyframes float-wave {
           0%, 100% { transform: translateX(0px); opacity: 0.65; }
           33% { transform: translateX(-160px); opacity: 0.9; }
           66% { transform: translateX(80px); opacity: 1.0; }
         }
         #glow-1 { animation: float-slow 8s ease-in-out infinite; }
         #glow-2 { animation: float-medium 12s ease-in-out infinite; }
         #glow-3 { animation: float-fast 9s ease-in-out infinite; }
         #glow-4 { animation: float-diagonal 10s ease-in-out infinite; }
         #glow-5 { animation: float-wave 14s ease-in-out infinite; }
       
</style>
</svg><mask id="satori_om-id-0-0"><rect x="1" y="1" width="0" height="140" fill="#fff" mask="url(#satori_om-id)"/></mask><mask id="satori_om-id-0-0-0"><rect x="1" y="1" width="0" height="140" fill="#fff" mask="url(#satori_om-id)"/></mask><mask id="satori_om-id-0-0-0-0"><rect x="1" y="1" width="0" height="140" fill="#fff" mask="url(#satori_om-id)"/></mask><mask id="satori_om-id-0-0-0-1"><rect x="1" y="1" width="0" height="140" fill="#fff" mask="url(#satori_om-id)"/></mask><mask id="satori_om-id-0-0-0-2"><rect x="1" y="1" width="0" height="140" fill="#fff" mask="url(#satori_om-id)"/></mask><mask id="satori_om-id-0-0-1"><rect x="1" y="1" width="0" height="140" fill="#fff" mask="url(#satori_om-id)"/></mask><mask id="satori_om-id-0-0-1-0"><rect x="1" y="1" width="0" height="140" fill="#fff" mask="url(#satori_om-id)"/></mask><mask id="satori_om-id-0-0-1-1"><rect x="1" y="1" width="0" height="140" fill="#fff" mask="url(#satori_om-id)"/></mask><mask id="satori_om-id-0-0-1-2"><rect x="1" y="1" width="0" height="140" fill="#fff" mask="url(#satori_om-id)"/></mask><mask id="satori_om-id-0-0-2"><rect x="1" y="1" width="0" height="140" fill="#fff" mask="url(#satori_om-id)"/></mask><mask id="satori_om-id-0-0-2-0"><rect x="1" y="1" width="0" height="140" fill="#fff" mask="url(#satori_om-id)"/></mask><mask id="satori_om-id-0-0-2-1"><rect x="1" y="1" width="0" height="140" fill="#fff" mask="url(#satori_om-id)"/></mask><mask id="satori_om-id-0-0-3"><rect x="1" y="1" width="0" height="140" fill="#fff" mask="url(#satori_om-id)"/></mask><mask id="satori_om-id-0-0-3-0"><rect x="1" y="1" width="0" height="140" fill="#fff" mask="url(#satori_om-id)"/></mask><mask id="satori_om-id-0-0-3-1"><rect x="1" y="1" width="0" height="140" fill="#fff" mask="url(#satori_om-id)"/></mask><mask id="satori_om-id-0-0-4"><rect x="1" y="1" width="0" height="140" fill="#fff" mask="url(#satori_om-id)"/></mask><mask id="satori_om-id-0-0-4-0"><rect x="1" y="1" width="0" height="140" fill="#fff" mask="url(#satori_om-id)"/></mask><mask id="satori_om-id-0-0-4-1"><rect x="1" y="1" width="0" height="140" fill="#fff" mask="url(#satori_om-id)"/></mask><mask id="satori_om-id-0-1"><rect x="1" y="1" width="0" height="140" fill="#fff" mask="url(#satori_om-id)"/></mask><mask id="satori_om-id-0-2"><rect x="1" y="1" width="0" height="140" fill="#fff" mask="url(#satori_om-id)"/></mask><mask id="satori_om-id-0-3"><rect x="1" y="1" width="0" height="140" fill="#fff" mask="url(#satori_om-id)"/></mask><mask id="satori_om-id-0-4"><rect x="1" y="1" width="0" height="140" fill="#fff" mask="url(#satori_om-id)"/></mask><mask id="satori_om-id-0-5"><rect x="1" y="1" width="0" height="140" fill="#fff" mask="url(#satori_om-id)"/></mask><defs><clipPath id="satori_bc-id-1" clip-path="url(#satori_cp-id)"><rect x="1" y="30" width="276" height="80"/></clipPath></defs><mask id="satori_om-id-1"><rect x="1" y="30" width="275" height="80" fill="#fff" mask="url(#satori_om-id)"/><path width="276" height="80" fill="none" stroke="#000" stroke-width="2" d="M277,30 A0,0 0 0 1 277,30 v80 A0,0 0 0 1 277,110"/></mask><path width="276" height="80" clip-path="url(#satori_bc-id-1)" fill="none" stroke="rgba(255,255,255,0.06)" stroke-width="2" d="M277,30 A0,0 0 0 1 277,30 v80 A0,0 0 0 1 277,110"/><mask id="satori_om-id-1-0"><rect x="112" y="46" width="52" height="30" fill="#fff" mask="url(#satori_om-id)"/></mask><g mask="url(#satori_om-id)" clip-path="url(#satori_cp-id)"><path fill="#a78bfa" d="M118.2 50.2L123.0 50.2L123.0 72L118.5 72L118.5 54.1L118.4 54.1L113.4 57.7L113.4 53.6L118.2 50.2ZM142.2 72L126.8 72L126.8 68.8L134.5 61.5Q135.5 60.6 136.2 59.8Q136.8 59.0 137.2 58.2Q137.6 57.5 137.6 56.6L137.6 56.6Q137.6 55.6 137.1 54.9Q136.7 54.2 135.9 53.8Q135.2 53.5 134.2 53.5L134.2 53.5Q133.2 53.5 132.4 53.9Q131.6 54.3 131.2 55.0Q130.8 55.8 130.8 56.9L130.8 56.9L126.5 56.9Q126.5 54.7 127.5 53.2Q128.5 51.6 130.2 50.7Q132.0 49.9 134.2 49.9L134.2 49.9Q136.5 49.9 138.3 50.7Q140.0 51.5 140.9 53.0Q141.9 54.4 141.9 56.3L141.9 56.3Q141.9 57.5 141.4 58.7Q140.9 59.9 139.7 61.4Q138.5 62.9 136.3 64.9L136.3 64.9L133.0 68.2L133.0 68.3L142.2 68.3L142.2 72ZM153.1 72.3L153.1 72.3Q151.0 72.3 149.3 71.5Q147.7 70.6 146.7 69.2Q145.6 67.7 145.4 65.9L145.4 65.9L149.9 65.9Q150.1 67.1 151.0 67.8Q151.8 68.5 153.1 68.5L153.1 68.5Q154.6 68.5 155.6 67.6Q156.6 66.8 157.1 65.2Q157.6 63.6 157.6 61.5L157.6 61.5L157.4 61.5Q156.9 62.4 156.1 63.1Q155.3 63.8 154.2 64.1Q153.1 64.5 151.9 64.5L151.9 64.5Q150.0 64.5 148.5 63.6Q147.0 62.7 146.1 61.1Q145.2 59.5 145.2 57.5L145.2 57.5Q145.2 55.2 146.2 53.5Q147.3 51.8 149.1 50.8Q150.9 49.8 153.3 49.9L153.3 49.9Q155.0 49.9 156.5 50.4Q158.1 51.0 159.3 52.2Q160.5 53.5 161.2 55.5Q162.0 57.6 162.0 60.6L162.0 60.6Q162.0 63.3 161.3 65.5Q160.7 67.7 159.6 69.2Q158.4 70.7 156.8 71.5Q155.2 72.3 153.1 72.3ZM153.3 61.2L153.3 61.2Q154.1 61.2 154.8 60.9Q155.5 60.6 156.0 60.1Q156.5 59.5 156.8 58.8Q157.1 58.1 157.1 57.3L157.1 57.3Q157.1 56.3 156.6 55.4Q156.1 54.5 155.3 54.0Q154.4 53.4 153.3 53.4L153.3 53.4Q152.3 53.4 151.4 53.9Q150.6 54.5 150.1 55.4Q149.6 56.2 149.6 57.3L149.6 57.3Q149.6 58.4 150.0 59.3Q150.5 60.2 151.4 60.7Q152.2 61.2 153.3 61.2Z "/></g><mask id="satori_om-id-1-1"><rect x="116" y="81" width="45" height="13" fill="#fff" mask="url(#satori_om-id)"/></mask><g mask="url(#satori_om-id)" clip-path="url(#satori_cp-id)"><path fill="rgba(200,195,225,0.45)" d="M118.4 92L116.7 92L116.7 84.0L119.8 84.0Q120.8 84.0 121.4 84.3Q122.0 84.6 122.4 85.2Q122.7 85.8 122.7 86.6Q122.7 87.4 122.4 88.0Q122.0 88.5 121.4 88.8L121.4 88.8Q121.3 88.9 121.3 88.9L121.3 88.9L123.0 92L121.2 92L119.6 89.1L118.4 89.1L118.4 92ZM118.4 85.4L118.4 87.8L119.5 87.8Q120.0 87.8 120.4 87.7Q120.7 87.5 120.9 87.3Q121.0 87.0 121.0 86.6L121.0 86.6Q121.0 86.2 120.9 85.9Q120.7 85.6 120.4 85.5Q120.0 85.4 119.5 85.4L119.5 85.4L118.4 85.4ZM130.8 92L125.4 92L125.4 84.0L130.8 84.0L130.8 85.4L127.1 85.4L127.1 87.3L130.5 87.3L130.5 88.6L127.1 88.6L127.1 90.6L130.8 90.6L130.8 92ZM135.3 92L133.6 92L133.6 84.0L136.8 84.0Q137.7 84.0 138.3 84.3Q138.9 84.7 139.3 85.3Q139.6 85.9 139.6 86.7L139.6 86.7Q139.6 87.5 139.3 88.1Q138.9 88.7 138.3 89.0Q137.6 89.4 136.7 89.4L136.7 89.4L135.3 89.4L135.3 92ZM135.3 85.4L135.3 88.1L136.5 88.1Q137.0 88.1 137.3 87.9Q137.6 87.7 137.8 87.4Q137.9 87.1 137.9 86.7Q137.9 86.3 137.8 86.0Q137.6 85.7 137.3 85.5Q137.0 85.4 136.4 85.4L136.4 85.4L135.3 85.4ZM145.8 92.1L145.8 92.1Q144.7 92.1 143.9 91.6Q143.0 91.1 142.5 90.2Q142.0 89.3 142.0 88.0L142.0 88.0Q142.0 86.7 142.5 85.8Q143.0 84.9 143.9 84.4Q144.7 83.9 145.8 83.9L145.8 83.9Q146.8 83.9 147.7 84.4Q148.5 84.9 149.0 85.8Q149.5 86.7 149.5 88.0L149.5 88.0Q149.5 89.3 149.0 90.2Q148.5 91.1 147.7 91.6Q146.8 92.1 145.8 92.1ZM145.8 90.7L145.8 90.7Q146.4 90.7 146.9 90.3Q147.3 90.0 147.6 89.5Q147.8 88.9 147.8 88.0L147.8 88.0Q147.8 87.1 147.6 86.5Q147.3 86.0 146.9 85.6Q146.4 85.3 145.8 85.3L145.8 85.3Q145.2 85.3 144.7 85.7Q144.2 86.0 144.0 86.6Q143.7 87.1 143.7 88.0L143.7 88.0Q143.7 88.9 144.0 89.4Q144.2 90.0 144.7 90.3Q145.2 90.7 145.8 90.7ZM155.2 92.1L155.2 92.1Q154.2 92.1 153.5 91.8Q152.8 91.5 152.4 90.9Q152.0 90.4 152.0 89.5L152.0 89.5L153.6 89.5Q153.6 89.9 153.8 90.2Q154.0 90.5 154.4 90.6Q154.7 90.7 155.2 90.7L155.2 90.7Q155.6 90.7 155.9 90.6Q156.2 90.5 156.4 90.2Q156.6 90.0 156.6 89.7L156.6 89.7Q156.6 89.4 156.4 89.3Q156.3 89.1 156.0 88.9Q155.7 88.8 155.2 88.7L155.2 88.7L154.3 88.5Q153.3 88.2 152.8 87.7Q152.2 87.2 152.2 86.3L152.2 86.3Q152.2 85.6 152.6 85.0Q153.0 84.5 153.6 84.2Q154.3 83.9 155.2 83.9L155.2 83.9Q156.1 83.9 156.7 84.2Q157.4 84.5 157.8 85.0Q158.1 85.6 158.1 86.3L158.1 86.3L156.6 86.3Q156.5 85.8 156.2 85.5Q155.8 85.3 155.2 85.3L155.2 85.3Q154.8 85.3 154.5 85.4Q154.2 85.5 154.0 85.7Q153.9 85.9 153.9 86.2L153.9 86.2Q153.9 86.5 154.0 86.7Q154.2 86.9 154.5 87.0Q154.8 87.1 155.1 87.2L155.1 87.2L155.9 87.4Q156.4 87.5 156.8 87.7Q157.2 87.9 157.6 88.2Q157.9 88.4 158.1 88.8Q158.3 89.2 158.3 89.7L158.3 89.7Q158.3 90.4 157.9 91.0Q157.5 91.5 156.8 91.8Q156.1 92.1 155.2 92.1Z "/></g><defs><clipPath id="satori_bc-id-2" clip-path="url(#satori_cp-id)"><rect x="277" y="30" width="275" height="80"/></clipPath></defs><mask id="satori_om-id-2"><rect x="277" y="30" width="274" height="80" fill="#fff" mask="url(#satori_om-id)"/><path width="275" height="80" fill="none" stroke="#000" stroke-width="2" d="M552,30 A0,0 0 0 1 552,30 v80 A0,0 0 0 1 552,110"/></mask><path width="275" height="80" clip-path="url(#satori_bc-id-2)" fill="none" stroke="rgba(255,255,255,0.06)" stroke-width="2" d="M552,30 A0,0 0 0 1 552,30 v80 A0,0 0 0 1 552,110"/><mask id="satori_om-id-2-0"><rect x="388" y="46" width="52" height="30" fill="#fff" mask="url(#satori_om-id)"/></mask><g mask="url(#satori_om-id)" clip-path="url(#satori_cp-id)"><path fill="#60a5fa" d="M394.2 50.2L399.0 50.2L399.0 72L394.5 72L394.5 54.1L394.4 54.1L389.4 57.7L389.4 53.6L394.2 50.2ZM411.0 72.3L411.0 72.3Q409.3 72.3 407.7 71.7Q406.2 71.2 405.0 69.9Q403.7 68.7 403.0 66.7Q402.3 64.6 402.3 61.6L402.3 61.6Q402.3 58.8 402.9 56.7Q403.5 54.5 404.7 53.0Q405.9 51.5 407.5 50.7Q409.1 49.9 411.1 49.9L411.1 49.9Q413.3 49.9 414.9 50.7Q416.6 51.6 417.6 53.0Q418.6 54.4 418.8 56.2L418.8 56.2L414.4 56.2Q414.1 55.1 413.3 54.4Q412.4 53.7 411.1 53.7L411.1 53.7Q409.7 53.7 408.7 54.6Q407.7 55.4 407.2 57.0Q406.7 58.6 406.7 60.7L406.7 60.7L406.9 60.7Q407.4 59.8 408.2 59.1Q409.0 58.4 410.1 58.0Q411.1 57.7 412.3 57.7L412.3 57.7Q414.3 57.7 415.8 58.6Q417.3 59.5 418.2 61.1Q419.1 62.7 419.1 64.7L419.1 64.7Q419.1 66.9 418.0 68.6Q417.0 70.3 415.2 71.3Q413.4 72.3 411.0 72.3ZM410.9 68.7L410.9 68.7Q412.0 68.7 412.9 68.2Q413.7 67.7 414.2 66.8Q414.7 65.9 414.7 64.8L414.7 64.8Q414.7 63.7 414.2 62.8Q413.7 62.0 412.9 61.4Q412.0 60.9 411.0 60.9L411.0 60.9Q410.1 60.9 409.5 61.2Q408.8 61.5 408.3 62.1Q407.7 62.6 407.4 63.3Q407.2 64.0 407.2 64.8L407.2 64.8Q407.2 65.9 407.6 66.8Q408.1 67.7 409.0 68.2Q409.8 68.7 410.9 68.7ZM429.6 72.3L429.6 72.3Q427.4 72.3 425.6 71.5Q423.9 70.6 422.9 69.2Q421.8 67.7 421.8 65.9L421.8 65.9L426.1 65.9Q426.2 66.7 426.7 67.4Q427.1 68.0 427.9 68.4Q428.7 68.7 429.6 68.7L429.6 68.7Q430.7 68.7 431.6 68.3Q432.4 67.8 432.9 66.9Q433.4 66.0 433.4 64.9L433.4 64.9Q433.4 63.7 432.9 62.8Q432.4 61.9 431.5 61.4Q430.7 60.9 429.5 60.9L429.5 60.9Q428.6 60.9 427.7 61.3Q426.8 61.7 426.3 62.3L426.3 62.3L422.2 61.6L423.3 50.2L436.5 50.2L436.5 53.9L427.0 53.9L426.4 59.4L426.6 59.4Q427.1 58.6 428.3 58.1Q429.4 57.6 430.8 57.6L430.8 57.6Q432.3 57.6 433.6 58.1Q434.8 58.6 435.8 59.6Q436.7 60.5 437.2 61.9Q437.7 63.2 437.7 64.7L437.7 64.7Q437.7 66.9 436.7 68.6Q435.7 70.3 433.8 71.3Q432.0 72.3 429.6 72.3Z "/></g><mask id="satori_om-id-2-1"><rect x="392" y="81" width="45" height="13" fill="#fff" mask="url(#satori_om-id)"/></mask><g mask="url(#satori_om-id)" clip-path="url(#satori_cp-id)"><path fill="rgba(200,195,225,0.45)" d="M395.7 92.1L395.7 92.1Q394.7 92.1 394.0 91.8Q393.3 91.5 392.9 90.9Q392.5 90.4 392.5 89.5L392.5 89.5L394.1 89.5Q394.1 89.9 394.3 90.2Q394.5 90.5 394.9 90.6Q395.2 90.7 395.6 90.7L395.6 90.7Q396.1 90.7 396.4 90.6Q396.7 90.5 396.9 90.2Q397.1 90.0 397.1 89.7L397.1 89.7Q397.1 89.4 396.9 89.3Q396.8 89.1 396.5 88.9Q396.2 88.8 395.7 88.7L395.7 88.7L394.8 88.5Q393.8 88.2 393.2 87.7Q392.7 87.2 392.7 86.3L392.7 86.3Q392.7 85.6 393.1 85.0Q393.5 84.5 394.1 84.2Q394.8 83.9 395.7 83.9L395.7 83.9Q396.6 83.9 397.2 84.2Q397.9 84.5 398.3 85.0Q398.6 85.6 398.6 86.3L398.6 86.3L397.1 86.3Q397.0 85.8 396.6 85.5Q396.3 85.3 395.7 85.3L395.7 85.3Q395.2 85.3 395.0 85.4Q394.7 85.5 394.5 85.7Q394.4 85.9 394.4 86.2L394.4 86.2Q394.4 86.5 394.5 86.7Q394.7 86.9 395.0 87.0Q395.3 87.1 395.6 87.2L395.6 87.2L396.4 87.4Q396.9 87.5 397.3 87.7Q397.7 87.9 398.1 88.2Q398.4 88.4 398.6 88.8Q398.7 89.2 398.7 89.7L398.7 89.7Q398.7 90.4 398.4 91.0Q398.0 91.5 397.3 91.8Q396.6 92.1 395.7 92.1ZM403.6 85.4L401.1 85.4L401.1 84.0L407.6 84.0L407.6 85.4L405.2 85.4L405.2 92L403.6 92L403.6 85.4ZM411.6 92L409.8 92L412.5 84.0L414.7 84.0L417.5 92L415.7 92L415.1 90.1L412.2 90.1L411.6 92ZM412.6 88.9L414.6 88.9L414.4 88.1Q414.2 87.4 413.9 86.5L413.9 86.5Q413.8 85.9 413.6 85.3L413.6 85.3Q413.4 85.9 413.3 86.5L413.3 86.5Q413.1 87.4 412.9 88.1L412.9 88.1L412.6 88.9ZM421.6 92L420.0 92L420.0 84.0L423.1 84.0Q424.0 84.0 424.7 84.3Q425.3 84.6 425.6 85.2Q426.0 85.8 426.0 86.6Q426.0 87.4 425.6 88.0Q425.3 88.5 424.6 88.8L424.6 88.8Q424.6 88.9 424.5 88.9L424.5 88.9L426.3 92L424.4 92L422.9 89.1L421.6 89.1L421.6 92ZM421.6 85.4L421.6 87.8L422.8 87.8Q423.3 87.8 423.6 87.7Q424.0 87.5 424.1 87.3Q424.3 87.0 424.3 86.6L424.3 86.6Q424.3 86.2 424.1 85.9Q424.0 85.6 423.6 85.5Q423.3 85.4 422.8 85.4L422.8 85.4L421.6 85.4ZM431.6 92.1L431.6 92.1Q430.7 92.1 430.0 91.8Q429.3 91.5 428.9 90.9Q428.5 90.4 428.4 89.5L428.4 89.5L430.0 89.5Q430.1 89.9 430.3 90.2Q430.5 90.5 430.8 90.6Q431.2 90.7 431.6 90.7L431.6 90.7Q432.1 90.7 432.4 90.6Q432.7 90.5 432.9 90.2Q433.1 90.0 433.1 89.7L433.1 89.7Q433.1 89.4 432.9 89.3Q432.8 89.1 432.4 88.9Q432.1 88.8 431.7 88.7L431.7 88.7L430.8 88.5Q429.8 88.2 429.2 87.7Q428.7 87.2 428.7 86.3L428.7 86.3Q428.7 85.6 429.0 85.0Q429.4 84.5 430.1 84.2Q430.8 83.9 431.7 83.9L431.7 83.9Q432.5 83.9 433.2 84.2Q433.9 84.5 434.2 85.0Q434.6 85.6 434.6 86.3L434.6 86.3L433.0 86.3Q433.0 85.8 432.6 85.5Q432.3 85.3 431.6 85.3L431.6 85.3Q431.2 85.3 430.9 85.4Q430.6 85.5 430.5 85.7Q430.3 85.9 430.3 86.2L430.3 86.2Q430.3 86.5 430.5 86.7Q430.7 86.9 431.0 87.0Q431.3 87.1 431.6 87.2L431.6 87.2L432.3 87.4Q432.8 87.5 433.3 87.7Q433.7 87.9 434.0 88.2Q434.4 88.4 434.5 88.8Q434.7 89.2 434.7 89.7L434.7 89.7Q434.7 90.4 434.4 91.0Q434.0 91.5 433.3 91.8Q432.6 92.1 431.6 92.1Z "/></g><mask id="satori_om-id-3"><rect x="552" y="30" width="307" height="80" fill="#fff" mask="url(#satori_om-id)"/></mask><mask id="satori_om-id-3-0"><rect x="663" y="46" width="84" height="30" fill="#fff" mask="url(#satori_om-id)"/></mask><g mask="url(#satori_om-id)" clip-path="url(#satori_cp-id)"><path fill="#f59e0b" d="M669.2 50.2L674.0 50.2L674.0 72L669.5 72L669.5 54.1L669.4 54.1L664.4 57.7L664.4 53.6L669.2 50.2ZM682.1 50.2L686.9 50.2L686.9 72L682.4 72L682.4 54.1L682.3 54.1L677.3 57.7L677.3 53.6L682.1 50.2ZM698.9 72.3L698.9 72.3Q697.2 72.3 695.7 71.7Q694.1 71.2 692.9 69.9Q691.7 68.7 691.0 66.7Q690.2 64.6 690.2 61.6L690.2 61.6Q690.2 58.8 690.9 56.7Q691.5 54.5 692.6 53.0Q693.8 51.5 695.4 50.7Q697.0 49.9 699.0 49.9L699.0 49.9Q701.2 49.9 702.9 50.7Q704.5 51.6 705.5 53.0Q706.5 54.4 706.8 56.2L706.8 56.2L702.4 56.2Q702.1 55.1 701.2 54.4Q700.3 53.7 699.0 53.7L699.0 53.7Q697.6 53.7 696.6 54.6Q695.6 55.4 695.1 57.0Q694.6 58.6 694.6 60.7L694.6 60.7L694.8 60.7Q695.3 59.8 696.1 59.1Q696.9 58.4 698.0 58.0Q699.1 57.7 700.3 57.7L700.3 57.7Q702.2 57.7 703.7 58.6Q705.2 59.5 706.1 61.1Q707.0 62.7 707.0 64.7L707.0 64.7Q707.0 66.9 706.0 68.6Q704.9 70.3 703.1 71.3Q701.3 72.3 698.9 72.3ZM698.9 68.7L698.9 68.7Q699.9 68.7 700.8 68.2Q701.6 67.7 702.1 66.8Q702.6 65.9 702.6 64.8L702.6 64.8Q702.6 63.7 702.2 62.8Q701.7 62.0 700.8 61.4Q700.0 60.9 698.9 60.9L698.9 60.9Q698.1 60.9 697.4 61.2Q696.7 61.5 696.2 62.1Q695.7 62.6 695.4 63.3Q695.1 64.0 695.1 64.8L695.1 64.8Q695.1 65.9 695.6 66.8Q696.1 67.7 696.9 68.2Q697.8 68.7 698.9 68.7ZM718.5 72.3L718.5 72.3Q715.7 72.3 713.8 71.0Q711.8 69.6 710.8 67.1Q709.7 64.6 709.7 61.1L709.7 61.1Q709.7 57.6 710.8 55.1Q711.8 52.5 713.8 51.2Q715.7 49.9 718.5 49.9L718.5 49.9Q721.2 49.9 723.2 51.2Q725.1 52.6 726.2 55.1Q727.2 57.6 727.2 61.1L727.2 61.1Q727.2 64.6 726.2 67.1Q725.1 69.6 723.2 71.0Q721.2 72.3 718.5 72.3ZM718.5 68.6L718.5 68.6Q719.8 68.6 720.7 67.7Q721.7 66.8 722.2 65.2Q722.6 63.5 722.6 61.1L722.6 61.1Q722.6 58.7 722.2 57.0Q721.7 55.3 720.7 54.5Q719.8 53.6 718.5 53.6L718.5 53.6Q717.1 53.6 716.2 54.5Q715.3 55.3 714.8 57.0Q714.3 58.7 714.3 61.1L714.3 61.1Q714.3 63.5 714.8 65.2Q715.3 66.8 716.2 67.7Q717.1 68.6 718.5 68.6ZM735.2 72L730.6 72L739.7 54.0L739.7 53.9L729.1 53.9L729.1 50.2L744.3 50.2L744.3 53.9L735.2 72Z "/></g><mask id="satori_om-id-3-1"><rect x="672" y="81" width="66" height="13" fill="#fff" mask="url(#satori_om-id)"/></mask><g mask="url(#satori_om-id)" clip-path="url(#satori_cp-id)"><path fill="rgba(200,195,225,0.45)" d="M676.2 92.1L676.2 92.1Q675.2 92.1 674.3 91.6Q673.5 91.1 673.0 90.2Q672.5 89.3 672.5 88.0L672.5 88.0Q672.5 86.7 673.0 85.8Q673.5 84.9 674.3 84.4Q675.2 83.9 676.2 83.9L676.2 83.9Q676.9 83.9 677.5 84.1Q678.1 84.3 678.5 84.6Q679.0 85.0 679.3 85.5Q679.6 86.1 679.7 86.7L679.7 86.7L678.0 86.7Q678.0 86.4 677.8 86.1Q677.6 85.9 677.4 85.7Q677.2 85.5 676.9 85.4Q676.6 85.3 676.3 85.3L676.3 85.3Q675.6 85.3 675.2 85.7Q674.7 86.0 674.4 86.6Q674.2 87.2 674.2 88.0L674.2 88.0Q674.2 88.9 674.4 89.5Q674.7 90.1 675.2 90.4Q675.6 90.7 676.2 90.7L676.2 90.7Q676.6 90.7 676.9 90.6Q677.2 90.5 677.4 90.3Q677.6 90.1 677.8 89.8Q678.0 89.6 678.0 89.3L678.0 89.3L679.7 89.3Q679.6 89.8 679.3 90.3Q679.1 90.8 678.6 91.2Q678.2 91.6 677.6 91.9Q677.0 92.1 676.2 92.1ZM685.9 92.1L685.9 92.1Q684.8 92.1 684.0 91.6Q683.1 91.1 682.6 90.2Q682.1 89.3 682.1 88.0L682.1 88.0Q682.1 86.7 682.6 85.8Q683.1 84.9 684.0 84.4Q684.8 83.9 685.9 83.9L685.9 83.9Q686.9 83.9 687.8 84.4Q688.6 84.9 689.1 85.8Q689.6 86.7 689.6 88.0L689.6 88.0Q689.6 89.3 689.1 90.2Q688.6 91.1 687.8 91.6Q686.9 92.1 685.9 92.1ZM685.9 90.7L685.9 90.7Q686.5 90.7 687.0 90.3Q687.4 90.0 687.7 89.5Q687.9 88.9 687.9 88.0L687.9 88.0Q687.9 87.1 687.7 86.5Q687.4 86.0 687.0 85.6Q686.5 85.3 685.9 85.3L685.9 85.3Q685.3 85.3 684.8 85.7Q684.3 86.0 684.1 86.6Q683.8 87.1 683.8 88.0L683.8 88.0Q683.8 88.9 684.1 89.4Q684.3 90.0 684.8 90.3Q685.3 90.7 685.9 90.7ZM694.0 92L692.3 92L692.3 84.0L694.9 84.0L696.2 87.7Q696.2 87.9 696.3 88.3Q696.4 88.7 696.5 89.2L696.5 89.2Q696.7 89.7 696.7 90.1L696.7 90.1Q696.8 89.7 696.9 89.2L696.9 89.2Q697.0 88.8 697.2 88.3Q697.3 87.9 697.3 87.7L697.3 87.7L698.6 84.0L701.1 84.0L701.1 92L699.5 92L699.5 88.2Q699.5 88.0 699.5 87.6Q699.5 87.2 699.5 86.7Q699.5 86.3 699.5 85.8L699.5 85.8Q699.6 85.6 699.6 85.4L699.6 85.4Q699.5 85.6 699.4 85.9L699.4 85.9Q699.3 86.3 699.2 86.8Q699.1 87.2 698.9 87.6Q698.8 88.0 698.8 88.2L698.8 88.2L697.4 92L696.0 92L694.7 88.2Q694.6 88.0 694.5 87.6Q694.4 87.2 694.3 86.8Q694.1 86.4 694.0 85.9L694.0 85.9Q694.0 85.7 693.9 85.5L693.9 85.5Q693.9 85.6 693.9 85.8L693.9 85.8Q693.9 86.2 693.9 86.7Q693.9 87.2 694.0 87.6Q694.0 88.0 694.0 88.2L694.0 88.2L694.0 92ZM705.7 92L704.1 92L704.1 84.0L706.6 84.0L707.9 87.7Q708.0 87.9 708.1 88.3Q708.2 88.7 708.3 89.2L708.3 89.2Q708.4 89.7 708.5 90.1L708.5 90.1Q708.6 89.7 708.7 89.2L708.7 89.2Q708.8 88.8 708.9 88.3Q709.0 87.9 709.1 87.7L709.1 87.7L710.4 84.0L712.9 84.0L712.9 92L711.2 92L711.2 88.2Q711.2 88.0 711.2 87.6Q711.3 87.2 711.3 86.7Q711.3 86.3 711.3 85.8L711.3 85.8Q711.3 85.6 711.3 85.4L711.3 85.4Q711.2 85.6 711.2 85.9L711.2 85.9Q711.1 86.3 710.9 86.8Q710.8 87.2 710.7 87.6Q710.6 88.0 710.5 88.2L710.5 88.2L709.2 92L707.8 92L706.4 88.2Q706.4 88.0 706.3 87.6Q706.1 87.2 706.0 86.8Q705.9 86.4 705.8 85.9L705.8 85.9Q705.7 85.7 705.7 85.5L705.7 85.5Q705.7 85.6 705.7 85.8L705.7 85.8Q705.7 86.2 705.7 86.7Q705.7 87.2 705.7 87.6Q705.7 88.0 705.7 88.2L705.7 88.2L705.7 92ZM715.8 84.0L717.5 84.0L717.5 92L715.8 92L715.8 84.0ZM722.5 85.4L720.1 85.4L720.1 84.0L726.6 84.0L726.6 85.4L724.2 85.4L724.2 92L722.5 92L722.5 85.4ZM732.2 92.1L732.2 92.1Q731.2 92.1 730.5 91.8Q729.8 91.5 729.4 90.9Q729.0 90.4 729.0 89.5L729.0 89.5L730.6 89.5Q730.6 89.9 730.8 90.2Q731.0 90.5 731.4 90.6Q731.7 90.7 732.2 90.7L732.2 90.7Q732.6 90.7 732.9 90.6Q733.3 90.5 733.5 90.2Q733.6 90.0 733.6 89.7L733.6 89.7Q733.6 89.4 733.5 89.3Q733.3 89.1 733.0 88.9Q732.7 88.8 732.3 88.7L732.3 88.7L731.4 88.5Q730.4 88.2 729.8 87.7Q729.2 87.2 729.2 86.3L729.2 86.3Q729.2 85.6 729.6 85.0Q730.0 84.5 730.7 84.2Q731.3 83.9 732.2 83.9L732.2 83.9Q733.1 83.9 733.8 84.2Q734.4 84.5 734.8 85.0Q735.2 85.6 735.2 86.3L735.2 86.3L733.6 86.3Q733.6 85.8 733.2 85.5Q732.8 85.3 732.2 85.3L732.2 85.3Q731.8 85.3 731.5 85.4Q731.2 85.5 731.0 85.7Q730.9 85.9 730.9 86.2L730.9 86.2Q730.9 86.5 731.1 86.7Q731.2 86.9 731.5 87.0Q731.8 87.1 732.2 87.2L732.2 87.2L732.9 87.4Q733.4 87.5 733.8 87.7Q734.3 87.9 734.6 88.2Q734.9 88.4 735.1 88.8Q735.3 89.2 735.3 89.7L735.3 89.7Q735.3 90.4 734.9 91.0Q734.6 91.5 733.9 91.8Q733.2 92.1 732.2 92.1Z "/></g></svg>