<!-- Generated by readme-aura https://github.com/collectioneur/readme-aura -->
<svg width="800" height="160" viewBox="0 0 800 160" xmlns="http://www.w3.org/2000/svg"><defs><clipPath id="satori_bc-id"><path x="0" y="0" width="800" height="160" d="M24,0 h752 a24,24 0 0 1 24,24 v112 a24,24 0 0 1 -24,24 h-752 a24,24 0 0 1 -24,-24 v-112 a24,24 0 0 1 24,-24"/></clipPath></defs><clipPath id="satori_cp-id"><path x="0" y="0" width="800" height="160" d="M24,0 h752 a24,24 0 0 1 24,24 v112 a24,24 0 0 1 -24,24 h-752 a24,24 0 0 1 -24,-24 v-112 a24,24 0 0 1 24,-24"/></clipPath><mask id="satori_om-id"><rect x="1" y="1" width="798" height="158" fill="#fff"/><path width="800" height="160" fill="none" stroke="#000" stroke-width="2" d="M7.029,7.029 A24,24 0 0 1 24,0 h752 a24,24 0 0 1 24,24 v112 a24,24 0 0 1 -24,24 h-752 a24,24 0 0 1 -24,-24 v-112 A24,24 0 0 1 7.029,7.029"/></mask><path x="0" y="0" width="800" height="160" fill="#09090b" d="M24,0 h752 a24,24 0 0 1 24,24 v112 a24,24 0 0 1 -24,24 h-752 a24,24 0 0 1 -24,-24 v-112 a24,24 0 0 1 24,-24"/><path width="800" height="160" clip-path="url(#satori_bc-id)" fill="none" stroke="#27272a" stroke-width="2" d="M7.029,7.029 A24,24 0 0 1 24,0 h752 a24,24 0 0 1 24,24 v112 a24,24 0 0 1 -24,24 h-752 a24,24 0 0 1 -24,-24 v-112 A24,24 0 0 1 7.029,7.029"/><defs><pattern id="satori_pattern_id-0_0" x="0" y="0" width="1" height="1" patternUnits="objectBoundingBox"><radialGradient id="satori_radial_id-0_0" spreadMethod="pad"><stop offset="0" stop-color="rgba(236, 72, 153, 0.25)"/><stop offset="0.7" stop-color="rgba(0,0,0,0)"/><stop offset="1" stop-color="rgba(0,0,0,0)"/></radialGradient><mask id="satori_mask_id-0_0"><rect x="0" y="0" width="300" height="200" fill="#fff"/></mask><rect x="0" y="0" width="300" height="200" fill="rgba(0,0,0,0)"/><circle cx="150" cy="100" width="300" height="200" r="180.27756377319946" fill="url(#satori_radial_id-0_0)" mask="url(#satori_mask_id-0_0)"/></pattern></defs><mask id="satori_om-id-0"><rect x="41" y="39" width="300" height="200" fill="#fff" mask="url(#satori_om-id)"/></mask><rect x="41" y="39" width="300" height="200" fill="url(#satori_pattern_id-0_0)" clip-path="url(#satori_cp-id)" mask="url(#satori_om-id)"/><defs><pattern id="satori_pattern_id-1_0" x="0" y="0" width="1" height="1" patternUnits="objectBoundingBox"><radialGradient id="satori_radial_id-1_0" spreadMethod="pad"><stop offset="0" stop-color="rgba(59, 130, 246, 0.25)"/><stop offset="0.7" stop-color="rgba(0,0,0,0)"/><stop offset="1" stop-color="rgba(0,0,0,0)"/></radialGradient><mask id="satori_mask_id-1_0"><rect x="0" y="0" width="300" height="200" fill="#fff"/></mask><rect x="0" y="0" width="300" height="200" fill="rgba(0,0,0,0)"/><circle cx="150" cy="100" width="300" height="200" r="180.27756377319946" fill="url(#satori_radial_id-1_0)" mask="url(#satori_mask_id-1_0)"/></pattern></defs><mask id="satori_om-id-1"><rect x="459" y="39" width="300" height="200" fill="#fff" mask="url(#satori_om-id)"/></mask><rect x="459" y="39" width="300" height="200" fill="url(#satori_pattern_id-1_0)" clip-path="url(#satori_cp-id)" mask="url(#satori_om-id)"/><defs><pattern id="satori_pattern_id-2_0" x="0" y="0" width="1" height="1" patternUnits="objectBoundingBox"><radialGradient id="satori_radial_id-2_0" spreadMethod="pad"><stop offset="0" stop-color="rgba(234, 179, 8, 0.2)"/><stop offset="0.7" stop-color="rgba(0,0,0,0)"/><stop offset="1" stop-color="rgba(0,0,0,0)"/></radialGradient><mask id="satori_mask_id-2_0"><rect x="0" y="0" width="250" height="150" fill="#fff"/></mask><rect x="0" y="0" width="250" height="150" fill="rgba(0,0,0,0)"/><circle cx="125" cy="75" width="250" height="150" r="145.7737973711325" fill="url(#satori_radial_id-2_0)" mask="url(#satori_mask_id-2_0)"/></pattern></defs><mask id="satori_om-id-2"><rect x="280" y="-49" width="250" height="150" fill="#fff" mask="url(#satori_om-id)"/></mask><rect x="280" y="-49" width="250" height="150" fill="url(#satori_pattern_id-2_0)" clip-path="url(#satori_cp-id)" mask="url(#satori_om-id)"/><mask id="satori_om-id-3"><rect x="48" y="34" width="87" height="93" fill="#fff" mask="url(#satori_om-id)"/></mask><mask id="satori_om-id-3-0"><rect x="48" y="34" width="87" height="68" fill="#fff" mask="url(#satori_om-id)"/></mask><g mask="url(#satori_om-id)" clip-path="url(#satori_cp-id)"><path fill="#ec4899" d="M59.5 47.3L68.5 47.3L68.5 88L60.1 88L60.1 54.6L59.9 54.6L50.5 61.2L50.5 53.6L59.5 47.3ZM94.4 80.8L74.9 80.8L74.9 74.2L91.9 47.3L102.4 47.3L102.4 74.0L107.5 74.0L107.5 80.8L102.4 80.8L102.4 88L94.4 88L94.4 80.8ZM83.3 74.0L94.6 74.0L94.6 56.4L94.2 56.4L83.3 73.7L83.3 74.0ZM119.4 47.3L128.4 47.3L128.4 88L120.0 88L120.0 54.6L119.8 54.6L110.4 61.2L110.4 53.6L119.4 47.3Z "/></g><mask id="satori_om-id-3-1"><rect x="63" y="110" width="57" height="17" fill="#fff" mask="url(#satori_om-id)"/></mask><g mask="url(#satori_om-id)" clip-path="url(#satori_cp-id)"><path fill="#52525b" d="M66.0 124L63.9 124L63.9 113.8L67.9 113.8Q69.1 113.8 69.9 114.2Q70.7 114.6 71.1 115.4Q71.5 116.1 71.5 117.1Q71.5 118.1 71.1 118.9Q70.7 119.6 69.8 120.0L69.8 120.0Q69.8 120.0 69.7 120.0L69.7 120.0L71.9 124L69.6 124L67.6 120.4L66.0 120.4L66.0 124ZM66.0 115.5L66.0 118.7L67.5 118.7Q68.2 118.7 68.6 118.5Q69.0 118.3 69.2 118.0Q69.4 117.6 69.4 117.1L69.4 117.1Q69.4 116.6 69.2 116.3Q69.0 115.9 68.6 115.7Q68.1 115.5 67.5 115.5L67.5 115.5L66.0 115.5ZM81.9 124L75.1 124L75.1 113.8L81.9 113.8L81.9 115.5L77.2 115.5L77.2 118.0L81.6 118.0L81.6 119.7L77.2 119.7L77.2 122.3L81.9 122.3L81.9 124ZM87.7 124L85.6 124L85.6 113.8L89.6 113.8Q90.8 113.8 91.6 114.3Q92.4 114.7 92.8 115.5Q93.2 116.2 93.2 117.3L93.2 117.3Q93.2 118.3 92.8 119.0Q92.4 119.8 91.5 120.2Q90.7 120.7 89.5 120.7L89.5 120.7L87.7 120.7L87.7 124ZM87.7 115.5L87.7 119.0L89.2 119.0Q89.9 119.0 90.3 118.8Q90.7 118.5 90.9 118.2Q91.1 117.8 91.1 117.3Q91.1 116.7 90.9 116.4Q90.7 116.0 90.3 115.8Q89.8 115.5 89.2 115.5L89.2 115.5L87.7 115.5ZM101.2 124.1L101.2 124.1Q99.8 124.1 98.7 123.5Q97.7 122.9 97.0 121.7Q96.4 120.6 96.4 118.9L96.4 118.9Q96.4 117.3 97.0 116.1Q97.7 114.9 98.7 114.3Q99.8 113.7 101.2 113.7L101.2 113.7Q102.5 113.7 103.6 114.3Q104.7 114.9 105.3 116.1Q105.9 117.3 105.9 118.9L105.9 118.9Q105.9 120.6 105.3 121.7Q104.7 122.9 103.6 123.5Q102.5 124.1 101.2 124.1ZM101.2 122.3L101.2 122.3Q102.0 122.3 102.5 121.9Q103.1 121.5 103.5 120.8Q103.8 120.0 103.8 118.9L103.8 118.9Q103.8 117.8 103.5 117.1Q103.1 116.3 102.5 115.9Q102.0 115.5 101.2 115.5L101.2 115.5Q100.4 115.5 99.8 115.9Q99.2 116.3 98.9 117.1Q98.5 117.8 98.5 118.9L98.5 118.9Q98.5 120.0 98.9 120.8Q99.2 121.5 99.8 121.9Q100.4 122.3 101.2 122.3ZM113.2 124.2L113.2 124.2Q112.0 124.2 111.1 123.8Q110.2 123.4 109.7 122.7Q109.2 121.9 109.1 120.8L109.1 120.8L111.2 120.8Q111.2 121.4 111.5 121.7Q111.7 122.0 112.2 122.2Q112.6 122.4 113.2 122.4L113.2 122.4Q113.8 122.4 114.2 122.2Q114.6 122.1 114.8 121.8Q115.0 121.5 115.0 121.1L115.0 121.1Q115.0 120.7 114.8 120.5Q114.6 120.3 114.2 120.1Q113.8 119.9 113.3 119.8L113.3 119.8L112.2 119.5Q110.9 119.2 110.1 118.5Q109.4 117.9 109.4 116.7L109.4 116.7Q109.4 115.8 109.9 115.1Q110.4 114.4 111.3 114.1Q112.1 113.7 113.2 113.7L113.2 113.7Q114.4 113.7 115.2 114.1Q116.0 114.5 116.5 115.1Q117.0 115.8 117.0 116.7L117.0 116.7L115.0 116.7Q114.9 116.1 114.5 115.8Q114.0 115.4 113.2 115.4L113.2 115.4Q112.7 115.4 112.3 115.6Q111.9 115.7 111.7 116.0Q111.6 116.3 111.6 116.6L111.6 116.6Q111.6 117.0 111.8 117.2Q112.0 117.5 112.4 117.6Q112.8 117.8 113.2 117.9L113.2 117.9L114.1 118.1Q114.7 118.3 115.3 118.5Q115.9 118.8 116.3 119.1Q116.7 119.5 116.9 120.0Q117.1 120.5 117.1 121.1L117.1 121.1Q117.1 122.0 116.7 122.7Q116.2 123.4 115.3 123.8Q114.4 124.2 113.2 124.2Z "/></g><mask id="satori_om-id-4"><rect x="230" y="50" width="1" height="60" fill="#fff" mask="url(#satori_om-id)"/></mask><rect x="230" y="50" width="1" height="60" fill="#27272a" clip-path="url(#satori_cp-id)" mask="url(#satori_om-id)"/><mask id="satori_om-id-5"><rect x="326" y="34" width="110" height="93" fill="#fff" mask="url(#satori_om-id)"/></mask><mask id="satori_om-id-5-0"><rect x="326" y="34" width="110" height="68" fill="#fff" mask="url(#satori_om-id)"/></mask><g mask="url(#satori_om-id)" clip-path="url(#satori_cp-id)"><path fill="#3b82f6" d="M344.0 88.5L344.0 88.5Q339.6 88.5 336.2 87.0Q332.7 85.5 330.7 82.8Q328.8 80.1 328.7 76.6L328.7 76.6L337.1 76.6Q337.2 78.1 338.1 79.2Q339.0 80.4 340.6 81Q342.1 81.6 344.0 81.6L344.0 81.6Q346.1 81.6 347.6 80.9Q349.1 80.2 350.0 79.0Q350.9 77.7 350.9 76.1L350.9 76.1Q350.9 74.4 350.0 73.1Q349.1 71.8 347.4 71.1Q345.7 70.3 343.3 70.3L343.3 70.3L339.5 70.3L339.5 64.1L343.3 64.1Q345.3 64.1 346.8 63.4Q348.3 62.7 349.1 61.5Q350.0 60.3 350.0 58.7L350.0 58.7Q350.0 57.1 349.3 55.9Q348.5 54.7 347.2 54.1Q345.9 53.4 344.1 53.4L344.1 53.4Q342.3 53.4 340.8 54.0Q339.4 54.7 338.5 55.8Q337.6 57.0 337.5 58.6L337.5 58.6L329.5 58.6Q329.6 55.1 331.5 52.4Q333.4 49.7 336.7 48.2Q340.0 46.7 344.2 46.7L344.2 46.7Q348.3 46.7 351.5 48.2Q354.6 49.8 356.4 52.4Q358.1 55.0 358.1 58.1L358.1 58.1Q358.1 61.6 356.0 63.9Q353.9 66.2 350.5 66.8L350.5 66.8L350.5 67.1Q353.4 67.5 355.5 68.8Q357.5 70.1 358.5 72.1Q359.6 74.1 359.6 76.6L359.6 76.6Q359.6 80.0 357.6 82.8Q355.6 85.5 352.1 87.0Q348.6 88.5 344.0 88.5ZM384.4 80.8L364.9 80.8L364.9 74.2L381.9 47.3L392.4 47.3L392.4 74.0L397.5 74.0L397.5 80.8L392.4 80.8L392.4 88L384.4 88L384.4 80.8ZM373.3 74.0L384.6 74.0L384.6 56.4L384.2 56.4L373.3 73.7L373.3 74.0ZM432.2 88L403.4 88L403.4 82.0L417.8 68.4Q419.7 66.6 421.0 65.2Q422.3 63.7 422.9 62.3Q423.6 60.9 423.6 59.3L423.6 59.3Q423.6 57.4 422.8 56.1Q421.9 54.8 420.5 54.1Q419.1 53.4 417.3 53.4L417.3 53.4Q415.4 53.4 414.0 54.1Q412.5 54.9 411.8 56.3Q411.0 57.8 411.0 59.8L411.0 59.8L403.0 59.8Q403.0 55.8 404.8 52.8Q406.7 49.9 409.9 48.3Q413.1 46.7 417.3 46.7L417.3 46.7Q421.6 46.7 424.9 48.3Q428.1 49.8 429.9 52.5Q431.7 55.2 431.7 58.7L431.7 58.7Q431.7 61.0 430.8 63.2Q429.9 65.4 427.6 68.2Q425.3 70.9 421.2 74.8L421.2 74.8L415.0 80.8L415.0 81.1L432.2 81.1L432.2 88Z "/></g><mask id="satori_om-id-5-1"><rect x="352" y="110" width="58" height="17" fill="#fff" mask="url(#satori_om-id)"/></mask><g mask="url(#satori_om-id)" clip-path="url(#satori_cp-id)"><path fill="#52525b" d="M356.7 124.2L356.7 124.2Q355.4 124.2 354.5 123.8Q353.6 123.4 353.1 122.7Q352.6 121.9 352.6 120.8L352.6 120.8L354.6 120.8Q354.7 121.4 354.9 121.7Q355.2 122.0 355.6 122.2Q356.1 122.4 356.6 122.4L356.6 122.4Q357.2 122.4 357.6 122.2Q358.0 122.1 358.3 121.8Q358.5 121.5 358.5 121.1L358.5 121.1Q358.5 120.7 358.3 120.5Q358.1 120.3 357.7 120.1Q357.3 119.9 356.7 119.8L356.7 119.8L355.6 119.5Q354.3 119.2 353.6 118.5Q352.9 117.9 352.9 116.7L352.9 116.7Q352.9 115.8 353.4 115.1Q353.8 114.4 354.7 114.1Q355.6 113.7 356.7 113.7L356.7 113.7Q357.8 113.7 358.7 114.1Q359.5 114.5 360.0 115.1Q360.4 115.8 360.4 116.7L360.4 116.7L358.4 116.7Q358.4 116.1 357.9 115.8Q357.4 115.4 356.7 115.4L356.7 115.4Q356.1 115.4 355.8 115.6Q355.4 115.7 355.2 116.0Q355.0 116.3 355.0 116.6L355.0 116.6Q355.0 117.0 355.2 117.2Q355.4 117.5 355.8 117.6Q356.2 117.8 356.6 117.9L356.6 117.9L357.5 118.1Q358.2 118.3 358.7 118.5Q359.3 118.8 359.7 119.1Q360.1 119.5 360.4 120.0Q360.6 120.5 360.6 121.1L360.6 121.1Q360.6 122.0 360.1 122.7Q359.7 123.4 358.8 123.8Q357.9 124.2 356.7 124.2ZM366.8 115.5L363.7 115.5L363.7 113.8L372.0 113.8L372.0 115.5L368.9 115.5L368.9 124L366.8 124L366.8 115.5ZM377.2 124L374.8 124L378.3 113.8L381.1 113.8L384.6 124L382.3 124L381.5 121.6L377.9 121.6L377.2 124ZM378.4 120.0L381.0 120.0L380.7 119.1Q380.4 118.1 380.1 117L380.1 117Q379.9 116.3 379.7 115.5L379.7 115.5Q379.5 116.3 379.3 117.0L379.3 117.0Q379.0 118.2 378.7 119.1L378.7 119.1L378.4 120.0ZM390.0 124L387.9 124L387.9 113.8L391.9 113.8Q393.0 113.8 393.8 114.2Q394.6 114.6 395.1 115.4Q395.5 116.1 395.5 117.1Q395.5 118.1 395.1 118.9Q394.6 119.6 393.8 120.0L393.8 120.0Q393.8 120.0 393.7 120.0L393.7 120.0L395.9 124L393.6 124L391.6 120.4L390.0 120.4L390.0 124ZM390.0 115.5L390.0 118.7L391.5 118.7Q392.1 118.7 392.5 118.5Q392.9 118.3 393.1 118.0Q393.3 117.6 393.3 117.1L393.3 117.1Q393.3 116.6 393.1 116.3Q392.9 115.9 392.5 115.7Q392.1 115.5 391.5 115.5L391.5 115.5L390.0 115.5ZM402.8 124.2L402.8 124.2Q401.6 124.2 400.7 123.8Q399.8 123.4 399.3 122.7Q398.8 121.9 398.7 120.8L398.7 120.8L400.8 120.8Q400.8 121.4 401.1 121.7Q401.3 122.0 401.8 122.2Q402.2 122.4 402.8 122.4L402.8 122.4Q403.4 122.4 403.8 122.2Q404.2 122.1 404.4 121.8Q404.6 121.5 404.6 121.1L404.6 121.1Q404.6 120.7 404.4 120.5Q404.2 120.3 403.8 120.1Q403.4 119.9 402.9 119.8L402.9 119.8L401.8 119.5Q400.5 119.2 399.7 118.5Q399.0 117.9 399.0 116.7L399.0 116.7Q399.0 115.8 399.5 115.1Q400.0 114.4 400.9 114.1Q401.7 113.7 402.8 113.7L402.8 113.7Q404.0 113.7 404.8 114.1Q405.7 114.5 406.1 115.1Q406.6 115.8 406.6 116.7L406.6 116.7L404.6 116.7Q404.5 116.1 404.1 115.8Q403.6 115.4 402.8 115.4L402.8 115.4Q402.3 115.4 401.9 115.6Q401.5 115.7 401.3 116.0Q401.2 116.3 401.2 116.6L401.2 116.6Q401.2 117.0 401.4 117.2Q401.6 117.5 402.0 117.6Q402.4 117.8 402.8 117.9L402.8 117.9L403.7 118.1Q404.3 118.3 404.9 118.5Q405.5 118.8 405.9 119.1Q406.3 119.5 406.5 120.0Q406.7 120.5 406.7 121.1L406.7 121.1Q406.7 122.0 406.3 122.7Q405.8 123.4 404.9 123.8Q404.1 124.2 402.8 124.2Z "/></g><mask id="satori_om-id-6"><rect x="530" y="50" width="1" height="60" fill="#fff" mask="url(#satori_om-id)"/></mask><rect x="530" y="50" width="1" height="60" fill="#27272a" clip-path="url(#satori_cp-id)" mask="url(#satori_om-id)"/><mask id="satori_om-id-7"><rect x="626" y="34" width="126" height="93" fill="#fff" mask="url(#satori_om-id)"/></mask><mask id="satori_om-id-7-0"><rect x="626" y="34" width="126" height="68" fill="#fff" mask="url(#satori_om-id)"/></mask><g mask="url(#satori_om-id)" clip-path="url(#satori_cp-id)"><path fill="#eab308" d="M648.3 80.8L628.8 80.8L628.8 74.2L645.8 47.3L656.3 47.3L656.3 74.0L661.4 74.0L661.4 80.8L656.3 80.8L656.3 88L648.3 88L648.3 80.8ZM637.2 74.0L648.4 74.0L648.4 56.4L648.1 56.4L637.2 73.7L637.2 74.0ZM671.3 88.5L671.3 88.5Q669.3 88.5 668.0 87.2Q666.6 85.8 666.6 83.8L666.6 83.8Q666.6 81.8 668.0 80.5Q669.3 79.1 671.3 79.1L671.3 79.1Q673.3 79.1 674.7 80.5Q676.1 81.8 676.1 83.8L676.1 83.8Q676.1 85.8 674.7 87.2Q673.3 88.5 671.3 88.5ZM697.3 88.5L697.3 88.5Q692.7 88.5 689.2 87.0Q685.7 85.5 683.7 82.9Q681.7 80.3 681.7 77.1L681.7 77.1Q681.7 74.5 682.8 72.4Q684.0 70.2 686.0 68.8Q688.0 67.4 690.4 66.9L690.4 66.9L690.4 66.7Q687.2 66.0 685.2 63.5Q683.1 61.0 683.1 57.6L683.1 57.6Q683.1 54.5 685.0 52.0Q686.8 49.6 690.0 48.1Q693.2 46.7 697.3 46.7L697.3 46.7Q701.4 46.7 704.6 48.1Q707.8 49.6 709.7 52.0Q711.5 54.5 711.5 57.6L711.5 57.6Q711.5 61.0 709.5 63.5Q707.4 66.0 704.2 66.7L704.2 66.7L704.2 66.9Q706.7 67.4 708.6 68.8Q710.6 70.2 711.8 72.4Q713.0 74.5 713.0 77.1L713.0 77.1Q713.0 80.3 711.0 82.9Q709.0 85.5 705.4 87.0Q701.9 88.5 697.3 88.5ZM697.3 82.4L697.3 82.4Q699.4 82.4 701.0 81.6Q702.5 80.9 703.4 79.5Q704.3 78.2 704.3 76.4L704.3 76.4Q704.3 74.6 703.4 73.2Q702.5 71.8 700.9 71.0Q699.3 70.2 697.3 70.2L697.3 70.2Q695.3 70.2 693.7 71.0Q692.1 71.8 691.2 73.2Q690.3 74.6 690.3 76.4L690.3 76.4Q690.3 78.2 691.2 79.5Q692.1 80.8 693.6 81.6Q695.2 82.4 697.3 82.4ZM697.3 64.1L697.3 64.1Q699.1 64.1 700.4 63.4Q701.8 62.7 702.5 61.4Q703.3 60.2 703.3 58.6L703.3 58.6Q703.3 56.9 702.6 55.7Q701.8 54.4 700.4 53.8Q699.1 53.1 697.3 53.1L697.3 53.1Q695.5 53.1 694.2 53.8Q692.8 54.4 692.1 55.7Q691.3 56.9 691.3 58.6L691.3 58.6Q691.3 60.2 692.1 61.4Q692.8 62.7 694.2 63.4Q695.6 64.1 697.3 64.1ZM727.3 88L719.1 88L719.1 47.3L727.3 47.3L727.3 69.2L727.7 69.2L737.7 57.4L747.2 57.4L735.8 70.7L747.8 88L738.1 88L729.6 75.6L727.3 78.2L727.3 88Z "/></g><mask id="satori_om-id-7-1"><rect x="647" y="110" width="84" height="17" fill="#fff" mask="url(#satori_om-id)"/></mask><g mask="url(#satori_om-id)" clip-path="url(#satori_cp-id)"><path fill="#52525b" d="M652.4 124.1L652.4 124.1Q651.0 124.1 649.9 123.5Q648.9 122.9 648.3 121.7Q647.6 120.6 647.6 118.9L647.6 118.9Q647.6 117.3 648.3 116.1Q648.9 114.9 650.0 114.3Q651.0 113.7 652.4 113.7L652.4 113.7Q653.2 113.7 654.0 113.9Q654.7 114.2 655.3 114.6Q655.9 115.1 656.3 115.8Q656.6 116.4 656.8 117.3L656.8 117.3L654.6 117.3Q654.6 116.9 654.4 116.6Q654.2 116.2 653.9 116.0Q653.6 115.8 653.2 115.6Q652.9 115.5 652.4 115.5L652.4 115.5Q651.6 115.5 651.0 115.9Q650.4 116.3 650.1 117.1Q649.8 117.8 649.8 118.9L649.8 118.9Q649.8 120.0 650.1 120.8Q650.4 121.5 651.0 121.9Q651.6 122.3 652.4 122.3L652.4 122.3Q652.8 122.3 653.2 122.2Q653.6 122.0 653.9 121.8Q654.2 121.6 654.4 121.3Q654.6 120.9 654.6 120.5L654.6 120.5L656.8 120.5Q656.7 121.2 656.3 121.9Q656.0 122.5 655.4 123.0Q654.9 123.5 654.1 123.8Q653.3 124.1 652.4 124.1ZM664.8 124.1L664.8 124.1Q663.4 124.1 662.3 123.5Q661.3 122.9 660.6 121.7Q660.0 120.6 660.0 118.9L660.0 118.9Q660.0 117.3 660.6 116.1Q661.3 114.9 662.3 114.3Q663.4 113.7 664.8 113.7L664.8 113.7Q666.1 113.7 667.2 114.3Q668.3 114.9 668.9 116.1Q669.5 117.3 669.5 118.9L669.5 118.9Q669.5 120.6 668.9 121.7Q668.3 122.9 667.2 123.5Q666.1 124.1 664.8 124.1ZM664.8 122.3L664.8 122.3Q665.5 122.3 666.1 121.9Q666.7 121.5 667.1 120.8Q667.4 120.0 667.4 118.9L667.4 118.9Q667.4 117.8 667.1 117.1Q666.7 116.3 666.1 115.9Q665.5 115.5 664.8 115.5L664.8 115.5Q664.0 115.5 663.4 115.9Q662.8 116.3 662.4 117.1Q662.1 117.8 662.1 118.9L662.1 118.9Q662.1 120.0 662.4 120.8Q662.8 121.5 663.4 121.9Q664.0 122.3 664.8 122.3ZM675.1 124L673.1 124L673.1 113.8L676.3 113.8L677.9 118.5Q678.0 118.8 678.2 119.3Q678.3 119.9 678.4 120.5L678.4 120.5Q678.6 121.0 678.7 121.6L678.7 121.6Q678.8 121.1 678.9 120.5L678.9 120.5Q679.1 119.9 679.2 119.3Q679.3 118.8 679.4 118.5L679.4 118.5L681.1 113.8L684.3 113.8L684.3 124L682.2 124L682.2 119.2Q682.2 118.9 682.2 118.4Q682.2 117.9 682.2 117.3Q682.2 116.7 682.2 116.1L682.2 116.1Q682.2 115.9 682.3 115.6L682.3 115.6Q682.2 115.9 682.1 116.2L682.1 116.2Q681.9 116.8 681.8 117.4Q681.6 117.9 681.5 118.4Q681.3 118.9 681.2 119.2L681.2 119.2L679.5 124L677.8 124L676.1 119.2Q676.0 118.9 675.8 118.4Q675.7 118.0 675.5 117.4Q675.4 116.8 675.2 116.2L675.2 116.2Q675.1 115.9 675.1 115.7L675.1 115.7Q675.1 115.9 675.1 116.1L675.1 116.1Q675.1 116.7 675.1 117.3Q675.1 117.8 675.1 118.4Q675.1 118.9 675.1 119.2L675.1 119.2L675.1 124ZM690.2 124L688.1 124L688.1 113.8L691.3 113.8L693.0 118.5Q693.1 118.8 693.2 119.3Q693.3 119.9 693.5 120.5L693.5 120.5Q693.6 121.0 693.7 121.6L693.7 121.6Q693.8 121.1 694.0 120.5L694.0 120.5Q694.1 119.9 694.2 119.3Q694.4 118.8 694.5 118.5L694.5 118.5L696.1 113.8L699.3 113.8L699.3 124L697.2 124L697.2 119.2Q697.2 118.9 697.2 118.4Q697.2 117.9 697.3 117.3Q697.3 116.7 697.3 116.1L697.3 116.1Q697.3 115.9 697.3 115.6L697.3 115.6Q697.2 115.9 697.1 116.2L697.1 116.2Q697.0 116.8 696.8 117.4Q696.7 117.9 696.5 118.4Q696.4 118.9 696.3 119.2L696.3 119.2L694.6 124L692.8 124L691.1 119.2Q691.0 118.9 690.9 118.4Q690.7 118.0 690.6 117.4Q690.4 116.8 690.2 116.2L690.2 116.2Q690.2 115.9 690.1 115.7L690.1 115.7Q690.1 115.9 690.1 116.1L690.1 116.1Q690.1 116.7 690.1 117.3Q690.2 117.8 690.2 118.4Q690.2 118.9 690.2 119.2L690.2 119.2L690.2 124ZM703.2 113.8L705.2 113.8L705.2 124L703.2 124L703.2 113.8ZM711.8 115.5L708.7 115.5L708.7 113.8L717.0 113.8L717.0 115.5L713.9 115.5L713.9 124L711.8 124L711.8 115.5ZM724.2 124.2L724.2 124.2Q722.9 124.2 722.0 123.8Q721.1 123.4 720.6 122.7Q720.1 121.9 720.1 120.8L720.1 120.8L722.1 120.8Q722.2 121.4 722.4 121.7Q722.7 122.0 723.1 122.2Q723.6 122.4 724.1 122.4L724.1 122.4Q724.7 122.4 725.1 122.2Q725.5 122.1 725.8 121.8Q726.0 121.5 726.0 121.1L726.0 121.1Q726.0 120.7 725.8 120.5Q725.6 120.3 725.2 120.1Q724.8 119.9 724.2 119.8L724.2 119.8L723.1 119.5Q721.8 119.2 721.1 118.5Q720.4 117.9 720.4 116.7L720.4 116.7Q720.4 115.8 720.9 115.1Q721.4 114.4 722.2 114.1Q723.1 113.7 724.2 113.7L724.2 113.7Q725.3 113.7 726.2 114.1Q727.0 114.5 727.5 115.1Q727.9 115.8 728.0 116.7L728.0 116.7L725.9 116.7Q725.9 116.1 725.4 115.8Q724.9 115.4 724.2 115.4L724.2 115.4Q723.6 115.4 723.3 115.6Q722.9 115.7 722.7 116.0Q722.5 116.3 722.5 116.6L722.5 116.6Q722.5 117.0 722.7 117.2Q723.0 117.5 723.3 117.6Q723.7 117.8 724.1 117.9L724.1 117.9L725.0 118.1Q725.7 118.3 726.2 118.5Q726.8 118.8 727.2 119.1Q727.6 119.5 727.9 120.0Q728.1 120.5 728.1 121.1L728.1 121.1Q728.1 122.0 727.6 122.7Q727.2 123.4 726.3 123.8Q725.4 124.2 724.2 124.2Z "/></g></svg>