<!-- Generated by readme-aura https://github.com/collectioneur/readme-aura -->
<svg width="240" height="44" viewBox="0 0 240 44" xmlns="http://www.w3.org/2000/svg"><defs><clipPath id="satori_bc-id"><path x="0" y="0" width="240" height="44" d="M22,0 h196 a22,22 0 0 1 22,22 v0 a22,22 0 0 1 -22,22 h-196 a22,22 0 0 1 -22,-22 v0 a22,22 0 0 1 22,-22"/></clipPath></defs><mask id="satori_om-id"><rect x="1" y="1" width="238" height="42" fill="#fff"/><path width="240" height="44" fill="none" stroke="#000" stroke-width="2" d="M6.444000000000001,6.444000000000001 A22,22 0 0 1 22,0 h196 a22,22 0 0 1 22,22 v0 a22,22 0 0 1 -22,22 h-196 a22,22 0 0 1 -22,-22 v0 A22,22 0 0 1 6.444000000000001,6.444000000000001"/></mask><path x="0" y="0" width="240" height="44" fill="#ea4335" d="M22,0 h196 a22,22 0 0 1 22,22 v0 a22,22 0 0 1 -22,22 h-196 a22,22 0 0 1 -22,-22 v0 a22,22 0 0 1 22,-22"/><path width="240" height="44" clip-path="url(#satori_bc-id)" fill="none" stroke="#27272a" stroke-width="2" d="M6.444000000000001,6.444000000000001 A22,22 0 0 1 22,0 h196 a22,22 0 0 1 22,22 v0 a22,22 0 0 1 -22,22 h-196 a22,22 0 0 1 -22,-22 v0 A22,22 0 0 1 6.444000000000001,6.444000000000001"/><mask id="satori_om-id-0"><rect x="36" y="14" width="169" height="17" fill="#fff"/></mask><g  ><path fill="white" d="M38.9 23.6L38.9 23.6L38.9 28L36.9 28L36.9 20.4L38.8 20.4L38.8 21.9Q39.1 21.2 39.6 20.8L39.6 20.8Q40.2 20.3 41.2 20.3L41.2 20.3Q42.0 20.3 42.6 20.6Q43.2 21.0 43.5 21.6Q43.8 22.2 43.8 23.1L43.8 23.1L43.8 28L41.8 28L41.8 23.5Q41.8 22.8 41.4 22.4Q41.1 22.0 40.4 22.0L40.4 22.0Q40.0 22.0 39.6 22.2Q39.3 22.4 39.1 22.7Q38.9 23.1 38.9 23.6ZM47.6 28L45.6 28L45.6 20.4L47.6 20.4L47.6 28ZM46.6 19.4L46.6 19.4Q46.2 19.4 45.8 19.1Q45.5 18.7 45.5 18.3L45.5 18.3Q45.5 17.9 45.8 17.6Q46.2 17.3 46.6 17.3L46.6 17.3Q47.1 17.3 47.4 17.6Q47.7 17.9 47.7 18.3L47.7 18.3Q47.7 18.7 47.4 19.1Q47.1 19.4 46.6 19.4ZM51.8 20.4L53.2 20.4L53.2 21.9L51.8 21.9L51.8 25.8Q51.8 26.1 51.9 26.3Q52.1 26.5 52.4 26.5L52.4 26.5Q52.6 26.5 52.8 26.4Q53.0 26.4 53.1 26.4L53.1 26.4L53.4 27.9Q53.0 28.0 52.7 28.1Q52.4 28.1 52.1 28.1L52.1 28.1Q50.9 28.1 50.3 27.5Q49.7 27.0 49.7 25.9L49.7 25.9L49.7 21.9L48.6 21.9L48.6 20.4L49.7 20.4L49.7 18.5L51.8 18.5L51.8 20.4ZM56.6 28L54.5 28L54.5 20.4L56.6 20.4L56.6 28ZM55.5 19.4L55.5 19.4Q55.1 19.4 54.7 19.1Q54.4 18.7 54.4 18.3L54.4 18.3Q54.4 17.9 54.7 17.6Q55.1 17.3 55.5 17.3L55.5 17.3Q56.0 17.3 56.3 17.6Q56.7 17.9 56.7 18.3L56.7 18.3Q56.7 18.7 56.3 19.1Q56.0 19.4 55.5 19.4ZM60.4 23.6L60.4 23.6L60.4 28L58.3 28L58.3 20.4L60.2 20.4L60.3 21.9Q60.6 21.2 61.1 20.8L61.1 20.8Q61.7 20.3 62.6 20.3L62.6 20.3Q63.4 20.3 64.0 20.6Q64.6 21.0 64.9 21.6Q65.3 22.2 65.3 23.1L65.3 23.1L65.3 28L63.2 28L63.2 23.5Q63.2 22.8 62.9 22.4Q62.5 22.0 61.8 22.0L61.8 22.0Q61.4 22.0 61.1 22.2Q60.7 22.4 60.5 22.7Q60.4 23.1 60.4 23.6ZM69.1 28L67.0 28L67.0 20.4L69.1 20.4L69.1 28ZM68.0 19.4L68.0 19.4Q67.6 19.4 67.3 19.1Q66.9 18.7 66.9 18.3L66.9 18.3Q66.9 17.9 67.3 17.6Q67.6 17.3 68.0 17.3L68.0 17.3Q68.5 17.3 68.8 17.6Q69.2 17.9 69.2 18.3L69.2 18.3Q69.2 18.7 68.8 19.1Q68.5 19.4 68.0 19.4ZM73.9 28.2L73.9 28.2Q72.9 28.2 72.2 27.9Q71.5 27.6 71.1 27.1Q70.6 26.6 70.5 25.9L70.5 25.9L72.4 25.6Q72.5 26.1 72.9 26.4Q73.3 26.6 73.9 26.6L73.9 26.6Q74.5 26.6 74.8 26.4Q75.2 26.2 75.2 25.9L75.2 25.9Q75.2 25.6 74.9 25.4Q74.7 25.2 74.2 25.1L74.2 25.1L72.9 24.8Q71.8 24.6 71.2 24.0Q70.7 23.5 70.7 22.6L70.7 22.6Q70.7 21.9 71.1 21.4Q71.5 20.8 72.2 20.5Q72.9 20.3 73.9 20.3L73.9 20.3Q74.8 20.3 75.5 20.5Q76.1 20.8 76.5 21.2Q76.9 21.7 77.1 22.3L77.1 22.3L75.3 22.6Q75.1 22.2 74.8 22.0Q74.5 21.7 73.9 21.7L73.9 21.7Q73.4 21.7 73.1 21.9Q72.7 22.2 72.7 22.5L72.7 22.5Q72.7 22.8 72.9 23.0Q73.2 23.2 73.7 23.3L73.7 23.3L75.1 23.6Q76.2 23.8 76.7 24.3Q77.3 24.8 77.3 25.6L77.3 25.6Q77.3 26.4 76.8 27.0Q76.4 27.5 75.6 27.8Q74.9 28.2 73.9 28.2ZM85.0 28L78.6 28L78.6 26.8L82.4 22.1L82.4 22.0L78.7 22.0L78.7 20.4L84.8 20.4L84.8 21.7L81.3 26.3L81.3 26.3L85.0 26.3L85.0 28ZM90.1 28.2L90.1 28.2Q88.9 28.2 88.1 27.7Q87.3 27.2 86.8 26.3Q86.4 25.4 86.4 24.2L86.4 24.2Q86.4 23.0 86.8 22.1Q87.3 21.3 88.1 20.8Q88.9 20.3 90.1 20.3L90.1 20.3Q91.2 20.3 92.1 20.8Q92.9 21.3 93.4 22.1Q93.8 23.0 93.8 24.2L93.8 24.2Q93.8 25.4 93.4 26.3Q92.9 27.2 92.1 27.7Q91.2 28.2 90.1 28.2ZM90.1 26.5L90.1 26.5Q90.6 26.5 91.0 26.2Q91.4 25.9 91.6 25.4Q91.7 24.9 91.7 24.2L91.7 24.2Q91.7 23.5 91.6 23.0Q91.4 22.5 91.0 22.2Q90.6 21.9 90.1 21.9L90.1 21.9Q89.5 21.9 89.2 22.2Q88.8 22.5 88.6 23.0Q88.4 23.5 88.4 24.2L88.4 24.2Q88.4 24.9 88.6 25.4Q88.8 25.9 89.2 26.2Q89.5 26.5 90.1 26.5ZM98.0 28.1L98.0 28.1Q97.2 28.1 96.5 27.7Q95.8 27.2 95.3 26.3Q94.9 25.5 94.9 24.2L94.9 24.2Q94.9 22.9 95.4 22.0Q95.8 21.1 96.5 20.7Q97.2 20.3 98.0 20.3L98.0 20.3Q98.7 20.3 99.1 20.5Q99.6 20.7 99.8 21.0Q100.1 21.3 100.2 21.6L100.2 21.6L100.3 21.6L100.3 17.8L102.3 17.8L102.3 28L100.3 28L100.3 26.8L100.2 26.8Q100.1 27.1 99.8 27.4Q99.5 27.7 99.1 27.9Q98.7 28.1 98.0 28.1ZM98.7 26.5L98.7 26.5Q99.2 26.5 99.6 26.2Q99.9 25.9 100.1 25.4Q100.3 24.9 100.3 24.2L100.3 24.2Q100.3 23.5 100.1 23.0Q100.0 22.5 99.6 22.2Q99.2 21.9 98.7 21.9L98.7 21.9Q98.1 21.9 97.8 22.2Q97.4 22.5 97.2 23.0Q97.0 23.5 97.0 24.2L97.0 24.2Q97.0 24.9 97.2 25.4Q97.4 25.9 97.8 26.2Q98.2 26.5 98.7 26.5ZM106.1 17.8L108.3 17.8L108.3 28L106.2 28L106.2 19.7L106.2 19.7L103.8 21.3L103.8 19.4L106.1 17.8ZM114.0 28.1L114.0 28.1Q112.7 28.1 111.8 27.5Q110.9 26.9 110.4 25.7Q109.9 24.6 109.9 22.9L109.9 22.9Q109.9 21.3 110.4 20.1Q110.9 18.9 111.8 18.3Q112.7 17.7 114.0 17.7L114.0 17.7Q115.2 17.7 116.2 18.3Q117.1 18.9 117.6 20.1Q118.0 21.3 118.0 22.9L118.0 22.9Q118.0 24.6 117.6 25.7Q117.1 26.9 116.2 27.5Q115.3 28.1 114.0 28.1ZM114.0 26.4L114.0 26.4Q114.6 26.4 115.0 26.0Q115.5 25.6 115.7 24.8Q115.9 24.0 115.9 22.9L115.9 22.9Q115.9 21.8 115.7 21.0Q115.5 20.2 115.0 19.8Q114.6 19.4 114.0 19.4L114.0 19.4Q113.3 19.4 112.9 19.8Q112.5 20.2 112.2 21.0Q112.0 21.8 112.0 22.9L112.0 22.9Q112.0 24.0 112.2 24.8Q112.5 25.6 112.9 26.0Q113.3 26.4 114.0 26.4ZM125.9 30.9L125.9 30.9Q124.4 30.9 123.1 30.5Q121.9 30.1 121.1 29.2Q120.2 28.4 119.8 27.2Q119.3 26.0 119.3 24.5L119.3 24.5Q119.3 23.0 119.8 21.8Q120.2 20.6 121.0 19.7Q121.9 18.8 123.1 18.4Q124.3 17.9 125.9 17.9L125.9 17.9Q127.4 17.9 128.6 18.3Q129.7 18.8 130.6 19.6Q131.4 20.4 131.8 21.4Q132.3 22.5 132.3 23.8L132.3 23.8Q132.3 24.6 132.1 25.3Q132.0 26.1 131.6 26.6Q131.3 27.2 130.7 27.5Q130.2 27.8 129.4 27.8L129.4 27.8Q129.0 27.8 128.6 27.7Q128.2 27.6 127.9 27.3Q127.7 27.1 127.6 26.7L127.6 26.7L127.5 26.7Q127.4 27.2 126.8 27.5Q126.3 27.8 125.5 27.8L125.5 27.8Q124.5 27.8 123.9 27.4Q123.2 27.0 122.9 26.2Q122.5 25.4 122.5 24.4L122.5 24.4Q122.5 23.4 122.9 22.6Q123.3 21.9 124.0 21.4Q124.6 21.0 125.5 21.0L125.5 21.0Q126.2 21.0 126.7 21.2Q127.2 21.5 127.4 21.8L127.4 21.8L127.4 21.8L127.4 21.2L128.8 21.2L128.8 25.8Q128.8 26.1 129.0 26.3Q129.1 26.5 129.5 26.5L129.5 26.5Q129.9 26.5 130.1 26.2Q130.4 25.9 130.5 25.4Q130.6 24.8 130.6 23.9L130.6 23.9Q130.6 22.9 130.3 22.1Q130.0 21.3 129.5 20.7Q128.9 20.1 128.0 19.8Q127.2 19.4 126.0 19.4L126.0 19.4Q124.8 19.4 123.9 19.8Q123.0 20.1 122.3 20.8Q121.7 21.4 121.4 22.3Q121.1 23.3 121.1 24.4L121.1 24.4Q121.1 25.6 121.4 26.5Q121.7 27.5 122.3 28.1Q123.0 28.7 123.9 29.0Q124.9 29.4 126.1 29.4L126.1 29.4Q126.7 29.4 127.2 29.3Q127.7 29.2 128.1 29.1Q128.5 28.9 128.8 28.8L128.8 28.8L129.4 30.2Q129.0 30.4 128.5 30.6Q128.0 30.7 127.3 30.8Q126.7 30.9 125.9 30.9ZM125.7 26.4L125.7 26.4Q126.2 26.4 126.6 26.1Q127.0 25.9 127.2 25.5Q127.3 25.0 127.3 24.4L127.3 24.4Q127.3 23.7 127.2 23.3Q127.0 22.9 126.6 22.7Q126.2 22.5 125.7 22.5L125.7 22.5Q125.2 22.5 124.8 22.8Q124.4 23.0 124.3 23.4Q124.1 23.8 124.1 24.4L124.1 24.4Q124.1 24.9 124.2 25.4Q124.4 25.8 124.8 26.1Q125.1 26.4 125.7 26.4ZM137.2 31.0L137.2 31.0Q136.2 31.0 135.5 30.8Q134.8 30.5 134.4 30.1Q133.9 29.7 133.7 29.1L133.7 29.1L135.5 28.7Q135.6 28.9 135.8 29.1Q136.0 29.3 136.3 29.4Q136.7 29.5 137.2 29.5L137.2 29.5Q138.0 29.5 138.4 29.2Q138.9 28.8 138.9 28.1L138.9 28.1L138.9 26.6L138.7 26.6Q138.6 27.0 138.3 27.2Q138.0 27.5 137.6 27.7Q137.2 27.9 136.6 27.9L136.6 27.9Q135.7 27.9 135.0 27.5Q134.3 27.1 133.9 26.3Q133.5 25.4 133.5 24.2L133.5 24.2Q133.5 22.9 133.9 22.0Q134.3 21.1 135.0 20.7Q135.7 20.3 136.6 20.3L136.6 20.3Q137.2 20.3 137.7 20.5Q138.1 20.7 138.4 21.0Q138.6 21.3 138.8 21.6L138.8 21.6L138.9 21.6L138.9 20.4L140.9 20.4L140.9 27.9Q140.9 29.0 140.4 29.7Q139.9 30.3 139.1 30.7Q138.3 31.0 137.2 31.0ZM137.2 26.3L137.2 26.3Q137.7 26.3 138.1 26.1Q138.5 25.8 138.7 25.3Q138.9 24.8 138.9 24.2L138.9 24.2Q138.9 23.5 138.7 23.0Q138.5 22.5 138.1 22.2Q137.7 21.9 137.2 21.9L137.2 21.9Q136.7 21.9 136.3 22.2Q135.9 22.5 135.8 23.0Q135.6 23.5 135.6 24.2L135.6 24.2Q135.6 24.8 135.8 25.3Q135.9 25.8 136.3 26.1Q136.7 26.3 137.2 26.3ZM144.7 28L142.6 28L142.6 20.4L144.5 20.4L144.6 21.8Q144.8 21.4 145.0 21.1L145.0 21.1Q145.4 20.7 145.8 20.5Q146.3 20.2 146.8 20.2L146.8 20.2Q147.6 20.2 148.1 20.8L148.1 20.8Q148.5 21.2 148.8 22.0L148.8 22.0Q148.9 21.5 149.2 21.2L149.2 21.2Q149.6 20.7 150.1 20.5Q150.6 20.2 151.2 20.2L151.2 20.2Q151.9 20.2 152.5 20.5Q153.0 20.9 153.3 21.4Q153.7 22.0 153.7 22.8L153.7 22.8L153.7 28L151.6 28L151.6 23.2Q151.6 22.6 151.3 22.3Q150.9 22.0 150.4 22.0L150.4 22.0Q150.0 22.0 149.7 22.1Q149.4 22.3 149.3 22.6Q149.1 22.9 149.1 23.3L149.1 23.3L149.1 28L147.2 28L147.2 23.2Q147.2 22.6 146.8 22.3Q146.5 22.0 146.0 22.0L146.0 22.0Q145.6 22.0 145.3 22.1Q145.0 22.3 144.9 22.6Q144.7 22.9 144.7 23.4L144.7 23.4L144.7 28ZM157.5 28.2L157.5 28.2Q156.8 28.2 156.2 27.9Q155.7 27.6 155.3 27.1Q155 26.6 155 25.9L155 25.9Q155 25.2 155.2 24.8Q155.5 24.4 155.9 24.1Q156.3 23.8 156.8 23.7Q157.3 23.6 157.9 23.5L157.9 23.5Q158.5 23.4 159.0 23.4Q159.4 23.3 159.5 23.2Q159.7 23.1 159.7 22.8L159.7 22.8L159.7 22.8Q159.7 22.5 159.6 22.2Q159.5 22.0 159.2 21.9Q158.9 21.8 158.5 21.8L158.5 21.8Q158.1 21.8 157.9 21.9Q157.6 22.0 157.4 22.2Q157.2 22.4 157.1 22.7L157.1 22.7L155.2 22.4Q155.4 21.7 155.9 21.2Q156.3 20.8 157.0 20.5Q157.7 20.3 158.5 20.3L158.5 20.3Q159.2 20.3 159.7 20.4Q160.3 20.6 160.8 20.9Q161.2 21.2 161.5 21.7Q161.8 22.2 161.8 22.9L161.8 22.9L161.8 28L159.8 28L159.8 26.9L159.8 26.9Q159.6 27.3 159.3 27.6Q159.0 27.8 158.5 28.0Q158.1 28.2 157.5 28.2ZM158.1 26.7L158.1 26.7Q158.6 26.7 159.0 26.5Q159.3 26.3 159.5 26.0Q159.8 25.7 159.8 25.3L159.8 25.3L159.8 24.4Q159.7 24.5 159.5 24.6Q159.3 24.6 159.1 24.7Q158.8 24.7 158.6 24.7Q158.4 24.8 158.2 24.8L158.2 24.8Q157.9 24.8 157.6 25.0Q157.3 25.1 157.1 25.3Q157.0 25.5 157.0 25.8L157.0 25.8Q157.0 26.1 157.1 26.3Q157.3 26.5 157.5 26.6Q157.8 26.7 158.1 26.7ZM165.6 28L163.5 28L163.5 20.4L165.6 20.4L165.6 28ZM164.6 19.4L164.6 19.4Q164.1 19.4 163.8 19.1Q163.4 18.7 163.4 18.3L163.4 18.3Q163.4 17.9 163.8 17.6Q164.1 17.3 164.6 17.3L164.6 17.3Q165.0 17.3 165.4 17.6Q165.7 17.9 165.7 18.3L165.7 18.3Q165.7 18.7 165.4 19.1Q165.0 19.4 164.6 19.4ZM167.3 17.8L169.4 17.8L169.4 28L167.3 28L167.3 17.8ZM172.6 28.1L172.6 28.1Q172.1 28.1 171.7 27.8Q171.4 27.5 171.4 27.0L171.4 27.0Q171.4 26.5 171.7 26.1Q172.1 25.8 172.6 25.8L172.6 25.8Q173.1 25.8 173.4 26.1Q173.8 26.5 173.8 27.0L173.8 27.0Q173.8 27.5 173.4 27.8Q173.1 28.1 172.6 28.1ZM179.2 28.2L179.2 28.2Q178.1 28.2 177.2 27.7Q176.4 27.2 175.9 26.3Q175.5 25.4 175.5 24.2L175.5 24.2Q175.5 23.0 175.9 22.1Q176.4 21.3 177.2 20.8Q178.1 20.3 179.2 20.3L179.2 20.3Q179.9 20.3 180.5 20.4Q181.0 20.6 181.5 20.9Q181.9 21.3 182.2 21.7Q182.5 22.2 182.6 22.8L182.6 22.8L180.7 23.2Q180.6 22.9 180.5 22.6Q180.4 22.4 180.2 22.2Q180.0 22.1 179.8 22.0Q179.5 21.9 179.2 21.9L179.2 21.9Q178.7 21.9 178.3 22.2Q177.9 22.5 177.8 23.0Q177.6 23.5 177.6 24.2L177.6 24.2Q177.6 24.9 177.8 25.4Q177.9 25.9 178.3 26.2Q178.7 26.5 179.2 26.5L179.2 26.5Q179.5 26.5 179.8 26.4Q180.0 26.4 180.2 26.2Q180.4 26.0 180.5 25.8Q180.7 25.5 180.7 25.2L180.7 25.2L182.6 25.6Q182.5 26.2 182.2 26.6Q181.9 27.1 181.5 27.5Q181.1 27.8 180.5 28.0Q179.9 28.2 179.2 28.2ZM187.5 28.2L187.5 28.2Q186.3 28.2 185.5 27.7Q184.6 27.2 184.2 26.3Q183.7 25.4 183.7 24.2L183.7 24.2Q183.7 23.0 184.2 22.1Q184.6 21.3 185.5 20.8Q186.3 20.3 187.5 20.3L187.5 20.3Q188.6 20.3 189.4 20.8Q190.3 21.3 190.7 22.1Q191.2 23.0 191.2 24.2L191.2 24.2Q191.2 25.4 190.7 26.3Q190.3 27.2 189.4 27.7Q188.6 28.2 187.5 28.2ZM187.5 26.5L187.5 26.5Q188.0 26.5 188.4 26.2Q188.7 25.9 188.9 25.4Q189.1 24.9 189.1 24.2L189.1 24.2Q189.1 23.5 188.9 23.0Q188.7 22.5 188.4 22.2Q188.0 21.9 187.5 21.9L187.5 21.9Q186.9 21.9 186.5 22.2Q186.2 22.5 186.0 23.0Q185.8 23.5 185.8 24.2L185.8 24.2Q185.8 24.9 186.0 25.4Q186.2 25.9 186.5 26.2Q186.9 26.5 187.5 26.5ZM194.7 28L192.6 28L192.6 20.4L194.5 20.4L194.6 21.8Q194.8 21.4 195.0 21.1L195.0 21.1Q195.3 20.7 195.8 20.5Q196.3 20.2 196.8 20.2L196.8 20.2Q197.6 20.2 198.1 20.8L198.1 20.8Q198.5 21.2 198.8 22.0L198.8 22.0Q198.9 21.5 199.2 21.2L199.2 21.2Q199.6 20.7 200.1 20.5Q200.6 20.2 201.2 20.2L201.2 20.2Q201.9 20.2 202.5 20.5Q203.0 20.9 203.3 21.4Q203.7 22.0 203.7 22.8L203.7 22.8L203.7 28L201.6 28L201.6 23.2Q201.6 22.6 201.2 22.3Q200.9 22.0 200.4 22.0L200.4 22.0Q200.0 22.0 199.7 22.1Q199.4 22.3 199.3 22.6Q199.1 22.9 199.1 23.3L199.1 23.3L199.1 28L197.1 28L197.1 23.2Q197.1 22.6 196.8 22.3Q196.5 22.0 196.0 22.0L196.0 22.0Q195.6 22.0 195.3 22.1Q195.0 22.3 194.8 22.6Q194.7 22.9 194.7 23.4L194.7 23.4L194.7 28Z "/></g></svg>