<!-- Generated by readme-aura https://github.com/collectioneur/readme-aura -->
<svg width="160" height="48" viewBox="0 0 160 48" xmlns="http://www.w3.org/2000/svg"><defs><clipPath id="satori_bc-id"><path x="0" y="0" width="160" height="48" d="M24,0 h112 a24,24 0 0 1 24,24 v0 a24,24 0 0 1 -24,24 h-112 a24,24 0 0 1 -24,-24 v0 a24,24 0 0 1 24,-24"/></clipPath></defs><mask id="satori_om-id"><rect x="1" y="1" width="158" height="46" fill="#fff"/><path width="160" height="48" fill="none" stroke="#000" stroke-width="2" d="M7.029,7.029 A24,24 0 0 1 24,0 h112 a24,24 0 0 1 24,24 v0 a24,24 0 0 1 -24,24 h-112 a24,24 0 0 1 -24,-24 v0 A24,24 0 0 1 7.029,7.029"/></mask><path x="0" y="0" width="160" height="48" fill="#09090b" d="M24,0 h112 a24,24 0 0 1 24,24 v0 a24,24 0 0 1 -24,24 h-112 a24,24 0 0 1 -24,-24 v0 a24,24 0 0 1 24,-24"/><path width="160" height="48" clip-path="url(#satori_bc-id)" fill="none" stroke="#27272a" stroke-width="2" d="M7.029,7.029 A24,24 0 0 1 24,0 h112 a24,24 0 0 1 24,24 v0 a24,24 0 0 1 -24,24 h-112 a24,24 0 0 1 -24,-24 v0 A24,24 0 0 1 7.029,7.029"/><mask id="satori_om-id-0"><rect x="52" y="16" width="57" height="17" fill="#fff"/></mask><g  ><path fill="white" d="M59.2 30L53.2 30L53.2 19.8L54.5 19.8L54.5 28.9L59.2 28.9L59.2 30ZM62.2 30L61.0 30L61.0 22.4L62.2 22.4L62.2 30ZM61.6 21.1L61.6 21.1Q61.3 21.1 61.0 20.9Q60.8 20.6 60.8 20.3L60.8 20.3Q60.8 20.0 61.0 19.7Q61.3 19.5 61.6 19.5L61.6 19.5Q62.0 19.5 62.2 19.7Q62.5 20.0 62.5 20.3L62.5 20.3Q62.5 20.6 62.2 20.9Q62.0 21.1 61.6 21.1ZM65.6 25.4L65.6 25.4L65.6 30L64.4 30L64.4 22.4L65.6 22.4L65.6 23.8Q65.9 23.1 66.4 22.7L66.4 22.7Q67.0 22.3 67.9 22.3L67.9 22.3Q68.7 22.3 69.3 22.6Q69.8 22.9 70.2 23.5Q70.5 24.2 70.5 25.1L70.5 25.1L70.5 30L69.3 30L69.3 25.2Q69.3 24.4 68.8 23.9Q68.3 23.4 67.5 23.4L67.5 23.4Q67.0 23.4 66.6 23.6Q66.1 23.8 65.9 24.3Q65.6 24.8 65.6 25.4ZM73.9 30L72.7 30L72.7 19.8L73.9 19.8L73.9 25.7L74.0 25.7L77.3 22.4L78.8 22.4L75.6 25.6L79.1 30L77.5 30L74.7 26.4L73.9 27.2L73.9 30ZM83.6 30.2L83.6 30.2Q82.4 30.2 81.6 29.7Q80.8 29.2 80.4 28.3Q80.0 27.4 80.0 26.2Q80.0 25.1 80.4 24.2Q80.8 23.3 81.6 22.8Q82.4 22.3 83.4 22.3L83.4 22.3Q84.0 22.3 84.6 22.5Q85.2 22.7 85.7 23.1Q86.2 23.6 86.5 24.3Q86.7 25.0 86.7 26.1L86.7 26.1L86.7 26.6L81.2 26.6Q81.2 27.3 81.5 27.9L81.5 27.9Q81.8 28.5 82.3 28.8Q82.9 29.1 83.6 29.1L83.6 29.1Q84.0 29.1 84.4 28.9Q84.8 28.8 85.0 28.5Q85.3 28.3 85.4 27.9L85.4 27.9L86.6 28.2Q86.4 28.8 86.0 29.2Q85.6 29.7 85.0 29.9Q84.3 30.2 83.6 30.2ZM81.2 25.6L81.2 25.6L85.5 25.6Q85.4 25.0 85.3 24.6L85.3 24.6Q85.0 24.0 84.6 23.7Q84.1 23.4 83.4 23.4Q82.7 23.4 82.2 23.7Q81.7 24.0 81.5 24.6L81.5 24.6Q81.3 25.0 81.2 25.6ZM91.4 30.2L91.4 30.2Q90.4 30.2 89.7 29.7Q89.0 29.2 88.5 28.3Q88.1 27.4 88.1 26.2L88.1 26.2Q88.1 25.0 88.5 24.1Q89.0 23.2 89.7 22.7Q90.4 22.3 91.4 22.3L91.4 22.3Q92.1 22.3 92.6 22.5Q93.0 22.8 93.2 23.1Q93.5 23.4 93.6 23.6L93.6 23.6L93.7 23.6L93.7 19.8L94.9 19.8L94.9 30L93.7 30L93.7 28.8L93.6 28.8Q93.5 29.0 93.2 29.3Q93.0 29.7 92.5 29.9Q92.1 30.2 91.4 30.2ZM91.6 29.1L91.6 29.1Q92.3 29.1 92.7 28.7Q93.2 28.3 93.5 27.7Q93.7 27.0 93.7 26.2L93.7 26.2Q93.7 25.3 93.5 24.7Q93.2 24.1 92.7 23.7Q92.3 23.4 91.6 23.4L91.6 23.4Q90.8 23.4 90.3 23.7Q89.9 24.1 89.6 24.8Q89.4 25.4 89.4 26.2L89.4 26.2Q89.4 27.0 89.6 27.6Q89.9 28.3 90.4 28.7Q90.8 29.1 91.6 29.1ZM97.2 19.8L98.5 19.8L98.5 30L97.2 30L97.2 19.8ZM102.1 25.4L102.1 25.4L102.1 30L100.8 30L100.8 22.4L102.0 22.4L102.0 23.8Q102.3 23.1 102.9 22.7L102.9 22.7Q103.5 22.3 104.4 22.3L104.4 22.3Q105.1 22.3 105.7 22.6Q106.3 22.9 106.6 23.5Q106.9 24.2 106.9 25.1L106.9 25.1L106.9 30L105.7 30L105.7 25.2Q105.7 24.4 105.3 23.9Q104.8 23.4 104.0 23.4L104.0 23.4Q103.4 23.4 103.0 23.6Q102.6 23.8 102.3 24.3Q102.1 24.8 102.1 25.4Z "/></g></svg>